<svg width="32" height="33" viewBox="0 0 32 33" fill="none" xmlns="http://www.w3.org/2000/svg">
<path d="M11.3307 0.527263C12.4803 0.411433 13.6689 0.741431 14.5911 1.43815C15.0771 1.80707 15.4973 2.26613 15.806 2.79359C16.2895 3.59873 16.5189 4.5539 16.4515 5.49015C16.3853 6.57801 15.9157 7.63577 15.1576 8.41837C14.7518 8.83867 14.2701 9.18773 13.737 9.42837C13.0744 9.73284 12.3402 9.88035 11.6114 9.85041C10.9838 9.82834 10.361 9.67579 9.79337 9.40773C8.7178 8.90848 7.85625 7.97664 7.42744 6.87271C7.35353 6.66453 7.27789 6.45414 7.2388 6.23651C7.23534 6.23651 7.2284 6.23682 7.22494 6.23682C7.22509 6.21838 7.22572 6.19995 7.22226 6.18182C7.00825 5.21184 7.11635 4.17583 7.51853 3.26795C7.86807 2.48991 8.43493 1.81117 9.13747 1.32767C9.78549 0.882161 10.5474 0.602277 11.3307 0.527263Z" fill="#FF3030"/>
<path d="M16.7867 0.603853C16.7865 0.569183 16.7842 0.534197 16.7909 0.5C17.2024 0.508352 17.6148 0.488653 18.0258 0.518123C19.2137 0.601016 20.3821 0.981916 21.3833 1.62804C21.7234 1.8482 22.0474 2.09404 22.3462 2.36778C22.6376 2.62891 22.9001 2.92061 23.1446 3.22587C23.427 3.58471 23.6788 3.96876 23.8846 4.37676C23.9335 4.4532 23.9612 4.54003 24.0049 4.6193C24.3697 5.40158 24.5974 6.25037 24.6574 7.11193C24.6508 7.21893 24.6562 7.32626 24.647 7.43295C24.653 7.43736 24.6653 7.44603 24.6715 7.45044C24.6751 8.74506 24.6713 10.04 24.6734 11.3346C24.6311 12.6478 24.2096 13.9461 23.4805 15.039C22.8076 16.0457 21.8782 16.8807 20.8009 17.4347C19.8846 17.9043 18.8669 18.178 17.8375 18.2193C17.7376 18.2217 17.6372 18.2133 17.5378 18.2272C17.2891 18.2308 17.0402 18.2253 16.7916 18.2299C16.7801 18.1227 16.7898 18.014 16.7867 17.9064C16.7867 12.1388 16.7867 6.37141 16.7867 0.603853Z" fill="#FF3030"/>
<path d="M24.6537 7.33177C24.6576 7.28087 24.6445 7.22555 24.6663 7.17796C24.6691 7.26338 24.6696 7.34895 24.6787 7.43405C24.6466 7.4112 24.6578 7.3655 24.6537 7.33177Z" fill="#FF3030"/>
<path d="M16.4666 7.79052C16.4787 7.77791 16.4936 7.76877 16.5085 7.75995C16.5047 10.3542 16.508 12.9488 16.5069 15.5431C16.5079 16.4401 16.5049 17.3371 16.5084 18.234C16.3692 18.2491 16.228 18.2364 16.0881 18.2406C14.2446 18.2406 12.401 18.2406 10.5575 18.2406C9.00147 18.2395 7.44541 18.2428 5.88934 18.239C5.92464 18.1851 5.97712 18.1454 6.02235 18.1005C6.87477 17.2561 7.73128 16.4155 8.58306 15.5705C8.9055 15.2577 9.22399 14.9409 9.5417 14.6234C9.90936 14.2657 10.2743 13.9051 10.6377 13.5429C10.9652 13.2189 11.297 12.8995 11.6211 12.5722C12.4589 11.7495 13.2919 10.9222 14.1292 10.0991C14.2983 9.92778 14.4731 9.762 14.6411 9.58943C14.7306 9.51127 14.8114 9.42381 14.8965 9.34075C15.221 9.02431 15.5403 8.70235 15.8637 8.38464C16.0671 8.18939 16.2669 7.98988 16.4666 7.79052Z" fill="#FF3030"/>
<path d="M5.91109 18.4307C10.6753 18.43 15.4394 18.4314 20.2034 18.43C20.1903 18.4663 20.1547 18.4864 20.1303 18.5145C19.2654 19.3882 18.4004 20.2614 17.5322 21.1319C17.3494 21.322 17.1622 21.508 16.9747 21.6936C16.7711 21.9095 16.5555 22.1139 16.3497 22.3278C15.8893 22.7822 15.4393 23.2467 14.9811 23.7032C14.4775 24.2185 13.9645 24.725 13.458 25.2377C13.4397 25.2553 13.4221 25.2796 13.3929 25.2746C10.9082 25.2741 8.42326 25.2744 5.93851 25.2744C5.93126 25.2733 5.91661 25.2708 5.90936 25.2695C5.91267 22.99 5.9092 20.7102 5.91109 18.4307Z" fill="#FF3030"/>
<path d="M24.8087 18.4195C25.6629 18.4196 26.5172 18.4195 27.3713 18.4195C27.5294 18.4143 27.6864 18.443 27.8402 18.4762C28.4872 18.622 29.0456 19.0918 29.3176 19.6942C29.4397 19.9552 29.5001 20.2412 29.5151 20.5281V23.2278C29.496 23.6906 29.3321 24.147 29.0432 24.5101C28.6464 25.0164 28.0159 25.3307 27.3721 25.3395C26.5177 25.3409 25.6632 25.3385 24.8086 25.3408C24.8081 23.0336 24.8078 20.7266 24.8087 18.4195Z" fill="#FF3030"/>
<path d="M19.6222 19.3291C19.9144 19.0355 20.2129 18.7479 20.5019 18.4513C21.8714 18.4463 23.2412 18.4516 24.6106 18.4485C24.6234 18.5982 24.6125 18.7495 24.6162 18.8998C24.6162 20.7799 24.6162 22.6601 24.6162 24.5402C24.6147 24.8155 24.6192 25.091 24.614 25.3661C24.1519 25.3715 23.6895 25.3658 23.2273 25.369C23.198 25.377 23.1948 25.3297 23.1639 25.3412C21.3937 25.3415 19.6235 25.3412 17.8533 25.3414C16.5218 25.3403 15.1903 25.3433 13.8588 25.3398C13.8597 25.2514 13.8663 25.1633 13.8676 25.0752C14.7674 24.1798 15.6634 23.2804 16.5618 22.3837C16.7917 22.1563 17.0152 21.9223 17.2503 21.7004C18.0411 20.9102 18.8308 20.1188 19.6222 19.3291Z" fill="#FF3030"/>
<path d="M13.8794 25.482C14.4053 25.4775 14.9312 25.4813 15.4571 25.4801C17.2213 25.4793 18.9854 25.4818 20.7496 25.4788C20.7572 25.5122 20.7581 25.5467 20.7572 25.5814C20.7556 27.8876 20.7585 30.1938 20.7556 32.5H13.5923C13.6101 32.3747 13.6021 32.2477 13.6098 32.1219C13.627 31.9593 13.6153 31.7951 13.6339 31.6328C13.6344 31.417 13.6541 31.2024 13.6558 30.9868C13.6727 30.819 13.6626 30.6497 13.6804 30.482C13.679 30.3029 13.6974 30.1246 13.6988 29.9458C13.716 29.5414 13.733 29.137 13.748 28.7326C13.7694 28.3076 13.7776 27.8818 13.8053 27.4572C13.8076 27.0472 13.841 26.6377 13.8463 26.2278C13.863 26.2879 13.8518 26.3503 13.857 26.4117C13.8723 26.3408 13.8485 26.2685 13.8522 26.197C13.8588 25.9585 13.8723 25.7204 13.8794 25.482Z" fill="#FF3030"/>
</svg>
