<svg width="32" height="33" viewBox="0 0 32 33" fill="none" xmlns="http://www.w3.org/2000/svg">
<path d="M4.11867 8.22759C5.08553 8.08598 6.09988 8.10951 7.02535 8.44806C7.68415 8.68509 8.2959 9.10992 8.65493 9.72254C7.98916 10.2271 7.31946 10.726 6.65107 11.2271C6.41099 10.8131 6.01666 10.4798 5.54652 10.3657C4.94959 10.224 4.28643 10.3147 3.77533 10.6646C3.28863 10.987 2.97317 11.526 2.86119 12.0928C2.78756 12.4811 2.76272 12.8963 2.90476 13.2728C3.06293 13.6941 3.442 14.0117 3.86988 14.1359C4.44198 14.2989 5.08074 14.2226 5.59402 13.9185C5.86983 13.7612 6.10076 13.5394 6.31339 13.3059C6.85978 13.8061 7.40573 14.3067 7.95168 14.8074C7.46063 15.3973 6.8162 15.8688 6.08158 16.1028C5.19446 16.3864 4.24111 16.4339 3.32087 16.3128C2.38016 16.1803 1.4438 15.7803 0.805911 15.0588C0.351892 14.5499 0.0752117 13.8906 0.0190041 13.2118C-0.0698824 12.1316 0.203313 11.0083 0.854275 10.1334C1.61591 9.07811 2.84768 8.42758 4.11867 8.22759Z" fill="#FF3030"/>
<path d="M7.89433 16.3629C8.44073 13.6253 8.9906 10.8881 9.53568 8.15005C10.845 8.15005 12.1539 8.14961 13.4632 8.15048C14.2589 8.17793 15.0911 8.34612 15.7307 8.84807C16.2131 9.21189 16.5263 9.77789 16.6039 10.3748C16.7107 11.1757 16.5612 12.0301 16.095 12.7007C15.6994 13.2924 15.0928 13.7216 14.4297 13.9651C14.8815 14.7673 15.3455 15.5629 15.8009 16.3629C14.8388 16.3638 13.8767 16.3629 12.9147 16.3638C12.5243 15.6749 12.1387 14.983 11.7491 14.2937C11.5265 14.2937 11.3043 14.2932 11.082 14.2941C10.9461 14.9838 10.8106 15.674 10.6716 16.3638C9.7457 16.3625 8.82024 16.3642 7.89433 16.3629ZM11.496 12.2022C11.8759 12.2022 12.2563 12.2022 12.6363 12.2022C12.899 12.1979 13.1718 12.1499 13.394 12.0018C13.5996 11.8685 13.7469 11.6519 13.7953 11.4118C13.8493 11.1399 13.8441 10.8293 13.6693 10.5997C13.5168 10.4079 13.2676 10.3278 13.0319 10.3034C12.6489 10.2694 12.2642 10.2907 11.8803 10.2855C11.7535 10.9247 11.6206 11.5626 11.496 12.2022Z" fill="#FF3030"/>
<path d="M16.3821 16.3638C16.9281 13.6257 17.4775 10.8885 18.0239 8.15048C20.8561 8.15005 23.6882 8.14961 26.5204 8.15048C26.1239 8.8485 25.72 9.54217 25.3252 10.2411C23.6612 10.2428 21.9972 10.2402 20.3332 10.2419C20.2718 10.5578 20.2086 10.8733 20.1498 11.1896C21.1293 11.1896 22.1092 11.1879 23.0891 11.1905C22.6965 11.8576 22.3053 12.526 21.9127 13.1935C21.1872 13.1935 20.4622 13.1935 19.7367 13.1939C19.6644 13.5486 19.5986 13.905 19.5254 14.2597C20.6875 14.2623 21.8495 14.2606 23.0116 14.2606C22.6098 14.9625 22.2042 15.6623 21.8011 16.3633C19.9951 16.3638 18.1886 16.3625 16.3821 16.3638Z" fill="#FF3030"/>
<path d="M27.201 8.1496C28.1382 8.15047 29.0755 8.15003 30.0131 8.15003C30.6754 10.8876 31.3395 13.6253 32 16.3633C31.1307 16.3633 30.2611 16.3633 29.3914 16.3633C28.9922 14.6435 28.5923 12.9238 28.1979 11.2027C27.164 12.9233 26.1265 14.6418 25.0934 16.3633C24.2229 16.3629 23.3519 16.3646 22.4809 16.3624C24.0538 13.6244 25.6268 10.8868 27.201 8.1496Z" fill="#FF3030"/>
<path d="M0 16.9289C0.950301 16.9311 1.90017 16.9289 2.85047 16.9298C3.18771 18.521 3.52757 20.1118 3.86787 21.7026C4.84867 20.1105 5.84167 18.5263 6.81986 16.9328C7.77234 16.925 8.72525 16.9333 9.67773 16.9289C8.02418 19.6683 6.36366 22.4041 4.70924 25.1431C3.79815 25.1426 2.8875 25.1435 1.97642 25.1426C1.31674 22.405 0.65837 19.667 0 16.9289Z" fill="#FF3030"/>
<path d="M11.299 16.9298C12.2254 16.9302 13.1517 16.9293 14.078 16.9302C13.533 19.6635 12.9866 22.3967 12.438 25.1295C12.133 25.1618 11.8141 25.1335 11.5034 25.143C10.8882 25.143 10.2729 25.1435 9.65769 25.143C10.2028 22.4046 10.7526 19.6674 11.299 16.9298Z" fill="#FF3030"/>
<path d="M16.0405 16.9285C18.5673 16.9315 21.094 16.9285 23.6203 16.9302C23.4804 17.6496 23.331 18.3676 23.1872 19.0866C22.3868 19.0866 21.5863 19.0866 20.7859 19.0866C20.3811 21.1048 19.9816 23.1239 19.579 25.1422C18.6527 25.1439 17.7268 25.1431 16.8004 25.1426C17.203 23.1239 17.603 21.1048 18.0074 19.087C17.2065 19.0861 16.4057 19.087 15.6052 19.0866C15.7495 18.3668 15.8959 17.6478 16.0405 16.9285Z" fill="#FF3030"/>
<path d="M25.2512 16.9297C27.4777 16.9297 29.7038 16.9293 31.9303 16.9302C31.7909 17.6273 31.6471 18.3236 31.5081 19.0212C30.1909 19.0225 28.8737 19.0181 27.557 19.0234C27.4977 19.3428 27.4337 19.6608 27.3709 19.9793C28.1374 19.9806 28.9034 19.9789 29.6698 19.9802C29.5347 20.6477 29.4014 21.3152 29.2694 21.9828C28.4994 21.9854 27.7295 21.9832 26.9596 21.9841C26.8895 22.3366 26.8219 22.6895 26.7522 23.0424C28.1234 23.0389 29.4942 23.0407 30.865 23.0416C30.7255 23.7422 30.5796 24.4415 30.4419 25.1426C28.1644 25.1435 25.8864 25.143 23.6089 25.143C24.1553 22.405 24.7035 19.6674 25.2512 16.9297Z" fill="#FF3030"/>
</svg>
