<svg width="32" height="33" viewBox="0 0 32 33" fill="none" xmlns="http://www.w3.org/2000/svg">
<path d="M1.80443 17.2141H0V12.1241H1.8193C2.33121 12.1241 2.772 12.226 3.14144 12.4298C3.51099 12.632 3.79507 12.9228 3.99391 13.3022C4.1945 13.6816 4.29473 14.1356 4.29473 14.6642C4.29473 15.1944 4.1945 15.65 3.99391 16.0311C3.79507 16.4122 3.50937 16.7046 3.13656 16.9084C2.76538 17.1123 2.32133 17.2141 1.80443 17.2141ZM1.07616 16.2921H1.75968C2.07775 16.2921 2.34533 16.2357 2.56241 16.1231C2.78113 16.0087 2.9451 15.8323 3.05445 15.5937C3.16556 15.3535 3.22105 15.0437 3.22105 14.6642C3.22105 14.2881 3.16556 13.9807 3.05445 13.7421C2.9451 13.5035 2.78188 13.3279 2.56491 13.2152C2.34783 13.1025 2.08025 13.0462 1.76206 13.0462H1.07616V16.2921Z" fill="#FF3030"/>
<path d="M5.07197 17.2141V13.3966H6.13078V17.2141H5.07197ZM5.60387 12.9045C5.4464 12.9045 5.31143 12.8523 5.1987 12.7479C5.08772 12.6419 5.03223 12.5151 5.03223 12.3677C5.03223 12.2219 5.08772 12.0968 5.1987 11.9924C5.31143 11.8863 5.4464 11.8333 5.60387 11.8333C5.76122 11.8333 5.89545 11.8863 6.00643 11.9924C6.11916 12.0968 6.17552 12.2219 6.17552 12.3677C6.17552 12.5151 6.11916 12.6419 6.00643 12.7479C5.89545 12.8523 5.76122 12.9045 5.60387 12.9045Z" fill="#FF3030"/>
<path d="M6.97888 17.2141V13.3966H8.00532V14.0627H8.04506C8.11468 13.8257 8.23153 13.6468 8.3955 13.5258C8.5596 13.4032 8.74844 13.3419 8.96215 13.3419C9.01514 13.3419 9.07238 13.3452 9.13362 13.3519C9.19498 13.3585 9.24885 13.3676 9.29522 13.3792V14.3187C9.24547 14.3037 9.17674 14.2905 9.08888 14.2789C9.00114 14.2673 8.92078 14.2615 8.8478 14.2615C8.69207 14.2615 8.55297 14.2955 8.43037 14.3634C8.30939 14.4297 8.21328 14.5225 8.14205 14.6418C8.07243 14.7611 8.03757 14.8986 8.03757 15.0544V17.2141H6.97888Z" fill="#FF3030"/>
<path d="M11.4047 17.2887C11.012 17.2887 10.674 17.2091 10.3906 17.05C10.1089 16.8893 9.89186 16.6624 9.73951 16.3692C9.58704 16.0742 9.5108 15.7254 9.5108 15.3227C9.5108 14.93 9.58704 14.5855 9.73951 14.2889C9.89186 13.9923 10.1064 13.7611 10.3831 13.5955C10.6616 13.4298 10.9879 13.3469 11.3623 13.3469C11.6143 13.3469 11.8488 13.3875 12.0657 13.4687C12.2844 13.5482 12.475 13.6684 12.6374 13.8291C12.8015 13.9898 12.9291 14.1919 13.0202 14.4355C13.1113 14.6774 13.1568 14.9608 13.1568 15.2855V15.5763H9.93335V14.9202H12.1602C12.1602 14.7677 12.1271 14.6327 12.0608 14.515C11.9945 14.3974 11.9025 14.3054 11.7849 14.2392C11.6689 14.1712 11.5339 14.1373 11.3798 14.1373C11.2191 14.1373 11.0766 14.1745 10.9523 14.2491C10.8297 14.322 10.7336 14.4206 10.664 14.5449C10.5945 14.6675 10.5589 14.8042 10.5571 14.9549V15.5788C10.5571 15.7676 10.592 15.9309 10.6616 16.0683C10.7328 16.2059 10.8331 16.3119 10.9623 16.3865C11.0915 16.461 11.2447 16.4984 11.4221 16.4984C11.5397 16.4984 11.6474 16.4818 11.7452 16.4486C11.8429 16.4155 11.9266 16.3658 11.9962 16.2995C12.0657 16.2332 12.1188 16.1521 12.1552 16.056L13.1344 16.1206C13.0848 16.3559 12.9828 16.5612 12.8287 16.737C12.6764 16.9109 12.4791 17.0468 12.2372 17.1445C11.997 17.2406 11.7194 17.2887 11.4047 17.2887Z" fill="#FF3030"/>
<path d="M15.5726 17.2887C15.1815 17.2887 14.8452 17.2059 14.5635 17.0402C14.2836 16.8728 14.0681 16.6409 13.9174 16.3443C13.7682 16.0477 13.6937 15.7064 13.6937 15.3203C13.6937 14.9293 13.769 14.5863 13.9199 14.2914C14.0722 13.9948 14.2884 13.7636 14.5685 13.5979C14.8485 13.4306 15.1815 13.3469 15.5676 13.3469C15.9006 13.3469 16.1922 13.4074 16.4424 13.5284C16.6926 13.6493 16.8906 13.8191 17.0364 14.0378C17.1823 14.2566 17.2626 14.5134 17.2775 14.8083H16.2785C16.2502 14.6178 16.1757 14.4645 16.0547 14.3485C15.9354 14.2309 15.7789 14.1721 15.5849 14.1721C15.421 14.1721 15.2776 14.2168 15.155 14.3063C15.034 14.3941 14.9397 14.5225 14.8717 14.6915C14.8037 14.8606 14.7698 15.0651 14.7698 15.3053C14.7698 15.5489 14.803 15.756 14.8692 15.9267C14.9372 16.0973 15.0324 16.2274 15.155 16.3169C15.2776 16.4064 15.421 16.4511 15.5849 16.4511C15.7059 16.4511 15.8145 16.4263 15.9106 16.3765C16.0084 16.3269 16.0887 16.2548 16.1516 16.1603C16.2163 16.0642 16.2586 15.9491 16.2785 15.8149H17.2775C17.2609 16.1065 17.1814 16.3633 17.0389 16.5854C16.8981 16.8057 16.7034 16.978 16.4549 17.1023C16.2063 17.2265 15.9123 17.2887 15.5726 17.2887Z" fill="#FF3030"/>
<path d="M19.9859 13.3966V14.1919H17.687V13.3966H19.9859ZM18.2089 12.482H19.2677V16.0411C19.2677 16.1388 19.2825 16.215 19.3124 16.2697C19.3423 16.3226 19.3836 16.36 19.4366 16.3815C19.4914 16.403 19.5544 16.4139 19.6256 16.4139C19.6752 16.4139 19.725 16.4096 19.7747 16.4014C19.8244 16.3915 19.8624 16.384 19.8891 16.379L20.0555 17.1669C20.0025 17.1835 19.9279 17.2025 19.8318 17.2241C19.7357 17.2472 19.619 17.2613 19.4814 17.2663C19.2263 17.2762 19.0026 17.2422 18.8104 17.1644C18.6198 17.0865 18.4716 16.9655 18.3655 16.8016C18.2595 16.6375 18.2072 16.4304 18.2089 16.1802V12.482Z" fill="#FF3030"/>
<path d="M26.9454 14.6691C26.9454 15.2242 26.8402 15.6964 26.6299 16.0858C26.421 16.4751 26.1361 16.7725 25.7749 16.978C25.4153 17.1817 25.011 17.2837 24.562 17.2837C24.1097 17.2837 23.7038 17.181 23.3442 16.9755C22.9846 16.77 22.7004 16.4726 22.4917 16.0833C22.2829 15.6939 22.1785 15.2224 22.1785 14.6691C22.1785 14.114 22.2829 13.6418 22.4917 13.2524C22.7004 12.8631 22.9846 12.5665 23.3442 12.3627C23.7038 12.1572 24.1097 12.0545 24.562 12.0545C25.011 12.0545 25.4153 12.1572 25.7749 12.3627C26.1361 12.5665 26.421 12.8631 26.6299 13.2524C26.8402 13.6418 26.9454 14.114 26.9454 14.6691ZM25.8544 14.6691C25.8544 14.3095 25.8005 14.0063 25.6929 13.7594C25.5868 13.5126 25.4368 13.3254 25.243 13.1978C25.0491 13.0702 24.8222 13.0064 24.562 13.0064C24.3019 13.0064 24.0749 13.0702 23.881 13.1978C23.6871 13.3254 23.5364 13.5126 23.4287 13.7594C23.3227 14.0063 23.2696 14.3095 23.2696 14.6691C23.2696 15.0286 23.3227 15.3318 23.4287 15.5788C23.5364 15.8256 23.6871 16.0128 23.881 16.1404C24.0749 16.268 24.3019 16.3317 24.562 16.3317C24.8222 16.3317 25.0491 16.268 25.243 16.1404C25.4368 16.0128 25.5868 15.8256 25.6929 15.5788C25.8005 15.3318 25.8544 15.0286 25.8544 14.6691Z" fill="#FF3030"/>
<path d="M32 12.1241V17.2141H31.0705L28.856 14.0105H28.8188V17.2141H27.7426V12.1241H28.6871L30.8841 15.3252H30.9288V12.1241H32Z" fill="#FF3030"/>
<path d="M21.6786 14.7145V15.2144H19.0541V14.7145H21.6786Z" fill="#FF3030"/>
<mask id="mask0_3_359" style="mask-type:luminance" maskUnits="userSpaceOnUse" x="21" y="14" width="2" height="2">
<path d="M21.4286 14.2147V15.7144H22.9284V14.2147H21.4286Z" fill="white"/>
</mask>
<g mask="url(#mask0_3_359)">
<path d="M22.0379 14.2147H22.694C22.7196 14.2147 22.7409 14.2359 22.7409 14.2615V14.4959H22.366V14.5896H22.7409V14.7771H22.366V14.8708H22.7409V15.0583H22.366V15.152H22.7409V15.3395H22.366V15.4332H22.7409V15.6675C22.7409 15.6931 22.7198 15.7144 22.694 15.7144H22.0379C22.0121 15.7144 21.991 15.6931 21.991 15.6675V15.5269H21.8504C21.8247 15.5269 21.8036 15.5057 21.8036 15.4801V15.3395H21.663C21.6373 15.3395 21.6161 15.3183 21.6161 15.2926V14.6365C21.6161 14.6107 21.6373 14.5896 21.663 14.5896H21.8036V14.449C21.8036 14.4232 21.8247 14.4021 21.8504 14.4021H21.991V14.2615C21.991 14.2357 22.0121 14.2147 22.0379 14.2147Z" fill="#FF3030"/>
</g>
<path d="M0.25 21.9139V18.8871H0.616499V20.235H2.23023V18.8871H2.5968V21.9139H2.23023V20.5601H0.616499V21.9139H0.25Z" fill="#FF3030"/>
<path d="M4.20549 21.9612C4.00053 21.9612 3.82072 21.9123 3.66604 21.8148C3.51241 21.7172 3.39224 21.5809 3.30554 21.4054C3.21971 21.2301 3.17688 21.0252 3.17688 20.7907C3.17688 20.5542 3.21971 20.3479 3.30554 20.1715C3.39224 19.9952 3.51241 19.8582 3.66604 19.7606C3.82072 19.6631 4.00053 19.6144 4.20549 19.6144C4.41045 19.6144 4.58975 19.6631 4.74338 19.7606C4.89805 19.8582 5.01839 19.9952 5.10405 20.1715C5.19075 20.3479 5.2341 20.5542 5.2341 20.7907C5.2341 21.0252 5.19075 21.2301 5.10405 21.4054C5.01839 21.5809 4.89805 21.7172 4.74338 21.8148C4.58975 21.9123 4.41045 21.9612 4.20549 21.9612ZM4.20549 21.6478C4.3612 21.6478 4.48917 21.608 4.58975 21.5282C4.69032 21.4483 4.76471 21.3434 4.81291 21.2133C4.86112 21.0833 4.8854 20.9425 4.8854 20.7907C4.8854 20.639 4.86112 20.4975 4.81291 20.3666C4.76471 20.2355 4.69032 20.1296 4.58975 20.0487C4.48917 19.9679 4.3612 19.9275 4.20549 19.9275C4.04978 19.9275 3.92181 19.9679 3.82124 20.0487C3.72084 20.1296 3.64645 20.2355 3.59807 20.3666C3.54986 20.4975 3.52576 20.639 3.52576 20.7907C3.52576 20.9425 3.54986 21.0833 3.59807 21.2133C3.64645 21.3434 3.72084 21.4483 3.82124 21.5282C3.92181 21.608 4.04978 21.6478 4.20549 21.6478Z" fill="#FF3030"/>
<path d="M6.11524 18.8871V21.9139H5.76636V18.8871H6.11524Z" fill="#FF3030"/>
<path d="M7.61117 21.9612C7.42199 21.9612 7.255 21.9133 7.11004 21.8178C6.96525 21.7212 6.85202 21.5853 6.77018 21.4099C6.68851 21.2336 6.64758 21.0252 6.64758 20.7848C6.64758 20.5464 6.68851 20.3394 6.77018 20.1641C6.85202 19.9888 6.96577 19.8532 7.1116 19.7576C7.25743 19.6621 7.42598 19.6144 7.61706 19.6144C7.7648 19.6144 7.8815 19.639 7.96733 19.6883C8.05403 19.7365 8.11993 19.7916 8.16536 19.8537C8.21165 19.9149 8.24755 19.965 8.27321 20.0045H8.30269V18.8871H8.65157V21.9139H8.31466V21.5651H8.27321C8.24755 21.6064 8.21114 21.6586 8.1638 21.7217C8.11646 21.7838 8.04901 21.8395 7.96144 21.8887C7.8737 21.9371 7.757 21.9612 7.61117 21.9612ZM7.65833 21.6479C7.79827 21.6479 7.91653 21.6114 8.01311 21.5384C8.1097 21.4646 8.18304 21.3626 8.23333 21.2326C8.28362 21.1015 8.30859 20.9503 8.30859 20.7789C8.30859 20.6094 8.28396 20.4611 8.23472 20.334C8.18547 20.206 8.11264 20.1065 8.01606 20.0356C7.91948 19.9636 7.80035 19.9275 7.65833 19.9275C7.5106 19.9275 7.38748 19.9655 7.28899 20.0415C7.19137 20.1164 7.11802 20.2183 7.06877 20.3474C7.0204 20.4755 6.99629 20.6192 6.99629 20.7789C6.99629 20.9404 7.02091 21.0873 7.07016 21.2192C7.12045 21.3503 7.19431 21.4547 7.29194 21.5325C7.39043 21.6094 7.51268 21.6479 7.65833 21.6479Z" fill="#FF3030"/>
<path d="M9.33874 21.9139V19.6439H9.68745V21.9139H9.33874ZM9.51613 19.2655C9.44799 19.2655 9.38938 19.2425 9.34013 19.1962C9.29193 19.1499 9.26782 19.0942 9.26782 19.0292C9.26782 18.9642 9.29193 18.9085 9.34013 18.8622C9.38938 18.8159 9.44799 18.7927 9.51613 18.7927C9.58411 18.7927 9.64219 18.8159 9.6904 18.8622C9.73964 18.9085 9.76427 18.9642 9.76427 19.0292C9.76427 19.0942 9.73964 19.1499 9.6904 19.1962C9.64219 19.2425 9.58411 19.2655 9.51613 19.2655Z" fill="#FF3030"/>
<path d="M10.675 20.5483V21.9138H10.3263V19.6439H10.6632V19.9986H10.6929C10.7461 19.8833 10.8267 19.7907 10.9351 19.7207C11.0435 19.6498 11.1834 19.6144 11.3549 19.6144C11.5085 19.6144 11.6431 19.6458 11.7584 19.7089C11.8735 19.771 11.9632 19.8656 12.0274 19.9926C12.0913 20.1188 12.1234 20.2783 12.1234 20.4715V21.9138H11.7745V20.4951C11.7745 20.3168 11.7282 20.1779 11.6356 20.0784C11.543 19.9778 11.4159 19.9275 11.2543 19.9275C11.143 19.9275 11.0435 19.9518 10.9559 20C10.8692 20.0482 10.8007 20.1188 10.7504 20.2114C10.7001 20.304 10.675 20.4164 10.675 20.5483Z" fill="#FF3030"/>
<path d="M13.677 22.8124C13.5086 22.8124 13.3636 22.7907 13.2426 22.7474C13.1214 22.7049 13.0203 22.6489 12.9395 22.5788C12.8597 22.51 12.7963 22.436 12.7489 22.3572L13.0267 22.1622C13.0583 22.2034 13.0982 22.2508 13.1465 22.304C13.1947 22.3581 13.2608 22.4049 13.3446 22.4444C13.4292 22.4849 13.54 22.505 13.677 22.505C13.8602 22.505 14.0115 22.4606 14.1308 22.372C14.2499 22.2834 14.3095 22.1445 14.3095 21.9553V21.4942H14.28C14.2544 21.5355 14.218 21.5868 14.1706 21.6478C14.1243 21.7078 14.0572 21.7616 13.9697 21.8089C13.883 21.8552 13.7657 21.8783 13.6178 21.8783C13.4347 21.8783 13.2702 21.8349 13.1243 21.7482C12.9795 21.6615 12.8648 21.5355 12.78 21.3701C12.6962 21.2045 12.6544 21.0035 12.6544 20.767C12.6544 20.5344 12.6952 20.3321 12.777 20.1597C12.8587 19.9863 12.9726 19.8523 13.1184 19.7576C13.2643 19.6621 13.4326 19.6144 13.6237 19.6144C13.7716 19.6144 13.8889 19.639 13.9756 19.6882C14.0633 19.7365 14.1302 19.7916 14.1765 19.8537C14.2239 19.9149 14.2603 19.965 14.2859 20.0045H14.3213V19.6439H14.6582V21.9789C14.6582 22.1739 14.614 22.3326 14.5252 22.4547C14.4377 22.578 14.3194 22.668 14.1706 22.7252C14.0229 22.7833 13.8583 22.8124 13.677 22.8124ZM13.6652 21.5651C13.8051 21.5651 13.9234 21.5331 14.0199 21.4691C14.1164 21.4049 14.1899 21.3128 14.24 21.1927C14.2903 21.0725 14.3154 20.9286 14.3154 20.7611C14.3154 20.5976 14.2908 20.4533 14.2416 20.3281C14.1923 20.2031 14.1193 20.1049 14.0229 20.034C13.9263 19.9631 13.807 19.9275 13.6652 19.9275C13.5174 19.9275 13.3943 19.965 13.2957 20.0399C13.1982 20.1148 13.1249 20.2154 13.0754 20.3414C13.0272 20.4675 13.0031 20.6074 13.0031 20.7611C13.0031 20.9187 13.0278 21.0581 13.077 21.1793C13.1273 21.2995 13.2012 21.3942 13.2986 21.4632C13.3973 21.5311 13.5193 21.5651 13.6652 21.5651Z" fill="#FF3030"/>
<path d="M16.5144 21.9139V18.8871H17.5725C17.7833 18.8871 17.9573 18.9237 18.0943 18.9966C18.2311 19.0685 18.3332 19.1656 18.4001 19.2877C18.4671 19.4089 18.5005 19.5435 18.5005 19.6912C18.5005 19.8213 18.4775 19.9286 18.4312 20.0134C18.3857 20.098 18.3257 20.1651 18.2508 20.2144C18.177 20.2636 18.0967 20.3 18.01 20.3238V20.3532C18.1026 20.3591 18.1957 20.3917 18.2893 20.4507C18.3828 20.5098 18.4612 20.5946 18.5243 20.7049C18.5872 20.8154 18.6188 20.9503 18.6188 21.11C18.6188 21.2617 18.5843 21.3982 18.5154 21.5192C18.4464 21.6404 18.3375 21.7365 18.1888 21.8074C18.04 21.8783 17.8465 21.9139 17.608 21.9139H16.5144ZM16.881 21.5887H17.608C17.8473 21.5887 18.0173 21.5424 18.1178 21.4498C18.2193 21.3562 18.2701 21.243 18.2701 21.11C18.2701 21.0075 18.2439 20.9128 18.1917 20.8261C18.1395 20.7385 18.0651 20.6685 17.9685 20.6163C17.872 20.5631 17.7577 20.5365 17.6257 20.5365H16.881V21.5887ZM16.881 20.2173H17.5607C17.671 20.2173 17.7705 20.1956 17.8593 20.1523C17.9489 20.1089 18.0199 20.0479 18.0721 19.969C18.1253 19.8903 18.1518 19.7975 18.1518 19.6912C18.1518 19.5582 18.1055 19.4453 18.0129 19.3527C17.9203 19.2591 17.7735 19.2123 17.5725 19.2123H16.881V20.2173Z" fill="#FF3030"/>
<path d="M19.4279 21.9375C19.3551 21.9375 19.2925 21.9115 19.2403 21.8593C19.1881 21.8071 19.1619 21.7445 19.1619 21.6715C19.1619 21.5987 19.1881 21.5361 19.2403 21.4839C19.2925 21.4317 19.3551 21.4055 19.4279 21.4055C19.5009 21.4055 19.5635 21.4317 19.6157 21.4839C19.6679 21.5361 19.6941 21.5987 19.6941 21.6715C19.6941 21.7199 19.6816 21.7641 19.657 21.8045C19.6334 21.8449 19.6013 21.8775 19.5609 21.9021C19.5216 21.9257 19.4773 21.9375 19.4279 21.9375Z" fill="#FF3030"/>
<path d="M20.4914 18.8871L21.3898 21.4351H21.4254L22.3239 18.8871H22.7082L21.5969 21.9139H21.2185L20.1072 18.8871H20.4914Z" fill="#FF3030"/>
<path d="M22.984 21.9375C22.9112 21.9375 22.8486 21.9115 22.7964 21.8593C22.7442 21.8071 22.718 21.7445 22.718 21.6715C22.718 21.5987 22.7442 21.5361 22.7964 21.4839C22.8486 21.4317 22.9112 21.4055 22.984 21.4055C23.057 21.4055 23.1196 21.4317 23.1718 21.4839C23.224 21.5361 23.25 21.5987 23.25 21.6715C23.25 21.7199 23.2377 21.7641 23.2131 21.8045C23.1895 21.8449 23.1574 21.8775 23.117 21.9021C23.0776 21.9257 23.0333 21.9375 22.984 21.9375Z" fill="#FF3030"/>
</svg>
