<svg width="32" height="33" viewBox="0 0 32 33" fill="none" xmlns="http://www.w3.org/2000/svg">
<path d="M9.316 2.56993C12.5432 0.367597 16.8415 -0.120037 20.4784 1.31272C20.4766 3.88211 20.4784 6.45149 20.4766 9.01911C16.7582 6.8682 13.0327 4.72793 9.316 2.56993Z" fill="#FF3030"/>
<path d="M21.42 1.72588C24.9309 3.42462 27.5003 6.89302 28.0837 10.7515C25.8636 12.0353 23.6418 13.3174 21.42 14.6012C21.42 10.31 21.4182 6.01883 21.42 1.72588Z" fill="#FF3030"/>
<path d="M8.50032 3.18169C10.7292 4.46372 12.9546 5.75285 15.1818 7.03843C11.4634 9.18579 7.74848 11.3367 4.0265 13.4787C3.70555 9.57944 5.46103 5.62695 8.50032 3.18169Z" fill="#FF3030"/>
<path d="M4.1524 14.4842C6.37246 13.2021 8.59252 11.9183 10.8126 10.6363C10.8126 15.119 10.8161 19.6034 10.8126 24.0861C10.8055 26.1749 10.3906 28.3773 9.05888 30.0459C7.88856 31.5407 6.03023 32.3901 4.15417 32.5C4.14885 26.4959 4.15417 20.49 4.1524 14.4842Z" fill="#FF3030"/>
<path d="M17.0454 18.2026C20.7656 16.057 24.4805 13.9079 28.2007 11.764C28.5234 15.6616 26.768 19.6229 23.7216 22.0593C21.498 20.7737 19.2708 19.4899 17.0454 18.2026Z" fill="#FF3030"/>
<path d="M11.7453 16.2184C15.4673 18.3675 19.191 20.5149 22.9112 22.6675C19.6875 24.8787 15.3804 25.3575 11.7435 23.9265C11.7453 21.3571 11.7435 18.7877 11.7453 16.2184Z" fill="#FF3030"/>
</svg>
