<svg xmlns="http://www.w3.org/2000/svg" fill="none" viewBox="0 0 100 100"><mask id="a"><rect width="100" height="100" fill="#fff" rx="0" ry="0"/></mask><g mask="url(#a)"><path fill="#47eb62" d="M0 0h100v100H0z"/><g filter="url(#b)" opacity=".6" style="mix-blend-mode:screen"><path fill="#fff" d="M-4.286 25.753A20 20 0 0 0 9.692 10.556q.863-3.932.703-8.53-.35-9.994-5.29-16.825A30 30 0 0 0-8.855-24.82q-9.12-3.283-21.712-2.843-12.793.447-21.665 4.258-8.876 3.713-13.632 10.783A29 29 0 0 0-70.06 4.736q.314 8.994 3.122 14.9 2.908 5.902 7.81 8.733t11.497 2.6l-.462 6.82-1.165-33.38 27.982-.976 2.252 64.46-19.988.698Q-59 69.29-73.385 61.386A56 56 0 0 1-95.78 38.954q-8.105-14.326-8.768-33.314-.744-21.287 7.693-37.591t24.911-25.885q16.176-9.57 39.362-10.38a87 87 0 0 1 32.17 4.28 67 67 0 0 1 39.302 36.65Q44.336-14.568 44.85.123q.45 12.892-2.86 24.114-3.21 11.22-9.706 20.051A50 50 0 0 1-2.99 65.732z"/></g><g filter="url(#c)" opacity=".6" style="mix-blend-mode:screen"><path fill="#fff" d="M194.543 88.617 73.835 170.035 15.23 83.152l26.53-17.894 36.515 54.136 20.726-13.98-33.496-49.66 26.363-17.782 33.552 49.743 20.726-13.98-36.404-53.97L136.19 1.925z"/></g><defs><filter id="b" width="214" height="214" x="-57" y="-57" color-interpolation-filters="sRGB" filterUnits="userSpaceOnUse"><feFlood flood-opacity="0" result="BackgroundImageFix"/><feBlend in="SourceGraphic" in2="BackgroundImageFix" result="shape"/><feGaussianBlur result="effect1_foregroundBlur_25_7" stdDeviation="16"/></filter><filter id="c" width="214" height="214" x="-57" y="-57" color-interpolation-filters="sRGB" filterUnits="userSpaceOnUse"><feFlood flood-opacity="0" result="BackgroundImageFix"/><feBlend in="SourceGraphic" in2="BackgroundImageFix" result="shape"/><feGaussianBlur result="effect1_foregroundBlur_25_7" stdDeviation="16"/></filter></defs></g></svg>