<svg xmlns="http://www.w3.org/2000/svg" fill="none" viewBox="0 0 64 64"><rect width="64" height="64" fill="#99F" rx="32"/><path fill="#00005B" d="M21.667 16h20.666C45.467 16 48 18.598 48 21.812v20.376C48 45.402 45.467 48 42.333 48H21.667C18.533 48 16 45.402 16 42.188V21.812C16 18.598 18.533 16 21.667 16Z"/><path fill="#99F" d="M28.853 35.145h-4.96l-1.013 3.228a.234.234 0 0 1-.253.191H20.12c-.147 0-.187-.082-.147-.246l4.294-12.622c.04-.137.08-.26.133-.424.053-.287.08-.588.08-.89-.013-.068.04-.136.107-.15h3.453c.093 0 .16.041.173.11L33.08 38.29c.04.15 0 .218-.133.218H30.16c-.093.014-.187-.054-.213-.15l-1.094-3.282v.068Zm-4.186-2.721h3.386c-.08-.287-.186-.63-.306-.985-.12-.369-.24-.766-.36-1.176-.134-.424-.254-.834-.387-1.258-.133-.424-.253-.82-.36-1.217-.107-.383-.2-.739-.293-1.067h-.027c-.12.588-.267 1.176-.453 1.764-.2.657-.4 1.34-.614 2.024-.173.698-.386 1.34-.586 1.915ZM40.933 33.915h-4.226c.053.424.186.848.413 1.217.24.369.573.656.973.82.534.233 1.12.356 1.707.342a7.832 7.832 0 0 0 1.387-.15 4.905 4.905 0 0 0 1.186-.315c.067-.055.107-.027.107.11v2.092c0 .055-.013.11-.027.164a.316.316 0 0 1-.093.096 5.597 5.597 0 0 1-1.333.41 8.785 8.785 0 0 1-1.894.164c-1.013 0-1.866-.164-2.56-.479a4.501 4.501 0 0 1-1.68-1.299 5.06 5.06 0 0 1-.92-1.791 7.144 7.144 0 0 1-.28-1.997c0-.738.107-1.463.334-2.174a5.624 5.624 0 0 1 1-1.874c.44-.547.986-.984 1.613-1.299.627-.314 1.373-.424 2.227-.424a4.714 4.714 0 0 1 2.066.424 3.686 3.686 0 0 1 1.4 1.094c.347.465.627.985.8 1.56.174.546.254 1.107.254 1.668 0 .328-.014.615-.027.875-.027.26-.04.451-.053.574-.014.096-.094.178-.187.178-.08 0-.227.014-.44.027a6.164 6.164 0 0 1-.773.041c-.307 0-.627-.054-.974-.054Zm-4.226-1.997h2.813c.347 0 .6 0 .76-.014a.64.64 0 0 0 .307-.11v-.136c0-.178-.027-.342-.08-.506-.24-.766-.947-1.285-1.734-1.258A1.87 1.87 0 0 0 37 30.934c-.16.314-.253.642-.293.984Z"/></svg>