<svg xmlns="http://www.w3.org/2000/svg" fill="none" viewBox="0 0 64 64"><rect width="64" height="64" fill="#6BE1FB" rx="32"/><path fill="#134881" d="M48 19.125C48 17.4 46.6 16 44.875 16h-25.75A3.127 3.127 0 0 0 16 19.125v25.75C16 46.599 17.4 48 19.125 48h25.75C46.6 48 48 46.6 48 44.875v-25.75Z"/><path fill="url(#a)" d="M45.657 44.416a1.251 1.251 0 0 1-1.25 1.24H31.79l-5.392-9.34h19.258v8.1Zm-27.313-.01v-5.484l11.881-20.578h4.643L24.831 35.729l5.731 9.927H19.594c-.69 0-1.25-.56-1.25-1.25Zm15.224-9.155h-4.694a1.462 1.462 0 0 1-1.27-2.195l2.348-4.068 3.616 6.263Zm10.839-16.907c.686 0 1.244.555 1.25 1.24v15.667H34.798l-4.231-7.328 5.53-9.58h8.31Z"/><defs><radialGradient id="a" cx="0" cy="0" r="1" gradientTransform="translate(39.232 13.193) scale(32.4434)" gradientUnits="userSpaceOnUse"><stop stop-color="#6BE1FB"/><stop offset="1" stop-color="#38BDFA"/></radialGradient></defs></svg>