<svg xmlns="http://www.w3.org/2000/svg" fill="none" viewBox="0 0 64 64"><rect width="64" height="64" fill="#F9A6FF" rx="32"/><path fill="#4E3188" fill-rule="evenodd" d="M48 19.125C48 17.4 46.6 16 44.875 16h-25.75A3.126 3.126 0 0 0 16 19.125v25.75C16 46.6 17.4 48 19.125 48h25.75C46.6 48 48 46.6 48 44.875v-25.75Z" clip-rule="evenodd"/><path fill="url(#a)" fill-rule="evenodd" d="M45.656 36.315v8.091a1.25 1.25 0 0 1-1.225 1.25h-8.263l-5.395-9.34h14.883ZM34.94 45.656H20.32l7.313-12.647 7.305 12.647Zm-15.792-.082a1.251 1.251 0 0 1-.8-1.075l-.003-5.577 5.943-10.29h4.645l-9.785 16.942Zm14.033-16.96c.404.001.792.239 1 .591l.007.011 1.228 2.127.01.017c.201.351.21.794.009 1.151-.412.72-.83 1.437-1.245 2.155-.204.35-.59.578-1 .583-.782.003-2.35.001-2.352.001a1.188 1.188 0 0 1-1.008-.57l-.013-.023-1.232-2.132c-.2-.35-.2-.804 0-1.162l.01-.015 1.233-2.14a1.2 1.2 0 0 1 1-.595H33.18ZM44.81 18.41l-9.727 16.84h10.573V19.594c0-.55-.354-1.016-.847-1.184Zm-14.58-.066h13.388l-7.24 12.536-6.695-11.59.546-.946Zm3.005 9.224h-8.334l4.167-7.214 4.167 7.215Z" clip-rule="evenodd"/><defs><radialGradient id="a" cx="0" cy="0" r="1" gradientTransform="matrix(32.4455 0 0 32.4453 39.22 13.21)" gradientUnits="userSpaceOnUse"><stop stop-color="#F9A6FF"/><stop offset="1" stop-color="#EA73FF"/></radialGradient></defs></svg>