<svg xmlns="http://www.w3.org/2000/svg" fill="none" viewBox="0 0 64 64"><rect width="64" height="64" fill="#FFAE71" rx="32"/><path fill="#891B26" fill-rule="evenodd" d="M48 19.125C48 17.4 46.6 16 44.875 16h-25.75A3.126 3.126 0 0 0 16 19.125v25.75C16 46.6 17.4 48 19.125 48h25.75C46.6 48 48 46.6 48 44.875v-25.75Z" clip-rule="evenodd"/><path fill="url(#a)" fill-rule="evenodd" d="m30.567 45.656-8.056-13.948-4.167 7.214v5.484c0 .69.56 1.25 1.25 1.25h10.973Zm5.875 0h-4.645s-6.017-10.421-8.033-13.908a2.208 2.208 0 0 1 0-2.21l1.684-2.916 10.994 19.034Zm5.875 0h-4.645L26.132 25.44l2.254-3.903 13.93 24.12Zm3.34-4.388v3.138c0 .69-.56 1.25-1.25 1.25h-.86L29 20.473l1.23-2.13h2.186l13.24 22.925Zm-1.25-22.924H33.645l12.012 20.795V19.594c0-.69-.56-1.25-1.25-1.25Z" clip-rule="evenodd"/><defs><radialGradient id="a" cx="0" cy="0" r="1" gradientTransform="matrix(32.4457 0 0 32.4456 39.218 13.21)" gradientUnits="userSpaceOnUse"><stop stop-color="#FFAE71"/><stop offset="1" stop-color="#FF9350"/></radialGradient></defs></svg>