<svg xmlns="http://www.w3.org/2000/svg" fill="none" viewBox="0 0 64 64"><rect width="64" height="64" fill="#4FFD7A" rx="32"/><path fill="#0F3017" fill-rule="evenodd" d="M31.82 13.048a.357.357 0 0 1 .36 0l15.64 9.07a.36.36 0 0 1 0 .624l-7.809 4.528a.354.354 0 0 1-.37.007L32 22.846l-7.462 4.326v8.655L32 40.156l7.642-4.431a.357.357 0 0 1 .358 0l7.82 4.535a.36.36 0 0 1 0 .623l-15.64 9.07a.357.357 0 0 1-.36 0L24 45.417l-7.82-4.535a.36.36 0 0 1-.18-.312V22.43a.36.36 0 0 1 .18-.312L24 17.583l7.82-4.535Zm-7.999 5.47-6.746 3.912 6.746 3.912v-7.824Zm-7.104 4.535v7.824l6.745-3.912-6.745-3.912Zm0 9.07v7.824l6.746-3.912-6.746-3.912Zm7.104 4.535-6.746 3.912 6.746 3.912v-7.824Zm1.075 8.447 6.746 3.912v-7.823l-6.746 3.911Zm7.462-3.911 6.746 3.911-6.746 3.912v-7.823Zm7.821 3.288 6.746-3.912-6.746-3.912v7.824Zm-.717-7.824v7.824l-6.745-3.912 6.745-3.912Zm-8.179 3.912-6.745-3.912v7.824l6.745-3.912Zm-7.462-5.158v-7.824L17.075 31.5l6.746 3.912Zm.717-9.07 6.745-3.912-6.745-3.912v7.823Zm.358-8.447 6.746-3.912v7.824l-6.746-3.912Zm7.82 4.535 6.746-3.912v7.824l-6.745-3.912Zm7.463 3.912 6.746-3.912-6.746-3.912v7.823Zm-1.075-8.447-6.746 3.912v-7.824l6.746 3.912Z" clip-rule="evenodd"/></svg>