<svg xmlns="http://www.w3.org/2000/svg" fill="none" viewBox="0 0 64 64"><rect width="64" height="64" fill="#383838" rx="32"/><path fill="#000" d="m30.879 34.553 5.995-7.145-1.234-1.036-5.996 7.145 1.235 1.036Z"/><path fill="#0019FF" d="m36.874 27.408 5.996-7.145-1.235-1.036-5.995 7.145 1.234 1.036Z"/><path fill="#0015FF" d="m36.954 27.494 6.12-7.04-1.217-1.057-6.12 7.04 1.217 1.057Z"/><path fill="#01F" d="m37.032 27.581 6.241-6.932-1.198-1.078-6.241 6.931 1.198 1.08Z"/><path fill="#000CFF" d="m37.108 27.67 6.362-6.822-1.18-1.1-6.36 6.822 1.178 1.1Z"/><path fill="#0008FF" d="m37.183 27.76 6.48-6.71-1.16-1.12-6.48 6.71 1.16 1.12Z"/><path fill="#0004FF" d="m37.256 27.85 6.596-6.595-1.14-1.14-6.596 6.596 1.14 1.14Z"/><path fill="#00F" d="m37.328 27.943 6.71-6.48-1.12-1.16-6.71 6.48 1.12 1.16Z"/><path fill="#0500FF" d="m37.398 28.036 6.822-6.361-1.1-1.179-6.822 6.362 1.1 1.178Z"/><path fill="#0900FF" d="m37.466 28.131 6.932-6.241-1.079-1.198-6.931 6.241 1.078 1.198Z"/><path fill="#0D00FF" d="m37.533 28.227 7.04-6.12-1.058-1.216-7.04 6.12 1.058 1.216Z"/><path fill="#10F" d="m37.598 28.324 7.145-5.995-1.036-1.235-7.145 5.996 1.036 1.234Z"/><path fill="#1600FF" d="m37.661 28.423 7.25-5.87-1.015-1.253-7.25 5.87 1.015 1.253Z"/><path fill="#1A00FF" d="m37.723 28.522 7.35-5.743-.992-1.27-7.35 5.743.992 1.27Z"/><path fill="#1E00FF" d="m37.782 28.622 7.45-5.613-.97-1.288-7.45 5.614.97 1.287Z"/><path fill="#20F" d="m37.84 28.724 7.547-5.483-.948-1.304-7.546 5.483.948 1.304Z"/><path fill="#2700FF" d="m37.897 28.826 7.64-5.35-.924-1.32-7.64 5.35.924 1.32Z"/><path fill="#2B00FF" d="m37.951 28.93 7.733-5.216-.901-1.337-7.733 5.216.901 1.337Z"/><path fill="#2F00FF" d="m38.004 29.034 7.823-5.08-.878-1.352-7.823 5.08.878 1.352Z"/><path fill="#30F" d="m38.055 29.14 7.91-4.944-.854-1.367-7.91 4.943.854 1.367Z"/><path fill="#3800FF" d="m38.104 29.245 7.995-4.804-.83-1.381-7.995 4.804.83 1.381Z"/><path fill="#3C00FF" d="m38.151 29.352 8.078-4.664-.806-1.395-8.078 4.663.806 1.396Z"/><path fill="#4000FF" d="m38.196 29.46 8.159-4.522-.782-1.41-8.158 4.522.781 1.41Z"/><path fill="#40F" d="m38.24 29.569 8.235-4.38-.756-1.423-8.236 4.38.757 1.422Z"/><path fill="#4800FF" d="m38.281 29.678 8.311-4.235-.732-1.436-8.31 4.235.731 1.436Z"/><path fill="#4D00FF" d="m38.32 29.788 8.384-4.09-.706-1.448-8.384 4.089.707 1.449Z"/><path fill="#5100FF" d="m38.358 29.898 8.454-3.942-.681-1.46-8.454 3.942.681 1.46Z"/><path fill="#50F" d="m38.394 30.01 8.521-3.794-.655-1.473-8.521 3.794.655 1.473Z"/><path fill="#5900FF" d="m38.428 30.122 8.586-3.645-.63-1.484-8.586 3.645.63 1.484Z"/><path fill="#5E00FF" d="m38.46 30.234 8.648-3.494-.604-1.495-8.648 3.495.604 1.494Z"/><path fill="#6200FF" d="m38.49 30.347 8.708-3.343-.578-1.505-8.708 3.343.578 1.505Z"/><path fill="#60F" d="m38.517 30.46 8.765-3.19-.55-1.514-8.766 3.19.551 1.515Z"/><path fill="#6A00FF" d="m38.543 30.575 8.82-3.037-.525-1.524-8.82 3.037.525 1.524Z"/><path fill="#6F00FF" d="m38.567 30.689 8.871-2.882-.498-1.533-8.871 2.882.498 1.533Z"/><path fill="#7300FF" d="m38.589 30.804 8.92-2.727-.471-1.542-8.92 2.727.471 1.542Z"/><path fill="#70F" d="m38.609 30.919 8.966-2.571-.444-1.55-8.966 2.572.444 1.549Z"/><path fill="#7B00FF" d="m38.627 31.035 9.01-2.415-.418-1.557-9.01 2.415.418 1.556Z"/><path fill="#8000FF" d="m38.643 31.15 9.05-2.256-.39-1.564-9.05 2.256.39 1.564Z"/><path fill="#8400FF" d="m38.656 31.266 9.089-2.098-.363-1.57-9.088 2.098.362 1.57Z"/><path fill="#80F" d="m38.668 31.383 9.124-1.94-.335-1.576-9.124 1.939.335 1.577Z"/><path fill="#8C00FF" d="m38.678 31.5 9.156-1.78-.307-1.583-9.157 1.78.308 1.582Z"/><path fill="#9100FF" d="m38.686 31.616 9.186-1.62-.28-1.587-9.186 1.62.28 1.587Z"/><path fill="#9500FF" d="m38.691 31.733 9.213-1.46-.252-1.592-9.213 1.46.252 1.592Z"/><path fill="#90F" d="m38.695 31.85 9.237-1.299-.224-1.596-9.237 1.298.224 1.596Z"/><path fill="#9D00FF" d="m38.697 31.966 9.258-1.137-.197-1.6-9.258 1.137.197 1.6Z"/><path fill="#A100FF" d="m38.696 32.083 9.277-.975-.169-1.603-9.276.975.168 1.603Z"/><path fill="#A600FF" d="m38.694 32.2 9.292-.813-.14-1.606-9.293.813.14 1.606Z"/><path fill="#A0F" d="m38.69 32.317 9.304-.651-.112-1.608-9.305.65.112 1.609Z"/><path fill="#AE00FF" d="m38.683 32.433 9.315-.488-.085-1.61-9.315.489.085 1.61Z"/><path fill="#B200FF" d="m38.674 32.55 9.322-.326-.056-1.61-9.322.325.056 1.61Z"/><path fill="#B700FF" d="m38.663 32.666 9.327-.162-.028-1.612-9.327.163.029 1.611Z"/><path fill="#B0F" d="M38.65 32.782h9.328v-1.611h-9.327v1.611Z"/><path fill="#BF00FF" d="m38.636 32.898 9.326.163.028-1.611-9.326-.163-.028 1.611Z"/><path fill="#C300FF" d="m38.62 33.014 9.322.326.056-1.611-9.322-.326-.056 1.611Z"/><path fill="#C800FF" d="m38.6 33.13 9.316.488.084-1.61-9.315-.488-.084 1.61Z"/><path fill="#C0F" d="m38.58 33.245 9.305.65.112-1.608-9.304-.65-.113 1.608Z"/><path fill="#D000FF" d="m38.557 33.36 9.292.812.141-1.606-9.292-.813-.14 1.606Z"/><path fill="#D400FF" d="m38.533 33.473 9.276.975.169-1.603-9.277-.975-.168 1.603Z"/><path fill="#D900FF" d="m38.506 33.587 9.258 1.137.197-1.6-9.259-1.137-.196 1.6Z"/><path fill="#D0F" d="M38.477 33.7 47.714 35l.224-1.596-9.236-1.299-.225 1.596Z"/><path fill="#E100FF" d="m38.447 33.813 9.212 1.46.252-1.593-9.212-1.459-.252 1.592Z"/><path fill="#E500FF" d="m38.414 33.925 9.186 1.62.28-1.587-9.186-1.62-.28 1.587Z"/><path fill="#EA00FF" d="m38.38 34.037 9.156 1.78.307-1.582-9.156-1.78-.308 1.582Z"/><path fill="#E0F" d="m38.343 34.148 9.124 1.94.335-1.577-9.124-1.94-.335 1.577Z"/><path fill="#F200FF" d="m38.304 34.259 9.089 2.098.362-1.57-9.088-2.099-.363 1.57Z"/><path fill="#F600FF" d="m38.264 34.368 9.05 2.257.39-1.564-9.05-2.257-.39 1.564Z"/><path fill="#FA00FF" d="m38.222 34.477 9.01 2.414.417-1.557-9.01-2.414-.417 1.557Z"/><path fill="#F0F" d="m38.178 34.585 8.966 2.572.444-1.55-8.966-2.571-.444 1.55Z"/><path fill="#FF00FB" d="m38.131 34.693 8.92 2.727.472-1.541-8.92-2.728-.472 1.542Z"/><path fill="#FF00F7" d="m38.084 34.8 8.87 2.882.499-1.533-8.871-2.883-.498 1.533Z"/><path fill="#FF00F3" d="m38.034 34.905 8.82 3.037.524-1.524-8.82-3.037-.524 1.524Z"/><path fill="#F0E" d="m37.982 35.01 8.765 3.19.551-1.514-8.765-3.19-.55 1.514Z"/><path fill="#FF00EA" d="m37.929 35.114 8.708 3.343.577-1.505-8.708-3.343-.577 1.505Z"/><path fill="#FF00E6" d="m37.873 35.217 8.649 3.494.604-1.494-8.649-3.495-.604 1.495Z"/><path fill="#FF00E2" d="m37.816 35.319 8.587 3.645.63-1.484-8.587-3.645-.63 1.484Z"/><path fill="#F0D" d="m37.758 35.42 8.52 3.794.656-1.473-8.52-3.794-.656 1.473Z"/><path fill="#FF00D9" d="m37.697 35.52 8.454 3.942.68-1.46-8.453-3.943-.681 1.461Z"/><path fill="#FF00D5" d="m37.635 35.619 8.383 4.089.707-1.449-8.384-4.089-.706 1.449Z"/><path fill="#FF00D1" d="m37.57 35.717 8.312 4.234.732-1.436-8.311-4.235-.732 1.437Z"/><path fill="#F0C" d="m37.505 35.813 8.236 4.38.757-1.424-8.236-4.379-.757 1.423Z"/><path fill="#FF00C8" d="m37.438 35.909 8.158 4.522.781-1.41L38.22 34.5l-.781 1.41Z"/><path fill="#FF00C4" d="m37.368 36.003 8.078 4.664.806-1.396-8.078-4.664-.806 1.396Z"/><path fill="#FF00C0" d="m37.298 36.096 7.995 4.804.83-1.381-7.995-4.804-.83 1.381Z"/><path fill="#F0B" d="m37.226 36.188 7.91 4.943.854-1.367-7.91-4.943-.854 1.367Z"/><path fill="#FF00B7" d="m37.152 36.279 7.822 5.08.878-1.352-7.822-5.08-.878 1.352Z"/><path fill="#FF00B3" d="m37.076 36.368 7.733 5.216.902-1.337-7.733-5.215-.902 1.336Z"/><path fill="#FF00AF" d="m37 36.456 7.64 5.35.925-1.32-7.641-5.35-.925 1.32Z"/><path fill="#FF00AB" d="m36.92 36.542 7.547 5.483.947-1.304-7.546-5.483-.947 1.304Z"/><path fill="#FF00A6" d="m36.84 36.627 7.45 5.614.97-1.287-7.45-5.614-.97 1.287Z"/><path fill="#FF00A2" d="m36.76 36.711 7.35 5.743.992-1.27-7.35-5.743-.993 1.27Z"/><path fill="#FF009E" d="m36.676 36.794 7.25 5.87 1.014-1.253-7.25-5.87-1.014 1.253Z"/><path fill="#FF009A" d="m36.592 36.874 7.145 5.996 1.036-1.235-7.145-5.995-1.036 1.234Z"/><path fill="#FF0095" d="m36.506 36.954 7.04 6.12 1.057-1.217-7.04-6.12-1.057 1.217Z"/><path fill="#FF0091" d="m36.419 37.032 6.932 6.241 1.078-1.198-6.931-6.241-1.08 1.198Z"/><path fill="#FF008D" d="m36.33 37.108 6.822 6.362 1.1-1.18-6.822-6.36-1.1 1.178Z"/><path fill="#FF0089" d="m36.24 37.183 6.71 6.48 1.12-1.16-6.71-6.48-1.12 1.16Z"/><path fill="#FF0084" d="m36.15 37.256 6.595 6.596 1.14-1.14-6.596-6.596-1.14 1.14Z"/><path fill="#FF0080" d="m36.057 37.328 6.48 6.71 1.16-1.12-6.48-6.71-1.16 1.12Z"/><path fill="#FF007C" d="m35.964 37.398 6.361 6.822 1.179-1.1-6.362-6.822-1.178 1.1Z"/><path fill="#FF0078" d="m35.869 37.466 6.241 6.932 1.198-1.079-6.241-6.931-1.198 1.078Z"/><path fill="#FF0073" d="m35.773 37.533 6.12 7.04 1.216-1.058-6.12-7.04-1.216 1.058Z"/><path fill="#FF006F" d="m35.676 37.598 5.995 7.145 1.235-1.036-5.996-7.145-1.234 1.036Z"/><path fill="#FF006B" d="m35.577 37.661 5.87 7.25 1.253-1.015-5.87-7.25-1.253 1.015Z"/><path fill="#FF0067" d="m35.478 37.723 5.743 7.35 1.27-.992-5.743-7.35-1.27.992Z"/><path fill="#FF0062" d="m35.378 37.782 5.613 7.45 1.288-.97-5.614-7.45-1.287.97Z"/><path fill="#FF005E" d="m35.276 37.84 5.483 7.547 1.304-.948-5.483-7.546-1.304.948Z"/><path fill="#FF005A" d="m35.174 37.897 5.35 7.64 1.32-.924-5.35-7.64-1.32.924Z"/><path fill="#FF0056" d="m35.07 37.951 5.216 7.733 1.337-.901-5.216-7.733-1.337.901Z"/><path fill="#FF0052" d="m34.966 38.004 5.08 7.823 1.352-.878-5.08-7.823-1.352.878Z"/><path fill="#FF004D" d="m34.86 38.055 4.944 7.91 1.367-.854-4.943-7.91-1.367.854Z"/><path fill="#FF0049" d="m34.755 38.104 4.804 7.995 1.381-.83-4.804-7.995-1.381.83Z"/><path fill="#FF0045" d="m34.648 38.151 4.664 8.078 1.396-.806-4.664-8.078-1.396.806Z"/><path fill="#FF0041" d="m34.54 38.196 4.522 8.159 1.41-.782-4.522-8.158-1.41.781Z"/><path fill="#FF003C" d="m34.431 38.24 4.38 8.235 1.423-.756-4.38-8.236-1.422.757Z"/><path fill="#FF0038" d="m34.322 38.281 4.235 8.311 1.436-.732-4.235-8.31-1.436.731Z"/><path fill="#FF0034" d="m34.212 38.32 4.09 8.384 1.448-.706-4.089-8.384-1.449.707Z"/><path fill="#FF0030" d="m34.102 38.358 3.942 8.454 1.46-.681-3.942-8.454-1.46.681Z"/><path fill="#FF002B" d="m33.99 38.394 3.794 8.521 1.473-.655-3.794-8.521-1.473.655Z"/><path fill="#FF0027" d="m33.878 38.428 3.645 8.586 1.484-.63-3.645-8.586-1.484.63Z"/><path fill="#FF0023" d="m33.766 38.46 3.494 8.648 1.495-.604-3.495-8.648-1.494.604Z"/><path fill="#FF001F" d="m33.653 38.49 3.343 8.708 1.505-.578-3.343-8.708-1.505.578Z"/><path fill="#FF001A" d="m33.54 38.517 3.19 8.765 1.514-.55-3.19-8.766-1.515.551Z"/><path fill="#FF0016" d="m33.425 38.543 3.037 8.82 1.524-.525-3.036-8.82-1.525.525Z"/><path fill="#FF0012" d="m33.311 38.567 2.882 8.871 1.533-.498-2.882-8.871-1.533.498Z"/><path fill="#FF000E" d="m33.196 38.589 2.727 8.92 1.542-.471-2.727-8.92-1.542.471Z"/><path fill="#FF0009" d="m33.081 38.609 2.571 8.966 1.55-.444-2.572-8.966-1.549.444Z"/><path fill="#FF0005" d="m32.965 38.627 2.415 9.01 1.557-.418-2.414-9.01-1.558.418Z"/><path fill="#FF0001" d="m32.85 38.643 2.256 9.05 1.564-.39-2.256-9.05-1.564.39Z"/><path fill="#FF0300" d="m32.734 38.656 2.098 9.089 1.57-.363-2.098-9.088-1.57.362Z"/><path fill="#FF0700" d="m32.617 38.668 1.94 9.124 1.576-.335-1.939-9.124-1.577.335Z"/><path fill="#FF0C00" d="m32.5 38.678 1.78 9.156 1.583-.307-1.78-9.157-1.582.308Z"/><path fill="#FF1000" d="m32.384 38.686 1.62 9.186 1.587-.28-1.62-9.186-1.587.28Z"/><path fill="#FF1400" d="m32.267 38.691 1.46 9.213 1.592-.252-1.46-9.213-1.592.252Z"/><path fill="#FF1800" d="m32.15 38.695 1.299 9.237 1.596-.224-1.298-9.237-1.596.224Z"/><path fill="#FF1D00" d="m32.034 38.697 1.137 9.258 1.6-.197-1.137-9.258-1.6.197Z"/><path fill="#FF2100" d="m31.917 38.696.975 9.277 1.603-.169-.975-9.276-1.603.168Z"/><path fill="#FF2500" d="m31.8 38.694.813 9.292 1.606-.14-.813-9.293-1.606.14Z"/><path fill="#FF2900" d="m31.683 38.69.651 9.304 1.608-.112-.65-9.305-1.609.112Z"/><path fill="#FF2E00" d="m31.567 38.683.488 9.315 1.61-.085-.489-9.315-1.61.085Z"/><path fill="#FF3200" d="m31.45 38.674.326 9.322 1.61-.056-.325-9.322-1.61.056Z"/><path fill="#FF3600" d="m31.334 38.663.163 9.327 1.611-.028-.163-9.327-1.611.029Z"/><path fill="#FF3A00" d="M31.218 38.65v9.328h1.611v-9.327h-1.611Z"/><path fill="#FF3F00" d="m31.102 38.636-.163 9.326 1.611.028.163-9.326-1.611-.028Z"/><path fill="#FF4300" d="m30.986 38.62-.326 9.322 1.611.056.326-9.322-1.611-.056Z"/><path fill="#FF4700" d="m30.87 38.6-.488 9.316 1.61.084.488-9.315-1.61-.084Z"/><path fill="#FF4B00" d="m30.756 38.58-.651 9.305 1.608.112.65-9.304-1.607-.113Z"/><path fill="#FF5000" d="m30.64 38.557-.812 9.292 1.606.141.813-9.292-1.606-.14Z"/><path fill="#FF5400" d="m30.527 38.533-.975 9.276 1.603.169.975-9.277-1.603-.168Z"/><path fill="#FF5800" d="m30.413 38.506-1.137 9.258 1.6.197 1.137-9.259-1.6-.196Z"/><path fill="#FF5C00" d="M30.3 38.477 29 47.714l1.596.224 1.299-9.236-1.597-.225Z"/><path fill="#FF6000" d="m30.187 38.447-1.46 9.212 1.593.252 1.459-9.212-1.592-.252Z"/><path fill="#FF6500" d="m30.075 38.414-1.62 9.186 1.587.28 1.62-9.186-1.587-.28Z"/><path fill="#FF6900" d="m29.963 38.38-1.78 9.156 1.582.307 1.78-9.156-1.582-.308Z"/><path fill="#FF6D00" d="m29.852 38.343-1.94 9.124 1.577.335 1.94-9.124-1.577-.335Z"/><path fill="#FF7100" d="m29.741 38.304-2.098 9.089 1.57.362 2.099-9.088-1.57-.363Z"/><path fill="#FF7600" d="m29.632 38.264-2.257 9.05 1.564.39 2.257-9.05-1.564-.39Z"/><path fill="#FF7A00" d="m29.523 38.222-2.414 9.01 1.557.417 2.414-9.01-1.557-.417Z"/><path fill="#FF7E00" d="m29.415 38.178-2.572 8.966 1.55.444 2.571-8.966-1.55-.444Z"/><path fill="#FF8200" d="m29.307 38.131-2.727 8.92 1.542.472 2.727-8.92-1.542-.472Z"/><path fill="#FF8700" d="m29.2 38.084-2.882 8.87 1.533.499 2.883-8.871-1.533-.498Z"/><path fill="#FF8B00" d="m29.095 38.034-3.037 8.82 1.524.524 3.037-8.82-1.524-.524Z"/><path fill="#FF8F00" d="m28.99 37.982-3.19 8.765 1.514.551 3.19-8.765-1.514-.55Z"/><path fill="#FF9300" d="m28.886 37.929-3.343 8.708 1.505.577 3.343-8.708-1.505-.577Z"/><path fill="#FF9800" d="m28.783 37.873-3.494 8.649 1.494.604 3.494-8.649-1.494-.604Z"/><path fill="#FF9C00" d="m28.681 37.816-3.645 8.587 1.484.63 3.645-8.587-1.484-.63Z"/><path fill="#FFA000" d="m28.58 37.758-3.794 8.52 1.473.656 3.793-8.52-1.472-.656Z"/><path fill="#FFA400" d="m28.48 37.697-3.942 8.454 1.46.68 3.943-8.453-1.461-.681Z"/><path fill="#FFA900" d="m28.381 37.635-4.089 8.383 1.449.707 4.089-8.384-1.449-.706Z"/><path fill="#FFAD00" d="m28.283 37.57-4.234 8.312 1.436.732 4.235-8.311-1.437-.732Z"/><path fill="#FFB100" d="m28.187 37.505-4.38 8.236 1.424.757 4.379-8.236-1.423-.757Z"/><path fill="#FFB500" d="m28.091 37.438-4.522 8.158 1.41.781L29.5 38.22l-1.41-.781Z"/><path fill="#FFB900" d="m27.997 37.368-4.664 8.078 1.396.806 4.664-8.078-1.396-.806Z"/><path fill="#FFBE00" d="M27.904 37.298 23.1 45.293l1.381.83 4.804-7.995-1.381-.83Z"/><path fill="#FFC200" d="m27.812 37.226-4.943 7.91 1.367.854 4.943-7.91-1.367-.854Z"/><path fill="#FFC600" d="m27.721 37.152-5.08 7.822 1.352.878 5.08-7.822-1.352-.878Z"/><path fill="#FFCA00" d="m27.632 37.076-5.216 7.733 1.337.902 5.215-7.733-1.336-.902Z"/><path fill="#FFCF00" d="m27.544 37-5.35 7.64 1.32.925 5.35-7.641-1.32-.925Z"/><path fill="#FFD300" d="m27.458 36.92-5.483 7.547 1.304.947 5.483-7.546-1.304-.947Z"/><path fill="gold" d="m27.372 36.84-5.613 7.45 1.287.97 5.614-7.45-1.288-.97Z"/><path fill="#FFDB00" d="m27.289 36.76-5.743 7.35 1.27.992 5.743-7.35-1.27-.993Z"/><path fill="#FFE000" d="m27.206 36.676-5.87 7.25 1.253 1.014 5.87-7.25-1.253-1.014Z"/><path fill="#FFE400" d="m27.125 36.592-5.995 7.145 1.235 1.036 5.995-7.145-1.235-1.036Z"/><path fill="#FFE800" d="m27.046 36.506-6.12 7.04 1.217 1.057 6.12-7.04-1.217-1.057Z"/><path fill="#FFEC00" d="m26.968 36.419-6.241 6.932 1.198 1.078 6.241-6.931-1.198-1.08Z"/><path fill="#FFF100" d="m26.892 36.33-6.362 6.822 1.18 1.1 6.36-6.822-1.178-1.1Z"/><path fill="#FFF500" d="m26.817 36.24-6.48 6.71 1.16 1.12 6.48-6.71-1.16-1.12Z"/><path fill="#FFF900" d="m26.744 36.15-6.596 6.595 1.14 1.14 6.596-6.596-1.14-1.14Z"/><path fill="#FFFD00" d="m26.672 36.057-6.71 6.48 1.12 1.16 6.71-6.48-1.12-1.16Z"/><path fill="#FCFF00" d="m26.602 35.964-6.822 6.361 1.1 1.179 6.822-6.362-1.1-1.178Z"/><path fill="#F8FF00" d="m26.534 35.869-6.932 6.241 1.079 1.198 6.931-6.241-1.078-1.198Z"/><path fill="#F4FF00" d="m26.467 35.773-7.04 6.12 1.058 1.216 7.04-6.12-1.058-1.216Z"/><path fill="#F0FF00" d="m26.402 35.676-7.145 5.995 1.036 1.235 7.145-5.996-1.036-1.234Z"/><path fill="#ECFF00" d="m26.339 35.577-7.25 5.87 1.015 1.253 7.25-5.87-1.015-1.253Z"/><path fill="#E7FF00" d="m26.277 35.478-7.35 5.743.992 1.27 7.35-5.743-.992-1.27Z"/><path fill="#E3FF00" d="m26.218 35.378-7.45 5.613.97 1.288 7.45-5.614-.97-1.287Z"/><path fill="#DFFF00" d="m26.16 35.276-7.547 5.483.948 1.304 7.546-5.483-.948-1.304Z"/><path fill="#DBFF00" d="m26.103 35.174-7.64 5.35.924 1.32 7.64-5.35-.924-1.32Z"/><path fill="#D6FF00" d="m26.049 35.07-7.733 5.216.901 1.337 7.733-5.216-.901-1.337Z"/><path fill="#D2FF00" d="m25.996 34.966-7.823 5.08.878 1.352 7.823-5.08-.878-1.352Z"/><path fill="#CEFF00" d="m25.945 34.86-7.91 4.944.854 1.367 7.91-4.943-.854-1.367Z"/><path fill="#CAFF00" d="m25.896 34.755-7.995 4.804.83 1.381 7.995-4.804-.83-1.381Z"/><path fill="#C5FF00" d="m25.849 34.648-8.078 4.664.806 1.396 8.078-4.664-.806-1.396Z"/><path fill="#C1FF00" d="m25.804 34.54-8.159 4.522.782 1.41 8.158-4.522-.781-1.41Z"/><path fill="#BDFF00" d="m25.76 34.431-8.236 4.38.757 1.423 8.236-4.38-.757-1.422Z"/><path fill="#B9FF00" d="m25.719 34.322-8.311 4.235.732 1.436 8.31-4.235-.731-1.436Z"/><path fill="#B4FF00" d="m25.68 34.212-8.384 4.09.706 1.448 8.384-4.089-.707-1.449Z"/><path fill="#B0FF00" d="m25.642 34.102-8.454 3.942.681 1.46 8.454-3.942-.681-1.46Z"/><path fill="#ACFF00" d="m25.606 33.99-8.521 3.794.655 1.473 8.522-3.794-.656-1.473Z"/><path fill="#A8FF00" d="m25.572 33.878-8.586 3.645.63 1.484 8.586-3.645-.63-1.484Z"/><path fill="#A3FF00" d="m25.54 33.766-8.648 3.494.604 1.495 8.648-3.495-.604-1.494Z"/><path fill="#9FFF00" d="m25.51 33.653-8.708 3.343.578 1.505 8.708-3.343-.578-1.505Z"/><path fill="#9BFF00" d="m25.483 33.54-8.765 3.19.55 1.514 8.766-3.19-.551-1.515Z"/><path fill="#97FF00" d="m25.457 33.425-8.82 3.037.525 1.524 8.82-3.036-.525-1.525Z"/><path fill="#93FF00" d="m25.433 33.311-8.871 2.882.498 1.533 8.871-2.882-.498-1.533Z"/><path fill="#8EFF00" d="m25.411 33.196-8.92 2.727.471 1.542 8.92-2.727-.471-1.542Z"/><path fill="#8AFF00" d="m25.391 33.081-8.966 2.571.444 1.55 8.966-2.572-.444-1.549Z"/><path fill="#86FF00" d="m25.373 32.965-9.01 2.415.418 1.557 9.01-2.414-.418-1.558Z"/><path fill="#82FF00" d="m25.357 32.85-9.05 2.256.39 1.564 9.05-2.256-.39-1.564Z"/><path fill="#7DFF00" d="m25.344 32.734-9.089 2.098.363 1.57 9.088-2.098-.362-1.57Z"/><path fill="#79FF00" d="m25.332 32.617-9.124 1.94.335 1.576 9.124-1.939-.335-1.577Z"/><path fill="#75FF00" d="m25.322 32.5-9.156 1.78.307 1.583 9.157-1.78-.308-1.582Z"/><path fill="#71FF00" d="m25.314 32.384-9.186 1.62.28 1.587 9.186-1.62-.28-1.587Z"/><path fill="#6CFF00" d="m25.309 32.267-9.213 1.46.252 1.592 9.213-1.46-.252-1.592Z"/><path fill="#68FF00" d="m25.305 32.15-9.237 1.299.224 1.596 9.237-1.298-.224-1.596Z"/><path fill="#64FF00" d="m25.303 32.034-9.258 1.137.197 1.6 9.258-1.137-.197-1.6Z"/><path fill="#60FF00" d="m25.304 31.917-9.277.975.169 1.603 9.276-.975-.168-1.603Z"/><path fill="#5BFF00" d="m25.306 31.8-9.292.813.14 1.606 9.293-.813-.14-1.606Z"/><path fill="#57FF00" d="m25.31 31.683-9.304.651.112 1.608 9.305-.65-.112-1.609Z"/><path fill="#53FF00" d="m25.317 31.567-9.314.488.084 1.61 9.315-.489-.085-1.61Z"/><path fill="#4FFF00" d="m25.326 31.45-9.322.326.056 1.61 9.322-.325-.056-1.61Z"/><path fill="#4AFF00" d="m25.337 31.334-9.327.163.028 1.611 9.327-.163-.028-1.611Z"/><path fill="#46FF00" d="M25.35 31.218H16.02v1.611h9.328v-1.611Z"/><path fill="#42FF00" d="m25.364 31.102-9.326-.163-.029 1.611 9.327.163.028-1.611Z"/><path fill="#3EFF00" d="m25.38 30.986-9.321-.326-.057 1.611 9.322.326.056-1.611Z"/><path fill="#3AFF00" d="m25.4 30.87-9.316-.488-.084 1.61 9.315.488.084-1.61Z"/><path fill="#35FF00" d="m25.42 30.756-9.305-.651-.112 1.608 9.305.65.112-1.607Z"/><path fill="#31FF00" d="m25.443 30.64-9.293-.812-.14 1.606 9.292.813.14-1.606Z"/><path fill="#2DFF00" d="m25.467 30.527-9.276-.975-.169 1.603 9.277.975.168-1.603Z"/><path fill="#29FF00" d="m25.494 30.413-9.258-1.137-.197 1.6 9.259 1.137.196-1.6Z"/><path fill="#24FF00" d="M25.523 30.3 16.286 29l-.224 1.596 9.236 1.299.225-1.597Z"/><path fill="#20FF00" d="m25.553 30.187-9.212-1.46-.253 1.593 9.213 1.459.253-1.592Z"/><path fill="#1CFF00" d="m25.586 30.075-9.186-1.62-.28 1.587 9.186 1.62.28-1.587Z"/><path fill="#18FF00" d="m25.62 29.963-9.156-1.78-.307 1.582 9.156 1.78.308-1.582Z"/><path fill="#13FF00" d="m25.657 29.852-9.124-1.94-.335 1.577 9.124 1.94.335-1.577Z"/><path fill="#0FFF00" d="m25.696 29.741-9.089-2.098-.363 1.57 9.09 2.099.362-1.57Z"/><path fill="#0BFF00" d="m25.736 29.632-9.05-2.257-.39 1.564 9.05 2.257.39-1.564Z"/><path fill="#07FF00" d="m25.778 29.523-9.01-2.414-.417 1.557 9.01 2.414.417-1.557Z"/><path fill="#02FF00" d="m25.823 29.415-8.967-2.572-.444 1.55 8.966 2.571.445-1.55Z"/><path fill="#00FF02" d="m25.869 29.307-8.92-2.727-.472 1.542 8.92 2.727.472-1.542Z"/><path fill="#00FF06" d="m25.916 29.2-8.87-2.882-.499 1.533 8.871 2.883.498-1.533Z"/><path fill="#00FF0A" d="m25.966 29.095-8.82-3.037-.524 1.524 8.82 3.037.524-1.524Z"/><path fill="#00FF0F" d="m26.018 28.99-8.765-3.19-.552 1.514 8.766 3.19.55-1.514Z"/><path fill="#00FF13" d="m26.071 28.886-8.708-3.343-.577 1.505 8.708 3.343.577-1.505Z"/><path fill="#00FF17" d="m26.127 28.783-8.649-3.494-.604 1.494 8.649 3.494.604-1.494Z"/><path fill="#00FF1B" d="m26.184 28.681-8.587-3.645-.63 1.484 8.587 3.645.63-1.484Z"/><path fill="#00FF1F" d="m26.242 28.58-8.52-3.794-.656 1.473 8.52 3.793.656-1.472Z"/><path fill="#00FF24" d="m26.303 28.48-8.454-3.942-.68 1.46 8.453 3.943.681-1.461Z"/><path fill="#00FF28" d="m26.365 28.381-8.383-4.089-.707 1.449 8.384 4.089.706-1.449Z"/><path fill="#00FF2C" d="m26.43 28.283-8.312-4.234-.731 1.436 8.31 4.235.732-1.437Z"/><path fill="#00FF30" d="m26.495 28.187-8.236-4.38-.756 1.424 8.235 4.379.757-1.423Z"/><path fill="#00FF35" d="m26.562 28.091-8.158-4.522-.781 1.41L25.78 29.5l.781-1.41Z"/><path fill="#00FF39" d="m26.631 27.997-8.078-4.664-.806 1.396 8.079 4.664.805-1.396Z"/><path fill="#00FF3D" d="M26.702 27.904 18.707 23.1l-.83 1.381 7.995 4.804.83-1.381Z"/><path fill="#00FF41" d="m26.774 27.812-7.91-4.943-.854 1.367 7.91 4.943.854-1.367Z"/><path fill="#00FF46" d="m26.848 27.721-7.822-5.08-.878 1.352 7.822 5.08.878-1.352Z"/><path fill="#00FF4A" d="m26.924 27.632-7.733-5.216-.901 1.337 7.732 5.215.902-1.336Z"/><path fill="#00FF4E" d="m27 27.544-7.64-5.35-.924 1.32 7.64 5.35.925-1.32Z"/><path fill="#00FF52" d="m27.08 27.458-7.547-5.483-.947 1.304 7.546 5.483.947-1.304Z"/><path fill="#00FF57" d="m27.16 27.372-7.45-5.613-.97 1.287 7.45 5.614.97-1.288Z"/><path fill="#00FF5B" d="m27.24 27.289-7.35-5.743-.992 1.27 7.35 5.743.993-1.27Z"/><path fill="#00FF5F" d="m27.324 27.206-7.25-5.87-1.014 1.253 7.25 5.87 1.014-1.253Z"/><path fill="#00FF63" d="m27.408 27.125-7.145-5.995-1.036 1.235 7.145 5.995 1.036-1.235Z"/><path fill="#00FF68" d="m27.494 27.046-7.04-6.12-1.057 1.217 7.04 6.12 1.057-1.217Z"/><path fill="#00FF6C" d="m27.581 26.968-6.932-6.241-1.078 1.198 6.931 6.241 1.08-1.198Z"/><path fill="#00FF70" d="m27.67 26.892-6.822-6.362-1.1 1.18 6.822 6.36 1.1-1.178Z"/><path fill="#00FF74" d="m27.76 26.817-6.71-6.48-1.12 1.16 6.71 6.48 1.12-1.16Z"/><path fill="#00FF78" d="m27.85 26.744-6.595-6.596-1.14 1.14 6.596 6.596 1.14-1.14Z"/><path fill="#00FF7D" d="m27.943 26.672-6.48-6.71-1.16 1.12 6.48 6.71 1.16-1.12Z"/><path fill="#00FF81" d="m28.036 26.602-6.361-6.822-1.179 1.1 6.362 6.822 1.178-1.1Z"/><path fill="#00FF85" d="m28.131 26.534-6.241-6.932-1.198 1.079 6.241 6.931 1.198-1.078Z"/><path fill="#00FF89" d="m28.227 26.467-6.12-7.04-1.216 1.058 6.12 7.04 1.216-1.058Z"/><path fill="#00FF8E" d="m28.324 26.402-5.995-7.145-1.235 1.036 5.996 7.145 1.234-1.036Z"/><path fill="#00FF92" d="m28.423 26.339-5.87-7.25-1.253 1.015 5.87 7.25 1.253-1.015Z"/><path fill="#00FF96" d="m28.522 26.277-5.743-7.35-1.27.992 5.743 7.35 1.27-.992Z"/><path fill="#00FF9A" d="m28.622 26.218-5.613-7.45-1.288.97 5.614 7.45 1.287-.97Z"/><path fill="#00FF9F" d="m28.724 26.16-5.483-7.547-1.304.948 5.483 7.546 1.304-.948Z"/><path fill="#00FFA3" d="m28.826 26.103-5.35-7.64-1.32.924 5.35 7.64 1.32-.924Z"/><path fill="#00FFA7" d="m28.93 26.049-5.216-7.733-1.337.901 5.216 7.733 1.337-.901Z"/><path fill="#00FFAB" d="m29.034 25.996-5.08-7.823-1.352.878 5.08 7.823 1.352-.878Z"/><path fill="#00FFB0" d="m29.14 25.945-4.944-7.91-1.367.854 4.943 7.91 1.367-.854Z"/><path fill="#00FFB4" d="m29.245 25.896-4.804-7.995-1.381.83 4.804 7.995 1.381-.83Z"/><path fill="#00FFB8" d="m29.352 25.849-4.664-8.078-1.395.806 4.663 8.078 1.396-.806Z"/><path fill="#00FFBC" d="m29.46 25.804-4.522-8.159-1.41.782 4.522 8.158 1.41-.781Z"/><path fill="#00FFC1" d="m29.569 25.76-4.38-8.236-1.423.757 4.38 8.236 1.422-.757Z"/><path fill="#00FFC5" d="m29.678 25.719-4.235-8.311-1.436.732 4.235 8.31 1.436-.731Z"/><path fill="#00FFC9" d="m29.788 25.68-4.09-8.384-1.448.706 4.089 8.384 1.449-.707Z"/><path fill="#00FFCD" d="m29.898 25.642-3.942-8.454-1.46.681 3.942 8.454 1.46-.681Z"/><path fill="#00FFD1" d="m30.01 25.606-3.794-8.521-1.473.655 3.794 8.522 1.473-.656Z"/><path fill="#00FFD6" d="m30.122 25.572-3.645-8.586-1.484.63 3.645 8.586 1.484-.63Z"/><path fill="#00FFDA" d="m30.234 25.54-3.494-8.648-1.495.604 3.495 8.648 1.494-.604Z"/><path fill="#00FFDE" d="m30.347 25.51-3.343-8.708-1.505.578 3.343 8.708 1.505-.578Z"/><path fill="#00FFE2" d="m30.46 25.483-3.19-8.765-1.514.55 3.19 8.766 1.515-.551Z"/><path fill="#00FFE7" d="m30.575 25.457-3.037-8.82-1.524.525 3.037 8.82 1.524-.525Z"/><path fill="#00FFEB" d="m30.689 25.433-2.882-8.871-1.533.498 2.882 8.871 1.533-.498Z"/><path fill="#00FFEF" d="m30.804 25.411-2.727-8.92-1.542.471 2.727 8.92 1.542-.471Z"/><path fill="#00FFF3" d="m30.919 25.391-2.571-8.966-1.55.444 2.572 8.966 1.549-.444Z"/><path fill="#00FFF8" d="m31.035 25.373-2.415-9.01-1.557.418 2.415 9.01 1.556-.418Z"/><path fill="#00FFFC" d="m31.15 25.357-2.256-9.05-1.564.39 2.256 9.05 1.564-.39Z"/><path fill="#00FEFF" d="m31.266 25.344-2.098-9.089-1.57.363 2.098 9.088 1.57-.362Z"/><path fill="#00FAFF" d="m31.383 25.332-1.94-9.124-1.576.335 1.939 9.124 1.577-.335Z"/><path fill="#00F5FF" d="m31.5 25.322-1.78-9.156-1.583.307 1.78 9.157 1.582-.308Z"/><path fill="#00F1FF" d="m31.616 25.314-1.62-9.186-1.587.28 1.62 9.186 1.587-.28Z"/><path fill="#00EDFF" d="m31.733 25.309-1.46-9.213-1.592.252 1.46 9.213 1.592-.252Z"/><path fill="#00E9FF" d="m31.85 25.305-1.299-9.237-1.596.224 1.298 9.237 1.596-.224Z"/><path fill="#00E4FF" d="m31.966 25.303-1.137-9.258-1.6.197 1.137 9.258 1.6-.197Z"/><path fill="#00E0FF" d="m32.083 25.304-.975-9.277-1.603.169.975 9.276 1.603-.168Z"/><path fill="#00DCFF" d="m32.2 25.306-.813-9.292-1.606.14.813 9.293 1.606-.14Z"/><path fill="#00D8FF" d="m32.317 25.31-.651-9.304-1.608.112.65 9.305 1.609-.112Z"/><path fill="#00D4FF" d="m32.433 25.317-.488-9.314-1.61.084.489 9.315 1.61-.085Z"/><path fill="#00CFFF" d="m32.55 25.326-.326-9.322-1.61.056.325 9.322 1.61-.056Z"/><path fill="#00CBFF" d="m32.666 25.337-.162-9.327-1.612.028.163 9.327 1.611-.028Z"/><path fill="#00C7FF" d="M32.782 25.35V16.02h-1.611v9.328h1.611Z"/><path fill="#00C3FF" d="m32.898 25.364.163-9.326-1.611-.029-.163 9.327 1.611.028Z"/><path fill="#00BEFF" d="m33.014 25.38.326-9.321-1.611-.057-.326 9.322 1.611.056Z"/><path fill="#00BAFF" d="m33.13 25.4.488-9.316-1.61-.084-.488 9.315 1.61.084Z"/><path fill="#00B6FF" d="m33.245 25.42.65-9.305-1.608-.112-.65 9.305 1.608.112Z"/><path fill="#00B2FF" d="m33.36 25.443.812-9.293-1.606-.14-.813 9.292 1.606.14Z"/><path fill="#00ADFF" d="m33.473 25.467.975-9.276-1.603-.169-.975 9.277 1.603.168Z"/><path fill="#00A9FF" d="m33.587 25.494 1.137-9.258-1.6-.197-1.137 9.259 1.6.196Z"/><path fill="#00A5FF" d="M33.7 25.523 35 16.286l-1.596-.224-1.299 9.236 1.596.225Z"/><path fill="#00A1FF" d="m33.813 25.553 1.46-9.212-1.593-.253-1.459 9.213 1.592.253Z"/><path fill="#009CFF" d="m33.925 25.586 1.62-9.186-1.587-.28-1.62 9.186 1.587.28Z"/><path fill="#0098FF" d="m34.037 25.62 1.78-9.156-1.582-.307-1.78 9.156 1.582.308Z"/><path fill="#0094FF" d="m34.148 25.657 1.94-9.124-1.577-.335-1.94 9.124 1.577.335Z"/><path fill="#0090FF" d="m34.259 25.696 2.098-9.089-1.57-.363-2.099 9.09 1.57.362Z"/><path fill="#008BFF" d="m34.368 25.736 2.257-9.05-1.564-.39-2.257 9.05 1.564.39Z"/><path fill="#0087FF" d="m34.477 25.778 2.414-9.01-1.557-.417-2.414 9.01 1.557.417Z"/><path fill="#0083FF" d="m34.585 25.823 2.572-8.967-1.55-.444-2.571 8.966 1.55.445Z"/><path fill="#007FFF" d="m34.693 25.869 2.727-8.92-1.541-.472-2.728 8.92 1.542.472Z"/><path fill="#007BFF" d="m34.8 25.916 2.882-8.87-1.533-.499-2.883 8.871 1.533.498Z"/><path fill="#0076FF" d="m34.905 25.966 3.037-8.82-1.524-.524-3.037 8.82 1.524.524Z"/><path fill="#0072FF" d="m35.01 26.018 3.19-8.765-1.514-.552-3.19 8.766 1.514.55Z"/><path fill="#006EFF" d="m35.114 26.071 3.343-8.708-1.505-.577-3.343 8.708 1.505.577Z"/><path fill="#006AFF" d="m35.217 26.127 3.494-8.649-1.494-.604-3.495 8.649 1.495.604Z"/><path fill="#0065FF" d="m35.319 26.184 3.645-8.587-1.484-.63-3.645 8.587 1.484.63Z"/><path fill="#0061FF" d="m35.42 26.242 3.794-8.52-1.473-.656-3.794 8.52 1.473.656Z"/><path fill="#005DFF" d="m35.52 26.303 3.942-8.454-1.46-.68-3.943 8.453 1.461.681Z"/><path fill="#0059FF" d="m35.619 26.365 4.089-8.383-1.449-.707-4.089 8.384 1.449.706Z"/><path fill="#0054FF" d="m35.717 26.43 4.234-8.312-1.436-.731-4.235 8.31 1.437.732Z"/><path fill="#0050FF" d="m35.813 26.495 4.38-8.236-1.424-.756-4.379 8.235 1.423.757Z"/><path fill="#004CFF" d="m35.909 26.562 4.522-8.158-1.41-.781L34.5 25.78l1.41.781Z"/><path fill="#0048FF" d="m36.003 26.631 4.664-8.078-1.396-.806-4.664 8.079 1.396.805Z"/><path fill="#0043FF" d="m36.096 26.702 4.804-7.995-1.381-.83-4.804 7.995 1.381.83Z"/><path fill="#003FFF" d="m36.188 26.774 4.943-7.91-1.367-.854-4.943 7.91 1.367.854Z"/><path fill="#003BFF" d="m36.279 26.848 5.08-7.822-1.352-.878-5.08 7.822 1.352.878Z"/><path fill="#0037FF" d="m36.368 26.924 5.216-7.733-1.337-.901-5.215 7.732 1.336.902Z"/><path fill="#0032FF" d="m36.456 27 5.35-7.64-1.32-.924-5.35 7.64 1.32.925Z"/><path fill="#002EFF" d="m36.542 27.08 5.483-7.547-1.304-.947-5.483 7.546 1.304.947Z"/><path fill="#002AFF" d="m36.627 27.16 5.614-7.45-1.287-.97-5.614 7.45 1.287.97Z"/><path fill="#0026FF" d="m36.711 27.24 5.743-7.35-1.27-.992-5.743 7.35 1.27.993Z"/><path fill="#02F" d="m36.794 27.324 5.87-7.25-1.253-1.014-5.87 7.25 1.253 1.014Z"/><path fill="#383838" d="M32.472 47.444h-.915a.366.366 0 0 0-.128-.02 16.623 16.623 0 0 1-1.456-.128c-.9-.116-1.784-.314-2.646-.59a15.518 15.518 0 0 1-4.132-2.036 15.334 15.334 0 0 1-3.142-2.909 15.201 15.201 0 0 1-2.507-4.348 15.136 15.136 0 0 1-.947-4.383.775.775 0 0 0-.043-.244V31.19a.704.704 0 0 0 .043-.217 15.233 15.233 0 0 1 1.637-5.982 15.406 15.406 0 0 1 1.979-2.975 15.485 15.485 0 0 1 2.584-2.428 15.316 15.316 0 0 1 5.137-2.501 15.33 15.33 0 0 1 2.774-.489c.166-.015.341 0 .508-.043h1.567c.12.035.245.016.365.028.621.054 1.238.132 1.85.252a15.264 15.264 0 0 1 5.37 2.168 15.422 15.422 0 0 1 3.407 2.982 15.17 15.17 0 0 1 2.021 3.037 15.12 15.12 0 0 1 1.382 4.069c.14.752.244 1.513.248 2.28 0 .052.012.106.015.156v.915c-.015.058-.015.12-.019.183 0 .147 0 .295-.011.442-.07.939-.218 1.866-.45 2.78a15.301 15.301 0 0 1-2.162 4.783 15.444 15.444 0 0 1-5.847 5.147 15.242 15.242 0 0 1-6.007 1.617c-.153.018-.316.014-.475.048Z"/><path fill="url(#a)" d="M27.983 25.592a3.1 3.1 0 0 0 .123.904c.16.59.424 1.132.735 1.643.709 1.162 1.603 2.156 2.573 3.08.079.076.173.14.275.189a.34.34 0 0 0 .307.007.8.8 0 0 0 .268-.193c.337-.348.67-.696.988-1.056.448-.51.876-1.036 1.263-1.6.351-.511.666-1.049.897-1.631.231-.58.344-1.177.268-1.805-.127-1.037-.55-1.915-1.306-2.604-.895-.813-1.937-1.138-3.109-.957-1.907.296-3.29 2.052-3.282 4.023Z" style="mix-blend-mode:lighten"/><path fill="url(#b)" d="M37.852 39.72c-.24.008-.51-.022-.78-.079-.796-.174-1.473-.537-1.994-1.18a7.325 7.325 0 0 1-.811-1.262 13.296 13.296 0 0 1-.692-1.63 17.72 17.72 0 0 1-.6-2.05c-.087-.389.01-.632.44-.766.546-.17 1.096-.323 1.656-.447.928-.203 1.863-.333 2.817-.301.27.01.538.04.804.087a3.47 3.47 0 0 1 1.962 1.052c.913.958 1.277 2.102 1.051 3.405-.323 1.862-1.976 3.186-3.853 3.172Z"/><path fill="url(#c)" d="M25.834 39.72c.24.008.509-.022.778-.079.798-.174 1.475-.537 1.995-1.18.316-.391.582-.816.812-1.262.269-.527.494-1.075.69-1.63.24-.671.444-1.357.601-2.05.087-.389-.01-.632-.44-.766a19.985 19.985 0 0 0-1.656-.447c-.928-.203-1.863-.333-2.817-.301-.27.01-.538.04-.804.087a3.47 3.47 0 0 0-1.962 1.052c-.913.958-1.277 2.102-1.051 3.405.323 1.862 1.976 3.186 3.854 3.172Z"/><defs><radialGradient id="a" cx="0" cy="0" r="1" gradientTransform="rotate(3.754 -690.81 516.074) scale(16.9719 24.4693)" gradientUnits="userSpaceOnUse"><stop stop-color="#fff"/><stop offset="1" stop-color="#009BD8"/></radialGradient><radialGradient id="b" cx="0" cy="0" r="1" gradientTransform="matrix(30.4539 13.90381 -8.148 17.84678 16.155 21.31)" gradientUnits="userSpaceOnUse"><stop stop-color="#fff"/><stop offset="1" stop-color="#FF3044"/></radialGradient><radialGradient id="c" cx="0" cy="0" r="1" gradientTransform="matrix(-7.60544 5.06817 -2.30375 -3.45706 30.649 32.954)" gradientUnits="userSpaceOnUse"><stop stop-color="#fff"/><stop offset="1" stop-color="#FCFF7C"/></radialGradient></defs></svg>