<svg xmlns="http://www.w3.org/2000/svg" fill="none" viewBox="0 0 64 64"><rect width="64" height="64" fill="#203543" rx="32"/><g fill-rule="evenodd" clip-path="url(#a)" clip-rule="evenodd"><path fill="#0E171D" d="M26.145 16H38.8c3.876 0 5.281.4 6.698 1.149a7.857 7.857 0 0 1 3.286 3.25c.758 1.402 1.161 2.793 1.161 6.627v9.948c0 3.834-.403 5.225-1.16 6.626a7.856 7.856 0 0 1-3.287 3.251C44.082 47.601 42.677 48 38.8 48H26.145c-3.875 0-5.28-.4-6.697-1.149a7.857 7.857 0 0 1-3.287-3.25C15.403 42.198 15 40.807 15 36.973v-9.948c0-3.834.403-5.224 1.161-6.626a7.858 7.858 0 0 1 3.287-3.251C20.864 16.399 22.27 16 26.145 16Z"/><path fill="url(#b)" d="M18.276 17.901V46.1a7.842 7.842 0 0 1-2.115-2.499C15.403 42.2 15 40.808 15 36.974v-9.948c0-3.834.403-5.224 1.161-6.626a7.84 7.84 0 0 1 2.115-2.499Z"/><path fill="url(#c)" d="M35.941 23.937v15.06H46.19v-2.575h-7.46V23.937H35.94Zm-12.816 0v15.06h2.789v-4.945h2.997c3.65 0 5.741-1.851 5.741-5.058 0-3.206-2.092-5.057-5.74-5.057h-5.787Zm2.789 2.506h2.788c2.626 0 3.184 1.016 3.184 2.551 0 1.558-.558 2.597-3.184 2.597h-2.788v-5.148Z"/><path fill="url(#d)" d="M38.73 23.467h-3.27v16h11.21v-3.515h-7.46V23.467h-.48Zm-2.789.47h2.788v12.485h7.46v2.574H35.942V23.937Zm-12.816-.47h-.48v16h3.748v-4.944h2.518c3.9 0 6.221-2.048 6.221-5.529 0-3.48-2.32-5.527-6.22-5.527h-5.787Zm0 .47h5.786c3.65 0 5.742 1.852 5.742 5.057 0 3.207-2.093 5.058-5.742 5.058h-2.997v4.944h-2.789V23.937Zm2.789 2.506v5.148h2.788c2.626 0 3.184-1.04 3.184-2.597 0-1.535-.558-2.551-3.184-2.551h-2.788Zm.48.471h2.308c2.11 0 2.704.566 2.704 2.08 0 1.547-.598 2.126-2.704 2.126h-2.309v-4.206Z"/></g><defs><linearGradient id="b" x1="178.803" x2="178.803" y1="17.901" y2="2837.68" gradientUnits="userSpaceOnUse"><stop stop-color="#48BFFF"/><stop offset="1" stop-color="#0095E5"/></linearGradient><linearGradient id="c" x1="1176.35" x2="1176.35" y1="23.937" y2="1529.82" gradientUnits="userSpaceOnUse"><stop stop-color="#48BFFF"/><stop offset="1" stop-color="#0095E5"/></linearGradient><linearGradient id="d" x1="70.696" x2="1981.87" y1="482.283" y2="1757.2" gradientUnits="userSpaceOnUse"><stop stop-color="#1B1D21"/><stop offset="1" stop-color="#292F35"/></linearGradient><clipPath id="a"><path fill="#fff" d="M15 16h35v32H15z"/></clipPath></defs></svg>