<svg xmlns="http://www.w3.org/2000/svg" fill="none" viewBox="0 0 64 64"><rect width="64" height="64" fill="#fff" rx="32"/><g clip-path="url(#a)"><path fill="#0ACF83" d="M26.251 48c2.898 0 5.25-2.39 5.25-5.333v-5.334h-5.25c-2.897 0-5.249 2.39-5.249 5.334 0 2.944 2.352 5.333 5.25 5.333Z"/><path fill="#A259FF" d="M21.002 32c0-2.944 2.352-5.333 5.25-5.333H31.5v10.666h-5.249c-2.897 0-5.249-2.389-5.249-5.333Z"/><path fill="#F24E1E" d="M21.002 21.333c0-2.944 2.352-5.333 5.25-5.333H31.5v10.667h-5.249c-2.897 0-5.249-2.39-5.249-5.334Z"/><path fill="#FF7262" d="M31.5 16h5.249c2.897 0 5.249 2.39 5.249 5.333 0 2.944-2.352 5.334-5.249 5.334H31.5V16Z"/><path fill="#1ABCFE" d="M41.998 32c0 2.944-2.352 5.333-5.249 5.333-2.898 0-5.249-2.389-5.249-5.333 0-2.944 2.352-5.333 5.249-5.333s5.249 2.389 5.249 5.333Z"/></g><defs><clipPath id="a"><path fill="#fff" d="M21 16h21v32H21z"/></clipPath></defs></svg>