<svg xmlns="http://www.w3.org/2000/svg" width="283" height="129" fill="none"><path fill="#000" d="M43.004 0v57.92h-5.8V30.823H5.8v27.095H0V0h5.8v26.018h31.404V0h5.8ZM88.14 44.164 74.963 8.037 61.79 44.164 56.735 57.92h-6.132L71.733.746h6.546l21.046 57.173h-6.131l-5.055-13.755ZM112.777 53.196h20.798v4.723h-26.598V0h5.8v53.196ZM145.995 53.196h20.798v4.723h-26.598V0h5.8v53.196ZM179.214 0v57.92h-5.8V0h5.8ZM234.359 57.92h-5.801L196.492 9.196V57.92h-5.801V0h5.801l32.066 48.639V0h5.801v57.92Z"/><path fill="#FF3030" d="M274.088 58.582c-2.486 0-4.53-.718-6.132-2.154-1.547-1.492-2.32-3.315-2.32-5.47 0-2.209.773-4.06 2.32-5.55 1.602-1.492 3.646-2.238 6.132-2.238 2.43 0 4.419.746 5.965 2.237 1.602 1.492 2.403 3.342 2.403 5.552 0 2.154-.801 3.977-2.403 5.469-1.546 1.436-3.535 2.154-5.965 2.154ZM68.236 70.584V129h-16.24V96.767L40.975 129h-13.59L16.283 96.519V129H.043V70.584H19.68l14.666 37.95 14.335-37.95h19.555ZM92.064 83.593v9.529h18.644v12.346H92.064v10.523h21.129V129h-37.37V70.584h37.37v13.009H92.064ZM142.679 70.584c6.132 0 11.49 1.243 16.075 3.728 4.64 2.431 8.203 5.856 10.689 10.275 2.486 4.42 3.729 9.474 3.729 15.163 0 5.635-1.271 10.662-3.812 15.081-2.486 4.419-6.049 7.899-10.689 10.44-4.585 2.486-9.915 3.729-15.992 3.729h-23.118V70.584h23.118Zm-1.243 44.081c4.751 0 8.48-1.298 11.187-3.894 2.706-2.596 4.06-6.27 4.06-11.02 0-4.806-1.354-8.508-4.06-11.104-2.707-2.651-6.436-3.977-11.187-3.977h-5.634v29.995h5.634ZM195.076 70.584V129h-16.241V70.584h16.241ZM237.077 115.799l-18.169 7.734-3.149 5.467H198.69l21.295-58.416h18.727L259.924 129h-17.152l-5.695-13.201Zm-2.031-13.2-5.781-14.449-7.419 21.557 13.2-7.108Z"/></svg>