<svg xmlns="http://www.w3.org/2000/svg" width="536" height="59" fill="none"><path fill="#000" d="M42.35.49v57.037h-5.712V30.844H5.712v26.683H0V.49h5.712v25.622h30.926V.49h5.712ZM86.798 43.982 73.823 8.405 60.85 43.982l-4.977 13.545h-6.039L70.641 1.224h6.446l20.727 56.303h-6.039l-4.977-13.545ZM111.061 52.876h20.481v4.651h-26.193V.49h5.712v52.386ZM143.773 52.876h20.482v4.651h-26.194V.49h5.712v52.386ZM176.486.49v57.037h-5.712V.49h5.712ZM230.792 57.527h-5.712l-31.579-47.98v47.98h-5.712V.49h5.712l31.579 47.898V.49h5.712v57.037Z"/><path fill="#FF3030" d="M307.294 0v57.527h-15.993V25.785l-10.853 31.742h-13.382L256.132 25.54v31.987h-15.994V0h19.339l14.443 37.372L288.037 0h19.257ZM330.76 12.811v9.384h18.359v12.158H330.76v10.363h20.807v12.811h-36.801V0h36.801v12.811H330.76ZM380.604 0c6.039 0 11.315 1.224 15.83 3.672 4.57 2.394 8.079 5.766 10.527 10.118 2.448 4.352 3.672 9.33 3.672 14.933 0 5.549-1.251 10.499-3.754 14.85-2.448 4.353-5.957 7.78-10.526 10.282-4.515 2.448-9.765 3.672-15.749 3.672h-22.766V0h22.766Zm-1.224 43.41c4.679 0 8.351-1.278 11.016-3.834 2.666-2.557 3.999-6.175 3.999-10.853 0-4.733-1.333-8.378-3.999-10.934-2.665-2.612-6.337-3.917-11.016-3.917h-5.548V43.41h5.548ZM432.203 0v57.527H416.21V0h15.993ZM474.073 44.143l-18.4 8-3.101 5.384h-16.809L456.734 0h18.441l20.889 57.527h-16.891l-5.1-13.384Zm-2.608-13.615-5.592-13.229-8.408 21.229 14-8ZM527.422 58.18c-2.448 0-4.46-.707-6.038-2.122-1.523-1.468-2.285-3.264-2.285-5.385 0-2.176.762-3.998 2.285-5.467 1.578-1.469 3.59-2.203 6.038-2.203 2.394 0 4.352.734 5.876 2.203 1.577 1.469 2.366 3.29 2.366 5.467 0 2.121-.789 3.917-2.366 5.385-1.524 1.415-3.482 2.122-5.876 2.122Z"/></svg>