<svg xmlns="http://www.w3.org/2000/svg" width="283" height="129" fill="none"><path fill="#fff" d="M43.46 0v57.92h-5.8V30.823H6.258v27.095h-5.8V0h5.8v26.018H37.66V0h5.8ZM88.596 44.164 75.42 8.037 62.246 44.164 57.192 57.92H51.06L72.19.746h6.545l21.047 57.173H93.65l-5.055-13.755ZM113.233 53.196h20.798v4.723h-26.598V0h5.8v53.196ZM146.452 53.196h20.798v4.723h-26.598V0h5.8v53.196ZM179.67 0v57.92h-5.8V0h5.8ZM234.815 57.92h-5.8L196.948 9.196V57.92h-5.8V0h5.8l32.067 48.639V0h5.8v57.92Z"/><path fill="#FF3030" d="M274.544 58.582c-2.486 0-4.53-.718-6.132-2.154-1.546-1.492-2.32-3.315-2.32-5.47 0-2.209.774-4.06 2.32-5.55 1.602-1.492 3.646-2.238 6.132-2.238 2.431 0 4.419.746 5.966 2.237 1.602 1.492 2.403 3.342 2.403 5.552 0 2.154-.801 3.977-2.403 5.469-1.547 1.436-3.535 2.154-5.966 2.154ZM68.692 70.584V129h-16.24V96.767L41.432 129h-13.59L16.74 96.519V129H.5V70.584h19.638l14.666 37.95 14.335-37.95h19.554ZM92.52 83.593v9.529h18.644v12.346H92.521v10.523h21.129V129H76.28V70.584h37.37v13.009H92.52ZM143.136 70.584c6.131 0 11.49 1.243 16.075 3.728 4.64 2.431 8.203 5.856 10.689 10.275 2.485 4.42 3.728 9.474 3.728 15.163 0 5.635-1.27 10.662-3.811 15.081-2.486 4.419-6.049 7.899-10.689 10.44-4.585 2.486-9.916 3.729-15.992 3.729h-23.118V70.584h23.118Zm-1.243 44.081c4.75 0 8.479-1.298 11.186-3.894 2.707-2.596 4.06-6.27 4.06-11.02 0-4.806-1.353-8.508-4.06-11.104-2.707-2.651-6.436-3.977-11.186-3.977h-5.635v29.995h5.635ZM195.532 70.584V129h-16.24V70.584h16.24ZM237.534 115.799l-18.17 7.734-3.148 5.467h-17.069l21.295-58.416h18.726L260.38 129h-17.152l-5.694-13.201Zm-2.031-13.2-5.781-14.449-7.42 21.557 13.201-7.108Z"/></svg>