<svg xmlns="http://www.w3.org/2000/svg" width="537" height="59" fill="none"><path fill="#fff" d="M43.014.49v57.037h-5.712V30.844H6.376v26.683H.664V.49h5.712v25.622h30.926V.49h5.712ZM87.462 43.982 74.487 8.405 61.513 43.982l-4.977 13.545h-6.039L71.305 1.224h6.446l20.726 56.303H92.44l-4.977-13.545ZM111.724 52.876h20.482v4.651h-26.194V.49h5.712v52.386ZM144.437 52.876h20.482v4.651h-26.194V.49h5.712v52.386ZM177.15.49v57.037h-5.712V.49h5.712ZM231.455 57.527h-5.711l-31.579-47.98v47.98h-5.712V.49h5.712l31.579 47.898V.49h5.711v57.037Z"/><path fill="#FF3030" d="M307.958 0v57.527h-15.993V25.785l-10.853 31.742H267.73L256.796 25.54v31.987h-15.994V0h19.339l14.443 37.372L288.701 0h19.257ZM331.423 12.811v9.384h18.36v12.158h-18.36v10.363h20.808v12.811H315.43V0h36.801v12.811h-20.808ZM381.268 0c6.039 0 11.315 1.224 15.83 3.672 4.57 2.394 8.079 5.766 10.527 10.118 2.448 4.352 3.672 9.33 3.672 14.933 0 5.549-1.252 10.499-3.754 14.85-2.448 4.353-5.957 7.78-10.526 10.282-4.515 2.448-9.765 3.672-15.749 3.672h-22.766V0h22.766Zm-1.224 43.41c4.679 0 8.35-1.278 11.016-3.834 2.666-2.557 3.998-6.175 3.998-10.853 0-4.733-1.332-8.378-3.998-10.934-2.666-2.612-6.337-3.917-11.016-3.917h-5.549V43.41h5.549ZM432.867 0v57.527h-15.993V0h15.993ZM474.736 44.143l-18.399 8-3.101 5.384h-16.81L457.397 0h18.442l20.889 57.527h-16.891l-5.101-13.384Zm-2.607-13.615-5.593-13.229-8.407 21.229 14-8ZM528.086 58.18c-2.448 0-4.46-.707-6.038-2.122-1.523-1.468-2.285-3.264-2.285-5.385 0-2.176.762-3.998 2.285-5.467 1.578-1.469 3.59-2.203 6.038-2.203 2.394 0 4.352.734 5.875 2.203 1.578 1.469 2.367 3.29 2.367 5.467 0 2.121-.789 3.917-2.367 5.385-1.523 1.415-3.481 2.122-5.875 2.122Z"/></svg>