<svg xmlns="http://www.w3.org/2000/svg" fill="none" viewBox="0 0 82 111"><g clip-path="url(#a)"><path fill="#002A10" d="M19.264.481h3.75c6.72 1.1 12.63 6.37 13.73 13.21 1.71 8.35-4.35 17.32-12.81 18.65-9.13 2.04-18.73-5.52-18.95-14.85-.73-8.35 6.07-16.05 14.28-17.01Zm18.81 0h5.54c7.88 1.31 15.29 6.09 18.83 13.39 3.75 6.94 2.5 15.04 2.69 22.59.11 7.85-3.66 15.69-10.11 20.23-4.83 3.69-10.99 4.89-16.96 4.76.08-6.65-.06-13.31-.28-19.96.5-13.66.2-27.34.29-41.01Zm27.51 61.57c3.72.06 7.5-.41 11.16.4 2.88.79 4.35 3.61 5.11 6.27v10.34c-.74 2.68-2.26 5.5-5.14 6.3-3.65.81-7.42.31-11.13.39-.03-7.9-.03-15.8 0-23.7Z"/><path fill="#1F893C" d="M.864 61.461c11.95-12.16 24.17-24.05 36.29-36.04-.02 12.03.02 24.07 0 36.1-12.09.24-24.2.34-36.29-.06Zm-.01.65c16.35.51 32.7-.11 49.05.01-7.07 7.09-14.09 14.22-21.12 21.33-1.09 1-2.2 2.35-3.86 2.15-8.02.08-16.05-.02-24.07.02v-23.51Zm26.73 23.56c7.53-8.04 15.53-15.63 23.23-23.5 4.72-.03 9.44-.03 14.16 0-.01 7.9-.01 15.81 0 23.71-12.46-.21-24.93-.08-37.39-.21Zm.61.58c7.81-.02 15.63-.04 23.44.02.04 8.07.02 16.14.02 24.21h-24.48c.22-8.08.62-16.16 1.02-24.23Z"/></g><defs><clipPath id="a"><path fill="#fff" d="M.854.481h81v110h-81z"/></clipPath></defs></svg>