<svg xmlns="http://www.w3.org/2000/svg" fill="none" viewBox="0 0 137 31"><g clip-path="url(#a)"><path fill="#1A90FF" d="m18.244.481 17.389 30H.852l3.677-6.343h20.073l-6.36-10.972-2.67 4.61H8.218L18.244.48Zm25.453 24.22 7.16-18.99h5.967l7.159 18.99h-5.3l-1.139-3.29h-7.602l-1.139 3.29h-5.105Zm7.438-6.994h5.19l-1.36-4.008-.279-.746a27.983 27.983 0 0 0-.304-.968l-.279-1.05c-.079-.308-.171-.612-.276-.912h-.195c-.075.35-.185.746-.334 1.188-.129.443-.267.885-.416 1.327-.13.443-.25.83-.36 1.161l-1.387 4.008ZM68.757 24.7V9.774H62.57V5.711h17.343v4.063h-6.188v14.927h-4.967Zm13.953 0V5.711h4.968v14.926h9.684V24.7H82.71Zm15.43 0 7.16-18.989h5.966l7.16 18.99h-5.301l-1.137-3.29h-7.604l-1.138 3.29h-5.105Zm7.437-6.993h5.19l-1.36-4.008-.278-.746a29.516 29.516 0 0 0-.305-.968l-.277-1.05c-.093-.35-.186-.654-.278-.912h-.194c-.074.35-.185.746-.333 1.188-.13.443-.269.885-.416 1.327-.13.443-.251.83-.361 1.161l-1.388 4.008Zm23.035 7.324c-1.202 0-2.331-.11-3.385-.33-1.055-.204-1.989-.544-2.803-1.024a5.392 5.392 0 0 1-1.887-1.88c-.463-.793-.694-1.76-.694-2.902v-.248c0-.092.009-.166.028-.22h4.801c0 .054-.01.127-.028.22v.193c0 .59.148 1.07.444 1.437.314.35.749.608 1.304.774.555.148 1.203.221 1.943.221.406 0 .786-.018 1.138-.055.32-.03.636-.095.943-.193.278-.092.518-.203.722-.332.222-.146.379-.313.471-.498.111-.203.167-.432.167-.69 0-.424-.167-.774-.5-1.05-.314-.277-.749-.508-1.304-.692a21.186 21.186 0 0 0-1.831-.525c-.685-.165-1.397-.34-2.137-.525-.728-.18-1.442-.41-2.137-.69a7.977 7.977 0 0 1-1.859-1.05 4.884 4.884 0 0 1-1.304-1.577c-.315-.644-.472-1.418-.472-2.322 0-.995.212-1.852.638-2.57a5.092 5.092 0 0 1 1.748-1.797c.758-.46 1.628-.791 2.609-.995.98-.221 2.025-.332 3.136-.332 1.091 0 2.108.11 3.052.332.962.222 1.813.572 2.553 1.05a4.91 4.91 0 0 1 1.721 1.77c.425.7.647 1.547.666 2.542v.332h-4.773v-.194c0-.423-.121-.792-.361-1.105-.222-.332-.565-.59-1.027-.774-.463-.202-1.036-.304-1.72-.304-.686 0-1.269.065-1.749.193-.462.13-.823.315-1.082.553a1.164 1.164 0 0 0-.361.857c0 .405.157.737.472.995.333.259.777.48 1.332.663.555.185 1.175.36 1.859.526.685.147 1.388.313 2.109.497.74.166 1.452.387 2.137.663a7.31 7.31 0 0 1 1.859 1.023c.555.405.99.912 1.305 1.52.332.608.498 1.345.499 2.212 0 1.51-.361 2.727-1.082 3.648-.704.921-1.684 1.594-2.942 2.018-1.239.424-2.645.635-4.218.635Z"/></g><defs><clipPath id="a"><path fill="#fff" d="M.854.481h136v30h-136z"/></clipPath></defs></svg>