<svg xmlns="http://www.w3.org/2000/svg" fill="none" viewBox="0 0 240 54"><path fill="#1A91FF" d="m30.687 0 30.687 53.151H0l6.488-11.237H41.91l-11.224-19.44-4.715 8.166H12.998L30.687 0ZM75.607 42.909 88.24 9.266H98.77l12.634 33.643h-9.353l-2.008-5.828H86.625l-2.008 5.828h-9.01Zm13.124-12.39h9.157l-2.4-7.1c-.13-.36-.293-.8-.489-1.323a50.29 50.29 0 0 0-.539-1.714l-.49-1.86a19.956 19.956 0 0 0-.489-1.617h-.343c-.13.62-.326 1.323-.587 2.106a64.773 64.773 0 0 1-.735 2.35 57.5 57.5 0 0 1-.637 2.058l-2.448 7.1ZM119.83 42.909V16.465h-10.92V9.266h30.606v7.199h-10.92v26.444h-8.766ZM144.452 42.909V9.266h8.766V35.71h17.091v7.199h-25.857ZM171.682 42.909l12.634-33.643h10.529l12.634 33.643h-9.353l-2.008-5.828H182.7l-2.007 5.828h-9.011Zm13.124-12.39h9.157l-2.399-7.1c-.131-.36-.294-.8-.49-1.323a51.861 51.861 0 0 0-.538-1.714l-.49-1.86a19.988 19.988 0 0 0-.49-1.617h-.343c-.13.62-.326 1.323-.587 2.106a66.2 66.2 0 0 1-.735 2.35c-.228.784-.441 1.47-.636 2.058l-2.449 7.1ZM225.456 43.496c-2.122 0-4.114-.196-5.975-.587-1.86-.36-3.509-.963-4.946-1.812a9.567 9.567 0 0 1-3.329-3.33c-.817-1.404-1.225-3.118-1.225-5.142v-.44c0-.164.017-.295.049-.393h8.472c0 .098-.016.229-.049.392v.343c0 1.045.261 1.893.784 2.546.555.62 1.322 1.078 2.301 1.371.98.262 2.122.392 3.428.392.718 0 1.388-.032 2.008-.098a7.888 7.888 0 0 0 1.665-.343c.49-.163.914-.359 1.273-.587.392-.261.669-.555.833-.882.195-.359.293-.767.293-1.224 0-.75-.293-1.371-.881-1.86-.555-.49-1.322-.898-2.302-1.225a36.234 36.234 0 0 0-3.232-.93 607.778 607.778 0 0 1-3.77-.93 28.282 28.282 0 0 1-3.771-1.225 14.003 14.003 0 0 1-3.281-1.86 8.727 8.727 0 0 1-2.302-2.792c-.555-1.143-.832-2.514-.832-4.114 0-1.763.375-3.28 1.126-4.554a8.997 8.997 0 0 1 3.085-3.183c1.339-.816 2.873-1.404 4.603-1.763 1.731-.392 3.575-.588 5.534-.588 1.926 0 3.722.196 5.387.588 1.697.392 3.199 1.012 4.505 1.861 1.306.816 2.318 1.86 3.036 3.134.751 1.24 1.143 2.742 1.175 4.505v.588h-8.422v-.343c0-.75-.213-1.404-.637-1.959-.392-.587-.996-1.044-1.812-1.37-.816-.36-1.828-.54-3.036-.54s-2.236.115-3.085.343c-.816.229-1.453.555-1.91.98-.424.424-.637.93-.637 1.518 0 .718.278 1.306.833 1.763.588.457 1.371.849 2.35 1.175.98.326 2.074.637 3.281.93 1.208.262 2.449.555 3.722.882 1.306.294 2.563.686 3.771 1.175a12.81 12.81 0 0 1 3.281 1.812 7.632 7.632 0 0 1 2.301 2.693c.588 1.078.882 2.384.882 3.918 0 2.677-.637 4.832-1.91 6.464-1.24 1.632-2.971 2.824-5.191 3.575-2.187.75-4.668 1.126-7.443 1.126Z"/></svg>