<svg xmlns="http://www.w3.org/2000/svg" width="136" height="30" fill="none"><path fill="#fff" d="m17.39 0 17.389 30H0l3.676-6.343H23.75l-6.36-10.972-2.671 4.609H7.365L17.389 0Zm25.454 24.219 7.16-18.989h5.966l7.159 18.989h-5.3l-1.138-3.29h-7.603l-1.138 3.29zm7.437-6.993h5.19l-1.36-4.008-.278-.746a28 28 0 0 0-.305-.968l-.278-1.05a11 11 0 0 0-.277-.912h-.195q-.111.525-.333 1.188-.194.664-.416 1.327-.195.664-.36 1.161zm17.623 6.993V9.293h-6.188V5.23h17.343v4.063h-6.188V24.22zm13.952 0V5.23h4.968v14.926h9.684v4.063zm15.431 0 7.159-18.989h5.966l7.16 18.989h-5.301l-1.137-3.29h-7.604l-1.138 3.29zm7.436-6.993h5.19l-1.36-4.008-.278-.746a27 27 0 0 0-.305-.968l-.277-1.05q-.139-.525-.278-.912h-.194q-.111.525-.333 1.188-.195.664-.416 1.327-.195.664-.361 1.161zm23.035 7.324q-1.803 0-3.385-.331-1.582-.304-2.803-1.023a5.4 5.4 0 0 1-1.887-1.88q-.694-1.189-.694-2.902v-.248q0-.139.028-.221h4.801q0 .082-.028.22v.194q0 .885.444 1.437.472.525 1.304.774.833.221 1.943.221.61 0 1.138-.055a4.5 4.5 0 0 0 .943-.193q.417-.138.722-.332.333-.22.471-.498.167-.304.167-.69 0-.636-.5-1.05-.471-.416-1.304-.692a21 21 0 0 0-1.831-.525q-1.027-.248-2.137-.525a16 16 0 0 1-2.137-.691 8 8 0 0 1-1.859-1.05 4.9 4.9 0 0 1-1.304-1.576q-.472-.967-.472-2.322 0-1.493.638-2.57a5.1 5.1 0 0 1 1.748-1.797q1.138-.69 2.609-.995 1.47-.332 3.136-.332 1.637 0 3.052.332 1.443.332 2.553 1.05a4.9 4.9 0 0 1 1.721 1.77q.638 1.05.666 2.542v.332h-4.773v-.194q0-.635-.361-1.105-.333-.498-1.027-.774-.694-.304-1.72-.304-1.028 0-1.749.193-.693.195-1.082.553a1.17 1.17 0 0 0-.361.857q0 .608.472.995.5.388 1.332.663.833.277 1.859.526 1.028.22 2.109.497 1.11.249 2.137.663a7.3 7.3 0 0 1 1.859 1.023q.833.608 1.305 1.52.498.912.499 2.212 0 2.266-1.082 3.648-1.055 1.382-2.942 2.018-1.858.635-4.218.635"/></svg>