<svg xmlns="http://www.w3.org/2000/svg" width="1334" height="596" fill="none"><g fill="#E64213" clip-path="url(#a)"><path d="M1027.87 0h76.32c3.22 2.707 4.88 7.747 9.41 8.547 5.37.733 10.12 4.146 15.73 3.346-3.84-3.013-8.42-4.786-13.17-5.733-3.44-.373-4.96-3.773-6.88-6.16h5.27c.38 3.547 6.48 4.373 5.12 0h17.85c-2.04 3.68-4.43 7.16-6.27 10.933-1.41 4.454-.56 9.227-1.24 13.787-9.42 2.627-19.65-.04-29.36 1.307-1.84 8.226-2.92 16.626-5.04 24.8-.61 2.08-.29 4.24-.08 6.346-1.57 3.014-3.32 6.04-3.74 9.48 11.66 5.76 23.94 10.28 36.08 14.894 6.88 4.28 13.66 8.746 21.06 12.12 2.92 1.4 7.36 3.773 5.47 7.72-2.95 9.48-2.59 19.773-.03 29.28-.09 9.613 3.27 19.12.52 28.653 3.14 4.68 5.03 10.053 8.39 14.6 3.36.533 6.51 1.867 9.05 4.187 4.03.92 8.14 1.64 12.31 1.413 2.24-2.4 5.01-5.093 8.63-4.653 5.25.52 10.57.64 15.76-.627-4.6 4.147-11.14 4.24-16.91 3.347-3.07 1.786-6.07 3.946-9.6 4.626-5.2.28-10.33-1.04-15.53-.933-2.22 3.227-3.62 7.093-6.62 9.747-2.48 2.44-5.69 4.16-7.7 7.026-1.72 3.347.3 7.08-.12 10.614-1.32 2.92-4.08 5.333-4.02 8.746-.02 3.84 1.02 7.574 1.58 11.347 6.18-1.907 11.38 2.533 17.1 4.04-.84.867-1.69 1.693-2.57 2.48-2.09 1.2-3.51-1.347-5.05-2.253-.91.2-2.71.613-3.6.813-2.82-1.387-5.64-2.76-8.47-4.08.51.96 1.52 2.893 2.01 3.867-.32 3.04-.5 6.093-.56 9.16.91-.52 2.72-1.574 3.63-2.094-.35 2.36-.77 4.72-1.44 7.014 1.09 2.906 2.43 5.706 3.89 8.453-.93.36-2.82 1.093-3.77 1.453 1.63 1.84 3.92 1.734 6.13 1.4.7.227 2.08.68 2.78.907.22-.813.68-2.467.89-3.293 4.32 2.626 8.52 5.546 13.21 7.506 1.5.467 3.47 1.454 4.9.24 4.45-3.613 8.98-7.666 11.02-13.2 2.28-6.133 7.12-10.693 10.39-16.253-3.32-1.773-6.8-3.187-10.37-4.333-1.06-2.827-1.82-5.787-3.08-8.534-1.99-3.293-4.78-6.013-6.66-9.373 7.23 3.093 11.23 10.107 15.84 16.04 4.38 1.707 8.66 3.747 13.27 4.76 6.72-5.107 12.61-11.427 18.17-17.773 1.15-5.227.34-10.667.38-15.974 2.49-.173 3.33-2.253 3.98-4.32-.98-.066-2.93-.2-3.92-.28.02-15.306-.14-30.626-.06-45.946 3.06 2.573 6.69 4.36 10.66 5-3.13-2.654-6.86-4.414-10.62-5.96-.02-2.76-.03-5.52-.04-8.28 4.86 2.52 9.54 5.386 13.96 8.666 2.73-.533 5.52-.773 8.32-.826 1.45 5.266 3.42 10.586 2.94 16.146-.54 5.787.11 11.574.76 17.32-1.02 3.147-1.72 6.414-1.74 9.747 1.76 2.187 2.98 4.707 2.72 7.6-.22 4.12 1.77 7.787 3.45 11.387-.47 1.413-.91 2.84-1.35 4.253-5.98 3.76-5.2 11.507-5.46 17.64.61 7.533-2.6 16.4-9.84 19.72-2.87 3.84-5.76 7.813-9.98 10.28.54.92 1.08 1.853 1.66 2.787 3.54-3.867 8.32-6.414 11.38-10.747.82 0 2.44-.027 3.26-.04 1.33-4.827 2.8-9.813 6.48-13.44-.26-.733-.75-2.187-1-2.92 1.02-2.707 2.13-5.4 3.34-8.04-.5-.04-1.53-.133-2.05-.173.61-3.507.76-7.08.44-10.627.76.093 2.29.28 3.05.36l3.38-2.36c1 1.84 2.26 3.707 2.05 5.92-.08 18.547.07 37.093-.09 55.64-12.62-.067-25.23.147-37.84-.133.2-1.814.57-5.427.77-7.24.87 1.64 1.68 3.293 2.53 4.973.84-1.333 1.7-2.667 2.58-4-1.11-.733-2.19-1.48-3.26-2.227 3.18-1.306 2.88-4.08 1.43-6.493.13-.96.27-1.907.43-2.853-.79-.88-2.36-2.64-3.15-3.52-.4 2.826-.01 5.92-1.55 8.453-1.62-2.72-2.93-5.6-4.28-8.453-.73.08-2.22.226-2.97.306-3.07-3.133-6.77-5.466-10.71-7.32-.81.16-2.42.494-3.24.654-.92-2.667-1.84-5.32-2.78-7.974a352.685 352.685 0 0 0-4.68 5.147c3.84 2.987 7.57 6.133 10.96 9.653 3.29 3.414 7.93 5.174 10.9 8.947.76-1.32 1.59-2.613 2.47-3.88 2.01 2.413 2.71 5.533 3.68 8.453-1.01 2.4-1.92 4.854-3.17 7.134-2.06.413-4.15.48-6.19.68.12-4.094.91-8.76-3.67-10.734-1.57 1.454-3.14 2.92-4.69 4.387-.77-2.08-1.53-4.16-2.25-6.24a334.185 334.185 0 0 0-5.19 3.36c.69 3 1.31 6.027 1.87 9.067-2.74 2.586-5.4 5.266-8 7.973-.5-.853-1.48-2.573-1.98-3.44-3.21 6.2-1.86 14.413 4.51 18 .55 6.653 6.8 11.4 6 18.293 4.04 3.2 9.48 2.374 14.27 3.334-2.87 1.373-5.66 2.853-8.27 4.626-1.29-.173-3.85-.533-5.13-.706-.18 5.013 5 6.226 8.44 8.4-2.48 3.573-6.06 6.44-7.36 10.72a41.081 41.081 0 0 0-2.15 3.84c-.25 3.466 2.67 5.8 4.95 7.893-.03 2.973-.07 5.96-.14 8.933 2.19 2.934 5.72 5.64 5.35 9.707.07 5.827-.16 13.2 5.83 16.347.92 3.253 2.06 6.453 3.57 9.493.01.707.01 2.12.01 2.827 2.46 3.093 4.62 6.413 6.59 9.853.65-.427 1.95-1.267 2.6-1.693.6 2.72 1.15 5.453 1.6 8.2-1.97-.334-3.95-.667-5.92-.974a135.08 135.08 0 0 0 5.28 3.574c1 3.266 1.71 6.733-.36 9.76-.63-2.88-1.11-5.774-1.56-8.667-.48 2.067-.92 4.147-1.35 6.227 3.43 3.653 2.68 8.853 3.02 13.453-.99-.36-2.98-1.067-3.98-1.427.95 2.467 1.94 4.934 2.9 7.414-4.18 5.293-4.02 12.44-7.44 18.106-2.04 3.467-4.24 6.827-6.31 10.267 4.03 5.8 12.65 8.613 13.21 16.44 2.66.64 5.36.32 7.96-.533a75.12 75.12 0 0 1 4.23 6.013c-3.92-1.08-7.85-2.253-11.93-2.16-1.98-2.293-3.72-4.773-5.34-7.32-.9-.2-2.72-.6-3.61-.8-.19-.68-.53-2.04-.71-2.707-2.64-2.2-4.96-4.72-6.97-7.48l2.79-4.04-2.9-.08c1.48-.96 2.99-1.88 4.52-2.8-1.56-.853-3.08-1.706-4.58-2.573l2.66-.24c-.04-.76-.13-2.267-.17-3.027 2.96.04 4.11-2.12 4.76-4.64.87-.36 1.79-.613 2.75-.786l-1.67-.16c-1.89-2.387-2.24-5.427-2.28-8.36 1.4 1.706 2.67 3.52 3.99 5.306 2.82-3.906-3.2-6.826-1.51-10.773 1.61-4.787 1.91-9.933-.57-14.507a280.63 280.63 0 0 1 1.88-4.4c-1.2-1.693-2.51-3.346-3.38-5.226.24-2.574 1.31-4.96 2.28-7.32-2.36-3.054-4.72-6.094-7.24-9-4.02-4.467-4.9-10.694-8.25-15.587-2.97-4.24-2.16-9.747-4.31-14.267-9.89 2.547-20.09 4.134-29.38 8.574-6.18.733-12.2 2.16-17.94 4.573-.45 1.813-.88 3.627-1.3 5.44.66.68 1.97 2.04 2.64 2.72-2.24 1.4-4.48 2.76-6.68 4.173-5.5 3.027-7.67 9.347-12.28 13.334.38-1.92.8-3.827 1.25-5.734-2.05 1.48-4.07 3-6.05 4.534a302.36 302.36 0 0 0 4.81 4.893c1.43-.573 2.88-1.133 4.35-1.693-1.15 3.613-2.88 7.08-3.4 10.853.61 1.96 2.04 3.48 3.21 5.16-.32-1.653-.95-4.96-1.25-6.613 1.58 1.853 3.18 3.76 4.72 5.706-2.51 6.334.46 13.347-2.71 19.534-1.31.506-2.6 1.013-3.87 1.52.23 1.413.46 2.826.7 4.253.14 2.373.52 4.72 1.01 7.053 3.09 2.867 7.23 5.52 7.96 10.014-.09 4.826-1.55 9.52-2.79 14.16-6.33-2.24-7.09-9.787-8.16-15.454-.34-8.493-6.46-15.426-5.84-24.093 1.23-3.373 2.12-6.853 2.79-10.373-3.05-2.96-3.87-6.987-3.23-11.08.79-2.92-1.97-4.32-3.97-5.627-.81-1.013-1.61-2.04-2.4-3.053-2.75.853-5.52 1.493-8.37 1.68-.38 1.586-.75 3.173-1.1 4.773.6 5.093.5 10.253.9 15.373l3.2.96c.53.774 1.58 2.334 2.1 3.12-.09-1.16-.28-3.493-.37-4.653.6-1.56 1.19-3.107 1.76-4.68a67.145 67.145 0 0 0-2.83 3.6c-.21.067-.65.213-.88.28-.41-2.813-1.52-5.693-1.08-8.533a93.58 93.58 0 0 0 1.47-1.054c-.07-1.16-.25-2.293-.59-3.4.34-1.373 1.7-2.84 3.24-2.346 2.19 11.96 6.52 23.413 8.52 35.426-2.81 2.534-5.02 5.64-7.02 8.84-3.87-7.373-4.76-15.76-5.34-23.933l-2.26.32c-.66 9.92 3.08 19.387 6.61 28.453-.09 1.76-.17 3.534-.23 5.32 4.16-1.32 8.83-2.813 13.08-.973 1.5 3.333 2.26 6.947 3.28 10.453-2.54-1.013-5.08-2.026-7.58-3.066.04-1.88.09-3.747.14-5.614-2.14 1.507-4.26 3.04-6.38 4.574-.51-1.054-1.54-3.147-2.06-4.2-1.86 1.786-3.73 3.586-5.6 5.373-1.13-1.053-2.28-2.08-3.4-3.12.04 1.12.11 3.36.14 4.48-1.47.627-2.91 1.28-4.35 1.933-.8-.733-2.43-2.186-3.24-2.92-.76 1.627-1.51 3.267-2.21 4.907 1.26.093 3.82.267 5.09.36-4.77 2.973-9.52 6.4-12.25 11.467-2.91 4.533-1.83 10.213-3.7 15.093-1.09 2.373-3.06 4.16-4.6 6.227 2.78-.52 5.48-1.387 8.1-2.467.41-2.533.89-5.053 1.4-7.56-.5-1.387-.92-2.787-1.28-4.2 1.53-2.84 4.66-4.12 7.34-5.613.28-1.254.59-2.494.9-3.734 1.56-.973 3.12-1.933 4.7-2.893-.06-.853-.21-2.573-.28-3.427.75-.026 2.24-.08 2.99-.093 4.37-3.653 10.29-3.44 15.52-4.867-.12 1.094-.36 3.28-.49 4.374 3.08-1.027 2.46-3.8 2.09-6.267 2.56 1.16 5.05 2.48 7.4 4.067.63.146 1.88.44 2.51.586 5.06 20.387 10.58 40.667 15.9 61-5.86.387-11.73.387-17.58.04.68-1.626 1.37-3.253 2.09-4.866-.33-.987-.64-1.974-.92-2.96 2.29-3.4 2.76-7.454 2.8-11.454-1.51-6.32 2.88-12.493.45-18.746.11 6.52-4.61 12.44-2.82 18.893-1.75 6.373-1.75 13.133-4.26 19.307-14.32.106-28.62.04-42.94.04-2.42-8.814-3.91-17.854-6.3-26.667.4-.96 1.2-2.867 1.6-3.827-3.58 1.92-7.45 3.547-11.62 3.107-10.22-.453-20.43.227-30.64-.12-3.08.613-3.92-2.64-5.2-4.667 1.34-2.093 2.66-4.186 3.9-6.346-1.96 1.466-3.86 3-5.74 4.573-2.7-3.173-4.95-6.68-7.5-9.947-.33 6.667 6.12 9.734 8.91 14.96-3.11 9.414-4.29 19.307-6.76 28.88-20.99-.08-41.973.307-62.947-.106a27591.565 27591.565 0 0 0 17.027-65.627c2.213-8.547-2.253-16.587-3.507-24.867 1.454 1.04 3.04 2 4.347 3.28.8 3.094.8 6.334 1.24 9.494a29.419 29.419 0 0 0 3.24-8.294c3.027-12.453 6.4-24.813 9.51-37.253-1.2-1.453-2.39-2.907-3.55-4.373 2.09-.04 4.21-.08 6.33-.094-.86-.866-1.72-1.733-2.56-2.586 3.8-3.88 3.87-9.614 5.36-14.52 6.27-24.734 12.87-49.387 19.14-74.12-5.31.853-9.36 4.946-14.7 5.893-4.49 1.84-9.28 1.373-13.983 1.093-4.2 2.36-6.067 7.227-8.854 10.947-.653-.507-1.96-1.507-2.613-2.013 1.867-3.64 4.387-6.894 6.307-10.52-5.147 3.76-9.707 8.32-13.747 13.226 1.987-.453 3.973-1.12 6.053-1.346.28 1.546-.306 3.053-.533 4.573-2.933.627-5.813 1.373-8.693 2.187-2.427 4.173-6.76 6.4-11.294 7.546-.16 3.947-.146 7.947.974 11.787-3.147-1.453-6.534-1.16-9.76-.24-6.654-1.373-13.614-1.387-20.2.227-.4 5.173-.08 10.36-.054 15.546a469.054 469.054 0 0 1-4.68-4.133c1.147-4.507 1.934-9.107 2.467-13.733-3.08 2.2-3.653 5.946-3.96 9.44-1.173-.16-3.547-.507-4.733-.667 2.733 4.733 7.173 8.027 10.453 12.32.773 3.587.32 7.307.4 10.96-.08 28.947.013 57.88-.04 86.827 9.627.066 19.267.04 28.893.013.44 17.213-.013 34.427.24 51.64-.106 2.44.24 5.013-.573 7.36-17.173.467-34.373.107-51.56.147-.68-4.974-1.053-10.227 1.547-14.734 3.92-8.146-1.52-16.293-3.64-24.026l-4.227-.32a371.67 371.67 0 0 1 2.52-4.4 696.19 696.19 0 0 1-4.44-3.04c.227-1.094.467-2.187.72-3.267-.613-1.373-1.2-2.747-1.773-4.107-.76.254-2.294.76-3.067 1.014.213-6.987.013-14.147-2.773-20.667l3.826-.64c5.414-6.32 6.6-14.96 9.854-22.387 1.946-3.186 4.626-6.426 2.76-10.333 5.28-11.413 5.56-24.227 7.8-36.387 1.973-6.426 3.773-12.92 4.44-19.64a84.03 84.03 0 0 1-1.96.827c-1.307 10.013-5.507 19.4-5.934 29.547-1.84 7.026-1.426 14.613-4.653 21.253-2.493 5.24-1.72 12.24-7.16 15.76a214.047 214.047 0 0 0-1.507 4.973c.56.92 1.667 2.747 2.214 3.654-1.32-.32-2.614-.707-3.907-1.067-1.573 5.4-4.64 10.173-8.653 14.08-.667 4.347 1.533 12.093-4.587 12.84-.96-4.773-.827-9.613.707-14.253-4.04 2.866-6 7.466-5.827 12.373a418.06 418.06 0 0 1-7.56-2.48l-3.36.747c.027-25.64.173-51.294-.08-76.934-1.347-2.16-3.267-4.346-2.787-7.093.907-8.28-2.373-16.12-3.12-24.253a36.297 36.297 0 0 1 1.707-4.16c-2.227.053-4.453.106-6.667.12-4.4-4.72-10.826-5.494-16.933-4.867 1.373 3.293 5 1.933 7.68 1.76 1.813.987 3.613 2.027 5.4 3.107-4.84.186-9.693.12-14.533-.107-.107-2.027-.2-4.04-.28-6.053-1.48.906-2.96 1.826-4.427 2.733l.213-3.267c-.68-.466-2.053-1.413-2.733-1.893 2.12-1.84 4.547-3.28 6.96-4.693.053-.867.133-2.6.173-3.467-.933.28-2.813.853-3.746 1.133 5.56-7 2.906-16.066 4.386-24.2-.933-6.333-.746-12.733-.72-19.106 3.134-.054 6.254-.067 9.4-.04.254.96.52 1.906.787 2.866.333-.666 1-1.986 1.333-2.653 8.494-.893 17.094.48 25.574-.893 2.6.36 5.2-.014 7.733-.707 3.133.773 6.333 1.453 9.6 1.36 11.253-.067 22.507-.04 33.773-.027-1.92 7.667-.613 15.734.96 23.36-1.666 4.267-3.6 8.614-3.506 13.294.133 3.453 1.04 6.826 1.2 10.28-.827.36-2.48 1.066-3.307 1.426 1.08 3.2 2.24 6.494 4.68 8.947.2-1.08.613-3.253.813-4.333-1.546-2.76-1.24-5.467 1.04-7.654-.106-2.56-.253-5.186.84-7.573-.733-1.16-1.453-2.307-2.173-3.44 1.333-2.573 2.68-5.147 4.173-7.64-.453-1.733-.893-3.453-1.36-5.173 0-2.587-.04-5.174-.186-7.76.2-.88.6-2.654.8-3.547-1.52-2.96-5.027-6.813-1.48-9.733 9.813-.64 19.666-.52 29.506-.347.054 12.36 0 24.733 0 37.093.974-.906 1.96-1.8 2.947-2.706 2.907-.414 5.84-.787 8.787-1.054a197.785 197.785 0 0 1-3.28-5.626c4.973-2.387 8.213-7.614 13.92-8.56 4.813-1.854 9.853 1.533 14.683-.334 4.48-1.253 8.98-2.4 13.46-3.68 5.83-1.386 11.39-3.706 16.63-6.613-.96-1.747-1.88-3.507-2.75-5.293-13.25-14.054-27.41-27.24-40.73-41.24.547-3.52.947-7.08.987-10.654-1.987 2.467-1.974 5.707-2.427 8.68-21.533-.253-43.08.187-64.613-.12-2.56-2.48-6.147-4.24-7.547-7.653-.68-6.08-.613-12.413-3.133-18.133-.867-2.507-2.96-5.014-1.36-7.694-3.44-3.8-7.254-7.36-12.08-9.32-6.534-2.826-9.894-9.466-13.827-14.986 11.867.213 23.773-.614 35.613.493 4.827-.52 9.68-.627 14.534-.747-.054-4.146.44-8.4-.6-12.466-2.107.466-4.147 1.08-6.214 1.64 1.067-3.16 3.627-5.014 6.734-5.96.026-5.467.066-10.92.093-16.387-19.867-.693-39.747.107-59.613-.307-3.814.067-8.174-.52-11.294 2.16-.813 10.307.12 20.694-.426 31.027.946-.107 1.893-.2 2.866-.28 3.04 1.133 5.907.533 7.92-2.067.76-.133 2.267-.413 3.027-.546a85.44 85.44 0 0 1 6.333-2.334c-1.213 3.747-5.306 4.267-8.48 5.507 8.427-.413 9.667 9.72 15.56 13.64 5.294 3.347 11.347 6.44 14.334 12.253 1.506 3.36 3.173 6.68 4.24 10.227.88 5.187.306 10.507 1.253 15.693.453 3.374 4.067 4.574 6.413 6.48-11.226-.32-22.453-.013-33.68-.093-1.52 1.587-3.026 3.173-4.546 4.747a534.24 534.24 0 0 0-.72-4.68c-25.614-.227-51.24.12-76.867-.174-.067-16.733.04-33.453-.04-50.173-1.08-1.333-2.16-2.64-3.107-4.04 1.387-1.147 2.907-2.147 4.387-3.16.227-1.6.467-3.2.707-4.787a503.16 503.16 0 0 1-3.44-4.546c1.92-3.467 2.773-7.347 3.28-11.254-.92-.706-1.84-1.4-2.76-2.093-1.707 1.08-3.36 2.173-5.107 3.16 1.333-3.307 4.613-4.733 7.68-6.067.107.68.347 2.027.467 2.694 5.426 1.066 1.853 7.84 2.24 11.52 1.12-1.52 2.24-3.04 3.373-4.56 1.44.586 2.893 1.16 4.36 1.733a278.552 278.552 0 0 0-2.88-4.693c-.52-6.36-.867-12.734-1.307-19.107-1.066-1.413-2.133-2.813-3.186-4.213.4-1.094.813-2.187 1.24-3.267-.467-1.827-.96-3.64-1.16-5.52 1.2-2.373 4.133-2.827 6.266-4.04 1.987-2.88 4.12-5.68 6.734-8.04-1.134-1.067-2.294-2.12-3.4-3.187 2.546-5.573 9.373-10.533 6.346-17.24.987-1.933 2-3.853 3.027-5.773 4.36.453 8.693 1.36 13.08 1.613 1.867.36 3.24-1.04 4.373-2.293-4.28-1.88-8.893-2.813-13.506-3.333a650.711 650.711 0 0 1-2.547-3.92c-1.627 1.2-3.4 2.173-5.08.266.853-.773 1.707-1.533 2.587-2.293-3.694-4.84-5.587-10.893-7.4-16.627.76-.386 2.266-1.173 3.026-1.56-.493-3.52-.866-7.16-2.786-10.266-.134 1.16-.387 3.48-.52 4.64-2.24-4.24-7-7.214-7.36-12.294-.667-3.706-.88-7.64-2.88-10.96l-.107 4.307c-.733-.067-2.187-.213-2.907-.28l2.72-.973c-1.48-1.254-2.973-2.507-4.453-3.747.093-10.56-.093-21.133.133-31.707 14.68.08 29.414-.413 44.08.187 4.067 3.627 7.827 7.893 9.467 13.2l4.653 4.093c1.827-.253 3.667-.493 5.52-.733a42.315 42.315 0 0 1-1.573 13.373 253.117 253.117 0 0 0 3.307 3.2c-.094 1.507-.16 3.014-.227 4.52a117.096 117.096 0 0 1 5 7.867 808.792 808.792 0 0 0 5.84-4.267 160.476 160.476 0 0 1 5.187 6.027c2.6.853 5.173 1.813 7.76 2.747-.734-.84-2.174-2.534-2.907-3.374 4.12-1.146 8.187-2.506 12.133-4.16 3.827 4.734 7.707 9.574 13.16 12.547-16.36.2-32.72-.187-49.066.227-.24 9.4.946 18.906-.814 28.2l.48 2.613c-1.813-.72-3.613-1.44-5.413-2.16-2.4 1-4.8 2-7.173 3-.48-.72-1.44-2.173-1.92-2.893.253.773.76 2.32 1 3.093-2.4.36-4.76.867-7.027 1.707.76.586 2.28 1.786 3.04 2.373 1.307-.6 2.613-1.187 3.933-1.787.107.88.334 2.627.44 3.507l.88-.253c.28-.88.867-2.64 1.16-3.52 8.294-2.307 16.88.733 25.334-.12 5.613 4.213 5.16 11.733 7.64 17.68 3.333 3.306 6.333 6.906 8.933 10.826 3.893 5.16 11.533 2.547 16.093 6.747 7.667 5.667 16.454 9.227 25.134 12.987.24-.44.733-1.334.973-1.774-.893-1.146-1.787-2.293-2.667-3.44l-3.84.427a218.444 218.444 0 0 1-2.4-2.6c-.946.08-2.853.213-3.813.293-2.307-1.76-4.64-3.48-7.027-5.106-.093-.667-.253-2-.346-2.667-3.267-1.733-6.454-3.947-10.254-4.227-3.133-.693-7.186-.093-9.213-3.12-2.52-3.333-4.907-6.773-7.88-9.72-2.653-5.16-4.8-10.573-5.813-16.32 17.293-.173 34.586.334 51.866-.266-.066-4.24-.12-8.48-.226-12.734 4.373 3.907 9.546 6.774 15.106 8.64 4.76 1.574 7.12 6.387 10.36 9.854.187 12.666-.253 25.333.28 38-.44.44-1.32 1.306-1.76 1.746.72 1.987 1.587 4.014 1.52 6.174.054 11.053-.146 22.106.094 33.146 12.373 12.44 25.146 24.534 37.04 37.427-3.787.147-8.534-2.547-11.64.333 4.32 1.547 8.986 1.547 13.506 1.147 12.547 12.36 24.917 24.92 37.397 37.347 2.6 3.12 6.98 2.52 10.62 2.706 15.45-.52 30.9-.28 46.37-.266.71 1.186 1.43 2.386 2.16 3.6.28-3.414 3-3.8 5.79-3.827 2.34 3.987 6 6.853 9.65 9.587.04-.814.13-2.44.17-3.254 1.35-1.106 6.08-.84 4.23-3.6l-4.37.054c-.58-.6-1.71-1.827-2.28-2.427 8.36-.387 16.73.027 25.09-.213 2.32.013 4.04-1.787 5.95-2.84 1.5.986 2.97 2 4.46 3.04 3.14-.294 6.55-.747 8.76-3.28 6.12-6.2 12.48-12.174 18.42-18.56-4.88 2.08-10.11 3.013-15.16 4.48-.98 1.586-1.62 3.32-2.34 5.026-4.66 1.427-9.44 2.534-14.26 3.2 1.64-4.2 6.37-5.026 9.97-6.853-.59-2.547-1.16-5.093-1.6-7.653 1.83 1.76 3.29 3.826 4.72 5.92 1.2-1.12 2.4-2.24 3.63-3.36-1.58-2.32-3.82-4.654-2.35-7.654-2.43-1.6-4.93-3.04-7.47-4.426 2.83-5.84 1.24-12.2-.4-18.107-4.5.947-9.1 1.253-13.7 1.187-.39-.747-1.19-2.24-1.59-2.974 1.88-5.2 1.21-10.68.76-16.026 1.21-4.014 4.85-6.774 6.93-10.36-.82-2.88-1.45-5.814-1.98-8.747 4.24-3.693 8.72-7.093 12.86-10.907-.09-.72-.29-2.173-.38-2.906 3.69-1.027 6.84-4.92 5.28-8.827-3.19-1.813-6.63-3.12-9.86-4.827 1.95-4.093.87-8.426-2.69-11.2 1.89-5.093 4.25-10.253 4.12-15.786-.53-4.04-2.08-7.947-1.85-12.067.16-10.88-.58-21.747-.4-32.613-6.47-6.56-16.27-8.027-24.59-11.254-4.92-1.8-7.61-6.786-12.21-9.08-9.54-3.92-19.11-7.746-28.75-11.386-1.05-3.12 1.68-5.707 2.48-8.574 1.95-6.866 1.91-14.213 4.45-20.946 2.52-6.467 2.51-13.454 3.16-20.254-16.53-.2-33.08-.186-49.61.134-4.69 4.72-9.43 9.4-14.07 14.16a787.18 787.18 0 0 0-5.52-4.36c-.93.24-2.8.706-3.73.933-.71-1.267-1.41-2.533-2.11-3.8-4.66-.653-9.12-2.187-13.21-4.48 9.55-9.347 19.12-18.68 28.31-28.4Zm73.9 12.053c-1.62 1.72 1.02 4.854 2.86 3.067 1.93-1.72-1.04-5.107-2.86-3.067Zm-74.81 13.587c4.45.2-2.08 3.933 0 0ZM809.12 79.773c2.453 2.294 4.507 4.987 7.12 7.12-1.027-3.573-3.053-6.72-4.853-9.933.106-1 .32-2.973.413-3.973-1.227 2.12-2.16 4.4-2.68 6.786Zm335.17 24.4c3.91-2.08.16 4.48 0 0Zm-268.117 38.4c-.773 2.214 3.667 4.96 4.974 2.84-.534-1.853-3.107-3.706-4.974-2.84Zm356.107 18.947c-.68 4.067 3.92 4.733 6.87 4.96-1.42-2.667-4.27-3.813-6.87-4.96Zm-290.307 9.28c-.933 3.267-2.906 6.053-4.493 9 2.987-1.52 5.893-3.68 6.387-7.253 4.986.266 9.986.053 14.92 1.053-3.214-4.92-9.654-2.773-14.507-3 .2-1.773.413-3.547.56-5.32-1.933 1.2-2.16 3.56-2.867 5.52Zm-31.4-1.893c-.146 2.853 1.427 5.293 4.227 6.026-.933-2.32-2.36-4.386-4.227-6.026Zm-101.146 6.346c-.64 2.134.133 2.88 2.333 2.227.6-2.12-.173-2.867-2.333-2.227Zm130.72 5.16c-2.08 1.374.533 4.414 2.386 3.094 2.067-1.4-.533-4.454-2.386-3.094Zm-117.28 8.28c-.787 2.08-.04 2.814 2.24 2.2.746-2.066 0-2.8-2.24-2.2Zm-8.04 15.094c-1.12 4.24 4.026 5.186 6.946 6.093-1.506-2.84-4.186-4.613-6.946-6.093Zm126.133 6.973c.267.387.773 1.187 1.027 1.573 3.826-.08 7.693-.84 11.186-2.466-4.093-.2-8.213 0-12.213.893Zm-118.693.467c1.946 3 5.893 4.4 6.573 8.213.16 2.52 2.933 2.52 4.787 1.933-2.467-2.32-4.067-5.293-5.88-8.08-1.627-1.106-3.654-1.44-5.48-2.066Zm10.773 13c4.707 5.72 6.933 13.44 13.88 17.053 1.733 2.12 3.173-.12 4.093-1.587-6.026-.626-8.853-6.2-11.56-10.84-2.266-1.386-4.346-3-6.413-4.626Zm399.17 9.413c-1.61-.027-3 3.28-.68 3.187 1.58.013 2.96-3.254.68-3.187Zm4.12 1.573c-.89 1.747 1.12 5.24 3.24 4.107 1.52-1.76-1.28-5.013-3.24-4.107Zm-383.41 4.32c3.96-.546 9.04 1.387 12.173-1.826-2.933-2.574-10.306-2.214-12.173 1.826Zm13.867-3.133c4.44.187-2.094 3.947 0 0Zm4.146-.2c-.586 2.08.24 2.8 2.48 2.2.574-2.08-.253-2.813-2.48-2.2Zm333.707.333c-1.31.587-3.05 3.494-.89 4.04 2.34.32 4.13-5.2.89-4.04Zm-10.87 20.827c-.72 2.187 0 2.947 2.16 2.293.7-2.2-.02-2.96-2.16-2.293Zm38.71-.013c3.96-2.04.15 4.466 0 0Zm-75.87 8.826c.58 1.414 1.16 2.827 1.78 4.24a100 100 0 0 0-.84 4.107c3.37-1.187 6.74-2.547 9.57-4.813-3.47-1.307-6.99-2.467-10.51-3.534Zm-336.703 3.52c-1.52 1.36-.08 5.2 2.106 4.494 1.147-1.44-.106-4.8-2.106-4.494Zm371.163 5.027c4.02-1.787-.14 4.493 0 0Zm-177.6 9.6c4.46.307-2.15 3.88 0 0Zm24.13 12.107c.83.52.83.52 0 0Zm125.13 21c-1.22.946-2.22 2.64-3.96 2.493-8.45.253-16.93.107-25.38-.08-.74-1.44-1.47-2.867-2.19-4.293-2.51-.92-5.69-1.027-7.32-3.414-1.84-2.533-3.8-4.986-6.17-7.026-1.36 1.96-2.82 3.88-3.87 6.026 4.6 2.214 9.23 4.72 12.31 8.96-2.08.027-4.12-.066-6.16-.28-1.92-1.506-3.36-3.52-5.07-5.24.47 1.88 1.08 3.707 1.73 5.547-7.45-.04-14.9-.333-22.34-.067 5.29 22.134 11.58 44.027 17.08 66.107.6 2.6 1.36 5.173 2.49 7.6.65-.76 1.97-2.267 2.64-3.027.52.307 1.56.894 2.09 1.2 3.88-2 8.28-2.413 12.55-1.493 2-1.747 4.23-1.72 4.09 1.427-3.26-.187-4.81 2.746-6.97 4.573-4.51.773-9.24.427-13.48 2.427.29 1.253.61 2.506.95 3.76-.75.12-2.23.36-2.96.48 6.05 2.386 5.44 9.546 3.2 14.52 2.33.226 4.58.813 6.86 1.386.6-3.906-1.85-7.573-2.42-11.4 3.34-1.68 7.13-2 10.65-3.213 4.29-2.32 7.4-6.227 11.39-8.973.94-4.094.86-8.414 2.22-12.387 4.19-2.533 9.94-2.053 13.31-5.933-1.31-.107-3.91-.32-5.2-.427 1.59-.507 3.2-.933 4.85-1.32.58-.427 1.71-1.28 2.28-1.707 2.55-.106 4.99-.8 6.59-2.92 2.01-2.786 5.64-2.4 8.68-2.626-3.96 3.466-8.33 6.986-13.61 8.013-.59 1.453-1.15 2.907-1.68 4.373 3.08-.386 6.33-.746 8.96-2.573 1.17-1.947 1.84-4.4 4.13-5.373-.4 1.613-.79 3.24-1.17 4.853 5.17-2.147 10.69-3.187 16.21-4.04.39-1.8-.2-4.133 1.28-5.547 3.24-1.08 6.73-1.253 10.07-2.093-3.71-4.893-3.12-11.28-5.63-16.68-2.43-5.573 1.75-10.84 4.01-15.68-2.02-6.627-5.2-12.92-6.29-19.8-2.09-3.64-3.73-7.507-5.52-11.28-.35-2.213-.77-4.413-1.21-6.587-7.68 6.88-14.66 14.507-22.02 21.734Zm-43.74-14.627c.76.68.76.68 0 0Zm-81.24 14.52c-1.11 1.36.44 4.533 2.29 3.427 1.24-1.36-.49-4.68-2.29-3.427Zm7.92 6.973c.74.667.74.667 0 0Zm-124.27 1.44c4.48-.026-1.933 4 0 0Zm-16.867 7.72c-.68 2.147.067 2.894 2.24 2.24.68-2.16-.066-2.906-2.24-2.24Zm107.587 4.627c.76.653.76.653 0 0Zm47.96-.28c-.8 2.16-.09 2.92 2.11 2.267.76-2.147.05-2.907-2.11-2.267Zm142.84 3.227c1.72.44 3.01-2.374 2.36-3.787-1.73-.44-3.07 2.373-2.36 3.787Zm-143.93 3.28c-.87 1.96.46 3.64 1.32 5.32 2.36-1.707 2.45-6.014-1.32-5.32Zm33.72 3.786c-.52 1.88.14 2.534 1.98 1.934.5-1.894-.17-2.547-1.98-1.934Zm-12.11 4.04c.56.867.56.867 0 0Zm8.8 8.4c4.44.134-2.07 3.974 0 0Zm10.53 3.774c4.46.413-2.29 3.8 0 0Zm-10.2 3.573c3.88-2.12.24 4.467 0 0Zm-174.93 5.547c-.64 2.146.12 2.933 2.28 2.36.613-2.16-.147-2.947-2.28-2.36Zm121.64 2.853c.6.8.6.8 0 0Zm-125.093 3.187a755.651 755.651 0 0 1-2.374 5.733c.787-.053 2.36-.173 3.134-.227v1.107c-6.64-.107-13.307.72-19.867-.72-3.48 4.547-9.867 6.12-12.493 11.427.68-.227 2.04-.68 2.733-.894l1.44-2.026c2.96-.294 4.92-2.707 7.267-4.28a343.6 343.6 0 0 0 1.226-2.227c7.48 1.307 15.067 1.853 22.64 2.293 1.334-2 3.32-1.066 5.147-.426.827-.627 1.653-1.254 2.507-1.867-5.174-.36-8.2-4.36-11.36-7.893Zm-37.534 9.133c-.12 2.08-.2 4.16-.266 6.253 1.04-.16 3.106-.466 4.133-.613a34.325 34.325 0 0 0-3.867-5.64Zm32.054 4.813c3.733-2.373.52 4.454 0 0Zm13.013.307c-.907 1.653.267 3.92 1.787 4.8 2.386-.48.426-5.773-1.787-4.8Zm-45.253 3.627c-.787 1.853-.214 2.453 1.72 1.786.786-1.853.213-2.453-1.72-1.786Zm238.653 13.226c-.68 2.16.07 2.827 2.25 2.014.67-2.187-.08-2.867-2.25-2.014Zm-51.61 2.707c3.93-2.04.13 4.467 0 0Zm-33.72 9.773c-2.1-.146-2.91 3.56-.35 3.307 2.04.147 2.85-3.587.35-3.307Zm195.16-.493c-.68 1.853-.08 2.6 1.77 2.227.65-1.867.07-2.614-1.77-2.227Zm-161.24 1.72c-.98 4.547-1.83 9.107-2.87 13.627-3.29.253-6.71 1.733-9.88.226-3.55-1.106-6.85-3.266-10.61-3.48.9 2.867 3.98 3.92 6.58 4.774 4.31 1.213 8.54 2.72 12.7 4.413-2.32 10.493-4.36 21.027-6.78 31.507 8.23.346 16.48.36 24.72.2-1.66-8.587-3.8-17.08-5.61-25.64 7.21 2.693 14.17 5.973 20.8 9.906-.92-1.946-1.05-5.333-3.87-5.48-3.06-.453-6.01-1.613-6.21-5.16-2.55.534-5.29 1.747-7.56-.16-7-5.693-5.79-15.56-8.76-23.253-.67-.373-1.99-1.107-2.65-1.48Zm-39.56 3.427a352.073 352.073 0 0 1-4.08 4.2c1.69 1.053 3.38 2.08 5.12 3.106-.39-2.44-.72-4.866-1.04-7.306Zm5.08 5.693c-.62 2.12.17 2.827 2.38 2.133.58-2.146-.21-2.853-2.38-2.133Zm77.04-.373c-.47 3.24-.74 7.333 3.58 7.773 1.35-3.08-1.57-5.827-3.58-7.773Zm-15.18 6.826c-.58 2.16.19 2.934 2.32 2.334.58-2.187-.2-2.96-2.32-2.334Zm18.67 6.734c-.53 2.693-.8 5.44-1.13 8.16 2.13-2.094 3.56-4.72 4.46-7.547-.96-1.093-2.14-1.547-3.33-.613Zm118.97 1.76c-1.8.32-2.29 3.773-.2 4 1.9-.227 2.4-3.947.2-4Zm-206.57 1.173c3.96-2 .05 4.48 0 0Zm79.31 4.627a117.034 117.034 0 0 0-5.7 3.16c3.39-.28 6.59-1.427 9.6-2.974-.92-1.133-1.82-2.253-2.72-3.373-.29.8-.89 2.387-1.18 3.187Zm-88.44 1.76c.49 4.16-2.23 10.053 1.44 13.04-.64-4.2 1.74-9.667-1.44-13.04Zm104.04 13.613c-.34-3.32.7-7.813-2.12-10.213-1.92 3.453-1.35 8.026 2.12 10.213Zm-75.32-3.867c3.46-2.76 1 4.36 0 0Zm-141.257 3.04c-1.266 1.6-1 2.547.787 2.84 1.24-1.613.973-2.56-.787-2.84Zm201.217 2.214c-1.68 1.013-1.66 1.946.08 2.813 1.65-1.027 1.62-1.96-.08-2.813Zm-205.563 1.746c-1.334 1.227-.134 4.694 1.84 4.014 1.173-1.267.026-4.44-1.84-4.014Zm204.133 10.64c-1.55 1.24.29 4.48 2.11 3.187 1.38-1.293-.31-4.44-2.11-3.187Zm-4.84 5.014c-1.31 2.72 1.23 5.88 3.49 7.32-1.09-2.28-.61-6.374-3.49-7.32Zm-70.73 2.706c-1.39 1.32.42 4.347 2.24 3.294 1.42-1.334-.46-4.414-2.24-3.294Zm56.9 1.654c-.65 1.866-.02 2.506 1.87 1.92.61-1.867-.01-2.507-1.87-1.92Zm36.18 2.28c3.81-2.24.34 4.466 0 0Zm-61.83 6.226c-5.72 1.96-6.91 7.907-8.09 13.094 3.69-.64 4.08-4.32 3.89-7.36 2.87-2.774 6.17-5.107 8.8-8.134-2.01-.2-3.41.974-4.6 2.4Zm24.41 2c-1.68 1.387.79 4.094 2.47 3.027 1.53-1.4-.83-4.04-2.47-3.027Zm-47.7.64c-.75 1.64 1.38 4.16 3.1 3.494.75-1.614-1.34-4.507-3.1-3.494Zm87.38 1.974c4.44-.04-1.89 4.04 0 0Zm-46.06 4.933c-.58 2.213.18 3.013 2.26 2.387.56-2.24-.18-3.04-2.26-2.387Zm51.81 11.053c-.71 2.187.01 2.947 2.16 2.28.69-2.2-.03-2.946-2.16-2.28Zm-19.99 13.614c-.88 1.866 1.66 4.72 3.63 3.866.73-1.8-1.85-4.413-3.63-3.866Zm3.98 8.706c-.76 2.12-.03 2.827 2.2 2.107.74-2.133 0-2.84-2.2-2.107Zm3.93 5.56c.85.547.85.547 0 0Z"/><path d="M1143.33 0h16.38c13.4 12.933 26.38 26.307 39.58 39.453 1.31 1.16 2.68 2.68 4.64 2.48 6.58.294 13.15-.053 19.74.094-.48 5.6-1.84 11.466.41 16.866 2.96 7.334 3.67 16.427-.81 23.294-2.5 3.893-3.39 8.44-4.04 12.946-3.55-3.013-6.83-6.306-10.03-9.666-18.85-18.92-37.91-37.64-56.63-56.68-4.12-5.094-11.3-2.44-16.9-3-1.04-2.774-2.07-5.56-3.08-8.347 3.36-2.587 5.5-6.133 5.36-10.48 1.76-2.333 3.57-4.64 5.38-6.96ZM986.067 42c4.186-4.067 7.96-8.6 12.613-12.16 6.76 3.187 13.43 6.507 19.21 11.333-.08 1.747-.14 3.507-.2 5.254-.72.88-2.16 2.64-2.89 3.52a145.57 145.57 0 0 1-2.21-1.96c-.52.48-1.55 1.44-2.07 1.906.69.72 1.39 1.44 2.11 2.16-4.96 3.947-9.02 8.827-13.737 13.014-11.64-4.88-17.92-16.694-28.493-23.08 5.213-.04 10.44.026 15.667.013ZM321.427 42.253c12.84-.573 25.693-.093 38.546-.266 4.534.08 9.107-.374 13.6.346 3.107 4.147-2.106 9.64.6 14.08 2.467 4.6 3.827 9.627 5.387 14.574 1.92 6.36-.4 13.013.467 19.466 4.746 6.24 8.333 13.56 8.986 21.467-.053 2.253 1.347 3.973 2.76 5.573 1.44-6.12-.76-12.066-4.493-16.866.787-.547 2.347-1.627 3.12-2.174-2.467-3.213-5.787-5.56-8.693-8.32.346-3.613 1.32-7.146 2.173-10.666l-1.04-3.48c.28-.667.867-2.014 1.16-2.68a428.138 428.138 0 0 1-5.387-9.254c1.027-.84 2.067-1.666 3.107-2.506-2.747-1.48-4.907-3.787-5.92-6.774-1.773-2.906.947-5.72 1.947-8.373-.614-1.48-1.24-2.96-1.854-4.44 31.28.227 62.56-.267 93.84.253-.013 6.96-.053 13.92.067 20.88-1.413.734-2.813 1.454-4.213 2.174 1.52 3.506 4.066 6.786 4.093 10.76.187 4.866.147 9.733.04 14.6.28 3.746-2.453 6.6-4.293 9.546-12.84-.013-25.667-.16-38.494.094.054 10.8-.066 21.613.094 32.413-5.147-2.067-11.614-1.373-15.24-6.267-3.4.547-6.427-.52-8.694-3.106-2.186-.12-4.36-.267-6.533-.414 1.373-1.133 2.76-2.24 4.147-3.373-2.32-.04-4.6.267-6.84.72.6.96 1.813 2.893 2.426 3.853-.106.787-.293 2.374-.386 3.16 3.84.494 7.693 1.174 11.36 2.507.8-.08 2.4-.253 3.2-.333 4.706 3.426 10.4 4.44 15.973 5.546.373 1.64.547 3.32.56 5.014-.053 32.586-.133 65.186 0 97.786-.573.574-1.72 1.734-2.293 2.307l2.346 2.293c-.133 5.107-.213 10.2-.146 15.307.8-1.507 1.573-3.027 2.346-4.533.667.373 2 1.106 2.667 1.48 2.08-2.2 4.133-4.414 6.24-6.6.88-2.747 1.933-5.427 3-8.107.52-2.307.067-5.507 2.507-6.813 2.293-.667 4.68-.8 7.026-1.134l2.694 2.694c.586-.667 1.773-2.014 2.36-2.68.693.333 2.093.986 2.786 1.306 3.04-.8 6.134-1.4 9.254-1.893a150.473 150.473 0 0 0-3.32-8.027c5.186-2.68 10.826-5.106 14.373-9.986 2.36-2.6 3.093-6.387 5.6-8.814 3.173.294 6.48 2.32 9.613 1.04.16-.906.494-2.72.654-3.626 2.466.12 4.933.266 7.4.413l1.173-3.16c1.12-.693 2.227-1.373 3.36-2.053-.467-2.64-.947-5.28-1.413-7.907 5.813-3.347 11.893-6.227 18.346-8.093l.96-4.8c3.187 1.466 1.307 4.56.64 6.973-6.68.667-12.8 3.747-16.533 9.427.347 1.973.627 3.946.813 5.946-1.386 2.427-3.453 4.36-5.28 6.44-2.306.147-4.6.32-6.893.52 5.147 4.04 11.52 5.734 17.693 7.467l2.4 2.72c1.387-.253 2.787-.52 4.187-.787 2.013-2.186 4.36-4.013 6.56-6.026.787-4.974.28-10.054.547-15.067 7.146 2.813 14.826 3.72 22.093 6.173 3.347 1.507 8.573.027 8.827-4.133-2.414 1.067-4.774 3.427-7.587 2.173-7.72-2.386-15.733-3.546-23.547-5.533.04-30.827.2-61.667-.093-92.493-14.28-.214-28.573.213-42.853-.24-.067-15.787-.04-31.587-.014-47.374 5.28 1.667 10.56 3.454 16.107 4.014 6.667.4 11.72 5.613 18.347 6.333 8.533 2.72 17.453.96 26.08-.2-6.907-5.573-16.32 2.213-23.587-2.373-4.187-2.334-8.747-3.814-13.133-5.694-7.36-3.386-15.6-3.813-23.28-6.146-.854-1.974-.48-4.227-.747-6.307 15.493-.427 30.987-.133 46.493-.173 3.867 5.026 9.934 7.693 13.827 12.64 2.093 4.52.627 10.306 3.973 14.386 3.107 3.04 8.027 3.107 11.12 6.187 3.054 2.68 4.254 7.173 8 9.08 3.467.973 7.147.493 10.667.147-4.44-2.64-10.413-1.294-14.027-5.507 5.694.8 11.68 1.08 16.64 4.307 3.107 2.133 7.614 2.826 9.8-1.027-1.613.507-3.2 1.04-4.786 1.587-4.454-2.04-8.627-5.094-13.667-5.467-3.333-.387-6.507-1.493-9.493-2.973a53.508 53.508 0 0 0 1.413-4.574c-1-.906-2.04-1.786-3.107-2.626-3.4-4.64-8.28-7.827-12.026-12.134.12-1.013.373-3.04.506-4.053-2.88-2.307-6.12-4.04-9.52-5.413-.773.213-2.32.653-3.093.866-1.16-1.826-2.32-3.653-3.48-5.466 28.507 0 57 .133 85.493.093 2.894-.76 4.04 1.92 5.2 3.96-.026-1-.066-3.013-.093-4.013 1.213.24 3.653.746 4.88.986.933-.293 2.787-.906 3.72-1.2.013 17.814.12 35.614.093 53.427-.96.027-2.88.093-3.84.12a1172.78 1172.78 0 0 1 4.827 3.933c-14.48 1.96-29.2.2-43.773.974-.174 30.013.306 60.04-.254 90.053 2.214-4.2 5.067-7.987 8.16-11.573-1.093-.8-2.173-1.587-3.253-2.374 3-2.986 6.933-3.853 11-2.733 4.347-1.24 8.88-1.467 13.387-1.467.813-1.053 1.653-2.106 2.48-3.16 4.066.56 8.08 1.48 12.16 2.027 5.453.8 10.626-1.56 15.626-3.373.027-2.16.067-4.307.107-6.454.893-.253 2.667-.76 3.56-1.013-4.667-4.893-3.747-11.693-3.56-17.88 2.12-.187 4.267-.373 6.413-.56-2.6-2.84-6.973-5.267-6.48-9.707-.026-28.493.067-56.986-.026-85.48 1.413-1.733 2.826-3.466 4.253-5.213 5.787 3.493 11.2 7.64 17.32 10.587 3.893 1.853 7 5.013 10.947 6.786-2.254-2.72-4.934-5.093-7.987-6.866-5.053-2.774-9.333-6.667-14.147-9.787 18.374 0 36.76.027 55.147-.08.573 12.507.08 25.04.307 37.573-.64-.72-1.894-2.146-2.534-2.866-2.146.64-4.28 1.28-6.413 1.933 2.893 1.053 5.867 1.96 8.853 2.773.134 41.054-.013 82.107.067 123.16 4.333-1.613 8.587-3.426 12.973-4.893-1.573 5.693-8.426 6.32-13.026 8.467.013 2.133.053 4.28.12 6.413 4.826.133 9.48-2.16 14.306-1.253 7.427 1.253 15.067.773 22.387 2.733 4.72-2.253 10.027-1.507 15.08-1.6 4.827.067 9.68-.267 14.493.28.374 1.72.52 3.493.774 5.24 3.96.667 7.906 1.427 11.84 2.28a676.821 676.821 0 0 0-3.027 3.52c-3.067.2-6.107.44-9.147.76 0 13.627.067 27.253-.026 40.88-1.867-2.373-3.667-4.8-5.774-6.947.64 4.027 3.76 6.774 5.587 10.214.333 2.453.28 4.933.36 7.413-4.707.093-9.4.173-14.08.333 1.16-1.92 2.32-3.84 3.467-5.76-3.174 1.947-5.734 5.72-9.787 5.587-18.68.04-37.36-.053-56.053.04-3.414.173-7.294-.787-9.24-3.84-.894-2.187.266-4.56.426-6.787-.226-.88-.653-2.64-.88-3.52.347-5.026 1.107-10.053.627-15.093-3.387 1.8-6.68 3.827-9.493 6.453 3.266 7.44 6.853 14.96 7.053 23.267-2.453-.547-4.813-1.333-6.933-2.64l1.613-.653c-.147-2-.267-4-.373-6l-1.454-.214c.134 3.294.187 6.6.174 9.907-3.974-3.667-2.627-10.32-7.387-13.307.707 4.187 2.173 8.187 3.533 12.2-11.226.347-22.466.147-33.706.16-.414-12.4-.094-24.813-.227-37.213 2.72-.72 5.467-1.347 8.12-2.28 1.36-1.2-.387-2.693-.653-4-2.52-.773-5.014-1.667-7.494-2.533.16-5.44.267-10.934-.68-16.307.334-2.467.654-4.92.947-7.373-1.48-1.36-2.947-2.72-4.387-4.08l3.04-1.92-1.706-2.614c4.986-9.026 2.146-19.693 2.733-29.493-2.96 1.32-5.813 3-8.987 3.747-4.893.453-9.76-.787-14.64-.44-2.08.493-1.906 3.213-2.773 4.746-3.053.44-6.107 1.054-8.92 2.36a106.219 106.219 0 0 1-8.813-3.16c-2.507 5.814-6.787 10.56-9.574 16.2-1.813 1.254-4.2 2.054-5.306 4.067-.667 5.28-.16 10.627-.187 15.92-2.2-.467-4.373-.947-6.587-1.293-.746-.734-1.48-1.48-2.213-2.214-.387 1.2-1.147 3.574-1.533 4.774 3.626 2.026 10.866 1.893 10.28 7.52-.08 18.546.16 37.106-.187 55.653-10.987.507-22.213-1.32-33.04 1.08l-1.813-1.12c-9.16-.053-18.307.093-27.454-.107-.133-20.346.147-40.706-.146-61.053a724.32 724.32 0 0 0-7.08 2.04c-6.027-1.867-11.96-4-17.854-6.2-4.666-.733-9.813.227-13.56-3.413-1.493 1.52-2.88 3.16-4.04 4.946-3.333 3.187-6.226 6.814-9.773 9.787-1.907 1.747-4.093 3.613-4.507 6.32.56 3.12 1.587 6.12 2.28 9.213-2.306-1.386-3.92-3.48-5.026-5.88a34.83 34.83 0 0 1-6.08 4.734c-.774-.654-2.32-1.974-3.094-2.627-.626.253-1.88.773-2.506 1.027-4.507-.76-9.56-.92-12.6 3.12-.68 6.706-4.374 12.773-9.547 16.96-1.547-.16-3.067-.4-4.613-.374-4.6 5.4-3.414 12.814-3.414 19.347 14.587.293 29.174.027 43.747.16 2.24-3.213 4.533-6.453 6-10.107 1.36-3.56 1.293-7.453 2.48-11.053 1.2-2.56 2.987-4.787 4.587-7.12a302.529 302.529 0 0 1-2.16-4.24c2.04-.573 4.08-1.16 6.133-1.733-.8 3.48-1.173 7.066-2.213 10.493-1.84 3.347-5.427 5.973-5.36 10.133-.12 4.787-1.68 9.294-3.934 13.48l5.187.374c-1.92 8.253-1.947 16.773-1.56 25.2-8.12.573-16.253.373-24.373.173-3.52 4.133-6.174 9.653-11.574 11.627-5.706 2.106-11.52 3.933-17.28 5.906.347-.88 1.027-2.64 1.374-3.52-4.174-.146-8.347-.133-12.507-.533 2.413-2.12 5.6-2.213 8.64-1.813 7.04.8 14.04-1.16 20.52-3.72 3.16-1.987 5.44-5.067 7.973-7.747-11.773-.093-23.56.013-35.333-.093-5.373-.374-10.507 2.853-15.867 1.453-7.413-2.173-15.186-1.36-22.8-1.387-2.346-.28-4.133 1.267-5.933 2.48 3.293 2.054 7.147 3.92 8.227 8.014-3.574-1.56-6.947-3.534-10.28-5.52-2.64 2.6-5.294 5.2-7.947 7.786-1.453-3.586-2.48-7.64-5.733-10.093.76 4.2 3.133 8.253 2.6 12.6-2.427 3.813-6 6.72-9.254 9.8-2.346.333-3.986 1.707-4.76 3.973-1.146-1.493-2.32-3-3.466-4.466a47.15 47.15 0 0 0-4.32 7.4c2.173-.454 4.36-.92 6.546-1.387-10.733 12.16-22.76 23.16-34.133 34.707.173-1.92.36-3.827.56-5.747.653-.8 1.96-2.4 2.613-3.213l-2.973-.854c-3.227 4.76-6.48 9.827-7.133 15.694.013 2.653-3.12 3.04-5.067 3.72-3.013 1.053-5.96-.747-8.787-1.56-1.146 2.426-2.506 4.986-1.693 7.746 1.08-2.066 2.2-4.106 3.387-6.12 1.973 1.187 3.96 2.36 5.96 3.534-.107 12.573-.4 25.173.413 37.72 2.013-1.227 4.013-2.467 6.027-3.68 4.12 4.2 10.093 1.88 15.16 1.6 3.52-3.734 7.08-7.44 10.32-11.427-.427 1.667-1.294 5.027-1.72 6.693 2.453-2.28 5.44-4.986 4.573-8.693.547.12 1.627.387 2.173.52-.533.893-1.586 2.667-2.106 3.547 5.546-1.56 10.906-5.92 16.946-4.294-2.213 1.52-4.546 2.88-6.88 4.187.04.653.147 1.973.2 2.627-4.64 3.853-10.226 5.853-16.173 6.52-.947-.374-1.907-.747-2.853-1.12-.96 1.28-1.894 2.56-2.84 3.84-3.4-.094-6.787-.094-10.16-.08 1.253 1.133 2.506 2.266 3.746 3.413a57.527 57.527 0 0 1-9.626-2.88c-2.427.507-4.84.987-7.254 1.467.027 2.84.067 5.693.134 8.546 6.293.067 12.653-.133 18.72-2.026 8.56-2.827 17.653-.52 26.453-1.307.813.427 2.427 1.293 3.24 1.733 1.6-.946 3.213-1.866 4.8-2.813-.613.96-1.227 1.92-1.827 2.893 1.147 1.28 2.294 2.56 3.44 3.854 7.667-2.694 15.667-.56 22.8 2.573 4.654-1.667 9.254-4.253 14.4-3.667 5.36-.333 9.147 3.854 12.734 7.187-3.32-1.4-6.374-3.453-9.907-4.253-6.613-1.32-12.627 3.426-19.24 2.4-5.667-.614-11.373-.387-17.04.066-.067-.546-.213-1.64-.293-2.2-.44.614-1.334 1.827-1.774 2.44-10.253-2.4-21.106-2.786-31.386-.306-8.134 2.946-16.827.693-25.2.573-.12 18.6-.387 37.173-.04 55.76 25.386 25.36 50.76 50.72 76.08 76.12 1.453 1.507 3.226 2.8 5.453 2.493 35.133.147 70.28-.333 105.4.254 2.813-.2 4.933-2.307 7.267-3.654 3.853-5.453 8.88-9.893 13.586-14.573.92 4.213 2.36 8.293 4.027 12.267.733.106 2.187.293 2.92.4-.147 2.013-.32 4.04-.52 6.066-1.427-2.08-2.52-4.4-3.6-6.653-1.947 3.813.947 7.2 2.64 10.427 1.52 1.12 3.027 2.253 4.533 3.426-3.986 4.36-8.186 8.52-12.48 12.56-.533-2.893-1.106-5.786-1.773-8.64-2.507 4.2-.12 9.227-2.093 13.587h-133.24c-17.494-17.04-34.574-34.52-51.894-51.733-9.933 5.76-21.253 8.373-32.6 9.386-.84-2.16-1.44-4.413-1.866-6.68a630.21 630.21 0 0 1 4.813 3.32c-.973-2.373-2.427-4.453-4.16-6.293-.173-3.053-.573-6.093-.427-9.147 1.52-2.413 3.987-4.013 6.094-5.853.146-.8.413-2.413.546-3.213.547-.547 1.667-1.64 2.227-2.187-.053-2.187-.107-4.373-.147-6.547.76-.32 2.28-.986 3.04-1.32-.066-1.96-.12-3.92-.16-5.866 1.08.013 3.267.013 4.347.026.32-2.52 1.32-5.253-.067-7.626-2.026-3.174-.173-6.734.534-9.987-5 1.84-6 7.267-6.894 11.867-.493 4.533-2.293 8.786-3.786 13.053-.494 1.867-2.694 2.293-4.014 3.373.76 1.107 1.52 2.214 2.28 3.334-2.08 1.986-4.133 3.986-6.213 5.96a426.05 426.05 0 0 1-.347-4.054c-5.186 1.24-9.48-2.48-13.866-4.586-1.707.866-3.414 1.72-5.12 2.6 5.413 4.16 11.4 8.026 18.52 7.906-5.64 6.48-1.494 15.147.2 22.36l-7.814.08c-.933-.786-1.88-1.573-2.813-2.346.107-.907.333-2.707.44-3.6-2.187-4.36-2.4-10.36-7.6-12.4-.187-1.907-.853-3.627-2.507-4.72.027 1.826.067 3.666.147 5.52 2.88 5.226 8.213 11.44 5.253 17.6-28.213-.294-56.44.24-84.653-.267.187-39.72-.04-79.44.107-119.16-4.254-.627-8.627-1.627-12.92-.64-5.52 1.293-11.387 1.507-16.467 4.253-6.187-1.36-10.933-5.52-15.787-9.28-1.253.8-2.493 1.614-3.733 2.427-7.36-2.173-14.573-5.92-22.453-5.307-4.214.387-9.24-.04-11.667-4.053 6.96.307 13.84 1.507 20.813 1.613 4.24-.133 8.387 1.774 12.6.8 4.2-.866 8.48-.04 12.72-.04 4.014-1.826 8.16.307 12.227.707-1.2.987-2.413 1.973-3.613 3 4.346.773 7.813-1.827 10.72-4.68a455.712 455.712 0 0 1 3.986 3.36c-1.786 1.467-3.426 3.413-5.866 3.72-5.694 1.987-11.054-2.92-16.8-.973-.28-.867-.854-2.587-1.134-3.454-1.293 1-2.573 2-3.853 3 4.027 2.827 8.973 7.534 14.027 4.04 5.453-.306 12.133.814 15.813-4.266 3.827.573 7.64 1.12 11.467 1.706-.107-5.426-.134-10.853-.187-16.28-5.6-1.693-11.067-3.826-16.68-5.466-2.373 1.8-4.6 3.933-7.387 5.106-3.973 1.44-8.28.68-12.386.427 3.293-2.627 7.546-2.347 11.48-2.88 3.4-1.653 6.16-4.467 9.786-5.707 4.827-1.88 8 3.387 11.774 5.414 1.373-1.854 3.853-3.36 3.493-5.987.013-29.067-.093-58.133.053-87.187 5.08-.133 10.174-.133 15.254.067-.347 6.053-1.627 12.013-3.094 17.893 8.48 2.294 17.227 3.227 25.987 3.6 1.2 1.667 2.413 3.334 3.613 5.014-.653 2.266-1.24 4.56-1.76 6.88 3.28 3.6 5.72 8.293 10.667 9.853-.653 2.72-1.32 5.44-1.933 8.173 1.973 2.44 3.093 5.374 4.173 8.307-.413.453-1.213 1.347-1.613 1.8.28 1.827.546 3.667.813 5.507 1.053-.16 3.16-.454 4.213-.614-.4-4.706-2.253-9.333-1.12-14.08a342.99 342.99 0 0 0-2.306-3.626c.6-2.854 1.186-5.707 1.746-8.56-.853-.147-2.56-.427-3.413-.574-1.933-3.173-4.093-6.213-6.867-8.693.4-2.64.88-5.253 1.48-7.84-1.546-1.533-2.813-3.64-5.026-4.24-7.227-2.213-15.347-2.12-21.8-6.427.68-4.213 1.733-8.346 2.506-12.546 15.68.026 31.347 0 47.014.026 12.493-.6 25.053.387 37.4 2.254 2.573.706 6.346.6 7.32 3.693.213 2.947.013 5.907.106 8.867 1.467-3.267 1.734-6.867 2.254-10.347 6.466 1.76 12.56 4.6 18.306 8.013 8.094-8.16 16.307-16.2 24.254-24.493-4.654-3.813-11.36-5.933-14.054-11.613 4.52 1.466 7.654 5.133 11.52 7.626 8.134.52 13.32-6.626 18.56-11.693.347 4.733 1.56 10.107 6.867 11.453-2.387-4.253-4.587-8.693-4.853-13.666 3.813-3.614 7.466-7.4 11.213-11.08.147-25.134.04-50.267.067-75.4 1.12-1.307 3.066-2.294 2.973-4.267.413-4.4.72-8.813 1.52-13.16-.48-1.36-.96-2.72-1.427-4.067 1.254-4.933 3.227-9.88 3.067-15.026-.44-1.8-.413-5.974-3.28-3.974-.493 9.014-1.707 18.134.12 27.08.613 2.16-2.187 3.16-3.12 4.72-.013-30.933.387-61.88.067-92.813-14.24-.2-28.48.133-42.707-.187-.013-6.013-.013-12.026-.107-18.04 6.52.6 12.214 4.054 18.507 5.507-5.187-4.52-11.613-7.267-18.453-7.947.013-12.426.146-24.853-.08-37.28Zm103.253 2.574c.467 2.933.28 5.906.467 8.853 1.12 2.987 2.826 5.933 2.413 9.253.28 2.694-1.387 6.347 1.44 8.134 7.08 4.2 15.067 6.826 22.04 11.213 4.133 3.907 8.107 8.093 13.373 10.533-.613-2.24-.053-5.453-2.453-6.773-2.573-1.373-5.533-2.28-7.147-4.92-3.093-4.28-7.746-7.093-13.133-6.893-3.64-2.814-8.333-3.814-12.12-6.187-.667-3.533-.613-7.16-.307-10.72-.893-1.44-1.786-2.88-2.68-4.307.387-1.253.8-2.493 1.214-3.746-.814-1.627-1.374-3.547-3.107-4.44ZM685.187 58.88c-.414 2.08.48 2.8 2.706 2.187.4-2.067-.493-2.787-2.706-2.187Zm-182.68 3.04c-1.707 2.053 3.12 4.773 3.893 2.213-.12-1.72-2.36-3.08-3.893-2.213Zm193.466-.027c-.52 1.814.174 2.467 2.067 1.947.507-1.813-.187-2.467-2.067-1.947Zm-324.96 3.614c3.787-2.267.427 4.48 0 0Zm49.814 8.813c1.773.933 3.826 2.64 5.906 1.413.947-.853.374-2.133.387-3.213a311.249 311.249 0 0 0-6.293 1.8Zm281.96.2c-.107 2.52.506 5.4 3.16 6.373 1.986-2.32-1.694-4.746-3.16-6.373Zm-283.12 4.933c2.946 3.92 1.24 9.427 4.293 13.094.227-2.8.507-5.627.36-8.44.08-2.587-3.08-3.294-4.653-4.654Zm206.92 6.12c2.973-.293 2.973-3.52 3.773-5.72-2.84.387-3.013 3.574-3.773 5.72Zm64.506-1.733c-1.253.627-2.453 3.453-.493 3.92 2.587.347 3.8-5.307.493-3.92Zm4.774 1.013c1.76 1.72 4.733 2.054 5.88-.6-1.974.12-3.934.32-5.88.6Zm-354.2 2.294c-1.08 1.786 1.96 3.693 3.36 2.386 1.04-1.8-1.974-3.6-3.36-2.386Zm264.72.106c2.04 1.6 4.56 2.347 7.04 2.987-1.28-2.84-4.094-3.933-7.04-2.987Zm-221.12 1.014c1.693 2.24 3.986 5.666 7.066 3.533-2.2-1.453-4.44-2.96-7.066-3.533ZM617.48 89.8c-1.68 1.4.827 4.027 2.467 2.893 1.626-1.4-.84-4.026-2.467-2.893Zm7.88 2.24c-.733 2.147 0 2.893 2.187 2.227.693-2.16-.027-2.907-2.187-2.227Zm-249.213 1.893c-.334 1.894.413 2.574 2.226 2.04.307-1.893-.426-2.573-2.226-2.04Zm206.746-.093c-.946 1.613-.306 4.24 1.36 5.147 2.64-.534 1.24-6.307-1.36-5.147Zm-17.746 15.227a362.03 362.03 0 0 0 4-2.64c.386-1.774.786-3.547 1.133-5.334-3.253 1.374-4.067 4.974-5.133 7.974Zm-3.694-3.987c-.706 2.16.014 2.933 2.16 2.32.72-2.173 0-2.947-2.16-2.32Zm.627 5.747c-.667 1.866-.067 2.493 1.827 1.92.666-1.88.053-2.52-1.827-1.92Zm-21.76 2.88c-1.853.88-1.96 1.786-.32 2.72 1.84-.88 1.947-1.787.32-2.72Zm9.16.173c-1.947 2.107 1.933 3.88 3.093 1.773 1.747-2.08-1.933-3.8-3.093-1.773Zm119.787 5.013c4.48-.24-1.68 4.094 0 0Zm-294.28 2.947c-.507 2.16.32 2.853 2.466 2.067.507-2.147-.32-2.827-2.466-2.067Zm11.946 7.613c-1.746 1.294-.013 4.987 2.014 3.28 1.826-1.253-.014-5.053-2.014-3.28Zm-13.4 2.987c-.693 2.12.054 2.88 2.267 2.28.667-2.12-.08-2.88-2.267-2.28Zm17.88 3.667c-.666 4.293-3.426 7.786-4.746 11.84-.534 3.893-1 7.8-1.454 11.706.48-.48 1.44-1.44 1.934-1.906 1.56-6.8 1.506-15.187 7.933-19.6.027-2.494-.013-4.987-.12-7.467-1.933 1.253-3.253 3.133-3.547 5.427Zm267.64 6.133c4.014 3.6 9.534 5.44 12.92 9.733 1.68 3.894 3.894 7.507 5.96 11.214.907 4.466-.706 9.28 1.374 13.56.133 10.72 4.44 20.786 5.84 31.32-.774 1.893-2.027 3.546-3.107 5.266a139.24 139.24 0 0 1-.307 10.814c1.294.053 3.907.146 5.2.186.2-4.426-.266-8.96 1.147-13.226.76-.294 2.28-.867 3.027-1.147-.32-4.52-.027-9.213-1.947-13.44-1.067-8.173-7.053-14.8-6.6-23.293.88-2.2 1.8-4.387 2.76-6.547-3.813-5.227-7.2-10.8-9.187-17-4.346-2.64-7.746-6.613-12.2-9.04-1.746-.053-5.786-1.547-4.88 1.6ZM366.84 152.28a120.332 120.332 0 0 1 4.587 5.413c3.826-2.12 7.586-4.626 12.146-4.706l1.174-2.547c-5.907.96-11.894 3.093-17.907 1.84Zm186.467 4.093c-.934 1.814 1.453 5.44 3.546 4.6.8-1.986-1.386-5.08-3.546-4.6Zm4.026 7.374c.36 2.813.76 5.626 1.094 8.453 4.04-2.28 1.626-6.293-1.094-8.453Zm27.187 2.8c4.027-1.84-.067 4.493 0 0Zm-23.267 13.533c4.454.24-2.12 3.92 0 0Zm-6.346 7.04c.933 2.44.56 6.133 3.68 6.92-.614-2.427-1.307-4.84-1.96-7.253-.427.08-1.294.253-1.72.333Zm3.066 14.333c-1.106 1.507-.04 4.307 1.974 4.294 2.573-.867.346-6.214-1.974-4.294Zm5.427 7.347c4.547 2.6 10 6.493 15.413 4.347 2.867-2.88-2.146-2.36-3.786-1.72-.494-.654-1.48-1.974-1.974-2.627-.76.333-2.28 1-3.053 1.333-1.88-1.52-4.48-4.013-6.6-1.333Zm-.52 6.4c-1.933 1.267.053 4.893 2.067 3.227 1.893-1.294-.08-4.774-2.067-3.227Zm159.067 17.253c-2.88-1.453-5.854-2.666-8.814-3.88-1.88 2.227-3.733 4.574-4.213 7.547-.387.293-1.147.893-1.533 1.187-.654 2.92-3.574 3.106-5.867 4.066-.293 2.614-.8 5.174-2.747 7.094 3.72-2.107 7.094-4.8 9.614-8.294 1.44-2.066 4.386-.386 6.373-.76-.747-.773-2.213-2.346-2.96-3.133 1.213-1.24 2.507-2.4 3.813-3.56 2.787 1.067 5.72 1.747 8.734 1.72 1.853-6.173 5.4-11.52 8.76-16.933-5.854 2.866-6.44 10.706-11.16 14.946Zm-152.334-9.52c-2-.04-2.8 3.64-.36 3.52 1.96.027 2.76-3.653.36-3.52Zm90.48-.626c.974 2.133 2 4.24 3.014 6.36-2.04-.92-4.067-1.84-6.2-2.467 2.706 4.893 8.253 6.72 12.573 9.84a397.965 397.965 0 0 1 3.293-3.453c-1.573-1.454-2.173-3.467-2.773-5.427-3.12-1.96-6.427-3.64-9.907-4.853Zm20.107 6.746c-.56 4.88-3.853 8.174-7.8 10.68 4.747 3.334 9.56 6.6 13.973 10.374 3.027-2.08 6.56-3.894 8-7.52a730.496 730.496 0 0 1-3.12-3.427c-.493.533-1.453 1.613-1.946 2.147-2.507-1.374-4.64-3.934-5.68-6.614.506-1.88 1.253-3.68 1.946-5.493-1.8-.053-3.586-.107-5.373-.147Zm-279.827 3.374c-.906 2.293 4.374 3.773 4.734 1.226-.734-1.68-3.267-2.106-4.734-1.226Zm13.387 2.52c-2.387.333-1.16 3.866.947 3.106 2.453-.373 1.173-3.893-.947-3.106Zm317.413 1.626c-1.146 1.934 1.814 4.747 3.72 3.467 1.294-1.987-1.893-4.6-3.72-3.467Zm-167.533.547c-.653 2.12-1.293 4.24-1.947 6.36.467.133 1.387.387 1.854.52.12-2.173 3.32-5.867.093-6.88Zm184.84 3.147c-1.027 1.68 1.707 4.026 3.067 2.373.96-1.68-1.747-4.067-3.067-2.373Zm13.28.533c1.84 3.427 4.453 6.44 7.68 8.64-1.24-3.827-4.093-6.893-7.68-8.64Zm15.72 15.733c4.44-.506-1.533 4.214 0 0Zm-106.56 6.2c-.52 3.2 2.987 2.96 5.133 3.52-1.373-1.626-3.253-2.64-5.133-3.52ZM470.84 297.24c.693.333 2.08 1.013 2.773 1.347a241.831 241.831 0 0 0-.96-5.64c.174-1.32.334-2.627.507-3.934-2.613 2.12-3.787 5-2.32 8.227Zm-137 36.2c-.787 1.92-.227 2.52 1.653 1.8.787-1.933.227-2.533-1.653-1.8Zm-9.72 1.813c1 1.36 1.64 3.6 3.747 3.507 1.733-.267 3.106-1.453 4.6-2.293-2.787-.427-5.56-.84-8.347-1.214Zm-35.48.44c2.32 5.814 6.733 10.587 8.16 16.787 1.133 4.613 4.187 8.84 9.173 9.64-1.76-3.84-6.533-5.587-7.16-10.12-1.04-5.547-4.306-10.16-6.506-15.253-.92-.267-2.747-.787-3.667-1.054Zm29.453 15.587c-2.253 1.413-4.453-.6-6.546-1.253-.627 5.533 6.053 3.32 9.466 4.066 1.014-2.24 3.147-4.293 2.374-6.986 1.213-.574 2.426-1.134 3.64-1.72-1.16-1.614-2.227-3.307-3.254-4.987-2.973 3.12-1.586 8.853-5.68 10.88Zm-78.333 16.44c-2.28 4.24-1.96 9.067-1.813 13.72 6.2-2.107 11.946-5.253 17.92-7.907 2.226-1.013 2.853-3.506 3.773-5.533-6.627-.44-13.253-.36-19.88-.28Zm16.267 10.413c-5.494-.066-9.187 4.547-14.4 5.307-1.334 1.827-3.76 3.32-3.694 5.813-.106 6.48.04 12.96.227 19.44 7.787-.346 15.76.854 23.413-.933 4.734-1.013 7.6-5.72 7.68-10.347.4-7.133.627-14.36-.266-21.453-.454-3.787-3.947-5.853-6.8-7.787-2.014 3.294-3.36 7.374-6.16 9.96Zm22.666 7.587c.894 4.373 3.72-1.187 5.134-2.68-2.014.187-4.04.813-5.134 2.68Zm-55.666 6.6c-1.76 5.147-4.787 9.733-6.467 14.92 1.44-1.147 3.307-2.013 4.067-3.8 2.693-5.373 5.973-10.587 6.866-16.627-2.066 1.294-3.76 3.134-4.466 5.507ZM330 412.773c3.107-1.12 7.413-2.426 7.64-6.4-3.053 1.44-5.933 3.4-7.64 6.4Zm-114.44-.933c2.133 2.84 4.533 5.467 6.6 8.373a321.772 321.772 0 0 0-4.067 5.147 192.31 192.31 0 0 1 1.827 2.8c-.293.733-.867 2.213-1.147 2.947 2.24-.04 5.6.893 6.267-2.12-.84-3.334-3.307-7.76.56-10.134 3.307 1.4 6.573 3.387 10.347 2.707 5.213.347 10.08-2.013 15.266-1.893.014-1.227.014-2.56-1.773-2.227A67.034 67.034 0 0 1 231 419.2c-4.093-2.453-5.88-7.213-9.56-10.12-2.053.693-5.213.053-5.88 2.76Zm37.493 5.92c1.04 3.373 5.24 2.533 7.294.64a89.226 89.226 0 0 0-7.294-.64Zm-36.346 21.213c2.973-.04 5.28-.973 4.56-4.346-2.08.866-4.52 1.6-4.56 4.346Zm-3.32 5.014c.613 3.786.84 7.613.506 11.453a290.75 290.75 0 0 1 1.947 2.173c-.16 3.374-1.213 11.52 4.36 9.64-.827-1.626-1.92-3.12-2.467-4.866.334-5.574.454-11.174 1.254-16.707a289.225 289.225 0 0 1-2.027-5.373c-1.213 1.186-2.8 2.106-3.573 3.68Zm70.826 11.44c1.734 3.826 2.76 9.24 7.747 9.8.027-2.134-1.787-3.227-3.213-4.454-1.134-2.053-1.814-4.946-4.534-5.346Zm-46.053 45.266c9.88-.773 21.013 2.12 29.88-3.44-1.133-6.546 5.093-12.106 2.667-18.48.88-5.013-.667-9.853-2.014-14.6-1.72-1.093-3.626-2.16-3.4-4.533-8.826-2.72-18.146-1.2-27.2-1.653-.24 14.226-.386 28.48.067 42.706Zm-20.773-30.613c-1.387 1.347.56 4.44 2.333 3.253 1.333-1.386-.587-4.333-2.333-3.253Zm2.933 10.293c.707.72.707.72 0 0Zm67.88 1.36c.893.494.893.494 0 0Zm-69.453 17.32c-.574 2.174.2 2.987 2.333 2.427.56-2.16-.227-2.973-2.333-2.427Zm.426 6.96c-.746 4.187-1.16 8.454-1.76 12.667-.44 2 .787 3.68 2.307 4.813-.293-6.213 1.387-12.32 1.08-18.533-.413.267-1.227.787-1.627 1.053Zm6.387 1.187c-1.72 1.4.973 3.893 2.573 2.867 1.667-1.427-.973-3.92-2.573-2.867Zm5.107 2.147c5.4 1.973 11.093 2.933 16.706 4.08-3.146-3.787-8.333-3.92-12.773-4.934-1.453-.813-2.68.387-3.933.854Zm18.053 5.306c1.507 2.494 4.027 4.04 6.347 5.707 1.386-.88 2.773-1.733 4.146-2.613-3.386-1.387-6.813-2.8-10.493-3.094Zm-32.413 9.414c-1.707 1.066-1.747 2.026-.134 2.906 1.707-1.066 1.747-2.04.134-2.906Zm50.746 13.706c-1.626 1.28.44 4.294 2.187 3.054 1.547-1.307-.453-4.28-2.187-3.054Zm-70.88 2.694c-.64 1.826-.013 2.506 1.867 2.053.64-1.84.013-2.52-1.867-2.053Zm298.2 29.96a99.088 99.088 0 0 1-1.68-.347 176.656 176.656 0 0 1 5.56 6.96c.294-.013.88-.04 1.174-.067-1.747-3.906-2.36-8.186-3.974-12.146-1.56 1.533-1.413 3.586-1.08 5.6Zm-65.853 17.866c-.893 1.894 1.107 5.4 3.333 4.867.907-1.853-1.213-5.373-3.333-4.867ZM851.667 41.88c8.226.067 16.48.387 24.706-.053l2.494-1.2c-.147.746-.44 2.253-.587 3.013 1.107-.4 3.333-1.173 4.44-1.56 26.253-.2 52.52-.027 78.773-.08 5.64 4.347 10.947 9.147 17.24 12.573 5.72 4.52 10.934 9.8 17.734 12.774-9.347 10.133-19.414 19.6-29.067 29.44-2.533 2.813-5.907 5.026-7.667 8.413-.546 9.12.48 18.307-.68 27.413-.4-1.373-.76-2.733-1.106-4.106-1.027-.294-2.04-.587-3.04-.88l2.88-.614c-2.107-3.08-6.347-1.853-9.014-4.066-4.04-2.854-9.493-3.747-11.866-8.574-.654-.24-1.96-.706-2.614-.946a448.05 448.05 0 0 1 .014-15.854c-3.8-.253-7.6-.306-11.4-.173.36-.84 1.093-2.533 1.453-3.373a75.42 75.42 0 0 1-4.493 2.586c-3.6-1.506-6.667-4.146-10.4-5.386-4.48-1.2-5.587-6.36-8.614-9.334-4.173-4.466-3.8-10.946-4.066-16.613l3.306-2.453c-6.16 1.52-12.293.746-18.253-1.12-.04.32-.107.946-.147 1.253 2.8.507 5.36 1.747 7.734 3.293 2.133-.2 4.253-.373 6.413-.506-2.067 4.906-1.04 10.453 2.227 14.56-3.067 2.733-6.96 3.88-10.987 4.2-1.107 1.093-2.2 2.2-3.293 3.306-4.68-5.266-10.227-9.693-14-15.746.173-2.747-1.627-4.8-2.894-7.027.04-3.573 1-7.12.547-10.72 2.347-1.587 5.347-2.547 6.893-5.08 1.52-1.587 2.04-5.12 5.227-3.773-.933-.76-1.853-1.507-2.76-2.24-1.733 1.653-3.013 3.68-3.6 6-2.853 1.586-5.88 3.013-9.173 3.32-2.774-.4-5.014-2.187-7.347-3.56-1.453-2.534-3.187-4.867-5.013-7.107ZM0 42.2c5.24-.107 10.747-1.08 15.693 1.147-.626 3.96-.44 7.986.947 11.76 1.28-.974 2.587-1.934 3.76-3.027-.4-3.427-1.453-6.72-2.253-10.053 17.106 0 34.213-.134 51.306.066 3.227 8.72 4.107 18.04 6.907 26.88 1.8 5.76 1.507 11.867.693 17.774-2.666.386-5.333.76-8 1.066-.626-.973-1.88-2.92-2.506-3.906l-.534 4.453c-2.586.52-4.973-.68-7.253-1.733-2.88.906-8.293-.294-7.56 4.32 2.453 2.813 6.613 2.32 9.947 3.106-.014 12.814-.067 25.627.013 38.427 8.547.2 17.16.627 25.6-1.013.32.746.96 2.253 1.28 3-.933 5.813-2.493 11.6-2.133 17.533.28 5.747.786 11.547-.16 17.267 1.88 1.186 3.76 2.373 5.64 3.573-.24-1.133-.707-3.4-.947-4.533 2.76.813 5.493 1.72 8.213 2.68-.013-.76-.013-2.28-.013-3.04 6.947 1.706 13.813 3.826 20.293 6.906 2.52 1.134 4.627 3.907 7.68 3.174 5.494-.92 11.014-.294 16.507.213 2.6-1.307 5.293-2.373 8.013-3.4-4.066-3.813-9.946-1.827-14.786-3.747-.947.694-1.88 1.387-2.827 2.08-5.707-4.373-12.32-7.28-18.867-10.133-5.146-2.133-10.8-1.72-16.2-2.547-2.96-.213-4.226-3.24-5.466-5.506-3.067-7.627-1.787-15.907-.347-23.734.893-2.04 2.387-4.213 1.227-6.48-2.854-8.76.853-18.333-2.347-27.013-1.64-4.387-6.76-5.093-10.653-6.307-.267-5.64.786-11.2 1.213-16.8-.307-6.853-3.8-13.106-4.24-19.96-.293-4.386-1.307-8.68-3.12-12.68 15.24.107 30.813.894 45.373 5.814 12.014 3.826 22.947 12.12 28.174 23.813 6.253 12.987 5.173 27.733 5.2 41.733-.147 11.187-1.827 23.214-9.147 32.16-3.533 4.627-8.813 7.24-13.52 10.454 6.027 2.933 12.24 6.013 16.68 11.213 8.88 9.413 10.813 23.053 10.533 35.493-.133 11.894.734 23.987-2.253 35.64-2.773 12.64-10.12 24.694-21.627 31.134 1.107 2.146 3 4.24 1.96 6.826-1.973-1.333-3.413-3.28-5.12-4.906-13.68 5.266-28.4 7-43 6.866-29.32-.16-58.653.134-87.973-.133V116.453c.867-.053 2.613-.133 3.48-.173.6-1.467 1.2-2.92 1.813-4.373-3.853-4.174-4.586-11.894-.453-16.04-1.627-1.027-3.253-2.04-4.84-3.134V42.2Zm6.173 25.667c2.227 5.946 5.267 11.586 7.174 17.68.2 1.493-.68 2.826-1.04 4.226 1.546.734 3.093 1.467 4.626 2.227.587 1.933.2 5.413 2.947 5.68 3.693-.213 7.28-1.387 11-1.533 6.347-3.694 14.733 1.16 20.267-4.054-9.054-1.106-18.28.174-27.387.574-1.76-3.12-3.467-6.32-6.053-8.854-.44-4.506-4.614-8.653-2.827-13.173-1.4-1.52-2.827-3.013-4.253-4.507a442.096 442.096 0 0 0-4.454 1.734Zm-.746 47.386c.68 1.387 1.373 2.774 2.093 4.16-.907.187-2.693.547-3.587.72-.12 3.414 2.68 6.067 4.734 8.507.2-.907.573-2.707.773-3.613.88.133 2.667.426 3.547.56-2.507-3.427-3.934-7.88-7.56-10.334Zm3.973 22.16c-2.413 1.547 1.187 2.694 1.893 4-1.96 4.374 1.694 7.8 5.214 9.76.266-3.773-5.467-6.68-1.147-9.826-2-1.107-3.427-4.787-5.96-3.934ZM21.587 161.6c4.453.08-1.947 4.013 0 0Zm.4 3.48c-.747 2.253-.067 3.013 2.013 2.293.747-2.28.08-3.04-2.013-2.293Zm61.76 17.107c-7.52-.294-15.067-.214-22.587-.107-.04 14.12-.093 28.253.027 42.373 5.653.174 11.32.187 16.986.214.667 8.44-1.533 16.786-.72 25.186 3.08-2.853 1.427-7.333 2.734-10.92 1.373-4.64-.227-9.733 1.826-14.213 3.694-1.387 8.56-1.493 10.627-5.44 3.667-6.72 1.747-14.653 2.227-21.947.48-5.64-1.694-11.44-6.814-14.253l3.627.533c-3.093-2.84-6.147-5.96-6.12-10.48-2.827 2.08-1.373 6.067-1.813 9.054Zm6.026-7.04c-2.52 1.853.467 5.133 2.374 2.506 2.306-1.6-.64-4.733-2.374-2.506Zm6.374 7.706c4.453.147-1.974 4 0 0Zm22.68 21.827c-1.334 1.36.653 4.333 2.386 3.28 1.36-1.4-.613-4.36-2.386-3.28Zm-42.68 60.947c-1.627 1.226.173 4.493 1.973 3 1.56-1.227-.173-4.467-1.973-3ZM220.173 42.187c11.094-.387 22.2-.227 33.307-.054 0 2.307.067 4.6.187 6.907 2.066-1.693 2.066-4.467 2.626-6.84 8.814-.253 17.64-.08 26.467-.107 2.853 10.054 5.4 20.2 8.067 30.307-1.867-1.453-3.694-2.987-5.507-4.507-5.187.387-10-1.506-14.44-3.96l-2.013.427c-2.92-2.693-7.027-2.627-10.6-3.84-3.947 3.227-10.84-.067-12.64-4.587-1.067 1.12-2.12 2.24-3.254 3.28-6.2-1.44-12.106-3.92-18.293-5.453-2.253-.44-4.28-1.52-6.24-2.707a474.8 474.8 0 0 0 2.333-8.866Zm38.6 6.12c-.72 2.053 1.187 4.173 2.32 5.773 1.627 1.413 1.547-1.6.867-2.333-.68-1.254-1.373-3.72-3.187-3.44Z"/><path d="M1228.39 50.253c.52-2.893-1.47-9.373 3.66-8.253 33.76-.027 67.52.027 101.28.093v26.574c-1.76.586-2.8 1.76-3.09 3.493l3.09.16v18.413c-1.29-1.866-3.05-3.053-5.34-2.533 1.62 2.52 3.49 4.88 5.34 7.267v3.986c-23.13.334-46.28-.093-69.4.214.04 12.866-.3 25.746.22 38.6 21.45.106 42.89.026 64.34.04.23 14.306-.02 28.613.15 42.92a91.476 91.476 0 0 0-5.2 7.506 809.92 809.92 0 0 0 5.24-2.053c-.08 3.093-.13 6.187-.21 9.267-4.15.08-8.28.066-12.42-.04-.78-4.76-2.49-9.32-3.12-14.12-1.97.333-3.92.653-5.86.96-.16 4.346-.26 8.68-.35 13.026-6.81.28-13.64.32-20.45.32.01-2.613 0-5.24.02-7.853.98-2.52 1.67-5.133 2.11-7.8-3.27 4.48-4.2 10.04-4.36 15.453-6.72.094-13.43.027-20.12.24-.04 4.467.04 8.947.17 13.414-2.13-3.214-4.96-6.04-6.56-9.587-.16-2.147 0-4.307.1-6.453-1.08-1.787-2.34-3.507-2.96-5.507-.08-2.907 1.77-5.347 2.93-7.88-.52-.707-1.55-2.12-2.05-2.827-.35-6.32-.38-12.68.66-18.946-.44-.614-1.3-1.827-1.73-2.44.24-1.254.52-2.507.8-3.76-2.75-2.494-2.76-6.427-3.93-9.694-.86.747-2.55 2.267-3.4 3.027-4.24-2.6-9.07-4.107-13.18-6.907-4.41-3.333-3.29-9.466-4.12-14.28-4.16-5.56-1.56-12.68-2.56-19-1.8-3.56-5.44-5.733-7.72-8.946 2.74-5.214 6.22-10.107 7.44-15.987 1.48-.68 2.96-1.36 4.47-2.04a205.9 205.9 0 0 0-2.39-6.147c.58-2.56 1.1-5.12 1.55-7.706-1.56-3.027-2.99-6.134-4.48-9.2-1.47-2.374-1.89-5.12-1.97-7.867.85.707 2.56 2.147 3.4 2.853Zm83.46-5.746c-1.54 1.36.6 4.266 2.36 3.12 1.5-1.36-.66-4.174-2.36-3.12Zm-35.68 2.293c-.68 2.173.06 2.893 2.22 2.187.65-2.174-.08-2.907-2.22-2.187Zm36.04 2.667c-.36 1.626-.28 3.213.26 4.773 2.17-.267 4.14-1.253 6.05-2.333-2.09-.88-4.19-1.68-6.31-2.44Zm-2.1 15.026c2.66-1.16 5.2-2.6 7.7-4.093-2.84-3.347-7.06 1.053-7.7 4.093Zm15.9 18.32c-1.6 1.694.91 4.774 2.79 3.08 2.11-1.653-.99-5.2-2.79-3.08Zm-4.24 5.507c.67.733.67.733 0 0ZM1257 142.64c.77 4.227 6.12 3.227 9.16 4.787 4.32 2.266 9.15.826 13.72 1.72.25 1.52.52 3.053.81 4.573 1.63.96 3.26 1.907 4.95 2.813 1.09-3.64-2.69-5.48-3.4-8.68 2.12.694 4.21 1.414 6.37 2.067-1.05-2.04-2.58-3.867-4.73-4.76-3.17-.027-6.11 2.187-9.35 1.253-6.04-.32-11.56-3.066-17.53-3.773Zm60.49 14.107c-1.17 1.533-.81 2.453 1.08 2.773 1.12-1.547.76-2.467-1.08-2.773Zm-6.34 16.186c1.28 1.734 2.12 3.72 2.28 5.894 1.26.533 2.54 1.04 3.85 1.56.96-.36 2.87-1.067 3.83-1.427 1.53.493 4.58 1.467 6.12 1.96-3.26-4.827-9.26-5.147-14.11-7.36 1.69-3.8 3.45-7.587 4.85-11.52-3.82 2.4-5.14 6.973-6.82 10.893Zm-7.66 8.014c1.79-.774 4.02-.974 5.48-2.36-.17-.867-.52-2.614-.69-3.48-2.61 1.053-4.09 3.213-4.79 5.84ZM200.88 116.32c5.907-20.627 10.24-41.707 16.6-62.187 3.253 2.174 6.787 3.96 10.64 4.8 4.747 1.08 8.853 3.8 12.947 6.307a17.53 17.53 0 0 0-1.6 8.16c-.68.853-1.36 1.707-2.027 2.56-1.133 6.813 1.667 13.227 2.2 19.92.453 3.64 2.293 6.867 3.573 10.253 1.12 5.147-.48 10.307-1.84 15.24 1.854 4.654 4.56 9.48 2.707 14.587 3.32.933 6.6 2.013 9.907 3.027-1.627-2.467-4.067-4.08-6.667-5.36 1.28-4.547-1.787-8.294-3.307-12.28-.12-4.294 2.494-8 3.12-12.16.12-3.254-2.026-5.92-3.746-8.454-.08-3.36.16-6.76-.507-10.066-.747-3.627-3.547-6.88-2.667-10.76 1.214-5.174 2.64-10.307 2.8-15.667a554.661 554.661 0 0 1 4.894-2.347c4.16 2 8.706 2.72 13.28 2.934 8.32 2.08 16.493 4.72 24.92 6.36 2.693 1.68 5.4 3.973 6.253 7.173 8.547 31.653 16.253 63.573 25.187 95.093 3.293.974 6.813.72 10.213 1.107-1.627 4.24-6.467 1.76-9.72 1.813 4.373 16.334 8.6 32.72 12.907 49.08 1.56 6.294 3.906 12.507 3.68 19.107-4.96-1.787-9.547-4.453-14.654-5.853.347.88 1.014 2.653 1.36 3.546-4.48-1.813-9.413-3.226-11.773-7.88-2.773.52-5.733-.573-8.2 1.2-4.92-2.2-10.347-1.96-15.547-2.786-3.04-.267-4.6-3.054-6.493-5.04-4.027 2.52-8.853-.254-12.987 1.96 3.867 1.733 8.174 1.84 12.334 2.24 2.453 1.746 4.813 3.64 6.76 5.946.546-.706 1.626-2.133 2.173-2.853 5.92 1.173 11.573 4.16 17.747 3.533 4.173-.106 7.213 3.187 10.786 4.8 5.44 2.387 11.374 3.627 16.427 6.84l-1.227 4.267c2.627 3.933 1.56 9.787 5.307 12.84-.373-1.013-1.12-3.027-1.493-4.027.546-.413 1.64-1.24 2.2-1.653-.987-2.44-1.92-4.893-3.12-7.227.226-2.346.613-4.68 2-6.653a145.219 145.219 0 0 1 7.573 30.453c-18.267.094-36.52-.066-54.787.08-.413-4.893 2.08-10.24-1.24-14.613.334-6.787-1.106-13.453-2.266-20.107-2.254 11.467 4.293 23.027.973 34.48-1.693-.013-3.387-.026-5.08-.066-2.107-8.84-3.68-17.814-6.2-26.547-3.6-1.787-8.387-.733-12.453-1-7.254-1.173-11.627 7.68-9.347 13.773-5.853.6-13.507 1.707-15.427 8.294-3.813.506-7.24 2.44-10.92 3.226-1.24-1.266-2.32-2.666-3.453-4.026-.907 1.986-.027 5.36-2.32 6.4-4.493.426-9.027-.04-13.52-.147a212.851 212.851 0 0 1 4.36-3.493c-.453-.56-1.387-1.654-1.853-2.2.706-2.6 2.013-5.587.253-8.08-.667-1.92-3.28-.96-4.8-1.174.213 5.094 2.027 10.12 1.813 15.347-6.586-.08-13.173-.36-19.76-.12 5.827 3.293 12.52 2.96 18.96 3.253l2.134-2.56c2.12.747 4.213 1.64 6.2 2.707 3.226-1.067 5.52 1.773 7.946 3.32 3.627 2.507 6.774 5.613 9.374 9.16 3.626 4.92 10.466 7 12.546 13.107-5.133.013-6.213-5.334-9.893-7.654-3.067-2.226-4.693-5.92-7.92-7.933-2.533-1.64-4.933-3.467-7.053-5.613-1.627.8-3.254 1.613-4.867 2.426.6-3.293-2.133-4.386-4.627-5.386-.386.76-1.173 2.253-1.573 3-4.573-.267-9.453.92-13.733-1.16-2.467-1.24-5.254-1.307-7.947-1.52-2.413-3.56-6.76-4.08-10.72-4.44l3.2 4.106c-2.547-.52-5.04-1.32-6.8-3.36-.453 1.187-1.347 3.56-1.8 4.747-2.733-1.44-5.36-3.907-8.667-3.493-3.24 1.146-4.386 4.733-6.56 7.093-6.546.267-13.84-.387-18.706 4.987-5.014 1.213-8.84 5.053-13.854 6.28-3.373 1.12-6.933.146-10.386.44-2.8 1.32-5.12 3.44-7.534 5.36-1.373-1.8-2.333-4.04-4.226-5.347-2.44-.227-4.587 1.44-6.867 2.08.4-2.667 2.413-5.827 5.533-5 2.64 1.16 5.107 2.667 7.707 3.947.88-1.334.587-5.054 3.12-4.534 2.2.307 4.307 1 6.467 1.547 2.613-1.267 5.613-1.587 8.133-3.027 5.653-4.506 12.333-7.4 18.373-11.306 3.88 1.346 7.947 1.146 11.734-.414.666-2.786 2.68-4.826 4.24-7.106 1.32-2.894 1.546-6.107 2-9.214 5.786-17.88 9.573-36.36 14.6-54.48 2.093-6.84 2.826-14.133 5.986-20.626 1.587 2.2 3.707 4.213 4.44 6.906.307 3.507-.213 7.027.214 10.534 1.413 2.333 4.52 2.093 6.813 2.906-3.653 2.667-6.373 7.654-4.293 12.08 1.106 2.907.466 6.054 1.08 9.04 1.586 2.48 3.72 4.627 4.866 7.374 2.44 6.306 6.947 11.586 8.627 18.226 1.627-.266 3.253-.52 4.893-.786-1.573-6.614-5.706-12.12-8.44-18.214-.946-4.253-3.32-7.906-5.573-11.546 1.987-5.694.467-11.6.013-17.387 4.36-2.053 9.094-.253 13.454.813 6.706 2.094 14.2 2.254 19.946 6.76 5.307-.613 10.814.48 15.454 3.134 6.88 4.36 16.093 2.72 22.626 7.813 1-1.413 2-2.827 3.014-4.227-1.414-1.266-2.814-2.52-4.227-3.773.213-2.853.613-5.68 1.04-8.507-3.813 3.187-3.4 8.68-1.6 12.84-2.227-.906-4.12-2.306-5.427-4.32a94.975 94.975 0 0 0-2.346 1.64c-1.334-2.426-3.907-2.24-6.214-1.96-3.24.947-4.906-2.773-7.8-3.306-3.573-.907-7.2-1.774-10.906-1.587-3.667.48-5.88-3.12-9.214-3.867-4.733-1.066-9.746-.973-14.12-3.346-5.04-2.707-12.253-.56-16.133-5.294-.107-5.08 1.2-11.866-3.56-15.266-2.187-1.84-8.653-1.814-4.333-5.76-3.52-2.507-7.6-4.387-10.214-7.974 4.147.667 6.84 4.2 10.187 6.4 3.213-14.453 7.347-28.693 10.92-43.066 1.72-6.374 2.947-12.907 5.32-19.094 2.267 1.134 4.56 2.227 6.92 3.134-1.187-3-4.213-4.214-6.84-5.627Zm14.067-22.867c3.093 3.56 7.12 6.84 12.146 6.547-2.893-1.96-6-3.547-8.853-5.56-.013-1.08-.027-3.227-.04-4.307-1.093 1.107-2.173 2.2-3.253 3.32Zm-11.76 29.467c-.347 2.16 2.853 4.467 4.853 3.52.773-2.227-3.013-4.08-4.853-3.52Zm52.786 13.64c2.04 4.4 8.667 2.707 11.24 6.867 1.814-.254 3.627-.507 5.454-.787-5.067-2.987-10.894-5.12-16.694-6.08Zm19.56 5.293c4.027.52 7.867 1.747 11.52 3.48-2.186-3.6-7.826-6.613-11.52-3.48Zm-27.146 14.854c-2.52 11.893-5.08 23.786-7.494 35.706 6.374.28 13.894 5.12 19.427.094 1.507 1.946 1.4 4.226.747 6.506 1.413.814 2.813 1.627 4.226 2.427-.4-4.613.2-9.2.987-13.747-2.053 1.12-2.547 3.48-3.373 5.467a68.992 68.992 0 0 1-2.214-2.973c.4-2.04.587-4.147.04-6.174-3.213-13.413-6.04-26.92-9.08-40.373-1.92 4.107-2.333 8.68-3.266 13.067Zm45.106-10.827c1.187 2.04 3.174 3.253 5.507 3.667-.427-2.827-3.32-3.027-5.507-3.667Zm-27.546.867c.453 2.666.693 5.76 3.573 6.946-.213-2.746-1.213-5.373-3.573-6.946Zm34.08 1.253c-.694 2.147.04 2.907 2.213 2.28.68-2.16-.053-2.92-2.213-2.28Zm5.986 2.76c3.947-2.027.174 4.48 0 0Zm-38 4.693c.2 2.947.48 5.88.894 8.814 2.466-2.214 3.666-8.867-.894-8.814Zm-.16 9.694c-.266 4.893-1.16 9.706-1.506 14.586 3.08-2.76 2.666-7.333 3.453-11.053.573-1.627-.827-2.68-1.947-3.533ZM240.36 194.6l-1.013 4.653c6.4.547 12.813.28 19.213.227-.027-.733-.067-2.173-.093-2.907-6.094 0-12.12-.906-18.107-1.973Zm21.533 11.947c-.666 2.213.054 2.973 2.147 2.28.68-2.227-.04-2.987-2.147-2.28Zm6.854 32.506c.133-2.013.2-4.04.2-6.053-2.454 1.187-2.027 4.507-.2 6.053Zm-4.467 6.72c.853.534.853.534 0 0Zm-26.747 5.294c-3.4 2.093-6.426 4.946-10.506 5.68-1.054 3.946-1.92 7.946-2.694 11.96 3.774-1.56 8.32-1.934 11.254-5.027 3.293-4.08 9.146-3.04 13.733-4.107 1.547-2.786 2.147-5.973 3.173-8.96-4.973.147-10.08-.653-14.96.454ZM549.84 66.24c-.667-1.427-1.24-4.84 1.387-3.267 2.066 2.547 4.146 5.08 6.306 7.56-2.84-.72-6.306-1.32-7.693-4.293ZM800.52 82.2c1.76-.36 3.533-.72 5.32-1.08.187 3.04-1.72 5.533-2.653 8.267 1.44 3.866 5.813 5.746 7.24 9.693 2.933 4.333-.107 9.587 1.546 14.2 1.267 3.947 2.04 8.013 2.907 12.067 1.387 2.48 4.387 3.88 5.213 6.72-.173 3.92-3.706 6.68-4.08 10.586-1.893 9.427-5.093 18.694-10.68 26.56-1.253.867-2.36 1.987-3.773 2.547-1.04-1.973-.92-4.293-1.013-6.44.013-21.907.16-43.813-.094-65.72 2.267 3.053 3.534 6.813 6.454 9.387-1.28-6.014-4.667-11.374-6.054-17.414.094-3.133-.106-6.253-.333-9.373Zm6.267 27.613c-1.2 1.334.826 3.747 2.346 2.747 1.174-1.307-.88-3.747-2.346-2.747Zm4.226 21.04c-2.893 3.854 4.48 7.56 4.974 2.654-1.267-1.32-2.894-3.44-4.974-2.654ZM812.173 97.893c1.574-.746 3.4 1.747 2.374 3.094-1.587.773-3.427-1.76-2.374-3.094ZM765.4 168.32l2.493-.213c-.053 2.013-.12 4.026-.2 6.053-2.533-.92-1.946-3.733-2.293-5.84ZM1005.72 172.827c3.33-3.427 8.31-3.947 12.81-4.614 6.12-.013 12.24-.56 18.38-.333-1.96 1.32-3.95 2.6-5.94 3.867-5.29-1.56-10.77-.4-16.04.586-3.09 4.36-.06 10.76-4.41 14.48-2.31 3.707-2.71 9.08-6.71 11.374.46-8.454 6.52-17.12 1.91-25.36ZM994.533 172.107c2.68-.467 7.157-1.854 8.587 1.306-1.25 3.28-4.773 2.294-7.2 1.267l-2.627 2.093c-.946-.32-2.826-.973-3.773-1.293-.6-2.92 3.16-2.693 5.013-3.373ZM979.973 172.213c4.44.494-2.36 3.76 0 0ZM328.667 174.827c6.253-1.614 12.76-1.374 19.173-1.774 5.08.187 11.64.094 14.88 4.734-4-.387-7.907-1.334-11.84-2.04-4.467 2.186-9.533 1.64-14.333 2.093-2.667-.88-6.227-.267-7.88-3.013ZM522.88 173.52c3.907-2.227.36 4.427 0 0ZM800.453 175.667c.48-.16 1.44-.48 1.92-.627.827 2.68 1.627 5.4 3.04 7.853-1 3.12-1.426 6.36 0 9.427-1.253 1.067-4.92 3.2-4.44-.24-.306-5.467-.346-10.947-.52-16.413ZM978.48 176.36c4.467-.213-1.747 4.107 0 0ZM492.773 189.867c.227-2.747 1.894-4.827 4.374-5.88-.107 2.773-1.947 4.773-4.374 5.88ZM483.013 195.627c1.88-2.694 3.387-6.134 6.947-6.88-1.227 3.253-4.12 5.173-6.947 6.88ZM908.053 191.72c1.84-1 3.694-1.973 5.587-2.893.36 2.986-.56 5.84-1.733 8.52.666.293 2.013.88 2.693 1.173-.933 2.253-.6 4.187 1.027 5.787a509.867 509.867 0 0 0-2.614 3.04c.574.906 1.707 2.72 2.28 3.613-4.653.387-9.2-2.893-11.693-6.587-2.48-5.28 5.88-7.12 4.453-12.653ZM471.56 203.16c3.453-3.027 6.147-6.947 10.027-9.44.773 6.08-5.854 7.267-8.347 11.587-2.547 3.906-7.32 5.28-10.533 8.506-.36-.493-1.094-1.48-1.467-1.973 3.867-2.373 8.093-4.507 10.32-8.68ZM1194.61 196.307c4.44.066-1.96 4.053 0 0ZM360.013 214.84c-.373-5.893-1.4-12.92 2.48-17.893-.693 5.826-.253 11.653-.093 17.493-.6.093-1.787.293-2.387.4ZM997.213 199.4c4.897-1.707 2.547 6.44-.133 8.027.427-2.68 1.307-5.4.133-8.027ZM1085.64 200.107c.48.026 1.45.08 1.93.12-.76 3.92 1.19 9.72-3.25 11.84-.15-4.04.52-8.027 1.32-11.96ZM753.387 209.32c.306-2.453 2.04-4.027 4.04-5.24.026 2.64-1.534 4.533-4.04 5.24ZM428.693 209.653c.96-1.16 4.187-.986 4.027.894-.973 1.16-4.2.973-4.027-.894ZM1028.32 225.893c.61-3.413.35-7.52 3.25-9.96.9 3.64.55 8.134-3.25 9.96ZM1110.88 226.827c2.55-4.187 8.49-7.187 13.19-5.56l1.09 1.573c-1.87 2.56-7 1.733-6.63 6.133-2.53-.8-5.1-1.48-7.65-2.146ZM664.493 225.987a95.894 95.894 0 0 1 4.72 5.146c-2.68.827-5.093-.333-2.933-3.133l-2.187-.16.4-1.853ZM1017.81 226.587c2.3.16 1.12 3.76-.65 3.866-2.32-.173-1.16-3.733.65-3.866ZM491.493 234.027c2.24 1.386-2.6 5.106-4.453 4.453-.293-2.253 2.56-3.893 4.453-4.453ZM651.24 236.147c2.147-.654 2.84.12 2.053 2.306-2.146.64-2.84-.133-2.053-2.306ZM1151.04 236.667c4.41.44-2.33 3.813 0 0ZM472.08 240.107c2.107 1.346 4.293 2.773 5.293 5.173-2.533-.64-5.693-1.987-5.293-5.173ZM622.853 276.6c-2.333-2.947-4.2-7.027-2.4-10.693 1.134 3.48 2.08 7.04 2.4 10.693Z"/><path d="M273.933 271.227c1.72-2.454 4.6.293 2.08 2.026-1.6 2.614-4.413-.293-2.08-2.026ZM487.133 276.333c3.4-.066 6.814-.08 10.24-.08C511.52 289.92 525 304.32 539.32 317.787c14.427.733 28.947.026 43.413.346 1.974-.266 4.64.68 5.934-1.36 3.693-3.546 6.533-7.8 9.493-11.933 3.933-2.653 8.48-4.32 12.387-7.067-.68 4.694-6.387 4.974-9.6 7.267-3.054 1.413-3.4 4.933-4.347 7.747-1.947 1.733-4.093 3.226-6 5.013 17.8.76 35.64-.12 53.44.453-.067 19.28.08 38.56-.133 57.84-12.36.2-24.734.16-37.094.027-2.946-5.333-7.893-9.32-12.52-13.16.814 5.147 5.347 8.24 8.374 12.08-3.92 12.347 3.466 28.013-6.827 38.32-1.4 5.533-3.813 10.747-6.027 16.053 2.654 3.334 3.32 7.747 3.147 11.894-.453 4.706.08 9.453-.787 14.133-2.906-1.707-6.066-3.187-9.453-1.853-.867-1.32-1.693-2.64-2.507-3.974-1.306 1.027-3.24 3.454-4.893 1.654-3.267-3.614-7.04-6.654-10.533-10.014 1.72-1.266 3.813-1.026 5.813-.826-.44-.894-.867-1.774-1.28-2.654-1.293.494-2.573.974-3.84 1.467.16-18.08-.013-36.16.08-54.227 2.88 1.454 5.96 2.84 8.053 5.414 1.667 1.853 2.707 4.32 4.88 5.706-1.133-6.093-6.306-9.813-11.173-12.92-3.36-3.76-6.48-7.773-10.307-11.106-.56.213-1.68.666-2.24.893-1.173.013-3.52.013-4.68.027.107-2.96 1.814-6.587-.986-8.814-19.44-19.68-39.16-39.08-58.6-58.76-1.707-1.826-3.854-3.146-6.027-4.32a332.46 332.46 0 0 0 4.107-6.24c-1.227-2.32-2.574-4.586-3.427-7.066-1.213-3 1.24-5.654 2.387-8.214-.107-.826-.32-2.466-.414-3.28Zm94.16 75.134c2.48 5.64 7.467 9.653 13.747 10.08-2.067-2.947-5.973-3.267-8.587-5.48-1.786-1.467-3.426-3.094-5.16-4.6Zm49.734 11.493c-1.987.013-2.534 3.587-.32 3.693 2.026.027 2.56-3.64.32-3.693Zm-42.96 49.413c3.28-.84 4.546-5.386 8.426-4.2a581.943 581.943 0 0 1-2.88-3.613c1.227-1.907 2.44-3.813 3.467-5.827-4.867 2.854-7.68 8.32-9.013 13.64Zm-6.414-9.36c.707.707.707.707 0 0ZM271.467 279.36c1.44-.827 3.173-.893 4.773-1.24 7.56 4.533 16.453 6.413 25.107 7.613 3.226.787 6 2.854 9.293 3.454 1.973.586 4.533.346 5.707 2.44-5.387.64-10.267-1.56-15.054-3.614-6.626-1.346-13.36-2.413-19.853-4.373-2.013-.48-3.213-2.293-4.627-3.627-4.84 1.827-5.666 7.307-9.413 10.254 1.08-3.72 2.187-7.507 4.067-10.907ZM1102.13 286.52c3.23-2.053 7.59-2.92 11.43-2.6 1.43 3.427-4.52 2.547-6.57 3.453-.74 1.08-1.44 2.174-2.14 3.267-.25 1.68-.24 3.533-1.69 4.72-.68-2.893-1.45-5.853-1.03-8.84ZM101.787 286.653c4.066-1.8-.147 4.467 0 0ZM616.853 293.507c.707-2.694 1.44-5.374 2.56-7.92.267 2.106.494 4.213.707 6.346-.813.387-2.453 1.187-3.267 1.574ZM245.747 302.28c5.053-4.88 12.293-7.16 19.146-8.147-.053 4.907-4.986 6.72-8.573 8.747-3.24 1.48-5.813 3.987-8.52 6.253-.72-2.28-1.387-4.573-2.053-6.853ZM882.653 314.68c1.267-5.013 7.014-5.813 11.214-7.147.24.547.733 1.654.986 2.214-4.453.666-8.2 3.106-12.2 4.933ZM1117.84 309.627c4.01-2.094.27 4.426 0 0ZM245.28 310.573c3.28.44 5.293 3.12 7 5.667-3.347-.307-5.28-3.133-7-5.667ZM382.053 311.96c3.334 1.147 6.747 2.107 10.294 2.213-1.187 2.454-3.24 4.28-5.134 6.174-.84-1.454-1.36-3.027-1.32-4.707-2.653.44-3.386-1.56-3.84-3.68ZM476.32 322.907c3.573-4.28 8.107-7.68 12.773-10.68-2.866 3.64-6.653 6.426-9.64 9.986l-3.133.694ZM862.707 313.453c1.866-.653 2.493-.04 1.88 1.827-1.894.653-2.52.04-1.88-1.827ZM395.48 317.16c.427-.787 1.267-2.36 1.68-3.147 3.627.747-.747 4.44-.96 6.44 4.373 2.334 11.467-.6 13.853 4.907-5.2-.067-10.373-.973-15.586-.76a180.598 180.598 0 0 0-1.654-6l2.667-1.44ZM447.147 316.493c1.026-1.426 4.293-1.653 4.56.507-.32 2.52-6.12 2.427-4.56-.507ZM453.413 319.493c4.454-5.973 13.374-3.48 19.214-1-3.774.72-7.494-.4-11.187-1.013-2.627.867-5.307 1.6-8.027 2.013Z"/><path d="M661.133 318.253a258.83 258.83 0 0 1 8.507-.173c.48 1.707 1.013 3.427 1.747 5.053.093-1.226.253-3.706.333-4.933 3.707-.12 7.427-.16 11.16-.173 2.133 2.173 4.733 3.8 7.867 4.093a914.452 914.452 0 0 0-3.334-4.053c4.12-.014 8.254 0 12.387.2-.147 1.2-.427 3.613-.56 4.813 1.013-.067 3.04-.213 4.067-.28.76.373 2.28 1.133 3.04 1.507-.734-1.974-1.427-3.96-1.76-6.027 4.693-.24 9.413-.24 14.133-.133 17.28 36.24 34.253 72.626 51.467 108.906 1.066 2.147 3.213 3.4 4.8 5.12-.227 3.867-2.494 7.294-3.507 11 3.293-1.52 4.253-5.013 4.907-8.28 2.84.107 5.613.814 8.213 2.014 2.427-2.56 5.12-5.014 6.707-8.214 1.013-2.88 1.266-5.96 1.506-8.96-2.16 1.854-1.573 5.12-3.146 7.347-1.787 2.467-3.934 4.667-5.814 7.067-5.333-1.334-12.333-5-11.746-11.427.093-25.053-.014-50.093.053-75.147a19.588 19.588 0 0 0 4.8-1.92c-1.187-.2-3.547-.613-4.733-.813-.507-8.853-.08-17.707-.12-26.547 19.12-.4 38.253-.266 57.373-.066.067 21.72.36 43.453-.173 65.173-3.507-3.173-4.48-8.613-9.44-10.213 2.586 4.453 5.24 9.266 9.6 12.24.24 28.813.08 57.64.026 86.466a2451.712 2451.712 0 0 1-5.8-3.626c-1.573-5.894-8.573-7.467-10.373-13.347-3.6 1.107-7.293-1.653-10.707.293 2.534.907 5.147 1.587 7.614 2.667 2.84 3.293 5.4 6.813 8.36 10a289.093 289.093 0 0 0-1.587 3.667c3.84 2.573 8.493 4.546 10.613 8.96 3.16 4.026 1.6 9.426 1.96 14.146-2.546-.213-5.066-.586-7.586-.973 1.8 2.4 4.733 3.053 7.6 2.867-.24 19.2.253 38.413-.24 57.613h-55.8c-3.307-6.04-6.067-12.36-9.12-18.533-2.307-4.894-5.267-9.614-6.134-15.04l-2.053.08c.76-.934 1.547-1.84 2.333-2.747 1.254 2.187 2.587 4.32 3.96 6.467 1.987-2.494 3.614-5.32 5.974-7.48 2.293-1.387 5.026-1.64 7.6-2.187-.334-1.107-.987-3.32-1.307-4.427 4.733-4.413 11.453-4.68 17.533-4.04-.813-1.813-2.733-2.226-4.44-2.733-.786-4.853-2-9.64-4.053-14.12.773-1.44 1.56-2.88 2.347-4.32-1.907-2.44-5.067-2.507-7.72-1.36-2.307 2.293-4.48 4.733-6.68 7.133-2.027 4.254 4.48 7.44 3.013 11.707-1.253 3.373-2.48 7.707-6.373 8.8-4.654 1.493-7.227 8.84-12.84 5.213-6.974-12.533-12.44-25.88-19.08-38.6.666-.493 1.986-1.48 2.64-1.973-1.8-1.467-3.72-2.8-5.374-4.427-.533-2.32 1.667-4.373 2.387-6.493-1.347-2.627-2.947-5.16-3.8-8-.733-4.093.067-8.693-2.64-12.2.267 4.867-1.427 10.307 1.427 14.667 1.053 1.946 2.28 3.8 3.506 5.653-.653.867-1.933 2.573-2.586 3.427-4.52-8.787-7.987-18.174-13.307-26.52.067 29.56.08 59.12.013 88.68.227 4.026-3.853 6.146-7 7.493-1.626 2.52-3.426 4.933-5.266 7.307 2.186-.347 4.373-.707 6.573-1.067l-.907 4.267c2.04-2.894 3.414-6.36 6.454-8.414.226 4.6.12 9.2-.12 13.8-10.894.014-21.774-.093-32.654.054-.013-.627-.053-1.88-.066-2.507-1.454.787-2.64 2.467-4.48 2.227-6.64.333-13.28.173-19.92.213-.4-5.08-.507-10.213.226-15.267 3.947 1.334 7.96 2.427 11.92 3.734 4.694-.894 9.44-.6 14.107.373-2.773-6.107-10.853-4.4-15.747-7.72-3.653.373-7.28.947-10.773 2.053 0-41.933-.347-83.893.173-125.813-3.546-1.133-7.266-.827-10.92-.773-6.533-.88-13.413-3.96-19.893-1.254-1.267-1.88-2.427-3.826-3.413-5.853 5.68-.72 11.333.627 16.986.4 3.254.093 4.267-3.733 6.814-4.773 1.186 3.026 3.72 5.146 6.68 2.426 1.066 1.494 2.133 3.04 3.573 4.254-.093-14.427-.08-28.84-.067-43.254-.026-3.786 2.24-7.626-.066-11.226l3.253 2.333c-1.52-3.053 2.773-6.107-1.08-8.427-.107 1.067-.333 3.187-.44 4.254-2.28-2.227-1.52-5.454-1.707-8.24.094-7.72-.053-15.427.12-23.134Zm13.294 3.654c-4.48 7.52.333 16.493-2.8 24.28-2.294 1.6-5.627 2.946-5.254 6.36 1.867-.707 3.014-2.067 3.44-4.067.667.053 2 .173 2.667.24.427-4.133 4.547-5.16 8.067-4.947a206.147 206.147 0 0 1-1.507-3.626 625.623 625.623 0 0 0 2.173-5.214c-2.12-2.573-5.426-5.773-3.626-9.373 2.586-.24 5.173.067 7.786.133-3.026-2.76-7.053-3.373-10.946-3.786Zm104.493 24.266c4.88 3.134 10.16 5.734 14.693 9.4 1.507 4.12 5.307 7.054 9.734 7.28-1.76-3.933-5.427-6.6-9.547-7.56-.16-.92-.467-2.773-.627-3.693 1.867-.013 3.76-.053 5.654-.107-1.174-4.226-6.16-2.146-7.934.48-1.88-3.533-4.826-6.386-8.266-8.4-1.36.694-2.534 1.667-3.707 2.6Zm24.387 2.2c.346 4.6 4.946 7.04 6.52 11.147 2.52 4.773 5.773 11.147 11.8 11.547-3.4-4.28-6.187-8.974-9.454-13.32.227-.827.68-2.454.907-3.267-2.56-3.013-6.16-4.733-9.773-6.107Zm-.934 33.507c4.454-1.493 4.107-7.52 6.414-11.093-3.84 2.466-5.28 6.92-6.414 11.093Zm-101.666-7.32c-.52 4.28 7.866 8.013 8.826 3.08-2.48-2.093-5.8-2.427-8.826-3.08Zm27.493 1.28c1.293 7.507 7.893 14.12 6.213 21.92-.946-2.36-1.746-4.827-3.6-6.64 1.454 7.853 1.76 17.507 8.854 22.627 3.306 2.306 5.386 5.973 8.866 8.08a87.495 87.495 0 0 0-2.586-4.64c.2-1.134.6-3.387.8-4.507-.96.16-2.88.493-3.827.667-1.533-1.227-3.2-2.307-4.427-3.827-.72-3.133-1.306-6.293-2.413-9.307.72-2.053 1.547-4.253.547-6.36-2.134-6.213-2.574-13.933-8.427-18.013Zm-30.2 7.867.587 1.746c.733.227 2.2.667 2.933.894 1.04 4.08.36 9.8 5.28 11.44-.587-2.974.107-6.667-2.427-8.867 1.427-2.573-1.16-3.88-2.8-5.32-1.2.027-2.386.067-3.573.107Zm103.787.226c.266 5.747-1.814 12.227 1.026 17.494.64-2.067 1.254-4.147 1.867-6.214-1.133-3.746-.88-7.64-.773-11.48-.534.054-1.6.16-2.12.2Zm-77.734 2.907c4.48.293-2.146 3.867 0 0Zm71.907 4.373c-.693 2.24.027 2.987 2.147 2.267.653-2.227-.067-2.987-2.147-2.267Zm-69.453 6.12c-1.427 1.694-.654 6.414 1.933 6.214.333-1.894.16-5.64-1.933-6.214Zm66.013 18.974c1.347-6.214 4.613-11.76 6.173-17.88-4.866 4.466-6.413 11.493-6.173 17.88Zm-128.2-13.12c-.613 2.173.16 2.88 2.32 2.106.587-2.16-.187-2.866-2.32-2.106Zm34.613 2.386c-1.72.947-1.72 1.867-.013 2.76 1.72-.973 1.72-1.893.013-2.76Zm33.12 6.214c.107 2.2.307 4.413.56 6.626 1.134-.56 2.28-1.133 3.427-1.693a49.156 49.156 0 0 0-3.987-4.933Zm-53.213 5.773c-1.12 1.76 1.933 3.627 3.333 2.4 1.08-1.787-1.946-3.707-3.333-2.4Zm60.187.32c-1.934 2.307 3.093 4.813 4 2.053.226-1.973-2.547-3.32-4-2.053Zm-39.587 11.507c1.64-1.907 2.44-4.28 2.88-6.707-2.6 1.16-3.547 4.04-2.88 6.707Zm7.667-6.707c-.774 1.587 1.8 3.293 3.146 2.347.734-1.6-1.826-3.4-3.146-2.347ZM692.4 424c-.373 2.08 3.173 2.84 4.613 1.973.747-2.226-3.266-3.533-4.613-1.973Zm2.907 11.84c1.746 3.427 2.28 8.133 5.853 10.173-.667-3.053-1.333-6.333-4.093-8.213-.147-.84-.44-2.52-.574-3.36-.306.347-.893 1.053-1.186 1.4Zm91.786.093c.614 2.947-.706 8.56 3.787 8.534-.467-3.174-.72-6.774-3.787-8.534Zm-20.506 8.68c-.747 2.147-.014 2.854 2.186 2.107.72-2.147-.013-2.853-2.186-2.107Zm21.64 2.8c2.4 5.294 8.373 6.827 13.386 8.64-2.013-4.933-9.853-3.653-11.226-9.493-.547.213-1.627.64-2.16.853Zm-35.507 4.734c-1.693.066-3.56 2.64-.787 2.866.56-.613 1.68-1.826 2.227-2.426 1.4 1.04 2.773 2.133 4.28 3.053.973-3.04-1.787-5.24-2.987-7.733-.92 1.413-1.84 2.813-2.733 4.24Zm11.693-2.854c-1.24 1.294.24 4.547 2.107 3.427 1.36-1.28-.267-4.64-2.107-3.427Zm-63.373 7.387c-1.027 5.253-1.947 10.573-2.36 15.933 3.787-4.96 3.307-11.72 3.907-17.613-.387.427-1.16 1.267-1.547 1.68Zm105.547 3.333c.88 3.64 2.466 7.654 2.76 11.72-.854-.346-2.56-1.013-3.414-1.346-3.186 1.96-6.533.146-9.693-.787-.76.68-2.293 2.04-3.053 2.72a58.05 58.05 0 0 1 12.333 3.253c3.227-.133 5.733-2.64 8.107-4.586-2.267-3.627-3.227-8.747-7.04-10.974Zm-94.16 9.88c-.64 2.227.093 2.974 2.2 2.24.626-2.226-.107-2.973-2.2-2.24Zm97.626 11.574c2.24.84 4.027 2.413 5.334 4.413l1.706-.533c3.054 2.946 6.547 5.76 10.96 6.106-3.906-3.573-8.893-5.773-12.493-9.746-1.373-2.04-3.747-1-5.507-.24Zm4.467 11.626c.36 1.974.76 3.947 1.173 5.907.734-1.453 1.414-2.947 2.134-4.413l-3.307-1.494Zm-4.56 9.947c-.467 1.693-.907 3.4-1.347 5.107.414 1.733.8 3.466 1.227 5.226a135.54 135.54 0 0 0 2.053-.453c-.6-1.227-1.173-2.453-1.76-3.667.974-.32 2.934-.946 3.907-1.266a22.778 22.778 0 0 0-4.08-4.947Zm-12.947 4.04c1.76 2.493 4.52 3.947 7.28 5.093-1.68-2.626-4.48-4.026-7.28-5.093Zm12.56 9.4c4.454-.147-1.8 4.08 0 0Zm-6.986 10.453c-2.494.494-6.24-.253-6.307 3.294 1.293-.44 2.6-.894 3.907-1.347 2.093.68 4.2 1.36 6.306 2.013-.426-.746-1.266-2.253-1.693-3.013.44-3.067.947-6.133 1.08-9.24-2.027 2.32-2.64 5.387-3.293 8.293Zm-37.107-1.56c-.987 1.574-.16 4.16 1.6 4.854 2.24-.627.533-5.654-1.6-4.854Zm-75.64 16.787c4.24-.08 8.547-.32 12.747.56 2.4-1.427 4.8-2.853 7.266-4.173-.773-.427-2.333-1.267-3.106-1.694-4.707 2.774-10.627 3.507-15.134-.066-.613 1.773-1.2 3.573-1.773 5.373ZM389.96 321.64c2.16-.587 2.84.2 2.013 2.373-2.16.56-2.84-.226-2.013-2.373ZM414.933 327.213c2.32-.773 4.747-1.213 7.147-1.72 5.013 2.64 10.76 3.494 16.16 5.134.813-1.56 1.627-3.12 2.453-4.68 6.854 1.293 13.827 2.146 20.814 2.2-1.04 1.226-2.04 2.493-3.174 3.613-5.106-.307-10.16-1.2-15.28-1.347-.933 1.267-1.88 2.547-2.813 3.814-5.2-2.08-10.72-3.014-16.04-4.667-2.96.507-5.707 1.76-8.48 2.853-.813-1.546-3.04-3.746-.787-5.2ZM464.16 327.253c2.013-1.24 4.32-1.28 6.493-.533-1.253 1.227-2.493 2.507-3.933 3.533-1.307-.6-2.707-1.346-2.56-3ZM396.347 335.64c.213-2.027.546-4.053 1.4-5.92 1.973 1.453 3.946 2.92 5.813 4.52-2.4.533-4.8 1-7.213 1.4ZM464.387 333.773c1.92-1.653 3.506 1.814 1.6 2.867-1.92 1.627-3.44-1.813-1.6-2.867ZM397.533 350.853c-.28-3.306-1.813-6.613-.613-9.893 1.92 4.813 3.853 10.067 2.68 15.32-2.067-1.08-1.68-3.507-2.067-5.427ZM464.467 344.88c1.386-1.933 3.133-4.04 5.84-3.227 1.733 2.147-.187 4.054-1.267 5.934.987 2.946.467 6.093 1.213 9.08-.386 1.68-2.72 3.986 1.214 4.386-1.8.894-3.987 3.854-5.92 1.68-2.52-5.946 3.706-12.573-1.08-17.853Z"/><path d="M768.053 343.253c1.814-1.44 4.52 1.574 2.334 2.934-1.867 1.493-4.547-1.56-2.334-2.934ZM109.493 350.787c3.96-2.08.294 4.44 0 0ZM739 350.827c2.08-.96 3.68 2.493 1.147 2.946-2.054.894-3.627-2.493-1.147-2.946ZM393.747 359.96c.546-.507 1.626-1.493 2.16-2 .893 6.827-3.44 12.733-3.014 19.467 1.387-.467 2.8-.92 4.214-1.36-1.467 2.373-2.947 5-5.92 5.6-1.187-7.454 1.68-14.44 2.56-21.707ZM124.427 363.987c1.28-1.654 4.28.426 3.053 2.173-1.293 1.56-4.267-.413-3.053-2.173ZM1178.4 370.973c1.96-2.693 4.47-4.933 7.43-6.506-.32 3.973-3.71 6.28-7.43 6.506Z"/><path d="M396.147 368.507c4.453.066-2 3.973 0 0ZM1127.69 385.747c3.9-4.307 5.78-10.427 11.07-13.467 1.85.347 3.63.973 5.44 1.56-2.48 1.853-5.03 3.6-7.47 5.493-.81.24-2.46.72-3.28.96-.41 1.52-.81 3.04-1.17 4.574 3.13.066 6.29-.134 9.4-.64-.44 1.946-.16 4.253-1.55 5.866-1.9-1.666-4.04-2.96-6.54-3.36-2.42.76-4.94 1.12-7.42 1.574-1.24-1.32-2.5-2.6-3.72-3.92 1.74.453 3.47.906 5.24 1.36ZM967.573 377.24c1.254-.413 2.507-.813 3.787-1.2.493 3.92 2.133 7.533 5.8 9.387-.187.786-.56 2.373-.747 3.16-3.066-2.627-6.4-1.867-9.626-.054-.094-2.893 1.866-4.693 3.986-6.12a807.553 807.553 0 0 1-3.2-5.173ZM116.867 381.253c2.226-1.466 4.573-2.76 7.066-3.72-2.013 2.32-4.373 4.32-6.72 6.294-1.28-.947-2.56-1.867-3.84-2.814l3.494.24ZM1118.55 382.92c2.12-.72 2.84.013 2.14 2.213-2.16.734-2.86-.013-2.14-2.213ZM390.933 391.547c1.827-2.8 3.494-5.867 6.294-7.827-1 2.933-2.174 9.107-6.294 7.827ZM103.12 386.88c3.853-1.08 1.587 3.987-1.053 3.347-2.4-.267-.4-3.24 1.053-3.347ZM441.68 386.76c2.12-.667 2.813.093 2.08 2.307-2.133.653-2.827-.12-2.08-2.307ZM978.627 393.107a96.32 96.32 0 0 1 3.146-6.72c.747 1.946 1.52 3.906 2.294 5.866-1.814.294-3.64.574-5.44.854ZM968.493 394.173c-2.866-3.946 4.947-6.093 6.014-2.186.453 3.266.04 6.733 1.6 9.773 1.013-.68 3.746-5.16 4.626-1.747-.626 3.894-2.933 7.187-5.386 10.16-.387-3.32-2.16-5.666-5.654-5.653-.013-3.493.614-7.173-1.2-10.347ZM451.187 396.733c1.226-2.466 3.373-4.333 5.493-1.56-2.72 2.254-4.96 5.547-8.693 6.134-4.707.853-8.16 4.506-12.6 5.96-4.294-.04-8.467.773-12.627 1.76-.52-1.907 1.627-2.494 2.787-3.467 3.92-3.347 9.386-1.893 14.026-3.16.734-1.08 1.467-2.173 2.214-3.253.773 0 2.333 0 3.106-.014 1.827-1.44 3.987-2.186 6.294-2.4ZM964.333 403.72c.12-2.973-.68-6.413 1.787-8.68.227 2.6.413 5.213.587 7.827-.587.213-1.787.64-2.374.853ZM631.227 398.573c1.426-1.146 4.426.76 3.373 2.534-1.453 1.173-4.427-.76-3.373-2.534ZM635.52 398.973c1.867-.28 3.72-.266 5.573.054.147 3.066-4.853 2.32-5.573-.054ZM997.32 406.96c-.387-3.413 1.907-6.613 5.35-7.107-1.48 2.587-3.23 5.014-5.35 7.107ZM463.6 407.12c2.52.413 5.853.347 6.52 3.52a647.17 647.17 0 0 0-4.92-.827c-1.84 4.56-6.387 6.054-10.693 7.334-3.48-.2-7.574 2-10.36-1 6.973-1.52 16.546-.76 19.453-9.027ZM376.093 411.68c2.707-3.72 7.974-5.72 11.84-2.413-3.92 5.826-11.466 4.133-17.36 5.533-4.026.96-8.013-.507-12-.84-2.733.267-5.36 1.173-8.053 1.6 1.747-2.027 3.667-3.88 5.693-5.613 6.16 2.96 13.254 1.76 19.88 1.733ZM388.76 415.6c.947-2.707 1.773-5.453 2.933-8.08.947 1.12 1.894 2.253 2.84 3.387 3.934-1.12 8.027-1.04 12.054-.494 4.933.774 9.773-3.253 14.533-.866-.147.24-.467.733-.613.986-9.48 2.414-19.347 2.8-29.067 3.374-.187 1.56-.36 3.12-.533 4.68-3.36.68-6.4 2.24-9.4 3.813-.534-4.347 6.093-3.253 7.253-6.8ZM964.28 408.64c2.173-.72 2.907 0 2.227 2.147-2.214.72-2.947 0-2.227-2.147ZM473.613 411.547c1.627-1.76 4.854.666 2.92 2.533-1.64 2.293-5.293-.693-2.92-2.533ZM966.747 411.893c2.12-.653 2.8.12 2.04 2.32-2.147.654-2.84-.12-2.04-2.32ZM961.773 413.787c1.28-2.214 4.414.306 2.974 2.186-1.307 2.2-4.56-.293-2.974-2.186ZM973.44 414.947c3.92-.52 7.867.266 11.813.213 2.64.067 6.134.28 7.134 3.267-5.854.306-11.72.24-17.56.04-1.427-.787-1.88-1.96-1.387-3.52ZM432.427 416.293c.706.694.706.694 0 0ZM944.267 417.68c3.84-2.2.293 4.467 0 0ZM953.853 418.987c1.694.866 1.654 1.773-.12 2.72-1.693-.88-1.653-1.787.12-2.72ZM599.093 424.52c.507-1.667 1.214-3.253 1.894-4.827.453 3.6.68 7.227.68 10.867-1.187-1.853-3.867-3.587-2.574-6.04ZM972.093 421.413c7.44-1.946 15.534-.92 22.694 1.414-1.32 4.306-6.454.866-9.387.76-5.72 1.133-12.467 1.573-15.96 6.986.733.68 2.2 2.04 2.92 2.72l-1.28 2.614c.347 1.746.68 3.493 1.013 5.253 1.32-2.293 2.627-4.627 4.654-6.387-1.014 3.894-2.454 7.654-3.427 11.56 1.467 1.52 1.707 3.147.733 4.894 2.027 2.226 3.587 4.826 3.894 7.893-8.76-3.373-8.294-14.093-10.24-21.707.613-1.293 1.24-2.573 1.866-3.853-1.866-.92-3.906-1.6-5.4-3.08 1.827-3.52 3.64-8.067 7.92-9.067ZM424.427 421.48c2.12-.76 2.88-.04 2.253 2.173-2.133.747-2.88.014-2.253-2.173ZM429.36 430.227c10.307.986 20.76-3.334 30.84.253 5.853 2.4 14.227-2.6 18.427 3.653-2.387.08-4.76-.16-6.894-1.28-5.106.507-11.573 3.067-15.506-1.573-5.534 1.027-12.294-1.293-16.707 3.067-2.947-.24-5.893-.547-8.813-1.067-3.934.973-7.96 1.027-11.96.68-4 1.333-7.734 3.507-11.974 4.187 4.614-7.84 14.894-6.547 22.587-7.92ZM498 429.467c2.2-.574 2.387 2.066 3.293 3.413a296.704 296.704 0 0 1-4.946-.213l1.653-3.2ZM506.04 434.893c4.707-4.773 13.147-6.626 18.52-1.96-2.88.427-5.773.054-8.653-.053-3.227.973-6.454 2.067-9.867 2.013ZM484.16 432.173a86.023 86.023 0 0 1 10.133-1.546c-2.053 3.133-7.586 5.24-10.133 1.546ZM548.893 435.133c1.614-4.626 8.054-3.346 11.934-3-3.12 2.96-8.027 1.934-11.934 3ZM538.96 432.253c1.76-1.813 5.12 1.36 2.893 2.974-1.84 1.506-4.906-1.187-2.893-2.974ZM527.267 433.44c3.906-2.12.28 4.453 0 0ZM600.947 435.72c6.533.667 13.4-.52 19.613 2.08 2.52.64 5.2.12 7.747.72-2.227.88-4.494 1.627-6.76 2.333-6.44-3.106-13.76-2.8-20.72-3.2l.12-1.933ZM631.547 438.307c2.44-2.134 8.12-2 8.893 1.626-3-.373-5.973-.88-8.893-1.626Z"/><path d="M598.467 437.013c4.093 1.094 3.013 5.627 3.026 8.84 2.68-2.493 5.507-5.093 9.254-5.746-2.427 2.56-4.907 5.066-6.88 8a548.05 548.05 0 0 0-4.574-.094c.227-2.146.467-4.293.694-6.426a95.288 95.288 0 0 1-1.52-4.574ZM549.907 444.227c1.64-2.96 5-4.547 8.32-3.72 2.12-.214.8 2.4.786 3.493-.706-.333-2.146-.987-2.866-1.32a48.11 48.11 0 0 1-6.24 1.547ZM357.213 442.347c3.214 1.173 4.24 4.653 5.534 7.493-3.227-1.2-4.387-4.573-5.534-7.493ZM137.467 453.467c2.213-3.614 5.293-6.56 8.106-9.694.16.64.454 1.92.6 2.574-3.066 3.733-7.12 6.88-8.373 11.813-2.32 1.467-4.68 2.88-6.947 4.453.907-3.96 4.76-5.786 6.614-9.146ZM565.56 445.813c.827.36 2.467 1.08 3.293 1.44 1.827 2.12 3.48 4.467 5.76 6.16 5.4 3.414 12.374 2.827 17.534 6.76 1.52 7.96.36 16.374 3.72 23.974.706 3.666 4.053 5.56 6.586 7.893-2.586-1.56-6.853 2.133-2.533 2.92l1.493.44c.054 2.787.054 5.573-.013 8.36-1.773-1.56-2.853-3.533-2.853-5.907-1.507-.84-3.067-1.586-4.414-2.653-1.72-2.413-1.826-5.92-4.506-7.6-1.48 8.36 3.48 15.547 6.133 23.08 1.333 3.893 6.213 6.12 5.773 10.707-.053 10.92.254 21.853-.24 32.773-19.12-.027-38.24.053-57.36-.04-1.973.12-4.32-.4-5.746 1.32-6.48 5.467-11.374 12.84-18.654 17.293.254-5.786-2.44-10.986-3.973-16.4-.72-.373-2.16-1.106-2.88-1.48 2.68-2.96.347-6.426-.733-9.493 17.853-17.813 35.626-35.72 53.533-53.48.173-15.36-.04-30.707.08-46.067Zm16.413 24.694c-.306 2.373-.093 4.76.494 7.093 3.733-2.093 1.746-6.333 1.293-9.56 1.76.84 3.56 1.667 5.36 2.467-.613-1.014-1.853-3.054-2.467-4.067.64-3.36-2.32-5.6-4.106-7.973-1.08 3.92-2.947 8.186-.574 12.04Zm5.2-10.214c-.546 1.84.12 2.48 2 1.934.534-1.854-.133-2.507-2-1.934Zm-2.386 16.227c1.52 2.08 3.2 4.107 5.6 5.227-.067-2.8-.214-5.6-.28-8.4-1.627 1.306-3.334 2.506-5.32 3.173Zm8.693 63.853c-.547 2.134.267 2.92 2.44 2.347.52-2.133-.293-2.907-2.44-2.347Zm-6.493 1.28c4.466-.16-1.76 4.08 0 0Zm-33 8.014c.733.72.733.72 0 0ZM401.667 448.4c1.68.907 1.613 1.8-.214 2.653-1.693-.933-1.613-1.813.214-2.653ZM363.893 451.6c2.267 1.92 3.974 4.36 6.054 6.467 2.693 1.56 6.066.56 8.826 1.906.227 3.774-4.333 2.4-6.706 3.107-2.694-3.827-7.734-6.453-8.174-11.48ZM106.48 462.4c6.68-2.733 14.027-3.533 20.32-7.16 1.733-1.013 3.387.493 4.84 1.24-3.947 1.227-7.627 3.307-11.693 4.147-8.627 1.36-16.6 5.266-25.227 6.653 2.467-3.853 7.933-3.147 11.76-4.88Z"/><path d="M560.307 456.627c2.133-.84 2.92-.174 2.36 2.013-2.16.84-2.947.16-2.36-2.013ZM598.12 457.547c1.667-.84 4.307 1.586 3.413 3.32-1.706.653-3.986-1.627-3.413-3.32ZM396.187 464.28c1.053-2.667 2.4-5.44 5.613-5.867-.947 2.68-3.027 4.747-5.613 5.867ZM539.6 460.933c1.973-2.4 5.28-1.026 7.92-1.293l.213 1.187c-2.706.226-5.426.386-8.133.106ZM597.72 461.613c.6.8.6.8 0 0ZM549.547 462.64c2.213-.653 2.986.08 2.306 2.2-2.213.627-2.973-.107-2.306-2.2ZM1130.23 466.053c.34-.906 1.04-2.72 1.4-3.626a238.79 238.79 0 0 0 1.76 7.24c-1.19-.027-2.38-.067-3.54-.08-.86.773-1.73 1.533-2.61 2.266-.25-1.64-.43-3.266-.53-4.906.88-.227 2.64-.667 3.52-.894ZM324.107 465.987c4.466-.2-1.774 4.08 0 0ZM382.4 465.04c3.507 1.96 7.627 3.493 9.947 6.96-3.987-.547-9.12-2.56-9.947-6.96Z"/><path d="M374.213 467.693c4.36.027 7.32 3.614 11.094 5.254 8.026 3.533 15.52 8.453 24.173 10.4 10.307 1.813 20.28 5.146 30.493 7.413l4.12-.267c2.107.534 4.214 1.094 6.334 1.64l-.654 2.187c5.2-2.613 12.107-4.267 17.147-.52-3.68.853-7.92-1.613-11.133 1.04 4.466.72 9.48 2.08 13.6-.56 8.986.64 17.613-3.413 26.586-2.44 2.667 1.227 3.467 4.333 4.48 6.827-28.906 3.986-58.12-1.814-85.786-10.054-8.574-2.786-16.534-7.053-24.72-10.706-5.734-2.574-11.267-5.76-15.734-10.214ZM1132.07 472.2c2.09-.76 2.86-.04 2.29 2.173-2.13.747-2.89.027-2.29-2.173Z"/><path d="M393.92 474.533c5.64 1.774 12.507-2.306 17.12 2.374-5.667-1.254-12.947 3.226-17.12-2.374ZM148.373 480.333c4.44.467-2.293 3.827 0 0ZM896.053 485.227c4.4.253-2.093 3.973 0 0ZM145.72 488.533c.853.64.853.64 0 0ZM159.227 491.053c4.013-.253-.4 5.6-2.64 3.587-.947-1.68 1.2-3.253 2.64-3.587ZM876.88 493.24c3.453 3.107 7.707 2.053 11.333-.08 1.934 3.28 1.294 7.16 1.227 10.787.613.36 1.853 1.106 2.467 1.466 1.773 4.187 4.08 8.227 4.613 12.814 2.547 3.4 5.32 6.613 8.28 9.68-1.173 5.786 3.64 10.333 4.173 15.906.774 3.494-.026 7.027-1.36 10.28l-5.893.08c-.933-2.866-1.853-5.746-2.76-8.586 1.12.293 3.347.88 4.467 1.173-1.24-3.707-3.347-7.267-6.827-9.24-.107-.587-.307-1.76-.413-2.347-4.947-5.146-7.014-12.2-10.307-18.373 1.013.027 3.04.067 4.053.093-1.986-2.08-4.24-3.84-6.533-5.533-.8.76-2.413 2.293-3.227 3.053a123.137 123.137 0 0 0-4.533-3.04c.28 1.907 1.24 3.574 2.32 5.147.707 2.8 2.373 4.853 5.4 5.267-.427 1.946-.733 3.973-1.733 5.746l-3.04-2.466c.52 2.36 1.186 4.72 1.92 7.04 1.173-1.387 1.76-2.96 1.786-4.747.507.267 1.534.787 2.054 1.053.986 2.267 2 4.547 2.973 6.84 1.6.84 4.347.56 4.973 2.654 1.134 3.426 1.907 7.066 4.294 9.933-1.067 1.253-2.16 2.48-3.227 3.733 1.067.08 3.227.254 4.293.334-2.013 2.013-4.506 2.8-7.466 2.346-.147-2.546 1.066-5.88-1.96-7.173-.587 2.253 1.6 6.213-1.294 7.373-1.44-2.173-2.613-4.466-3.986-6.666-.534 2.333.48 4.4 1.8 6.28-13.294 0-26.614.373-39.88-.094-1.614-1.773-.054-4.253.24-6.226-.707-3.64-1.334-7.387-.667-11.08.48-.227 1.427-.694 1.907-.92.693 3.413 2.96 7.293 6.826 7.4-1.533-.974-3.88-2.174-3.546-4.347.36-2.333 1.866-4.253 3.013-6.253-2.253-1.894-4.76-3.987-7.88-2.587l-.76-2.88c1-.227 2.987-.667 3.987-.893-5.374-3.867-3.48-10.76-3.854-16.44 2.774.8 2.52 3.813 3.174 6.08.466-.867 1.4-2.587 1.866-3.454 2.654 2.214 6.28 3.68 7.374 7.267.453-.32 1.333-.96 1.773-1.28.907.613 2.733 1.827 3.64 2.44-1.267-2.707-2.093-5.587-2.253-8.573-.96.48-1.92.96-2.867 1.44-2.253-3.094-5.973-4.427-8.693-6.96-.494-2.614-.427-5.267-.68-7.894-3.04.667-3.014 4.854-1.76 7.094l-1.507-.08c.027-3.587.013-7.174.173-10.747 4.48-.08 9.427-.867 13.134 2.307.826-.854 1.666-1.707 2.506-2.56 5.8.253 11.28 2.853 17.147 2.2-.067-.947-.2-2.84-.28-3.787Zm-14.173 13.387c-1.08 3.106 1.72 5.426 3.76 7.293 1.64.067 3.12-.867 4.72-1.16-.04 1.08-.107 3.24-.134 4.32a162.71 162.71 0 0 1 2.654-1.133c-.574-1.574-1.107-3.12-1.694-4.654-4.08.32-6.106-3.16-9.306-4.666Zm4.333 11.24c-1.48 1.266-.813 4.293 1.253 4.48 2.734-.347 1.24-5.907-1.253-4.48Zm5.253 4.68c2.267-.054 4.094-1.627 6.08-2.56a19.688 19.688 0 0 0-3.866-2.374c-1.614 1.12-2.707 2.907-2.214 4.934Zm-4.333 1.973c.907 2.6 1.52 5.347.6 8.053 1.92 2.12 4.747 2.574 7.36 3.374-1.107.32-3.347.933-4.453 1.253 1.866 2.56 4.426 4.48 7.733 4.587a640.333 640.333 0 0 0-2.707-3.747c2.2-.627 3.934-.12 5.227 1.533.8-1.026 1.613-2.04 2.427-3.053-.907.187-2.734.547-3.64.72l.12-2.107c-.68.054-2.027.187-2.694.254-.32-2.48-2.826-2.414-4.506-3.24-1.934-2.494-2.507-6.014-5.467-7.627Zm-3.653 10.413c-2.04.467-2.56 4.454-.254 4.867 2.267-.267 2.747-4.653.254-4.867Zm-12.027 1.72c4.427.067-1.973 4.027 0 0Zm35.653 6.627c.92-1.867.147-4.787-1.706-5.787-2.44.867-.387 5.787 1.706 5.787Zm-36.013 4.88c-.773 1.573-.453 2.907.96 4 1.987-.2.92-4.68-.96-4ZM293.187 504.4c4.466-.04-1.907 4.013 0 0ZM529.573 504.027c1.974-.68 2.534-.08 1.707 1.76-1.973.653-2.547.066-1.707-1.76ZM150.907 511.627c1.12-2.32 3.026-4.054 5.24-5.32.08 3.12-2.774 4.426-5.24 5.32ZM148.08 513.467c4.48-.134-1.8 4.08 0 0ZM132.067 528.293c2.613-3.613 4.24-9.173 9.36-9.773-2.974 3.293-4.547 8.947-9.36 9.773ZM140.4 530.267c1.147-4.347 4.827-7.64 7.227-11.4.973 1.333 1.946 2.693 2.92 4.053-2.48 1.293-6.52 2-4.787 5.773-1.733.68-3.44 1.667-5.36 1.574ZM514.88 569.373c2.053-1.4 3.6 2.44 2.28 3.854-2.053 1.32-3.573-2.454-2.28-3.854Z"/></g><defs><clipPath id="a"><path fill="#fff" d="M0 0h1333.33v596H0z"/></clipPath></defs></svg>