<svg width="658" height="406" viewBox="0 0 658 406" fill="none" xmlns="http://www.w3.org/2000/svg">
<path d="M508.076 3.91181C515.476 -0.261524 524.543 -1.19486 532.596 1.59181C547.77 6.65848 560.596 20.6051 561.916 36.8851C562.796 45.4585 558.716 53.5251 553.49 60.0185C543.05 72.8451 529.223 82.1651 516.396 92.3518C498.41 107.365 480.45 122.405 462.53 137.512C470.103 150.458 476.423 164.312 479.77 178.978C479.25 178.685 478.21 178.112 477.69 177.818C474.29 170.738 474.036 161.765 467.73 156.405C464.41 149.898 461.13 143.365 457.223 137.178C460.996 132.965 466.276 129.938 469.036 124.938C467.45 119.018 465.41 111.978 459.25 109.338C452.143 99.7118 444.236 90.3652 434.01 83.9118C430.023 81.4185 425.343 79.2718 420.53 80.2185C419.53 79.8318 417.53 79.0318 416.516 78.6318C435.596 62.2452 455.503 46.8318 474.09 29.8718C484.73 20.4051 495.45 10.6985 508.076 3.91181Z" fill="#19202A"/>
<path d="M90.0629 32.8318C94.2096 13.8985 113.236 -1.92821 132.97 0.271788C143.343 2.24512 151.97 8.89846 160.183 15.1518C169.356 22.3651 177.89 30.3385 186.556 38.1251C202.143 51.4318 218.05 64.3518 233.73 77.5518C225.41 77.0318 217.103 79.8851 211.263 85.9385L213.023 86.9118C204.303 93.9251 196.823 102.432 190.73 111.805C188.21 115.832 185.743 120.072 184.796 124.792C186.823 128.272 190.65 130.272 193.37 133.192C194.156 134.578 194.85 136.005 195.57 137.432C190.356 145.578 186.183 154.312 182.383 163.178C180.743 164.818 178.956 166.445 178.33 168.765C175.69 176.698 173.436 184.818 172.063 193.072C171.543 195.245 172.223 197.365 172.85 199.432C175.343 197.845 177.85 195.818 180.97 195.885C184.116 195.832 186.636 197.898 189.05 199.618C193.01 194.005 199.183 189.285 206.356 189.498C213.41 189.578 218.516 195.285 223.09 199.952C223.29 200.178 223.716 200.645 223.93 200.872C225.703 195.632 228.756 190.752 233.916 188.298C237.17 189.192 240.076 190.898 242.676 193.032C246.943 187.978 252.836 183.565 259.77 183.752C266.116 183.445 270.503 188.592 275.196 192.005C270.743 178.125 263.116 165.458 254.196 154.005C252.53 155.938 250.85 157.858 249.236 159.832C248.85 157.152 249.25 154.472 250.116 151.925C267.036 132.565 291.596 120.112 317.196 117.832C344.183 115.205 371.943 124.178 392.503 141.778C396.716 138.325 402.236 135.538 407.823 137.138C413.183 138.938 417.636 143.165 419.836 148.378C423.676 144.218 428.423 140.192 434.33 139.792C440.223 139.298 445.343 143.378 448.823 147.712C453.556 154.858 451.25 163.965 448.556 171.432C442.543 187.232 435.716 202.752 427.93 217.778C428.063 218.498 428.316 219.965 428.436 220.698C432.85 212.978 437.57 205.445 441.596 197.512C444.263 192.298 450.756 188.912 456.463 191.085C462.663 193.858 468.196 199.098 469.37 206.045C471.69 201.778 474.436 197.472 479.116 195.525C479.623 195.658 480.636 195.938 481.143 196.085C480.29 191.445 479.503 186.712 480.316 182.005C481.93 186.125 482.503 190.525 483.223 194.858C487.85 195.872 491.343 199.058 494.903 201.978C500.316 198.885 507.25 199.245 511.623 204.018C520.823 202.672 529.836 209.832 531.81 218.672C540.21 215.565 549.09 219.912 553.29 227.432C557.05 222.885 561.61 218.192 567.85 217.632C574.53 216.525 580.303 220.818 585.076 224.912C589.663 228.832 592.636 234.218 594.876 239.752C596.063 235.538 598.57 230.365 603.676 230.392C609.37 229.552 613.01 234.672 616.93 237.792C621.196 235.805 626.156 234.912 630.676 236.645C637.796 239.712 643.97 245.512 646.476 252.965C649.063 259.738 648.57 267.218 646.85 274.138C651.263 276.352 656.01 279.525 656.996 284.738C658.356 290.632 654.01 295.765 651.41 300.658C646.303 308.698 639.45 317.672 629.156 318.498C619.143 318.818 611.636 309.445 610.796 300.072C608.65 304.952 604.036 309.232 598.37 308.712C593.583 308.978 589.85 305.605 586.556 302.632C578.77 303.818 571.33 299.472 567.116 293.125C558.903 297.085 549.476 292.485 545.33 284.898C542.023 286.872 538.263 288.818 534.29 287.925C527.756 286.525 523.116 280.645 521.65 274.352C519.783 267.965 520.21 261.245 520.423 254.685C515.543 262.218 508.53 267.885 501.676 273.498C495.93 286.005 490.583 299.192 481.01 309.405C493.276 320.512 505.503 331.672 517.743 342.805C522.77 347.165 527.956 351.778 534.49 353.685C543.303 356.685 553.756 358.245 559.65 366.245C563.996 372.112 563.17 380.085 559.77 386.178C554.836 395.352 546.503 403.912 535.756 405.365C527.103 406.285 519.783 399.952 515.836 392.832C511.81 386.858 510.61 379.112 505.063 374.178C498.076 367.685 489.983 362.525 482.503 356.645C469.49 346.472 456.463 336.312 443.596 325.952C417.543 354.458 380.863 373.072 342.37 376.778C293.023 382.192 241.836 362.298 208.823 325.272C195.29 335.992 181.77 346.698 168.156 357.285C160.636 363.152 152.503 368.285 145.636 374.938C141.516 378.805 140.236 384.538 137.556 389.338C134.276 395.858 129.53 402.578 122.156 404.698C116.556 406.538 110.49 404.712 105.663 401.698C98.4762 397.085 92.9962 390.045 89.8762 382.125C90.8362 380.592 91.7829 379.058 92.7296 377.538C95.1162 387.272 103.343 395.405 113.023 397.938C122.436 400.285 130.85 392.045 133.41 383.658C133.876 375.165 127.17 368.952 123.276 362.098C128.303 365.845 132.783 372.418 139.836 371.538C142.076 370.405 143.97 368.712 145.916 367.152C164.876 350.712 185.25 336.005 204.836 320.325C204.503 319.938 203.863 319.152 203.543 318.765C205.17 318.632 206.81 318.512 208.45 318.392C229.703 343.605 259.143 361.885 291.33 369.232C314.663 374.805 339.236 374.405 362.596 369.152C365.183 369.952 367.903 370.045 370.463 369.085C376.743 367.045 383.196 365.232 389.05 362.125C389.29 361.538 389.783 360.365 390.023 359.792C414.143 348.605 435.303 331.365 451.196 310.072C445.476 303.685 443.61 294.645 445.903 286.418C447.556 275.538 456.063 267.432 465.49 262.645C464.516 261.578 463.556 260.512 462.596 259.458C461.476 260.912 460.45 262.472 459.17 263.805C454.85 265.365 450.796 267.738 446.303 268.792C441.956 268.978 437.623 267.858 433.276 268.485C431.25 267.325 429.41 265.872 427.57 264.458C423.85 266.938 419.396 267.632 415.263 269.018C414.956 269.405 414.33 270.192 414.023 270.578C413.183 269.952 411.49 268.712 410.65 268.085C406.943 265.965 403.396 263.485 401.13 259.778C395.983 264.432 389.036 267.032 382.076 265.672C386.97 272.458 391.716 279.445 397.836 285.218C398.903 286.192 399.983 287.152 401.09 288.098C386.103 304.285 365.783 315.552 343.983 319.138C322.116 322.938 298.983 319.498 279.316 309.165C261.836 299.965 247.116 285.632 237.503 268.378C232.17 272.298 224.756 271.952 219.69 267.765C215.276 271.618 209.356 274.525 203.383 272.925C197.836 271.778 194.356 266.845 192.09 262.045C191.77 264.898 191.33 267.792 190.156 270.458C186.036 272.392 182.65 275.485 179.663 278.858C176.836 278.725 174.05 278.298 171.33 277.565C167.636 279.218 163.863 281.045 159.73 281.152C156.13 281.298 152.89 279.525 149.676 278.178C144.503 284.845 134.223 286.925 127.596 281.178C124.05 286.952 117.543 291.645 110.463 289.512C101.73 286.605 98.5562 276.378 98.4096 268.045C96.6362 270.098 94.5829 271.912 92.3162 273.418C88.8896 287.778 78.9829 300.858 64.9696 306.178C57.6362 309.245 48.6362 309.685 42.0096 304.712C38.3162 311.032 33.4629 317.165 26.5696 320.138C20.6496 322.685 12.9296 322.525 8.1029 317.818C2.08957 312.592 0.916236 303.778 2.64957 296.365C3.7429 291.098 4.9029 284.725 9.9829 281.792C14.2762 279.685 18.0229 283.312 21.1296 285.765C21.7962 282.685 22.5562 279.632 23.3162 276.578C10.8496 274.152 1.23624 262.818 0.209569 250.285C-1.32376 232.192 5.64957 213.698 18.0896 200.578C28.5829 189.925 42.1429 181.565 57.0496 179.152C72.9562 176.712 88.5962 188.565 92.6496 203.698C94.0629 208.085 94.0229 212.738 93.9962 217.312C97.6896 218.965 100.823 221.552 103.69 224.365C107.276 221.578 111.01 218.418 115.743 218.058C119.703 218.165 122.716 220.845 125.556 223.272C127.53 218.645 129.57 214.005 132.596 209.965C126.93 203.778 127.263 194.578 130.156 187.218C132.45 182.125 138.756 178.498 144.116 181.312C148.196 177.525 154.77 175.952 159.263 179.992C168.903 185.205 170.01 199.445 162.436 206.925C164.263 208.618 166.143 210.258 168.09 211.805C169.063 185.965 176.836 160.485 189.97 138.245C171.37 122.858 152.97 107.232 134.423 91.8051C121.73 81.8585 108.223 72.5785 97.9429 59.9918C91.6629 52.5385 87.8496 42.6051 90.0629 32.8318ZM307.743 123.698C290.93 127.192 274.463 134.645 262.023 146.658C268.996 154.365 274.13 163.512 279.036 172.618C282.05 162.365 284.076 151.405 290.69 142.698C294.143 138.258 299.116 134.098 305.063 134.312C309.943 134.098 314.063 137.445 317.036 140.965L315.356 140.045C321.01 150.672 319.77 163.298 315.996 174.298C314.943 177.872 312.89 181.378 313.636 185.232L314.396 183.845C320.423 185.618 325.663 189.738 329.076 194.978C332.956 188.965 338.503 183.565 345.596 181.712C349.17 180.832 353.316 180.645 356.463 182.872C359.316 185.112 363.09 185.072 366.263 186.632C371.756 171.632 380.343 157.965 389.503 144.978C367.29 126.072 336.37 117.872 307.743 123.698ZM290.37 156.818C283.716 177.525 278.61 198.898 277.436 220.685C276.476 224.992 273.383 228.512 271.01 232.152C267.716 236.245 264.823 241.365 259.57 243.125C262.223 230.205 268.663 218.178 269.623 204.912C270.263 198.978 267.53 191.898 261.116 190.565C254.676 189.925 249.276 194.605 246.05 199.725C241.97 199.992 241.77 205.485 239.85 208.285C239.236 203.752 241.183 197.832 236.636 194.832L237.263 197.112C234.916 194.578 230.636 195.152 229.476 198.538C227.756 207.445 226.81 216.512 225.023 225.405C220.476 233.938 216.023 243.632 207.516 248.872C209.063 237.125 214.116 226.165 215.69 214.432C215.97 209.752 216.41 204.485 213.53 200.458C211.716 197.698 208.356 195.845 205.023 196.378C199.09 196.912 194.783 201.912 192.383 206.992C188.236 215.938 185.77 225.538 183.436 235.085C183.023 225.472 185.036 215.912 184.85 206.285C184.623 204.205 182.463 203.245 181.116 201.978C179.49 202.858 178.09 204.005 176.93 205.392L177.236 202.912C176.69 203.552 175.596 204.818 175.036 205.458C173.023 215.085 172.876 225.045 170.703 234.645C169.863 238.778 166.263 242.872 167.903 247.098C165.53 251.272 164.09 258.178 158.383 258.512C155.97 250.058 158.583 241.352 159.943 232.965C160.823 229.098 157.783 225.965 154.37 224.858C146.583 227.858 148.85 237.258 146.543 243.632C144.196 250.938 142.836 259.672 136.29 264.512C133.196 260.938 133.89 255.925 134.09 251.565C135.13 242.285 137.263 232.805 142.29 224.792C143.596 223.152 145.263 220.725 147.636 221.058C150.156 222.485 152.343 225.392 155.596 224.592C160.103 223.205 161.236 217.218 159.143 213.498C156.17 209.752 151.356 206.845 146.436 207.792C141.93 208.872 138.57 212.458 136.023 216.125C135.423 216.378 134.25 216.885 133.65 217.125C127.103 226.485 127.01 238.352 124.01 248.978C123.49 251.858 120.716 254.965 122.61 257.792C120.33 262.792 117.916 268.232 113.17 271.352C110.663 266.298 111.303 260.512 112.17 255.152C112.543 257.565 113.116 259.938 113.663 262.325C113.89 253.218 116.516 244.525 119.97 236.178L118.356 236.858C120.93 233.405 121.33 227.512 117.263 225.018C114.263 224.312 111.956 226.525 109.676 228.058C105.53 231.112 100.983 233.618 96.1029 235.272C96.2496 231.525 97.2762 226.192 93.1029 224.205C89.3029 223.818 85.9429 226.258 84.0629 229.392C83.2229 227.685 82.3829 225.978 81.5429 224.272C85.7829 213.738 85.4762 200.112 76.9296 191.778C69.9162 184.472 58.3962 184.512 49.5029 187.965C35.4362 193.285 22.3029 202.632 14.6896 215.845C9.56957 224.965 5.63624 235.578 7.44957 246.178C8.59624 254.978 16.0496 263.165 25.1962 263.498C26.6362 262.712 27.9296 261.725 29.0762 260.552C29.7562 262.672 30.4762 264.778 31.2896 266.858L31.8362 265.698C31.6896 266.618 31.3829 268.458 31.2362 269.378C30.8762 268.765 30.1696 267.565 29.8096 266.952C28.3962 274.205 27.1829 281.552 24.7296 288.552C24.1962 290.658 22.8629 292.858 23.7829 295.072C22.4496 297.685 20.0229 299.845 17.0362 300.258C11.4362 298.605 13.2762 291.538 13.4896 287.245C8.7029 291.912 7.15624 300.872 11.6896 306.272C14.8096 309.925 20.3029 308.845 23.8896 306.525C30.2096 302.498 33.5162 295.445 36.4096 288.818C36.4496 289.392 36.5162 290.525 36.5429 291.098C37.1296 290.205 38.3162 288.392 38.9029 287.498C40.1962 289.205 41.5696 290.858 43.0762 292.405L42.3696 290.032C45.4762 293.978 50.6096 296.178 55.5696 294.792C69.6229 292.258 80.0629 279.592 82.8229 266.005C83.2362 266.538 84.0762 267.592 84.4896 268.112C84.7562 265.858 84.9696 263.618 85.1829 261.365C86.2362 261.125 87.3029 260.898 88.3696 260.672C90.3029 256.512 91.7562 252.178 93.2496 247.845C97.5696 248.472 101.783 247.338 105.623 245.418C105.29 247.992 104.956 250.565 104.69 253.165L104.396 252.352C103.983 251.685 103.156 250.338 102.743 249.672C102.143 258.218 102.076 267.725 106.81 275.218C108.716 278.525 112.596 278.632 115.943 278.045L115.303 276.125C121.623 270.365 123.65 261.792 126.996 254.258C127.49 259.458 127.21 265.432 131.21 269.432C133.756 272.405 138.543 271.472 140.943 268.805C144.863 264.858 146.143 259.298 147.796 254.192C148.916 259.525 150.596 266.818 157.023 267.805C164.223 268.672 167.983 261.525 170.436 255.992C170.156 259.138 170.196 262.912 173.223 264.805C176.623 267.045 181.01 263.965 181.57 260.352C183.463 247.938 186.996 235.685 192.69 224.458C194.77 220.298 197.476 216.272 201.49 213.778C200.236 226.312 197.116 238.845 198.103 251.498C198.103 256.778 203.383 262.258 208.756 259.365C216.663 254.858 219.37 245.405 223.29 237.818C223.223 242.845 220.93 247.778 221.77 252.832C222.303 255.752 224.916 257.965 227.85 258.178C230.61 257.445 233.01 255.205 233.463 252.325C233.823 252.872 234.556 253.965 234.916 254.498C236.33 243.565 240.49 233.352 244.303 223.125L243.77 221.245C245.463 217.832 247.303 214.392 250.01 211.645C250.436 212.258 251.303 213.485 251.73 214.098C250.69 223.072 248.156 231.858 247.716 240.912C247.77 243.485 247.29 246.485 249.33 248.512C249.463 247.845 249.716 246.525 249.85 245.858C250.543 250.818 255.183 256.458 260.65 253.698C269.756 248.525 273.316 237.752 277.49 228.752C278.356 233.432 278.303 238.352 280.356 242.752C282.236 247.445 286.196 252.205 291.676 252.178C299.996 252.698 306.21 246.032 310.556 239.765C317.063 238.378 321.103 232.525 324.956 227.618C324.583 234.605 324.943 242.578 330.076 247.938C334.316 252.725 341.89 252.845 347.156 249.765C352.916 246.632 356.556 240.938 359.77 235.432C364.556 235.005 369.09 232.778 372.103 228.992C372.583 228.685 373.53 228.072 374.01 227.765C373.943 235.178 374.41 243.338 378.93 249.538C381.663 253.418 387.33 253.245 391.023 250.872C396.996 247.418 399.756 240.832 403.356 235.298C403.65 241.205 404.236 247.698 408.196 252.418C411.423 256.218 417.263 255.352 420.93 252.698C424.09 250.858 425.876 247.552 428.57 245.192C428.596 255.818 442.903 261.672 450.49 254.472C455.45 248.898 459.77 242.765 464.983 237.405C464.623 242.618 465.33 248.725 470.183 251.792C475.636 255.245 482.503 252.685 486.663 248.405C484.81 252.752 483.53 257.338 481.73 261.712C475.423 265.698 468.09 267.978 462.103 272.565C457.503 275.538 454.49 280.285 452.356 285.218L452.45 282.778L450.81 283.898C447.81 292.165 452.596 303.112 461.956 303.952L460.503 302.485C466.623 303.578 472.53 300.752 476.063 295.778C483.103 286.658 487.93 276.045 492.263 265.432C493.29 262.165 496.73 260.805 499.103 258.685C507.023 252.712 513.25 244.698 517.143 235.565C519.09 236.872 521.076 238.178 523.29 239.045L521.876 239.952C523.063 240.312 525.423 241.032 526.596 241.378C525.596 251.418 523.183 262.098 527.956 271.618L529.463 270.898C531.116 273.178 534.01 275.885 537.01 274.245C543.036 271.232 545.743 264.725 549.396 259.485C548.97 265.845 548.61 273.005 552.89 278.258C555.29 281.538 560.583 282.312 563.49 279.258C566.463 277.005 567.396 273.258 569.57 270.392C569.57 277.672 571.876 286.952 579.823 289.232C584.716 291.072 588.183 286.472 590.85 283.165C590.77 284.245 590.61 286.418 590.53 287.512C589.996 292.618 596.543 298.245 600.823 293.792C603.81 283.245 608.343 272.965 614.943 264.165C617.156 261.005 620.503 258.938 624.17 257.938C622.303 268.325 618.836 278.405 617.716 288.938C617.263 293.818 617.756 299.512 621.69 302.938C624.53 305.938 629.516 305.672 632.636 303.232C639.05 298.578 642.943 291.405 646.596 284.552C647.503 283.112 647.25 281.805 645.836 280.658C642.916 283.845 640.223 287.285 636.81 289.978C633.956 292.232 630.81 295.085 626.903 294.458C628.93 287.365 632.196 280.725 635.063 273.952L635.103 276.578C639.876 271.312 639.69 263.765 639.796 257.112C639.823 253.965 639.61 249.845 636.316 248.298L636.703 250.525C633.996 246.085 629.53 241.752 623.863 242.605C617.703 243.325 614.756 249.485 612.023 254.258C607.596 249.858 614.69 243.352 609.743 239.325L609.61 241.378C608.396 238.712 604.17 234.552 602.05 238.685L600.303 238.072C598.21 246.832 595.41 255.458 594.09 264.378L595.61 263.032C592.223 269.872 588.25 277.152 581.476 281.165C580.53 279.845 578.53 278.872 578.81 276.992C578.716 269.952 580.916 263.152 583.236 256.605C584.69 252.485 582.29 247.712 578.57 245.698C576.023 244.445 573.116 246.045 572.57 248.752C570.57 256.872 567.81 265.165 562.29 271.632C560.85 273.378 557.583 275.672 556.396 272.365C554.703 266.392 556.77 260.005 558.41 254.178C560.823 247.552 563.77 240.058 570.596 236.845C574.156 238.872 575.756 242.832 578.583 245.645C581.05 245.978 583.69 245.552 584.743 242.965C586.476 237.018 581.996 231.778 578.103 227.872C574.356 224.072 567.943 222.778 563.57 226.285C555.85 232.378 553.103 242.312 550.49 251.352C546.85 258.498 542.45 266.098 534.903 269.672C532.103 265.698 533.21 260.645 534.103 256.218C535.57 249.445 538.01 242.458 543.223 237.632C547.596 233.978 545.316 226.338 540.41 224.245L542.45 224.005L540.956 222.578C535.37 222.018 529.783 224.325 524.116 223.605C524.036 220.298 523.836 217.005 523.383 213.738L521.823 215.018C520.116 212.085 516.716 210.112 513.29 210.698C510.89 211.338 509.676 213.578 508.25 215.378C508.263 212.165 507.596 208.498 504.41 206.952C501.196 204.858 497.756 208.338 497.143 211.418C495.103 218.872 493.21 226.392 490.97 233.792C488.996 238.338 485.983 242.885 481.37 245.058C480.01 244.085 478.516 243.392 476.876 243.005C476.703 235.472 482.063 229.485 484.263 222.578L482.316 223.472C484.036 220.218 486.09 217.152 487.916 213.952C490.263 210.165 488.716 204.632 484.85 202.498C482.13 200.872 478.81 202.645 477.45 205.205C472.396 213.138 468.49 221.818 465.996 230.885C463.036 235.178 459.463 239.032 456.116 243.018C456.956 237.352 456.383 231.645 455.263 226.058C454.13 220.192 455.516 214.112 458.636 209.085C461.543 204.285 457.663 196.418 451.676 197.272C448.33 197.938 446.943 201.285 445.556 203.978C440.556 213.898 433.73 222.778 429.076 232.872C425.543 238.672 421.223 244.992 414.236 246.725C411.436 240.672 412.89 233.858 413.303 227.485C414.023 223.218 413.73 218.552 416.143 214.765C423.73 200.898 430.103 186.405 436.05 171.778C438.396 165.258 441.983 158.698 441.316 151.565C441.09 147.805 436.49 145.605 433.183 146.872C426.343 149.045 422.263 155.592 418.916 161.498C409.076 180.925 404.956 202.672 402.93 224.178C399.21 231.965 394.53 240.552 386.263 244.232C386.076 235.312 386.65 226.392 386.143 217.485C384.116 220.952 384.93 225.058 384.97 228.858C385.303 233.672 384.73 238.525 385.29 243.325C383.836 241.992 384.01 239.738 383.636 237.952C383.25 230.458 384.21 222.965 385.116 215.552C393.956 197.232 402.476 178.672 408.81 159.312C409.863 155.285 411.596 150.818 409.876 146.712C408.21 142.952 403.143 142.698 400.023 144.698C393.836 148.365 390.103 154.872 386.943 161.112L387.196 158.538C384.303 161.112 383.41 164.992 381.996 168.432C380.57 172.512 378.783 176.552 378.33 180.898C378.676 181.298 379.37 182.112 379.716 182.525C376.356 195.298 374.596 208.418 373.596 221.565C370.89 224.752 366.996 226.578 363.196 228.112C366.583 218.752 370.063 208.498 367.516 198.498C366.156 193.552 361.09 190.725 356.13 191.512C352.823 185.725 345.316 187.912 341.076 191.338C332.77 197.938 328.876 208.378 326.29 218.338C325.796 220.458 324.156 222.032 322.69 223.525C319.756 219.898 323.516 215.578 323.556 211.538C324.09 205.032 325.476 196.218 318.93 192.165L319.85 194.592C317.436 192.178 314.063 189.965 310.49 190.925C305.156 192.272 301.73 197.152 299.263 201.738C294.33 211.245 292.823 223.392 298.25 233.005C299.316 235.112 301.836 236.192 302.543 238.458C299.556 240.858 295.73 243.338 291.743 242.218C287.85 239.658 288.396 234.218 288.09 230.152C288.65 220.605 289.836 210.765 294.156 202.098C297.89 193.565 301.956 185.192 305.383 176.538L307.103 177.018C311.303 166.685 314.45 155.645 312.77 144.392L311.25 145.378L311.116 146.592C310.276 143.205 307.29 139.912 303.49 141.005C296.65 143.445 292.796 150.378 290.37 156.818ZM149.676 185.565C146.556 188.592 146.876 194.312 150.57 196.765C155.05 198.245 158.476 192.765 157.356 188.818C156.983 185.338 152.396 182.578 149.676 185.565ZM137.676 187.872C133.05 190.885 134.623 201.365 141.143 199.552C147.69 197.178 144.89 184.205 137.676 187.872ZM394.343 225.952C396.596 225.512 397.583 221.845 396.756 219.845C394.343 219.778 393.623 224.085 394.343 225.952ZM308.463 260.565C301.396 266.112 290.743 267.458 283.076 262.365C277.783 273.272 270.73 283.325 262.276 292.005C279.77 307.485 302.956 316.485 326.37 316.192C349.476 316.552 372.263 307.792 389.81 292.858C378.503 281.005 368.956 267.098 364.01 251.378C358.17 260.072 347.81 266.992 336.956 264.872C328.903 263.712 323.076 257.045 319.85 249.992C315.463 252.872 312.876 257.712 308.463 260.565ZM243.756 255.112C243.423 258.592 242.53 261.992 240.676 264.978C244.65 271.885 249.01 278.658 254.583 284.392C260.503 278.005 265.81 271.058 270.316 263.605C266.263 265.978 261.783 268.538 256.863 267.485C250.316 266.712 245.85 260.938 243.756 255.112ZM455.063 311.578L455.636 313.165L454.343 312.458C452.17 315.365 449.916 318.218 447.53 320.965C462.596 333.032 478.023 344.632 493.116 356.658C499.276 361.525 504.863 367.152 511.423 371.512C518.636 372.618 523.063 365.752 528.25 362.072C524.73 368.218 519.223 373.538 518.156 380.845C517.343 384.658 519.836 388.005 521.93 390.925C525.41 395.658 531.183 399.258 537.25 398.152C545.65 396.618 552.716 390.485 556.716 383.112C559.796 377.832 559.183 370.472 554.49 366.312C548.556 361.058 540.423 359.885 533.183 357.378C525.13 355.138 519.076 349.072 512.93 343.778C501.29 333.085 489.556 322.472 477.876 311.832C477.356 312.125 476.316 312.738 475.796 313.045L476.623 311.405C472.796 312.232 469.05 313.725 465.09 313.805C461.663 313.552 458.396 312.285 455.063 311.578Z" fill="#182029"/>
<path d="M496.45 254.045C500.943 241.779 504.716 229.245 507.876 216.578C507.21 222.978 509.21 229.779 514.61 233.659C512.13 242.912 504.236 249.219 496.45 254.045Z" fill="#182029"/>
<path d="M242.25 84.8318C270.596 66.7251 304.956 58.3918 338.45 61.0585C363.73 62.7651 388.436 70.9518 409.943 84.2985C412.103 82.3785 414.303 80.4985 416.516 78.6318C417.53 79.0318 419.53 79.8318 420.53 80.2185C417.863 82.1518 415.37 84.3118 412.876 86.4451C431.13 98.4318 446.943 114.125 458.943 132.378C461.57 129.925 464.836 127.925 466.716 124.805C465.503 119.125 462.223 114.218 459.25 109.338C465.41 111.978 467.45 119.018 469.036 124.938C466.276 129.938 460.996 132.965 457.223 137.178C434.663 100.898 396.37 74.8185 354.29 67.2851C325.556 62.3385 295.276 64.8851 268.276 76.1918C238.436 88.3385 212.543 110.032 195.57 137.432C194.85 136.005 194.156 134.578 193.37 133.192C205.343 115.005 220.903 99.1918 239.036 87.1118C235.636 84.3118 232.636 79.7785 227.77 79.8985C222.196 80.4585 217.45 83.7518 213.023 86.9118L211.263 85.9385C217.103 79.8851 225.41 77.0318 233.73 77.5518C236.53 80.0185 239.396 82.4051 242.25 84.8318Z" fill="#0F171F"/>
<path d="M268.276 76.1918C295.276 64.8851 325.556 62.3385 354.29 67.2851C396.37 74.8185 434.663 100.898 457.223 137.178C461.13 143.365 464.41 149.898 467.73 156.405C473.143 168.898 477.023 182.058 479.116 195.525C474.436 197.472 471.69 201.778 469.37 206.045C468.196 199.098 462.663 193.858 456.463 191.085C450.756 188.912 444.263 192.298 441.596 197.512C437.57 205.445 432.85 212.978 428.436 220.698C428.316 219.965 428.063 218.498 427.93 217.778C435.716 202.752 442.543 187.232 448.556 171.432C451.25 163.965 453.556 154.858 448.823 147.712C445.343 143.378 440.223 139.298 434.33 139.792C428.423 140.192 423.676 144.218 419.836 148.378C417.636 143.165 413.183 138.938 407.823 137.138C402.236 135.538 396.716 138.325 392.503 141.778C371.943 124.178 344.183 115.205 317.196 117.832C291.596 120.112 267.036 132.565 250.116 151.925C240.65 162.858 233.436 175.698 229.05 189.485C225.756 192.045 222.85 195.498 223.09 199.952C218.516 195.285 213.41 189.578 206.356 189.498C199.183 189.285 193.01 194.005 189.05 199.618C186.636 197.898 184.116 195.832 180.97 195.885C177.85 195.818 175.343 197.845 172.85 199.432C175.383 187.192 177.743 174.845 182.383 163.178C186.183 154.312 190.356 145.578 195.57 137.432C212.543 110.032 238.436 88.3385 268.276 76.1918ZM316.156 80.6451C316.503 88.2451 316.356 95.8718 316.836 103.458C318.29 108.005 323.676 106.445 327.236 106.632C327.156 105.512 326.996 103.298 326.93 102.192C324.823 102.445 322.716 102.632 320.61 102.778C320.57 99.9385 320.49 97.0985 320.37 94.2718C322.516 94.1918 324.663 94.1518 326.81 94.1518C326.756 93.0851 326.663 90.9518 326.61 89.8851C324.53 90.0985 322.45 90.3251 320.37 90.5518C320.423 87.3785 320.116 84.2185 319.13 81.1918C319.37 80.9385 319.823 80.4318 320.063 80.1918C321.97 81.3518 323.876 82.5118 326.423 82.0985C326.423 81.0318 326.41 78.8985 326.41 77.8318C322.836 78.2318 318.41 77.0718 316.156 80.6451ZM345.476 78.7785C344.41 88.5118 342.183 98.0718 341.103 107.805C342.05 107.952 343.93 108.218 344.876 108.352C346.436 99.0185 347.743 89.6451 349.636 80.3651C348.236 79.8451 346.863 79.3118 345.476 78.7785ZM296.65 84.8718C297.783 91.8585 298.73 98.8985 300.276 105.805C301.956 110.045 307.09 108.232 310.423 107.512C313.57 105.978 313.116 102.178 312.236 99.3785C311.276 99.4318 309.356 99.5385 308.396 99.5918C308.556 100.618 308.863 102.698 309.01 103.738C307.33 104.018 305.65 104.298 303.983 104.592C302.796 97.0451 301.223 89.5651 300.223 81.9918L300.596 84.2985C302.263 84.0318 303.943 83.8185 305.636 83.6718C305.81 84.6185 306.156 86.5385 306.33 87.4851C307.343 87.2851 309.396 86.8585 310.423 86.6451C309.703 84.6318 309.836 82.0451 308.103 80.5518C306.236 78.4585 303.25 79.9651 300.916 80.0985C298.583 80.2585 296.023 82.3118 296.65 84.8718ZM353.263 94.1918C353.143 98.3518 358.09 98.5918 360.97 99.6851C360.21 102.338 359.45 104.978 358.703 107.632C356.316 106.872 353.823 105.805 351.45 107.245C353.743 106.632 354.41 104.498 355.09 102.498C354.116 102.085 352.17 101.258 351.196 100.845C350.543 103.378 349.05 106.138 350.61 108.658C353.063 110.832 356.57 111.298 359.716 111.365C362.49 110.272 362.876 107.112 363.583 104.605C365.036 98.8985 367.103 93.3518 368.236 87.5651C367.516 83.1518 361.903 82.7651 358.343 82.4985C354.436 84.8718 354.53 90.2185 353.263 94.1918ZM279.356 86.3385C277.863 86.6185 276.383 86.9118 274.89 87.2185C278.223 96.2585 281.183 105.418 284.316 114.525C285.596 114.018 286.876 113.498 288.156 112.992C285.316 105.338 282.89 97.5385 280.09 89.8718C281.89 89.2318 283.703 88.6051 285.516 87.9785C288.103 95.7385 290.796 103.485 293.29 111.285C294.543 110.912 295.81 110.538 297.063 110.178C294.703 103.192 292.383 96.1918 290.076 89.1918C289.383 87.3118 288.743 84.9518 286.583 84.2851C283.956 83.6318 281.596 85.2451 279.356 86.3385ZM373.116 90.8051C375.663 91.8851 378.223 92.9651 380.796 94.0451C375.863 100.778 371.41 107.858 366.383 114.525C367.343 114.978 369.276 115.898 370.25 116.352C375.903 108.458 381.223 100.312 386.876 92.4051C383.076 90.6185 379.223 89.0052 375.49 87.1118C374.676 88.3252 373.89 89.5651 373.116 90.8051ZM264.223 92.3785C268.623 100.885 272.463 109.658 276.796 118.192C277.69 117.738 279.45 116.832 280.33 116.378C276.223 107.658 271.956 99.0052 267.81 90.2985C266.61 90.9918 265.41 91.6851 264.223 92.3785ZM249.17 101.325C246.503 105.378 251.303 109.085 253.036 112.472C256.796 112.765 260.53 113.258 264.29 113.525C265.423 115.098 266.556 116.672 267.703 118.245C266.276 119.258 264.85 120.272 263.436 121.298C262.756 120.218 262.076 119.138 261.41 118.058C260.556 118.578 258.836 119.632 257.983 120.152C259.276 122.312 260.556 125.192 263.476 125.325C266.463 124.512 269.223 122.658 271.21 120.298C272.276 116.138 268.503 113.125 266.703 109.818C263.023 109.445 259.263 109.578 255.676 108.738C254.316 107.418 253.383 105.752 252.263 104.245C253.623 103.232 254.97 102.205 256.33 101.192C257.09 102.232 257.836 103.285 258.596 104.325C259.436 103.738 261.116 102.565 261.97 101.978C260.383 100.058 258.916 96.8718 255.97 97.2185C253.41 97.9385 251.236 99.6851 249.17 101.325ZM380.076 111.485C382.05 113.178 384.276 114.565 386.543 115.845C385.13 118.245 383.636 120.578 382.116 122.885C383.343 123.645 384.57 124.405 385.796 125.165C387.036 123.018 388.29 120.885 389.543 118.765C391.49 118.698 392.743 117.352 393.77 115.858C393.463 115.352 392.85 114.365 392.543 113.872C395.516 109.578 398.05 104.992 401.09 100.738C399.903 99.9518 398.73 99.1785 397.57 98.3918C391.77 102.792 384.676 105.672 380.076 111.485Z" fill="white"/>
<path d="M357.156 94.3918C358.063 91.4452 359.063 88.4852 359.423 85.4052C361.036 87.8452 364.37 87.7652 366.703 86.5118C362.876 87.6452 363.396 92.2585 362.423 95.3252C360.65 95.1118 358.89 94.8052 357.156 94.3918Z" fill="white"/>
<path d="M307.743 123.698C336.37 117.872 367.29 126.072 389.503 144.978C380.343 157.965 371.756 171.632 366.263 186.632C363.09 185.072 359.316 185.112 356.463 182.872C353.316 180.645 349.17 180.832 345.596 181.712C338.503 183.565 332.956 188.965 329.076 194.978C325.663 189.738 320.423 185.619 314.396 183.845C317.956 176.272 320.156 167.992 321.036 159.672C321.41 153.312 321.263 146.165 317.036 140.965C314.063 137.445 309.943 134.098 305.063 134.312C299.116 134.098 294.143 138.258 290.69 142.698C284.076 151.405 282.05 162.365 279.036 172.618C274.13 163.512 268.996 154.365 262.023 146.658C274.463 134.645 290.93 127.192 307.743 123.698Z" fill="white"/>
<path d="M308.463 260.565C312.876 257.712 315.463 252.872 319.85 249.992C323.076 257.045 328.903 263.712 336.956 264.872C347.81 266.992 358.17 260.072 364.01 251.378C368.956 267.098 378.503 281.005 389.81 292.858C372.263 307.792 349.476 316.552 326.37 316.192C302.956 316.485 279.77 307.485 262.276 292.005C270.73 283.325 277.783 273.272 283.076 262.365C290.743 267.458 301.396 266.112 308.463 260.565Z" fill="white"/>
<path d="M284.13 329.032C285.703 329.672 287.29 330.312 288.876 330.965C287.93 333.352 287.036 335.752 286.196 338.192C284.556 337.779 282.916 337.379 281.276 336.965C282.196 334.312 283.156 331.672 284.13 329.032Z" fill="white"/>
<path d="M316.156 80.6451C318.41 77.0718 322.836 78.2318 326.41 77.8318C326.41 78.8985 326.423 81.0318 326.423 82.0985C323.876 82.5118 321.97 81.3518 320.063 80.1918C319.823 80.4318 319.37 80.9385 319.13 81.1918C320.116 84.2185 320.423 87.3785 320.37 90.5518C322.45 90.3251 324.53 90.0985 326.61 89.8851C326.663 90.9518 326.756 93.0851 326.81 94.1518C324.663 94.1518 322.516 94.1918 320.37 94.2718C320.49 97.0985 320.57 99.9385 320.61 102.778C322.716 102.632 324.823 102.445 326.93 102.192C326.996 103.298 327.156 105.512 327.236 106.632C323.676 106.445 318.29 108.005 316.836 103.458C316.356 95.8718 316.503 88.2451 316.156 80.6451Z" fill="#000414"/>
<path d="M296.65 84.8718C296.023 82.3118 298.583 80.2585 300.916 80.0985C303.25 79.9651 306.236 78.4585 308.103 80.5518C309.836 82.0451 309.703 84.6318 310.423 86.6451C309.396 86.8585 307.343 87.2851 306.33 87.4851C306.156 86.5385 305.81 84.6185 305.636 83.6718C303.943 83.8185 302.263 84.0318 300.596 84.2985L300.223 81.9918C301.223 89.5651 302.796 97.0451 303.983 104.592C305.65 104.298 307.33 104.018 309.01 103.738C308.863 102.698 308.556 100.618 308.396 99.5918C309.356 99.5385 311.276 99.4318 312.236 99.3785C313.116 102.178 313.57 105.978 310.423 107.512C307.09 108.232 301.956 110.045 300.276 105.805C298.73 98.8985 297.783 91.8585 296.65 84.8718Z" fill="#000414"/>
<path d="M373.116 90.8051C373.89 89.5651 374.676 88.3251 375.49 87.1118C379.223 89.0051 383.076 90.6185 386.876 92.4051C381.223 100.312 375.903 108.458 370.25 116.352C369.276 115.898 367.343 114.978 366.383 114.525C371.41 107.858 375.863 100.778 380.796 94.0451C378.223 92.9651 375.663 91.8851 373.116 90.8051Z" fill="#000414"/>
<path d="M229.05 189.485C233.436 175.698 240.65 162.858 250.116 151.925C249.25 154.472 248.85 157.152 249.236 159.832C242.636 168.432 237.743 178.192 233.916 188.298C228.756 190.752 225.703 195.632 223.93 200.872C223.716 200.645 223.29 200.178 223.09 199.952C222.85 195.498 225.756 192.045 229.05 189.485Z" fill="#000414"/>
<path d="M355.61 204.592C355.996 202.258 358.156 200.992 359.81 199.592C362.303 202.005 362.663 205.592 362.65 208.872C362.303 214.885 360.73 220.765 358.61 226.378C353.53 220.352 353.836 211.818 355.61 204.592ZM358.716 201.792C357.623 208.285 358.81 214.898 357.663 221.392C359.276 214.978 358.236 208.325 358.716 201.792Z" fill="#000414"/>
<path d="M410.65 268.085C411.49 268.712 413.183 269.952 414.023 270.578C410.343 276.858 405.97 282.712 401.09 288.098C399.983 287.152 398.903 286.192 397.836 285.218C402.663 279.938 406.863 274.138 410.65 268.085Z" fill="#000414"/>
<path d="M407.796 298.925C411.716 296.672 413.21 290.125 418.463 290.858C425.61 295.992 431.583 302.645 438.276 308.365C437.33 309.352 436.41 310.338 435.49 311.338C429.516 305.672 423.37 300.192 417.356 294.578C416.13 295.978 414.903 297.365 413.69 298.765C419.716 304.325 425.77 309.858 431.85 315.378C430.903 316.378 429.983 317.392 429.05 318.405C422.076 311.792 414.836 305.458 407.796 298.925Z" fill="#000414"/>
<path d="M365.49 325.952C366.463 325.618 368.436 324.938 369.423 324.605C371.596 332.298 374.01 339.938 376.196 347.632C378.17 353.125 369.85 356.018 366.063 353.672C363.743 357.072 357.223 359.725 354.543 355.538C351.796 347.565 349.836 339.325 347.17 331.312C348.49 330.872 349.823 330.445 351.156 330.018C353.316 337.978 355.796 345.858 358.036 353.805C359.81 353.205 361.61 352.605 363.396 352.018C360.903 344.285 359.01 336.352 356.37 328.658C357.663 328.192 358.983 327.752 360.29 327.325C362.45 335.245 364.903 343.098 367.05 351.032C368.903 350.498 370.743 349.965 372.596 349.445C370.143 341.632 368.05 333.725 365.49 325.952Z" fill="#000414"/>
<path d="M305.316 343.352C309.223 343.925 313.156 344.298 317.09 344.725C317.01 345.552 316.863 347.192 316.796 348.005C313.023 349.005 308.81 347.032 304.836 347.178C304.956 346.218 305.196 344.312 305.316 343.352Z" fill="#000414"/>
<path d="M345.476 78.7784C346.863 79.3118 348.236 79.8451 349.636 80.3651C347.743 89.6451 346.436 99.0184 344.876 108.352C343.93 108.218 342.05 107.952 341.103 107.805C342.183 98.0718 344.41 88.5118 345.476 78.7784Z" fill="#000012"/>
<path d="M249.17 101.325C251.236 99.6851 253.41 97.9384 255.97 97.2184C258.916 96.8718 260.383 100.058 261.97 101.978C261.116 102.565 259.436 103.738 258.596 104.325C257.836 103.285 257.09 102.232 256.33 101.192C254.97 102.205 253.623 103.232 252.263 104.245C253.383 105.752 254.316 107.418 255.676 108.738C259.263 109.578 263.023 109.445 266.703 109.818C268.503 113.125 272.276 116.138 271.21 120.298C269.223 122.658 266.463 124.512 263.476 125.325C260.556 125.192 259.276 122.312 257.983 120.152C258.836 119.632 260.556 118.578 261.41 118.058C262.076 119.138 262.756 120.218 263.436 121.298C264.85 120.272 266.276 119.258 267.703 118.245C266.556 116.672 265.423 115.098 264.29 113.525C260.53 113.258 256.796 112.765 253.036 112.472C251.303 109.085 246.503 105.378 249.17 101.325Z" fill="#000012"/>
<path d="M514.61 215.578C516.356 215.192 518.57 215.085 519.423 217.058C519.57 219.258 519.356 221.472 519.223 223.672C516.89 222.298 515.343 220.072 513.916 217.845C514.09 217.285 514.436 216.152 514.61 215.578Z" fill="#000012"/>
<path d="M47.7429 233.418C48.5829 236.858 48.9962 240.378 49.0895 243.925C50.4895 244.192 51.9029 244.458 53.3162 244.738C50.9829 245.565 48.9829 247.045 48.4495 249.632C51.1429 249.725 53.7562 249.085 56.3695 248.592C62.5295 247.312 69.4895 251.005 71.3962 257.112C73.9429 265.378 70.3962 274.325 65.2229 280.832C67.3295 272.485 73.9696 263.298 68.3562 254.912C63.5696 248.085 54.6229 251.378 47.7162 251.085C45.6762 260.725 44.3429 270.538 41.4362 279.992C39.4229 283.325 40.9429 286.858 42.3695 290.032L43.0762 292.405C41.5695 290.858 40.1962 289.205 38.9029 287.498C38.3162 288.392 37.1295 290.205 36.5429 291.098C36.5162 290.525 36.4495 289.392 36.4095 288.818C42.8762 271.018 45.5029 252.138 47.7429 233.418Z" fill="#000012"/>
<path d="M213.023 86.9118C217.45 83.7518 222.196 80.4585 227.77 79.8985C232.636 79.7785 235.636 84.3118 239.036 87.1118C220.903 99.1918 205.343 115.005 193.37 133.192C190.65 130.272 186.823 128.272 184.796 124.792C185.743 120.072 188.21 115.832 190.73 111.805C196.823 102.432 204.303 93.9251 213.023 86.9118Z" fill="#FEFEFE"/>
<path d="M412.876 86.4451C415.37 84.3117 417.863 82.1517 420.53 80.2184C425.343 79.2717 430.023 81.4184 434.01 83.9117C444.236 90.3651 452.143 99.7117 459.25 109.338C462.223 114.218 465.503 119.125 466.716 124.805C464.836 127.925 461.57 129.925 458.943 132.378C446.943 114.125 431.13 98.4317 412.876 86.4451Z" fill="#FEFEFE"/>
<path d="M386.37 110.445C388.29 109.205 390.196 107.938 392.156 106.752C391.023 108.672 389.81 110.565 388.556 112.405C387.823 111.752 387.103 111.098 386.37 110.445Z" fill="#FEFEFE"/>
<path d="M290.37 156.818C292.796 150.378 296.65 143.445 303.49 141.005C307.29 139.912 310.276 143.205 311.116 146.592C312.396 156.925 309.143 167.045 305.383 176.538C301.956 185.192 297.89 193.565 294.156 202.098C289.836 210.765 288.65 220.605 288.09 230.152C288.396 234.218 287.85 239.658 291.743 242.218C295.73 243.338 299.556 240.858 302.543 238.458C301.836 236.192 299.316 235.112 298.25 233.005C292.823 223.392 294.33 211.245 299.263 201.738C301.73 197.152 305.156 192.272 310.49 190.925C314.063 189.965 317.436 192.178 319.85 194.592C325.036 205.658 320.316 218.138 316.17 228.738C318.436 227.125 320.676 225.458 322.69 223.525C324.156 222.032 325.796 220.458 326.29 218.338C328.876 208.378 332.77 197.938 341.076 191.338C345.316 187.912 352.823 185.725 356.13 191.512C361.09 190.725 366.156 193.552 367.516 198.498C370.063 208.498 366.583 218.752 363.196 228.112C366.996 226.578 370.89 224.752 373.596 221.565C374.596 208.418 376.356 195.298 379.716 182.525C381.516 175.192 384.09 168.085 386.943 161.112C390.103 154.872 393.836 148.365 400.023 144.698C403.143 142.698 408.21 142.952 409.876 146.712C411.596 150.818 409.863 155.285 408.81 159.312C402.476 178.672 393.956 197.232 385.116 215.552C384.21 222.965 383.25 230.458 383.636 237.952C384.01 239.738 383.836 241.992 385.29 243.325L386.263 244.232C394.53 240.552 399.21 231.965 402.93 224.178C404.956 202.672 409.076 180.925 418.916 161.498C422.263 155.592 426.343 149.045 433.183 146.872C436.49 145.605 441.09 147.805 441.316 151.565C441.983 158.698 438.396 165.258 436.05 171.778C430.103 186.405 423.73 200.898 416.143 214.765C413.73 218.552 414.023 223.218 413.303 227.485C412.89 233.858 411.436 240.672 414.236 246.725C421.223 244.992 425.543 238.672 429.076 232.872C433.73 222.778 440.556 213.898 445.556 203.978C446.943 201.285 448.33 197.938 451.676 197.272C457.663 196.418 461.543 204.285 458.636 209.085C455.516 214.112 454.13 220.192 455.263 226.058C456.383 231.645 456.956 237.352 456.116 243.018C459.463 239.032 463.036 235.178 465.996 230.885C468.49 221.818 472.396 213.138 477.45 205.205C478.81 202.645 482.13 200.872 484.85 202.498C488.716 204.632 490.263 210.165 487.916 213.952C486.09 217.152 484.036 220.218 482.316 223.472C478.65 229.752 475.25 236.338 474.13 243.618C476.396 244.725 478.77 245.938 481.37 245.058C485.983 242.885 488.996 238.338 490.97 233.792C493.21 226.392 495.103 218.872 497.143 211.418C497.756 208.338 501.196 204.858 504.41 206.952C507.596 208.498 508.263 212.165 508.25 215.378C509.676 213.578 510.89 211.338 513.29 210.698C516.716 210.112 520.116 212.085 521.823 215.018C522.17 218.352 522.063 221.698 521.703 225.032C527.956 225.912 534.21 225.112 540.41 224.245C545.316 226.338 547.596 233.978 543.223 237.632C538.01 242.458 535.57 249.445 534.103 256.218C533.21 260.645 532.103 265.698 534.903 269.672C542.45 266.098 546.85 258.498 550.49 251.352C553.103 242.312 555.85 232.378 563.57 226.285C567.943 222.778 574.356 224.072 578.103 227.872C581.996 231.778 586.476 237.018 584.743 242.965C583.69 245.552 581.05 245.978 578.583 245.645C575.756 242.832 574.156 238.872 570.596 236.845C563.77 240.058 560.823 247.552 558.41 254.178C556.77 260.005 554.703 266.392 556.396 272.365C557.583 275.672 560.85 273.378 562.29 271.632C567.81 265.165 570.57 256.872 572.57 248.752C573.116 246.045 576.023 244.445 578.57 245.698C582.29 247.712 584.69 252.485 583.236 256.605C580.916 263.152 578.716 269.952 578.81 276.992C578.53 278.872 580.53 279.845 581.476 281.165C588.25 277.152 592.223 269.872 595.61 263.032C598.223 255.058 599.556 246.698 602.05 238.685C604.17 234.552 608.396 238.712 609.61 241.378C609.076 251.138 606.183 260.605 605.49 270.352C607.383 264.872 609.183 259.338 612.023 254.258C614.756 249.485 617.703 243.325 623.863 242.605C629.53 241.752 633.996 246.085 636.703 250.525C639.37 258.218 638.05 266.565 635.063 273.952C632.196 280.725 628.93 287.365 626.903 294.458C630.81 295.085 633.956 292.232 636.81 289.978C640.223 287.285 642.916 283.845 645.836 280.658C647.25 281.805 647.503 283.112 646.596 284.552C642.943 291.405 639.05 298.578 632.636 303.232C629.516 305.672 624.53 305.938 621.69 302.938C617.756 299.512 617.263 293.818 617.716 288.938C618.836 278.405 622.303 268.325 624.17 257.938C620.503 258.938 617.156 261.005 614.943 264.165C608.343 272.965 603.81 283.245 600.823 293.792C596.543 298.245 589.996 292.618 590.53 287.512C590.61 286.418 590.77 284.245 590.85 283.165C588.183 286.472 584.716 291.072 579.823 289.232C571.876 286.952 569.57 277.672 569.57 270.392C567.396 273.258 566.463 277.005 563.49 279.258C560.583 282.312 555.29 281.538 552.89 278.258C548.61 273.005 548.97 265.845 549.396 259.485C545.743 264.725 543.036 271.232 537.01 274.245C534.01 275.885 531.116 273.178 529.463 270.898C525.53 261.058 527.036 249.965 529.436 239.938C527.383 239.645 525.33 239.352 523.29 239.045C521.076 238.178 519.09 236.872 517.143 235.565C513.25 244.698 507.023 252.712 499.103 258.685C496.73 260.805 493.29 262.165 492.263 265.432C487.93 276.045 483.103 286.658 476.063 295.778C472.53 300.752 466.623 303.578 460.503 302.485C457.823 300.872 454.903 299.232 453.476 296.298C451.476 292.965 452.17 288.898 452.356 285.218C454.49 280.285 457.503 275.538 462.103 272.565C468.09 267.978 475.423 265.698 481.73 261.712C483.53 257.338 484.81 252.752 486.663 248.405C482.503 252.685 475.636 255.245 470.183 251.792C465.33 248.725 464.623 242.618 464.983 237.405C459.77 242.765 455.45 248.898 450.49 254.472C442.903 261.672 428.596 255.818 428.57 245.192C425.876 247.552 424.09 250.858 420.93 252.698C417.263 255.352 411.423 256.218 408.196 252.418C404.236 247.698 403.65 241.205 403.356 235.298C399.756 240.832 396.996 247.418 391.023 250.872C387.33 253.245 381.663 253.418 378.93 249.538C374.41 243.338 373.943 235.178 374.01 227.765C373.53 228.072 372.583 228.685 372.103 228.992C369.09 232.778 364.556 235.005 359.77 235.432C356.556 240.938 352.916 246.632 347.156 249.765C341.89 252.845 334.316 252.725 330.076 247.938C324.943 242.578 324.583 234.605 324.956 227.618C321.103 232.525 317.063 238.378 310.556 239.765C306.21 246.032 299.996 252.698 291.676 252.178C286.196 252.205 282.236 247.445 280.356 242.752C278.303 238.352 278.356 233.432 277.49 228.752C273.316 237.752 269.756 248.525 260.65 253.698C255.183 256.458 250.543 250.818 249.85 245.858C249.463 232.952 253.01 220.418 254.703 207.725C253.103 209.005 251.503 210.272 250.01 211.645C247.303 214.392 245.463 217.832 243.77 221.245C238.97 231.072 235.276 241.512 233.463 252.325C233.01 255.205 230.61 257.445 227.85 258.178C224.916 257.965 222.303 255.752 221.77 252.832C220.93 247.778 223.223 242.845 223.29 237.818C219.37 245.405 216.663 254.858 208.756 259.365C203.383 262.258 198.103 256.778 198.103 251.498C197.116 238.845 200.236 226.312 201.49 213.778C197.476 216.272 194.77 220.298 192.69 224.458C186.996 235.685 183.463 247.938 181.57 260.352C181.01 263.965 176.623 267.045 173.223 264.805C170.196 262.912 170.156 259.138 170.436 255.992C167.983 261.525 164.223 268.672 157.023 267.805C150.596 266.818 148.916 259.525 147.796 254.192C146.143 259.298 144.863 264.858 140.943 268.805C138.543 271.472 133.756 272.405 131.21 269.432C127.21 265.432 127.49 259.458 126.996 254.258C123.65 261.792 121.623 270.365 115.303 276.125C112.676 277.285 109.37 276.565 108.023 273.885C104.596 267.592 104.796 260.125 104.69 253.165C104.956 250.565 105.29 247.992 105.623 245.418C101.783 247.338 97.5696 248.472 93.2496 247.845C91.7563 252.178 90.303 256.512 88.3696 260.672L86.4229 259.912C87.9163 255.912 89.3029 251.858 90.5829 247.778C83.0229 245.298 80.4363 236.072 84.0629 229.392C85.9429 226.258 89.3029 223.818 93.1029 224.205C97.2763 226.192 96.2496 231.525 96.1029 235.272C100.983 233.618 105.53 231.112 109.676 228.058C111.956 226.525 114.263 224.312 117.263 225.018C121.33 227.512 120.93 233.405 118.356 236.858C114.89 242.365 113.13 248.765 112.17 255.152C111.303 260.512 110.663 266.298 113.17 271.352C117.916 268.232 120.33 262.792 122.61 257.792C124.65 252.752 127.063 247.752 127.73 242.285C129.01 233.205 131.25 224.058 136.023 216.125C138.57 212.458 141.93 208.872 146.436 207.792C151.356 206.845 156.17 209.752 159.143 213.498C161.236 217.218 160.103 223.205 155.596 224.592C152.343 225.392 150.156 222.485 147.636 221.058C145.263 220.725 143.596 223.152 142.29 224.792C137.263 232.805 135.13 242.285 134.09 251.565C133.89 255.925 133.196 260.938 136.29 264.512C142.836 259.672 144.196 250.938 146.543 243.632C148.85 237.258 146.583 227.858 154.37 224.858C157.783 225.965 160.823 229.098 159.943 232.965C158.583 241.352 155.97 250.058 158.383 258.512C164.09 258.178 165.53 251.272 167.903 247.098C170.276 241.125 173.303 235.245 173.93 228.752C174.93 220.965 175.93 213.178 176.93 205.392C178.09 204.005 179.49 202.858 181.116 201.978C182.463 203.245 184.623 204.205 184.85 206.285C185.036 215.912 183.023 225.472 183.436 235.085C185.77 225.538 188.236 215.938 192.383 206.992C194.783 201.912 199.09 196.912 205.023 196.378C208.356 195.845 211.716 197.698 213.53 200.458C216.41 204.485 215.97 209.752 215.69 214.432C214.116 226.165 209.063 237.125 207.516 248.872C216.023 243.632 220.476 233.938 225.023 225.405C226.81 216.512 227.756 207.445 229.476 198.538C230.636 195.152 234.916 194.578 237.263 197.112C238.956 207.472 235.53 217.992 235.423 228.432C238.303 218.632 241.21 208.752 246.05 199.725C249.276 194.605 254.676 189.925 261.116 190.565C267.53 191.898 270.263 198.978 269.623 204.912C268.663 218.178 262.223 230.205 259.57 243.125C264.823 241.365 267.716 236.245 271.01 232.152C273.383 228.512 276.476 224.992 277.436 220.685C278.61 198.898 283.716 177.525 290.37 156.818ZM303.116 150.725C298.45 161.592 297.77 173.538 295.276 184.978C298.823 180.152 301.103 174.552 303.57 169.138C306.343 162.178 309.103 154.312 306.223 146.938C304.836 147.872 303.69 149.125 303.116 150.725ZM402.036 153.885C396.21 165.778 392.783 178.658 389.436 191.418C395.783 182.658 399.863 172.498 403.97 162.552C405.716 158.472 406.223 154.045 406.25 149.645C404.05 150.072 402.996 152.085 402.036 153.885ZM430.316 162.165C425.77 172.405 422.57 183.165 419.636 193.952C423.983 188.338 427.05 181.858 430.183 175.512C433.143 168.152 437.97 160.805 436.796 152.525C433.33 154.645 431.89 158.645 430.316 162.165ZM307.023 210.792C305.303 216.738 305.063 223.952 309.903 228.552C313.823 219.965 317.81 209.325 313.436 200.218C309.756 202.538 308.25 206.845 307.023 210.792ZM355.61 204.592C353.836 211.818 353.53 220.352 358.61 226.378C360.73 220.765 362.303 214.885 362.65 208.872C362.663 205.592 362.303 202.005 359.81 199.592C358.156 200.992 355.996 202.258 355.61 204.592ZM334.983 236.858C335.01 239.978 337.676 242.818 340.903 242.498C346.676 242.458 350.863 237.885 354.463 233.938C346.556 229.432 341.903 220.285 342.13 211.285C337.343 218.818 334.37 227.872 334.983 236.858ZM433.076 236.858C432.41 241.125 432.836 246.658 437.076 248.965C440.25 250.245 444.663 249.552 446.263 246.192C448.676 241.205 447.17 235.472 445.703 230.432C443.743 225.165 443.236 219.552 443.676 213.978C438.863 220.938 435.396 228.738 433.076 236.858ZM514.61 215.578C514.436 216.152 514.09 217.285 513.916 217.845C515.343 220.072 516.89 222.298 519.223 223.672C519.356 221.472 519.57 219.258 519.423 217.058C518.57 215.085 516.356 215.192 514.61 215.578ZM496.45 254.045C504.236 249.218 512.13 242.912 514.61 233.658C509.21 229.778 507.21 222.978 507.876 216.578C504.716 229.245 500.943 241.778 496.45 254.045ZM87.6629 231.618C89.3163 233.298 91.103 235.658 93.703 235.498C94.1563 232.765 94.1296 229.912 92.5163 227.565C90.5296 228.418 89.0096 229.965 87.6629 231.618ZM460.876 287.778C459.09 290.818 463.556 293.112 465.836 291.272C471.516 286.605 473.983 279.352 477.436 273.085C471.183 276.898 463.903 280.698 460.876 287.778Z" fill="#FEFEFE"/>
<path d="M249.236 159.832C250.85 157.858 252.53 155.938 254.196 154.005C263.116 165.458 270.743 178.125 275.196 192.005C270.503 188.592 266.116 183.445 259.77 183.752C252.836 183.565 246.943 187.978 242.676 193.032C240.076 190.898 237.17 189.192 233.916 188.298C237.743 178.192 242.636 168.432 249.236 159.832Z" fill="#FEFEFE"/>
<path d="M49.5029 187.965C58.3963 184.512 69.9163 184.472 76.9296 191.778C85.4763 200.112 85.7829 213.738 81.5429 224.272C80.2096 227.525 78.4229 230.578 76.2496 233.338C75.1429 234.672 73.9429 235.938 72.7296 237.192C71.0763 238.792 69.2896 240.245 67.5163 241.712C71.5963 241.592 75.8496 242.765 78.5963 245.978C83.6629 251.272 83.6363 259.192 82.8229 266.005C80.0629 279.592 69.6229 292.258 55.5696 294.792C50.6096 296.178 45.4763 293.978 42.3696 290.032C40.9429 286.858 39.4229 283.325 41.4363 279.992C44.3163 282.952 45.5829 288.178 50.2763 288.778C56.2629 289.178 61.5696 285.192 65.2229 280.832C70.3963 274.325 73.9429 265.378 71.3963 257.112C69.4896 251.005 62.5296 247.312 56.3696 248.592C53.7563 249.085 51.1429 249.725 48.4496 249.632C48.9829 247.045 50.9829 245.565 53.3163 244.738C63.1963 240.352 69.7829 230.578 72.4229 220.352C73.5963 214.805 73.8096 208.392 70.1829 203.658C66.5563 198.832 60.0496 197.405 54.3296 197.338C40.8763 198.018 27.3963 204.138 18.9829 214.858C14.6629 220.365 11.7029 227.205 11.7029 234.298C12.0763 240.018 14.6229 246.045 19.7296 249.058C22.9829 251.085 27.1696 250.272 30.3963 252.378C30.9829 255.192 30.5296 258.058 29.0763 260.552C27.9296 261.725 26.6363 262.712 25.1963 263.498C16.0496 263.165 8.59626 254.978 7.44959 246.178C5.63626 235.578 9.56959 224.965 14.6896 215.845C22.3029 202.632 35.4363 193.285 49.5029 187.965Z" fill="#FEFEFE"/>
<path d="M43.9696 214.365C47.1162 210.259 50.4629 205.819 55.6496 204.219C55.9829 204.672 56.6496 205.579 56.9829 206.032C50.8629 213.845 48.3162 223.645 47.7429 233.418C45.5029 252.138 42.8762 271.019 36.4096 288.819C33.5162 295.445 30.2096 302.499 23.8896 306.525C20.3029 308.845 14.8096 309.925 11.6896 306.272C7.15624 300.872 8.70291 291.912 13.4896 287.245C13.2762 291.538 11.4362 298.605 17.0362 300.259C20.0229 299.845 22.4496 297.685 23.7829 295.072C28.0229 287.125 29.4629 278.099 31.2362 269.379C31.3829 268.459 31.6896 266.619 31.8362 265.699C35.1829 248.485 35.8896 230.285 43.9696 214.365Z" fill="#FEFEFE"/>
<path d="M58.1696 233.152C59.1696 226.512 61.6363 220.152 65.8096 214.858C67.0096 221.712 62.863 228.485 58.1696 233.152Z" fill="#FEFEFE"/>
<path d="M243.756 255.112C245.85 260.938 250.316 266.712 256.863 267.485C261.783 268.538 266.263 265.978 270.316 263.605C265.81 271.058 260.503 278.005 254.583 284.392C249.01 278.658 244.65 271.885 240.676 264.978C242.53 261.992 243.423 258.592 243.756 255.112Z" fill="#FEFEFE"/>
<path d="M459.17 263.805C460.45 262.472 461.476 260.912 462.596 259.458C463.556 260.512 464.516 261.578 465.49 262.645C456.063 267.432 447.556 275.538 445.903 286.418C443.61 294.645 445.476 303.685 451.196 310.072C435.303 331.365 414.143 348.605 390.023 359.792C381.156 363.672 371.97 366.765 362.596 369.152C339.236 374.405 314.663 374.805 291.33 369.232C259.143 361.885 229.703 343.605 208.45 318.392C198.103 306.178 189.783 292.285 183.53 277.565C186.036 275.498 188.49 273.285 190.156 270.458C191.33 267.792 191.77 264.898 192.09 262.045C194.356 266.845 197.836 271.778 203.383 272.925C209.356 274.525 215.276 271.618 219.69 267.765C224.756 271.952 232.17 272.298 237.503 268.378C247.116 285.632 261.836 299.965 279.316 309.165C298.983 319.498 322.116 322.938 343.983 319.138C365.783 315.552 386.103 304.285 401.09 288.098C405.97 282.712 410.343 276.858 414.023 270.578C414.33 270.192 414.956 269.405 415.263 269.018C419.396 267.632 423.85 266.938 427.57 264.458C429.41 265.872 431.25 267.325 433.276 268.485C441.77 272.725 452.916 271.232 459.17 263.805ZM218.01 308.605C214.983 314.005 222.93 316.525 224.916 320.685C231.663 313.685 239.143 307.405 245.69 300.205C244.33 298.845 242.33 297.112 240.93 299.405C235.663 304.578 230.316 309.672 225.076 314.872C223.823 313.512 222.57 312.165 221.303 310.845C227.05 305.018 233.143 299.538 238.863 293.698C238.183 292.978 236.796 291.525 236.116 290.805C230.116 296.778 223.743 302.392 218.01 308.605ZM407.796 298.925C414.836 305.458 422.076 311.792 429.05 318.405C429.983 317.392 430.903 316.378 431.85 315.378C425.77 309.858 419.716 304.325 413.69 298.765C414.903 297.365 416.13 295.978 417.356 294.578C423.37 300.192 429.516 305.672 435.49 311.338C436.41 310.338 437.33 309.352 438.276 308.365C431.583 302.645 425.61 295.992 418.463 290.858C413.21 290.125 411.716 296.672 407.796 298.925ZM399.676 310.085C402.623 314.632 406.663 318.378 409.983 322.658C411.983 324.765 413.583 327.885 416.81 328.165C419.756 327.512 421.69 324.925 424.036 323.205C423.13 322.045 422.236 320.872 421.356 319.712C419.743 321.125 418.143 322.552 416.53 323.965C414.823 321.898 413.063 319.885 411.29 317.898C412.85 316.538 414.423 315.205 416.023 313.885C415.103 312.712 414.183 311.538 413.276 310.378C411.73 311.792 410.21 313.218 408.663 314.618C406.903 312.592 405.156 310.592 403.37 308.605C404.996 307.178 406.623 305.752 408.263 304.352C407.263 303.272 406.276 302.205 405.303 301.138C402.996 303.658 397.89 305.885 399.676 310.085ZM230.636 326.272C231.49 326.912 233.196 328.218 234.05 328.872C238.93 322.205 243.73 315.485 248.65 308.845C250.076 309.992 251.503 311.125 252.943 312.272C247.903 318.672 243.436 325.498 238.436 331.925C239.583 332.778 240.73 333.618 241.89 334.485C246.663 327.752 251.476 321.032 256.423 314.418C257.85 315.538 259.276 316.672 260.716 317.792C255.783 324.298 251.143 331.018 246.183 337.498C247.37 338.325 248.57 339.165 249.77 339.992C254.29 333.112 259.57 326.752 264.143 319.912C266.903 316.005 261.343 311.378 257.516 312.285C256.09 307.578 250.756 306.258 247.503 303.112C242.05 310.952 236.423 318.672 230.636 326.272ZM384.156 316.965C389.383 325.072 394.743 333.085 400.063 341.138C403.05 338.805 406.69 337.232 409.143 334.272C409.943 329.538 405.37 326.165 403.423 322.232C400.503 318.618 399.023 313.178 394.45 311.312C390.516 311.912 387.556 315.085 384.156 316.965ZM374.303 322.485C372.29 325.018 374.423 327.938 375.516 330.338C378.183 335.365 380.37 340.632 383.103 345.632C386.13 349.645 390.663 345.672 393.956 344.218C393.436 343.298 392.41 341.472 391.903 340.552C389.85 341.645 387.836 342.805 385.876 344.045C385.93 343.698 386.05 342.978 386.103 342.618C384.996 340.498 383.89 338.392 382.73 336.312C384.703 335.258 386.676 334.232 388.65 333.192C388.116 332.312 387.036 330.552 386.503 329.658C384.676 330.592 382.863 331.525 381.05 332.445C379.876 329.992 378.676 327.552 377.463 325.125C379.37 324.152 381.276 323.178 383.196 322.218C382.53 320.965 381.876 319.712 381.236 318.472C378.93 319.792 376.236 320.605 374.303 322.485ZM267.863 321.032C264.57 327.138 261.516 333.392 258.41 339.592C256.09 344.685 262.49 346.525 265.943 348.072C266.503 346.805 267.076 345.552 267.65 344.298C265.783 343.418 263.93 342.552 262.063 341.698C263.156 339.165 264.396 336.698 265.703 334.272C267.503 335.272 269.303 336.245 271.116 337.218C271.796 336.018 272.476 334.818 273.156 333.618C271.223 332.578 269.303 331.565 267.37 330.552C268.65 328.165 269.876 325.765 271.063 323.338C272.943 324.285 274.796 325.285 276.636 326.325C277.29 325.018 277.956 323.712 278.61 322.418C275.343 321.072 270.796 317.018 267.863 321.032ZM285.716 325.138C282.89 324.205 280.383 326.458 279.73 329.032C277.156 336.298 274.69 343.618 271.983 350.845C272.943 351.218 274.85 351.978 275.81 352.352C277.21 348.472 278.583 344.578 279.93 340.672C281.556 341.205 283.183 341.778 284.796 342.378C283.33 346.192 281.97 350.045 280.623 353.898C281.876 354.392 283.143 354.898 284.41 355.405C287.09 347.845 289.783 340.298 292.343 332.698C293.276 330.405 292.396 327.698 289.97 326.765C291.01 325.485 292.863 324.432 292.543 322.512C292.65 320.338 289.916 317.885 287.876 319.138C285.29 319.872 284.65 322.938 285.716 325.138ZM365.49 325.952C368.05 333.725 370.143 341.632 372.596 349.445C370.743 349.965 368.903 350.498 367.05 351.032C364.903 343.098 362.45 335.245 360.29 327.325C358.983 327.752 357.663 328.192 356.37 328.658C359.01 336.352 360.903 344.285 363.396 352.018C361.61 352.605 359.81 353.205 358.036 353.805C355.796 345.858 353.316 337.978 351.156 330.018C349.823 330.445 348.49 330.872 347.17 331.312C349.836 339.325 351.796 347.565 354.543 355.538C357.223 359.725 363.743 357.072 366.063 353.672C369.85 356.018 378.17 353.125 376.196 347.632C374.01 339.938 371.596 332.298 369.423 324.605C368.436 324.938 366.463 325.618 365.49 325.952ZM331.743 335.312C332.103 338.245 332.196 341.205 332.703 344.125C335.823 346.658 339.516 348.392 342.636 350.952C342.703 352.258 342.823 354.872 342.876 356.165C341.623 356.312 339.116 356.592 337.863 356.738C337.77 355.805 337.57 353.938 337.476 353.005C336.13 353.192 334.796 353.378 333.463 353.578C333.703 356.205 333.93 359.818 337.076 360.565C339.636 360.472 342.396 360.658 344.823 359.685C348.45 356.818 345.89 351.765 345.97 347.938C342.743 345.978 339.556 343.965 336.476 341.778C335.81 339.458 334.783 337.192 334.756 334.738C337.09 336.378 340.716 337.005 342.476 334.192C341.41 335.712 340.703 337.405 341.183 339.285C342.156 339.205 344.076 339.045 345.036 338.978C344.85 336.472 344.916 333.245 342.223 332.032C338.583 331.765 333.596 331.325 331.743 335.312ZM305.316 343.352C305.196 344.312 304.956 346.218 304.836 347.178C308.81 347.032 313.023 349.005 316.796 348.005C316.863 347.192 317.01 345.552 317.09 344.725C313.156 344.298 309.223 343.925 305.316 343.352Z" fill="#FEFEFE"/>
<path d="M382.076 265.672C389.036 267.032 395.983 264.432 401.13 259.778C403.396 263.485 406.943 265.965 410.65 268.085C406.863 274.138 402.663 279.938 397.836 285.218C391.716 279.445 386.97 272.458 382.076 265.672Z" fill="#FEFEFE"/>
<path d="M139.97 342.472C156.25 327.498 172.69 312.698 189.076 297.845C193.41 305.138 198.116 312.232 203.543 318.765C203.863 319.152 204.503 319.938 204.836 320.325C185.25 336.005 164.876 350.712 145.916 367.152C143.97 368.712 142.076 370.405 139.836 371.538C132.783 372.418 128.303 365.845 123.276 362.098C127.17 368.952 133.876 375.165 133.41 383.658C130.85 392.045 122.436 400.285 113.023 397.938C103.343 395.405 95.1163 387.272 92.7296 377.538C92.5429 373.072 94.0496 368.432 97.7029 365.645C106.236 358.965 118.036 359.378 126.89 353.298C131.583 350.125 135.743 346.218 139.97 342.472Z" fill="#FEFEFE"/>
<path d="M475.796 313.045C476.316 312.738 477.356 312.125 477.876 311.832C489.556 322.472 501.29 333.085 512.93 343.778C519.076 349.072 525.13 355.138 533.183 357.378C540.423 359.885 548.556 361.058 554.49 366.312C559.183 370.472 559.796 377.832 556.716 383.112C552.716 390.485 545.65 396.618 537.25 398.152C531.183 399.258 525.41 395.658 521.93 390.925C519.836 388.005 517.343 384.658 518.156 380.845C519.223 373.538 524.73 368.218 528.25 362.072C523.063 365.752 518.636 372.618 511.423 371.512C504.863 367.152 499.276 361.525 493.116 356.658C478.023 344.632 462.596 333.032 447.53 320.965C449.916 318.218 452.17 315.365 454.343 312.458L455.636 313.165C461.676 316.805 469.81 316.792 475.796 313.045Z" fill="#FEFEFE"/>
<path d="M353.263 94.1919C354.53 90.2185 354.436 84.8719 358.343 82.4985C361.903 82.7652 367.516 83.1519 368.236 87.5652C367.103 93.3519 365.036 98.8985 363.583 104.605C362.876 107.112 362.49 110.272 359.716 111.365C356.57 111.299 353.063 110.832 350.61 108.659C349.05 106.139 350.543 103.379 351.196 100.845C352.17 101.259 354.116 102.085 355.09 102.499C354.41 104.499 353.743 106.632 351.45 107.245C353.823 105.805 356.316 106.872 358.703 107.632C359.45 104.979 360.21 102.339 360.97 99.6852C358.09 98.5919 353.143 98.3519 353.263 94.1919ZM357.156 94.3919C358.89 94.8052 360.65 95.1119 362.423 95.3252C363.396 92.2585 362.876 87.6452 366.703 86.5119C364.37 87.7652 361.036 87.8452 359.423 85.4052C359.063 88.4852 358.063 91.4452 357.156 94.3919Z" fill="#000214"/>
<path d="M279.356 86.3385C281.596 85.2452 283.956 83.6319 286.583 84.2852C288.743 84.9519 289.383 87.3119 290.076 89.1919C292.383 96.1919 294.703 103.192 297.063 110.179C295.81 110.539 294.543 110.912 293.29 111.285C290.796 103.485 288.103 95.7385 285.516 87.9785C283.703 88.6052 281.89 89.2319 280.09 89.8719C282.89 97.5385 285.316 105.339 288.156 112.992C286.876 113.499 285.596 114.019 284.316 114.525C281.183 105.419 278.223 96.2585 274.89 87.2185C276.383 86.9119 277.863 86.6185 279.356 86.3385Z" fill="#000014"/>
<path d="M264.223 92.3785C265.41 91.6851 266.61 90.9918 267.81 90.2985C271.956 99.0051 276.223 107.658 280.33 116.378C279.45 116.832 277.69 117.738 276.796 118.192C272.463 109.658 268.623 100.885 264.223 92.3785Z" fill="#04101A"/>
<path d="M380.076 111.485C384.676 105.672 391.77 102.792 397.57 98.3918C398.73 99.1785 399.903 99.9518 401.09 100.739C398.05 104.992 395.516 109.579 392.543 113.872C392.85 114.365 393.463 115.352 393.77 115.859C392.743 117.352 391.49 118.699 389.543 118.765C388.29 120.885 387.036 123.019 385.796 125.165C384.57 124.405 383.343 123.645 382.116 122.885C383.636 120.579 385.13 118.245 386.543 115.845C384.276 114.565 382.05 113.179 380.076 111.485ZM386.37 110.445C387.103 111.099 387.823 111.752 388.556 112.405C389.81 110.565 391.023 108.672 392.156 106.752C390.196 107.939 388.29 109.205 386.37 110.445Z" fill="#182028"/>
<path d="M307.023 210.792C308.25 206.845 309.756 202.539 313.436 200.219C317.81 209.325 313.823 219.965 309.903 228.552C305.063 223.952 305.303 216.738 307.023 210.792Z" fill="#182028"/>
<path d="M72.7296 237.192C73.9429 235.939 75.1429 234.672 76.2496 233.339C77.5296 233.139 78.8096 232.939 80.0896 232.739C80.4629 235.779 80.5829 238.899 81.5963 241.819C83.1029 244.685 85.7029 246.725 87.9563 248.965C87.3163 251.752 86.6629 254.512 86.0096 257.285C83.8229 250.352 80.2763 243.592 73.5696 240.085C73.3563 239.352 72.9429 237.912 72.7296 237.192Z" fill="#182028"/>
<path d="M315.356 140.045L317.036 140.965C321.263 146.165 321.41 153.312 321.036 159.672C320.156 167.992 317.956 176.272 314.396 183.845L313.636 185.232C312.889 181.378 314.943 177.872 315.996 174.299C319.77 163.299 321.01 150.672 315.356 140.045Z" fill="#000010"/>
<path d="M311.25 145.379L312.77 144.392C314.45 155.645 311.303 166.685 307.103 177.019L305.383 176.539C309.143 167.045 312.396 156.925 311.116 146.592L311.25 145.379Z" fill="#000010"/>
<path d="M381.996 168.432C383.41 164.992 384.303 161.112 387.196 158.538L386.943 161.112C384.09 168.085 381.516 175.192 379.716 182.525C379.37 182.112 378.676 181.298 378.33 180.898C378.783 176.552 380.57 172.512 381.996 168.432Z" fill="#000010"/>
<path d="M178.33 168.765C178.956 166.445 180.743 164.818 182.383 163.178C177.743 174.845 175.383 187.192 172.85 199.432C172.223 197.365 171.543 195.245 172.063 193.072C173.436 184.818 175.69 176.698 178.33 168.765Z" fill="#000010"/>
<path d="M318.93 192.165C325.476 196.218 324.09 205.032 323.556 211.538C323.516 215.578 319.756 219.899 322.69 223.525C320.676 225.459 318.436 227.125 316.17 228.739C320.316 218.139 325.036 205.659 319.85 194.592L318.93 192.165Z" fill="#000010"/>
<path d="M236.636 194.832C241.183 197.832 239.236 203.752 239.85 208.285C241.77 205.485 241.97 199.992 246.05 199.725C241.21 208.752 238.303 218.632 235.423 228.432C235.53 217.992 238.956 207.472 237.263 197.112L236.636 194.832Z" fill="#000010"/>
<path d="M175.036 205.458C175.596 204.818 176.69 203.552 177.236 202.912L176.93 205.392C175.93 213.178 174.93 220.965 173.93 228.752C173.303 235.245 170.276 241.125 167.903 247.098C166.263 242.872 169.863 238.778 170.703 234.645C172.876 225.045 173.023 215.085 175.036 205.458Z" fill="#000010"/>
<path d="M250.01 211.645C251.503 210.272 253.103 209.005 254.703 207.725C253.01 220.418 249.463 232.952 249.85 245.859C249.716 246.525 249.463 247.845 249.33 248.512C247.29 246.485 247.77 243.485 247.716 240.912C248.156 231.858 250.69 223.072 251.73 214.098C251.303 213.485 250.436 212.258 250.01 211.645Z" fill="#000010"/>
<path d="M521.823 215.019L523.383 213.739C523.836 217.005 524.036 220.299 524.116 223.605C529.783 224.325 535.37 222.019 540.956 222.579L542.45 224.005L540.41 224.245C534.21 225.112 527.956 225.912 521.703 225.032C522.063 221.699 522.17 218.352 521.823 215.019Z" fill="#000010"/>
<path d="M35.1829 233.725C37.1029 226.978 37.8629 218.832 43.9696 214.365C35.8896 230.285 35.1829 248.485 31.8362 265.699L31.2896 266.859C30.4762 264.779 29.7562 262.672 29.0762 260.552C30.5296 258.059 30.9829 255.192 30.3962 252.379C34.4362 247.045 33.2629 239.845 35.1829 233.725Z" fill="#000010"/>
<path d="M133.65 217.125C134.25 216.885 135.423 216.378 136.023 216.125C131.25 224.058 129.01 233.205 127.73 242.285C127.063 247.752 124.65 252.752 122.61 257.792C120.716 254.965 123.49 251.858 124.01 248.978C127.01 238.352 127.103 226.485 133.65 217.125Z" fill="#000010"/>
<path d="M233.463 252.325C235.276 241.512 238.97 231.072 243.77 221.245L244.303 223.125C240.49 233.352 236.33 243.565 234.916 254.498C234.556 253.965 233.823 252.872 233.463 252.325Z" fill="#000010"/>
<path d="M482.316 223.472L484.263 222.578C482.063 229.485 476.703 235.472 476.876 243.005C478.516 243.392 480.01 244.085 481.37 245.058C478.77 245.938 476.396 244.725 474.13 243.618C475.25 236.338 478.65 229.752 482.316 223.472Z" fill="#000010"/>
<path d="M76.2496 233.339C78.4229 230.579 80.2096 227.525 81.5429 224.272C82.3829 225.979 83.2229 227.685 84.0629 229.392C80.4362 236.072 83.0229 245.299 90.5829 247.779C89.3029 251.859 87.9162 255.912 86.4229 259.912L88.3696 260.672C87.3029 260.899 86.2362 261.125 85.1829 261.365C84.9696 263.619 84.7562 265.859 84.4896 268.112C84.0762 267.592 83.2362 266.539 82.8229 266.005C83.6362 259.192 83.6629 251.272 78.5962 245.979C75.8496 242.765 71.5962 241.592 67.5162 241.712C69.2896 240.245 71.0762 238.792 72.7296 237.192C72.9429 237.912 73.3562 239.352 73.5696 240.085C80.2762 243.592 83.8229 250.352 86.0096 257.285C86.6629 254.512 87.3162 251.752 87.9562 248.965C85.7029 246.725 83.1029 244.685 81.5962 241.819C80.5829 238.899 80.4629 235.779 80.0896 232.739C78.8096 232.939 77.5296 233.139 76.2496 233.339Z" fill="#000010"/>
<path d="M118.356 236.858L119.97 236.178C116.516 244.525 113.89 253.218 113.663 262.325C113.116 259.938 112.543 257.565 112.17 255.152C113.13 248.765 114.89 242.365 118.356 236.858Z" fill="#000010"/>
<path d="M600.303 238.072L602.05 238.685C599.556 246.698 598.223 255.059 595.61 263.032L594.09 264.379C595.41 255.458 598.21 246.832 600.303 238.072Z" fill="#000010"/>
<path d="M523.29 239.045C525.33 239.352 527.383 239.645 529.436 239.938C527.036 249.965 525.53 261.059 529.463 270.899L527.956 271.618C523.183 262.098 525.596 251.419 526.596 241.378C525.423 241.032 523.063 240.312 521.876 239.952L523.29 239.045Z" fill="#000010"/>
<path d="M609.61 241.379L609.743 239.325C614.69 243.352 607.596 249.859 612.023 254.259C609.183 259.339 607.383 264.872 605.49 270.352C606.183 260.605 609.076 251.139 609.61 241.379Z" fill="#000010"/>
<path d="M636.316 248.299C639.61 249.845 639.823 253.965 639.796 257.112C639.69 263.765 639.876 271.312 635.103 276.579L635.063 273.952C638.05 266.565 639.37 258.219 636.703 250.525L636.316 248.299Z" fill="#000010"/>
<path d="M102.743 249.672C103.156 250.338 103.983 251.685 104.396 252.352L104.69 253.165C104.796 260.125 104.596 267.592 108.023 273.885C109.37 276.565 112.676 277.285 115.303 276.125L115.943 278.045C112.596 278.632 108.716 278.525 106.81 275.218C102.076 267.725 102.143 258.218 102.743 249.672Z" fill="#000010"/>
<path d="M446.303 268.792C450.796 267.739 454.85 265.365 459.17 263.805C452.916 271.232 441.77 272.725 433.276 268.485C437.623 267.859 441.956 268.979 446.303 268.792Z" fill="#000010"/>
<path d="M29.8096 266.952C30.1696 267.565 30.8763 268.765 31.2363 269.379C29.4629 278.099 28.0229 287.125 23.7829 295.072C22.8629 292.859 24.1963 290.659 24.7296 288.552C27.1829 281.552 28.3963 274.205 29.8096 266.952Z" fill="#000010"/>
<path d="M450.81 283.898L452.45 282.779L452.356 285.219C452.17 288.899 451.476 292.965 453.476 296.299C454.903 299.232 457.823 300.872 460.503 302.485L461.956 303.952C452.596 303.112 447.81 292.165 450.81 283.898Z" fill="#000010"/>
<path d="M455.063 311.578C458.396 312.285 461.663 313.552 465.09 313.805C469.05 313.725 472.796 312.232 476.623 311.405L475.796 313.045C469.81 316.792 461.676 316.805 455.636 313.165L455.063 311.578Z" fill="#000010"/>
<path d="M331.743 335.312C333.596 331.325 338.583 331.765 342.223 332.032C344.916 333.245 344.85 336.472 345.036 338.978C344.076 339.045 342.156 339.205 341.183 339.285C340.703 337.405 341.41 335.712 342.476 334.192C340.716 337.005 337.09 336.379 334.756 334.739C334.783 337.192 335.81 339.459 336.476 341.779C339.556 343.965 342.743 345.978 345.97 347.938C345.89 351.765 348.45 356.818 344.823 359.685C342.396 360.658 339.636 360.472 337.076 360.565C333.93 359.818 333.703 356.205 333.463 353.579C334.796 353.379 336.13 353.192 337.476 353.005C337.57 353.938 337.77 355.805 337.863 356.739C339.116 356.592 341.623 356.312 342.876 356.165C342.823 354.872 342.703 352.259 342.636 350.952C339.516 348.392 335.823 346.659 332.703 344.125C332.196 341.205 332.103 338.245 331.743 335.312Z" fill="#000010"/>
<path d="M362.596 369.152C371.97 366.765 381.156 363.672 390.023 359.792C389.783 360.365 389.29 361.539 389.05 362.125C383.196 365.232 376.743 367.045 370.463 369.085C367.903 370.045 365.183 369.952 362.596 369.152Z" fill="#000010"/>
<path d="M303.116 150.725C303.69 149.125 304.836 147.872 306.223 146.938C309.103 154.312 306.343 162.178 303.57 169.138C301.103 174.552 298.823 180.152 295.276 184.978C297.77 173.538 298.45 161.592 303.116 150.725Z" fill="#141A24"/>
<path d="M402.036 153.885C402.996 152.085 404.05 150.072 406.25 149.645C406.223 154.045 405.716 158.472 403.97 162.552C399.863 172.498 395.783 182.658 389.436 191.418C392.783 178.658 396.21 165.778 402.036 153.885Z" fill="#141A24"/>
<path d="M430.316 162.165C431.89 158.645 433.33 154.645 436.796 152.525C437.97 160.805 433.143 168.152 430.183 175.512C427.05 181.858 423.983 188.338 419.636 193.952C422.57 183.165 425.77 172.405 430.316 162.165Z" fill="#121824"/>
<path opacity="0.97" d="M467.73 156.405C474.036 161.765 474.29 170.738 477.69 177.818C478.21 178.112 479.25 178.685 479.77 178.978L480.37 179.298C480.37 180.205 480.356 181.098 480.316 182.005C479.503 186.712 480.29 191.445 481.143 196.085C480.636 195.938 479.623 195.658 479.116 195.525C477.023 182.058 473.143 168.898 467.73 156.405Z" fill="#000013"/>
<path d="M149.676 185.565C152.396 182.578 156.983 185.339 157.356 188.819C158.476 192.765 155.05 198.245 150.57 196.765C146.876 194.312 146.556 188.592 149.676 185.565Z" fill="#FCFCFC"/>
<path d="M137.676 187.872C144.89 184.205 147.69 197.179 141.143 199.552C134.623 201.365 133.05 190.885 137.676 187.872Z" fill="#FCFCFC"/>
<path d="M287.996 321.325C289.796 320.112 291.916 323.059 289.85 324.152C288.05 325.512 286.023 322.379 287.996 321.325Z" fill="#FCFCFC"/>
<path d="M18.9829 214.859C27.3962 204.139 40.8762 198.019 54.3296 197.339C60.0496 197.405 66.5562 198.832 70.1829 203.659C73.8095 208.392 73.5962 214.805 72.4229 220.352C69.7829 230.578 63.1962 240.352 53.3162 244.739C51.9029 244.459 50.4895 244.192 49.0895 243.925C48.9962 240.379 48.5829 236.858 47.7429 233.418C48.3162 223.645 50.8629 213.845 56.9829 206.032C56.6495 205.579 55.9829 204.672 55.6495 204.219C50.4629 205.819 47.1162 210.259 43.9695 214.365C37.8629 218.832 37.1029 226.978 35.1829 233.725C33.2629 239.845 34.4362 247.045 30.3962 252.379C27.1695 250.272 22.9829 251.085 19.7295 249.058C14.6229 246.045 12.0762 240.019 11.7029 234.299C11.7029 227.205 14.6629 220.365 18.9829 214.859ZM58.1696 233.152C62.8629 228.485 67.0096 221.712 65.8096 214.859C61.6362 220.152 59.1696 226.512 58.1696 233.152ZM23.5695 243.992C25.3695 244.059 27.1695 244.112 28.9829 244.179C30.3562 234.952 32.4495 225.819 35.6362 217.045C27.3162 222.672 17.9295 233.539 23.5695 243.992Z" fill="#181F29"/>
<path d="M334.983 236.859C334.37 227.872 337.343 218.818 342.13 211.285C341.903 220.285 346.556 229.432 354.463 233.938C350.863 237.885 346.676 242.458 340.903 242.498C337.676 242.818 335.01 239.979 334.983 236.859Z" fill="#181F29"/>
<path d="M47.7162 251.085C54.6229 251.379 63.5696 248.085 68.3562 254.912C73.9696 263.299 67.3296 272.485 65.2229 280.832C61.5696 285.192 56.2629 289.179 50.2762 288.779C45.5829 288.179 44.3162 282.952 41.4362 279.992C44.3429 270.539 45.6762 260.725 47.7162 251.085ZM54.5162 262.619C53.1429 267.912 52.4629 273.379 50.9029 278.632C51.3829 279.525 52.3562 281.285 52.8496 282.179C59.1296 279.125 64.1562 273.392 65.4362 266.419C65.2362 260.659 58.3962 261.259 54.5162 262.619Z" fill="#181F29"/>
<path d="M358.716 201.792C358.236 208.325 359.276 214.978 357.663 221.392C358.81 214.898 357.623 208.285 358.716 201.792Z" fill="#F8FCFC"/>
<path d="M394.343 225.952C393.623 224.085 394.343 219.778 396.756 219.845C397.583 221.845 396.596 225.512 394.343 225.952Z" fill="#F8FCFC"/>
<path d="M389.996 318.219C391.343 317.312 392.703 316.405 394.063 315.512C397.823 321.139 401.503 326.805 405.263 332.432C403.903 333.418 402.57 334.418 401.236 335.432C397.543 329.645 393.61 324.045 389.996 318.219Z" fill="#F8FCFC"/>
<path d="M433.076 236.858C435.396 228.738 438.863 220.938 443.676 213.978C443.236 219.552 443.743 225.165 445.703 230.432C447.17 235.472 448.676 241.205 446.263 246.192C444.663 249.552 440.25 250.245 437.076 248.965C432.836 246.658 432.41 241.125 433.076 236.858Z" fill="#181F28"/>
<path d="M384.97 228.859C384.93 225.059 384.116 220.952 386.143 217.485C386.65 226.392 386.076 235.312 386.263 244.232L385.29 243.325C384.73 238.525 385.303 233.672 384.97 228.859Z" fill="#010413"/>
<path d="M87.6629 231.618C89.0096 229.965 90.5296 228.418 92.5162 227.565C94.1296 229.912 94.1562 232.765 93.7029 235.498C91.1029 235.658 89.3162 233.298 87.6629 231.618Z" fill="#1C242C"/>
<path d="M54.5162 262.618C58.3962 261.258 65.2362 260.658 65.4362 266.418C64.1562 273.392 59.1296 279.125 52.8496 282.178C52.3562 281.285 51.3829 279.525 50.9029 278.632C52.4629 273.378 53.1429 267.912 54.5162 262.618ZM57.8629 265.605C57.0896 268.898 56.3696 272.218 55.8629 275.565C58.9029 273.072 60.4229 269.378 61.9296 265.858C60.5696 265.765 59.2096 265.672 57.8629 265.605Z" fill="#FDFDFD"/>
<path d="M179.663 278.859C182.65 275.485 186.036 272.392 190.156 270.458C188.49 273.285 186.036 275.498 183.53 277.565C189.783 292.285 198.103 306.178 208.45 318.392C206.81 318.512 205.17 318.632 203.543 318.765C198.116 312.232 193.41 305.139 189.076 297.845C172.69 312.699 156.25 327.498 139.97 342.472C135.743 346.218 131.583 350.125 126.89 353.298C118.036 359.378 106.236 358.965 97.7029 365.645C94.0496 368.432 92.5429 373.072 92.7296 377.539C91.7829 379.059 90.8362 380.592 89.8762 382.125C87.5962 375.672 89.0362 367.965 94.3296 363.405C103.556 354.992 117.623 356.245 127.116 348.272C133.45 343.512 138.983 337.819 144.956 332.619C158.876 319.792 173.05 307.232 186.943 294.365C184.05 289.432 181.636 284.232 179.663 278.859Z" fill="#171F28"/>
<path d="M460.876 287.778C463.903 280.698 471.183 276.898 477.436 273.085C473.983 279.352 471.516 286.605 465.836 291.272C463.556 293.112 459.09 290.818 460.876 287.778Z" fill="#1A202C"/>
<path d="M218.01 308.605C223.743 302.392 230.116 296.779 236.116 290.805C236.796 291.525 238.183 292.979 238.863 293.699C233.143 299.539 227.05 305.019 221.303 310.845C222.57 312.165 223.823 313.512 225.076 314.872C230.316 309.672 235.663 304.579 240.93 299.405C242.33 297.112 244.33 298.845 245.69 300.205C239.143 307.405 231.663 313.685 224.916 320.685C222.93 316.525 214.983 314.005 218.01 308.605Z" fill="#08101C"/>
<path d="M399.676 310.085C397.89 305.885 402.996 303.658 405.303 301.138C406.276 302.205 407.263 303.272 408.263 304.352C406.623 305.752 404.996 307.178 403.37 308.605C405.156 310.592 406.903 312.592 408.663 314.618C410.21 313.218 411.73 311.792 413.276 310.378C414.183 311.538 415.103 312.712 416.023 313.885C414.423 315.205 412.85 316.538 411.29 317.898C413.063 319.885 414.823 321.898 416.53 323.965C418.143 322.552 419.743 321.125 421.356 319.712C422.236 320.872 423.13 322.045 424.036 323.205C421.69 324.925 419.756 327.512 416.81 328.165C413.583 327.885 411.983 324.765 409.983 322.658C406.663 318.378 402.623 314.632 399.676 310.085Z" fill="#141C26"/>
<path d="M230.636 326.272C236.423 318.672 242.05 310.952 247.503 303.112C250.756 306.258 256.09 307.578 257.516 312.285C261.343 311.378 266.903 316.005 264.143 319.912C259.57 326.752 254.29 333.112 249.77 339.992C248.57 339.165 247.37 338.325 246.183 337.498C251.143 331.018 255.783 324.298 260.716 317.792C259.276 316.672 257.85 315.538 256.423 314.418C251.476 321.032 246.663 327.752 241.89 334.485C240.73 333.618 239.583 332.778 238.436 331.925C243.436 325.498 247.903 318.672 252.943 312.272C251.503 311.125 250.076 309.992 248.65 308.845C243.73 315.485 238.93 322.205 234.05 328.872C233.196 328.218 231.49 326.912 230.636 326.272Z" fill="#141C28"/>
<path d="M384.156 316.965C387.556 315.085 390.516 311.912 394.45 311.312C399.023 313.178 400.503 318.618 403.423 322.232C405.37 326.165 409.943 329.538 409.143 334.272C406.69 337.232 403.05 338.805 400.063 341.138C394.743 333.085 389.383 325.072 384.156 316.965ZM389.996 318.218C393.61 324.045 397.543 329.645 401.236 335.432C402.57 334.418 403.903 333.418 405.263 332.432C401.503 326.805 397.823 321.138 394.063 315.512C392.703 316.405 391.343 317.312 389.996 318.218Z" fill="#181E28"/>
<path d="M374.303 322.485C376.236 320.605 378.93 319.792 381.236 318.472C381.876 319.712 382.53 320.965 383.196 322.218C381.276 323.178 379.37 324.152 377.463 325.125C378.676 327.552 379.876 329.992 381.05 332.445C382.863 331.525 384.676 330.592 386.503 329.658C387.036 330.552 388.116 332.312 388.65 333.192C386.676 334.232 384.703 335.258 382.73 336.312C383.89 338.392 384.996 340.498 386.103 342.618C386.05 342.978 385.93 343.698 385.876 344.045C387.836 342.805 389.85 341.645 391.903 340.552C392.41 341.472 393.436 343.298 393.956 344.218C390.663 345.672 386.13 349.645 383.103 345.632C380.37 340.632 378.183 335.365 375.516 330.338C374.423 327.938 372.29 325.018 374.303 322.485Z" fill="#040C18"/>
<path d="M267.863 321.032C270.796 317.018 275.343 321.072 278.61 322.418C277.956 323.712 277.29 325.018 276.636 326.325C274.796 325.285 272.943 324.285 271.063 323.338C269.876 325.765 268.65 328.165 267.37 330.552C269.303 331.565 271.223 332.578 273.156 333.618C272.476 334.818 271.796 336.018 271.116 337.218C269.303 336.245 267.503 335.272 265.703 334.272C264.396 336.698 263.156 339.165 262.063 341.698C263.93 342.552 265.783 343.418 267.65 344.298C267.076 345.552 266.503 346.805 265.943 348.072C262.49 346.525 256.09 344.685 258.41 339.592C261.516 333.392 264.57 327.138 267.863 321.032Z" fill="#101824"/>
<path d="M285.716 325.138C284.65 322.938 285.29 319.872 287.876 319.138C289.916 317.885 292.65 320.338 292.543 322.512C292.863 324.432 291.01 325.485 289.97 326.765C292.396 327.698 293.276 330.405 292.343 332.698C289.783 340.298 287.09 347.845 284.41 355.405C283.143 354.898 281.876 354.392 280.623 353.898C281.97 350.045 283.33 346.192 284.796 342.378C283.183 341.778 281.556 341.205 279.93 340.672C278.583 344.578 277.21 348.472 275.81 352.352C274.85 351.978 272.943 351.218 271.983 350.845C274.69 343.618 277.156 336.298 279.73 329.032C280.383 326.458 282.89 324.205 285.716 325.138ZM287.996 321.325C286.023 322.378 288.05 325.512 289.85 324.152C291.916 323.058 289.796 320.112 287.996 321.325ZM284.13 329.032C283.156 331.672 282.196 334.312 281.276 336.965C282.916 337.378 284.556 337.778 286.196 338.192C287.036 335.752 287.93 333.352 288.876 330.965C287.29 330.312 285.703 329.672 284.13 329.032Z" fill="#06101C"/>
</svg>
