<svg width="658" height="407" viewBox="0 0 658 407" fill="none" xmlns="http://www.w3.org/2000/svg">
<path d="M508.328 4.66596C515.728 0.492627 524.794 -0.440706 532.848 2.34596C548.021 7.41263 560.848 21.3593 562.168 37.6393C563.048 46.2126 558.968 54.2793 553.741 60.7726C543.301 73.5993 529.474 82.9193 516.648 93.106C498.661 108.119 480.701 123.159 462.781 138.266C470.354 151.213 476.674 165.066 480.021 179.733C479.501 179.439 478.461 178.866 477.941 178.573C474.541 171.493 474.288 162.519 467.981 157.159C464.661 150.653 461.381 144.119 457.474 137.933C461.248 133.719 466.528 130.693 469.288 125.693C467.701 119.773 465.661 112.733 459.501 110.093C452.394 100.466 444.488 91.1193 434.261 84.666C430.274 82.1726 425.594 80.026 420.781 80.9726C419.781 80.586 417.781 79.786 416.768 79.386C435.848 62.9993 455.754 47.586 474.341 30.626C484.981 21.1593 495.701 11.4526 508.328 4.66596Z" fill="#19202A"/>
<path d="M90.3149 33.5859C94.4615 14.6526 113.488 -1.17406 133.222 1.02594C143.595 2.99927 152.222 9.65261 160.435 15.9059C169.608 23.1193 178.142 31.0926 186.808 38.8793C202.395 52.1859 218.302 65.1059 233.982 78.3059C225.662 77.7859 217.355 80.6393 211.515 86.6926L213.275 87.6659C204.555 94.6793 197.075 103.186 190.982 112.559C188.462 116.586 185.995 120.826 185.048 125.546C187.075 129.026 190.902 131.026 193.622 133.946C194.408 135.333 195.102 136.759 195.822 138.186C190.608 146.333 186.435 155.066 182.635 163.933C180.995 165.573 179.208 167.199 178.582 169.519C175.942 177.453 173.688 185.573 172.315 193.826C171.795 195.999 172.475 198.119 173.102 200.186C175.595 198.599 178.102 196.573 181.222 196.639C184.368 196.586 186.888 198.653 189.302 200.373C193.262 194.759 199.435 190.039 206.608 190.253C213.662 190.333 218.768 196.039 223.342 200.706C223.542 200.933 223.968 201.399 224.182 201.626C225.955 196.386 229.008 191.506 234.168 189.053C237.422 189.946 240.328 191.653 242.928 193.786C247.195 188.733 253.088 184.319 260.022 184.506C266.368 184.199 270.755 189.346 275.448 192.759C270.995 178.879 263.368 166.213 254.448 154.759C252.782 156.693 251.102 158.613 249.488 160.586C249.102 157.906 249.502 155.226 250.368 152.679C267.288 133.319 291.848 120.866 317.448 118.586C344.435 115.959 372.195 124.933 392.755 142.533C396.968 139.079 402.488 136.293 408.075 137.893C413.435 139.693 417.888 143.919 420.088 149.133C423.928 144.973 428.675 140.946 434.582 140.546C440.475 140.053 445.595 144.133 449.075 148.466C453.808 155.613 451.502 164.719 448.808 172.186C442.795 187.986 435.968 203.506 428.182 218.533C428.315 219.253 428.568 220.719 428.688 221.453C433.102 213.733 437.822 206.199 441.848 198.266C444.515 193.053 451.008 189.666 456.715 191.839C462.915 194.613 468.448 199.853 469.622 206.799C471.942 202.533 474.688 198.226 479.368 196.279C479.875 196.413 480.888 196.693 481.395 196.839C480.542 192.199 479.755 187.466 480.568 182.759C482.182 186.879 482.755 191.279 483.475 195.613C488.102 196.626 491.595 199.813 495.155 202.733C500.568 199.639 507.502 199.999 511.875 204.773C521.075 203.426 530.088 210.586 532.062 219.426C540.462 216.319 549.342 220.666 553.542 228.186C557.302 223.639 561.862 218.946 568.102 218.386C574.782 217.279 580.555 221.573 585.328 225.666C589.915 229.586 592.888 234.973 595.128 240.506C596.315 236.293 598.822 231.119 603.928 231.146C609.622 230.306 613.262 235.426 617.182 238.546C621.448 236.559 626.408 235.666 630.928 237.399C638.048 240.466 644.222 246.266 646.728 253.719C649.315 260.493 648.822 267.973 647.102 274.893C651.515 277.106 656.262 280.279 657.248 285.493C658.608 291.386 654.262 296.519 651.662 301.413C646.555 309.453 639.702 318.426 629.408 319.253C619.395 319.573 611.888 310.199 611.048 300.826C608.902 305.706 604.288 309.986 598.622 309.466C593.835 309.733 590.102 306.359 586.808 303.386C579.022 304.573 571.582 300.226 567.368 293.879C559.155 297.839 549.728 293.239 545.582 285.653C542.275 287.626 538.515 289.573 534.542 288.679C528.008 287.279 523.368 281.399 521.902 275.106C520.035 268.719 520.462 261.999 520.675 255.439C515.795 262.973 508.782 268.639 501.928 274.253C496.182 286.759 490.835 299.946 481.262 310.159C493.528 321.266 505.755 332.426 517.995 343.559C523.022 347.919 528.208 352.533 534.742 354.439C543.555 357.439 554.008 358.999 559.902 366.999C564.248 372.866 563.422 380.839 560.022 386.933C555.088 396.106 546.755 404.666 536.008 406.119C527.355 407.039 520.035 400.706 516.088 393.586C512.062 387.613 510.862 379.866 505.315 374.933C498.328 368.439 490.235 363.279 482.755 357.399C469.742 347.226 456.715 337.066 443.848 326.706C417.795 355.213 381.115 373.826 342.622 377.533C293.275 382.946 242.088 363.053 209.075 326.026C195.542 336.746 182.022 347.453 168.408 358.039C160.888 363.906 152.755 369.039 145.888 375.693C141.768 379.559 140.488 385.293 137.808 390.093C134.528 396.613 129.782 403.333 122.408 405.453C116.808 407.293 110.742 405.466 105.915 402.453C98.7282 397.839 93.2482 390.799 90.1282 382.879C91.0882 381.346 92.0349 379.813 92.9815 378.293C95.3682 388.026 103.595 396.159 113.275 398.693C122.688 401.039 131.102 392.799 133.662 384.413C134.128 375.919 127.422 369.706 123.528 362.853C128.555 366.599 133.035 373.173 140.088 372.293C142.328 371.159 144.222 369.466 146.168 367.906C165.128 351.466 185.502 336.759 205.088 321.079C204.755 320.693 204.115 319.906 203.795 319.519C205.422 319.386 207.062 319.266 208.702 319.146C229.955 344.359 259.395 362.639 291.582 369.986C314.915 375.559 339.488 375.159 362.848 369.906C365.435 370.706 368.155 370.799 370.715 369.839C376.995 367.799 383.448 365.986 389.302 362.879C389.542 362.293 390.035 361.119 390.275 360.546C414.395 349.359 435.555 332.119 451.448 310.826C445.728 304.439 443.862 295.399 446.155 287.173C447.808 276.293 456.315 268.186 465.742 263.399C464.768 262.333 463.808 261.266 462.848 260.213C461.728 261.666 460.702 263.226 459.422 264.559C455.102 266.119 451.048 268.493 446.555 269.546C442.208 269.733 437.875 268.613 433.528 269.239C431.502 268.079 429.662 266.626 427.822 265.213C424.102 267.693 419.648 268.386 415.515 269.773C415.208 270.159 414.582 270.946 414.275 271.333C413.435 270.706 411.742 269.466 410.902 268.839C407.195 266.719 403.648 264.239 401.382 260.533C396.235 265.186 389.288 267.786 382.328 266.426C387.222 273.213 391.968 280.199 398.088 285.973C399.155 286.946 400.235 287.906 401.342 288.853C386.355 305.039 366.035 316.306 344.235 319.893C322.368 323.693 299.235 320.253 279.568 309.919C262.088 300.719 247.368 286.386 237.755 269.133C232.422 273.053 225.008 272.706 219.942 268.519C215.528 272.373 209.608 275.279 203.635 273.679C198.088 272.533 194.608 267.599 192.342 262.799C192.022 265.653 191.582 268.546 190.408 271.213C186.288 273.146 182.902 276.239 179.915 279.613C177.088 279.479 174.302 279.053 171.582 278.319C167.888 279.973 164.115 281.799 159.982 281.906C156.382 282.053 153.142 280.279 149.928 278.933C144.755 285.599 134.475 287.679 127.848 281.933C124.302 287.706 117.795 292.399 110.715 290.266C101.982 287.359 98.8082 277.133 98.6615 268.799C96.8882 270.853 94.8349 272.666 92.5682 274.173C89.1415 288.533 79.2349 301.613 65.2215 306.933C57.8882 309.999 48.8882 310.439 42.2615 305.466C38.5682 311.786 33.7149 317.919 26.8215 320.893C20.9015 323.439 13.1815 323.279 8.35486 318.573C2.34152 313.346 1.16819 304.533 2.90152 297.119C3.99486 291.853 5.15486 285.479 10.2349 282.546C14.5282 280.439 18.2749 284.066 21.3815 286.519C22.0482 283.439 22.8082 280.386 23.5682 277.333C11.1015 274.906 1.48819 263.573 0.461522 251.039C-1.07181 232.946 5.90152 214.453 18.3415 201.333C28.8349 190.679 42.3949 182.319 57.3015 179.906C73.2082 177.466 88.8482 189.319 92.9015 204.453C94.3149 208.839 94.2749 213.493 94.2482 218.066C97.9415 219.719 101.075 222.306 103.942 225.119C107.528 222.333 111.262 219.173 115.995 218.813C119.955 218.919 122.968 221.599 125.808 224.026C127.782 219.399 129.822 214.759 132.848 210.719C127.182 204.533 127.515 195.333 130.408 187.973C132.702 182.879 139.008 179.253 144.368 182.066C148.448 178.279 155.022 176.706 159.515 180.746C169.155 185.959 170.262 200.199 162.688 207.679C164.515 209.373 166.395 211.013 168.342 212.559C169.315 186.719 177.088 161.239 190.222 138.999C171.622 123.613 153.222 107.986 134.675 92.5593C121.982 82.6126 108.475 73.3326 98.1949 60.7459C91.9149 53.2926 88.1015 43.3593 90.3149 33.5859ZM307.995 124.453C291.182 127.946 274.715 135.399 262.275 147.413C269.248 155.119 274.382 164.266 279.288 173.373C282.302 163.119 284.328 152.159 290.942 143.453C294.395 139.013 299.368 134.853 305.315 135.066C310.195 134.853 314.315 138.199 317.288 141.719L315.608 140.799C321.262 151.426 320.022 164.053 316.248 175.053C315.195 178.626 313.142 182.133 313.888 185.986L314.648 184.599C320.675 186.373 325.915 190.493 329.328 195.733C333.208 189.719 338.755 184.319 345.848 182.466C349.422 181.586 353.568 181.399 356.715 183.626C359.568 185.866 363.342 185.826 366.515 187.386C372.008 172.386 380.595 158.719 389.755 145.733C367.542 126.826 336.622 118.626 307.995 124.453ZM290.622 157.573C283.968 178.279 278.862 199.653 277.688 221.439C276.728 225.746 273.635 229.266 271.262 232.906C267.968 236.999 265.075 242.119 259.822 243.879C262.475 230.959 268.915 218.933 269.875 205.666C270.515 199.733 267.782 192.653 261.368 191.319C254.928 190.679 249.528 195.359 246.302 200.479C242.222 200.746 242.022 206.239 240.102 209.039C239.488 204.506 241.435 198.586 236.888 195.586L237.515 197.866C235.168 195.333 230.888 195.906 229.728 199.293C228.008 208.199 227.062 217.266 225.275 226.159C220.728 234.693 216.275 244.386 207.768 249.626C209.315 237.879 214.368 226.919 215.942 215.186C216.222 210.506 216.662 205.239 213.782 201.213C211.968 198.453 208.608 196.599 205.275 197.133C199.342 197.666 195.035 202.666 192.635 207.746C188.488 216.693 186.022 226.293 183.688 235.839C183.275 226.226 185.288 216.666 185.102 207.039C184.875 204.959 182.715 203.999 181.368 202.733C179.742 203.613 178.342 204.759 177.182 206.146L177.488 203.666C176.942 204.306 175.848 205.573 175.288 206.213C173.275 215.839 173.128 225.799 170.955 235.399C170.115 239.533 166.515 243.626 168.155 247.853C165.782 252.026 164.342 258.933 158.635 259.266C156.222 250.813 158.835 242.106 160.195 233.719C161.075 229.853 158.035 226.719 154.622 225.613C146.835 228.613 149.102 238.013 146.795 244.386C144.448 251.693 143.088 260.426 136.542 265.266C133.448 261.693 134.142 256.679 134.342 252.319C135.382 243.039 137.515 233.559 142.542 225.546C143.848 223.906 145.515 221.479 147.888 221.813C150.408 223.239 152.595 226.146 155.848 225.346C160.355 223.959 161.488 217.973 159.395 214.253C156.422 210.506 151.608 207.599 146.688 208.546C142.182 209.626 138.822 213.213 136.275 216.879C135.675 217.133 134.502 217.639 133.902 217.879C127.355 227.239 127.262 239.106 124.262 249.733C123.742 252.613 120.968 255.719 122.862 258.546C120.582 263.546 118.168 268.986 113.422 272.106C110.915 267.053 111.555 261.266 112.422 255.906C112.795 258.319 113.368 260.693 113.915 263.079C114.142 253.973 116.768 245.279 120.222 236.933L118.608 237.613C121.182 234.159 121.582 228.266 117.515 225.773C114.515 225.066 112.208 227.279 109.928 228.813C105.782 231.866 101.235 234.373 96.3549 236.026C96.5015 232.279 97.5282 226.946 93.3549 224.959C89.5549 224.573 86.1949 227.013 84.3149 230.146C83.4749 228.439 82.6349 226.733 81.7949 225.026C86.0349 214.493 85.7282 200.866 77.1815 192.533C70.1682 185.226 58.6482 185.266 49.7549 188.719C35.6882 194.039 22.5549 203.386 14.9415 216.599C9.82152 225.719 5.88819 236.333 7.70152 246.933C8.84819 255.733 16.3015 263.919 25.4482 264.253C26.8882 263.466 28.1815 262.479 29.3282 261.306C30.0082 263.426 30.7282 265.533 31.5415 267.613L32.0882 266.453C31.9415 267.373 31.6349 269.213 31.4882 270.133C31.1282 269.519 30.4215 268.319 30.0615 267.706C28.6482 274.959 27.4349 282.306 24.9815 289.306C24.4482 291.413 23.1149 293.613 24.0349 295.826C22.7015 298.439 20.2749 300.599 17.2882 301.013C11.6882 299.359 13.5282 292.293 13.7415 287.999C8.95486 292.666 7.40819 301.626 11.9415 307.026C15.0615 310.679 20.5549 309.599 24.1415 307.279C30.4615 303.253 33.7682 296.199 36.6615 289.573C36.7015 290.146 36.7682 291.279 36.7949 291.853C37.3815 290.959 38.5682 289.146 39.1549 288.253C40.4482 289.959 41.8215 291.613 43.3282 293.159L42.6215 290.786C45.7282 294.733 50.8615 296.933 55.8215 295.546C69.8749 293.013 80.3149 280.346 83.0749 266.759C83.4882 267.293 84.3282 268.346 84.7415 268.866C85.0082 266.613 85.2215 264.373 85.4349 262.119C86.4882 261.879 87.5549 261.653 88.6215 261.426C90.5549 257.266 92.0082 252.933 93.5015 248.599C97.8215 249.226 102.035 248.093 105.875 246.173C105.542 248.746 105.208 251.319 104.942 253.919L104.648 253.106C104.235 252.439 103.408 251.093 102.995 250.426C102.395 258.973 102.328 268.479 107.062 275.973C108.968 279.279 112.848 279.386 116.195 278.799L115.555 276.879C121.875 271.119 123.902 262.546 127.248 255.013C127.742 260.213 127.462 266.186 131.462 270.186C134.008 273.159 138.795 272.226 141.195 269.559C145.115 265.613 146.395 260.053 148.048 254.946C149.168 260.279 150.848 267.573 157.275 268.559C164.475 269.426 168.235 262.279 170.688 256.746C170.408 259.893 170.448 263.666 173.475 265.559C176.875 267.799 181.262 264.719 181.822 261.106C183.715 248.693 187.248 236.439 192.942 225.213C195.022 221.053 197.728 217.026 201.742 214.533C200.488 227.066 197.368 239.599 198.355 252.253C198.355 257.533 203.635 263.013 209.008 260.119C216.915 255.613 219.622 246.159 223.542 238.573C223.475 243.599 221.182 248.533 222.022 253.586C222.555 256.506 225.168 258.719 228.102 258.933C230.862 258.199 233.262 255.959 233.715 253.079C234.075 253.626 234.808 254.719 235.168 255.253C236.582 244.319 240.742 234.106 244.555 223.879L244.022 221.999C245.715 218.586 247.555 215.146 250.262 212.399C250.688 213.013 251.555 214.239 251.982 214.853C250.942 223.826 248.408 232.613 247.968 241.666C248.022 244.239 247.542 247.239 249.582 249.266C249.715 248.599 249.968 247.279 250.102 246.613C250.795 251.573 255.435 257.213 260.902 254.453C270.008 249.279 273.568 238.506 277.742 229.506C278.608 234.186 278.555 239.106 280.608 243.506C282.488 248.199 286.448 252.959 291.928 252.933C300.248 253.453 306.462 246.786 310.808 240.519C317.315 239.133 321.355 233.279 325.208 228.373C324.835 235.359 325.195 243.333 330.328 248.693C334.568 253.479 342.142 253.599 347.408 250.519C353.168 247.386 356.808 241.693 360.022 236.186C364.808 235.759 369.342 233.533 372.355 229.746C372.835 229.439 373.782 228.826 374.262 228.519C374.195 235.933 374.662 244.093 379.182 250.293C381.915 254.173 387.582 253.999 391.275 251.626C397.248 248.173 400.008 241.586 403.608 236.053C403.902 241.959 404.488 248.453 408.448 253.173C411.675 256.973 417.515 256.106 421.182 253.453C424.342 251.613 426.128 248.306 428.822 245.946C428.848 256.573 443.155 262.426 450.742 255.226C455.702 249.653 460.022 243.519 465.235 238.159C464.875 243.373 465.582 249.479 470.435 252.546C475.888 255.999 482.755 253.439 486.915 249.159C485.062 253.506 483.782 258.093 481.982 262.466C475.675 266.453 468.342 268.733 462.355 273.319C457.755 276.293 454.742 281.039 452.608 285.973L452.702 283.533L451.062 284.653C448.062 292.919 452.848 303.866 462.208 304.706L460.755 303.239C466.875 304.333 472.782 301.506 476.315 296.533C483.355 287.413 488.182 276.799 492.515 266.186C493.542 262.919 496.982 261.559 499.355 259.439C507.275 253.466 513.502 245.453 517.395 236.319C519.342 237.626 521.328 238.933 523.542 239.799L522.128 240.706C523.315 241.066 525.675 241.786 526.848 242.133C525.848 252.173 523.435 262.853 528.208 272.373L529.715 271.653C531.368 273.933 534.262 276.639 537.262 274.999C543.288 271.986 545.995 265.479 549.648 260.239C549.222 266.599 548.862 273.759 553.142 279.013C555.542 282.293 560.835 283.066 563.742 280.013C566.715 277.759 567.648 274.013 569.822 271.146C569.822 278.426 572.128 287.706 580.075 289.986C584.968 291.826 588.435 287.226 591.102 283.919C591.022 284.999 590.862 287.173 590.782 288.266C590.248 293.373 596.795 298.999 601.075 294.546C604.062 283.999 608.595 273.719 615.195 264.919C617.408 261.759 620.755 259.693 624.422 258.693C622.555 269.079 619.088 279.159 617.968 289.693C617.515 294.573 618.008 300.266 621.942 303.693C624.782 306.693 629.768 306.426 632.888 303.986C639.302 299.333 643.195 292.159 646.848 285.306C647.755 283.866 647.502 282.559 646.088 281.413C643.168 284.599 640.475 288.039 637.062 290.733C634.208 292.986 631.062 295.839 627.155 295.213C629.182 288.119 632.448 281.479 635.315 274.706L635.355 277.333C640.128 272.066 639.942 264.519 640.048 257.866C640.075 254.719 639.862 250.599 636.568 249.053L636.955 251.279C634.248 246.839 629.782 242.506 624.115 243.359C617.955 244.079 615.008 250.239 612.275 255.013C607.848 250.613 614.942 244.106 609.995 240.079L609.862 242.133C608.648 239.466 604.422 235.306 602.302 239.439L600.555 238.826C598.462 247.586 595.662 256.213 594.342 265.133L595.862 263.786C592.475 270.626 588.502 277.906 581.728 281.919C580.782 280.599 578.782 279.626 579.062 277.746C578.968 270.706 581.168 263.906 583.488 257.359C584.942 253.239 582.542 248.466 578.822 246.453C576.275 245.199 573.368 246.799 572.822 249.506C570.822 257.626 568.062 265.919 562.542 272.386C561.102 274.133 557.835 276.426 556.648 273.119C554.955 267.146 557.022 260.759 558.662 254.933C561.075 248.306 564.022 240.813 570.848 237.599C574.408 239.626 576.008 243.586 578.835 246.399C581.302 246.733 583.942 246.306 584.995 243.719C586.728 237.773 582.248 232.533 578.355 228.626C574.608 224.826 568.195 223.533 563.822 227.039C556.102 233.133 553.355 243.066 550.742 252.106C547.102 259.253 542.702 266.853 535.155 270.426C532.355 266.453 533.462 261.399 534.355 256.973C535.822 250.199 538.262 243.213 543.475 238.386C547.848 234.733 545.568 227.093 540.662 224.999L542.702 224.759L541.208 223.333C535.622 222.773 530.035 225.079 524.368 224.359C524.288 221.053 524.088 217.759 523.635 214.493L522.075 215.773C520.368 212.839 516.968 210.866 513.542 211.453C511.142 212.093 509.928 214.333 508.502 216.133C508.515 212.919 507.848 209.253 504.662 207.706C501.448 205.613 498.008 209.093 497.395 212.173C495.355 219.626 493.462 227.146 491.222 234.546C489.248 239.093 486.235 243.639 481.622 245.813C480.262 244.839 478.768 244.146 477.128 243.759C476.955 236.226 482.315 230.239 484.515 223.333L482.568 224.226C484.288 220.973 486.342 217.906 488.168 214.706C490.515 210.919 488.968 205.386 485.102 203.253C482.382 201.626 479.062 203.399 477.702 205.959C472.648 213.893 468.742 222.573 466.248 231.639C463.288 235.933 459.715 239.786 456.368 243.773C457.208 238.106 456.635 232.399 455.515 226.813C454.382 220.946 455.768 214.866 458.888 209.839C461.795 205.039 457.915 197.173 451.928 198.026C448.582 198.693 447.195 202.039 445.808 204.733C440.808 214.653 433.982 223.533 429.328 233.626C425.795 239.426 421.475 245.746 414.488 247.479C411.688 241.426 413.142 234.613 413.555 228.239C414.275 223.973 413.982 219.306 416.395 215.519C423.982 201.653 430.355 187.159 436.302 172.533C438.648 166.013 442.235 159.453 441.568 152.319C441.342 148.559 436.742 146.359 433.435 147.626C426.595 149.799 422.515 156.346 419.168 162.253C409.328 181.679 405.208 203.426 403.182 224.933C399.462 232.719 394.782 241.306 386.515 244.986C386.328 236.066 386.902 227.146 386.395 218.239C384.368 221.706 385.182 225.813 385.222 229.613C385.555 234.426 384.982 239.279 385.542 244.079C384.088 242.746 384.262 240.493 383.888 238.706C383.502 231.213 384.462 223.719 385.368 216.306C394.208 197.986 402.728 179.426 409.062 160.066C410.115 156.039 411.848 151.573 410.128 147.466C408.462 143.706 403.395 143.453 400.275 145.453C394.088 149.119 390.355 155.626 387.195 161.866L387.448 159.293C384.555 161.866 383.662 165.746 382.248 169.186C380.822 173.266 379.035 177.306 378.582 181.653C378.928 182.053 379.622 182.866 379.968 183.279C376.608 196.053 374.848 209.173 373.848 222.319C371.142 225.506 367.248 227.333 363.448 228.866C366.835 219.506 370.315 209.253 367.768 199.253C366.408 194.306 361.342 191.479 356.382 192.266C353.075 186.479 345.568 188.666 341.328 192.093C333.022 198.693 329.128 209.133 326.542 219.093C326.048 221.213 324.408 222.786 322.942 224.279C320.008 220.653 323.768 216.333 323.808 212.293C324.342 205.786 325.728 196.973 319.182 192.919L320.102 195.346C317.688 192.933 314.315 190.719 310.742 191.679C305.408 193.026 301.982 197.906 299.515 202.493C294.582 211.999 293.075 224.146 298.502 233.759C299.568 235.866 302.088 236.946 302.795 239.213C299.808 241.613 295.982 244.093 291.995 242.973C288.102 240.413 288.648 234.973 288.342 230.906C288.902 221.359 290.088 211.519 294.408 202.853C298.142 194.319 302.208 185.946 305.635 177.293L307.355 177.773C311.555 167.439 314.702 156.399 313.022 145.146L311.502 146.133L311.368 147.346C310.528 143.959 307.542 140.666 303.742 141.759C296.902 144.199 293.048 151.133 290.622 157.573ZM149.928 186.319C146.808 189.346 147.128 195.066 150.822 197.519C155.302 198.999 158.728 193.519 157.608 189.573C157.235 186.093 152.648 183.333 149.928 186.319ZM137.928 188.626C133.302 191.639 134.875 202.119 141.395 200.306C147.942 197.933 145.142 184.959 137.928 188.626ZM394.595 226.706C396.848 226.266 397.835 222.599 397.008 220.599C394.595 220.533 393.875 224.839 394.595 226.706ZM308.715 261.319C301.648 266.866 290.995 268.213 283.328 263.119C278.035 274.026 270.982 284.079 262.528 292.759C280.022 308.239 303.208 317.239 326.622 316.946C349.728 317.306 372.515 308.546 390.062 293.613C378.755 281.759 369.208 267.853 364.262 252.133C358.422 260.826 348.062 267.746 337.208 265.626C329.155 264.466 323.328 257.799 320.102 250.746C315.715 253.626 313.128 258.466 308.715 261.319ZM244.008 255.866C243.675 259.346 242.782 262.746 240.928 265.733C244.902 272.639 249.262 279.413 254.835 285.146C260.755 278.759 266.062 271.813 270.568 264.359C266.515 266.733 262.035 269.293 257.115 268.239C250.568 267.466 246.102 261.693 244.008 255.866ZM455.315 312.333L455.888 313.919L454.595 313.213C452.422 316.119 450.168 318.973 447.782 321.719C462.848 333.786 478.275 345.386 493.368 357.413C499.528 362.279 505.115 367.906 511.675 372.266C518.888 373.373 523.315 366.506 528.502 362.826C524.982 368.973 519.475 374.293 518.408 381.599C517.595 385.413 520.088 388.759 522.182 391.679C525.662 396.413 531.435 400.013 537.502 398.906C545.902 397.373 552.968 391.239 556.968 383.866C560.048 378.586 559.435 371.226 554.742 367.066C548.808 361.813 540.675 360.639 533.435 358.133C525.382 355.893 519.328 349.826 513.182 344.533C501.542 333.839 489.808 323.226 478.128 312.586C477.608 312.879 476.568 313.493 476.048 313.799L476.875 312.159C473.048 312.986 469.302 314.479 465.342 314.559C461.915 314.306 458.648 313.039 455.315 312.333Z" fill="#182029"/>
<path d="M496.701 254.799C501.195 242.533 504.968 229.999 508.128 217.333C507.461 223.733 509.461 230.533 514.861 234.413C512.381 243.666 504.488 249.973 496.701 254.799Z" fill="#182029"/>
<path d="M242.501 85.5861C270.848 67.4794 305.208 59.1461 338.701 61.8127C363.981 63.5194 388.688 71.7061 410.194 85.0527C412.354 83.1327 414.554 81.2527 416.768 79.3861C417.781 79.7861 419.781 80.5861 420.781 80.9727C418.114 82.9061 415.621 85.0661 413.128 87.1994C431.381 99.1861 447.194 114.879 459.194 133.133C461.821 130.679 465.088 128.679 466.968 125.559C465.754 119.879 462.474 114.973 459.501 110.093C465.661 112.733 467.701 119.773 469.288 125.693C466.528 130.693 461.248 133.719 457.474 137.933C434.914 101.653 396.621 75.5727 354.541 68.0394C325.808 63.0927 295.528 65.6394 268.528 76.9461C238.688 89.0927 212.794 110.786 195.821 138.186C195.101 136.759 194.408 135.333 193.621 133.946C205.594 115.759 221.154 99.9461 239.288 87.8661C235.888 85.0661 232.888 80.5327 228.021 80.6527C222.448 81.2127 217.701 84.5061 213.274 87.6661L211.514 86.6927C217.354 80.6394 225.661 77.7861 233.981 78.3061C236.781 80.7727 239.648 83.1594 242.501 85.5861Z" fill="#0F171F"/>
<path d="M268.528 76.9458C295.528 65.6392 325.808 63.0925 354.542 68.0392C396.622 75.5725 434.915 101.653 457.475 137.933C461.382 144.119 464.662 150.653 467.982 157.159C473.395 169.653 477.275 182.813 479.368 196.279C474.688 198.226 471.942 202.533 469.622 206.799C468.448 199.853 462.915 194.613 456.715 191.839C451.008 189.666 444.515 193.053 441.848 198.266C437.822 206.199 433.102 213.733 428.688 221.453C428.568 220.719 428.315 219.253 428.182 218.533C435.968 203.506 442.795 187.986 448.808 172.186C451.502 164.719 453.808 155.613 449.075 148.466C445.595 144.133 440.475 140.053 434.582 140.546C428.675 140.946 423.928 144.973 420.088 149.133C417.888 143.919 413.435 139.693 408.075 137.893C402.488 136.293 396.968 139.079 392.755 142.533C372.195 124.933 344.435 115.959 317.448 118.586C291.848 120.866 267.288 133.319 250.368 152.679C240.902 163.613 233.688 176.453 229.302 190.239C226.008 192.799 223.102 196.253 223.342 200.706C218.768 196.039 213.662 190.333 206.608 190.253C199.435 190.039 193.262 194.759 189.302 200.373C186.888 198.653 184.368 196.586 181.222 196.639C178.102 196.573 175.595 198.599 173.102 200.186C175.635 187.946 177.995 175.599 182.635 163.933C186.435 155.066 190.608 146.333 195.822 138.186C212.795 110.786 238.688 89.0925 268.528 76.9458ZM316.408 81.3992C316.755 88.9992 316.608 96.6258 317.088 104.213C318.542 108.759 323.928 107.199 327.488 107.386C327.408 106.266 327.248 104.053 327.182 102.946C325.075 103.199 322.968 103.386 320.862 103.533C320.822 100.693 320.742 97.8525 320.622 95.0258C322.768 94.9458 324.915 94.9058 327.062 94.9058C327.008 93.8392 326.915 91.7058 326.862 90.6392C324.782 90.8525 322.702 91.0792 320.622 91.3058C320.675 88.1325 320.368 84.9725 319.382 81.9458C319.622 81.6925 320.075 81.1858 320.315 80.9458C322.222 82.1058 324.128 83.2658 326.675 82.8525C326.675 81.7858 326.662 79.6525 326.662 78.5858C323.088 78.9858 318.662 77.8258 316.408 81.3992ZM345.728 79.5325C344.662 89.2658 342.435 98.8258 341.355 108.559C342.302 108.706 344.182 108.973 345.128 109.106C346.688 99.7725 347.995 90.3992 349.888 81.1192C348.488 80.5992 347.115 80.0658 345.728 79.5325ZM296.902 85.6258C298.035 92.6125 298.982 99.6525 300.528 106.559C302.208 110.799 307.342 108.986 310.675 108.266C313.822 106.733 313.368 102.933 312.488 100.133C311.528 100.186 309.608 100.293 308.648 100.346C308.808 101.373 309.115 103.453 309.262 104.493C307.582 104.773 305.902 105.053 304.235 105.346C303.048 97.7992 301.475 90.3192 300.475 82.7458L300.848 85.0525C302.515 84.7858 304.195 84.5725 305.888 84.4258C306.062 85.3725 306.408 87.2925 306.582 88.2392C307.595 88.0392 309.648 87.6125 310.675 87.3992C309.955 85.3858 310.088 82.7992 308.355 81.3058C306.488 79.2125 303.502 80.7192 301.168 80.8525C298.835 81.0125 296.275 83.0658 296.902 85.6258ZM353.515 94.9458C353.395 99.1058 358.342 99.3458 361.222 100.439C360.462 103.093 359.702 105.733 358.955 108.386C356.568 107.626 354.075 106.559 351.702 107.999C353.995 107.386 354.662 105.253 355.342 103.253C354.368 102.839 352.422 102.013 351.448 101.599C350.795 104.133 349.302 106.893 350.862 109.413C353.315 111.586 356.822 112.053 359.968 112.119C362.742 111.026 363.128 107.866 363.835 105.359C365.288 99.6525 367.355 94.1058 368.488 88.3192C367.768 83.9058 362.155 83.5192 358.595 83.2525C354.688 85.6258 354.782 90.9725 353.515 94.9458ZM279.608 87.0925C278.115 87.3725 276.635 87.6658 275.142 87.9725C278.475 97.0125 281.435 106.173 284.568 115.279C285.848 114.773 287.128 114.253 288.408 113.746C285.568 106.093 283.142 98.2925 280.342 90.6258C282.142 89.9858 283.955 89.3592 285.768 88.7325C288.355 96.4925 291.048 104.239 293.542 112.039C294.795 111.666 296.062 111.293 297.315 110.933C294.955 103.946 292.635 96.9458 290.328 89.9458C289.635 88.0658 288.995 85.7058 286.835 85.0392C284.208 84.3858 281.848 85.9992 279.608 87.0925ZM373.368 91.5592C375.915 92.6392 378.475 93.7192 381.048 94.7992C376.115 101.533 371.662 108.613 366.635 115.279C367.595 115.733 369.528 116.653 370.502 117.106C376.155 109.213 381.475 101.066 387.128 93.1592C383.328 91.3725 379.475 89.7592 375.742 87.8658C374.928 89.0792 374.142 90.3192 373.368 91.5592ZM264.475 93.1325C268.875 101.639 272.715 110.413 277.048 118.946C277.942 118.493 279.702 117.586 280.582 117.133C276.475 108.413 272.208 99.7592 268.062 91.0525C266.862 91.7458 265.662 92.4392 264.475 93.1325ZM249.422 102.079C246.755 106.133 251.555 109.839 253.288 113.226C257.048 113.519 260.782 114.013 264.542 114.279C265.675 115.853 266.808 117.426 267.955 118.999C266.528 120.013 265.102 121.026 263.688 122.053C263.008 120.973 262.328 119.893 261.662 118.813C260.808 119.333 259.088 120.386 258.235 120.906C259.528 123.066 260.808 125.946 263.728 126.079C266.715 125.266 269.475 123.413 271.462 121.053C272.528 116.893 268.755 113.879 266.955 110.573C263.275 110.199 259.515 110.333 255.928 109.493C254.568 108.173 253.635 106.506 252.515 104.999C253.875 103.986 255.222 102.959 256.582 101.946C257.342 102.986 258.088 104.039 258.848 105.079C259.688 104.493 261.368 103.319 262.222 102.733C260.635 100.813 259.168 97.6258 256.222 97.9725C253.662 98.6925 251.488 100.439 249.422 102.079ZM380.328 112.239C382.302 113.933 384.528 115.319 386.795 116.599C385.382 118.999 383.888 121.333 382.368 123.639C383.595 124.399 384.822 125.159 386.048 125.919C387.288 123.773 388.542 121.639 389.795 119.519C391.742 119.453 392.995 118.106 394.022 116.613C393.715 116.106 393.102 115.119 392.795 114.626C395.768 110.333 398.302 105.746 401.342 101.493C400.155 100.706 398.982 99.9325 397.822 99.1458C392.022 103.546 384.928 106.426 380.328 112.239Z" fill="white"/>
<path d="M357.408 95.1459C358.315 92.1992 359.315 89.2392 359.675 86.1592C361.288 88.5992 364.622 88.5192 366.955 87.2658C363.128 88.3992 363.648 93.0125 362.675 96.0792C360.902 95.8658 359.142 95.5592 357.408 95.1459Z" fill="white"/>
<path d="M307.995 124.452C336.622 118.626 367.542 126.826 389.755 145.732C380.595 158.719 372.009 172.386 366.515 187.386C363.342 185.826 359.569 185.866 356.715 183.626C353.569 181.399 349.422 181.586 345.849 182.466C338.755 184.319 333.209 189.719 329.329 195.732C325.915 190.492 320.675 186.372 314.649 184.599C318.209 177.026 320.409 168.746 321.289 160.426C321.662 154.066 321.515 146.919 317.289 141.719C314.315 138.199 310.195 134.852 305.315 135.066C299.369 134.852 294.395 139.012 290.942 143.452C284.329 152.159 282.302 163.119 279.289 173.372C274.382 164.266 269.249 155.119 262.275 147.412C274.715 135.399 291.182 127.946 307.995 124.452Z" fill="white"/>
<path d="M308.714 261.319C313.127 258.466 315.714 253.626 320.101 250.746C323.327 257.799 329.154 264.466 337.207 265.626C348.061 267.746 358.421 260.826 364.261 252.133C369.207 267.853 378.754 281.759 390.061 293.613C372.514 308.546 349.727 317.306 326.621 316.946C303.207 317.239 280.021 308.239 262.527 292.759C270.981 284.079 278.034 274.026 283.327 263.119C290.994 268.213 301.647 266.866 308.714 261.319Z" fill="white"/>
<path d="M284.381 329.786C285.954 330.426 287.541 331.066 289.127 331.719C288.181 334.106 287.287 336.506 286.447 338.946C284.807 338.533 283.167 338.133 281.527 337.719C282.447 335.066 283.407 332.426 284.381 329.786Z" fill="white"/>
<path d="M316.408 81.3993C318.662 77.8259 323.088 78.9859 326.662 78.5859C326.662 79.6526 326.675 81.7859 326.675 82.8526C324.128 83.2659 322.222 82.1059 320.315 80.9459C320.075 81.1859 319.622 81.6926 319.382 81.9459C320.368 84.9726 320.675 88.1326 320.622 91.3059C322.702 91.0793 324.782 90.8526 326.862 90.6393C326.915 91.7059 327.008 93.8393 327.062 94.9059C324.915 94.9059 322.768 94.9459 320.622 95.0259C320.742 97.8526 320.822 100.693 320.862 103.533C322.968 103.386 325.075 103.199 327.182 102.946C327.248 104.053 327.408 106.266 327.488 107.386C323.928 107.199 318.542 108.759 317.088 104.213C316.608 96.6259 316.755 88.9993 316.408 81.3993Z" fill="#000414"/>
<path d="M296.903 85.626C296.276 83.066 298.836 81.0126 301.169 80.8526C303.503 80.7193 306.489 79.2126 308.356 81.3059C310.089 82.7993 309.956 85.3859 310.676 87.3993C309.649 87.6126 307.596 88.0393 306.583 88.2393C306.409 87.2926 306.063 85.3726 305.889 84.4259C304.196 84.5726 302.516 84.786 300.849 85.0526L300.476 82.7459C301.476 90.3193 303.049 97.7993 304.236 105.346C305.903 105.053 307.583 104.773 309.263 104.493C309.116 103.453 308.809 101.373 308.649 100.346C309.609 100.293 311.529 100.186 312.489 100.133C313.369 102.933 313.823 106.733 310.676 108.266C307.343 108.986 302.209 110.799 300.529 106.559C298.983 99.6526 298.036 92.6126 296.903 85.626Z" fill="#000414"/>
<path d="M373.368 91.5593C374.141 90.3193 374.928 89.0793 375.741 87.866C379.475 89.7593 383.328 91.3726 387.128 93.1593C381.475 101.066 376.155 109.213 370.501 117.106C369.528 116.653 367.595 115.733 366.635 115.279C371.661 108.613 376.115 101.533 381.048 94.7993C378.475 93.7193 375.915 92.6393 373.368 91.5593Z" fill="#000414"/>
<path d="M229.302 190.239C233.689 176.453 240.902 163.613 250.369 152.679C249.502 155.226 249.102 157.906 249.489 160.586C242.889 169.186 237.995 178.946 234.169 189.053C229.009 191.506 225.955 196.386 224.182 201.626C223.969 201.399 223.542 200.933 223.342 200.706C223.102 196.253 226.009 192.799 229.302 190.239Z" fill="#000414"/>
<path d="M355.863 205.346C356.249 203.013 358.409 201.746 360.063 200.346C362.556 202.759 362.916 206.346 362.903 209.626C362.556 215.639 360.983 221.519 358.863 227.133C353.783 221.106 354.089 212.573 355.863 205.346ZM358.969 202.546C357.876 209.039 359.063 215.653 357.916 222.146C359.529 215.733 358.489 209.079 358.969 202.546Z" fill="#000414"/>
<path d="M410.901 268.839C411.741 269.466 413.435 270.706 414.275 271.333C410.595 277.613 406.221 283.466 401.341 288.853C400.235 287.906 399.155 286.946 398.088 285.973C402.915 280.693 407.115 274.893 410.901 268.839Z" fill="#000414"/>
<path d="M408.049 299.679C411.969 297.426 413.462 290.879 418.715 291.613C425.862 296.746 431.836 303.399 438.529 309.119C437.582 310.106 436.662 311.093 435.742 312.093C429.769 306.426 423.622 300.946 417.609 295.333C416.382 296.733 415.156 298.119 413.942 299.519C419.969 305.079 426.022 310.613 432.102 316.133C431.156 317.133 430.235 318.146 429.302 319.159C422.329 312.546 415.089 306.213 408.049 299.679Z" fill="#000414"/>
<path d="M365.742 326.706C366.715 326.373 368.689 325.693 369.675 325.359C371.849 333.053 374.262 340.693 376.449 348.386C378.422 353.879 370.102 356.773 366.315 354.426C363.995 357.826 357.475 360.479 354.795 356.293C352.049 348.319 350.089 340.079 347.422 332.066C348.742 331.626 350.075 331.199 351.409 330.773C353.569 338.733 356.049 346.613 358.289 354.559C360.062 353.959 361.862 353.359 363.649 352.773C361.155 345.039 359.262 337.106 356.622 329.413C357.915 328.946 359.235 328.506 360.542 328.079C362.702 335.999 365.155 343.853 367.302 351.786C369.155 351.253 370.995 350.719 372.849 350.199C370.395 342.386 368.302 334.479 365.742 326.706Z" fill="#000414"/>
<path d="M305.568 344.106C309.475 344.679 313.408 345.053 317.341 345.479C317.261 346.306 317.115 347.946 317.048 348.759C313.275 349.759 309.061 347.786 305.088 347.933C305.208 346.973 305.448 345.066 305.568 344.106Z" fill="#000414"/>
<path d="M345.729 79.5327C347.115 80.066 348.489 80.5994 349.889 81.1194C347.995 90.3994 346.689 99.7727 345.129 109.106C344.182 108.973 342.302 108.706 341.355 108.559C342.435 98.826 344.662 89.266 345.729 79.5327Z" fill="#000012"/>
<path d="M249.423 102.079C251.489 100.439 253.663 98.6926 256.223 97.9726C259.169 97.626 260.636 100.813 262.223 102.733C261.369 103.319 259.689 104.493 258.849 105.079C258.089 104.039 257.343 102.986 256.583 101.946C255.223 102.959 253.876 103.986 252.516 104.999C253.636 106.506 254.569 108.173 255.929 109.493C259.516 110.333 263.276 110.199 266.956 110.573C268.756 113.879 272.529 116.893 271.463 121.053C269.476 123.413 266.716 125.266 263.729 126.079C260.809 125.946 259.529 123.066 258.236 120.906C259.089 120.386 260.809 119.333 261.663 118.813C262.329 119.893 263.009 120.973 263.689 122.053C265.103 121.026 266.529 120.013 267.956 118.999C266.809 117.426 265.676 115.853 264.543 114.279C260.783 114.013 257.049 113.519 253.289 113.226C251.556 109.839 246.756 106.133 249.423 102.079Z" fill="#000012"/>
<path d="M514.861 216.333C516.608 215.946 518.821 215.839 519.675 217.813C519.821 220.013 519.608 222.226 519.475 224.426C517.141 223.053 515.595 220.826 514.168 218.599C514.341 218.039 514.688 216.906 514.861 216.333Z" fill="#000012"/>
<path d="M47.9954 234.173C48.8354 237.613 49.2488 241.133 49.3421 244.679C50.7421 244.946 52.1554 245.213 53.5688 245.493C51.2354 246.319 49.2354 247.799 48.7021 250.386C51.3954 250.479 54.0088 249.839 56.6221 249.346C62.7821 248.066 69.7421 251.759 71.6488 257.866C74.1954 266.133 70.6488 275.079 65.4754 281.586C67.5821 273.239 74.2221 264.053 68.6088 255.666C63.8221 248.839 54.8754 252.133 47.9688 251.839C45.9288 261.479 44.5954 271.293 41.6888 280.746C39.6754 284.079 41.1954 287.613 42.6221 290.786L43.3288 293.159C41.8221 291.613 40.4488 289.959 39.1554 288.253C38.5688 289.146 37.3821 290.959 36.7954 291.853C36.7688 291.279 36.7021 290.146 36.6621 289.573C43.1288 271.773 45.7554 252.893 47.9954 234.173Z" fill="#000012"/>
<path d="M213.274 87.6661C217.7 84.5061 222.447 81.2127 228.02 80.6527C232.887 80.5327 235.887 85.0661 239.287 87.8661C221.154 99.9461 205.594 115.759 193.62 133.946C190.9 131.026 187.074 129.026 185.047 125.546C185.994 120.826 188.46 116.586 190.98 112.559C197.074 103.186 204.554 94.6794 213.274 87.6661Z" fill="#FEFEFE"/>
<path d="M413.127 87.1993C415.62 85.066 418.114 82.906 420.78 80.9727C425.594 80.026 430.274 82.1727 434.26 84.666C444.487 91.1193 452.394 100.466 459.5 110.093C462.474 114.973 465.754 119.879 466.967 125.559C465.087 128.679 461.82 130.679 459.194 133.133C447.194 114.879 431.38 99.186 413.127 87.1993Z" fill="#FEFEFE"/>
<path d="M386.621 111.199C388.541 109.959 390.448 108.693 392.408 107.506C391.274 109.426 390.061 111.319 388.808 113.159C388.074 112.506 387.354 111.853 386.621 111.199Z" fill="#FEFEFE"/>
<path d="M290.622 157.573C293.049 151.133 296.902 144.199 303.742 141.759C307.542 140.666 310.529 143.959 311.369 147.346C312.649 157.679 309.395 167.799 305.635 177.293C302.209 185.946 298.142 194.319 294.409 202.853C290.089 211.519 288.902 221.359 288.342 230.906C288.649 234.973 288.102 240.413 291.995 242.973C295.982 244.093 299.809 241.613 302.795 239.213C302.089 236.946 299.569 235.866 298.502 233.759C293.075 224.146 294.582 211.999 299.515 202.493C301.982 197.906 305.409 193.026 310.742 191.679C314.315 190.719 317.689 192.933 320.102 195.346C325.289 206.413 320.569 218.893 316.422 229.493C318.689 227.879 320.929 226.213 322.942 224.279C324.409 222.786 326.049 221.213 326.542 219.093C329.129 209.133 333.022 198.693 341.329 192.093C345.569 188.666 353.075 186.479 356.382 192.266C361.342 191.479 366.409 194.306 367.769 199.253C370.315 209.253 366.835 219.506 363.449 228.866C367.249 227.333 371.142 225.506 373.849 222.319C374.849 209.173 376.609 196.053 379.969 183.279C381.769 175.946 384.342 168.839 387.195 161.866C390.355 155.626 394.089 149.119 400.275 145.453C403.395 143.453 408.462 143.706 410.129 147.466C411.849 151.573 410.115 156.039 409.062 160.066C402.729 179.426 394.209 197.986 385.369 216.306C384.462 223.719 383.502 231.213 383.889 238.706C384.262 240.493 384.089 242.746 385.542 244.079L386.515 244.986C394.782 241.306 399.462 232.719 403.182 224.933C405.209 203.426 409.329 181.679 419.169 162.253C422.515 156.346 426.595 149.799 433.435 147.626C436.742 146.359 441.342 148.559 441.569 152.319C442.235 159.453 438.649 166.013 436.302 172.533C430.355 187.159 423.982 201.653 416.395 215.519C413.982 219.306 414.275 223.973 413.555 228.239C413.142 234.613 411.689 241.426 414.489 247.479C421.475 245.746 425.795 239.426 429.329 233.626C433.982 223.533 440.809 214.653 445.809 204.733C447.195 202.039 448.582 198.693 451.929 198.026C457.915 197.173 461.795 205.039 458.889 209.839C455.769 214.866 454.382 220.946 455.515 226.813C456.635 232.399 457.209 238.106 456.369 243.773C459.715 239.786 463.289 235.933 466.249 231.639C468.742 222.573 472.649 213.893 477.702 205.959C479.062 203.399 482.382 201.626 485.102 203.253C488.969 205.386 490.515 210.919 488.169 214.706C486.342 217.906 484.289 220.973 482.569 224.226C478.902 230.506 475.502 237.093 474.382 244.373C476.649 245.479 479.022 246.693 481.622 245.813C486.235 243.639 489.249 239.093 491.222 234.546C493.462 227.146 495.355 219.626 497.395 212.173C498.009 209.093 501.449 205.613 504.662 207.706C507.849 209.253 508.515 212.919 508.502 216.133C509.929 214.333 511.142 212.093 513.542 211.453C516.969 210.866 520.369 212.839 522.075 215.773C522.422 219.106 522.315 222.453 521.955 225.786C528.209 226.666 534.462 225.866 540.662 224.999C545.569 227.093 547.849 234.733 543.475 238.386C538.262 243.213 535.822 250.199 534.355 256.973C533.462 261.399 532.355 266.453 535.155 270.426C542.702 266.853 547.102 259.253 550.742 252.106C553.355 243.066 556.102 233.133 563.822 227.039C568.195 223.533 574.609 224.826 578.355 228.626C582.249 232.533 586.729 237.773 584.995 243.719C583.942 246.306 581.302 246.733 578.835 246.399C576.009 243.586 574.409 239.626 570.849 237.599C564.022 240.813 561.075 248.306 558.662 254.933C557.022 260.759 554.955 267.146 556.649 273.119C557.835 276.426 561.102 274.133 562.542 272.386C568.062 265.919 570.822 257.626 572.822 249.506C573.369 246.799 576.275 245.199 578.822 246.453C582.542 248.466 584.942 253.239 583.489 257.359C581.169 263.906 578.969 270.706 579.062 277.746C578.782 279.626 580.782 280.599 581.729 281.919C588.502 277.906 592.475 270.626 595.862 263.786C598.475 255.813 599.809 247.453 602.302 239.439C604.422 235.306 608.649 239.466 609.862 242.133C609.329 251.893 606.435 261.359 605.742 271.106C607.635 265.626 609.435 260.093 612.275 255.013C615.009 250.239 617.955 244.079 624.115 243.359C629.782 242.506 634.249 246.839 636.955 251.279C639.622 258.973 638.302 267.319 635.315 274.706C632.449 281.479 629.182 288.119 627.155 295.213C631.062 295.839 634.209 292.986 637.062 290.733C640.475 288.039 643.169 284.599 646.089 281.413C647.502 282.559 647.755 283.866 646.849 285.306C643.195 292.159 639.302 299.333 632.889 303.986C629.769 306.426 624.782 306.693 621.942 303.693C618.009 300.266 617.515 294.573 617.969 289.693C619.089 279.159 622.555 269.079 624.422 258.693C620.755 259.693 617.409 261.759 615.195 264.919C608.595 273.719 604.062 283.999 601.075 294.546C596.795 298.999 590.249 293.373 590.782 288.266C590.862 287.173 591.022 284.999 591.102 283.919C588.435 287.226 584.969 291.826 580.075 289.986C572.129 287.706 569.822 278.426 569.822 271.146C567.649 274.013 566.715 277.759 563.742 280.013C560.835 283.066 555.542 282.293 553.142 279.013C548.862 273.759 549.222 266.599 549.649 260.239C545.995 265.479 543.289 271.986 537.262 274.999C534.262 276.639 531.369 273.933 529.715 271.653C525.782 261.813 527.289 250.719 529.689 240.693C527.635 240.399 525.582 240.106 523.542 239.799C521.329 238.933 519.342 237.626 517.395 236.319C513.502 245.453 507.275 253.466 499.355 259.439C496.982 261.559 493.542 262.919 492.515 266.186C488.182 276.799 483.355 287.413 476.315 296.533C472.782 301.506 466.875 304.333 460.755 303.239C458.075 301.626 455.155 299.986 453.729 297.053C451.729 293.719 452.422 289.653 452.609 285.973C454.742 281.039 457.755 276.293 462.355 273.319C468.342 268.733 475.675 266.453 481.982 262.466C483.782 258.093 485.062 253.506 486.915 249.159C482.755 253.439 475.889 255.999 470.435 252.546C465.582 249.479 464.875 243.373 465.235 238.159C460.022 243.519 455.702 249.653 450.742 255.226C443.155 262.426 428.849 256.573 428.822 245.946C426.129 248.306 424.342 251.613 421.182 253.453C417.515 256.106 411.675 256.973 408.449 253.173C404.489 248.453 403.902 241.959 403.609 236.053C400.009 241.586 397.249 248.173 391.275 251.626C387.582 253.999 381.915 254.173 379.182 250.293C374.662 244.093 374.195 235.933 374.262 228.519C373.782 228.826 372.835 229.439 372.355 229.746C369.342 233.533 364.809 235.759 360.022 236.186C356.809 241.693 353.169 247.386 347.409 250.519C342.142 253.599 334.569 253.479 330.329 248.693C325.195 243.333 324.835 235.359 325.209 228.373C321.355 233.279 317.315 239.133 310.809 240.519C306.462 246.786 300.249 253.453 291.929 252.933C286.449 252.959 282.489 248.199 280.609 243.506C278.555 239.106 278.609 234.186 277.742 229.506C273.569 238.506 270.009 249.279 260.902 254.453C255.435 257.213 250.795 251.573 250.102 246.613C249.715 233.706 253.262 221.173 254.955 208.479C253.355 209.759 251.755 211.026 250.262 212.399C247.555 215.146 245.715 218.586 244.022 221.999C239.222 231.826 235.529 242.266 233.715 253.079C233.262 255.959 230.862 258.199 228.102 258.933C225.169 258.719 222.555 256.506 222.022 253.586C221.182 248.533 223.475 243.599 223.542 238.573C219.622 246.159 216.915 255.613 209.009 260.119C203.635 263.013 198.355 257.533 198.355 252.253C197.369 239.599 200.489 227.066 201.742 214.533C197.729 217.026 195.022 221.053 192.942 225.213C187.249 236.439 183.715 248.693 181.822 261.106C181.262 264.719 176.875 267.799 173.475 265.559C170.449 263.666 170.409 259.893 170.689 256.746C168.235 262.279 164.475 269.426 157.275 268.559C150.849 267.573 149.169 260.279 148.049 254.946C146.395 260.053 145.115 265.613 141.195 269.559C138.795 272.226 134.009 273.159 131.462 270.186C127.462 266.186 127.742 260.213 127.249 255.013C123.902 262.546 121.875 271.119 115.555 276.879C112.929 278.039 109.622 277.319 108.275 274.639C104.849 268.346 105.049 260.879 104.942 253.919C105.209 251.319 105.542 248.746 105.875 246.173C102.035 248.093 97.8219 249.226 93.5019 248.599C92.0085 252.933 90.5552 257.266 88.6219 261.426L86.6752 260.666C88.1685 256.666 89.5552 252.613 90.8352 248.533C83.2752 246.053 80.6885 236.826 84.3152 230.146C86.1952 227.013 89.5552 224.573 93.3552 224.959C97.5285 226.946 96.5019 232.279 96.3552 236.026C101.235 234.373 105.782 231.866 109.929 228.813C112.209 227.279 114.515 225.066 117.515 225.773C121.582 228.266 121.182 234.159 118.609 237.613C115.142 243.119 113.382 249.519 112.422 255.906C111.555 261.266 110.915 267.053 113.422 272.106C118.169 268.986 120.582 263.546 122.862 258.546C124.902 253.506 127.315 248.506 127.982 243.039C129.262 233.959 131.502 224.813 136.275 216.879C138.822 213.213 142.182 209.626 146.689 208.546C151.609 207.599 156.422 210.506 159.395 214.253C161.489 217.973 160.355 223.959 155.849 225.346C152.595 226.146 150.409 223.239 147.889 221.813C145.515 221.479 143.849 223.906 142.542 225.546C137.515 233.559 135.382 243.039 134.342 252.319C134.142 256.679 133.449 261.693 136.542 265.266C143.089 260.426 144.449 251.693 146.795 244.386C149.102 238.013 146.835 228.613 154.622 225.613C158.035 226.719 161.075 229.853 160.195 233.719C158.835 242.106 156.222 250.813 158.635 259.266C164.342 258.933 165.782 252.026 168.155 247.853C170.529 241.879 173.555 235.999 174.182 229.506C175.182 221.719 176.182 213.933 177.182 206.146C178.342 204.759 179.742 203.613 181.369 202.733C182.715 203.999 184.875 204.959 185.102 207.039C185.289 216.666 183.275 226.226 183.689 235.839C186.022 226.293 188.489 216.693 192.635 207.746C195.035 202.666 199.342 197.666 205.275 197.133C208.609 196.599 211.969 198.453 213.782 201.213C216.662 205.239 216.222 210.506 215.942 215.186C214.369 226.919 209.315 237.879 207.769 249.626C216.275 244.386 220.729 234.693 225.275 226.159C227.062 217.266 228.009 208.199 229.729 199.293C230.889 195.906 235.169 195.333 237.515 197.866C239.209 208.226 235.782 218.746 235.675 229.186C238.555 219.386 241.462 209.506 246.302 200.479C249.529 195.359 254.929 190.679 261.369 191.319C267.782 192.653 270.515 199.733 269.875 205.666C268.915 218.933 262.475 230.959 259.822 243.879C265.075 242.119 267.969 236.999 271.262 232.906C273.635 229.266 276.729 225.746 277.689 221.439C278.862 199.653 283.969 178.279 290.622 157.573ZM303.369 151.479C298.702 162.346 298.022 174.293 295.529 185.733C299.075 180.906 301.355 175.306 303.822 169.893C306.595 162.933 309.355 155.066 306.475 147.693C305.089 148.626 303.942 149.879 303.369 151.479ZM402.289 154.639C396.462 166.533 393.035 179.413 389.689 192.173C396.035 183.413 400.115 173.253 404.222 163.306C405.969 159.226 406.475 154.799 406.502 150.399C404.302 150.826 403.249 152.839 402.289 154.639ZM430.569 162.919C426.022 173.159 422.822 183.919 419.889 194.706C424.235 189.093 427.302 182.613 430.435 176.266C433.395 168.906 438.222 161.559 437.049 153.279C433.582 155.399 432.142 159.399 430.569 162.919ZM307.275 211.546C305.555 217.493 305.315 224.706 310.155 229.306C314.075 220.719 318.062 210.079 313.689 200.973C310.009 203.293 308.502 207.599 307.275 211.546ZM355.862 205.346C354.089 212.573 353.782 221.106 358.862 227.133C360.982 221.519 362.555 215.639 362.902 209.626C362.915 206.346 362.555 202.759 360.062 200.346C358.409 201.746 356.249 203.013 355.862 205.346ZM335.235 237.613C335.262 240.733 337.929 243.573 341.155 243.253C346.929 243.213 351.115 238.639 354.715 234.693C346.809 230.186 342.155 221.039 342.382 212.039C337.595 219.573 334.622 228.626 335.235 237.613ZM433.329 237.613C432.662 241.879 433.089 247.413 437.329 249.719C440.502 250.999 444.915 250.306 446.515 246.946C448.929 241.959 447.422 236.226 445.955 231.186C443.995 225.919 443.489 220.306 443.929 214.733C439.115 221.693 435.649 229.493 433.329 237.613ZM514.862 216.333C514.689 216.906 514.342 218.039 514.169 218.599C515.595 220.826 517.142 223.053 519.475 224.426C519.609 222.226 519.822 220.013 519.675 217.813C518.822 215.839 516.609 215.946 514.862 216.333ZM496.702 254.799C504.489 249.973 512.382 243.666 514.862 234.413C509.462 230.533 507.462 223.733 508.129 217.333C504.969 229.999 501.195 242.533 496.702 254.799ZM87.9152 232.373C89.5685 234.053 91.3552 236.413 93.9552 236.253C94.4085 233.519 94.3819 230.666 92.7685 228.319C90.7819 229.173 89.2619 230.719 87.9152 232.373ZM461.129 288.533C459.342 291.573 463.809 293.866 466.089 292.026C471.769 287.359 474.235 280.106 477.689 273.839C471.435 277.653 464.155 281.453 461.129 288.533Z" fill="#FEFEFE"/>
<path d="M249.488 160.586C251.101 158.613 252.781 156.693 254.448 154.759C263.368 166.213 270.995 178.879 275.448 192.759C270.755 189.346 266.368 184.199 260.021 184.506C253.088 184.319 247.195 188.733 242.928 193.786C240.328 191.653 237.421 189.946 234.168 189.053C237.995 178.946 242.888 169.186 249.488 160.586Z" fill="#FEFEFE"/>
<path d="M49.7543 188.72C58.6476 185.266 70.1676 185.226 77.1809 192.533C85.7276 200.866 86.0343 214.493 81.7943 225.026C80.4609 228.28 78.6743 231.333 76.5009 234.093C75.3943 235.426 74.1943 236.693 72.9809 237.946C71.3276 239.546 69.5409 241 67.7676 242.466C71.8476 242.346 76.1009 243.52 78.8476 246.733C83.9143 252.026 83.8876 259.946 83.0743 266.76C80.3143 280.346 69.8743 293.013 55.8209 295.546C50.8609 296.933 45.7276 294.733 42.6209 290.786C41.1943 287.613 39.6743 284.08 41.6876 280.746C44.5676 283.706 45.8343 288.933 50.5276 289.533C56.5143 289.933 61.8209 285.946 65.4743 281.586C70.6476 275.08 74.1943 266.133 71.6476 257.866C69.7409 251.76 62.7809 248.066 56.6209 249.346C54.0076 249.84 51.3943 250.48 48.7009 250.386C49.2343 247.8 51.2343 246.32 53.5676 245.493C63.4476 241.106 70.0343 231.333 72.6743 221.106C73.8476 215.56 74.0609 209.146 70.4343 204.413C66.8076 199.586 60.3009 198.16 54.5809 198.093C41.1276 198.773 27.6476 204.893 19.2343 215.613C14.9143 221.12 11.9543 227.96 11.9543 235.053C12.3276 240.773 14.8743 246.8 19.9809 249.813C23.2343 251.84 27.4209 251.026 30.6476 253.133C31.2343 255.946 30.7809 258.813 29.3276 261.306C28.1809 262.48 26.8876 263.466 25.4476 264.253C16.3009 263.92 8.8476 255.733 7.70093 246.933C5.8876 236.333 9.82093 225.72 14.9409 216.6C22.5543 203.386 35.6876 194.04 49.7543 188.72Z" fill="#FEFEFE"/>
<path d="M44.2201 215.119C47.3667 211.013 50.7134 206.573 55.9001 204.973C56.2334 205.426 56.9001 206.333 57.2334 206.786C51.1134 214.599 48.5667 224.399 47.9934 234.173C45.7534 252.893 43.1267 271.773 36.6601 289.573C33.7667 296.199 30.4601 303.253 24.1401 307.279C20.5534 309.599 15.0601 310.679 11.9401 307.026C7.40673 301.626 8.9534 292.666 13.7401 287.999C13.5267 292.293 11.6867 299.359 17.2867 301.013C20.2734 300.599 22.7001 298.439 24.0334 295.826C28.2734 287.879 29.7134 278.853 31.4867 270.133C31.6334 269.213 31.9401 267.373 32.0867 266.453C35.4334 249.239 36.1401 231.039 44.2201 215.119Z" fill="#FEFEFE"/>
<path d="M58.4219 233.906C59.4219 227.266 61.8885 220.906 66.0619 215.613C67.2619 222.466 63.1152 229.239 58.4219 233.906Z" fill="#FEFEFE"/>
<path d="M244.008 255.866C246.101 261.693 250.568 267.466 257.114 268.239C262.034 269.293 266.514 266.733 270.568 264.359C266.061 271.813 260.754 278.759 254.834 285.146C249.261 279.413 244.901 272.639 240.928 265.733C242.781 262.746 243.674 259.346 244.008 255.866Z" fill="#FEFEFE"/>
<path d="M459.421 264.559C460.701 263.226 461.728 261.666 462.848 260.213C463.808 261.266 464.768 262.333 465.741 263.399C456.315 268.186 447.808 276.293 446.155 287.173C443.861 295.399 445.728 304.439 451.448 310.826C435.555 332.119 414.395 349.359 390.275 360.546C381.408 364.426 372.221 367.519 362.848 369.906C339.488 375.159 314.915 375.559 291.581 369.986C259.395 362.639 229.955 344.359 208.701 319.146C198.355 306.933 190.035 293.039 183.781 278.319C186.288 276.253 188.741 274.039 190.408 271.213C191.581 268.546 192.021 265.653 192.341 262.799C194.608 267.599 198.088 272.533 203.635 273.679C209.608 275.279 215.528 272.373 219.941 268.519C225.008 272.706 232.421 273.053 237.755 269.133C247.368 286.386 262.088 300.719 279.568 309.919C299.235 320.253 322.368 323.693 344.235 319.893C366.035 316.306 386.355 305.039 401.341 288.853C406.221 283.466 410.595 277.613 414.275 271.333C414.581 270.946 415.208 270.159 415.515 269.773C419.648 268.386 424.101 267.693 427.821 265.213C429.661 266.626 431.501 268.079 433.528 269.239C442.021 273.479 453.168 271.986 459.421 264.559ZM218.261 309.359C215.235 314.759 223.181 317.279 225.168 321.439C231.915 314.439 239.395 308.159 245.941 300.959C244.581 299.599 242.581 297.866 241.181 300.159C235.915 305.333 230.568 310.426 225.328 315.626C224.075 314.266 222.821 312.919 221.555 311.599C227.301 305.773 233.395 300.293 239.115 294.453C238.435 293.733 237.048 292.279 236.368 291.559C230.368 297.533 223.995 303.146 218.261 309.359ZM408.048 299.679C415.088 306.213 422.328 312.546 429.301 319.159C430.235 318.146 431.155 317.133 432.101 316.133C426.021 310.613 419.968 305.079 413.941 299.519C415.155 298.119 416.381 296.733 417.608 295.333C423.621 300.946 429.768 306.426 435.741 312.093C436.661 311.093 437.581 310.106 438.528 309.119C431.835 303.399 425.861 296.746 418.715 291.613C413.461 290.879 411.968 297.426 408.048 299.679ZM399.928 310.839C402.875 315.386 406.915 319.133 410.235 323.413C412.235 325.519 413.835 328.639 417.061 328.919C420.008 328.266 421.941 325.679 424.288 323.959C423.381 322.799 422.488 321.626 421.608 320.466C419.995 321.879 418.395 323.306 416.781 324.719C415.075 322.653 413.315 320.639 411.541 318.653C413.101 317.293 414.675 315.959 416.275 314.639C415.355 313.466 414.435 312.293 413.528 311.133C411.981 312.546 410.461 313.973 408.915 315.373C407.155 313.346 405.408 311.346 403.621 309.359C405.248 307.933 406.875 306.506 408.515 305.106C407.515 304.026 406.528 302.959 405.555 301.893C403.248 304.413 398.141 306.639 399.928 310.839ZM230.888 327.026C231.741 327.666 233.448 328.973 234.301 329.626C239.181 322.959 243.981 316.239 248.901 309.599C250.328 310.746 251.755 311.879 253.195 313.026C248.155 319.426 243.688 326.253 238.688 332.679C239.835 333.533 240.981 334.373 242.141 335.239C246.915 328.506 251.728 321.786 256.675 315.173C258.101 316.293 259.528 317.426 260.968 318.546C256.035 325.053 251.395 331.773 246.435 338.253C247.621 339.079 248.821 339.919 250.021 340.746C254.541 333.866 259.821 327.506 264.395 320.666C267.155 316.759 261.595 312.133 257.768 313.039C256.341 308.333 251.008 307.013 247.755 303.866C242.301 311.706 236.675 319.426 230.888 327.026ZM384.408 317.719C389.635 325.826 394.995 333.839 400.315 341.893C403.301 339.559 406.941 337.986 409.395 335.026C410.195 330.293 405.621 326.919 403.675 322.986C400.755 319.373 399.275 313.933 394.701 312.066C390.768 312.666 387.808 315.839 384.408 317.719ZM374.555 323.239C372.541 325.773 374.675 328.693 375.768 331.093C378.435 336.119 380.621 341.386 383.355 346.386C386.381 350.399 390.915 346.426 394.208 344.973C393.688 344.053 392.661 342.226 392.155 341.306C390.101 342.399 388.088 343.559 386.128 344.799C386.181 344.453 386.301 343.733 386.355 343.373C385.248 341.253 384.141 339.146 382.981 337.066C384.955 336.013 386.928 334.986 388.901 333.946C388.368 333.066 387.288 331.306 386.755 330.413C384.928 331.346 383.115 332.279 381.301 333.199C380.128 330.746 378.928 328.306 377.715 325.879C379.621 324.906 381.528 323.933 383.448 322.973C382.781 321.719 382.128 320.466 381.488 319.226C379.181 320.546 376.488 321.359 374.555 323.239ZM268.115 321.786C264.821 327.893 261.768 334.146 258.661 340.346C256.341 345.439 262.741 347.279 266.195 348.826C266.755 347.559 267.328 346.306 267.901 345.053C266.035 344.173 264.181 343.306 262.315 342.453C263.408 339.919 264.648 337.453 265.955 335.026C267.755 336.026 269.555 336.999 271.368 337.973C272.048 336.773 272.728 335.573 273.408 334.373C271.475 333.333 269.555 332.319 267.621 331.306C268.901 328.919 270.128 326.519 271.315 324.093C273.195 325.039 275.048 326.039 276.888 327.079C277.541 325.773 278.208 324.466 278.861 323.173C275.595 321.826 271.048 317.773 268.115 321.786ZM285.968 325.893C283.141 324.959 280.635 327.213 279.981 329.786C277.408 337.053 274.941 344.373 272.235 351.599C273.195 351.973 275.101 352.733 276.061 353.106C277.461 349.226 278.835 345.333 280.181 341.426C281.808 341.959 283.435 342.533 285.048 343.133C283.581 346.946 282.221 350.799 280.875 354.653C282.128 355.146 283.395 355.653 284.661 356.159C287.341 348.599 290.035 341.053 292.595 333.453C293.528 331.159 292.648 328.453 290.221 327.519C291.261 326.239 293.115 325.186 292.795 323.266C292.901 321.093 290.168 318.639 288.128 319.893C285.541 320.626 284.901 323.693 285.968 325.893ZM365.741 326.706C368.301 334.479 370.395 342.386 372.848 350.199C370.995 350.719 369.155 351.253 367.301 351.786C365.155 343.853 362.701 335.999 360.541 328.079C359.235 328.506 357.915 328.946 356.621 329.413C359.261 337.106 361.155 345.039 363.648 352.773C361.861 353.359 360.061 353.959 358.288 354.559C356.048 346.613 353.568 338.733 351.408 330.773C350.075 331.199 348.741 331.626 347.421 332.066C350.088 340.079 352.048 348.319 354.795 356.293C357.475 360.479 363.995 357.826 366.315 354.426C370.101 356.773 378.421 353.879 376.448 348.386C374.261 340.693 371.848 333.053 369.675 325.359C368.688 325.693 366.715 326.373 365.741 326.706ZM331.995 336.066C332.355 338.999 332.448 341.959 332.955 344.879C336.075 347.413 339.768 349.146 342.888 351.706C342.955 353.013 343.075 355.626 343.128 356.919C341.875 357.066 339.368 357.346 338.115 357.493C338.021 356.559 337.821 354.693 337.728 353.759C336.381 353.946 335.048 354.133 333.715 354.333C333.955 356.959 334.181 360.573 337.328 361.319C339.888 361.226 342.648 361.413 345.075 360.439C348.701 357.573 346.141 352.519 346.221 348.693C342.995 346.733 339.808 344.719 336.728 342.533C336.061 340.213 335.035 337.946 335.008 335.493C337.341 337.133 340.968 337.759 342.728 334.946C341.661 336.466 340.955 338.159 341.435 340.039C342.408 339.959 344.328 339.799 345.288 339.733C345.101 337.226 345.168 333.999 342.475 332.786C338.835 332.519 333.848 332.079 331.995 336.066ZM305.568 344.106C305.448 345.066 305.208 346.973 305.088 347.933C309.061 347.786 313.275 349.759 317.048 348.759C317.115 347.946 317.261 346.306 317.341 345.479C313.408 345.053 309.475 344.679 305.568 344.106Z" fill="#FEFEFE"/>
<path d="M382.328 266.426C389.288 267.786 396.235 265.186 401.381 260.533C403.648 264.239 407.195 266.719 410.901 268.839C407.115 274.893 402.915 280.693 398.088 285.973C391.968 280.199 387.221 273.213 382.328 266.426Z" fill="#FEFEFE"/>
<path d="M140.22 343.226C156.5 328.253 172.94 313.453 189.327 298.599C193.66 305.893 198.367 312.986 203.794 319.519C204.114 319.906 204.754 320.693 205.087 321.079C185.5 336.759 165.127 351.466 146.167 367.906C144.22 369.466 142.327 371.159 140.087 372.293C133.034 373.173 128.554 366.599 123.527 362.853C127.42 369.706 134.127 375.919 133.66 384.413C131.1 392.799 122.687 401.039 113.274 398.693C103.594 396.159 95.3669 388.026 92.9802 378.293C92.7935 373.826 94.3002 369.186 97.9535 366.399C106.487 359.719 118.287 360.133 127.14 354.053C131.834 350.879 135.994 346.973 140.22 343.226Z" fill="#FEFEFE"/>
<path d="M476.048 313.8C476.568 313.493 477.608 312.88 478.128 312.586C489.808 323.226 501.541 333.84 513.181 344.533C519.328 349.826 525.381 355.893 533.435 358.133C540.675 360.64 548.808 361.813 554.741 367.066C559.435 371.226 560.048 378.586 556.968 383.866C552.968 391.24 545.901 397.373 537.501 398.906C531.435 400.013 525.661 396.413 522.181 391.68C520.088 388.76 517.595 385.413 518.408 381.6C519.475 374.293 524.981 368.973 528.501 362.826C523.315 366.506 518.888 373.373 511.675 372.266C505.115 367.906 499.528 362.28 493.368 357.413C478.275 345.386 462.848 333.786 447.781 321.72C450.168 318.973 452.421 316.12 454.595 313.213L455.888 313.92C461.928 317.56 470.061 317.546 476.048 313.8Z" fill="#FEFEFE"/>
<path d="M353.514 94.946C354.781 90.9727 354.688 85.626 358.594 83.2527C362.154 83.5194 367.768 83.906 368.488 88.3194C367.354 94.106 365.288 99.6527 363.834 105.359C363.128 107.866 362.741 111.026 359.968 112.119C356.821 112.053 353.314 111.586 350.861 109.413C349.301 106.893 350.794 104.133 351.448 101.599C352.421 102.013 354.368 102.839 355.341 103.253C354.661 105.253 353.994 107.386 351.701 107.999C354.074 106.559 356.568 107.626 358.954 108.386C359.701 105.733 360.461 103.093 361.221 100.439C358.341 99.346 353.394 99.106 353.514 94.946ZM357.408 95.146C359.141 95.5594 360.901 95.866 362.674 96.0794C363.648 93.0127 363.128 88.3994 366.954 87.266C364.621 88.5194 361.288 88.5994 359.674 86.1594C359.314 89.2394 358.314 92.1994 357.408 95.146Z" fill="#000214"/>
<path d="M279.607 87.0927C281.847 85.9994 284.207 84.386 286.834 85.0394C288.994 85.706 289.634 88.066 290.327 89.946C292.634 96.946 294.954 103.946 297.314 110.933C296.061 111.293 294.794 111.666 293.541 112.039C291.047 104.239 288.354 96.4927 285.767 88.7327C283.954 89.3594 282.141 89.986 280.341 90.626C283.141 98.2927 285.567 106.093 288.407 113.746C287.127 114.253 285.847 114.773 284.567 115.279C281.434 106.173 278.474 97.0127 275.141 87.9727C276.634 87.666 278.114 87.3727 279.607 87.0927Z" fill="#000014"/>
<path d="M264.475 93.1327C265.661 92.4394 266.861 91.7461 268.061 91.0527C272.208 99.7594 276.475 108.413 280.581 117.133C279.701 117.586 277.941 118.493 277.048 118.946C272.715 110.413 268.875 101.639 264.475 93.1327Z" fill="#04101A"/>
<path d="M380.328 112.239C384.928 106.426 392.021 103.546 397.821 99.146C398.981 99.9327 400.155 100.706 401.341 101.493C398.301 105.746 395.768 110.333 392.795 114.626C393.101 115.119 393.715 116.106 394.021 116.613C392.995 118.106 391.741 119.453 389.795 119.519C388.541 121.639 387.288 123.773 386.048 125.919C384.821 125.159 383.595 124.399 382.368 123.639C383.888 121.333 385.381 118.999 386.795 116.599C384.528 115.319 382.301 113.933 380.328 112.239ZM386.621 111.199C387.355 111.853 388.075 112.506 388.808 113.159C390.061 111.319 391.275 109.426 392.408 107.506C390.448 108.693 388.541 109.959 386.621 111.199Z" fill="#182028"/>
<path d="M307.276 211.546C308.503 207.599 310.009 203.293 313.689 200.973C318.063 210.079 314.076 220.719 310.156 229.306C305.316 224.706 305.556 217.493 307.276 211.546Z" fill="#182028"/>
<path d="M72.9824 237.946C74.1958 236.693 75.3958 235.426 76.5024 234.093C77.7824 233.893 79.0624 233.693 80.3424 233.493C80.7158 236.533 80.8358 239.653 81.8491 242.573C83.3558 245.439 85.9558 247.479 88.2091 249.719C87.5691 252.506 86.9158 255.266 86.2624 258.039C84.0758 251.106 80.5291 244.346 73.8224 240.839C73.6091 240.106 73.1958 238.666 72.9824 237.946Z" fill="#182028"/>
<path d="M315.606 140.799L317.286 141.719C321.513 146.919 321.66 154.066 321.286 160.426C320.406 168.746 318.206 177.026 314.646 184.599L313.886 185.986C313.14 182.133 315.193 178.626 316.246 175.053C320.02 164.053 321.26 151.426 315.606 140.799Z" fill="#000010"/>
<path d="M311.501 146.133L313.021 145.146C314.701 156.399 311.555 167.439 307.355 177.773L305.635 177.293C309.395 167.799 312.648 157.679 311.368 147.346L311.501 146.133Z" fill="#000010"/>
<path d="M382.247 169.186C383.66 165.746 384.553 161.866 387.447 159.293L387.193 161.866C384.34 168.839 381.767 175.946 379.967 183.279C379.62 182.866 378.927 182.053 378.58 181.653C379.033 177.306 380.82 173.266 382.247 169.186Z" fill="#000010"/>
<path d="M178.58 169.519C179.207 167.199 180.994 165.573 182.634 163.933C177.993 175.599 175.633 187.946 173.1 200.186C172.473 198.119 171.793 195.999 172.313 193.826C173.687 185.573 175.94 177.453 178.58 169.519Z" fill="#000010"/>
<path d="M319.18 192.919C325.727 196.973 324.34 205.786 323.807 212.293C323.767 216.333 320.007 220.653 322.94 224.279C320.927 226.213 318.687 227.879 316.42 229.493C320.567 218.893 325.287 206.413 320.1 195.346L319.18 192.919Z" fill="#000010"/>
<path d="M236.887 195.586C241.434 198.586 239.487 204.506 240.1 209.039C242.02 206.239 242.22 200.746 246.3 200.479C241.46 209.506 238.554 219.386 235.674 229.186C235.78 218.746 239.207 208.226 237.514 197.866L236.887 195.586Z" fill="#000010"/>
<path d="M175.287 206.213C175.847 205.573 176.94 204.306 177.487 203.666L177.18 206.146C176.18 213.933 175.18 221.719 174.18 229.506C173.553 235.999 170.527 241.879 168.153 247.853C166.513 243.626 170.113 239.533 170.953 235.399C173.127 225.799 173.273 215.839 175.287 206.213Z" fill="#000010"/>
<path d="M250.26 212.399C251.753 211.026 253.353 209.759 254.953 208.479C253.26 221.173 249.713 233.706 250.1 246.613C249.967 247.279 249.713 248.599 249.58 249.266C247.54 247.239 248.02 244.239 247.967 241.666C248.407 232.613 250.94 223.826 251.98 214.853C251.553 214.239 250.687 213.013 250.26 212.399Z" fill="#000010"/>
<path d="M522.073 215.773L523.633 214.493C524.086 217.759 524.286 221.053 524.366 224.359C530.033 225.079 535.62 222.773 541.206 223.333L542.7 224.759L540.66 224.999C534.46 225.866 528.206 226.666 521.953 225.786C522.313 222.453 522.42 219.106 522.073 215.773Z" fill="#000010"/>
<path d="M35.4348 234.479C37.3548 227.733 38.1148 219.586 44.2215 215.119C36.1415 231.039 35.4348 249.239 32.0881 266.453L31.5415 267.613C30.7281 265.533 30.0081 263.426 29.3281 261.306C30.7815 258.813 31.2348 255.946 30.6481 253.133C34.6881 247.799 33.5148 240.599 35.4348 234.479Z" fill="#000010"/>
<path d="M133.9 217.879C134.5 217.639 135.674 217.133 136.274 216.879C131.5 224.813 129.26 233.959 127.98 243.039C127.314 248.506 124.9 253.506 122.86 258.546C120.967 255.719 123.74 252.613 124.26 249.733C127.26 239.106 127.354 227.239 133.9 217.879Z" fill="#000010"/>
<path d="M233.715 253.079C235.528 242.266 239.222 231.826 244.022 221.999L244.555 223.879C240.741 234.106 236.582 244.319 235.168 255.253C234.808 254.719 234.075 253.626 233.715 253.079Z" fill="#000010"/>
<path d="M482.568 224.226L484.514 223.333C482.314 230.239 476.954 236.226 477.128 243.759C478.768 244.146 480.261 244.839 481.621 245.813C479.021 246.693 476.648 245.479 474.381 244.373C475.501 237.093 478.901 230.506 482.568 224.226Z" fill="#000010"/>
<path d="M76.5009 234.093C78.6742 231.333 80.4609 228.279 81.7942 225.026C82.6342 226.733 83.4742 228.439 84.3142 230.146C80.6876 236.826 83.2742 246.053 90.8342 248.533C89.5542 252.613 88.1676 256.666 86.6742 260.666L88.6209 261.426C87.5542 261.653 86.4876 261.879 85.4342 262.119C85.2209 264.373 85.0076 266.613 84.7409 268.866C84.3276 268.346 83.4876 267.293 83.0742 266.759C83.8876 259.946 83.9142 252.026 78.8476 246.733C76.1009 243.519 71.8476 242.346 67.7676 242.466C69.5409 240.999 71.3276 239.546 72.9809 237.946C73.1942 238.666 73.6076 240.106 73.8209 240.839C80.5276 244.346 84.0742 251.106 86.2609 258.039C86.9142 255.266 87.5676 252.506 88.2076 249.719C85.9542 247.479 83.3542 245.439 81.8476 242.573C80.8342 239.653 80.7142 236.533 80.3409 233.493C79.0609 233.693 77.7809 233.893 76.5009 234.093Z" fill="#000010"/>
<path d="M118.607 237.613L120.22 236.933C116.767 245.279 114.14 253.973 113.913 263.079C113.367 260.693 112.793 258.319 112.42 255.906C113.38 249.519 115.14 243.119 118.607 237.613Z" fill="#000010"/>
<path d="M600.553 238.826L602.3 239.439C599.807 247.453 598.473 255.813 595.86 263.786L594.34 265.133C595.66 256.213 598.46 247.586 600.553 238.826Z" fill="#000010"/>
<path d="M523.54 239.799C525.58 240.106 527.634 240.399 529.687 240.693C527.287 250.719 525.78 261.813 529.714 271.653L528.207 272.373C523.434 262.853 525.847 252.173 526.847 242.133C525.674 241.786 523.314 241.066 522.127 240.706L523.54 239.799Z" fill="#000010"/>
<path d="M609.86 242.133L609.994 240.079C614.94 244.106 607.847 250.613 612.274 255.013C609.434 260.093 607.634 265.626 605.74 271.106C606.434 261.359 609.327 251.893 609.86 242.133Z" fill="#000010"/>
<path d="M636.568 249.053C639.861 250.599 640.074 254.719 640.048 257.866C639.941 264.519 640.128 272.066 635.354 277.333L635.314 274.706C638.301 267.319 639.621 258.973 636.954 251.279L636.568 249.053Z" fill="#000010"/>
<path d="M102.994 250.426C103.408 251.093 104.234 252.439 104.648 253.106L104.941 253.919C105.048 260.879 104.848 268.346 108.274 274.639C109.621 277.319 112.928 278.039 115.554 276.879L116.194 278.799C112.848 279.386 108.968 279.279 107.061 275.973C102.328 268.479 102.394 258.973 102.994 250.426Z" fill="#000010"/>
<path d="M446.554 269.546C451.047 268.493 455.101 266.119 459.421 264.559C453.167 271.986 442.021 273.479 433.527 269.239C437.874 268.613 442.207 269.733 446.554 269.546Z" fill="#000010"/>
<path d="M30.0608 267.706C30.4208 268.319 31.1274 269.519 31.4874 270.133C29.7141 278.853 28.2741 287.879 24.0341 295.826C23.1141 293.613 24.4474 291.413 24.9807 289.306C27.4341 282.306 28.6474 274.959 30.0608 267.706Z" fill="#000010"/>
<path d="M451.061 284.653L452.701 283.533L452.608 285.973C452.421 289.653 451.728 293.719 453.728 297.053C455.155 299.986 458.075 301.626 460.755 303.239L462.208 304.706C452.848 303.866 448.061 292.919 451.061 284.653Z" fill="#000010"/>
<path d="M455.314 312.333C458.648 313.039 461.914 314.306 465.341 314.559C469.301 314.479 473.048 312.986 476.874 312.159L476.048 313.799C470.061 317.546 461.928 317.559 455.888 313.919L455.314 312.333Z" fill="#000010"/>
<path d="M331.994 336.066C333.847 332.079 338.834 332.519 342.474 332.786C345.167 333.999 345.101 337.226 345.287 339.733C344.327 339.799 342.407 339.959 341.434 340.039C340.954 338.159 341.661 336.466 342.727 334.946C340.967 337.759 337.341 337.133 335.007 335.493C335.034 337.946 336.061 340.213 336.727 342.533C339.807 344.719 342.994 346.733 346.221 348.693C346.141 352.519 348.701 357.573 345.074 360.439C342.647 361.413 339.887 361.226 337.327 361.319C334.181 360.573 333.954 356.959 333.714 354.333C335.047 354.133 336.381 353.946 337.727 353.759C337.821 354.693 338.021 356.559 338.114 357.493C339.367 357.346 341.874 357.066 343.127 356.919C343.074 355.626 342.954 353.013 342.887 351.706C339.767 349.146 336.074 347.413 332.954 344.879C332.447 341.959 332.354 338.999 331.994 336.066Z" fill="#000010"/>
<path d="M362.848 369.906C372.221 367.519 381.408 364.426 390.274 360.546C390.034 361.119 389.541 362.293 389.301 362.879C383.448 365.986 376.994 367.799 370.714 369.839C368.154 370.799 365.434 370.706 362.848 369.906Z" fill="#000010"/>
<path d="M303.367 151.479C303.941 149.879 305.087 148.626 306.474 147.693C309.354 155.066 306.594 162.933 303.821 169.893C301.354 175.306 299.074 180.906 295.527 185.733C298.021 174.293 298.701 162.346 303.367 151.479Z" fill="#141A24"/>
<path d="M402.288 154.639C403.248 152.839 404.301 150.826 406.501 150.399C406.474 154.799 405.967 159.226 404.221 163.306C400.114 173.253 396.034 183.413 389.688 192.173C393.034 179.413 396.461 166.533 402.288 154.639Z" fill="#141A24"/>
<path d="M430.569 162.919C432.142 159.399 433.582 155.399 437.049 153.279C438.222 161.559 433.395 168.906 430.435 176.266C427.302 182.613 424.235 189.093 419.889 194.706C422.822 183.919 426.022 173.159 430.569 162.919Z" fill="#121824"/>
<path opacity="0.97" d="M467.982 157.159C474.289 162.519 474.542 171.493 477.942 178.573C478.462 178.866 479.502 179.439 480.022 179.733L480.622 180.053C480.622 180.959 480.609 181.853 480.569 182.759C479.756 187.466 480.542 192.199 481.396 196.839C480.889 196.693 479.876 196.413 479.369 196.279C477.276 182.813 473.396 169.653 467.982 157.159Z" fill="#000013"/>
<path d="M149.927 186.319C152.647 183.333 157.234 186.093 157.607 189.573C158.727 193.519 155.301 198.999 150.821 197.519C147.127 195.066 146.807 189.346 149.927 186.319Z" fill="#FCFCFC"/>
<path d="M137.928 188.626C145.141 184.959 147.941 197.933 141.395 200.306C134.875 202.119 133.301 191.639 137.928 188.626Z" fill="#FCFCFC"/>
<path d="M288.248 322.079C290.048 320.866 292.168 323.813 290.102 324.906C288.302 326.266 286.275 323.133 288.248 322.079Z" fill="#FCFCFC"/>
<path d="M19.2351 215.613C27.6484 204.893 41.1284 198.773 54.5817 198.093C60.3017 198.159 66.8084 199.586 70.4351 204.413C74.0617 209.146 73.8484 215.559 72.6751 221.106C70.0351 231.333 63.4484 241.106 53.5684 245.493C52.1551 245.213 50.7417 244.946 49.3417 244.679C49.2484 241.133 48.8351 237.613 47.9951 234.173C48.5684 224.399 51.1151 214.599 57.2351 206.786C56.9017 206.333 56.2351 205.426 55.9017 204.973C50.7151 206.573 47.3684 211.013 44.2217 215.119C38.1151 219.586 37.3551 227.733 35.4351 234.479C33.5151 240.599 34.6884 247.799 30.6484 253.133C27.4217 251.026 23.2351 251.839 19.9817 249.813C14.8751 246.799 12.3284 240.773 11.9551 235.053C11.9551 227.959 14.9151 221.119 19.2351 215.613ZM58.4217 233.906C63.1151 229.239 67.2617 222.466 66.0617 215.613C61.8884 220.906 59.4217 227.266 58.4217 233.906ZM23.8217 244.746C25.6217 244.813 27.4217 244.866 29.2351 244.933C30.6084 235.706 32.7017 226.573 35.8884 217.799C27.5684 223.426 18.1817 234.293 23.8217 244.746Z" fill="#181F29"/>
<path d="M335.236 237.612C334.623 228.626 337.596 219.572 342.383 212.039C342.156 221.039 346.809 230.186 354.716 234.692C351.116 238.639 346.929 243.212 341.156 243.252C337.929 243.572 335.263 240.732 335.236 237.612Z" fill="#181F29"/>
<path d="M47.9675 251.839C54.8742 252.133 63.8208 248.839 68.6075 255.666C74.2208 264.053 67.5808 273.239 65.4742 281.586C61.8208 285.946 56.5142 289.933 50.5275 289.533C45.8342 288.933 44.5675 283.706 41.6875 280.746C44.5942 271.293 45.9275 261.479 47.9675 251.839ZM54.7675 263.373C53.3942 268.666 52.7142 274.133 51.1542 279.386C51.6342 280.279 52.6075 282.039 53.1008 282.933C59.3808 279.879 64.4075 274.146 65.6875 267.173C65.4875 261.413 58.6475 262.013 54.7675 263.373Z" fill="#181F29"/>
<path d="M358.967 202.546C358.487 209.079 359.527 215.733 357.914 222.146C359.061 215.653 357.874 209.039 358.967 202.546Z" fill="#F8FCFC"/>
<path d="M394.594 226.706C393.874 224.839 394.594 220.532 397.008 220.599C397.834 222.599 396.848 226.266 394.594 226.706Z" fill="#F8FCFC"/>
<path d="M390.248 318.973C391.595 318.066 392.955 317.159 394.315 316.266C398.075 321.893 401.755 327.559 405.515 333.186C404.155 334.173 402.821 335.173 401.488 336.186C397.795 330.399 393.861 324.799 390.248 318.973Z" fill="#F8FCFC"/>
<path d="M433.328 237.613C435.648 229.493 439.114 221.693 443.928 214.733C443.488 220.306 443.994 225.919 445.954 231.186C447.421 236.226 448.928 241.959 446.514 246.946C444.914 250.306 440.501 250.999 437.328 249.719C433.088 247.413 432.661 241.879 433.328 237.613Z" fill="#181F28"/>
<path d="M385.222 229.613C385.182 225.813 384.369 221.706 386.395 218.239C386.902 227.146 386.329 236.066 386.515 244.986L385.542 244.079C384.982 239.279 385.555 234.426 385.222 229.613Z" fill="#010413"/>
<path d="M87.9141 232.373C89.2607 230.719 90.7807 229.173 92.7674 228.319C94.3807 230.666 94.4074 233.519 93.9541 236.253C91.3541 236.413 89.5674 234.053 87.9141 232.373Z" fill="#1C242C"/>
<path d="M54.7676 263.373C58.6476 262.013 65.4876 261.413 65.6876 267.173C64.4076 274.146 59.381 279.879 53.101 282.933C52.6076 282.039 51.6343 280.279 51.1543 279.386C52.7143 274.133 53.3943 268.666 54.7676 263.373ZM58.1143 266.359C57.341 269.653 56.621 272.973 56.1143 276.319C59.1543 273.826 60.6743 270.133 62.181 266.613C60.821 266.519 59.461 266.426 58.1143 266.359Z" fill="#FDFDFD"/>
<path d="M179.915 279.613C182.902 276.239 186.288 273.146 190.408 271.213C188.742 274.039 186.288 276.253 183.782 278.319C190.035 293.039 198.355 306.933 208.702 319.146C207.062 319.266 205.422 319.386 203.795 319.519C198.368 312.986 193.662 305.893 189.328 298.599C172.942 313.453 156.502 328.253 140.222 343.226C135.995 346.973 131.835 350.879 127.142 354.053C118.288 360.133 106.488 359.719 97.9549 366.399C94.3016 369.186 92.7949 373.826 92.9816 378.293C92.0349 379.813 91.0882 381.346 90.1282 382.879C87.8482 376.426 89.2882 368.719 94.5816 364.159C103.808 355.746 117.875 356.999 127.368 349.026C133.702 344.266 139.235 338.573 145.208 333.373C159.128 320.546 173.302 307.986 187.195 295.119C184.302 290.186 181.888 284.986 179.915 279.613Z" fill="#171F28"/>
<path d="M461.129 288.533C464.155 281.453 471.435 277.653 477.689 273.839C474.235 280.106 471.769 287.359 466.089 292.026C463.809 293.866 459.342 291.573 461.129 288.533Z" fill="#1A202C"/>
<path d="M218.262 309.359C223.995 303.146 230.368 297.533 236.368 291.559C237.048 292.279 238.435 293.733 239.115 294.453C233.395 300.293 227.302 305.773 221.555 311.599C222.822 312.919 224.075 314.266 225.328 315.626C230.568 310.426 235.915 305.333 241.182 300.159C242.582 297.866 244.582 299.599 245.942 300.959C239.395 308.159 231.915 314.439 225.168 321.439C223.182 317.279 215.235 314.759 218.262 309.359Z" fill="#08101C"/>
<path d="M399.929 310.839C398.142 306.639 403.249 304.413 405.555 301.893C406.529 302.959 407.515 304.026 408.515 305.106C406.875 306.506 405.249 307.933 403.622 309.359C405.409 311.346 407.155 313.346 408.915 315.373C410.462 313.973 411.982 312.546 413.529 311.133C414.435 312.293 415.355 313.466 416.275 314.639C414.675 315.959 413.102 317.293 411.542 318.653C413.315 320.639 415.075 322.653 416.782 324.719C418.395 323.306 419.995 321.879 421.609 320.466C422.489 321.626 423.382 322.799 424.289 323.959C421.942 325.679 420.009 328.266 417.062 328.919C413.835 328.639 412.235 325.519 410.235 323.413C406.915 319.133 402.875 315.386 399.929 310.839Z" fill="#141C26"/>
<path d="M230.889 327.026C236.675 319.426 242.302 311.706 247.755 303.866C251.009 307.013 256.342 308.333 257.769 313.039C261.595 312.133 267.155 316.759 264.395 320.666C259.822 327.506 254.542 333.866 250.022 340.746C248.822 339.919 247.622 339.079 246.435 338.253C251.395 331.773 256.035 325.053 260.969 318.546C259.529 317.426 258.102 316.293 256.675 315.173C251.729 321.786 246.915 328.506 242.142 335.239C240.982 334.373 239.835 333.533 238.689 332.679C243.689 326.253 248.155 319.426 253.195 313.026C251.755 311.879 250.329 310.746 248.902 309.599C243.982 316.239 239.182 322.959 234.302 329.626C233.449 328.973 231.742 327.666 230.889 327.026Z" fill="#141C28"/>
<path d="M384.408 317.719C387.808 315.839 390.768 312.666 394.702 312.066C399.275 313.933 400.755 319.373 403.675 322.986C405.622 326.919 410.195 330.293 409.395 335.026C406.942 337.986 403.302 339.559 400.315 341.893C394.995 333.839 389.635 325.826 384.408 317.719ZM390.248 318.973C393.862 324.799 397.795 330.399 401.488 336.186C402.822 335.173 404.155 334.173 405.515 333.186C401.755 327.559 398.075 321.893 394.315 316.266C392.955 317.159 391.595 318.066 390.248 318.973Z" fill="#181E28"/>
<path d="M374.555 323.239C376.488 321.359 379.182 320.546 381.488 319.226C382.128 320.466 382.782 321.719 383.448 322.973C381.528 323.933 379.622 324.906 377.715 325.879C378.928 328.306 380.128 330.746 381.302 333.199C383.115 332.279 384.928 331.346 386.755 330.413C387.288 331.306 388.368 333.066 388.902 333.946C386.928 334.986 384.955 336.013 382.982 337.066C384.142 339.146 385.248 341.253 386.355 343.373C386.302 343.733 386.182 344.453 386.128 344.799C388.088 343.559 390.102 342.399 392.155 341.306C392.662 342.226 393.688 344.053 394.208 344.973C390.915 346.426 386.382 350.399 383.355 346.386C380.622 341.386 378.435 336.119 375.768 331.093C374.675 328.693 372.542 325.773 374.555 323.239Z" fill="#040C18"/>
<path d="M268.114 321.786C271.048 317.773 275.594 321.826 278.861 323.173C278.208 324.466 277.541 325.773 276.888 327.079C275.048 326.039 273.194 325.039 271.314 324.093C270.128 326.519 268.901 328.919 267.621 331.306C269.554 332.319 271.474 333.333 273.408 334.373C272.728 335.573 272.048 336.773 271.368 337.973C269.554 336.999 267.754 336.026 265.954 335.026C264.648 337.453 263.408 339.919 262.314 342.453C264.181 343.306 266.034 344.173 267.901 345.053C267.328 346.306 266.754 347.559 266.194 348.826C262.741 347.279 256.341 345.439 258.661 340.346C261.768 334.146 264.821 327.893 268.114 321.786Z" fill="#101824"/>
<path d="M285.968 325.893C284.901 323.693 285.541 320.626 288.128 319.893C290.168 318.639 292.901 321.093 292.794 323.266C293.114 325.186 291.261 326.239 290.221 327.519C292.648 328.453 293.528 331.159 292.594 333.453C290.034 341.053 287.341 348.599 284.661 356.159C283.394 355.653 282.128 355.146 280.874 354.653C282.221 350.799 283.581 346.946 285.048 343.133C283.434 342.533 281.808 341.959 280.181 341.426C278.834 345.333 277.461 349.226 276.061 353.106C275.101 352.733 273.194 351.973 272.234 351.599C274.941 344.373 277.408 337.053 279.981 329.786C280.634 327.213 283.141 324.959 285.968 325.893ZM288.248 322.079C286.274 323.133 288.301 326.266 290.101 324.906C292.168 323.813 290.048 320.866 288.248 322.079ZM284.381 329.786C283.408 332.426 282.448 335.066 281.528 337.719C283.168 338.133 284.808 338.533 286.448 338.946C287.288 336.506 288.181 334.106 289.128 331.719C287.541 331.066 285.954 330.426 284.381 329.786Z" fill="#06101C"/>
</svg>
