<svg xmlns="http://www.w3.org/2000/svg" fill="none" viewBox="0 0 658 407"><path fill="#19202A" d="M508.328 4.666c7.4-4.173 16.466-5.107 24.52-2.32 15.173 5.067 28 19.013 29.32 35.293.88 8.574-3.2 16.64-8.427 23.134-10.44 12.826-24.267 22.146-37.093 32.333a14312.173 14312.173 0 0 0-53.867 45.16c7.573 12.947 13.893 26.8 17.24 41.467-.52-.294-1.56-.867-2.08-1.16-3.4-7.08-3.653-16.054-9.96-21.414-3.32-6.506-6.6-13.04-10.507-19.226 3.774-4.214 9.054-7.24 11.814-12.24-1.587-5.92-3.627-12.96-9.787-15.6-7.107-9.627-15.013-18.974-25.24-25.427-3.987-2.493-8.667-4.64-13.48-3.693-1-.387-3-1.187-4.013-1.587 19.08-16.387 38.986-31.8 57.573-48.76 10.64-9.467 21.36-19.173 33.987-25.96Z"/><path fill="#182029" d="M90.315 33.586c4.147-18.933 23.173-34.76 42.907-32.56 10.373 1.973 19 8.627 27.213 14.88 9.173 7.213 17.707 15.187 26.373 22.973 15.587 13.307 31.494 26.227 47.174 39.427-8.32-.52-16.627 2.333-22.467 8.387l1.76.973c-8.72 7.013-16.2 15.52-22.293 24.893-2.52 4.027-4.987 8.267-5.934 12.987 2.027 3.48 5.854 5.48 8.574 8.4.786 1.387 1.48 2.813 2.2 4.24-5.214 8.147-9.387 16.88-13.187 25.747-1.64 1.64-3.427 3.266-4.053 5.586-2.64 7.934-4.894 16.054-6.267 24.307-.52 2.173.16 4.293.787 6.36 2.493-1.587 5-3.613 8.12-3.547 3.146-.053 5.666 2.014 8.08 3.734 3.96-5.614 10.133-10.334 17.306-10.12 7.054.08 12.16 5.786 16.734 10.453.2.227.626.693.84.92 1.773-5.24 4.826-10.12 9.986-12.573 3.254.893 6.16 2.6 8.76 4.733 4.267-5.053 10.16-9.467 17.094-9.28 6.346-.307 10.733 4.84 15.426 8.253-4.453-13.88-12.08-26.546-21-38-1.666 1.934-3.346 3.854-4.96 5.827-.386-2.68.014-5.36.88-7.907 16.92-19.36 41.48-31.813 67.08-34.093 26.987-2.627 54.747 6.347 75.307 23.947 4.213-3.454 9.733-6.24 15.32-4.64 5.36 1.8 9.813 6.026 12.013 11.24 3.84-4.16 8.587-8.187 14.494-8.587 5.893-.493 11.013 3.587 14.493 7.92 4.733 7.147 2.427 16.253-.267 23.72-6.013 15.8-12.84 31.32-20.626 46.347.133.72.386 2.186.506 2.92 4.414-7.72 9.134-15.254 13.16-23.187 2.667-5.213 9.16-8.6 14.867-6.427 6.2 2.774 11.733 8.014 12.907 14.96 2.32-4.266 5.066-8.573 9.746-10.52.507.134 1.52.414 2.027.56-.853-4.64-1.64-9.373-.827-14.08 1.614 4.12 2.187 8.52 2.907 12.854 4.627 1.013 8.12 4.2 11.68 7.12 5.413-3.094 12.347-2.734 16.72 2.04 9.2-1.347 18.213 5.813 20.187 14.653 8.4-3.107 17.28 1.24 21.48 8.76 3.76-4.547 8.32-9.24 14.56-9.8 6.68-1.107 12.453 3.187 17.226 7.28 4.587 3.92 7.56 9.307 9.8 14.84 1.187-4.213 3.694-9.387 8.8-9.36 5.694-.84 9.334 4.28 13.254 7.4 4.266-1.987 9.226-2.88 13.746-1.147 7.12 3.067 13.294 8.867 15.8 16.32 2.587 6.774 2.094 14.254.374 21.174 4.413 2.213 9.16 5.386 10.146 10.6 1.36 5.893-2.986 11.026-5.586 15.92-5.107 8.04-11.96 17.013-22.254 17.84-10.013.32-17.52-9.054-18.36-18.427-2.146 4.88-6.76 9.16-12.426 8.64-4.787.267-8.52-3.107-11.814-6.08-7.786 1.187-15.226-3.16-19.44-9.507-8.213 3.96-17.64-.64-21.786-8.226-3.307 1.973-7.067 3.92-11.04 3.026-6.534-1.4-11.174-7.28-12.64-13.573-1.867-6.387-1.44-13.107-1.227-19.667-4.88 7.534-11.893 13.2-18.747 18.814-5.746 12.506-11.093 25.693-20.666 35.906 12.266 11.107 24.493 22.267 36.733 33.4 5.027 4.36 10.213 8.974 16.747 10.88 8.813 3 19.266 4.56 25.16 12.56 4.346 5.867 3.52 13.84.12 19.934-4.934 9.173-13.267 17.733-24.014 19.186-8.653.92-15.973-5.413-19.92-12.533-4.026-5.973-5.226-13.72-10.773-18.653-6.987-6.494-15.08-11.654-22.56-17.534-13.013-10.173-26.04-20.333-38.907-30.693-26.053 28.507-62.733 47.12-101.226 50.827-49.347 5.413-100.534-14.48-133.547-51.507-13.533 10.72-27.053 21.427-40.667 32.013-7.52 5.867-15.653 11-22.52 17.654-4.12 3.866-5.4 9.6-8.08 14.4-3.28 6.52-8.026 13.24-15.4 15.36-5.6 1.84-11.666.013-16.493-3-7.187-4.614-12.667-11.654-15.787-19.574.96-1.533 1.907-3.066 2.853-4.586 2.387 9.733 10.614 17.866 20.294 20.4 9.413 2.346 17.827-5.894 20.387-14.28.466-8.494-6.24-14.707-10.134-21.56 5.027 3.746 9.507 10.32 16.56 9.44 2.24-1.134 4.134-2.827 6.08-4.387 18.96-16.44 39.334-31.147 58.92-46.827-.333-.386-.973-1.173-1.293-1.56 1.627-.133 3.267-.253 4.907-.373 21.253 25.213 50.693 43.493 82.88 50.84 23.333 5.573 47.906 5.173 71.266-.08 2.587.8 5.307.893 7.867-.067 6.28-2.04 12.733-3.853 18.587-6.96.24-.586.733-1.76.973-2.333 24.12-11.187 45.28-28.427 61.173-49.72-5.72-6.387-7.586-15.427-5.293-23.653 1.653-10.88 10.16-18.987 19.587-23.774-.974-1.066-1.934-2.133-2.894-3.186-1.12 1.453-2.146 3.013-3.426 4.346-4.32 1.56-8.374 3.934-12.867 4.987-4.347.187-8.68-.933-13.027-.307-2.026-1.16-3.866-2.613-5.706-4.026-3.72 2.48-8.174 3.173-12.307 4.56l-1.24 1.56c-.84-.627-2.533-1.867-3.373-2.494-3.707-2.12-7.254-4.6-9.52-8.306-5.147 4.653-12.094 7.253-19.054 5.893 4.894 6.787 9.64 13.773 15.76 19.547a136.9 136.9 0 0 0 3.254 2.88c-14.987 16.186-35.307 27.453-57.107 31.04-21.867 3.8-45 .36-64.667-9.974-17.48-9.2-32.2-23.533-41.813-40.786-5.333 3.92-12.747 3.573-17.813-.614-4.414 3.854-10.334 6.76-16.307 5.16-5.547-1.146-9.027-6.08-11.293-10.88-.32 2.854-.76 5.747-1.934 8.414-4.12 1.933-7.506 5.026-10.493 8.4a39.018 39.018 0 0 1-8.333-1.294c-3.694 1.654-7.467 3.48-11.6 3.587-3.6.147-6.84-1.627-10.054-2.973-5.173 6.666-15.453 8.746-22.08 3-3.546 5.773-10.053 10.466-17.133 8.333-8.733-2.907-11.907-13.133-12.053-21.467a30.009 30.009 0 0 1-6.094 5.374c-3.427 14.36-13.333 27.44-27.346 32.76-7.334 3.066-16.334 3.506-22.96-1.467-3.694 6.32-8.547 12.453-15.44 15.427-5.92 2.546-13.64 2.386-18.467-2.32-6.013-5.227-7.187-14.04-5.453-21.454 1.093-5.266 2.253-11.64 7.333-14.573 4.293-2.107 8.04 1.52 11.146 3.973.667-3.08 1.427-6.133 2.187-9.186-12.467-2.427-22.08-13.76-23.106-26.294-1.534-18.093 5.44-36.586 17.88-49.706 10.493-10.654 24.053-19.014 38.96-21.427 15.906-2.44 31.546 9.413 35.6 24.547 1.413 4.386 1.373 9.04 1.346 13.613 3.694 1.653 6.827 4.24 9.694 7.053 3.586-2.786 7.32-5.946 12.053-6.306 3.96.106 6.973 2.786 9.813 5.213 1.974-4.627 4.014-9.267 7.04-13.307-5.666-6.186-5.333-15.386-2.44-22.746 2.294-5.094 8.6-8.72 13.96-5.907 4.08-3.787 10.654-5.36 15.147-1.32 9.64 5.213 10.747 19.453 3.173 26.933a97.67 97.67 0 0 0 5.654 4.88c.973-25.84 8.746-51.32 21.88-73.56-18.6-15.386-37-31.013-55.547-46.44-12.693-9.946-26.2-19.226-36.48-31.813-6.28-7.453-10.093-17.387-7.88-27.16Zm217.68 90.867c-16.813 3.493-33.28 10.946-45.72 22.96 6.973 7.706 12.107 16.853 17.013 25.96 3.014-10.254 5.04-21.214 11.654-29.92 3.453-4.44 8.426-8.6 14.373-8.387 4.88-.213 9 3.133 11.973 6.653l-1.68-.92c5.654 10.627 4.414 23.254.64 34.254-1.053 3.573-3.106 7.08-2.36 10.933l.76-1.387c6.027 1.774 11.267 5.894 14.68 11.134 3.88-6.014 9.427-11.414 16.52-13.267 3.574-.88 7.72-1.067 10.867 1.16 2.853 2.24 6.627 2.2 9.8 3.76 5.493-15 14.08-28.667 23.24-41.653-22.213-18.907-53.133-27.107-81.76-21.28Zm-17.373 33.12c-6.654 20.706-11.76 42.08-12.934 63.866-.96 4.307-4.053 7.827-6.426 11.467-3.294 4.093-6.187 9.213-11.44 10.973 2.653-12.92 9.093-24.946 10.053-38.213.64-5.933-2.093-13.013-8.507-14.347-6.44-.64-11.84 4.04-15.066 9.16-4.08.267-4.28 5.76-6.2 8.56-.614-4.533 1.333-10.453-3.214-13.453l.627 2.28c-2.347-2.533-6.627-1.96-7.787 1.427-1.72 8.906-2.666 17.973-4.453 26.866-4.547 8.534-9 18.227-17.507 23.467 1.547-11.747 6.6-22.707 8.174-34.44.28-4.68.72-9.947-2.16-13.973-1.814-2.76-5.174-4.614-8.507-4.08-5.933.533-10.24 5.533-12.64 10.613-4.147 8.947-6.613 18.547-8.947 28.093-.413-9.613 1.6-19.173 1.414-28.8-.227-2.08-2.387-3.04-3.734-4.306a14.274 14.274 0 0 0-4.186 3.413l.306-2.48c-.546.64-1.64 1.907-2.2 2.547-2.013 9.626-2.16 19.586-4.333 29.186-.84 4.134-4.44 8.227-2.8 12.454-2.373 4.173-3.813 11.08-9.52 11.413-2.413-8.453.2-17.16 1.56-25.547.88-3.866-2.16-7-5.573-8.106-7.787 3-5.52 12.4-7.827 18.773-2.347 7.307-3.707 16.04-10.253 20.88-3.094-3.573-2.4-8.587-2.2-12.947 1.04-9.28 3.173-18.76 8.2-26.773 1.306-1.64 2.973-4.067 5.346-3.733 2.52 1.426 4.707 4.333 7.96 3.533 4.507-1.387 5.64-7.373 3.547-11.093-2.973-3.747-7.787-6.654-12.707-5.707-4.506 1.08-7.866 4.667-10.413 8.333-.6.254-1.773.76-2.373 1-6.547 9.36-6.64 21.227-9.64 31.854-.52 2.88-3.294 5.986-1.4 8.813-2.28 5-4.694 10.44-9.44 13.56-2.507-5.053-1.867-10.84-1-16.2.373 2.413.946 4.787 1.493 7.173.227-9.106 2.853-17.8 6.307-26.146l-1.614.68c2.574-3.454 2.974-9.347-1.093-11.84-3-.707-5.307 1.506-7.587 3.04-4.146 3.053-8.693 5.56-13.573 7.213.146-3.747 1.173-9.08-3-11.067-3.8-.386-7.16 2.054-9.04 5.187l-2.52-5.12c4.24-10.533 3.933-24.16-4.614-32.493-7.013-7.307-18.533-7.267-27.426-3.814-14.067 5.32-27.2 14.667-34.814 27.88-5.12 9.12-9.053 19.734-7.24 30.334 1.147 8.8 8.6 16.986 17.747 17.32a16.414 16.414 0 0 0 3.88-2.947c.68 2.12 1.4 4.227 2.213 6.307l.547-1.16c-.146.92-.453 2.76-.6 3.68l-1.427-2.427c-1.413 7.253-2.626 14.6-5.08 21.6-.533 2.107-1.866 4.307-.946 6.52-1.334 2.613-3.76 4.773-6.747 5.187-5.6-1.654-3.76-8.72-3.546-13.014-4.787 4.667-6.334 13.627-1.8 19.027 3.12 3.653 8.613 2.573 12.2.253 6.32-4.026 9.626-11.08 12.52-17.706.04.573.106 1.706.133 2.28.587-.894 1.773-2.707 2.36-3.6 1.293 1.706 2.666 3.36 4.173 4.906l-.707-2.373c3.107 3.947 8.24 6.147 13.2 4.76 14.054-2.533 24.494-15.2 27.254-28.787.413.534 1.253 1.587 1.666 2.107.267-2.253.48-4.493.694-6.747 1.053-.24 2.12-.466 3.186-.693 1.934-4.16 3.387-8.493 4.88-12.827 4.32.627 8.534-.506 12.374-2.426-.333 2.573-.667 5.146-.933 7.746l-.294-.813c-.413-.667-1.24-2.013-1.653-2.68-.6 8.547-.667 18.053 4.067 25.547 1.906 3.306 5.786 3.413 9.133 2.826l-.64-1.92c6.32-5.76 8.347-14.333 11.693-21.866.494 5.2.214 11.173 4.214 15.173 2.546 2.973 7.333 2.04 9.733-.627 3.92-3.946 5.2-9.506 6.853-14.613 1.12 5.333 2.8 12.627 9.227 13.613 7.2.867 10.96-6.28 13.413-11.813-.28 3.147-.24 6.92 2.787 8.813 3.4 2.24 7.787-.84 8.347-4.453 1.893-12.413 5.426-24.667 11.12-35.893 2.08-4.16 4.786-8.187 8.8-10.68-1.254 12.533-4.374 25.066-3.387 37.72 0 5.28 5.28 10.76 10.653 7.866 7.907-4.506 10.614-13.96 14.534-21.546-.067 5.026-2.36 9.96-1.52 15.013.533 2.92 3.146 5.133 6.08 5.347 2.76-.734 5.16-2.974 5.613-5.854.36.547 1.093 1.64 1.453 2.174 1.414-10.934 5.574-21.147 9.387-31.374l-.533-1.88c1.693-3.413 3.533-6.853 6.24-9.6.426.614 1.293 1.84 1.72 2.454-1.04 8.973-3.574 17.76-4.014 26.813.054 2.573-.426 5.573 1.614 7.6.133-.667.386-1.987.52-2.653.693 4.96 5.333 10.6 10.8 7.84 9.106-5.174 12.666-15.947 16.84-24.947.866 4.68.813 9.6 2.866 14 1.88 4.693 5.84 9.453 11.32 9.427 8.32.52 14.534-6.147 18.88-12.414 6.507-1.386 10.547-7.24 14.4-12.146-.373 6.986-.013 14.96 5.12 20.32 4.24 4.786 11.814 4.906 17.08 1.826 5.76-3.133 9.4-8.826 12.614-14.333 4.786-.427 9.32-2.653 12.333-6.44.48-.307 1.427-.92 1.907-1.227-.067 7.414.4 15.574 4.92 21.774 2.733 3.88 8.4 3.706 12.093 1.333 5.973-3.453 8.733-10.04 12.333-15.573.294 5.906.88 12.4 4.84 17.12 3.227 3.8 9.067 2.933 12.734.28 3.16-1.84 4.946-5.147 7.64-7.507.026 10.627 14.333 16.48 21.92 9.28 4.96-5.573 9.28-11.707 14.493-17.067-.36 5.214.347 11.32 5.2 14.387 5.453 3.453 12.32.893 16.48-3.387-1.853 4.347-3.133 8.934-4.933 13.307-6.307 3.987-13.64 6.267-19.627 10.853-4.6 2.974-7.613 7.72-9.747 12.654l.094-2.44-1.64 1.12c-3 8.266 1.786 19.213 11.146 20.053l-1.453-1.467c6.12 1.094 12.027-1.733 15.56-6.706 7.04-9.12 11.867-19.734 16.2-30.347 1.027-3.267 4.467-4.627 6.84-6.747 7.92-5.973 14.147-13.986 18.04-23.12 1.947 1.307 3.933 2.614 6.147 3.48l-1.414.907c1.187.36 3.547 1.08 4.72 1.427-1 10.04-3.413 20.72 1.36 30.24l1.507-.72c1.653 2.28 4.547 4.986 7.547 3.346 6.026-3.013 8.733-9.52 12.386-14.76-.426 6.36-.786 13.52 3.494 18.774 2.4 3.28 7.693 4.053 10.6 1 2.973-2.254 3.906-6 6.08-8.867 0 7.28 2.306 16.56 10.253 18.84 4.893 1.84 8.36-2.76 11.027-6.067l-.32 4.347c-.534 5.107 6.013 10.733 10.293 6.28 2.987-10.547 7.52-20.827 14.12-29.627 2.213-3.16 5.56-5.226 9.227-6.226-1.867 10.386-5.334 20.466-6.454 31-.453 4.88.04 10.573 3.974 14 2.84 3 7.826 2.733 10.946.293 6.414-4.653 10.307-11.827 13.96-18.68.907-1.44.654-2.747-.76-3.893-2.92 3.186-5.613 6.626-9.026 9.32-2.854 2.253-6 5.106-9.907 4.48 2.027-7.094 5.293-13.734 8.16-20.507l.04 2.627c4.773-5.267 4.587-12.814 4.693-19.467.027-3.147-.186-7.267-3.48-8.813l.387 2.226c-2.707-4.44-7.173-8.773-12.84-7.92-6.16.72-9.107 6.88-11.84 11.654-4.427-4.4 2.667-10.907-2.28-14.934l-.133 2.054c-1.214-2.667-5.44-6.827-7.56-2.694l-1.747-.613c-2.093 8.76-4.893 17.387-6.213 26.307l1.52-1.347c-3.387 6.84-7.36 14.12-14.134 18.133-.946-1.32-2.946-2.293-2.666-4.173-.094-7.04 2.106-13.84 4.426-20.387 1.454-4.12-.946-8.893-4.666-10.906-2.547-1.254-5.454.346-6 3.053-2 8.12-4.76 16.413-10.28 22.88-1.44 1.747-4.707 4.04-5.894.733-1.693-5.973.374-12.36 2.014-18.186 2.413-6.627 5.36-14.12 12.186-17.334 3.56 2.027 5.16 5.987 7.987 8.8 2.467.334 5.107-.093 6.16-2.68 1.733-5.946-2.747-11.186-6.64-15.093-3.747-3.8-10.16-5.093-14.533-1.587-7.72 6.094-10.467 16.027-13.08 25.067-3.64 7.147-8.04 14.747-15.587 18.32-2.8-3.973-1.693-9.027-.8-13.453 1.467-6.774 3.907-13.76 9.12-18.587 4.373-3.653 2.093-11.293-2.813-13.387l2.04-.24-1.494-1.426c-5.586-.56-11.173 1.746-16.84 1.026-.08-3.306-.28-6.6-.733-9.866l-1.56 1.28c-1.707-2.934-5.107-4.907-8.533-4.32-2.4.64-3.614 2.88-5.04 4.68.013-3.214-.654-6.88-3.84-8.427-3.214-2.093-6.654 1.387-7.267 4.467-2.04 7.453-3.933 14.973-6.173 22.373-1.974 4.547-4.987 9.093-9.6 11.267a12.637 12.637 0 0 0-4.494-2.054c-.173-7.533 5.187-13.52 7.387-20.426l-1.947.893c1.72-3.253 3.774-6.32 5.6-9.52 2.347-3.787.8-9.32-3.066-11.453-2.72-1.627-6.04.146-7.4 2.706-5.054 7.934-8.96 16.614-11.454 25.68-2.96 4.294-6.533 8.147-9.88 12.134.84-5.667.267-11.374-.853-16.96-1.133-5.867.253-11.947 3.373-16.974 2.907-4.8-.973-12.666-6.96-11.813-3.346.667-4.733 4.013-6.12 6.707-5 9.92-11.826 18.8-16.48 28.893-3.533 5.8-7.853 12.12-14.84 13.853-2.8-6.053-1.346-12.866-.933-19.24.72-4.266.427-8.933 2.84-12.72 7.587-13.866 13.96-28.36 19.907-42.986 2.346-6.52 5.933-13.08 5.266-20.214-.226-3.76-4.826-5.96-8.133-4.693-6.84 2.173-10.92 8.72-14.267 14.627-9.84 19.426-13.96 41.173-15.986 62.68-3.72 7.786-8.4 16.373-16.667 20.053-.187-8.92.387-17.84-.12-26.747-2.027 3.467-1.213 7.574-1.173 11.374.333 4.813-.24 9.666.32 14.466-1.454-1.333-1.28-3.586-1.654-5.373-.386-7.493.574-14.987 1.48-22.4 8.84-18.32 17.36-36.88 23.694-56.24 1.053-4.027 2.786-8.493 1.066-12.6-1.666-3.76-6.733-4.013-9.853-2.013-6.187 3.666-9.92 10.173-13.08 16.413l.253-2.573c-2.893 2.573-3.786 6.453-5.2 9.893-1.426 4.08-3.213 8.12-3.666 12.467.346.4 1.04 1.213 1.386 1.626-3.36 12.774-5.12 25.894-6.12 39.04-2.706 3.187-6.6 5.014-10.4 6.547 3.387-9.36 6.867-19.613 4.32-29.613-1.36-4.947-6.426-7.774-11.386-6.987-3.307-5.787-10.814-3.6-15.054-.173-8.306 6.6-12.2 17.04-14.786 27-.494 2.12-2.134 3.693-3.6 5.186-2.934-3.626.826-7.946.866-11.986.534-6.507 1.92-15.32-4.626-19.374l.92 2.427c-2.414-2.413-5.787-4.627-9.36-3.667-5.334 1.347-8.76 6.227-11.227 10.814-4.933 9.506-6.44 21.653-1.013 31.266 1.066 2.107 3.586 3.187 4.293 5.454-2.987 2.4-6.813 4.88-10.8 3.76-3.893-2.56-3.347-8-3.653-12.067.56-9.547 1.746-19.387 6.066-28.053 3.734-8.534 7.8-16.907 11.227-25.56l1.72.48c4.2-10.334 7.347-21.374 5.667-32.627l-1.52.987-.134 1.213c-.84-3.387-3.826-6.68-7.626-5.587-6.84 2.44-10.694 9.374-13.12 15.814Zm-140.694 28.746c-3.12 3.027-2.8 8.747.894 11.2 4.48 1.48 7.906-4 6.786-7.946-.373-3.48-4.96-6.24-7.68-3.254Zm-12 2.307c-4.626 3.013-3.053 13.493 3.467 11.68 6.547-2.373 3.747-15.347-3.467-11.68Zm256.667 38.08c2.253-.44 3.24-4.107 2.413-6.107-2.413-.066-3.133 4.24-2.413 6.107Zm-85.88 34.613c-7.067 5.547-17.72 6.894-25.387 1.8a113.756 113.756 0 0 1-20.8 29.64c17.494 15.48 40.68 24.48 64.094 24.187 23.106.36 45.893-8.4 63.44-23.333-11.307-11.854-20.854-25.76-25.8-41.48-5.84 8.693-16.2 15.613-27.054 13.493-8.053-1.16-13.88-7.827-17.106-14.88-4.387 2.88-6.974 7.72-11.387 10.573Zm-64.707-5.453c-.333 3.48-1.226 6.88-3.08 9.867 3.974 6.906 8.334 13.68 13.907 19.413 5.92-6.387 11.227-13.333 15.733-20.787-4.053 2.374-8.533 4.934-13.453 3.88-6.547-.773-11.013-6.546-13.107-12.373Zm211.307 56.467.573 1.586-1.293-.706c-2.173 2.906-4.427 5.76-6.813 8.506 15.066 12.067 30.493 23.667 45.586 35.694 6.16 4.866 11.747 10.493 18.307 14.853 7.213 1.107 11.64-5.76 16.827-9.44-3.52 6.147-9.027 11.467-10.094 18.773-.813 3.814 1.68 7.16 3.774 10.08 3.48 4.734 9.253 8.334 15.32 7.227 8.4-1.533 15.466-7.667 19.466-15.04 3.08-5.28 2.467-12.64-2.226-16.8-5.934-5.253-14.067-6.427-21.307-8.933-8.053-2.24-14.107-8.307-20.253-13.6-11.64-10.694-23.374-21.307-35.054-31.947-.52.293-1.56.907-2.08 1.213l.827-1.64c-3.827.827-7.573 2.32-11.533 2.4-3.427-.253-6.694-1.52-10.027-2.226Z"/><path fill="#182029" d="M496.701 254.799c4.494-12.266 8.267-24.8 11.427-37.466-.667 6.4 1.333 13.2 6.733 17.08-2.48 9.253-10.373 15.56-18.16 20.386Z"/><path fill="#0F171F" d="M242.501 85.586c28.347-18.107 62.707-26.44 96.2-23.773 25.28 1.706 49.987 9.893 71.493 23.24 2.16-1.92 4.36-3.8 6.574-5.667 1.013.4 3.013 1.2 4.013 1.587-2.667 1.933-5.16 4.093-7.653 6.226 18.253 11.987 34.066 27.68 46.066 45.934 2.627-2.454 5.894-4.454 7.774-7.574-1.214-5.68-4.494-10.586-7.467-15.466 6.16 2.64 8.2 9.68 9.787 15.6-2.76 5-8.04 8.026-11.814 12.24-22.56-36.28-60.853-62.36-102.933-69.894-28.733-4.946-59.013-2.4-86.013 8.907-29.84 12.147-55.734 33.84-72.707 61.24-.72-1.427-1.413-2.853-2.2-4.24 11.973-18.187 27.533-34 45.667-46.08-3.4-2.8-6.4-7.333-11.267-7.213-5.573.56-10.32 3.853-14.747 7.013l-1.76-.973c5.84-6.054 14.147-8.907 22.467-8.387 2.8 2.467 5.667 4.853 8.52 7.28Z"/><path fill="#fff" d="M268.528 76.946c27-11.307 57.28-13.853 86.014-8.907 42.08 7.534 80.373 33.614 102.933 69.894 3.907 6.186 7.187 12.72 10.507 19.226 5.413 12.494 9.293 25.654 11.386 39.12-4.68 1.947-7.426 6.254-9.746 10.52-1.174-6.946-6.707-12.186-12.907-14.96-5.707-2.173-12.2 1.214-14.867 6.427-4.026 7.933-8.746 15.467-13.16 23.187-.12-.734-.373-2.2-.506-2.92 7.786-15.027 14.613-30.547 20.626-46.347 2.694-7.467 5-16.573.267-23.72-3.48-4.333-8.6-8.413-14.493-7.92-5.907.4-10.654 4.427-14.494 8.587-2.2-5.214-6.653-9.44-12.013-11.24-5.587-1.6-11.107 1.186-15.32 4.64-20.56-17.6-48.32-26.574-75.307-23.947-25.6 2.28-50.16 14.733-67.08 34.093-9.466 10.934-16.68 23.774-21.066 37.56-3.294 2.56-6.2 6.014-5.96 10.467-4.574-4.667-9.68-10.373-16.734-10.453-7.173-.214-13.346 4.506-17.306 10.12-2.414-1.72-4.934-3.787-8.08-3.734-3.12-.066-5.627 1.96-8.12 3.547 2.533-12.24 4.893-24.587 9.533-36.253 3.8-8.867 7.973-17.6 13.187-25.747 16.973-27.4 42.866-49.094 72.706-61.24Zm47.88 4.453c.347 7.6.2 15.227.68 22.814 1.454 4.546 6.84 2.986 10.4 3.173-.08-1.12-.24-3.333-.306-4.44-2.107.253-4.214.44-6.32.587-.04-2.84-.12-5.68-.24-8.507 2.146-.08 4.293-.12 6.44-.12-.054-1.067-.147-3.2-.2-4.267-2.08.214-4.16.44-6.24.667.053-3.174-.254-6.334-1.24-9.36.24-.254.693-.76.933-1 1.907 1.16 3.813 2.32 6.36 1.907 0-1.067-.013-3.2-.013-4.267-3.574.4-8-.76-10.254 2.813Zm29.32-1.867c-1.066 9.734-3.293 19.294-4.373 29.027.947.147 2.827.414 3.773.547 1.56-9.334 2.867-18.707 4.76-27.987-1.4-.52-2.773-1.053-4.16-1.587Zm-48.826 6.094c1.133 6.986 2.08 14.026 3.626 20.933 1.68 4.24 6.814 2.427 10.147 1.707 3.147-1.533 2.693-5.333 1.813-8.133l-3.84.213c.16 1.027.467 3.107.614 4.147-1.68.28-3.36.56-5.027.853-1.187-7.547-2.76-15.027-3.76-22.6l.373 2.306a70.331 70.331 0 0 1 5.04-.626c.174.947.52 2.867.694 3.813 1.013-.2 3.066-.627 4.093-.84-.72-2.013-.587-4.6-2.32-6.093-1.867-2.093-4.853-.587-7.187-.453-2.333.16-4.893 2.213-4.266 4.773Zm56.613 9.32c-.12 4.16 4.827 4.4 7.707 5.493-.76 2.654-1.52 5.294-2.267 7.947-2.387-.76-4.88-1.827-7.253-.387 2.293-.613 2.96-2.746 3.64-4.746l-3.894-1.654c-.653 2.534-2.146 5.294-.586 7.814 2.453 2.173 5.96 2.64 9.106 2.706 2.774-1.093 3.16-4.253 3.867-6.76 1.453-5.706 3.52-11.253 4.653-17.04-.72-4.413-6.333-4.8-9.893-5.067-3.907 2.374-3.813 7.72-5.08 11.694Zm-73.907-7.853c-1.493.28-2.973.573-4.466.88 3.333 9.04 6.293 18.2 9.426 27.306 1.28-.506 2.56-1.026 3.84-1.533-2.84-7.653-5.266-15.453-8.066-23.12 1.8-.64 3.613-1.267 5.426-1.894 2.587 7.76 5.28 15.507 7.774 23.307a413.06 413.06 0 0 1 3.773-1.106c-2.36-6.987-4.68-13.987-6.987-20.987-.693-1.88-1.333-4.24-3.493-4.907-2.627-.653-4.987.96-7.227 2.053Zm93.76 4.466c2.547 1.08 5.107 2.16 7.68 3.24-4.933 6.734-9.386 13.814-14.413 20.48.96.454 2.893 1.374 3.867 1.827 5.653-7.893 10.973-16.04 16.626-23.947-3.8-1.787-7.653-3.4-11.386-5.293a133.79 133.79 0 0 0-2.374 3.693Zm-108.893 1.573c4.4 8.507 8.24 17.281 12.573 25.814.894-.453 2.654-1.36 3.534-1.813-4.107-8.72-8.374-17.374-12.52-26.08-1.2.693-2.4 1.386-3.587 2.08Zm-15.053 8.947c-2.667 4.054 2.133 7.76 3.866 11.147 3.76.293 7.494.787 11.254 1.053a947.886 947.886 0 0 0 3.413 4.72c-1.427 1.014-2.853 2.027-4.267 3.054-.68-1.08-1.36-2.16-2.026-3.24-.854.52-2.574 1.573-3.427 2.093 1.293 2.16 2.573 5.04 5.493 5.173 2.987-.813 5.747-2.666 7.734-5.026 1.066-4.16-2.707-7.174-4.507-10.48-3.68-.374-7.44-.24-11.027-1.08-1.36-1.32-2.293-2.987-3.413-4.494 1.36-1.013 2.707-2.04 4.067-3.053.76 1.04 1.506 2.093 2.266 3.133.84-.586 2.52-1.76 3.374-2.346-1.587-1.92-3.054-5.107-6-4.76-2.56.72-4.734 2.466-6.8 4.106Zm130.906 10.16c1.974 1.694 4.2 3.08 6.467 4.36-1.413 2.4-2.907 4.734-4.427 7.04l3.68 2.28c1.24-2.146 2.494-4.28 3.747-6.4 1.947-.066 3.2-1.413 4.227-2.906-.307-.507-.92-1.494-1.227-1.987 2.973-4.293 5.507-8.88 8.547-13.133-1.187-.787-2.36-1.56-3.52-2.347-5.8 4.4-12.894 7.28-17.494 13.093Z"/><path fill="#fff" d="M357.408 95.146c.907-2.947 1.907-5.907 2.267-8.987 1.613 2.44 4.947 2.36 7.28 1.107-3.827 1.133-3.307 5.746-4.28 8.813a46.873 46.873 0 0 1-5.267-.933ZM307.995 124.452c28.627-5.826 59.547 2.374 81.76 21.28-9.16 12.987-17.746 26.654-23.24 41.654-3.173-1.56-6.946-1.52-9.8-3.76-3.146-2.227-7.293-2.04-10.866-1.16-7.094 1.853-12.64 7.253-16.52 13.266-3.414-5.24-8.654-9.36-14.68-11.133 3.56-7.573 5.76-15.853 6.64-24.173.373-6.36.226-13.507-4-18.707-2.974-3.52-7.094-6.867-11.974-6.653-5.946-.214-10.92 3.946-14.373 8.386-6.613 8.707-8.64 19.667-11.653 29.92-4.907-9.106-10.04-18.253-17.014-25.96 12.44-12.013 28.907-19.466 45.72-22.96ZM308.714 261.319c4.413-2.853 7-7.693 11.387-10.573 3.226 7.053 9.053 13.72 17.106 14.88 10.854 2.12 21.214-4.8 27.054-13.493 4.946 15.72 14.493 29.626 25.8 41.48-17.547 14.933-40.334 23.693-63.44 23.333-23.414.293-46.6-8.707-64.094-24.187a113.756 113.756 0 0 0 20.8-29.64c7.667 5.094 18.32 3.747 25.387-1.8ZM284.381 329.786c1.573.64 3.16 1.28 4.746 1.933a168.117 168.117 0 0 0-2.68 7.227c-1.64-.413-3.28-.813-4.92-1.227.92-2.653 1.88-5.293 2.854-7.933Z"/><path fill="#000414" d="M316.408 81.4c2.254-3.574 6.68-2.414 10.254-2.814 0 1.067.013 3.2.013 4.267-2.547.413-4.453-.747-6.36-1.907-.24.24-.693.747-.933 1 .986 3.027 1.293 6.187 1.24 9.36 2.08-.227 4.16-.453 6.24-.667.053 1.067.146 3.2.2 4.267-2.147 0-4.294.04-6.44.12.12 2.827.2 5.667.24 8.507 2.106-.147 4.213-.334 6.32-.587.066 1.107.226 3.32.306 4.44-3.56-.187-8.946 1.373-10.4-3.173-.48-7.587-.333-15.214-.68-22.814ZM296.903 85.626c-.627-2.56 1.933-4.613 4.266-4.773 2.334-.134 5.32-1.64 7.187.453 1.733 1.493 1.6 4.08 2.32 6.093-1.027.214-3.08.64-4.093.84-.174-.946-.52-2.866-.694-3.813-1.693.147-3.373.36-5.04.627l-.373-2.307c1 7.573 2.573 15.053 3.76 22.6 1.667-.293 3.347-.573 5.027-.853-.147-1.04-.454-3.12-.614-4.147l3.84-.213c.88 2.8 1.334 6.6-1.813 8.133-3.333.72-8.467 2.533-10.147-1.707-1.546-6.906-2.493-13.946-3.626-20.933ZM373.368 91.56c.773-1.24 1.56-2.48 2.373-3.694 3.734 1.893 7.587 3.507 11.387 5.293-5.653 7.907-10.973 16.054-16.627 23.947-.973-.453-2.906-1.373-3.866-1.827 5.026-6.666 9.48-13.746 14.413-20.48a2291.65 2291.65 0 0 1-7.68-3.24ZM229.302 190.239a107.204 107.204 0 0 1 21.067-37.56c-.867 2.547-1.267 5.227-.88 7.907-6.6 8.6-11.494 18.36-15.32 28.467-5.16 2.453-8.214 7.333-9.987 12.573-.213-.227-.64-.693-.84-.92-.24-4.453 2.667-7.907 5.96-10.467ZM355.863 205.346c.386-2.333 2.546-3.6 4.2-5 2.493 2.413 2.853 6 2.84 9.28-.347 6.013-1.92 11.893-4.04 17.507-5.08-6.027-4.774-14.56-3-21.787Zm3.106-2.8c-1.093 6.493.094 13.107-1.053 19.6 1.613-6.413.573-13.067 1.053-19.6ZM410.901 268.839c.84.627 2.534 1.867 3.374 2.494-3.68 6.28-8.054 12.133-12.934 17.52a138.849 138.849 0 0 1-3.253-2.88c4.827-5.28 9.027-11.08 12.813-17.134ZM408.049 299.679c3.92-2.253 5.413-8.8 10.666-8.066 7.147 5.133 13.121 11.786 19.814 17.506-.947.987-1.867 1.974-2.787 2.974-5.973-5.667-12.12-11.147-18.133-16.76-1.227 1.4-2.453 2.786-3.667 4.186a3093.04 3093.04 0 0 0 18.16 16.614c-.946 1-1.867 2.013-2.8 3.026-6.973-6.613-14.213-12.946-21.253-19.48ZM365.742 326.706c.973-.333 2.947-1.013 3.933-1.347 2.174 7.694 4.587 15.334 6.774 23.027 1.973 5.493-6.347 8.387-10.134 6.04-2.32 3.4-8.84 6.053-11.52 1.867-2.746-7.974-4.706-16.214-7.373-24.227 1.32-.44 2.653-.867 3.987-1.293 2.16 7.96 4.64 15.84 6.88 23.786 1.773-.6 3.573-1.2 5.36-1.786-2.494-7.734-4.387-15.667-7.027-23.36 1.293-.467 2.613-.907 3.92-1.334 2.16 7.92 4.613 15.774 6.76 23.707 1.853-.533 3.693-1.067 5.547-1.587-2.454-7.813-4.547-15.72-7.107-23.493ZM305.568 344.106c3.907.573 7.84.947 11.773 1.373-.08.827-.226 2.467-.293 3.28-3.773 1-7.987-.973-11.96-.826l.48-3.827Z"/><path fill="#000012" d="M345.729 79.533c1.386.533 2.76 1.066 4.16 1.586-1.894 9.28-3.2 18.654-4.76 27.987-.947-.133-2.827-.4-3.774-.547 1.08-9.733 3.307-19.293 4.374-29.026ZM249.423 102.079c2.066-1.64 4.24-3.386 6.8-4.106 2.946-.347 4.413 2.84 6 4.76-.854.586-2.534 1.76-3.374 2.346-.76-1.04-1.506-2.093-2.266-3.133-1.36 1.013-2.707 2.04-4.067 3.053 1.12 1.507 2.053 3.174 3.413 4.494 3.587.84 7.347.706 11.027 1.08 1.8 3.306 5.573 6.32 4.507 10.48-1.987 2.36-4.747 4.213-7.734 5.026-2.92-.133-4.2-3.013-5.493-5.173.853-.52 2.573-1.573 3.427-2.093.666 1.08 1.346 2.16 2.026 3.24 1.414-1.027 2.84-2.04 4.267-3.054a947.886 947.886 0 0 1-3.413-4.72c-3.76-.266-7.494-.76-11.254-1.053-1.733-3.387-6.533-7.093-3.866-11.147ZM514.861 216.333c1.747-.387 3.96-.494 4.814 1.48.146 2.2-.067 4.413-.2 6.613-2.334-1.373-3.88-3.6-5.307-5.827.173-.56.52-1.693.693-2.266ZM47.995 234.173c.84 3.44 1.254 6.96 1.347 10.506 1.4.267 2.813.534 4.227.814-2.334.826-4.334 2.306-4.867 4.893 2.693.093 5.307-.547 7.92-1.04 6.16-1.28 13.12 2.413 15.027 8.52 2.546 8.267-1 17.213-6.174 23.72 2.107-8.347 8.747-17.533 3.134-25.92-4.787-6.827-13.734-3.533-20.64-3.827-2.04 9.64-3.374 19.454-6.28 28.907-2.014 3.333-.494 6.867.933 10.04l.707 2.373c-1.507-1.546-2.88-3.2-4.174-4.906l-2.36 3.6c-.026-.574-.093-1.707-.133-2.28 6.467-17.8 9.093-36.68 11.333-55.4Z"/><path fill="#FEFEFE" d="M213.274 87.666c4.426-3.16 9.173-6.453 14.746-7.013 4.867-.12 7.867 4.413 11.267 7.213-18.133 12.08-33.693 27.893-45.667 46.08-2.72-2.92-6.546-4.92-8.573-8.4.947-4.72 3.413-8.96 5.933-12.987 6.094-9.373 13.574-17.88 22.294-24.893ZM413.127 87.2c2.493-2.134 4.987-4.294 7.653-6.227 4.814-.947 9.494 1.2 13.48 3.693 10.227 6.453 18.134 15.8 25.24 25.427 2.974 4.88 6.254 9.786 7.467 15.466-1.88 3.12-5.147 5.12-7.773 7.574-12-18.254-27.814-33.947-46.067-45.934ZM386.621 111.199c1.92-1.24 3.827-2.506 5.787-3.693a104.474 104.474 0 0 1-3.6 5.653c-.734-.653-1.454-1.306-2.187-1.96ZM290.622 157.573c2.427-6.44 6.28-13.374 13.12-15.814 3.8-1.093 6.787 2.2 7.627 5.587 1.28 10.333-1.974 20.453-5.734 29.947-3.426 8.653-7.493 17.026-11.226 25.56-4.32 8.666-5.507 18.506-6.067 28.053.307 4.067-.24 9.507 3.653 12.067 3.987 1.12 7.814-1.36 10.8-3.76-.706-2.267-3.226-3.347-4.293-5.454-5.427-9.613-3.92-21.76 1.013-31.266 2.467-4.587 5.894-9.467 11.227-10.814 3.573-.96 6.947 1.254 9.36 3.667 5.187 11.067.467 23.547-3.68 34.147 2.267-1.614 4.507-3.28 6.52-5.214 1.467-1.493 3.107-3.066 3.6-5.186 2.587-9.96 6.48-20.4 14.787-27 4.24-3.427 11.746-5.614 15.053.173 4.96-.787 10.027 2.04 11.387 6.987 2.546 10-.934 20.253-4.32 29.613 3.8-1.533 7.693-3.36 10.4-6.547 1-13.146 2.76-26.266 6.12-39.04 1.8-7.333 4.373-14.44 7.226-21.413 3.16-6.24 6.894-12.747 13.08-16.413 3.12-2 8.187-1.747 9.854 2.013 1.72 4.107-.014 8.573-1.067 12.6-6.333 19.36-14.853 37.92-23.693 56.24-.907 7.413-1.867 14.907-1.48 22.4.373 1.787.2 4.04 1.653 5.373l.973.907c8.267-3.68 12.947-12.267 16.667-20.053 2.027-21.507 6.147-43.254 15.987-62.68 3.346-5.907 7.426-12.454 14.266-14.627 3.307-1.267 7.907.933 8.134 4.693.666 7.134-2.92 13.694-5.267 20.214-5.947 14.626-12.32 29.12-19.907 42.986-2.413 3.787-2.12 8.454-2.84 12.72-.413 6.374-1.866 13.187.934 19.24 6.986-1.733 11.306-8.053 14.84-13.853 4.653-10.093 11.48-18.973 16.48-28.893 1.386-2.694 2.773-6.04 6.12-6.707 5.986-.853 9.866 7.013 6.96 11.813-3.12 5.027-4.507 11.107-3.374 16.974 1.12 5.586 1.694 11.293.854 16.96 3.346-3.987 6.92-7.84 9.88-12.134 2.493-9.066 6.4-17.746 11.453-25.68 1.36-2.56 4.68-4.333 7.4-2.706 3.867 2.133 5.413 7.666 3.067 11.453-1.827 3.2-3.88 6.267-5.6 9.52-3.667 6.28-7.067 12.867-8.187 20.147 2.267 1.106 4.64 2.32 7.24 1.44 4.613-2.174 7.627-6.72 9.6-11.267 2.24-7.4 4.133-14.92 6.173-22.373.614-3.08 4.054-6.56 7.267-4.467 3.187 1.547 3.853 5.213 3.84 8.427 1.427-1.8 2.64-4.04 5.04-4.68 3.427-.587 6.827 1.386 8.533 4.32.347 3.333.24 6.68-.12 10.013 6.254.88 12.507.08 18.707-.787 4.907 2.094 7.187 9.734 2.813 13.387-5.213 4.827-7.653 11.813-9.12 18.587-.893 4.426-2 9.48.8 13.453 7.547-3.573 11.947-11.173 15.587-18.32 2.613-9.04 5.36-18.973 13.08-25.067 4.373-3.506 10.787-2.213 14.533 1.587 3.894 3.907 8.374 9.147 6.64 15.093-1.053 2.587-3.693 3.014-6.16 2.68-2.826-2.813-4.426-6.773-7.986-8.8-6.827 3.214-9.774 10.707-12.187 17.334-1.64 5.826-3.707 12.213-2.013 18.186 1.186 3.307 4.453 1.014 5.893-.733 5.52-6.467 8.28-14.76 10.28-22.88.547-2.707 3.453-4.307 6-3.053 3.72 2.013 6.12 6.786 4.667 10.906-2.32 6.547-4.52 13.347-4.427 20.387-.28 1.88 1.72 2.853 2.667 4.173 6.773-4.013 10.746-11.293 14.133-18.133 2.613-7.973 3.947-16.333 6.44-24.347 2.12-4.133 6.347.027 7.56 2.694-.533 9.76-3.427 19.226-4.12 28.973 1.893-5.48 3.693-11.013 6.533-16.093 2.734-4.774 5.68-10.934 11.84-11.654 5.667-.853 10.134 3.48 12.84 7.92 2.667 7.694 1.347 16.04-1.64 23.427-2.866 6.773-6.133 13.413-8.16 20.507 3.907.626 7.054-2.227 9.907-4.48 3.413-2.694 6.107-6.134 9.027-9.32 1.413 1.146 1.666 2.453.76 3.893-3.654 6.853-7.547 14.027-13.96 18.68-3.12 2.44-8.107 2.707-10.947-.293-3.933-3.427-4.427-9.12-3.973-14 1.12-10.534 4.586-20.614 6.453-31-3.667 1-7.013 3.066-9.227 6.226-6.6 8.8-11.133 19.08-14.12 29.627-4.28 4.453-10.826-1.173-10.293-6.28l.32-4.347c-2.667 3.307-6.133 7.907-11.027 6.067-7.946-2.28-10.253-11.56-10.253-18.84-2.173 2.867-3.107 6.613-6.08 8.867-2.907 3.053-8.2 2.28-10.6-1-4.28-5.254-3.92-12.414-3.493-18.774-3.654 5.24-6.36 11.747-12.387 14.76-3 1.64-5.893-1.066-7.547-3.346-3.933-9.84-2.426-20.934-.026-30.96-2.054-.294-4.107-.587-6.147-.894-2.213-.866-4.2-2.173-6.147-3.48-3.893 9.134-10.12 17.147-18.04 23.12-2.373 2.12-5.813 3.48-6.84 6.747-4.333 10.613-9.16 21.227-16.2 30.347-3.533 4.973-9.44 7.8-15.56 6.706-2.68-1.613-5.6-3.253-7.026-6.186-2-3.334-1.307-7.4-1.12-11.08 2.133-4.934 5.146-9.68 9.746-12.654 5.987-4.586 13.32-6.866 19.627-10.853 1.8-4.373 3.08-8.96 4.933-13.307-4.16 4.28-11.026 6.84-16.48 3.387-4.853-3.067-5.56-9.173-5.2-14.387-5.213 5.36-9.533 11.494-14.493 17.067-7.587 7.2-21.893 1.347-21.92-9.28-2.693 2.36-4.48 5.667-7.64 7.507-3.667 2.653-9.507 3.52-12.733-.28-3.96-4.72-4.547-11.214-4.84-17.12-3.6 5.533-6.36 12.12-12.334 15.573-3.693 2.373-9.36 2.547-12.093-1.333-4.52-6.2-4.987-14.36-4.92-21.774-.48.307-1.427.92-1.907 1.227-3.013 3.787-7.546 6.013-12.333 6.44-3.213 5.507-6.853 11.2-12.613 14.333-5.267 3.08-12.84 2.96-17.08-1.826-5.134-5.36-5.494-13.334-5.12-20.32-3.854 4.906-7.894 10.76-14.4 12.146-4.347 6.267-10.56 12.934-18.88 12.414-5.48.026-9.44-4.734-11.32-9.427-2.054-4.4-2-9.32-2.867-14-4.173 9-7.733 19.773-16.84 24.947-5.467 2.76-10.107-2.88-10.8-7.84-.387-12.907 3.16-25.44 4.853-38.134-1.6 1.28-3.2 2.547-4.693 3.92-2.707 2.747-4.547 6.187-6.24 9.6-4.8 9.827-8.493 20.267-10.307 31.08-.453 2.88-2.853 5.12-5.613 5.854-2.933-.214-5.547-2.427-6.08-5.347-.84-5.053 1.453-9.987 1.52-15.013-3.92 7.586-6.627 17.04-14.533 21.546-5.374 2.894-10.654-2.586-10.654-7.866-.986-12.654 2.134-25.187 3.387-37.72-4.013 2.493-6.72 6.52-8.8 10.68-5.693 11.226-9.227 23.48-11.12 35.893-.56 3.613-4.947 6.693-8.347 4.453-3.026-1.893-3.066-5.666-2.786-8.813-2.454 5.533-6.214 12.68-13.414 11.813-6.426-.986-8.106-8.28-9.226-13.613-1.654 5.107-2.934 10.667-6.854 14.613-2.4 2.667-7.186 3.6-9.733.627-4-4-3.72-9.973-4.213-15.173-3.347 7.533-5.374 16.106-11.694 21.866-2.626 1.16-5.933.44-7.28-2.24-3.426-6.293-3.226-13.76-3.333-20.72.267-2.6.6-5.173.933-7.746-3.84 1.92-8.053 3.053-12.373 2.426-1.493 4.334-2.947 8.667-4.88 12.827l-1.947-.76c1.493-4 2.88-8.053 4.16-12.133-7.56-2.48-10.146-11.707-6.52-18.387 1.88-3.133 5.24-5.573 9.04-5.187 4.173 1.987 3.147 7.32 3 11.067 4.88-1.653 9.427-4.16 13.574-7.213 2.28-1.534 4.586-3.747 7.586-3.04 4.067 2.493 3.667 8.386 1.094 11.84-3.467 5.506-5.227 11.906-6.187 18.293-.867 5.36-1.507 11.147 1 16.2 4.747-3.12 7.16-8.56 9.44-13.56 2.04-5.04 4.453-10.04 5.12-15.507 1.28-9.08 3.52-18.226 8.293-26.16 2.547-3.666 5.907-7.253 10.414-8.333 4.92-.947 9.733 1.96 12.706 5.707 2.094 3.72.96 9.706-3.546 11.093-3.254.8-5.44-2.107-7.96-3.533-2.374-.334-4.04 2.093-5.347 3.733-5.027 8.013-7.16 17.493-8.2 26.773-.2 4.36-.893 9.374 2.2 12.947 6.547-4.84 7.907-13.573 10.253-20.88 2.307-6.373.04-15.773 7.827-18.773 3.413 1.106 6.453 4.24 5.573 8.106-1.36 8.387-3.973 17.094-1.56 25.547 5.707-.333 7.147-7.24 9.52-11.413 2.374-5.974 5.4-11.854 6.027-18.347l3-23.36a14.265 14.265 0 0 1 4.187-3.413c1.346 1.266 3.506 2.226 3.733 4.306.187 9.627-1.827 19.187-1.413 28.8 2.333-9.546 4.8-19.146 8.946-28.093 2.4-5.08 6.707-10.08 12.64-10.613 3.334-.534 6.694 1.32 8.507 4.08 2.88 4.026 2.44 9.293 2.16 13.973-1.573 11.733-6.627 22.693-8.173 34.44 8.506-5.24 12.96-14.933 17.506-23.467 1.787-8.893 2.734-17.96 4.454-26.866 1.16-3.387 5.44-3.96 7.786-1.427 1.694 10.36-1.733 20.88-1.84 31.32 2.88-9.8 5.787-19.68 10.627-28.707 3.227-5.12 8.627-9.8 15.067-9.16 6.413 1.334 9.146 8.414 8.506 14.347-.96 13.267-7.4 25.293-10.053 38.213 5.253-1.76 8.147-6.88 11.44-10.973 2.373-3.64 5.467-7.16 6.427-11.467 1.173-21.786 6.28-43.16 12.933-63.866Zm12.747-6.094c-4.667 10.867-5.347 22.814-7.84 34.254 3.546-4.827 5.826-10.427 8.293-15.84 2.773-6.96 5.533-14.827 2.653-22.2-1.386.933-2.533 2.186-3.106 3.786Zm98.92 3.16c-5.827 11.894-9.254 24.774-12.6 37.534 6.346-8.76 10.426-18.92 14.533-28.867 1.747-4.08 2.253-8.507 2.28-12.907-2.2.427-3.253 2.44-4.213 4.24Zm28.28 8.28c-4.547 10.24-7.747 21-10.68 31.787 4.346-5.613 7.413-12.093 10.546-18.44 2.96-7.36 7.787-14.707 6.614-22.987-3.467 2.12-4.907 6.12-6.48 9.64Zm-123.294 48.627c-1.72 5.947-1.96 13.16 2.88 17.76 3.92-8.587 7.907-19.227 3.534-28.333-3.68 2.32-5.187 6.626-6.414 10.573Zm48.587-6.2c-1.773 7.227-2.08 15.76 3 21.787 2.12-5.614 3.693-11.494 4.04-17.507.013-3.28-.347-6.867-2.84-9.28-1.653 1.4-3.813 2.667-4.2 5Zm-20.627 32.267c.027 3.12 2.694 5.96 5.92 5.64 5.774-.04 9.96-4.614 13.56-8.56-7.906-4.507-12.56-13.654-12.333-22.654-4.787 7.534-7.76 16.587-7.147 25.574Zm98.094 0c-.667 4.266-.24 9.8 4 12.106 3.173 1.28 7.586.587 9.186-2.773 2.414-4.987.907-10.72-.56-15.76-1.96-5.267-2.466-10.88-2.026-16.453-4.814 6.96-8.28 14.76-10.6 22.88Zm81.533-21.28c-.173.573-.52 1.706-.693 2.266 1.426 2.227 2.973 4.454 5.306 5.827.134-2.2.347-4.413.2-6.613-.853-1.974-3.066-1.867-4.813-1.48Zm-18.16 38.466c7.787-4.826 15.68-11.133 18.16-20.386-5.4-3.88-7.4-10.68-6.733-17.08-3.16 12.666-6.934 25.2-11.427 37.466ZM87.915 232.373c1.653 1.68 3.44 4.04 6.04 3.88.454-2.734.427-5.587-1.186-7.934-1.987.854-3.507 2.4-4.854 4.054Zm373.214 56.16c-1.787 3.04 2.68 5.333 4.96 3.493 5.68-4.667 8.146-11.92 11.6-18.187-6.254 3.814-13.534 7.614-16.56 14.694Z"/><path fill="#FEFEFE" d="M249.488 160.586c1.613-1.973 3.293-3.893 4.96-5.827 8.92 11.454 16.547 24.12 21 38-4.693-3.413-9.08-8.56-15.427-8.253-6.933-.187-12.826 4.227-17.093 9.28-2.6-2.133-5.507-3.84-8.76-4.733 3.827-10.107 8.72-19.867 15.32-28.467ZM49.754 188.72c8.894-3.454 20.414-3.494 27.427 3.813 8.547 8.333 8.853 21.96 4.613 32.493a37.888 37.888 0 0 1-5.293 9.067c-1.107 1.333-2.307 2.6-3.52 3.853-1.653 1.6-3.44 3.054-5.213 4.52 4.08-.12 8.333 1.054 11.08 4.267 5.066 5.293 5.04 13.213 4.226 20.027-2.76 13.586-13.2 26.253-27.253 28.786-4.96 1.387-10.093-.813-13.2-4.76-1.427-3.173-2.947-6.706-.933-10.04 2.88 2.96 4.146 8.187 8.84 8.787 5.986.4 11.293-3.587 14.946-7.947 5.174-6.506 8.72-15.453 6.174-23.72-1.907-6.106-8.867-9.8-15.027-8.52-2.613.494-5.227 1.134-7.92 1.04.533-2.586 2.533-4.066 4.867-4.893 9.88-4.387 16.466-14.16 19.106-24.387 1.174-5.546 1.387-11.96-2.24-16.693-3.626-4.827-10.133-6.253-15.853-6.32-13.453.68-26.933 6.8-35.347 17.52-4.32 5.507-7.28 12.347-7.28 19.44.374 5.72 2.92 11.747 8.027 14.76 3.253 2.027 7.44 1.213 10.667 3.32.586 2.813.133 5.68-1.32 8.173a16.387 16.387 0 0 1-3.88 2.947c-9.147-.333-16.6-8.52-17.747-17.32-1.813-10.6 2.12-21.213 7.24-30.333 7.613-13.214 20.747-22.56 34.813-27.88Z"/><path fill="#FEFEFE" d="M44.22 215.119c3.147-4.106 6.493-8.546 11.68-10.146l1.333 1.813c-6.12 7.813-8.666 17.613-9.24 27.387-2.24 18.72-4.866 37.6-11.333 55.4-2.893 6.626-6.2 13.68-12.52 17.706-3.587 2.32-9.08 3.4-12.2-.253-4.533-5.4-2.987-14.36 1.8-19.027-.213 4.294-2.053 11.36 3.547 13.014 2.986-.414 5.413-2.574 6.746-5.187 4.24-7.947 5.68-16.973 7.454-25.693.146-.92.453-2.76.6-3.68 3.346-17.214 4.053-35.414 12.133-51.334ZM58.422 233.906c1-6.64 3.467-13 7.64-18.293 1.2 6.853-2.947 13.626-7.64 18.293ZM244.008 255.866c2.093 5.827 6.56 11.6 13.106 12.373 4.92 1.054 9.4-1.506 13.454-3.88-4.507 7.454-9.814 14.4-15.734 20.787-5.573-5.733-9.933-12.507-13.906-19.413 1.853-2.987 2.746-6.387 3.08-9.867Z"/><path fill="#FEFEFE" d="M459.421 264.559c1.28-1.333 2.307-2.893 3.427-4.346.96 1.053 1.92 2.12 2.893 3.186-9.426 4.787-17.933 12.894-19.586 23.774-2.294 8.226-.427 17.266 5.293 23.653-15.893 21.293-37.053 38.533-61.173 49.72-8.867 3.88-18.054 6.973-27.427 9.36-23.36 5.253-47.933 5.653-71.267.08-32.186-7.347-61.626-25.627-82.88-50.84-10.346-12.213-18.666-26.107-24.92-40.827 2.507-2.066 4.96-4.28 6.627-7.106 1.173-2.667 1.613-5.56 1.933-8.414 2.267 4.8 5.747 9.734 11.294 10.88 5.973 1.6 11.893-1.306 16.306-5.16 5.067 4.187 12.48 4.534 17.814.614 9.613 17.253 24.333 31.586 41.813 40.786 19.667 10.334 42.8 13.774 64.667 9.974 21.8-3.587 42.12-14.854 57.106-31.04 4.88-5.387 9.254-11.24 12.934-17.52.306-.387.933-1.174 1.24-1.56 4.133-1.387 8.586-2.08 12.306-4.56 1.84 1.413 3.68 2.866 5.707 4.026 8.493 4.24 19.64 2.747 25.893-4.68Zm-241.16 44.8c-3.026 5.4 4.92 7.92 6.907 12.08 6.747-7 14.227-13.28 20.773-20.48-1.36-1.36-3.36-3.093-4.76-.8-5.266 5.174-10.613 10.267-15.853 15.467a275.575 275.575 0 0 0-3.773-4.027c5.746-5.826 11.84-11.306 17.56-17.146-.68-.72-2.067-2.174-2.747-2.894-6 5.974-12.373 11.587-18.107 17.8Zm189.787-9.68c7.04 6.534 14.28 12.867 21.253 19.48.934-1.013 1.854-2.026 2.8-3.026a3093.04 3093.04 0 0 1-18.16-16.614c1.214-1.4 2.44-2.786 3.667-4.186 6.013 5.613 12.16 11.093 18.133 16.76.92-1 1.84-1.987 2.787-2.974-6.693-5.72-12.667-12.373-19.813-17.506-5.254-.734-6.747 5.813-10.667 8.066Zm-8.12 11.16c2.947 4.547 6.987 8.294 10.307 12.574 2 2.106 3.6 5.226 6.826 5.506 2.947-.653 4.88-3.24 7.227-4.96-.907-1.16-1.8-2.333-2.68-3.493-1.613 1.413-3.213 2.84-4.827 4.253a206.447 206.447 0 0 0-5.24-6.066c1.56-1.36 3.134-2.694 4.734-4.014-.92-1.173-1.84-2.346-2.747-3.506-1.547 1.413-3.067 2.84-4.613 4.24a458.25 458.25 0 0 0-5.294-6.014c1.627-1.426 3.254-2.853 4.894-4.253-1-1.08-1.987-2.147-2.96-3.213-2.307 2.52-7.414 4.746-5.627 8.946Zm-169.04 16.187c.853.64 2.56 1.947 3.413 2.6 4.88-6.667 9.68-13.387 14.6-20.027 1.427 1.147 2.854 2.28 4.294 3.427-5.04 6.4-9.507 13.227-14.507 19.653 1.147.854 2.293 1.694 3.453 2.56 4.774-6.733 9.587-13.453 14.534-20.066 1.426 1.12 2.853 2.253 4.293 3.373-4.933 6.507-9.573 13.227-14.533 19.707 1.186.826 2.386 1.666 3.586 2.493 4.52-6.88 9.8-13.24 14.374-20.08 2.76-3.907-2.8-8.533-6.627-7.627-1.427-4.706-6.76-6.026-10.013-9.173a666.697 666.697 0 0 1-16.867 23.16Zm153.52-9.307c5.227 8.107 10.587 16.12 15.907 24.174 2.986-2.334 6.626-3.907 9.08-6.867.8-4.733-3.774-8.107-5.72-12.04-2.92-3.613-4.4-9.053-8.974-10.92-3.933.6-6.893 3.773-10.293 5.653Zm-9.853 5.52c-2.014 2.534.12 5.454 1.213 7.854 2.667 5.026 4.853 10.293 7.587 15.293 3.026 4.013 7.56.04 10.853-1.413-.52-.92-1.547-2.747-2.053-3.667a92.824 92.824 0 0 0-6.027 3.493c.053-.346.173-1.066.227-1.426-1.107-2.12-2.214-4.227-3.374-6.307 1.974-1.053 3.947-2.08 5.92-3.12-.533-.88-1.613-2.64-2.146-3.533-1.827.933-3.64 1.866-5.454 2.786a467.65 467.65 0 0 0-3.586-7.32 768.237 768.237 0 0 1 5.733-2.906 341.858 341.858 0 0 1-1.96-3.747c-2.307 1.32-5 2.133-6.933 4.013Zm-106.44-1.453c-3.294 6.107-6.347 12.36-9.454 18.56-2.32 5.093 4.08 6.933 7.534 8.48a324.49 324.49 0 0 1 1.706-3.773 516.97 516.97 0 0 0-5.586-2.6c1.093-2.534 2.333-5 3.64-7.427 1.8 1 3.6 1.973 5.413 2.947l2.04-3.6a587.82 587.82 0 0 0-5.787-3.067 217.724 217.724 0 0 0 3.694-7.213c1.88.946 3.733 1.946 5.573 2.986.653-1.306 1.32-2.613 1.973-3.906-3.266-1.347-7.813-5.4-10.746-1.387Zm17.853 4.107c-2.827-.934-5.333 1.32-5.987 3.893-2.573 7.267-5.04 14.587-7.746 21.813.96.374 2.866 1.134 3.826 1.507 1.4-3.88 2.774-7.773 4.12-11.68 1.627.533 3.254 1.107 4.867 1.707-1.467 3.813-2.827 7.666-4.173 11.52 1.253.493 2.52 1 3.786 1.506 2.68-7.56 5.374-15.106 7.934-22.706.933-2.294.053-5-2.374-5.934 1.04-1.28 2.894-2.333 2.574-4.253.106-2.173-2.627-4.627-4.667-3.373-2.587.733-3.227 3.8-2.16 6Zm79.773.813c2.56 7.773 4.654 15.68 7.107 23.493-1.853.52-3.693 1.054-5.547 1.587-2.146-7.933-4.6-15.787-6.76-23.707-1.306.427-2.626.867-3.92 1.334 2.64 7.693 4.534 15.626 7.027 23.36a600.858 600.858 0 0 0-5.36 1.786c-2.24-7.946-4.72-15.826-6.88-23.786-1.333.426-2.667.853-3.987 1.293 2.667 8.013 4.627 16.253 7.374 24.227 2.68 4.186 9.2 1.533 11.52-1.867 3.786 2.347 12.106-.547 10.133-6.04-2.187-7.693-4.6-15.333-6.773-23.027-.987.334-2.96 1.014-3.934 1.347Zm-33.746 9.36c.36 2.933.453 5.893.96 8.813 3.12 2.534 6.813 4.267 9.933 6.827.067 1.307.187 3.92.24 5.213-1.253.147-3.76.427-5.013.574-.094-.934-.294-2.8-.387-3.734-1.347.187-2.68.374-4.013.574.24 2.626.466 6.24 3.613 6.986 2.56-.093 5.32.094 7.747-.88 3.626-2.866 1.066-7.92 1.146-11.746-3.226-1.96-6.413-3.974-9.493-6.16-.667-2.32-1.693-4.587-1.72-7.04 2.333 1.64 5.96 2.266 7.72-.547-1.067 1.52-1.773 3.213-1.293 5.093.973-.08 2.893-.24 3.853-.306-.187-2.507-.12-5.734-2.813-6.947-3.64-.267-8.627-.707-10.48 3.28Zm-26.427 8.04-.48 3.827c3.973-.147 8.187 1.826 11.96.826.067-.813.213-2.453.293-3.28-3.933-.426-7.866-.8-11.773-1.373Z"/><path fill="#FEFEFE" d="M382.328 266.426c6.96 1.36 13.907-1.24 19.053-5.893 2.267 3.706 5.814 6.186 9.52 8.306-3.786 6.054-7.986 11.854-12.813 17.134-6.12-5.774-10.867-12.76-15.76-19.547ZM140.22 343.226c16.28-14.973 32.72-29.773 49.107-44.627 4.333 7.294 9.04 14.387 14.467 20.92.32.387.96 1.174 1.293 1.56-19.587 15.68-39.96 30.387-58.92 46.827-1.947 1.56-3.84 3.253-6.08 4.387-7.053.88-11.533-5.694-16.56-9.44 3.893 6.853 10.6 13.066 10.133 21.56-2.56 8.386-10.973 16.626-20.386 14.28-9.68-2.534-17.907-10.667-20.294-20.4-.187-4.467 1.32-9.107 4.974-11.894 8.533-6.68 20.333-6.266 29.186-12.346 4.694-3.174 8.854-7.08 13.08-10.827ZM476.048 313.8c.52-.307 1.56-.92 2.08-1.214 11.68 10.64 23.413 21.254 35.053 31.947 6.147 5.293 12.2 11.36 20.254 13.6 7.24 2.507 15.373 3.68 21.306 8.933 4.694 4.16 5.307 11.52 2.227 16.8-4 7.374-11.067 13.507-19.467 15.04-6.066 1.107-11.84-2.493-15.32-7.226-2.093-2.92-4.586-6.267-3.773-10.08 1.067-7.307 6.573-12.627 10.093-18.774-5.186 3.68-9.613 10.547-16.826 9.44-6.56-4.36-12.147-9.986-18.307-14.853-15.093-12.027-30.52-23.627-45.587-35.693 2.387-2.747 4.64-5.6 6.814-8.507l1.293.707c6.04 3.64 14.173 3.626 20.16-.12Z"/><path fill="#000214" d="M353.514 94.946c1.267-3.973 1.174-9.32 5.08-11.693 3.56.266 9.174.653 9.894 5.066-1.134 5.787-3.2 11.334-4.654 17.04-.706 2.507-1.093 5.667-3.866 6.76-3.147-.066-6.654-.533-9.107-2.706-1.56-2.52-.067-5.28.587-7.814l3.893 1.654c-.68 2-1.347 4.133-3.64 4.746 2.373-1.44 4.867-.373 7.253.387.747-2.653 1.507-5.293 2.267-7.947-2.88-1.093-7.827-1.333-7.707-5.493Zm3.894.2c1.733.413 3.493.72 5.266.933.974-3.066.454-7.68 4.28-8.813-2.333 1.253-5.666 1.333-7.28-1.107-.36 3.08-1.36 6.04-2.266 8.987Z"/><path fill="#000014" d="M279.607 87.093c2.24-1.094 4.6-2.707 7.227-2.054 2.16.667 2.8 3.027 3.493 4.907 2.307 7 4.627 14 6.987 20.987-1.253.36-2.52.733-3.773 1.106-2.494-7.8-5.187-15.546-7.774-23.306-1.813.626-3.626 1.253-5.426 1.893 2.8 7.667 5.226 15.467 8.066 23.12-1.28.507-2.56 1.027-3.84 1.533-3.133-9.106-6.093-18.266-9.426-27.306 1.493-.307 2.973-.6 4.466-.88Z"/><path fill="#04101A" d="M264.475 93.133c1.186-.694 2.386-1.387 3.586-2.08 4.147 8.706 8.414 17.36 12.52 26.08-.88.453-2.64 1.36-3.533 1.813-4.333-8.533-8.173-17.307-12.573-25.813Z"/><path fill="#182028" d="M380.328 112.239c4.6-5.813 11.693-8.693 17.493-13.093 1.16.787 2.334 1.56 3.52 2.347-3.04 4.253-5.573 8.84-8.546 13.133.306.493.92 1.48 1.226 1.987-1.026 1.493-2.28 2.84-4.226 2.906a726.996 726.996 0 0 0-3.747 6.4l-3.68-2.28c1.52-2.306 3.013-4.64 4.427-7.04-2.267-1.28-4.494-2.666-6.467-4.36Zm6.293-1.04c.734.654 1.454 1.307 2.187 1.96a103.863 103.863 0 0 0 3.6-5.653c-1.96 1.187-3.867 2.453-5.787 3.693ZM307.276 211.546c1.227-3.947 2.733-8.253 6.413-10.573 4.374 9.106.387 19.746-3.533 28.333-4.84-4.6-4.6-11.813-2.88-17.76ZM72.982 237.946c1.214-1.253 2.414-2.52 3.52-3.853l3.84-.6c.374 3.04.494 6.16 1.507 9.08 1.507 2.866 4.107 4.906 6.36 7.146-.64 2.787-1.293 5.547-1.947 8.32-2.186-6.933-5.733-13.693-12.44-17.2-.213-.733-.626-2.173-.84-2.893Z"/><path fill="#000010" d="m315.606 140.799 1.68.92c4.227 5.2 4.374 12.347 4 18.707-.88 8.32-3.08 16.6-6.64 24.173l-.76 1.387c-.746-3.853 1.307-7.36 2.36-10.933 3.774-11 5.014-23.627-.64-34.254ZM311.501 146.133l1.52-.987c1.68 11.253-1.466 22.293-5.666 32.627l-1.72-.48c3.76-9.494 7.013-19.614 5.733-29.947l.133-1.213ZM382.247 169.186c1.413-3.44 2.306-7.32 5.2-9.893l-.254 2.573c-2.853 6.973-5.426 14.08-7.226 21.413-.347-.413-1.04-1.226-1.387-1.626.453-4.347 2.24-8.387 3.667-12.467ZM178.58 169.519c.627-2.32 2.414-3.946 4.054-5.586-4.641 11.666-7.001 24.013-9.534 36.253-.627-2.067-1.307-4.187-.787-6.36 1.374-8.253 3.627-16.373 6.267-24.307ZM319.18 192.919c6.547 4.054 5.16 12.867 4.627 19.374-.04 4.04-3.8 8.36-.867 11.986-2.013 1.934-4.253 3.6-6.52 5.214 4.147-10.6 8.867-23.08 3.68-34.147l-.92-2.427ZM236.887 195.586c4.547 3 2.6 8.92 3.213 13.453 1.92-2.8 2.12-8.293 6.2-8.56-4.84 9.027-7.746 18.907-10.626 28.707.106-10.44 3.533-20.96 1.84-31.32l-.627-2.28ZM175.287 206.213c.56-.64 1.653-1.907 2.2-2.547l-.307 2.48-3 23.36c-.627 6.493-3.653 12.373-6.027 18.347-1.64-4.227 1.96-8.32 2.8-12.454 2.174-9.6 2.32-19.56 4.334-29.186ZM250.26 212.399c1.493-1.373 3.093-2.64 4.693-3.92-1.693 12.694-5.24 25.227-4.853 38.134-.133.666-.387 1.986-.52 2.653-2.04-2.027-1.56-5.027-1.613-7.6.44-9.053 2.973-17.84 4.013-26.813-.427-.614-1.293-1.84-1.72-2.454ZM522.073 215.773l1.56-1.28c.453 3.266.653 6.56.733 9.866 5.667.72 11.254-1.586 16.84-1.026l1.494 1.426-2.04.24c-6.2.867-12.454 1.667-18.707.787.36-3.333.467-6.68.12-10.013ZM35.435 234.479c1.92-6.746 2.68-14.893 8.786-19.36-8.08 15.92-8.786 34.12-12.133 51.334l-.547 1.16c-.813-2.08-1.533-4.187-2.213-6.307a11.45 11.45 0 0 0 1.32-8.173c4.04-5.334 2.867-12.534 4.787-18.654ZM133.9 217.879c.6-.24 1.774-.746 2.374-1-4.774 7.934-7.014 17.08-8.294 26.16-.666 5.467-3.08 10.467-5.12 15.507-1.893-2.827.88-5.933 1.4-8.813 3-10.627 3.094-22.494 9.64-31.854ZM233.715 253.079c1.813-10.813 5.507-21.253 10.307-31.08l.533 1.88c-3.814 10.227-7.973 20.44-9.387 31.374a315.51 315.51 0 0 1-1.453-2.174ZM482.568 224.226l1.946-.893c-2.2 6.906-7.56 12.893-7.386 20.426 1.64.387 3.133 1.08 4.493 2.054-2.6.88-4.973-.334-7.24-1.44 1.12-7.28 4.52-13.867 8.187-20.147ZM76.5 234.093a37.907 37.907 0 0 0 5.294-9.067l2.52 5.12c-3.626 6.68-1.04 15.907 6.52 18.387a240.762 240.762 0 0 1-4.16 12.133l1.947.76c-1.067.227-2.133.453-3.187.693a288.125 288.125 0 0 1-.693 6.747c-.413-.52-1.253-1.573-1.667-2.107.814-6.813.84-14.733-4.226-20.026-2.747-3.214-7-4.387-11.08-4.267 1.773-1.467 3.56-2.92 5.213-4.52.213.72.627 2.16.84 2.893 6.707 3.507 10.253 10.267 12.44 17.2.653-2.773 1.307-5.533 1.947-8.32-2.254-2.24-4.854-4.28-6.36-7.146-1.014-2.92-1.134-6.04-1.507-9.08l-3.84.6ZM118.607 237.613l1.613-.68c-3.453 8.346-6.08 17.04-6.307 26.146-.546-2.386-1.12-4.76-1.493-7.173.96-6.387 2.72-12.787 6.187-18.293ZM600.553 238.826l1.747.613c-2.493 8.014-3.827 16.374-6.44 24.347l-1.52 1.347c1.32-8.92 4.12-17.547 6.213-26.307ZM523.54 239.799c2.04.307 4.094.6 6.147.894-2.4 10.026-3.907 21.12.027 30.96l-1.507.72c-4.773-9.52-2.36-20.2-1.36-30.24-1.173-.347-3.533-1.067-4.72-1.427l1.413-.907ZM609.86 242.133l.134-2.054c4.946 4.027-2.147 10.534 2.28 14.934-2.84 5.08-4.64 10.613-6.534 16.093.694-9.747 3.587-19.213 4.12-28.973ZM636.568 249.053c3.293 1.546 3.506 5.666 3.48 8.813-.107 6.653.08 14.2-4.694 19.467l-.04-2.627c2.987-7.387 4.307-15.733 1.64-23.427l-.386-2.226ZM102.994 250.426c.414.667 1.24 2.013 1.654 2.68l.293.813c.107 6.96-.093 14.427 3.333 20.72 1.347 2.68 4.654 3.4 7.28 2.24l.64 1.92c-3.346.587-7.226.48-9.133-2.826-4.733-7.494-4.667-17-4.067-25.547ZM446.554 269.546c4.493-1.053 8.547-3.427 12.867-4.987-6.254 7.427-17.4 8.92-25.894 4.68 4.347-.626 8.68.494 13.027.307ZM30.06 267.706l1.427 2.427c-1.773 8.72-3.213 17.746-7.453 25.693-.92-2.213.413-4.413.947-6.52 2.453-7 3.666-14.347 5.08-21.6ZM451.061 284.653l1.64-1.12-.093 2.44c-.187 3.68-.88 7.746 1.12 11.08 1.427 2.933 4.347 4.573 7.027 6.186l1.453 1.467c-9.36-.84-14.147-11.787-11.147-20.053ZM455.314 312.333c3.334.706 6.6 1.973 10.027 2.226 3.96-.08 7.707-1.573 11.533-2.4l-.826 1.64c-5.987 3.747-14.12 3.76-20.16.12l-.574-1.586ZM331.994 336.066c1.853-3.987 6.84-3.547 10.48-3.28 2.693 1.213 2.627 4.44 2.813 6.947-.96.066-2.88.226-3.853.306-.48-1.88.227-3.573 1.293-5.093-1.76 2.813-5.386 2.187-7.72.547.027 2.453 1.054 4.72 1.72 7.04 3.08 2.186 6.267 4.2 9.494 6.16-.08 3.826 2.48 8.88-1.147 11.746-2.427.974-5.187.787-7.747.88-3.146-.746-3.373-4.36-3.613-6.986a372.4 372.4 0 0 1 4.013-.574c.094.934.294 2.8.387 3.734 1.253-.147 3.76-.427 5.013-.574a680.416 680.416 0 0 0-.24-5.213c-3.12-2.56-6.813-4.293-9.933-6.827-.507-2.92-.6-5.88-.96-8.813ZM362.848 369.906c9.373-2.387 18.56-5.48 27.426-9.36-.24.573-.733 1.747-.973 2.333-5.853 3.107-12.307 4.92-18.587 6.96-2.56.96-5.28.867-7.866.067Z"/><path fill="#141A24" d="M303.367 151.479c.574-1.6 1.72-2.853 3.107-3.786 2.88 7.373.12 15.24-2.653 22.2-2.467 5.413-4.747 11.013-8.294 15.84 2.494-11.44 3.174-23.387 7.84-34.254ZM402.288 154.639c.96-1.8 2.013-3.813 4.213-4.24-.027 4.4-.534 8.827-2.28 12.907-4.107 9.947-8.187 20.107-14.533 28.867 3.346-12.76 6.773-25.64 12.6-37.534Z"/><path fill="#121824" d="M430.569 162.919c1.573-3.52 3.013-7.52 6.48-9.64 1.173 8.28-3.654 15.627-6.614 22.987-3.133 6.347-6.2 12.827-10.546 18.44 2.933-10.787 6.133-21.547 10.68-31.787Z"/><path fill="#000013" d="M467.982 157.159c6.307 5.36 6.56 14.334 9.96 21.414.52.293 1.56.866 2.08 1.16l.6.32c0 .906-.013 1.8-.053 2.706-.813 4.707-.027 9.44.827 14.08-.507-.146-1.52-.426-2.027-.56-2.093-13.466-5.973-26.626-11.387-39.12Z" opacity=".97"/><path fill="#FCFCFC" d="M149.927 186.319c2.72-2.986 7.307-.226 7.68 3.254 1.12 3.946-2.306 9.426-6.786 7.946-3.694-2.453-4.014-8.173-.894-11.2ZM137.928 188.626c7.213-3.667 10.013 9.307 3.467 11.68-6.52 1.813-8.094-8.667-3.467-11.68ZM288.248 322.079c1.8-1.213 3.92 1.734 1.854 2.827-1.8 1.36-3.827-1.773-1.854-2.827Z"/><path fill="#181F29" d="M19.235 215.613c8.413-10.72 21.893-16.84 35.347-17.52 5.72.066 12.226 1.493 15.853 6.32 3.627 4.733 3.413 11.146 2.24 16.693-2.64 10.227-9.227 20-19.107 24.387-1.413-.28-2.826-.547-4.226-.814-.094-3.546-.507-7.066-1.347-10.506.573-9.774 3.12-19.574 9.24-27.387l-1.333-1.813c-5.187 1.6-8.534 6.04-11.68 10.146-6.107 4.467-6.867 12.614-8.787 19.36-1.92 6.12-.747 13.32-4.787 18.654-3.226-2.107-7.413-1.294-10.666-3.32-5.107-3.014-7.654-9.04-8.027-14.76 0-7.094 2.96-13.934 7.28-19.44Zm39.187 18.293c4.693-4.667 8.84-11.44 7.64-18.293-4.174 5.293-6.64 11.653-7.64 18.293Zm-34.6 10.84c1.8.067 3.6.12 5.413.187 1.373-9.227 3.467-18.36 6.653-27.134-8.32 5.627-17.706 16.494-12.066 26.947ZM335.236 237.612c-.613-8.986 2.36-18.04 7.147-25.573-.227 9 4.426 18.147 12.333 22.653-3.6 3.947-7.787 8.52-13.56 8.56-3.227.32-5.893-2.52-5.92-5.64ZM47.968 251.839c6.906.294 15.853-3 20.64 3.827 5.613 8.387-1.027 17.573-3.134 25.92-3.653 4.36-8.96 8.347-14.947 7.947-4.693-.6-5.96-5.827-8.84-8.787 2.907-9.453 4.24-19.267 6.28-28.907Zm6.8 11.534c-1.374 5.293-2.054 10.76-3.614 16.013.48.893 1.453 2.653 1.947 3.547 6.28-3.054 11.306-8.787 12.587-15.76-.2-5.76-7.04-5.16-10.92-3.8Z"/><path fill="#F8FCFC" d="M358.967 202.546c-.48 6.533.56 13.187-1.053 19.6 1.147-6.493-.04-13.107 1.053-19.6ZM394.594 226.706c-.72-1.867 0-6.174 2.414-6.107.826 2-.16 5.667-2.414 6.107ZM390.248 318.973a421.91 421.91 0 0 1 4.067-2.707c3.76 5.627 7.44 11.293 11.2 16.92-1.36.987-2.694 1.987-4.027 3-3.693-5.787-7.627-11.387-11.24-17.213Z"/><path fill="#181F28" d="M433.328 237.613c2.32-8.12 5.786-15.92 10.6-22.88-.44 5.573.066 11.186 2.026 16.453 1.467 5.04 2.974 10.773.56 15.76-1.6 3.36-6.013 4.053-9.186 2.773-4.24-2.306-4.667-7.84-4-12.106Z"/><path fill="#010413" d="M385.222 229.613c-.04-3.8-.853-7.907 1.173-11.374.507 8.907-.066 17.827.12 26.747l-.973-.907c-.56-4.8.013-9.653-.32-14.466Z"/><path fill="#1C242C" d="M87.914 232.373c1.347-1.654 2.867-3.2 4.853-4.054 1.614 2.347 1.64 5.2 1.187 7.934-2.6.16-4.387-2.2-6.04-3.88Z"/><path fill="#FDFDFD" d="M54.768 263.373c3.88-1.36 10.72-1.96 10.92 3.8-1.28 6.973-6.307 12.706-12.587 15.76-.493-.894-1.467-2.654-1.947-3.547 1.56-5.253 2.24-10.72 3.614-16.013Zm3.346 2.986c-.773 3.294-1.493 6.614-2 9.96 3.04-2.493 4.56-6.186 6.067-9.706-1.36-.094-2.72-.187-4.067-.254Z"/><path fill="#171F28" d="M179.915 279.613c2.987-3.374 6.373-6.467 10.493-8.4-1.666 2.826-4.12 5.04-6.626 7.106 6.253 14.72 14.573 28.614 24.92 40.827-1.64.12-3.28.24-4.907.373-5.427-6.533-10.133-13.626-14.467-20.92-16.386 14.854-32.826 29.654-49.106 44.627-4.227 3.747-8.387 7.653-13.08 10.827-8.854 6.08-20.654 5.666-29.187 12.346-3.653 2.787-5.16 7.427-4.973 11.894-.947 1.52-1.894 3.053-2.854 4.586-2.28-6.453-.84-14.16 4.454-18.72 9.226-8.413 23.293-7.16 32.786-15.133 6.334-4.76 11.867-10.453 17.84-15.653 13.92-12.827 28.094-25.387 41.987-38.254-2.893-4.933-5.307-10.133-7.28-15.506Z"/><path fill="#1A202C" d="M461.129 288.533c3.026-7.08 10.306-10.88 16.56-14.694-3.454 6.267-5.92 13.52-11.6 18.187-2.28 1.84-6.747-.453-4.96-3.493Z"/><path fill="#08101C" d="M218.262 309.359c5.733-6.213 12.106-11.826 18.106-17.8.68.72 2.067 2.174 2.747 2.894-5.72 5.84-11.813 11.32-17.56 17.146 1.267 1.32 2.52 2.667 3.773 4.027 5.24-5.2 10.587-10.293 15.854-15.467 1.4-2.293 3.4-.56 4.76.8-6.547 7.2-14.027 13.48-20.774 20.48-1.986-4.16-9.933-6.68-6.906-12.08Z"/><path fill="#141C26" d="M399.929 310.839c-1.787-4.2 3.32-6.426 5.626-8.946.974 1.066 1.96 2.133 2.96 3.213-1.64 1.4-3.266 2.827-4.893 4.253a458.186 458.186 0 0 1 5.293 6.014c1.547-1.4 3.067-2.827 4.614-4.24.906 1.16 1.826 2.333 2.746 3.506-1.6 1.32-3.173 2.654-4.733 4.014 1.773 1.986 3.533 4 5.24 6.066 1.613-1.413 3.213-2.84 4.827-4.253.88 1.16 1.773 2.333 2.68 3.493-2.347 1.72-4.28 4.307-7.227 4.96-3.227-.28-4.827-3.4-6.827-5.506-3.32-4.28-7.36-8.027-10.306-12.574Z"/><path fill="#141C28" d="M230.889 327.026a666.67 666.67 0 0 0 16.866-23.16c3.254 3.147 8.587 4.467 10.014 9.173 3.826-.906 9.386 3.72 6.626 7.627-4.573 6.84-9.853 13.2-14.373 20.08-1.2-.827-2.4-1.667-3.587-2.493 4.96-6.48 9.6-13.2 14.534-19.707-1.44-1.12-2.867-2.253-4.294-3.373-4.946 6.613-9.76 13.333-14.533 20.066-1.16-.866-2.307-1.706-3.453-2.56 5-6.426 9.466-13.253 14.506-19.653-1.44-1.147-2.866-2.28-4.293-3.427-4.92 6.64-9.72 13.36-14.6 20.027-.853-.653-2.56-1.96-3.413-2.6Z"/><path fill="#181E28" d="M384.408 317.719c3.4-1.88 6.36-5.053 10.294-5.653 4.573 1.867 6.053 7.307 8.973 10.92 1.947 3.933 6.52 7.307 5.72 12.04-2.453 2.96-6.093 4.533-9.08 6.867-5.32-8.054-10.68-16.067-15.907-24.174Zm5.84 1.254c3.614 5.826 7.547 11.426 11.24 17.213a231.037 231.037 0 0 1 4.027-3c-3.76-5.627-7.44-11.293-11.2-16.92-1.36.893-2.72 1.8-4.067 2.707Z"/><path fill="#040C18" d="M374.555 323.239c1.933-1.88 4.627-2.693 6.933-4.013.64 1.24 1.294 2.493 1.96 3.747-1.92.96-3.826 1.933-5.733 2.906a476.733 476.733 0 0 1 3.587 7.32c1.813-.92 3.626-1.853 5.453-2.786.533.893 1.613 2.653 2.147 3.533-1.974 1.04-3.947 2.067-5.92 3.12 1.16 2.08 2.266 4.187 3.373 6.307-.053.36-.173 1.08-.227 1.426 1.96-1.24 3.974-2.4 6.027-3.493.507.92 1.533 2.747 2.053 3.667-3.293 1.453-7.826 5.426-10.853 1.413-2.733-5-4.92-10.267-7.587-15.293-1.093-2.4-3.226-5.32-1.213-7.854Z"/><path fill="#101824" d="M268.114 321.786c2.934-4.013 7.48.04 10.747 1.387-.653 1.293-1.32 2.6-1.973 3.906-1.84-1.04-3.694-2.04-5.574-2.986a215.787 215.787 0 0 1-3.693 7.213 611.359 611.359 0 0 1 5.787 3.067l-2.04 3.6a428.915 428.915 0 0 1-5.414-2.947c-1.306 2.427-2.546 4.893-3.64 7.427 1.867.853 3.72 1.72 5.587 2.6-.573 1.253-1.147 2.506-1.707 3.773-3.453-1.547-9.853-3.387-7.533-8.48 3.107-6.2 6.16-12.453 9.453-18.56Z"/><path fill="#06101C" d="M285.968 325.893c-1.067-2.2-.427-5.267 2.16-6 2.04-1.254 4.773 1.2 4.666 3.373.32 1.92-1.533 2.973-2.573 4.253 2.427.934 3.307 3.64 2.373 5.934-2.56 7.6-5.253 15.146-7.933 22.706-1.267-.506-2.533-1.013-3.787-1.506 1.347-3.854 2.707-7.707 4.174-11.52-1.614-.6-3.24-1.174-4.867-1.707a867.2 867.2 0 0 1-4.12 11.68c-.96-.373-2.867-1.133-3.827-1.507 2.707-7.226 5.174-14.546 7.747-21.813.653-2.573 3.16-4.827 5.987-3.893Zm2.28-3.814c-1.974 1.054.053 4.187 1.853 2.827 2.067-1.093-.053-4.04-1.853-2.827Zm-3.867 7.707c-.973 2.64-1.933 5.28-2.853 7.933 1.64.414 3.28.814 4.92 1.227.84-2.44 1.733-4.84 2.68-7.227-1.587-.653-3.174-1.293-4.747-1.933Z"/></svg>