<svg xmlns="http://www.w3.org/2000/svg" fill="none" viewBox="0 0 658 406"><path fill="#19202A" d="M508.076 3.912c7.4-4.174 16.467-5.107 24.52-2.32 15.174 5.066 28 19.013 29.32 35.293.88 8.574-3.2 16.64-8.426 23.134-10.44 12.826-24.267 22.146-37.094 32.333a14411.577 14411.577 0 0 0-53.866 45.16c7.573 12.946 13.893 26.8 17.24 41.466-.52-.293-1.56-.866-2.08-1.16-3.4-7.08-3.654-16.053-9.96-21.413-3.32-6.507-6.6-13.04-10.507-19.227 3.773-4.213 9.053-7.24 11.813-12.24-1.586-5.92-3.626-12.96-9.786-15.6-7.107-9.626-15.014-18.973-25.24-25.426-3.987-2.494-8.667-4.64-13.48-3.694-1-.386-3-1.186-4.014-1.586 19.08-16.387 38.987-31.8 57.574-48.76 10.64-9.467 21.36-19.174 33.986-25.96Z"/><path fill="#182029" d="M90.063 32.832C94.21 13.898 113.236-1.928 132.97.272c10.373 1.973 19 8.626 27.213 14.88 9.173 7.213 17.707 15.187 26.373 22.973 15.587 13.307 31.494 26.227 47.174 39.427-8.32-.52-16.627 2.333-22.467 8.386l1.76.974c-8.72 7.013-16.2 15.52-22.293 24.893-2.52 4.027-4.987 8.267-5.934 12.987 2.027 3.48 5.854 5.48 8.574 8.4.786 1.386 1.48 2.813 2.2 4.24-5.214 8.146-9.387 16.88-13.187 25.746-1.64 1.64-3.427 3.267-4.053 5.587-2.64 7.933-4.894 16.053-6.267 24.307-.52 2.173.16 4.293.787 6.36 2.493-1.587 5-3.614 8.12-3.547 3.146-.053 5.666 2.013 8.08 3.733 3.96-5.613 10.133-10.333 17.306-10.12 7.054.08 12.16 5.787 16.734 10.454.2.226.626.693.84.92 1.773-5.24 4.826-10.12 9.986-12.574 3.254.894 6.16 2.6 8.76 4.734 4.267-5.054 10.16-9.467 17.094-9.28 6.346-.307 10.733 4.84 15.426 8.253-4.453-13.88-12.08-26.547-21-38-1.666 1.933-3.346 3.853-4.96 5.827-.386-2.68.014-5.36.88-7.907 16.92-19.36 41.48-31.813 67.08-34.093 26.987-2.627 54.747 6.346 75.307 23.946 4.213-3.453 9.733-6.24 15.32-4.64 5.36 1.8 9.813 6.027 12.013 11.24 3.84-4.16 8.587-8.186 14.494-8.586 5.893-.494 11.013 3.586 14.493 7.92 4.733 7.146 2.427 16.253-.267 23.72-6.013 15.8-12.84 31.32-20.626 46.346.133.72.386 2.187.506 2.92 4.414-7.72 9.134-15.253 13.16-23.186 2.667-5.214 9.16-8.6 14.867-6.427 6.2 2.773 11.733 8.013 12.907 14.96 2.32-4.267 5.066-8.573 9.746-10.52.507.133 1.52.413 2.027.56-.853-4.64-1.64-9.373-.827-14.08 1.614 4.12 2.187 8.52 2.907 12.853 4.627 1.014 8.12 4.2 11.68 7.12 5.413-3.093 12.347-2.733 16.72 2.04 9.2-1.346 18.213 5.814 20.187 14.654 8.4-3.107 17.28 1.24 21.48 8.76 3.76-4.547 8.32-9.24 14.56-9.8 6.68-1.107 12.453 3.186 17.226 7.28 4.587 3.92 7.56 9.306 9.8 14.84 1.187-4.214 3.694-9.387 8.8-9.36 5.694-.84 9.334 4.28 13.254 7.4 4.266-1.987 9.226-2.88 13.746-1.147 7.12 3.067 13.294 8.867 15.8 16.32 2.587 6.773 2.094 14.253.374 21.173 4.413 2.214 9.16 5.387 10.146 10.6 1.36 5.894-2.986 11.027-5.586 15.92-5.107 8.04-11.96 17.014-22.254 17.84-10.013.32-17.52-9.053-18.36-18.426-2.146 4.88-6.76 9.16-12.426 8.64-4.787.266-8.52-3.107-11.814-6.08-7.786 1.186-15.226-3.16-19.44-9.507-8.213 3.96-17.64-.64-21.786-8.227-3.307 1.974-7.067 3.92-11.04 3.027-6.534-1.4-11.174-7.28-12.64-13.573-1.867-6.387-1.44-13.107-1.227-19.667-4.88 7.533-11.893 13.2-18.747 18.813-5.746 12.507-11.093 25.694-20.666 35.907 12.266 11.107 24.493 22.267 36.733 33.4 5.027 4.36 10.213 8.973 16.747 10.88 8.813 3 19.266 4.56 25.16 12.56 4.346 5.867 3.52 13.84.12 19.933-4.934 9.174-13.267 17.734-24.014 19.187-8.653.92-15.973-5.413-19.92-12.533-4.026-5.974-5.226-13.72-10.773-18.654-6.987-6.493-15.08-11.653-22.56-17.533-13.013-10.173-26.04-20.333-38.907-30.693-26.053 28.506-62.733 47.12-101.226 50.826-49.347 5.414-100.534-14.48-133.547-51.506-13.533 10.72-27.053 21.426-40.667 32.013-7.52 5.867-15.653 11-22.52 17.653-4.12 3.867-5.4 9.6-8.08 14.4-3.28 6.52-8.026 13.24-15.4 15.36-5.6 1.84-11.666.014-16.493-3-7.187-4.613-12.667-11.653-15.787-19.573.96-1.533 1.907-3.067 2.854-4.587 2.386 9.734 10.613 17.867 20.293 20.4 9.413 2.347 17.827-5.893 20.387-14.28.466-8.493-6.24-14.706-10.134-21.56 5.027 3.747 9.507 10.32 16.56 9.44 2.24-1.133 4.134-2.826 6.08-4.386 18.96-16.44 39.334-31.147 58.92-46.827-.333-.387-.973-1.173-1.293-1.56 1.627-.133 3.267-.253 4.907-.373 21.253 25.213 50.693 43.493 82.88 50.84 23.333 5.573 47.906 5.173 71.266-.08 2.587.8 5.307.893 7.867-.067 6.28-2.04 12.733-3.853 18.587-6.96.24-.587.733-1.76.973-2.333 24.12-11.187 45.28-28.427 61.173-49.72-5.72-6.387-7.586-15.427-5.293-23.654 1.653-10.88 10.16-18.986 19.587-23.773-.974-1.067-1.934-2.133-2.894-3.187-1.12 1.454-2.146 3.014-3.426 4.347-4.32 1.56-8.374 3.933-12.867 4.987-4.347.186-8.68-.934-13.027-.307-2.026-1.16-3.866-2.613-5.706-4.027-3.72 2.48-8.174 3.174-12.307 4.56l-1.24 1.56c-.84-.626-2.533-1.866-3.373-2.493-3.707-2.12-7.254-4.6-9.52-8.307-5.147 4.654-12.094 7.254-19.054 5.894 4.894 6.786 9.64 13.773 15.76 19.546 1.067.974 2.147 1.934 3.254 2.88-14.987 16.187-35.307 27.454-57.107 31.04-21.867 3.8-45 .36-64.667-9.973-17.48-9.2-32.2-23.533-41.813-40.787-5.333 3.92-12.747 3.574-17.813-.613-4.414 3.853-10.334 6.76-16.307 5.16-5.547-1.147-9.027-6.08-11.293-10.88-.32 2.853-.76 5.747-1.934 8.413-4.12 1.934-7.506 5.027-10.493 8.4a39.016 39.016 0 0 1-8.333-1.293c-3.694 1.653-7.467 3.48-11.6 3.587-3.6.146-6.84-1.627-10.054-2.974-5.173 6.667-15.453 8.747-22.08 3-3.546 5.774-10.053 10.467-17.133 8.334-8.733-2.907-11.907-13.134-12.053-21.467a30.007 30.007 0 0 1-6.094 5.373c-3.426 14.36-13.333 27.44-27.346 32.76-7.334 3.067-16.334 3.507-22.96-1.466-3.694 6.32-8.547 12.453-15.44 15.426-5.92 2.547-13.64 2.387-18.467-2.32-6.013-5.226-7.187-14.04-5.453-21.453 1.093-5.267 2.253-11.64 7.333-14.573 4.293-2.107 8.04 1.52 11.147 3.973.666-3.08 1.426-6.133 2.186-9.187-12.466-2.426-22.08-13.76-23.106-26.293-1.534-18.093 5.44-36.587 17.88-49.707 10.493-10.653 24.053-19.013 38.96-21.426 15.906-2.44 31.546 9.413 35.6 24.546 1.413 4.387 1.373 9.04 1.346 13.614 3.694 1.653 6.827 4.24 9.694 7.053 3.586-2.787 7.32-5.947 12.053-6.307 3.96.107 6.973 2.787 9.813 5.214 1.974-4.627 4.014-9.267 7.04-13.307-5.666-6.187-5.333-15.387-2.44-22.747 2.294-5.093 8.6-8.72 13.96-5.906 4.08-3.787 10.654-5.36 15.147-1.32 9.64 5.213 10.747 19.453 3.173 26.933a98.452 98.452 0 0 0 5.654 4.88c.973-25.84 8.746-51.32 21.88-73.56-18.6-15.387-37-31.013-55.547-46.44-12.693-9.947-26.2-19.227-36.48-31.813-6.28-7.453-10.093-17.387-7.88-27.16Zm217.68 90.866c-16.813 3.494-33.28 10.947-45.72 22.96 6.973 7.707 12.107 16.854 17.013 25.96 3.014-10.253 5.04-21.213 11.654-29.92 3.453-4.44 8.426-8.6 14.373-8.386 4.88-.214 9 3.133 11.973 6.653l-1.68-.92c5.654 10.627 4.414 23.253.64 34.253-1.053 3.574-3.106 7.08-2.36 10.934l.76-1.387c6.027 1.773 11.267 5.893 14.68 11.133 3.88-6.013 9.427-11.413 16.52-13.266 3.574-.88 7.72-1.067 10.867 1.16 2.853 2.24 6.627 2.2 9.8 3.76 5.493-15 14.08-28.667 23.24-41.654-22.213-18.906-53.133-27.106-81.76-21.28Zm-17.373 33.12c-6.654 20.707-11.76 42.08-12.934 63.867-.96 4.307-4.053 7.827-6.426 11.467-3.294 4.093-6.187 9.213-11.44 10.973 2.653-12.92 9.093-24.947 10.053-38.213.64-5.934-2.093-13.014-8.507-14.347-6.44-.64-11.84 4.04-15.066 9.16-4.08.267-4.28 5.76-6.2 8.56-.614-4.533 1.333-10.453-3.214-13.453l.627 2.28c-2.347-2.534-6.627-1.96-7.787 1.426-1.72 8.907-2.666 17.974-4.453 26.867-4.547 8.533-9 18.227-17.507 23.467 1.547-11.747 6.6-22.707 8.174-34.44.28-4.68.72-9.947-2.16-13.974-1.814-2.76-5.174-4.613-8.507-4.08-5.933.534-10.24 5.534-12.64 10.614-4.147 8.946-6.613 18.546-8.947 28.093-.413-9.613 1.6-19.173 1.414-28.8-.227-2.08-2.387-3.04-3.734-4.307a14.277 14.277 0 0 0-4.186 3.414l.306-2.48c-.546.64-1.64 1.906-2.2 2.546-2.013 9.627-2.16 19.587-4.333 29.187-.84 4.133-4.44 8.227-2.8 12.453-2.373 4.174-3.813 11.08-9.52 11.414-2.413-8.454.2-17.16 1.56-25.547.88-3.867-2.16-7-5.573-8.107-7.787 3-5.52 12.4-7.827 18.774-2.347 7.306-3.707 16.04-10.253 20.88-3.094-3.574-2.4-8.587-2.2-12.947 1.04-9.28 3.173-18.76 8.2-26.773 1.306-1.64 2.973-4.067 5.346-3.734 2.52 1.427 4.707 4.334 7.96 3.534 4.507-1.387 5.64-7.374 3.547-11.094-2.973-3.746-7.787-6.653-12.707-5.706-4.506 1.08-7.866 4.666-10.413 8.333-.6.253-1.773.76-2.373 1-6.547 9.36-6.64 21.227-9.64 31.853-.52 2.88-3.294 5.987-1.4 8.814-2.28 5-4.694 10.44-9.44 13.56-2.507-5.054-1.867-10.84-1-16.2.373 2.413.946 4.786 1.493 7.173.227-9.107 2.853-17.8 6.307-26.147l-1.614.68c2.574-3.453 2.974-9.346-1.093-11.84-3-.706-5.307 1.507-7.587 3.04-4.146 3.054-8.693 5.56-13.573 7.214.147-3.747 1.173-9.08-3-11.067-3.8-.387-7.16 2.053-9.04 5.187l-2.52-5.12c4.24-10.534 3.933-24.16-4.613-32.494-7.014-7.306-18.534-7.266-27.427-3.813-14.067 5.32-27.2 14.667-34.813 27.88-5.12 9.12-9.054 19.733-7.24 30.333 1.146 8.8 8.6 16.987 17.746 17.32a16.38 16.38 0 0 0 3.88-2.946c.68 2.12 1.4 4.226 2.214 6.306l.546-1.16c-.146.92-.453 2.76-.6 3.68l-1.426-2.426c-1.414 7.253-2.627 14.6-5.08 21.6-.534 2.106-1.867 4.306-.947 6.52-1.333 2.613-3.76 4.773-6.747 5.186-5.6-1.653-3.76-8.72-3.546-13.013-4.787 4.667-6.334 13.627-1.8 19.027 3.12 3.653 8.613 2.573 12.2.253 6.32-4.027 9.626-11.08 12.52-17.707.04.574.106 1.707.133 2.28.587-.893 1.773-2.706 2.36-3.6 1.293 1.707 2.667 3.36 4.173 4.907l-.706-2.373c3.106 3.946 8.24 6.146 13.2 4.76 14.053-2.534 24.493-15.2 27.253-28.787.413.533 1.253 1.587 1.667 2.107.266-2.254.48-4.494.693-6.747 1.053-.24 2.12-.467 3.187-.693 1.933-4.16 3.386-8.494 4.88-12.827 4.32.627 8.533-.507 12.373-2.427-.333 2.574-.667 5.147-.933 7.747l-.294-.813c-.413-.667-1.24-2.014-1.653-2.68-.6 8.546-.667 18.053 4.067 25.546 1.906 3.307 5.786 3.414 9.133 2.827l-.64-1.92c6.32-5.76 8.347-14.333 11.693-21.867.494 5.2.214 11.174 4.214 15.174 2.546 2.973 7.333 2.04 9.733-.627 3.92-3.947 5.2-9.507 6.853-14.613 1.12 5.333 2.8 12.626 9.227 13.613 7.2.867 10.96-6.28 13.413-11.813-.28 3.146-.24 6.92 2.787 8.813 3.4 2.24 7.787-.84 8.347-4.453 1.893-12.414 5.426-24.667 11.12-35.894 2.08-4.16 4.786-8.186 8.8-10.68-1.254 12.534-4.374 25.067-3.387 37.72 0 5.28 5.28 10.76 10.653 7.867 7.907-4.507 10.614-13.96 14.534-21.547-.067 5.027-2.36 9.96-1.52 15.014.533 2.92 3.146 5.133 6.08 5.346 2.76-.733 5.16-2.973 5.613-5.853.36.547 1.093 1.64 1.453 2.173 1.414-10.933 5.574-21.146 9.387-31.373l-.533-1.88c1.693-3.413 3.533-6.853 6.24-9.6.426.613 1.293 1.84 1.72 2.453-1.04 8.974-3.574 17.76-4.014 26.814.054 2.573-.426 5.573 1.614 7.6.133-.667.386-1.987.52-2.654.693 4.96 5.333 10.6 10.8 7.84 9.106-5.173 12.666-15.946 16.84-24.946.866 4.68.813 9.6 2.866 14 1.88 4.693 5.84 9.453 11.32 9.426 8.32.52 14.534-6.146 18.88-12.413 6.507-1.387 10.547-7.24 14.4-12.147-.373 6.987-.013 14.96 5.12 20.32 4.24 4.787 11.814 4.907 17.08 1.827 5.76-3.133 9.4-8.827 12.614-14.333 4.786-.427 9.32-2.654 12.333-6.44.48-.307 1.427-.92 1.907-1.227-.067 7.413.4 15.573 4.92 21.773 2.733 3.88 8.4 3.707 12.093 1.334 5.973-3.454 8.733-10.04 12.333-15.574.294 5.907.88 12.4 4.84 17.12 3.227 3.8 9.067 2.934 12.734.28 3.16-1.84 4.946-5.146 7.64-7.506.026 10.626 14.333 16.48 21.92 9.28 4.96-5.574 9.28-11.707 14.493-17.067-.36 5.213.347 11.32 5.2 14.387 5.453 3.453 12.32.893 16.48-3.387-1.853 4.347-3.133 8.933-4.933 13.307-6.307 3.986-13.64 6.266-19.627 10.853-4.6 2.973-7.613 7.72-9.747 12.653l.094-2.44-1.64 1.12c-3 8.267 1.786 19.214 11.146 20.054l-1.453-1.467c6.12 1.093 12.027-1.733 15.56-6.707 7.04-9.12 11.867-19.733 16.2-30.346 1.027-3.267 4.467-4.627 6.84-6.747 7.92-5.973 14.147-13.987 18.04-23.12 1.947 1.307 3.933 2.613 6.147 3.48l-1.414.907c1.187.36 3.547 1.08 4.72 1.426-1 10.04-3.413 20.72 1.36 30.24l1.507-.72c1.653 2.28 4.547 4.987 7.547 3.347 6.026-3.013 8.733-9.52 12.386-14.76-.426 6.36-.786 13.52 3.494 18.773 2.4 3.28 7.693 4.054 10.6 1 2.973-2.253 3.906-6 6.08-8.866 0 7.28 2.306 16.56 10.253 18.84 4.893 1.84 8.36-2.76 11.027-6.067l-.32 4.347c-.534 5.106 6.013 10.733 10.293 6.28 2.987-10.547 7.52-20.827 14.12-29.627 2.213-3.16 5.56-5.227 9.227-6.227-1.867 10.387-5.334 20.467-6.454 31-.453 4.88.04 10.574 3.974 14 2.84 3 7.826 2.734 10.946.294 6.414-4.654 10.307-11.827 13.96-18.68.907-1.44.654-2.747-.76-3.894-2.92 3.187-5.613 6.627-9.026 9.32-2.854 2.254-6 5.107-9.907 4.48 2.027-7.093 5.293-13.733 8.16-20.506l.04 2.626c4.773-5.266 4.587-12.813 4.693-19.466.027-3.147-.186-7.267-3.48-8.814l.387 2.227c-2.707-4.44-7.173-8.773-12.84-7.92-6.16.72-9.107 6.88-11.84 11.653-4.427-4.4 2.667-10.906-2.28-14.933l-.133 2.053c-1.214-2.666-5.44-6.826-7.56-2.693l-1.747-.613c-2.093 8.76-4.893 17.386-6.213 26.306l1.52-1.346c-3.387 6.84-7.36 14.12-14.134 18.133-.946-1.32-2.946-2.293-2.666-4.173-.094-7.04 2.106-13.84 4.426-20.387 1.454-4.12-.946-8.893-4.666-10.907-2.547-1.253-5.454.347-6 3.054-2 8.12-4.76 16.413-10.28 22.88-1.44 1.746-4.707 4.04-5.894.733-1.693-5.973.374-12.36 2.014-18.187 2.413-6.626 5.36-14.12 12.186-17.333 3.56 2.027 5.16 5.987 7.987 8.8 2.467.333 5.107-.093 6.16-2.68 1.733-5.947-2.747-11.187-6.64-15.093-3.747-3.8-10.16-5.094-14.533-1.587-7.72 6.093-10.467 16.027-13.08 25.067-3.64 7.146-8.04 14.746-15.587 18.32-2.8-3.974-1.693-9.027-.8-13.454 1.467-6.773 3.907-13.76 9.12-18.586 4.373-3.654 2.093-11.294-2.813-13.387l2.04-.24-1.494-1.427c-5.586-.56-11.173 1.747-16.84 1.027-.08-3.307-.28-6.6-.733-9.867l-1.56 1.28c-1.707-2.933-5.107-4.906-8.533-4.32-2.4.64-3.614 2.88-5.04 4.68.013-3.213-.654-6.88-3.84-8.426-3.214-2.094-6.654 1.386-7.267 4.466-2.04 7.454-3.933 14.974-6.173 22.374-1.974 4.546-4.987 9.093-9.6 11.266a12.652 12.652 0 0 0-4.494-2.053c-.173-7.533 5.187-13.52 7.387-20.427l-1.947.894c1.72-3.254 3.774-6.32 5.6-9.52 2.347-3.787.8-9.32-3.066-11.454-2.72-1.626-6.04.147-7.4 2.707-5.054 7.933-8.96 16.613-11.454 25.68-2.96 4.293-6.533 8.147-9.88 12.133.84-5.666.267-11.373-.853-16.96-1.133-5.866.253-11.946 3.373-16.973 2.907-4.8-.973-12.667-6.96-11.813-3.346.666-4.733 4.013-6.12 6.706-5 9.92-11.826 18.8-16.48 28.894-3.533 5.8-7.853 12.12-14.84 13.853-2.8-6.053-1.346-12.867-.933-19.24.72-4.267.427-8.933 2.84-12.72 7.587-13.867 13.96-28.36 19.907-42.987 2.346-6.52 5.933-13.08 5.266-20.213-.226-3.76-4.826-5.96-8.133-4.693-6.84 2.173-10.92 8.72-14.267 14.626-9.84 19.427-13.96 41.174-15.986 62.68-3.72 7.787-8.4 16.374-16.667 20.054-.187-8.92.387-17.84-.12-26.747-2.027 3.467-1.213 7.573-1.173 11.373.333 4.814-.24 9.667.32 14.467-1.454-1.333-1.28-3.587-1.654-5.373-.386-7.494.574-14.987 1.48-22.4 8.84-18.32 17.36-36.88 23.694-56.24 1.053-4.027 2.786-8.494 1.066-12.6-1.666-3.76-6.733-4.014-9.853-2.014-6.187 3.667-9.92 10.174-13.08 16.414l.253-2.574c-2.893 2.574-3.786 6.454-5.2 9.894-1.426 4.08-3.213 8.12-3.666 12.466.346.4 1.04 1.214 1.386 1.627-3.36 12.773-5.12 25.893-6.12 39.04-2.706 3.187-6.6 5.013-10.4 6.547 3.387-9.36 6.867-19.614 4.32-29.614-1.36-4.946-6.426-7.773-11.386-6.986-3.307-5.787-10.814-3.6-15.054-.174-8.306 6.6-12.2 17.04-14.786 27-.494 2.12-2.134 3.694-3.6 5.187-2.934-3.627.826-7.947.866-11.987.534-6.506 1.92-15.32-4.626-19.373l.92 2.427c-2.414-2.414-5.787-4.627-9.36-3.667-5.334 1.347-8.76 6.227-11.227 10.813-4.933 9.507-6.44 21.654-1.013 31.267 1.066 2.107 3.586 3.187 4.293 5.453-2.987 2.4-6.813 4.88-10.8 3.76-3.893-2.56-3.347-8-3.653-12.066.56-9.547 1.746-19.387 6.066-28.054 3.734-8.533 7.8-16.906 11.227-25.56l1.72.48c4.2-10.333 7.347-21.373 5.667-32.626l-1.52.986-.134 1.214c-.84-3.387-3.826-6.68-7.626-5.587-6.84 2.44-10.694 9.373-13.12 15.813Zm-140.694 28.747c-3.12 3.027-2.8 8.747.894 11.2 4.48 1.48 7.906-4 6.786-7.947-.373-3.48-4.96-6.24-7.68-3.253Zm-12 2.307c-4.626 3.013-3.053 13.493 3.467 11.68 6.547-2.374 3.747-15.347-3.467-11.68Zm256.667 38.08c2.253-.44 3.24-4.107 2.413-6.107-2.413-.067-3.133 4.24-2.413 6.107Zm-85.88 34.613c-7.067 5.547-17.72 6.893-25.387 1.8a113.756 113.756 0 0 1-20.8 29.64c17.494 15.48 40.68 24.48 64.094 24.187 23.106.36 45.893-8.4 63.44-23.334-11.307-11.853-20.854-25.76-25.8-41.48-5.84 8.694-16.2 15.614-27.054 13.494-8.053-1.16-13.88-7.827-17.106-14.88-4.387 2.88-6.974 7.72-11.387 10.573Zm-64.707-5.453c-.333 3.48-1.226 6.88-3.08 9.866 3.974 6.907 8.334 13.68 13.907 19.414 5.92-6.387 11.227-13.334 15.733-20.787-4.053 2.373-8.533 4.933-13.453 3.88-6.547-.773-11.013-6.547-13.107-12.373Zm211.307 56.466.573 1.587-1.293-.707c-2.173 2.907-4.427 5.76-6.813 8.507 15.066 12.067 30.493 23.667 45.586 35.693 6.16 4.867 11.747 10.494 18.307 14.854 7.213 1.106 11.64-5.76 16.827-9.44-3.52 6.146-9.027 11.466-10.094 18.773-.813 3.813 1.68 7.16 3.774 10.08 3.48 4.733 9.253 8.333 15.32 7.227 8.4-1.534 15.466-7.667 19.466-15.04 3.08-5.28 2.467-12.64-2.226-16.8-5.934-5.254-14.067-6.427-21.307-8.934-8.053-2.24-14.107-8.306-20.253-13.6-11.64-10.693-23.374-21.306-35.054-31.946-.52.293-1.56.906-2.08 1.213l.827-1.64c-3.827.827-7.573 2.32-11.533 2.4-3.427-.253-6.694-1.52-10.027-2.227Z"/><path fill="#182029" d="M496.45 254.045c4.493-12.266 8.266-24.8 11.426-37.467-.666 6.4 1.334 13.201 6.734 17.081-2.48 9.253-10.374 15.56-18.16 20.386Z"/><path fill="#0F171F" d="M242.25 84.832c28.346-18.107 62.706-26.44 96.2-23.773 25.28 1.706 49.986 9.893 71.493 23.24 2.16-1.92 4.36-3.8 6.573-5.667 1.014.4 3.014 1.2 4.014 1.587-2.667 1.933-5.16 4.093-7.654 6.226 18.254 11.987 34.067 27.68 46.067 45.933 2.627-2.453 5.893-4.453 7.773-7.573-1.213-5.68-4.493-10.587-7.466-15.467 6.16 2.64 8.2 9.68 9.786 15.6-2.76 5-8.04 8.027-11.813 12.24-22.56-36.28-60.853-62.36-102.933-69.893-28.734-4.946-59.014-2.4-86.014 8.907-29.84 12.147-55.733 33.84-72.706 61.24-.72-1.427-1.414-2.854-2.2-4.24 11.973-18.187 27.533-34 45.666-46.08-3.4-2.8-6.4-7.334-11.266-7.213-5.574.56-10.32 3.853-14.747 7.013l-1.76-.974c5.84-6.053 14.147-8.906 22.467-8.386 2.8 2.466 5.666 4.853 8.52 7.28Z"/><path fill="#fff" d="M268.276 76.192c27-11.307 57.28-13.853 86.014-8.907 42.08 7.534 80.373 33.613 102.933 69.893 3.907 6.187 7.187 12.72 10.507 19.227 5.413 12.493 9.293 25.653 11.386 39.12-4.68 1.947-7.426 6.253-9.746 10.52-1.174-6.947-6.707-12.187-12.907-14.96-5.707-2.173-12.2 1.213-14.867 6.427-4.026 7.933-8.746 15.466-13.16 23.186-.12-.733-.373-2.2-.506-2.92 7.786-15.026 14.613-30.546 20.626-46.346 2.694-7.467 5-16.574.267-23.72-3.48-4.334-8.6-8.414-14.493-7.92-5.907.4-10.654 4.426-14.494 8.586-2.2-5.213-6.653-9.44-12.013-11.24-5.587-1.6-11.107 1.187-15.32 4.64-20.56-17.6-48.32-26.573-75.307-23.946-25.6 2.28-50.16 14.733-67.08 34.093-9.466 10.933-16.68 23.773-21.066 37.56-3.294 2.56-6.2 6.013-5.96 10.467-4.574-4.667-9.68-10.374-16.734-10.454-7.173-.213-13.346 4.507-17.306 10.12-2.414-1.72-4.934-3.786-8.08-3.733-3.12-.067-5.627 1.96-8.12 3.547 2.533-12.24 4.893-24.587 9.533-36.254 3.8-8.866 7.973-17.6 13.187-25.746 16.973-27.4 42.866-49.093 72.706-61.24Zm47.88 4.453c.347 7.6.2 15.227.68 22.813 1.454 4.547 6.84 2.987 10.4 3.174-.08-1.12-.24-3.334-.306-4.44-2.107.253-4.214.44-6.32.586a300.5 300.5 0 0 0-.24-8.506c2.146-.08 4.293-.12 6.44-.12-.054-1.067-.147-3.2-.2-4.267-2.08.213-4.16.44-6.24.667.053-3.174-.254-6.334-1.24-9.36.24-.253.693-.76.933-1 1.907 1.16 3.813 2.32 6.36 1.907 0-1.067-.013-3.2-.013-4.267-3.574.4-8-.76-10.254 2.813Zm29.32-1.867c-1.066 9.734-3.293 19.294-4.373 29.027.947.147 2.827.413 3.773.547 1.56-9.334 2.867-18.707 4.76-27.987-1.4-.52-2.773-1.053-4.16-1.587Zm-48.826 6.094c1.133 6.987 2.08 14.026 3.626 20.933 1.68 4.24 6.814 2.427 10.147 1.707 3.147-1.534 2.693-5.334 1.813-8.133l-3.84.213c.16 1.026.467 3.106.614 4.146-1.68.28-3.36.56-5.027.854-1.187-7.547-2.76-15.027-3.76-22.6l.373 2.306a70.331 70.331 0 0 1 5.04-.626c.174.947.52 2.867.694 3.813 1.013-.2 3.066-.626 4.093-.84-.72-2.013-.587-4.6-2.32-6.093-1.867-2.094-4.853-.587-7.187-.454-2.333.16-4.893 2.214-4.266 4.774Zm56.613 9.32c-.12 4.16 4.827 4.4 7.707 5.493-.76 2.653-1.52 5.293-2.267 7.947-2.387-.76-4.88-1.827-7.253-.387 2.293-.613 2.96-2.747 3.64-4.747l-3.894-1.653c-.653 2.533-2.146 5.293-.586 7.813 2.453 2.174 5.96 2.64 9.106 2.707 2.774-1.093 3.16-4.253 3.867-6.76 1.453-5.707 3.52-11.253 4.653-17.04-.72-4.413-6.333-4.8-9.893-5.066-3.907 2.373-3.813 7.72-5.08 11.693Zm-73.907-7.853c-1.493.28-2.973.573-4.466.88 3.333 9.04 6.293 18.199 9.426 27.306 1.28-.507 2.56-1.027 3.84-1.533-2.84-7.654-5.266-15.454-8.066-23.12 1.8-.64 3.613-1.267 5.426-1.894 2.587 7.76 5.28 15.507 7.774 23.307 1.253-.373 2.52-.747 3.773-1.107-2.36-6.986-4.68-13.986-6.987-20.986-.693-1.88-1.333-4.24-3.493-4.907-2.627-.653-4.987.96-7.227 2.053Zm93.76 4.466c2.547 1.08 5.107 2.16 7.68 3.24-4.933 6.733-9.386 13.813-14.413 20.48.96.453 2.893 1.373 3.867 1.827 5.653-7.894 10.973-16.04 16.626-23.947-3.8-1.787-7.653-3.4-11.386-5.293-.814 1.213-1.6 2.453-2.374 3.693Zm-108.893 1.573c4.4 8.507 8.24 17.28 12.573 25.814.894-.454 2.654-1.36 3.534-1.814-4.107-8.72-8.374-17.373-12.52-26.08-1.2.694-2.4 1.387-3.587 2.08Zm-15.053 8.947c-2.667 4.053 2.133 7.76 3.866 11.147 3.76.293 7.494.786 11.254 1.053 1.133 1.573 2.266 3.147 3.413 4.72a505.931 505.931 0 0 0-4.267 3.053c-.68-1.08-1.36-2.16-2.026-3.24-.854.52-2.574 1.574-3.427 2.094 1.293 2.16 2.573 5.04 5.493 5.173 2.987-.813 5.747-2.667 7.734-5.027 1.066-4.16-2.707-7.173-4.507-10.48-3.68-.373-7.44-.24-11.027-1.08-1.36-1.32-2.293-2.986-3.413-4.493 1.36-1.013 2.707-2.04 4.067-3.053.76 1.04 1.506 2.093 2.266 3.133.84-.587 2.52-1.76 3.374-2.347-1.587-1.92-3.054-5.106-6-4.76-2.56.72-4.734 2.467-6.8 4.107Zm130.906 10.16c1.974 1.693 4.2 3.08 6.467 4.36-1.413 2.4-2.907 4.733-4.427 7.04l3.68 2.28c1.24-2.147 2.494-4.28 3.747-6.4 1.947-.067 3.2-1.413 4.227-2.907-.307-.506-.92-1.493-1.227-1.986 2.973-4.294 5.507-8.88 8.547-13.134-1.187-.786-2.36-1.56-3.52-2.346-5.8 4.4-12.894 7.28-17.494 13.093Z"/><path fill="#fff" d="M357.156 94.392c.907-2.947 1.907-5.907 2.267-8.987 1.613 2.44 4.947 2.36 7.28 1.107-3.827 1.133-3.307 5.746-4.28 8.813a46.851 46.851 0 0 1-5.267-.933ZM307.743 123.698c28.627-5.826 59.547 2.374 81.76 21.28-9.16 12.987-17.747 26.654-23.24 41.654-3.173-1.56-6.947-1.52-9.8-3.76-3.147-2.227-7.293-2.04-10.867-1.16-7.093 1.853-12.64 7.253-16.52 13.266-3.413-5.24-8.653-9.359-14.68-11.133 3.56-7.573 5.76-15.853 6.64-24.173.374-6.36.227-13.507-4-18.707-2.973-3.52-7.093-6.867-11.973-6.653-5.947-.214-10.92 3.946-14.373 8.386-6.614 8.707-8.64 19.667-11.654 29.92-4.906-9.106-10.04-18.253-17.013-25.96 12.44-12.013 28.907-19.466 45.72-22.96ZM308.463 260.565c4.413-2.853 7-7.693 11.387-10.573 3.226 7.053 9.053 13.72 17.106 14.88 10.854 2.12 21.214-4.8 27.054-13.494 4.946 15.72 14.493 29.627 25.8 41.48-17.547 14.934-40.334 23.694-63.44 23.334-23.414.293-46.6-8.707-64.094-24.187a113.756 113.756 0 0 0 20.8-29.64c7.667 5.093 18.32 3.747 25.387-1.8ZM284.13 329.032c1.573.64 3.16 1.28 4.746 1.933a168.117 168.117 0 0 0-2.68 7.227c-1.64-.413-3.28-.813-4.92-1.227.92-2.653 1.88-5.293 2.854-7.933Z"/><path fill="#000414" d="M316.156 80.645c2.254-3.573 6.68-2.413 10.254-2.813 0 1.067.013 3.2.013 4.267-2.547.413-4.453-.747-6.36-1.907-.24.24-.693.747-.933 1 .986 3.027 1.293 6.187 1.24 9.36 2.08-.227 4.16-.454 6.24-.667.053 1.067.146 3.2.2 4.267-2.147 0-4.294.04-6.44.12.12 2.826.2 5.666.24 8.506 2.106-.146 4.213-.333 6.32-.586.066 1.106.226 3.32.306 4.44-3.56-.187-8.946 1.373-10.4-3.174-.48-7.586-.333-15.213-.68-22.813ZM296.65 84.872c-.627-2.56 1.933-4.614 4.266-4.773 2.334-.134 5.32-1.64 7.187.453 1.733 1.493 1.6 4.08 2.32 6.093-1.027.214-3.08.64-4.093.84-.174-.947-.52-2.867-.694-3.813-1.693.147-3.373.36-5.04.627l-.373-2.307c1 7.573 2.573 15.053 3.76 22.6 1.667-.294 3.347-.574 5.027-.854-.147-1.04-.454-3.12-.614-4.146l3.84-.213c.88 2.799 1.334 6.599-1.813 8.133-3.333.72-8.467 2.533-10.147-1.707-1.546-6.907-2.493-13.947-3.626-20.933ZM373.116 90.805c.774-1.24 1.56-2.48 2.374-3.693 3.733 1.893 7.586 3.507 11.386 5.293-5.653 7.907-10.973 16.053-16.626 23.947-.974-.454-2.907-1.374-3.867-1.827 5.027-6.667 9.48-13.747 14.413-20.48a2291.65 2291.65 0 0 1-7.68-3.24ZM229.05 189.485c4.386-13.787 11.6-26.627 21.066-37.56-.866 2.547-1.266 5.227-.88 7.907-6.6 8.6-11.493 18.36-15.32 28.466-5.16 2.454-8.213 7.334-9.986 12.574-.214-.227-.64-.694-.84-.92-.24-4.454 2.666-7.907 5.96-10.467ZM355.61 204.592c.386-2.334 2.546-3.6 4.2-5 2.493 2.413 2.853 6 2.84 9.28-.347 6.013-1.92 11.893-4.04 17.506-5.08-6.026-4.774-14.56-3-21.786Zm3.106-2.8c-1.093 6.493.094 13.106-1.053 19.6 1.613-6.414.573-13.067 1.053-19.6ZM410.65 268.085c.84.627 2.533 1.867 3.373 2.493-3.68 6.28-8.053 12.134-12.933 17.52a132.582 132.582 0 0 1-3.254-2.88c4.827-5.28 9.027-11.08 12.814-17.133ZM407.796 298.925c3.92-2.253 5.414-8.8 10.667-8.067 7.147 5.134 13.12 11.787 19.813 17.507-.946.987-1.866 1.973-2.786 2.973-5.974-5.666-12.12-11.146-18.134-16.76-1.226 1.4-2.453 2.787-3.666 4.187 6.026 5.56 12.08 11.093 18.16 16.613-.947 1-1.867 2.014-2.8 3.027-6.974-6.613-14.214-12.947-21.254-19.48ZM365.49 325.952c.973-.334 2.946-1.014 3.933-1.347 2.173 7.693 4.587 15.333 6.773 23.027 1.974 5.493-6.346 8.386-10.133 6.04-2.32 3.4-8.84 6.053-11.52 1.866-2.747-7.973-4.707-16.213-7.373-24.226 1.32-.44 2.653-.867 3.986-1.294 2.16 7.96 4.64 15.84 6.88 23.787 1.774-.6 3.574-1.2 5.36-1.787-2.493-7.733-4.386-15.666-7.026-23.36 1.293-.466 2.613-.906 3.92-1.333 2.16 7.92 4.613 15.773 6.76 23.707 1.853-.534 3.693-1.067 5.546-1.587-2.453-7.813-4.546-15.72-7.106-23.493ZM305.316 343.352c3.907.573 7.84.946 11.774 1.373-.08.827-.227 2.467-.294 3.28-3.773 1-7.986-.973-11.96-.827l.48-3.826Z"/><path fill="#000012" d="M345.476 78.778c1.387.534 2.76 1.067 4.16 1.587-1.893 9.28-3.2 18.653-4.76 27.987-.946-.134-2.826-.4-3.773-.547 1.08-9.733 3.307-19.293 4.373-29.027ZM249.17 101.325c2.066-1.64 4.24-3.387 6.8-4.107 2.946-.346 4.413 2.84 6 4.76-.854.587-2.534 1.76-3.374 2.347-.76-1.04-1.506-2.093-2.266-3.133-1.36 1.013-2.707 2.04-4.067 3.053 1.12 1.507 2.053 3.173 3.413 4.493 3.587.84 7.347.707 11.027 1.08 1.8 3.307 5.573 6.32 4.507 10.48-1.987 2.36-4.747 4.214-7.734 5.027-2.92-.133-4.2-3.013-5.493-5.173.853-.52 2.573-1.574 3.427-2.094.666 1.08 1.346 2.16 2.026 3.24 1.414-1.026 2.84-2.04 4.267-3.053-1.147-1.573-2.28-3.147-3.413-4.72-3.76-.267-7.494-.76-11.254-1.053-1.733-3.387-6.533-7.094-3.866-11.147ZM514.61 215.578c1.746-.386 3.96-.493 4.813 1.48.147 2.2-.067 4.414-.2 6.614-2.333-1.374-3.88-3.6-5.307-5.827.174-.56.52-1.693.694-2.267ZM47.743 233.418c.84 3.44 1.253 6.96 1.346 10.507 1.4.267 2.814.533 4.227.813-2.333.827-4.333 2.307-4.867 4.894 2.694.093 5.307-.547 7.92-1.04 6.16-1.28 13.12 2.413 15.027 8.52 2.547 8.266-1 17.213-6.173 23.72 2.106-8.347 8.747-17.534 3.133-25.92-4.786-6.827-13.733-3.534-20.64-3.827-2.04 9.64-3.373 19.453-6.28 28.907-2.013 3.333-.493 6.866.934 10.04l.706 2.373c-1.507-1.547-2.88-3.2-4.173-4.907-.587.894-1.773 2.707-2.36 3.6-.027-.573-.093-1.706-.133-2.28 6.466-17.8 9.093-36.68 11.333-55.4Z"/><path fill="#FEFEFE" d="M213.023 86.912c4.427-3.16 9.173-6.454 14.747-7.014 4.866-.12 7.866 4.414 11.266 7.214-18.133 12.08-33.693 27.893-45.666 46.08-2.72-2.92-6.547-4.92-8.574-8.4.947-4.72 3.414-8.96 5.934-12.987 6.093-9.373 13.573-17.88 22.293-24.893ZM412.876 86.445c2.494-2.133 4.987-4.293 7.654-6.227 4.813-.946 9.493 1.2 13.48 3.694 10.226 6.453 18.133 15.8 25.24 25.426 2.973 4.88 6.253 9.787 7.466 15.467-1.88 3.12-5.146 5.12-7.773 7.573-12-18.253-27.813-33.946-46.067-45.933ZM386.37 110.445c1.92-1.24 3.826-2.507 5.786-3.693a103.26 103.26 0 0 1-3.6 5.653c-.733-.653-1.453-1.307-2.186-1.96ZM290.37 156.818c2.426-6.44 6.28-13.373 13.12-15.813 3.8-1.093 6.786 2.2 7.626 5.587 1.28 10.333-1.973 20.453-5.733 29.946-3.427 8.654-7.493 17.027-11.227 25.56-4.32 8.667-5.506 18.507-6.066 28.054.306 4.066-.24 9.506 3.653 12.066 3.987 1.12 7.813-1.36 10.8-3.76-.707-2.266-3.227-3.346-4.293-5.453-5.427-9.613-3.92-21.76 1.013-31.267 2.467-4.586 5.893-9.466 11.227-10.813 3.573-.96 6.946 1.253 9.36 3.667 5.186 11.066.466 23.546-3.68 34.146 2.266-1.613 4.506-3.28 6.52-5.213 1.466-1.493 3.106-3.067 3.6-5.187 2.586-9.96 6.48-20.4 14.786-27 4.24-3.426 11.747-5.613 15.054.174 4.96-.787 10.026 2.04 11.386 6.986 2.547 10-.933 20.254-4.32 29.614 3.8-1.534 7.694-3.36 10.4-6.547 1-13.147 2.76-26.267 6.12-39.04 1.8-7.333 4.374-14.44 7.227-21.413 3.16-6.24 6.893-12.747 13.08-16.414 3.12-2 8.187-1.746 9.853 2.014 1.72 4.106-.013 8.573-1.066 12.6-6.334 19.36-14.854 37.92-23.694 56.24-.906 7.413-1.866 14.906-1.48 22.4.374 1.786.2 4.04 1.654 5.373l.973.907c8.267-3.68 12.947-12.267 16.667-20.054 2.026-21.506 6.146-43.253 15.986-62.68 3.347-5.906 7.427-12.453 14.267-14.626 3.307-1.267 7.907.933 8.133 4.693.667 7.133-2.92 13.693-5.266 20.213-5.947 14.627-12.32 29.12-19.907 42.987-2.413 3.787-2.12 8.453-2.84 12.72-.413 6.373-1.867 13.187.933 19.24 6.987-1.733 11.307-8.053 14.84-13.853 4.654-10.094 11.48-18.974 16.48-28.894 1.387-2.693 2.774-6.04 6.12-6.706 5.987-.854 9.867 7.013 6.96 11.813-3.12 5.027-4.506 11.107-3.373 16.973 1.12 5.587 1.693 11.294.853 16.96 3.347-3.986 6.92-7.84 9.88-12.133 2.494-9.067 6.4-17.747 11.454-25.68 1.36-2.56 4.68-4.333 7.4-2.707 3.866 2.134 5.413 7.667 3.066 11.454-1.826 3.2-3.88 6.266-5.6 9.52-3.666 6.28-7.066 12.866-8.186 20.146 2.266 1.107 4.64 2.32 7.24 1.44 4.613-2.173 7.626-6.72 9.6-11.266 2.24-7.4 4.133-14.92 6.173-22.374.613-3.08 4.053-6.56 7.267-4.466 3.186 1.546 3.853 5.213 3.84 8.426 1.426-1.8 2.64-4.04 5.04-4.68 3.426-.586 6.826 1.387 8.533 4.32.347 3.334.24 6.68-.12 10.014 6.253.88 12.507.08 18.707-.787 4.906 2.093 7.186 9.733 2.813 13.387-5.213 4.826-7.653 11.813-9.12 18.586-.893 4.427-2 9.48.8 13.454 7.547-3.574 11.947-11.174 15.587-18.32 2.613-9.04 5.36-18.974 13.08-25.067 4.373-3.507 10.786-2.213 14.533 1.587 3.893 3.906 8.373 9.146 6.64 15.093-1.053 2.587-3.693 3.013-6.16 2.68-2.827-2.813-4.427-6.773-7.987-8.8-6.826 3.213-9.773 10.707-12.186 17.333-1.64 5.827-3.707 12.214-2.014 18.187 1.187 3.307 4.454 1.013 5.894-.733 5.52-6.467 8.28-14.76 10.28-22.88.546-2.707 3.453-4.307 6-3.054 3.72 2.014 6.12 6.787 4.666 10.907-2.32 6.547-4.52 13.347-4.426 20.387-.28 1.88 1.72 2.853 2.666 4.173 6.774-4.013 10.747-11.293 14.134-18.133 2.613-7.974 3.946-16.334 6.44-24.347 2.12-4.133 6.346.027 7.56 2.693-.534 9.76-3.427 19.227-4.12 28.974 1.893-5.48 3.693-11.014 6.533-16.094 2.733-4.773 5.68-10.933 11.84-11.653 5.667-.853 10.133 3.48 12.84 7.92 2.667 7.693 1.347 16.04-1.64 23.427-2.867 6.773-6.133 13.413-8.16 20.506 3.907.627 7.053-2.226 9.907-4.48 3.413-2.693 6.106-6.133 9.026-9.32 1.414 1.147 1.667 2.454.76 3.894-3.653 6.853-7.546 14.026-13.96 18.68-3.12 2.44-8.106 2.706-10.946-.294-3.934-3.426-4.427-9.12-3.974-14 1.12-10.533 4.587-20.613 6.454-31-3.667 1-7.014 3.067-9.227 6.227-6.6 8.8-11.133 19.08-14.12 29.627-4.28 4.453-10.827-1.174-10.293-6.28l.32-4.347c-2.667 3.307-6.134 7.907-11.027 6.067-7.947-2.28-10.253-11.56-10.253-18.84-2.174 2.866-3.107 6.613-6.08 8.866-2.907 3.054-8.2 2.28-10.6-1-4.28-5.253-3.92-12.413-3.494-18.773-3.653 5.24-6.36 11.747-12.386 14.76-3 1.64-5.894-1.067-7.547-3.347-3.933-9.84-2.427-20.933-.027-30.96a817.676 817.676 0 0 1-6.146-.893c-2.214-.867-4.2-2.173-6.147-3.48-3.893 9.133-10.12 17.147-18.04 23.12-2.373 2.12-5.813 3.48-6.84 6.747-4.333 10.613-9.16 21.226-16.2 30.346-3.533 4.974-9.44 7.8-15.56 6.707-2.68-1.613-5.6-3.253-7.027-6.187-2-3.333-1.306-7.4-1.12-11.08 2.134-4.933 5.147-9.68 9.747-12.653 5.987-4.587 13.32-6.867 19.627-10.853 1.8-4.374 3.08-8.96 4.933-13.307-4.16 4.28-11.027 6.84-16.48 3.387-4.853-3.067-5.56-9.174-5.2-14.387-5.213 5.36-9.533 11.493-14.493 17.067-7.587 7.2-21.894 1.346-21.92-9.28-2.694 2.36-4.48 5.666-7.64 7.506-3.667 2.654-9.507 3.52-12.734-.28-3.96-4.72-4.546-11.213-4.84-17.12-3.6 5.534-6.36 12.12-12.333 15.574-3.693 2.373-9.36 2.546-12.093-1.334-4.52-6.2-4.987-14.36-4.92-21.773-.48.307-1.427.92-1.907 1.227-3.013 3.786-7.547 6.013-12.333 6.44-3.214 5.506-6.854 11.2-12.614 14.333-5.266 3.08-12.84 2.96-17.08-1.827-5.133-5.36-5.493-13.333-5.12-20.32-3.853 4.907-7.893 10.76-14.4 12.147-4.346 6.267-10.56 12.933-18.88 12.413-5.48.027-9.44-4.733-11.32-9.426-2.053-4.4-2-9.32-2.866-14-4.174 9-7.734 19.773-16.84 24.946-5.467 2.76-10.107-2.88-10.8-7.84-.387-12.906 3.16-25.44 4.853-38.133-1.6 1.28-3.2 2.547-4.693 3.92-2.707 2.747-4.547 6.187-6.24 9.6-4.8 9.827-8.494 20.267-10.307 31.08-.453 2.88-2.853 5.12-5.613 5.853-2.934-.213-5.547-2.426-6.08-5.346-.84-5.054 1.453-9.987 1.52-15.014-3.92 7.587-6.627 17.04-14.534 21.547-5.373 2.893-10.653-2.587-10.653-7.867-.987-12.653 2.133-25.186 3.387-37.72-4.014 2.494-6.72 6.52-8.8 10.68-5.694 11.227-9.227 23.48-11.12 35.894-.56 3.613-4.947 6.693-8.347 4.453-3.027-1.893-3.067-5.667-2.787-8.813-2.453 5.533-6.213 12.68-13.413 11.813-6.427-.987-8.107-8.28-9.227-13.613-1.653 5.106-2.933 10.666-6.853 14.613-2.4 2.667-7.187 3.6-9.733.627-4-4-3.72-9.974-4.214-15.174-3.346 7.534-5.373 16.107-11.693 21.867-2.627 1.16-5.933.44-7.28-2.24-3.427-6.293-3.227-13.76-3.333-20.72.266-2.6.6-5.173.933-7.747-3.84 1.92-8.053 3.054-12.373 2.427-1.494 4.333-2.947 8.667-4.88 12.827l-1.947-.76c1.493-4 2.88-8.054 4.16-12.134-7.56-2.48-10.147-11.706-6.52-18.386 1.88-3.134 5.24-5.574 9.04-5.187 4.173 1.987 3.147 7.32 3 11.067 4.88-1.654 9.427-4.16 13.573-7.214 2.28-1.533 4.587-3.746 7.587-3.04 4.067 2.494 3.667 8.387 1.093 11.84-3.466 5.507-5.226 11.907-6.186 18.294-.867 5.36-1.507 11.146 1 16.2 4.746-3.12 7.16-8.56 9.44-13.56 2.04-5.04 4.453-10.04 5.12-15.507 1.28-9.08 3.52-18.227 8.293-26.16 2.547-3.667 5.907-7.253 10.413-8.333 4.92-.947 9.734 1.96 12.707 5.706 2.093 3.72.96 9.707-3.547 11.094-3.253.8-5.44-2.107-7.96-3.534-2.373-.333-4.04 2.094-5.346 3.734-5.027 8.013-7.16 17.493-8.2 26.773-.2 4.36-.894 9.373 2.2 12.947 6.546-4.84 7.906-13.574 10.253-20.88 2.307-6.374.04-15.774 7.827-18.774 3.413 1.107 6.453 4.24 5.573 8.107-1.36 8.387-3.973 17.093-1.56 25.547 5.707-.334 7.147-7.24 9.52-11.414 2.373-5.973 5.4-11.853 6.027-18.346l3-23.36a14.277 14.277 0 0 1 4.186-3.414c1.347 1.267 3.507 2.227 3.734 4.307.186 9.627-1.827 19.187-1.414 28.8 2.334-9.547 4.8-19.147 8.947-28.093 2.4-5.08 6.707-10.08 12.64-10.614 3.333-.533 6.693 1.32 8.507 4.08 2.88 4.027 2.44 9.294 2.16 13.974-1.574 11.733-6.627 22.693-8.174 34.44 8.507-5.24 12.96-14.934 17.507-23.467 1.787-8.893 2.733-17.96 4.453-26.867 1.16-3.386 5.44-3.96 7.787-1.426 1.693 10.36-1.733 20.88-1.84 31.32 2.88-9.8 5.787-19.68 10.627-28.707 3.226-5.12 8.626-9.8 15.066-9.16 6.414 1.333 9.147 8.413 8.507 14.347-.96 13.266-7.4 25.293-10.053 38.213 5.253-1.76 8.146-6.88 11.44-10.973 2.373-3.64 5.466-7.16 6.426-11.467 1.174-21.787 6.28-43.16 12.934-63.867Zm12.746-6.093c-4.666 10.867-5.346 22.813-7.84 34.253 3.547-4.826 5.827-10.426 8.294-15.84 2.773-6.96 5.533-14.826 2.653-22.2-1.387.934-2.533 2.187-3.107 3.787Zm98.92 3.16c-5.826 11.893-9.253 24.773-12.6 37.533 6.347-8.76 10.427-18.92 14.534-28.866 1.746-4.08 2.253-8.507 2.28-12.907-2.2.427-3.254 2.44-4.214 4.24Zm28.28 8.28c-4.546 10.24-7.746 21-10.68 31.787 4.347-5.614 7.414-12.094 10.547-18.44 2.96-7.36 7.787-14.707 6.613-22.987-3.466 2.12-4.906 6.12-6.48 9.64Zm-123.293 48.627c-1.72 5.946-1.96 13.16 2.88 17.76 3.92-8.587 7.907-19.227 3.533-28.334-3.68 2.32-5.186 6.627-6.413 10.574Zm48.587-6.2c-1.774 7.226-2.08 15.76 3 21.786 2.12-5.613 3.693-11.493 4.04-17.506.013-3.28-.347-6.867-2.84-9.28-1.654 1.4-3.814 2.666-4.2 5Zm-20.627 32.266c.027 3.12 2.693 5.96 5.92 5.64 5.773-.04 9.96-4.613 13.56-8.56-7.907-4.506-12.56-13.653-12.333-22.653-4.787 7.533-7.76 16.587-7.147 25.573Zm98.093 0c-.666 4.267-.24 9.8 4 12.107 3.174 1.28 7.587.587 9.187-2.773 2.413-4.987.907-10.72-.56-15.76-1.96-5.267-2.467-10.88-2.027-16.454-4.813 6.96-8.28 14.76-10.6 22.88Zm81.534-21.28c-.174.574-.52 1.707-.694 2.267 1.427 2.227 2.974 4.453 5.307 5.827.133-2.2.347-4.414.2-6.614-.853-1.973-3.067-1.866-4.813-1.48Zm-18.16 38.467c7.786-4.827 15.68-11.133 18.16-20.387-5.4-3.88-7.4-10.68-6.734-17.08-3.16 12.667-6.933 25.2-11.426 37.467ZM87.663 231.618c1.653 1.68 3.44 4.04 6.04 3.88.453-2.733.427-5.586-1.187-7.933-1.986.853-3.506 2.4-4.853 4.053Zm373.213 56.16c-1.786 3.04 2.68 5.334 4.96 3.494 5.68-4.667 8.147-11.92 11.6-18.187-6.253 3.813-13.533 7.613-16.56 14.693Z"/><path fill="#FEFEFE" d="M249.236 159.832c1.614-1.974 3.294-3.894 4.96-5.827 8.92 11.453 16.547 24.12 21 38-4.693-3.413-9.08-8.56-15.426-8.253-6.934-.187-12.827 4.226-17.094 9.28-2.6-2.134-5.506-3.84-8.76-4.734 3.827-10.106 8.72-19.866 15.32-28.466ZM49.503 187.965c8.893-3.453 20.413-3.493 27.427 3.813 8.546 8.334 8.853 21.96 4.613 32.494a37.901 37.901 0 0 1-5.293 9.066c-1.107 1.334-2.307 2.6-3.52 3.854-1.654 1.6-3.44 3.053-5.214 4.52 4.08-.12 8.334 1.053 11.08 4.266 5.067 5.294 5.04 13.214 4.227 20.027-2.76 13.587-13.2 26.253-27.253 28.787-4.96 1.386-10.094-.814-13.2-4.76-1.427-3.174-2.947-6.707-.934-10.04 2.88 2.96 4.147 8.186 8.84 8.786 5.987.4 11.294-3.586 14.947-7.946 5.173-6.507 8.72-15.454 6.173-23.72-1.906-6.107-8.866-9.8-15.026-8.52-2.614.493-5.227 1.133-7.92 1.04.533-2.587 2.533-4.067 4.866-4.894 9.88-4.386 16.467-14.16 19.107-24.386 1.173-5.547 1.387-11.96-2.24-16.694-3.627-4.826-10.133-6.253-15.853-6.32-13.454.68-26.934 6.8-35.347 17.52-4.32 5.507-7.28 12.347-7.28 19.44.373 5.72 2.92 11.747 8.027 14.76 3.253 2.027 7.44 1.214 10.666 3.32.587 2.814.134 5.68-1.32 8.174a16.383 16.383 0 0 1-3.88 2.946c-9.146-.333-16.6-8.52-17.746-17.32-1.814-10.6 2.12-21.213 7.24-30.333 7.613-13.213 20.746-22.56 34.813-27.88Z"/><path fill="#FEFEFE" d="M43.97 214.365c3.146-4.106 6.493-8.546 11.68-10.146l1.333 1.813c-6.12 7.813-8.667 17.613-9.24 27.386-2.24 18.72-4.867 37.601-11.333 55.401-2.894 6.626-6.2 13.68-12.52 17.706-3.587 2.32-9.08 3.4-12.2-.253-4.534-5.4-2.987-14.36 1.8-19.027-.214 4.293-2.054 11.36 3.546 13.014 2.987-.414 5.414-2.574 6.747-5.187 4.24-7.947 5.68-16.973 7.453-25.693.147-.92.454-2.76.6-3.68 3.347-17.214 4.054-35.414 12.134-51.334ZM58.17 233.152c1-6.64 3.466-13 7.64-18.294 1.2 6.854-2.947 13.627-7.64 18.294ZM243.756 255.112c2.094 5.826 6.56 11.6 13.107 12.373 4.92 1.053 9.4-1.507 13.453-3.88-4.506 7.453-9.813 14.4-15.733 20.787-5.573-5.734-9.933-12.507-13.907-19.414 1.854-2.986 2.747-6.386 3.08-9.866Z"/><path fill="#FEFEFE" d="M459.17 263.805c1.28-1.333 2.306-2.893 3.426-4.347.96 1.054 1.92 2.12 2.894 3.187-9.427 4.787-17.934 12.893-19.587 23.773-2.293 8.227-.427 17.267 5.293 23.654-15.893 21.293-37.053 38.533-61.173 49.72-8.867 3.88-18.053 6.973-27.427 9.36-23.36 5.253-47.933 5.653-71.266.08-32.187-7.347-61.627-25.627-82.88-50.84-10.347-12.214-18.667-26.107-24.92-40.827 2.506-2.067 4.96-4.28 6.626-7.107 1.174-2.666 1.614-5.56 1.934-8.413 2.266 4.8 5.746 9.733 11.293 10.88 5.973 1.6 11.893-1.307 16.307-5.16 5.066 4.187 12.48 4.533 17.813.613 9.613 17.254 24.333 31.587 41.813 40.787 19.667 10.333 42.8 13.773 64.667 9.973 21.8-3.586 42.12-14.853 57.107-31.04 4.88-5.386 9.253-11.24 12.933-17.52l1.24-1.56c4.133-1.386 8.587-2.08 12.307-4.56 1.84 1.414 3.68 2.867 5.706 4.027 8.494 4.24 19.64 2.747 25.894-4.68Zm-241.16 44.8c-3.027 5.4 4.92 7.92 6.906 12.08 6.747-7 14.227-13.28 20.774-20.48-1.36-1.36-3.36-3.093-4.76-.8-5.267 5.173-10.614 10.267-15.854 15.467a270.222 270.222 0 0 0-3.773-4.027c5.747-5.827 11.84-11.307 17.56-17.147-.68-.72-2.067-2.173-2.747-2.893-6 5.973-12.373 11.587-18.106 17.8Zm189.786-9.68c7.04 6.533 14.28 12.867 21.254 19.48.933-1.013 1.853-2.027 2.8-3.027a3061.239 3061.239 0 0 1-18.16-16.613c1.213-1.4 2.44-2.787 3.666-4.187 6.014 5.614 12.16 11.094 18.134 16.76.92-1 1.84-1.986 2.786-2.973-6.693-5.72-12.666-12.373-19.813-17.507-5.253-.733-6.747 5.814-10.667 8.067Zm-8.12 11.16c2.947 4.547 6.987 8.293 10.307 12.573 2 2.107 3.6 5.227 6.827 5.507 2.946-.653 4.88-3.24 7.226-4.96-.906-1.16-1.8-2.333-2.68-3.493-1.613 1.413-3.213 2.84-4.826 4.253a209.545 209.545 0 0 0-5.24-6.067c1.56-1.36 3.133-2.693 4.733-4.013-.92-1.173-1.84-2.347-2.747-3.507-1.546 1.414-3.066 2.84-4.613 4.24a472.367 472.367 0 0 0-5.293-6.013 473.913 473.913 0 0 1 4.893-4.253c-1-1.08-1.987-2.147-2.96-3.214-2.307 2.52-7.413 4.747-5.627 8.947Zm-169.04 16.187c.854.64 2.56 1.946 3.414 2.6 4.88-6.667 9.68-13.387 14.6-20.027 1.426 1.147 2.853 2.28 4.293 3.427-5.04 6.4-9.507 13.226-14.507 19.653 1.147.853 2.294 1.693 3.454 2.56 4.773-6.733 9.586-13.453 14.533-20.067 1.427 1.12 2.853 2.254 4.293 3.374-4.933 6.506-9.573 13.226-14.533 19.706 1.187.827 2.387 1.667 3.587 2.494 4.52-6.88 9.8-13.24 14.373-20.08 2.76-3.907-2.8-8.534-6.627-7.627-1.426-4.707-6.76-6.027-10.013-9.173a665.387 665.387 0 0 1-16.867 23.16Zm153.52-9.307c5.227 8.107 10.587 16.12 15.907 24.173 2.987-2.333 6.627-3.906 9.08-6.866.8-4.734-3.773-8.107-5.72-12.04-2.92-3.614-4.4-9.054-8.973-10.92-3.934.6-6.894 3.773-10.294 5.653Zm-9.853 5.52c-2.013 2.533.12 5.453 1.213 7.853 2.667 5.027 4.854 10.294 7.587 15.294 3.027 4.013 7.56.04 10.853-1.414-.52-.92-1.546-2.746-2.053-3.666a93.092 93.092 0 0 0-6.027 3.493c.054-.347.174-1.067.227-1.427-1.107-2.12-2.213-4.226-3.373-6.306 1.973-1.054 3.946-2.08 5.92-3.12-.534-.88-1.614-2.64-2.147-3.534-1.827.934-3.64 1.867-5.453 2.787a476.733 476.733 0 0 0-3.587-7.32c1.907-.973 3.813-1.947 5.733-2.907a350.257 350.257 0 0 1-1.96-3.746c-2.306 1.32-5 2.133-6.933 4.013Zm-106.44-1.453c-3.293 6.106-6.347 12.36-9.453 18.56-2.32 5.093 4.08 6.933 7.533 8.48.56-1.267 1.133-2.52 1.707-3.774-1.867-.88-3.72-1.746-5.587-2.6 1.093-2.533 2.333-5 3.64-7.426 1.8 1 3.6 1.973 5.413 2.946l2.04-3.6a599.091 599.091 0 0 0-5.786-3.066 216.762 216.762 0 0 0 3.693-7.214c1.88.947 3.733 1.947 5.573 2.987.654-1.307 1.32-2.613 1.974-3.907-3.267-1.346-7.814-5.4-10.747-1.386Zm17.853 4.106c-2.826-.933-5.333 1.32-5.986 3.894-2.574 7.266-5.04 14.586-7.747 21.813.96.373 2.867 1.133 3.827 1.507a872.12 872.12 0 0 0 4.12-11.68c1.626.533 3.253 1.106 4.866 1.706-1.466 3.814-2.826 7.667-4.173 11.52 1.253.494 2.52 1 3.787 1.507 2.68-7.56 5.373-15.107 7.933-22.707.933-2.293.053-5-2.373-5.933 1.04-1.28 2.893-2.333 2.573-4.253.107-2.174-2.627-4.627-4.667-3.374-2.586.734-3.226 3.8-2.16 6Zm79.774.814c2.56 7.773 4.653 15.68 7.106 23.493-1.853.52-3.693 1.053-5.546 1.587-2.147-7.934-4.6-15.787-6.76-23.707-1.307.427-2.627.867-3.92 1.333 2.64 7.694 4.533 15.627 7.026 23.36a659.785 659.785 0 0 0-5.36 1.787c-2.24-7.947-4.72-15.827-6.88-23.787-1.333.427-2.666.854-3.986 1.294 2.666 8.013 4.626 16.253 7.373 24.226 2.68 4.187 9.2 1.534 11.52-1.866 3.787 2.346 12.107-.547 10.133-6.04-2.186-7.694-4.6-15.334-6.773-23.027-.987.333-2.96 1.013-3.933 1.347Zm-33.747 9.36c.36 2.933.453 5.893.96 8.813 3.12 2.533 6.813 4.267 9.933 6.827.067 1.306.187 3.92.24 5.213-1.253.147-3.76.427-5.013.573-.093-.933-.293-2.8-.387-3.733-1.346.187-2.68.373-4.013.573.24 2.627.467 6.24 3.613 6.987 2.56-.093 5.32.093 7.747-.88 3.627-2.867 1.067-7.92 1.147-11.747-3.227-1.96-6.414-3.973-9.494-6.16-.666-2.32-1.693-4.586-1.72-7.04 2.334 1.64 5.96 2.267 7.72-.546-1.066 1.52-1.773 3.213-1.293 5.093.973-.08 2.893-.24 3.853-.307-.186-2.506-.12-5.733-2.813-6.946-3.64-.267-8.627-.707-10.48 3.28Zm-26.427 8.04-.48 3.826c3.974-.146 8.187 1.827 11.96.827.067-.813.214-2.453.294-3.28-3.934-.427-7.867-.8-11.774-1.373Z"/><path fill="#FEFEFE" d="M382.076 265.672c6.96 1.36 13.907-1.24 19.054-5.894 2.266 3.707 5.813 6.187 9.52 8.307-3.787 6.053-7.987 11.853-12.814 17.133-6.12-5.773-10.866-12.76-15.76-19.546ZM139.97 342.472c16.28-14.974 32.72-29.774 49.106-44.627 4.334 7.293 9.04 14.387 14.467 20.92.32.387.96 1.173 1.293 1.56-19.586 15.68-39.96 30.387-58.92 46.827-1.946 1.56-3.84 3.253-6.08 4.386-7.053.88-11.533-5.693-16.56-9.44 3.894 6.854 10.6 13.067 10.134 21.56-2.56 8.387-10.974 16.627-20.387 14.28-9.68-2.533-17.907-10.666-20.293-20.4-.187-4.466 1.32-9.106 4.973-11.893 8.533-6.68 20.333-6.267 29.187-12.347 4.693-3.173 8.853-7.08 13.08-10.826ZM475.796 313.045c.52-.307 1.56-.92 2.08-1.213 11.68 10.64 23.414 21.253 35.054 31.946 6.146 5.294 12.2 11.36 20.253 13.6 7.24 2.507 15.373 3.68 21.307 8.934 4.693 4.16 5.306 11.52 2.226 16.8-4 7.373-11.066 13.506-19.466 15.04-6.067 1.106-11.84-2.494-15.32-7.227-2.094-2.92-4.587-6.267-3.774-10.08 1.067-7.307 6.574-12.627 10.094-18.773-5.187 3.68-9.614 10.546-16.827 9.44-6.56-4.36-12.147-9.987-18.307-14.854-15.093-12.026-30.52-23.626-45.586-35.693 2.386-2.747 4.64-5.6 6.813-8.507l1.293.707c6.04 3.64 14.174 3.627 20.16-.12Z"/><path fill="#000214" d="M353.263 94.192c1.267-3.973 1.173-9.32 5.08-11.693 3.56.266 9.173.653 9.893 5.066-1.133 5.787-3.2 11.334-4.653 17.04-.707 2.507-1.093 5.667-3.867 6.76-3.146-.066-6.653-.533-9.106-2.706-1.56-2.52-.067-5.28.586-7.814l3.894 1.654c-.68 2-1.347 4.133-3.64 4.746 2.373-1.44 4.866-.373 7.253.387.747-2.653 1.507-5.293 2.267-7.947-2.88-1.093-7.827-1.333-7.707-5.493Zm3.893.2a46.85 46.85 0 0 0 5.267.933c.973-3.067.453-7.68 4.28-8.813-2.333 1.253-5.667 1.333-7.28-1.107-.36 3.08-1.36 6.04-2.267 8.987Z"/><path fill="#000014" d="M279.356 86.338c2.24-1.093 4.6-2.706 7.227-2.053 2.16.667 2.8 3.027 3.493 4.907 2.307 7 4.627 14 6.987 20.987-1.253.36-2.52.733-3.773 1.106-2.494-7.8-5.187-15.546-7.774-23.306a653.713 653.713 0 0 0-5.426 1.893c2.8 7.666 5.226 15.467 8.066 23.12-1.28.507-2.56 1.027-3.84 1.533-3.133-9.106-6.093-18.267-9.426-27.306 1.493-.307 2.973-.6 4.466-.88Z"/><path fill="#04101A" d="M264.223 92.379a867.31 867.31 0 0 1 3.587-2.08c4.146 8.706 8.413 17.359 12.52 26.079-.88.454-2.64 1.36-3.534 1.814-4.333-8.534-8.173-17.307-12.573-25.813Z"/><path fill="#182028" d="M380.076 111.485c4.6-5.813 11.694-8.693 17.494-13.093 1.16.787 2.333 1.56 3.52 2.347-3.04 4.253-5.574 8.84-8.547 13.133.307.493.92 1.48 1.227 1.987-1.027 1.493-2.28 2.84-4.227 2.906a752.755 752.755 0 0 0-3.747 6.4l-3.68-2.28c1.52-2.306 3.014-4.64 4.427-7.04-2.267-1.28-4.493-2.666-6.467-4.36Zm6.294-1.04c.733.654 1.453 1.307 2.186 1.96a103.26 103.26 0 0 0 3.6-5.653c-1.96 1.187-3.866 2.453-5.786 3.693ZM307.023 210.792c1.227-3.947 2.733-8.253 6.413-10.573 4.374 9.106.387 19.746-3.533 28.333-4.84-4.6-4.6-11.814-2.88-17.76ZM72.73 237.192c1.213-1.253 2.413-2.52 3.52-3.853l3.84-.6c.373 3.04.493 6.16 1.506 9.08 1.507 2.866 4.107 4.906 6.36 7.146-.64 2.787-1.293 5.547-1.946 8.32-2.187-6.933-5.734-13.693-12.44-17.2-.214-.733-.627-2.173-.84-2.893Z"/><path fill="#000010" d="m315.356 140.045 1.68.92c4.227 5.2 4.374 12.347 4 18.707-.88 8.32-3.08 16.6-6.64 24.173l-.76 1.387c-.747-3.854 1.307-7.36 2.36-10.933 3.774-11 5.014-23.627-.64-34.254ZM311.25 145.379l1.52-.987c1.68 11.253-1.467 22.293-5.667 32.627l-1.72-.48c3.76-9.494 7.013-19.614 5.733-29.947l.134-1.213ZM381.996 168.432c1.414-3.44 2.307-7.32 5.2-9.894l-.253 2.574c-2.853 6.973-5.427 14.08-7.227 21.413-.346-.413-1.04-1.227-1.386-1.627.453-4.346 2.24-8.386 3.666-12.466ZM178.33 168.765c.626-2.32 2.413-3.947 4.053-5.587-4.64 11.667-7 24.014-9.533 36.254-.627-2.067-1.307-4.187-.787-6.36 1.373-8.254 3.627-16.374 6.267-24.307ZM318.93 192.165c6.546 4.053 5.16 12.867 4.626 19.373-.04 4.04-3.8 8.361-.866 11.987-2.014 1.934-4.254 3.6-6.52 5.214 4.146-10.6 8.866-23.08 3.68-34.147l-.92-2.427ZM236.636 194.832c4.547 3 2.6 8.92 3.214 13.453 1.92-2.8 2.12-8.293 6.2-8.56-4.84 9.027-7.747 18.907-10.627 28.707.107-10.44 3.533-20.96 1.84-31.32l-.627-2.28ZM175.036 205.458c.56-.64 1.654-1.906 2.2-2.546l-.306 2.48-3 23.36c-.627 6.493-3.654 12.373-6.027 18.346-1.64-4.226 1.96-8.32 2.8-12.453 2.173-9.6 2.32-19.56 4.333-29.187ZM250.01 211.645c1.493-1.373 3.093-2.64 4.693-3.92-1.693 12.693-5.24 25.227-4.853 38.134-.134.666-.387 1.986-.52 2.653-2.04-2.027-1.56-5.027-1.614-7.6.44-9.054 2.974-17.84 4.014-26.814-.427-.613-1.294-1.84-1.72-2.453ZM521.823 215.019l1.56-1.28c.453 3.266.653 6.56.733 9.866 5.667.72 11.254-1.586 16.84-1.026l1.494 1.426-2.04.24c-6.2.867-12.454 1.667-18.707.787.36-3.333.467-6.68.12-10.013ZM35.183 233.725c1.92-6.747 2.68-14.893 8.787-19.36-8.08 15.92-8.787 34.12-12.134 51.334l-.546 1.16c-.814-2.08-1.534-4.187-2.214-6.307a11.45 11.45 0 0 0 1.32-8.173c4.04-5.334 2.867-12.534 4.787-18.654ZM133.65 217.125c.6-.24 1.773-.747 2.373-1-4.773 7.933-7.013 17.08-8.293 26.16-.667 5.467-3.08 10.467-5.12 15.507-1.894-2.827.88-5.934 1.4-8.814 3-10.626 3.093-22.493 9.64-31.853ZM233.463 252.325c1.813-10.813 5.507-21.253 10.307-31.08l.533 1.88c-3.813 10.227-7.973 20.44-9.387 31.373-.36-.533-1.093-1.626-1.453-2.173ZM482.316 223.472l1.947-.894c-2.2 6.907-7.56 12.894-7.387 20.427 1.64.387 3.134 1.08 4.494 2.053-2.6.88-4.974-.333-7.24-1.44 1.12-7.28 4.52-13.866 8.186-20.146ZM76.25 233.339a37.907 37.907 0 0 0 5.293-9.067l2.52 5.12c-3.627 6.68-1.04 15.907 6.52 18.387a240.862 240.862 0 0 1-4.16 12.133l1.947.76c-1.067.227-2.134.453-3.187.693a288.665 288.665 0 0 1-.693 6.747c-.414-.52-1.254-1.573-1.667-2.107.813-6.813.84-14.733-4.227-20.026-2.746-3.214-7-4.387-11.08-4.267 1.774-1.467 3.56-2.92 5.214-4.52.213.72.626 2.16.84 2.893 6.706 3.507 10.253 10.267 12.44 17.2.653-2.773 1.306-5.533 1.946-8.32-2.253-2.24-4.853-4.28-6.36-7.146-1.013-2.92-1.133-6.04-1.506-9.08l-3.84.6ZM118.356 236.858l1.614-.68c-3.454 8.347-6.08 17.04-6.307 26.147-.547-2.387-1.12-4.76-1.493-7.173.96-6.387 2.72-12.787 6.186-18.294ZM600.303 238.072l1.747.613c-2.494 8.013-3.827 16.374-6.44 24.347l-1.52 1.347c1.32-8.921 4.12-17.547 6.213-26.307ZM523.29 239.045c2.04.307 4.093.6 6.146.893-2.4 10.027-3.906 21.121.027 30.961l-1.507.719c-4.773-9.52-2.36-20.199-1.36-30.24-1.173-.346-3.533-1.066-4.72-1.426l1.414-.907ZM609.61 241.379l.133-2.054c4.947 4.027-2.147 10.534 2.28 14.934-2.84 5.08-4.64 10.613-6.533 16.093.693-9.747 3.586-19.213 4.12-28.973ZM636.316 248.299c3.294 1.546 3.507 5.666 3.48 8.813-.106 6.653.08 14.2-4.693 19.467l-.04-2.627c2.987-7.387 4.307-15.733 1.64-23.427l-.387-2.226ZM102.743 249.672c.413.666 1.24 2.013 1.653 2.68l.294.813c.106 6.96-.094 14.427 3.333 20.72 1.347 2.68 4.653 3.4 7.28 2.24l.64 1.92c-3.347.587-7.227.48-9.133-2.827-4.734-7.493-4.667-17-4.067-25.546ZM446.303 268.792c4.493-1.053 8.547-3.427 12.867-4.987-6.254 7.427-17.4 8.92-25.894 4.68 4.347-.626 8.68.494 13.027.307ZM29.81 266.952l1.426 2.427c-1.773 8.72-3.213 17.746-7.453 25.693-.92-2.213.413-4.413.947-6.52 2.453-7 3.666-14.347 5.08-21.6ZM450.81 283.898l1.64-1.119-.094 2.44c-.186 3.68-.88 7.746 1.12 11.08 1.427 2.933 4.347 4.573 7.027 6.186l1.453 1.467c-9.36-.84-14.146-11.787-11.146-20.054ZM455.063 311.578c3.333.707 6.6 1.974 10.027 2.227 3.96-.08 7.706-1.573 11.533-2.4l-.827 1.64c-5.986 3.747-14.12 3.76-20.16.12l-.573-1.587ZM331.743 335.312c1.853-3.987 6.84-3.547 10.48-3.28 2.693 1.213 2.627 4.44 2.813 6.946-.96.067-2.88.227-3.853.307-.48-1.88.227-3.573 1.293-5.093-1.76 2.813-5.386 2.187-7.72.547.027 2.453 1.054 4.72 1.72 7.04 3.08 2.186 6.267 4.199 9.494 6.159-.08 3.827 2.48 8.88-1.147 11.747-2.427.973-5.187.787-7.747.88-3.146-.747-3.373-4.36-3.613-6.986a372.4 372.4 0 0 1 4.013-.574c.094.933.294 2.8.387 3.734 1.253-.147 3.76-.427 5.013-.574a680.416 680.416 0 0 0-.24-5.213c-3.12-2.56-6.813-4.293-9.933-6.827-.507-2.92-.6-5.88-.96-8.813ZM362.596 369.152c9.374-2.387 18.56-5.48 27.427-9.36-.24.573-.733 1.747-.973 2.333-5.854 3.107-12.307 4.92-18.587 6.96-2.56.96-5.28.867-7.867.067Z"/><path fill="#141A24" d="M303.116 150.725c.574-1.6 1.72-2.853 3.107-3.787 2.88 7.374.12 15.24-2.653 22.2-2.467 5.414-4.747 11.014-8.294 15.84 2.494-11.44 3.174-23.386 7.84-34.253ZM402.036 153.885c.96-1.8 2.014-3.813 4.214-4.24-.027 4.4-.534 8.827-2.28 12.907-4.107 9.946-8.187 20.106-14.534 28.866 3.347-12.76 6.774-25.64 12.6-37.533Z"/><path fill="#121824" d="M430.316 162.165c1.574-3.52 3.014-7.52 6.48-9.64 1.174 8.28-3.653 15.627-6.613 22.987-3.133 6.346-6.2 12.826-10.547 18.44 2.934-10.787 6.134-21.547 10.68-31.787Z"/><path fill="#000013" d="M467.73 156.405c6.306 5.36 6.56 14.333 9.96 21.413.52.294 1.56.867 2.08 1.16l.6.32c0 .907-.014 1.8-.054 2.707-.813 4.707-.026 9.44.827 14.08a109.24 109.24 0 0 0-2.027-.56c-2.093-13.467-5.973-26.627-11.386-39.12Z" opacity=".97"/><path fill="#FCFCFC" d="M149.676 185.565c2.72-2.987 7.307-.226 7.68 3.254 1.12 3.946-2.306 9.426-6.786 7.946-3.694-2.453-4.014-8.173-.894-11.2ZM137.676 187.872c7.214-3.667 10.014 9.307 3.467 11.68-6.52 1.813-8.093-8.667-3.467-11.68ZM287.996 321.325c1.8-1.213 3.92 1.734 1.854 2.827-1.8 1.36-3.827-1.773-1.854-2.827Z"/><path fill="#181F29" d="M18.983 214.859c8.413-10.72 21.893-16.84 35.347-17.52 5.72.066 12.226 1.493 15.853 6.32 3.626 4.733 3.413 11.146 2.24 16.693-2.64 10.226-9.227 20-19.107 24.387-1.413-.28-2.827-.547-4.227-.814-.093-3.546-.506-7.067-1.346-10.507.573-9.773 3.12-19.573 9.24-27.386l-1.333-1.813c-5.187 1.6-8.534 6.04-11.68 10.146-6.107 4.467-6.867 12.613-8.787 19.36-1.92 6.12-.747 13.32-4.787 18.654-3.227-2.107-7.413-1.294-10.666-3.321-5.107-3.013-7.654-9.039-8.027-14.759 0-7.094 2.96-13.934 7.28-19.44Zm39.187 18.293c4.693-4.667 8.84-11.44 7.64-18.293-4.174 5.293-6.64 11.653-7.64 18.293Zm-34.6 10.84c1.8.067 3.6.12 5.413.187 1.373-9.227 3.466-18.36 6.653-27.134-8.32 5.627-17.707 16.494-12.067 26.947ZM334.983 236.859c-.613-8.987 2.36-18.041 7.147-25.574-.227 9 4.426 18.147 12.333 22.653-3.6 3.947-7.787 8.52-13.56 8.56-3.227.32-5.893-2.519-5.92-5.639ZM47.716 251.085c6.907.294 15.854-3 20.64 3.827 5.614 8.387-1.026 17.573-3.133 25.92-3.653 4.36-8.96 8.347-14.947 7.947-4.693-.6-5.96-5.827-8.84-8.787 2.907-9.453 4.24-19.267 6.28-28.907Zm6.8 11.534c-1.373 5.293-2.053 10.76-3.613 16.013.48.893 1.453 2.653 1.947 3.547 6.28-3.054 11.306-8.787 12.586-15.76-.2-5.76-7.04-5.16-10.92-3.8Z"/><path fill="#F8FCFC" d="M358.716 201.792c-.48 6.533.56 13.186-1.053 19.6 1.147-6.494-.04-13.107 1.053-19.6ZM394.343 225.952c-.72-1.867 0-6.174 2.413-6.107.827 2-.16 5.667-2.413 6.107ZM389.996 318.219a421.91 421.91 0 0 1 4.067-2.707c3.76 5.627 7.44 11.293 11.2 16.92-1.36.986-2.693 1.986-4.027 3-3.693-5.787-7.626-11.387-11.24-17.213Z"/><path fill="#181F28" d="M433.076 236.858c2.32-8.12 5.787-15.92 10.6-22.88-.44 5.574.067 11.187 2.027 16.454 1.467 5.04 2.973 10.773.56 15.76-1.6 3.36-6.013 4.053-9.187 2.773-4.24-2.307-4.666-7.84-4-12.107Z"/><path fill="#010413" d="M384.97 228.859c-.04-3.8-.854-7.907 1.173-11.374.507 8.907-.067 17.827.12 26.747l-.973-.907c-.56-4.8.013-9.653-.32-14.466Z"/><path fill="#1C242C" d="M87.663 231.618c1.347-1.653 2.867-3.2 4.853-4.053 1.614 2.347 1.64 5.2 1.187 7.933-2.6.16-4.387-2.2-6.04-3.88Z"/><path fill="#FDFDFD" d="M54.516 262.618c3.88-1.36 10.72-1.96 10.92 3.8-1.28 6.974-6.306 12.707-12.586 15.76-.494-.893-1.467-2.653-1.947-3.546 1.56-5.254 2.24-10.72 3.613-16.014Zm3.347 2.987c-.773 3.293-1.493 6.613-2 9.96 3.04-2.493 4.56-6.187 6.067-9.707-1.36-.093-2.72-.186-4.067-.253Z"/><path fill="#171F28" d="M179.663 278.859c2.987-3.374 6.373-6.467 10.493-8.401-1.666 2.827-4.12 5.04-6.626 7.107 6.253 14.72 14.573 28.613 24.92 40.827-1.64.12-3.28.24-4.907.373-5.427-6.533-10.133-13.626-14.467-20.92-16.386 14.854-32.826 29.653-49.106 44.627-4.227 3.746-8.387 7.653-13.08 10.826-8.854 6.08-20.654 5.667-29.187 12.347-3.653 2.787-5.16 7.427-4.973 11.894-.947 1.52-1.894 3.053-2.854 4.586-2.28-6.453-.84-14.16 4.454-18.72 9.226-8.413 23.293-7.16 32.786-15.133 6.334-4.76 11.867-10.453 17.84-15.653 13.92-12.827 28.094-25.387 41.987-38.254-2.893-4.933-5.307-10.133-7.28-15.506Z"/><path fill="#1A202C" d="M460.876 287.778c3.027-7.08 10.307-10.88 16.56-14.693-3.453 6.267-5.92 13.52-11.6 18.187-2.28 1.84-6.746-.454-4.96-3.494Z"/><path fill="#08101C" d="M218.01 308.605c5.733-6.213 12.106-11.826 18.106-17.8.68.72 2.067 2.174 2.747 2.894-5.72 5.84-11.813 11.32-17.56 17.146 1.267 1.32 2.52 2.667 3.773 4.027 5.24-5.2 10.587-10.293 15.854-15.467 1.4-2.293 3.4-.56 4.76.8-6.547 7.2-14.027 13.48-20.774 20.48-1.986-4.16-9.933-6.68-6.906-12.08Z"/><path fill="#141C26" d="M399.676 310.085c-1.786-4.2 3.32-6.427 5.627-8.947.973 1.067 1.96 2.134 2.96 3.214-1.64 1.4-3.267 2.826-4.893 4.253a472.367 472.367 0 0 1 5.293 6.013c1.547-1.4 3.067-2.826 4.613-4.24.907 1.16 1.827 2.334 2.747 3.507-1.6 1.32-3.173 2.653-4.733 4.013 1.773 1.987 3.533 4 5.24 6.067 1.613-1.413 3.213-2.84 4.826-4.253.88 1.16 1.774 2.333 2.68 3.493-2.346 1.72-4.28 4.307-7.226 4.96-3.227-.28-4.827-3.4-6.827-5.507-3.32-4.28-7.36-8.026-10.307-12.573Z"/><path fill="#141C28" d="M230.636 326.272a665.387 665.387 0 0 0 16.867-23.16c3.253 3.146 8.587 4.466 10.013 9.173 3.827-.907 9.387 3.72 6.627 7.627-4.573 6.84-9.853 13.2-14.373 20.08-1.2-.827-2.4-1.667-3.587-2.494 4.96-6.48 9.6-13.2 14.533-19.706-1.44-1.12-2.866-2.254-4.293-3.374-4.947 6.614-9.76 13.334-14.533 20.067-1.16-.867-2.307-1.707-3.454-2.56 5-6.427 9.467-13.253 14.507-19.653-1.44-1.147-2.867-2.28-4.293-3.427-4.92 6.64-9.72 13.36-14.6 20.027-.854-.654-2.56-1.96-3.414-2.6Z"/><path fill="#181E28" d="M384.156 316.965c3.4-1.88 6.36-5.053 10.294-5.653 4.573 1.866 6.053 7.306 8.973 10.92 1.947 3.933 6.52 7.306 5.72 12.04-2.453 2.96-6.093 4.533-9.08 6.866-5.32-8.053-10.68-16.066-15.907-24.173Zm5.84 1.253c3.614 5.827 7.547 11.427 11.24 17.214a221.283 221.283 0 0 1 4.027-3c-3.76-5.627-7.44-11.294-11.2-16.92-1.36.893-2.72 1.8-4.067 2.706Z"/><path fill="#040C18" d="M374.303 322.485c1.933-1.88 4.627-2.693 6.933-4.013.64 1.24 1.294 2.493 1.96 3.746-1.92.96-3.826 1.934-5.733 2.907a476.733 476.733 0 0 1 3.587 7.32c1.813-.92 3.626-1.853 5.453-2.787.533.894 1.613 2.654 2.147 3.534-1.974 1.04-3.947 2.066-5.92 3.12 1.16 2.08 2.266 4.186 3.373 6.306-.053.36-.173 1.08-.227 1.427 1.96-1.24 3.974-2.4 6.027-3.493.507.92 1.533 2.746 2.053 3.666-3.293 1.454-7.826 5.427-10.853 1.414-2.733-5-4.92-10.267-7.587-15.294-1.093-2.4-3.226-5.32-1.213-7.853Z"/><path fill="#101824" d="M267.863 321.032c2.933-4.014 7.48.04 10.747 1.386-.654 1.294-1.32 2.6-1.974 3.907-1.84-1.04-3.693-2.04-5.573-2.987a216.762 216.762 0 0 1-3.693 7.214 599.091 599.091 0 0 1 5.786 3.066l-2.04 3.6a422.992 422.992 0 0 1-5.413-2.946c-1.307 2.426-2.547 4.893-3.64 7.426 1.867.854 3.72 1.72 5.587 2.6a315.736 315.736 0 0 0-1.707 3.774c-3.453-1.547-9.853-3.387-7.533-8.48 3.106-6.2 6.16-12.454 9.453-18.56Z"/><path fill="#06101C" d="M285.716 325.138c-1.066-2.2-.426-5.266 2.16-6 2.04-1.253 4.774 1.2 4.667 3.374.32 1.92-1.533 2.973-2.573 4.253 2.426.933 3.306 3.64 2.373 5.933-2.56 7.6-5.253 15.147-7.933 22.707a802.247 802.247 0 0 0-3.787-1.507c1.347-3.853 2.707-7.706 4.173-11.52-1.613-.6-3.24-1.173-4.866-1.706a872.12 872.12 0 0 1-4.12 11.68c-.96-.374-2.867-1.134-3.827-1.507 2.707-7.227 5.173-14.547 7.747-21.813.653-2.574 3.16-4.827 5.986-3.894Zm2.28-3.813c-1.973 1.053.054 4.187 1.854 2.827 2.066-1.094-.054-4.04-1.854-2.827Zm-3.866 7.707c-.974 2.64-1.934 5.28-2.854 7.933 1.64.413 3.28.813 4.92 1.227.84-2.44 1.734-4.84 2.68-7.227-1.586-.653-3.173-1.293-4.746-1.933Z"/></svg>