<svg width="1366" height="315" viewBox="0 0 1366 315" fill="none" xmlns="http://www.w3.org/2000/svg">
<g clip-path="url(#clip0_1_309)">
<path d="M27.2533 2.53467C28.8666 2.68133 30.52 2.748 32.0266 3.37467C44.8533 7.868 57.6133 12.548 70.4533 17.0013C141.933 42.3347 213.4 67.7347 284.627 93.7613C293.093 96.4547 301.467 102.081 304.347 110.868C306.96 120.415 302.48 129.681 298.613 138.148C287.96 160.561 276.307 182.481 265.2 204.655C269.547 199.188 272.467 192.401 278.2 188.148C291.733 188.255 305.333 187.468 318.84 188.041C324.787 192.028 332.067 189.641 338.6 191.521C342.12 192.495 346.48 193.321 348.173 197.001C349.48 199.495 347.547 201.975 346.893 204.348C343.893 201.161 339.08 202.268 336.267 205.108C329.187 211.321 320.667 215.935 311.387 217.801C293.267 221.201 275.2 224.921 257.12 228.561C242.133 231.121 228.04 237.081 213.52 241.388C205.587 243.081 201.533 250.961 195.467 255.628C199.667 261.895 204.733 267.641 208.093 274.428C210.96 274.921 213.88 274.828 216.653 273.895C223.973 271.548 231.893 271.361 238.84 267.841C246.56 267.908 253.24 274.975 255.133 282.148C254.667 285.401 253.227 288.401 252.147 291.481C248.96 280.935 234.227 276.175 225.427 282.695C218.067 287.095 210.627 291.375 203.533 296.201C200.36 298.348 197.147 300.895 195.707 304.588C195.16 307.388 194.96 310.241 194.573 313.068C192.56 309.548 191.16 305.735 189.88 301.908C193.48 297.401 196.867 292.721 200.573 288.308C199.427 286.415 198.36 284.361 196.44 283.148C185.933 276.015 175.253 269.148 164.813 261.935C166.507 257.788 166.707 252.948 169.48 249.348C166.04 251.121 163.8 255.108 161.44 258.108C162.187 263.681 165.307 269.655 163.707 275.148C156.573 279.015 148.827 284.428 140.28 283.148C141.08 277.535 141.973 271.921 142.213 266.241C141.44 271.228 140.093 276.215 137.28 280.481C134.533 285.175 128.973 286.815 124.333 288.975C116.627 292.415 107.987 292.708 99.7466 291.575C107.867 282.441 117.56 274.748 125.427 265.388C126.04 266.135 126.667 266.895 127.293 267.641C124.987 268.361 123.613 270.521 121.933 272.108C117.213 277.361 111.92 282.068 107.387 287.481C112.493 287.401 115.453 282.828 118.573 279.481C124.987 271.388 132 263.828 138.573 255.881C134.973 258.601 131.133 261.548 129.24 265.748C128.52 264.548 127.84 263.335 127.173 262.108C123.48 265.175 118.92 266.935 114.8 269.321C102.307 275.628 89.9333 282.388 76.6133 286.801C70.1733 289.308 63.2933 286.561 57.4666 283.681C86.6 264.481 115.2 244.495 144.2 225.108C151.627 220.281 158.36 212.668 167.92 212.841C171.48 212.601 174.213 215.055 175.867 217.948C175.547 214.815 173.72 211.908 170.613 210.948C162.867 208.908 155.6 213.495 147.933 213.788C161.947 204.108 176.747 195.615 191.013 186.335C193.88 184.388 196.947 182.775 199.96 181.055C185.08 187.561 170.48 194.788 156.213 202.548C147.947 206.535 138.747 209.681 129.467 208.415C121.8 205.628 114.467 201.975 106.88 198.988C103.96 197.588 100.533 196.988 98.2666 194.548C126.453 183.961 154.467 172.908 182.733 162.521C166.453 165.868 150.56 171.028 134.453 175.161C120.173 179.041 105.64 183.428 90.68 182.735C82.3333 182.481 75.12 177.881 68.12 173.855C57.9733 167.495 47.7466 160.295 41.04 150.215C46.0533 149.601 51.12 149.455 56.16 148.988C92.0666 145.121 128.053 141.615 164 137.895C167.867 137.361 171.787 137.761 175.68 137.521C174.36 135.601 171.84 135.668 169.84 136.308C165.827 137.721 161.507 137.615 157.307 137.788C135.053 138.868 112.787 140.321 90.52 140.961C74.6266 140.481 58.8 137.655 43.8266 132.241C35.3866 130.001 29.24 123.481 22.8666 117.948C15.04 110.441 7.66663 102.041 3.4533 91.908C2.1333 89.5347 1.7333 86.8413 1.6933 84.1613C8.99997 85.8813 16.5066 85.0013 23.9333 85.3347C35.48 85.7213 47.08 85.268 58.6 86.428C75.0933 86.868 91.72 86.1747 108.133 87.7213C108.72 87.6147 109.907 87.388 110.507 87.2813C106.507 86.4413 102.813 84.628 99.0533 83.068C86.2533 77.2813 73.1866 71.9347 60.9733 64.9213C47.7466 58.2947 37.6933 46.188 32.2 32.588C31.76 31.2547 31.2933 29.9213 30.8 28.6147C29 24.468 28.8 19.9213 27.68 15.588C27.28 11.2547 27.32 6.89467 27.2533 2.53467ZM34.96 12.908C37.6266 15.5213 40.72 17.6013 43.72 19.8013C52.4 25.5747 62.2266 29.1347 71.8266 33.028C145.413 59.4147 219.96 83.0413 294.013 108.028C295.48 105.175 292.107 105.055 290.56 104.175C209.84 75.5747 129.293 46.4947 48.8 17.2813C44.2133 15.7347 39.76 13.6947 34.96 12.908ZM8.71997 91.708C10.2533 92.028 11.7333 92.4947 13.1733 93.108C15 93.5213 16.8266 93.9213 18.64 94.388C24.0133 94.948 29.4933 94.4147 34.7733 95.6947C40.9866 95.9213 47.2 96.0947 53.4133 96.3613C70.6266 97.8813 87.96 97.1213 105.2 98.4413C129.8 98.748 154.413 99.6013 179.013 99.5747C176.96 97.548 174 97.2947 171.293 97.2013C126.213 95.1613 81.1466 93.068 36.0933 90.948C30.3066 90.588 24.4266 91.228 18.72 89.9613C15.3333 89.7613 11.9466 89.708 8.54663 89.5747C8.58663 90.108 8.67997 91.1747 8.71997 91.708ZM71.8133 150.028C63.76 151.281 55.5066 150.508 47.5466 152.415C55.3333 155.228 63.8933 153.175 71.9866 153.321C112.427 150.241 152.8 146.028 193.16 141.895C196.853 141.455 200.813 141.828 204.213 140.015C160.053 142.948 115.947 146.895 71.8133 150.028ZM190.893 161.895C166.613 171.055 142.373 180.281 118.12 189.481C113.76 191.148 109.253 192.508 105.187 194.855C111.613 195.841 117.867 193.708 123.653 191.188C144.733 182.468 165.747 173.615 186.84 164.948C191.747 162.761 196.987 161.228 201.547 158.308C197.8 158.828 194.387 160.548 190.893 161.895ZM195.413 194.828C190.387 198.521 184.467 201.055 180.027 205.468C184.973 204.121 188.96 200.775 193.107 197.948C198.053 194.401 203.28 191.241 208.107 187.521C203.387 189.015 199.64 192.388 195.413 194.828ZM314.44 193.881C314.213 195.695 314.267 197.508 314.6 199.308C317.133 198.255 319.4 196.668 321.693 195.175C319.76 193.215 316.907 193.601 314.44 193.881ZM151.12 226.628C122.133 245.468 92.96 264.015 64 282.908C70.7466 282.281 76.5866 278.521 82.3066 275.241C105.933 259.721 129.08 243.468 152.68 227.935C152.733 227.308 152.213 226.868 151.12 226.628Z" fill="#A3958F"/>
<path d="M389.827 177.308C411.48 177.895 433.187 176.775 454.827 177.895C457.387 178.455 460 178.841 462.533 179.575C467.813 181.175 472.747 184.375 475.68 189.148C477.747 192.161 477.973 195.921 479.053 199.335C479.133 202.948 478.427 206.535 477.227 209.935C475.307 213.268 472.427 215.815 469.413 218.135C471.587 219.455 473.72 220.855 475.8 222.335C487.027 232.135 485.453 254.148 471.427 260.468L471.08 261.641C470.613 261.615 469.667 261.548 469.187 261.508C468.04 262.495 466.693 263.108 465.16 263.335C460.4 264.441 455.493 264.788 450.64 265.255C430.4 265.348 410.173 265.148 389.933 265.348C389.907 236.001 390.12 206.641 389.827 177.308ZM404.88 190.801C405.067 197.935 405.08 205.068 404.867 212.201C415.693 212.695 426.52 212.601 437.36 212.415C441.32 212.121 445.28 213.641 449.187 212.615C451.56 212.308 453.933 212.108 456.32 211.948C458.027 210.961 459.747 210.001 461.453 209.015C461.947 207.628 462.453 206.255 463 204.881C463.613 200.895 462.84 196.948 460.16 193.855C459.467 193.521 458.067 192.881 457.373 192.561C454.32 191.668 451.227 190.788 448.013 190.868C433.64 190.801 419.253 190.935 404.88 190.801ZM405 240.801C405.147 244.561 404.347 248.535 405.92 252.108C416.4 251.655 426.907 252.015 437.4 251.895C445.253 251.735 453.44 252.815 460.907 249.775C464.067 248.588 465.613 245.415 467.147 242.655C467.16 238.588 467.8 233.975 464.627 230.801C461.667 226.775 456.44 226.868 452.053 225.841C436.707 225.468 421.36 226.028 406.027 225.628C404.24 230.495 405.227 235.748 405 240.801Z" fill="#A3958F"/>
<path d="M503.04 177.335C508.107 177.481 513.187 177.428 518.267 177.321C518.053 195.841 518.253 214.348 518.147 232.868C518.04 238.268 519.12 244.521 523.987 247.708C535.693 255.615 551.267 256.441 564.387 251.788C572.547 249.348 579.587 241.895 578.173 232.868C578.107 214.401 578.213 195.921 578.12 177.455C583.387 177.241 588.68 177.321 593.96 177.348C593.96 195.855 594.027 214.361 593.933 232.868C593.747 241.041 592.147 250.121 585.573 255.695C574.16 266.321 557.533 268.308 542.6 267.721C530.387 266.428 517.187 263.055 508.827 253.415C500.547 243.588 503.08 229.921 502.467 218.081C503.627 211.415 501.867 204.735 502.587 198.041C503.387 191.148 501.413 184.188 503.04 177.335Z" fill="#A3958F"/>
<path d="M618.093 177.308C645.6 177.388 673.107 177.161 700.6 177.281C700.547 181.855 700.547 186.428 700.613 191.001C678.4 191.135 656.187 190.935 633.987 190.988C633.96 198.388 633.987 205.788 633.96 213.188C654.453 213.068 674.96 213.148 695.453 213.108C695.52 217.641 695.507 222.188 695.493 226.721C674.973 226.681 654.44 226.668 633.92 226.641C634.013 235.028 633.973 243.415 633.96 251.788C657.587 251.361 681.253 252.241 704.88 251.215C705.067 255.935 705.04 260.655 705 265.375C676.053 265.401 647.12 265.295 618.173 265.308C618.107 235.975 618.253 206.641 618.093 177.308Z" fill="#A3958F"/>
<path d="M725.187 177.175C730.387 177.295 735.587 177.201 740.8 177.335C761.88 199.388 783.067 221.361 804.267 243.321C804.48 221.281 804.267 199.228 804.373 177.188C809.4 177.161 814.44 177.175 819.48 177.161C819.373 206.588 819.587 236.015 819.373 265.455C814.36 265.428 809.36 265.508 804.36 265.308C783.227 243.148 761.72 221.348 740.52 199.255C740.04 221.281 740.467 243.335 740.307 265.361C735.213 265.388 730.12 265.388 725.027 265.361C725.107 235.975 724.8 206.561 725.187 177.175Z" fill="#A3958F"/>
<path d="M880.2 177.255C884.893 177.308 889.6 177.281 894.307 177.348C908.693 206.695 922.773 236.188 937 265.615C930.893 265.721 924.787 265.601 918.693 265.748C908.24 243.695 898.08 221.508 887.627 199.455C887.32 199.601 886.707 199.881 886.387 200.028C875.88 221.841 865.747 243.828 855.267 265.655C849.28 265.655 843.293 265.735 837.32 265.588C851.307 236.001 865.747 206.615 880.2 177.255Z" fill="#A3958F"/>
<path d="M905.76 177.161C911.827 177.015 917.893 177.095 923.973 177.068C938.173 206.455 952.187 235.935 966.24 265.401C960.147 265.401 954.053 265.615 947.987 265.215C934.2 235.735 919.627 206.615 905.76 177.161Z" fill="#A3958F"/>
<path d="M982.587 177.161C988.667 177.015 994.747 177.081 1000.84 177.148C1014.6 206.641 1029.2 235.761 1042.67 265.375C1036.83 265.481 1030.99 265.415 1025.15 265.441C1010.81 236.095 996.56 206.681 982.587 177.161Z" fill="#A3958F"/>
<path d="M1010.92 177.175C1017.04 177.081 1023.17 177.135 1029.31 177.188C1039.77 199.641 1049.95 222.255 1060.88 244.481C1071.24 221.988 1082.08 199.708 1092.49 177.228C1098.52 177.121 1104.56 177.108 1110.6 177.295C1096.35 206.641 1082.07 235.975 1067.79 265.321C1062.97 265.495 1058.15 265.508 1053.35 265.281C1039.33 235.855 1024.99 206.575 1010.92 177.175Z" fill="#A3958F"/>
<path d="M1124.51 177.241C1129.81 177.188 1135.13 177.201 1140.45 177.295C1140.36 206.655 1140.44 236.015 1140.41 265.388C1135.13 265.375 1129.84 265.375 1124.56 265.388C1124.44 236.001 1124.56 206.628 1124.51 177.241Z" fill="#A3958F"/>
<path d="M1166.05 177.295C1180.04 177.188 1194.03 177.268 1208.03 177.255C1221.27 177.068 1235.67 178.881 1246 187.961C1264.83 204.188 1265.04 236.495 1247.27 253.561C1238.35 262.335 1225.37 264.775 1213.33 265.308C1197.57 265.455 1181.83 265.321 1166.08 265.401C1166.09 236.041 1166.15 206.668 1166.05 177.295ZM1181.85 251.335C1190.13 252.055 1198.45 251.508 1206.76 251.695C1215.73 251.335 1225.43 251.201 1233.15 245.948C1239.97 241.268 1242.91 232.975 1244.2 225.148C1244.88 215.708 1242.52 205.415 1235.4 198.761C1229.68 192.948 1221.13 191.655 1213.39 191.121C1202.89 190.895 1192.4 191.161 1181.91 191.001C1181.85 211.108 1181.96 231.228 1181.85 251.335Z" fill="#A3958F"/>
<path d="M1308.87 177.308C1313.55 177.401 1318.23 177.335 1322.91 177.481C1334.11 201.801 1346.12 225.735 1357.65 249.908C1359.99 255.095 1362.51 260.201 1365.05 265.308C1359.19 265.268 1353.33 265.215 1347.49 265.335C1341.84 253.615 1336.41 241.788 1330.99 229.975C1328.01 223.921 1325.13 217.815 1322.43 211.641C1320.33 207.121 1317.8 202.815 1316.21 198.081C1314.32 199.055 1313.76 201.175 1312.91 202.948C1303.43 223.828 1293.2 244.361 1283.73 265.255C1277.71 265.375 1271.69 265.335 1265.68 265.281C1280.41 236.121 1294.23 206.508 1308.87 177.308Z" fill="#A3958F"/>
</g>
<defs>
<clipPath id="clip0_1_309">
<rect width="1365.33" height="313.333" fill="white" transform="translate(0 0.814697)"/>
</clipPath>
</defs>
</svg>
