<svg xmlns="http://www.w3.org/2000/svg" fill="none" viewBox="0 0 2316 448"><g fill="#0A5EFF" clip-path="url(#a)"><path d="M2159.69 448.008a152 152 0 0 1-59.46-11.66 149.27 149.27 0 0 1-48.4-32.26c-13.95-14.055-25.01-31.7-32.58-50a161.605 161.605 0 0 1 0-122.001 150.732 150.732 0 0 1 33.18-49.3 160.897 160.897 0 0 1 49.3-33.16 154.676 154.676 0 0 1 60.35-12.261c20.74 0 41.26 4.17 60.35 12.261a157.628 157.628 0 0 1 49 33.16 152.913 152.913 0 0 1 32.88 49.3 154.794 154.794 0 0 1 12 60.661V448h-80.66v-37.992c-17.17 24.68-42.49 38.014-75.96 38Zm2.4-77.5a74.14 74.14 0 0 0 29.86-6 72.01 72.01 0 0 0 24-16.74 83.345 83.345 0 0 0 16.12-24.8 79.085 79.085 0 0 0 0-60.36 83.332 83.332 0 0 0-16.12-24.8 72.23 72.23 0 0 0-24-16.741 77.859 77.859 0 0 0-59.74 0 75.545 75.545 0 0 0-24.22 16.741 76.408 76.408 0 0 0-16.12 24.8 83.053 83.053 0 0 0 0 60.36 76.408 76.408 0 0 0 16.12 24.8 75.106 75.106 0 0 0 24.22 16.74 73.992 73.992 0 0 0 29.8 6h.08ZM1812.49 297.608c0-23.907 3.29-45.32 9.86-64.241a133.797 133.797 0 0 1 28.68-48.4 125.53 125.53 0 0 1 46-30.78c18.12-7.187 38.94-10.773 62.44-10.76h34.66v79.48h-35.24c-20.32 0-36.35 6.667-48.1 20-11.75 13.334-17.43 31.761-17.04 55.281V448h-81.26V297.608ZM1610.51 448.209a151.566 151.566 0 0 1-60.66-12.201 160.215 160.215 0 0 1-49.6-33.16 153.985 153.985 0 0 1-33.48-49.3 151.452 151.452 0 0 1-12.24-60.66c0-26.307 4.48-49.214 13.44-68.721a144.713 144.713 0 0 1 32.87-46.768 144.613 144.613 0 0 1 48.41-30.392 139.741 139.741 0 0 1 49.3-9.56 141.473 141.473 0 0 1 51.7 8.98 110.097 110.097 0 0 1 38.54 24.5V6.007h81.86v286.821a146.883 146.883 0 0 1-12.84 61.18 155.475 155.475 0 0 1-34.96 49.3 165.27 165.27 0 0 1-51.1 32.86 159.2 159.2 0 0 1-61.24 12.041Zm0-77.701a74.14 74.14 0 0 0 29.86-6 72.01 72.01 0 0 0 24-16.74 83.345 83.345 0 0 0 16.12-24.8 79.177 79.177 0 0 0 0-60.36 83.332 83.332 0 0 0-16.12-24.8 72.332 72.332 0 0 0-24-16.741 77.859 77.859 0 0 0-59.74 0 75.545 75.545 0 0 0-24.22 16.741 76.408 76.408 0 0 0-16.12 24.8 83.053 83.053 0 0 0 0 60.36 76.408 76.408 0 0 0 16.12 24.8 75.106 75.106 0 0 0 24.22 16.74 73.999 73.999 0 0 0 29.88 6ZM1272.87 448.209a149.384 149.384 0 0 1-60.36-12.2 161.06 161.06 0 0 1-49.3-33.161 150.241 150.241 0 0 1-33.2-49.36 159.78 159.78 0 0 1 0-121.32 150.42 150.42 0 0 1 33.2-49.301 161.057 161.057 0 0 1 49.3-33.16 154.74 154.74 0 0 1 120.72 0 161.637 161.637 0 0 1 49.3 33.16 150.94 150.94 0 0 1 33.16 49.301 159.78 159.78 0 0 1 0 121.32 150.552 150.552 0 0 1-33.16 49.3 161.75 161.75 0 0 1-49.3 33.221 149.518 149.518 0 0 1-60.36 12.2Zm0-77.701c10.1.06 20.09-2.076 29.28-6.26a78.017 78.017 0 0 0 40-41.24 79.177 79.177 0 0 0 0-60.36 78.01 78.01 0 0 0-40-41.24 72.29 72.29 0 0 0-58.86 0 79.823 79.823 0 0 0-23.6 16.74 75.159 75.159 0 0 0-15.84 24.5 83.053 83.053 0 0 0 0 60.36c3.62 9.126 9 17.45 15.84 24.5a79.332 79.332 0 0 0 23.6 16.74 69.101 69.101 0 0 0 29.58 6.26ZM804.346 276.688a151.797 151.797 0 0 1 9.86-55.281 131.174 131.174 0 0 1 28-44.22 127.528 127.528 0 0 1 43.801-29.18 147.215 147.215 0 0 1 56.48-10.46 155.846 155.846 0 0 1 58.003 10.46 134.7 134.7 0 0 1 45.12 28.98 130.986 130.986 0 0 1 29.28 44 145.571 145.571 0 0 1 10.46 55.861V448h-81.34V277.888c0-18.32-5.876-33.36-17.623-45.121-11.747-11.76-26.413-17.633-44-17.62-17.934 0-31.98 5.874-42.14 17.62-10.16 11.747-15.034 26.161-14.62 43.241V448h-81.281V276.688ZM616.706 448.209a149.538 149.538 0 0 1-60.36-12.2 161.417 161.417 0 0 1-49.301-33.161 150.262 150.262 0 0 1-33.16-49.3 159.817 159.817 0 0 1 0-121.32 150.52 150.52 0 0 1 33.16-49.301 161.432 161.432 0 0 1 49.301-33.16 154.726 154.726 0 0 1 120.72 0 161.428 161.428 0 0 1 49.3 33.16 150.489 150.489 0 0 1 33.16 49.301 159.817 159.817 0 0 1 0 121.32 150.262 150.262 0 0 1-33.16 49.3 161.413 161.413 0 0 1-49.3 33.161 149.404 149.404 0 0 1-60.36 12.2Zm0-77.701a69.667 69.667 0 0 0 29.3-6.26 77.817 77.817 0 0 0 40-41.24 79.14 79.14 0 0 0 0-60.36 77.817 77.817 0 0 0-40-41.24 72.3 72.3 0 0 0-58.86 0 79.84 79.84 0 0 0-23.601 16.74 75.159 75.159 0 0 0-15.84 24.5 83.022 83.022 0 0 0 0 60.36 74.934 74.934 0 0 0 15.84 24.5 79.49 79.49 0 0 0 23.601 16.74 69.09 69.09 0 0 0 29.56 6.26ZM228.283 448.209c-33.466 0-64.133-5.88-92-17.64a222.778 222.778 0 0 1-72-47.801 217.286 217.286 0 0 1-47.2-71.12 225.42 225.42 0 0 1-17.08-87.54 225.422 225.422 0 0 1 17.04-87.541 214.96 214.96 0 0 1 47.5-71.12 226.825 226.825 0 0 1 72.3-47.82 233.322 233.322 0 0 1 91.44-17.62 213.025 213.025 0 0 1 71.121 12 217.9 217.9 0 0 1 110.26 85.74 222.484 222.484 0 0 1 29.58 66h-90.24c-10.76-25.493-26.3-45.493-46.62-60-20.32-14.507-46.414-21.773-78.281-21.8a134.62 134.62 0 0 0-54.98 11.34 141.038 141.038 0 0 0-74.4 75.6 143.684 143.684 0 0 0 0 110.561 141.038 141.038 0 0 0 74.4 75.6 134.607 134.607 0 0 0 54.98 11.34c30.267 0 55.367-6.973 75.301-20.92 19.933-13.947 35.667-33.1 47.2-57.46h92a223.114 223.114 0 0 1-78.6 115.68 219.1 219.1 0 0 1-61.26 32.861 212.715 212.715 0 0 1-70.461 11.66Z"/></g><defs><clipPath id="a"><path fill="#fff" d="M0 0h2316v448H0z"/></clipPath></defs></svg>