<svg xmlns="http://www.w3.org/2000/svg" fill="none" viewBox="0 0 300 42"><path fill="#0FBCF9" d="M23.767.121c5.268-.418 10.806.297 15.417 3.018a14.424 14.424 0 0 1 4.991 4.956c-3.422 2.551-6.834 5.116-10.245 7.681-1.179-1.95-2.96-3.633-5.185-4.272-3.727-1.106-8.092-.239-10.882 2.54-2.668 2.558-3.767 6.42-3.505 10.042.16 2.198 1.386 4.276 3.246 5.468 2.62 1.673 6.039 1.78 8.932.799 2.247-.737 4.09-2.306 5.662-4.024 2.824 2.517 5.575 5.12 8.39 7.65-2.355 2.824-5.38 5.157-8.867 6.384-4.632 1.666-9.682 1.946-14.539 1.351-5.392-.705-10.826-3.159-14.072-7.663C.57 30.626-.308 26.208.093 22.02.428 15.89 3.422 9.986 8.16 6.094 12.533 2.468 18.13.484 23.767.121ZM48.613.007c5.88-.004 11.76 0 17.64 0 4.448-.07 9.139.425 12.969 2.876 2.734 1.704 4.718 4.545 5.316 7.715.86 4.576-.055 9.592-2.928 13.322-2.005 2.703-4.905 4.604-8.012 5.814 2.326 4.061 4.66 8.116 6.982 12.177-4.915.018-9.834-.003-14.75.01-1.994-3.504-3.957-7.026-5.938-10.538-1.12-.01-2.24-.01-3.36-.007a1820.21 1820.21 0 0 0-2.077 10.522c-4.742.048-9.481.01-14.22.017C43.02 27.943 45.82 13.975 48.612.007ZM60.57 11.096c-.64 3.187-1.293 6.374-1.932 9.564 2.084-.007 4.172.007 6.26 0 2.004-.024 4.185-.968 5.04-2.886.773-1.732.853-4.027-.499-5.496-1.49-1.404-3.688-1.327-5.592-1.296-1.082.08-2.247-.166-3.277.114ZM91.887 0c14.459.014 28.918.003 43.38.003-2.053 3.575-4.099 7.156-6.159 10.726-8.476-.013-16.955-.007-25.431-.003-.287 1.614-.65 3.218-.926 4.836 4.988-.01 9.979.014 14.971-.01-1.964 3.418-4 6.792-5.963 10.207-3.716.01-7.428-.021-11.141.017-.301 1.811-.722 3.602-1.03 5.416 5.921.032 11.846-.01 17.767.021-2.07 3.557-4.124 7.131-6.173 10.705-9.223 0-18.445.004-27.664-.003 2.77-13.975 5.59-27.94 8.369-41.915ZM138.665.01c4.774-.013 9.551.007 14.328-.01 3.429 13.961 6.785 27.943 10.159 41.918-4.445 0-8.887-.003-13.329 0-2.032-8.707-4.037-17.421-6.059-26.132-5.4 8.625-10.515 17.446-15.821 26.14-4.446-.018-8.894 0-13.339-.008 7.991-13.985 16.052-27.93 24.061-41.908ZM224.6 0c12.886.031 25.773-.031 38.662.031-.726 3.685-1.486 7.36-2.229 11.037-4.076-.003-8.154.007-12.23-.003-2.074 10.28-4.092 20.573-6.166 30.853-4.729-.003-9.461.004-14.193-.003 2.067-10.277 4.075-20.567 6.16-30.843-4.09-.007-8.175-.004-12.261-.004.774-3.685 1.462-7.387 2.257-11.068ZM265.755 0c11.358.014 22.72.007 34.082.003-.705 3.575-1.452 7.145-2.164 10.72h-20.124c-.346 1.607-.616 3.228-.954 4.835 3.902.01 7.805-.01 11.707.01-.653 3.416-1.389 6.817-2.019 10.24-3.937.092-7.874.006-11.811.04-.342 1.788-.677 3.571-1.047 5.351 6.989 0 13.975.018 20.964-.01-.681 3.581-1.455 7.141-2.146 10.719-11.622.02-23.239.007-34.86.007 2.772-13.975 5.592-27.94 8.372-41.915ZM156.536.1c4.846-.014 9.692-.003 14.538-.007 1.749 8.068 3.426 16.153 5.185 24.217 5.006-8.07 10.011-16.149 15.019-24.22 4.86.003 9.724.01 14.587-.004-8.42 13.955-16.878 27.885-25.302 41.84-4.66-.015-9.319-.008-13.975-.004-3.353-13.94-6.73-27.878-10.052-41.822ZM207.998.093h14.182a39423.903 39423.903 0 0 1-8.365 41.836c-4.728-.028-9.457 0-14.182-.014 2.786-13.94 5.575-27.881 8.365-41.822Z"/></svg>