<svg xmlns="http://www.w3.org/2000/svg" fill="none" viewBox="0 0 1362 971"><path fill="#EF2F32" d="M1219.83 6.447c3.54-2.16 8.28-2.827 11.9-.467 5.27 3.44 9.67 8.027 14.04 12.507 3.84 3.427 3.03 9.067 2.59 13.653-2.03 4.36-4.09 8.707-6 13.107-4.72 7.08-11.64 12.24-17.64 18.16-4.04 4.067-8.93 7.08-13.63 10.293-7.54 4.8-13.93 11.147-21.42 16.013-19.67 16.467-41.12 30.72-59.9 48.227-.22 1.547-.25 3.08-.09 4.64 6.2-.24 12.36-.973 18.57-1.067 3.42.054 5.71-2.92 8.71-4.106 2.73-.534 5.57-.387 8.32-.987 2.19-1.373 4.07-3.2 6.29-4.56 2.64-.947 5.52-.92 8.26-1.64 2.62-.933 4.65-3.08 7.33-3.96 2.41-.547 4.91-.693 7.35-1.253 2.82-1.347 4.92-3.894 7.84-5.134 4.06-.906 8.72.134 12.25-2.6 2.8-2.106 6.19-2.973 9.61-3.453 4.15-.293 6.58-4.68 10.72-4.933 3.39-.294 6.91-.694 9.51-3.16 3.11-2.974 7.59-2.027 11.41-3 3.14-1.734 5.78-4.734 9.64-4.747 3.66-.12 6.82-1.867 9.6-4.12 3.02-2.573 7.22-1.733 10.78-2.84 1.92-1.093 3.46-2.72 5.41-3.786 3.69-1.054 7.81-.267 11.31-2.054 5.58-3.44 12.46-2.32 18.68-1.88 6.02 1.8 12.09 5.36 15.53 10.747.75 6.76 2.56 15.626-3.76 20.32-5.43 4.706-9.77 10.6-15.52 14.88-4.67 1.626-8.49 4.746-12.71 7.106-8.32.907-15.02 6.04-21.97 10.187-4.25 1.293-8.39 2.827-11.85 5.693-8.06 3.12-16.07 6.627-23.28 11.4-4.9.76-8.66 4-13.06 5.787-6.14.427-10.29 5.44-16.13 6.853-3.64 2.8-7.73 4.427-12.28 5.067-6.89 4-12.28 10.36-19.91 13.133-.29 1.56-.3 3.16-.17 4.734a57.197 57.197 0 0 0 14.03 1.946c3.69.014 6.98-2.026 10.62-2.48 9.76-1.12 19.62-.986 29.43-.946 6.01.586 9.91-5.654 15.84-5.4 6.37-.08 12.79.066 19.15-.64 6.85-.32 12.69-4.974 19.68-4.614 15.86.04 31.78-.36 47.62.254 4.91 2.76 8.72 7.36 12.15 11.773.83 5.213 1.96 11.933-2.41 15.92-3.52 3.6-6.86 7.507-11.03 10.36-3.29.613-6.68.333-9.96.933-2.24.92-3.87 2.934-6.15 3.707-2.97.453-5.98.293-8.93.747-4.03.946-6.33 5.666-10.69 5.6-3.63.253-7.58.013-10.4 2.706-3.59 3.347-8.68 2.427-13.11 3.32-3.09 1.067-5.56 3.387-8.6 4.56-5.12.76-10.33-.24-15.43.587-2.93 1.12-4.93 3.787-7.66 5.267-3.54.906-7.24.64-10.76 1.533-2.78.907-5.07 2.787-7.75 3.88-4.08 1.013-8.44-.067-12.45 1.213-2.72 1.6-5 3.947-6.58 6.667-1.6 3.56-.65 8.907 3.56 10.133 5.98 1.12 12.12-.28 18.12.707 3.68.973 7.02 3.28 10.94 3.36 8.94.36 17.89-.307 26.85-.04 4.23-.28 6.52 3.893 9.84 5.773 4.09.907 8.43-.08 12.49 1.054 3.7 1.52 7.06 3.853 11.02 4.773 6.56 1.24 11.12 6.667 15.04 11.64 1.3 5.56 2.17 12.947-2.7 17.12-3.68 3.6-7.88 6.92-12.76 8.693-4.26 1.014-8.7.547-13.02.6-10.38-.253-20.79.56-31.11-.72-15-1.533-29.91 1.694-44.91 1.494-4 .026-8.01-.28-12 .133-4.09.507-6.3 5.32-10.56 5.28-22.69.453-45.46-1.067-68.12.947-4.58.213-8.37 3.24-12.85 3.84-4.52.68-9.13.066-13.61.84-3 1.106-5.04 3.786-7.75 5.36-5.92 1.773-13.23-1.507-18 3.546-4.6 4.64-11.49 3-17.35 3.76-6.32-.026-12.02 3.574-18.38 3.08-8.5-.213-16.98-.013-25.47-.04-4.76.294-8.31-4.093-13.12-3.533-3.973-.36-8.64 1.04-11.827-2.053-4.493-3.8-10.466-5.187-14.906-9.08-7.774-6.334-15.494-12.907-21.907-20.654-5.72-7.8-11.187-15.826-15.653-24.413-1.88-3.547-1.187-7.72-2.16-11.493-1.654-3.294-5.147-5.907-4.72-9.947.146-15.16-.2-30.333.186-45.467 2.854-7.026 6-14.186 10.72-20.24 2.934-3.906 4.827-8.44 7.214-12.68 13.84-20.013 27.573-40.146 40.306-60.906 3.8-8.04 7.56-16.147 12.094-23.814.693-2.746.64-5.626 1.386-8.36 1.477-2.333 3.557-4.226 5.057-6.546.85-4.16 0-8.467.73-12.64 1.19-3.2 4.08-5.76 4.12-9.334.23-7.893.2-15.8-.28-23.68-.23-6.626-4.47-12.373-4.27-19.053-.08-4.013-.13-8.04.28-12.04.18-3.48 3.42-6.413 6.92-6.107 5.78.08 11.88-.893 17.47.72 6.05 5.04 11.29 11.2 15.35 17.974 3.17 4.72 3.17 10.986 7.33 15.12 3.84 3.627 1.04 9.587 3.77 13.746 1.87 3.027 3.48 6.28 3.5 9.92.5 10 1.66 19.974 1.32 30-.15 3.64-.02 8.254 3.89 9.974 4.75 1.413 8.48-2.92 12.11-5.24 7.4-6.054 16.01-10.427 23.08-16.894 3.61-3.186 8.28-4.88 11.93-8.04 7.11-6.373 15.65-10.866 22.65-17.386 5.08-4.92 11.9-7.414 17.07-12.214 6.56-5.906 13.25-11.76 20.79-16.453 7.04-4.346 12.8-10.373 18.48-16.306 3.72-4.014 8.61-6.587 13.17-9.534 4.63-3.36 10.91-1.347 15.71-4.333Z"/><path fill="#72AF7B" d="M99.346 284.553c1.373-3.546 4.533-6.253 7.76-8.106 6.48-1.267 13.173-.387 19.747-.667 5.386-.653 9.653 3.08 14.493 4.693 3.987 1.4 6.6 5.2 10.76 6.254 8.68 2.466 15.027 9.32 22.987 13.253 5.64 3.813 11.266 7.627 17.44 10.533 6.28 5.214 14.173 7.72 20.72 12.494 3.546 2.693 8.386 2.613 11.853 5.48 2.907 2.466 6.88 2.186 10.32 3.346 2.893 1.507 5.227 4.28 8.653 4.547 10.214 1.48 20.56.387 30.84.72 2.267-.133 4.294.96 6.16 2.147 5.92 4.44 13.707 1.693 20.507 2.333 4.733-.72 7.387 3.827 11.107 5.773 3.306.64 6.706.294 10.026.814 3.427 1.12 6.094 3.933 9.694 4.653 3.52.667 6.96 1.747 10 3.68 3.8 2.373 9.026 1.733 12.08 5.36 4.333 4.547 8.866 8.907 13.28 13.373 2.866 2.707 2.106 7.2 4.453 10.227 1.573 2.547 4.48 4.653 4.293 7.947.147 18.693-.133 37.4.107 56.093-.053 2.6.12 5.24-.48 7.8-1.787 3.653-5.733 6.427-5.627 10.84-.36 3.573.054 7.6-2.52 10.493-7.586 10.134-17.026 18.854-27.573 25.854-4.52 3.16-10.387 4.2-14.16 8.453-7.747 8.413-17.893 14.227-28.44 18.44-3.8 1.747-6.667 5.28-10.973 5.973-4.054.814-7.4 3.254-10.627 5.694-4.107 3.16-9.587 4.133-13.187 8-13.666 14.28-28.253 27.706-41.12 42.706-4.066 6.107-5.44 13.64-9.973 19.467-3.04 3.92-3.493 9.373-7.36 12.72-2.307 2.547-5.8 4.373-9.253 3.093-5.16-3.653-9.054-8.786-12.934-13.693-2.613-3.733-6.08-7.533-5.773-12.4.4-9.16-1.48-18.947 2.853-27.44 2.28-4.507.907-10.293 4.587-14.133 7.213-9.12 15.227-17.574 23.213-26 2.947-2.867 2.534-7.36 2.054-11.08-.187-2.054-1.894-3.8-3.974-3.88-4.733-.56-9.6-.787-14.32.04-2.533 1.28-4.52 3.48-7.146 4.6-3.667.653-7.467.226-11.107 1.053-3.76 1.133-7.107 3.507-11.08 3.947-3.947.64-8.013.293-11.92 1.2-2.787 1.493-4.96 3.933-7.827 5.293-7.04 1.787-15.053-1.64-21.466 2.653-5.227 3.76-11.827 1.44-17.72 2.36-8.894 1.654-17.4 5.894-26.64 5.28-11.014-.466-22.094.507-33.08-.373-4.787-2.44-8.72-6.267-12.747-9.76-5.24-4.133-5.52-13.16-.44-17.493 6.627-6.867 13.84-14.147 23.427-16.454 4.306-1.28 7.226-5.986 12.106-5.52 4.427-.386 9.667.987 13.107-2.64 3.947-4.213 9.973-2.4 15.053-2.8 3.787.32 6.254-3.106 9.6-4.16 7.347-1.426 14.867-.8 22.28-1.253 2.654-.04 4.28-2.467 6.347-3.8 6.667-4.667 14.947-6.053 22.933-5.613.507-2.027.547-4.147.387-6.214-4.187-.586-8.587.267-12.653-.946-2-2.16-4.12-4.227-6.894-5.374-3.933-1.693-6.586-6.266-11.293-5.8-20.053-.106-40.107.32-60.147-.026-9.746-.934-19.533-.814-29.306-.627-12.267.733-23.267-7.347-30.027-16.973-.827-4.254-.507-8.627-.493-12.934-.56-6.24 5.04-11.653 10.533-13.413 16.867-.4 33.76.093 50.64-.2 7.56-.267 15.067.907 22.627.987 5.933-.12 11.413 2.466 17.24 3.12 7.586 1 15.253-.014 22.88.453 4.28.213 8.546 1.027 12.853.84.08-1.787.12-3.587-.293-5.333-4.52-1.32-8.2-4.147-11.4-7.52-2.747-3.147-7.174-2.88-10.787-4.24-2.387-1.414-4.267-3.547-6.693-4.894-3.214-.666-6.6-.266-9.747-1.24-2.52-1.64-4.213-4.893-7.467-5.12-3.346-.493-6.813-.853-9.693-2.786-4.907-3.414-11.707-1.227-16.387-5.08-3.96-3.214-9.453-3.28-13.426-6.494-3.84-3.12-9.56-.773-13.28-4.16-3.88-3.066-9.2-3.626-12.72-7.186-2.92-2.814-6.014-5.547-8.347-8.88-1.147-5.96-.533-12.147-.48-18.174-.08-4.506 4.12-7.226 6.987-10.066 4-4.294 10.293-2.68 15.48-2.974 6.8.454 14.213-1.52 20.44 2.027 3.52 2.04 7.52 2.8 11.48 3.387 3.333.386 5.533 3.2 8.373 4.666 3.307.747 6.76.36 10.107.894 3.28 1.213 5.466 4.533 9.026 5.133 3.907.667 7.974 1.213 11.174 3.787 3.706 3.08 8.76 1.666 13.106 2.746 3.547 2.08 6.507 5.627 10.987 5.547 4.04-.013 7.187 2.573 10.693 4.147 8.067.56 16.267.586 24.32-.307.414-2.08.614-4.493-1.24-5.96-5.586-6-11.146-12.213-18.133-16.64-8.453-5.667-16.147-12.36-24.507-18.147-8.946-6-15.52-14.693-23.466-21.84-2.814-2.906-7.2-5.946-5.827-10.6Z"/><path fill="#FFC80B" d="M767.598 319.873c2.68-1.066 5.694-.546 8.534-.666 6.653.24 13.32-.227 19.973.146 6.187 1.48 9.387 8.2 14.267 11.92 4.066 3.734 6.373 8.84 9.146 13.52 2.934 4.574-.066 10.854 3.707 15.067 5.307 5.827 2.64 14.253 4.333 21.293 1.147 2.64 3.334 4.64 4.667 7.201 1.693 7.559-2.333 16.546 3.347 22.946 3.88 5.093 1.386 11.853 2.72 17.653 1.546 3.627 4.906 6.414 5.44 10.494.813 5.066.053 10.24.653 15.346.787 3.32 3.413 5.92 3.973 9.32.6 5.147-.386 10.4.64 15.507 1.214 3.28 4.454 5.387 5.574 8.693.746 5.187-.267 10.467.64 15.64.92 2.907 2.84 5.374 3.88 8.24 1.653 5.094.386 10.574 1.493 15.734 1.267 2.546 3.307 4.613 4.52 7.2 1.68 6.586-.107 14.053 4.08 19.906 2.88 4.254.32 10.027 3.347 14.187 2.453 3.4 4.333 7.187 6.813 10.587 5.16 2.347 12.013.36 14.147-5.174 1-6.493.066-13.2 1.653-19.64 6.147-17.6 1.76-36.52 3.573-54.666 1.414-3.04 4.44-5.08 5.6-8.24 1.307-17.974-1.413-36.24 1.894-54.067 3.306-9.893 3.586-20.347 4.093-30.613 5.16-6.454 6.413-15.88 14.387-19.934a44.317 44.317 0 0 1 17.573 0c3.467 2.2 6.053 5.454 8.92 8.334 3.173 3.453 6.893 6.746 8.293 11.4 1.04 4.013 4 6.986 6.08 10.453.52 9.733.987 19.507 1.4 29.253.347 4.6 3.48 8.534 3.32 13.214.134 11.106-.333 22.213.094 33.307 1.52 13.306.613 26.706.853 40.066.227 15.987-.68 32 .853 47.934.52 5.546-.826 11.333.894 16.733 5 10.533 2.946 22.493 3.76 33.746.133 4.08 3.586 6.72 5.4 10.08.986 3.96.48 8.4 3.093 11.827 2.813 3.693 2.387 8.707 4.88 12.52 3.387 4.574 4.04 10.44 7.133 15.2 1.52 4.694 4.152 8.76 6.952 12.747 2.1 7.48 5.77 14.387 10.37 20.64 3.63 8.48 6.37 17.44 11.12 25.413 2.19 5.227.59 11.134 2.09 16.52 1.38 2.8 3.62 5.053 5.16 7.773 1.2 4.547.04 9.374.98 13.987.94 2.867 2.69 5.4 3.6 8.294.98 5.026-.32 10.253.81 15.266 1.91 3.307 6.05 5.627 5.83 9.88.12 12.96.04 25.934.02 38.894.59 4.72-3.64 7.546-5.7 11.226-.84 3.014-.43 6.333-1.74 9.213-9.06 13.374-21.85 23.494-33.45 34.534-11.495 8.227-23.482 15.787-35.668 22.947-4.16 2.64-7.76 6.399-12.8 7.373-8.454 2.093-13.747 10.88-22.64 11.653-5.334.053-7.907 6.4-13.374 5.92-5.586-.573-8.986 5.453-14.56 4.64-16.053-.16-32.093-.066-48.133-.026-4.6.4-7.867-3.467-12.133-4.374-3.44-.76-6.867-1.76-9.64-4.04-3.96-3.36-9.774-1.92-13.894-4.893-4.013-2.734-8.6-4.453-12.586-7.2-4.014-2.853-9.694-.653-13.494-4.053-4.56-4.094-11.12-3.254-16.133-6.4-3.627-2.414-8.493-1.427-11.96-4.147a70.413 70.413 0 0 0-13.227-7.84c-5.44-2.373-9.68-6.76-15.186-9.013-6.067-2.587-10.614-7.627-16.6-10.36-5.187-2.547-9.2-7.014-14.654-9.067-5.933-2.12-10.56-6.667-16.413-8.987-4.027-2.667-8.92-2.08-13.453-2.786-2.867-1.307-4.894-3.867-7.6-5.414-3.92-1.24-8.12-.733-12.094-1.653-2.253-1.027-4.213-2.613-6.48-3.587-4.186-.8-8.52-.04-12.68-.92-3.306-1.466-5.866-4.68-9.68-4.773-7.133-.8-14.32-.974-21.48-1.04-3.84.106-7-2.4-10.586-3.293-18.227-.414-36.48-1.64-54.747-1-4.307.413-7.227 4.946-11.827 4.346-7.48-.2-15.066.587-22.48-.533-3.666-2.36-8-5.667-7.88-10.493-.186-4.907-.786-10.334 2.56-14.387 4.107-8.307 7.92-16.787 12.467-24.88 1.227-2.814 1.28-6.227 3.547-8.507 3-3.24 6.2-6.28 9.293-9.413 3.147-3.614 8.32-3.867 12.04-6.64 4.12-3.293 9.907-2.654 14.067-5.867 2.746-2.227 6.373-1.8 9.653-2.16 4.667.053 7.053-5.746 11.92-5.146 13.827.053 27.653 0 41.48.026 4.787-.373 7.16 5.4 11.84 5.293 8.573.361 17.413-.666 25.733 2.054 6.64 2.333 13.894 1.893 20.774 1.133 4.693-1.6 6.84-6.973 6.106-11.64.254-4.8-4.2-7.613-7.066-10.76-7.427-6.813-13.747-14.853-22.014-20.72-5.586-4.107-9.826-9.666-15.04-14.2-10.026-8.626-18.56-18.813-28.733-27.293-16.587-16.294-32.907-32.867-49.387-49.267-7.386-8.6-15.64-16.373-23.213-24.787-7.893-7.8-13.96-17.146-20.973-25.706-4.64-5.467-6.24-12.853-11.387-17.947-3.587-3.573-4.413-8.733-7.013-12.893-2.16-3.667-3.694-7.68-6.334-11.027-2.56-2.947-1.4-7.12-1.933-10.653-.04-4.054-4.013-6.747-4.28-10.747-.293-4.28-.493-8.653.32-12.88 2.747-7.387 5.64-15.747 13.12-19.6 6-.827 12.107-.4 18.147-.36 3.853-.2 6.253 3.333 9.466 4.827 3.574.8 7.68-.014 10.747 2.426 7.827 4.52 15.813 8.84 22.88 14.574 5.827 4.947 13.173 7.786 18.48 13.413 18.8 18.534 37.347 37.333 56.067 55.933 15.253 17.147 32.133 32.76 48.173 49.16 6.547 6.374 12.64 13.36 20.12 18.68 2.92 2.214 8.947.987 8.213-3.519-.306-6.907 1.867-14.854-2.64-20.787-1.733-2.76-1.64-6.187-2.96-9.094-5.733-9.253-7.653-20.533-14.72-29.013-2.64-7.627-7.266-14.267-10.746-21.493-2.134-6.027-6.52-10.854-8.774-16.84-5.533-9.907-11.84-19.4-17.053-29.494-4.053-6.093-5.387-13.586-10.067-19.306-3.786-4.534-5.026-10.507-8.52-15.227-4.386-6.453-7.466-13.68-11.88-20.107-2.466-4.226-5.093-8.453-6.306-13.24-.827-3.32-3.307-5.8-4.854-8.76-3.08-6.64-5.4-13.76-9.866-19.653-2.507-2.827-1.774-6.787-1.92-10.24.2-7.147-.174-14.307.106-21.44 0-3.8 3-6.56 5.107-9.4 4.067-4.733 8.027-9.76 13.2-13.36 3-1.28 6.453-.587 9.653-.747 6.467.334 13-.56 19.414.427 8.026 4.413 14.933 10.893 20.186 18.387 3.814 5.48 9.894 9.546 11.427 16.4 1.787 6.8 8.667 10.773 10.053 17.706 1.107 4.72 4.747 8.174 6.947 12.374 2.747 4.146 3.56 9.226 6.293 13.373 5 7.76 7.827 16.68 12.747 24.467 1.587 2.826 1.107 6.427 3.053 9.106 3.32 4.454 4.2 10.214 8.08 14.32 2.507 6.467 7 12.014 8.16 18.974 2.6 3.613 4.294 7.626 5.44 11.906 7.414 9.014 8.934 21.174 15.774 30.52 2.626 4.214 5.333 10.107 11.053 10.307 3.213-.04 7.547.773 9.653-2.347 1.294-4.88.707-10.053.68-15.04.054-4.106-2.893-7.293-4.173-11-1.133-6.426.573-13.08-.907-19.48-1.226-2.56-3.4-4.546-4.52-7.146-.933-6.467.534-13.054-.573-19.494-1.587-2.773-4.067-4.893-5.693-7.626-1.054-6.787.4-13.707-.52-20.507-.974-4.16-3.907-7.72-4.04-12.08-.334-4.973 0-10.013-1.094-14.893-1-4.187-5.306-7.08-5.12-11.614-.2-7.133-.053-14.32-1.226-21.386-.84-3.947-3.374-7.32-4-11.334-.827-5.96.253-12-.574-17.96-1.573-3.213-5.453-5.426-5.08-9.4.054-6.946-.306-13.906.2-20.826 1.107-2.867 3.587-4.96 4.867-7.774 4.573-10.84 15.187-17.08 24.293-23.72Z"/></svg>