<svg xmlns="http://www.w3.org/2000/svg" fill="none" viewBox="0 0 434 61"><g fill="#0FBCF9" clip-path="url(#a)"><path d="M15.231 57.515a25.3 25.3 0 0 1-10.89-9.14 24.13 24.13 0 0 1-3.85-13.49 32.93 32.93 0 0 1 18.45-30.26 42.87 42.87 0 0 1 19.74-4.42 37.36 37.36 0 0 1 15.47 3 21.38 21.38 0 0 1 10 8.56l-14.69 11a13.21 13.21 0 0 0-12.09-6.78 16.11 16.11 0 0 0-8.47 2.23 15.28 15.28 0 0 0-5.8 6.3 19.661 19.661 0 0 0-2.07 9.14 10.571 10.571 0 0 0 3.41 8.24 12.88 12.88 0 0 0 9 3.1c5.12 0 9.614-2.233 13.48-6.7l12 11a30.43 30.43 0 0 1-12 8.86 42.071 42.071 0 0 1-15.51 2.64 38.25 38.25 0 0 1-16.18-3.28ZM118.76 34.135a25.3 25.3 0 0 1-12.06 8.94l10.11 17.63H95.64l-8.55-15.19h-5l-3 15.21H58.66L70.76.245h27.13c7.953 0 14.13 1.743 18.53 5.23s6.603 8.367 6.61 14.64a23.553 23.553 0 0 1-4.27 14.02Zm-24-18.19h-6.83l-2.85 14.17h8.38a9.45 9.45 0 0 0 6.57-2.11 7.6 7.6 0 0 0 2.33-5.92c.013-4.087-2.513-6.133-7.58-6.14h-.02ZM401.77 15.625l-1.38 7.09h16.93l-2.94 14.69h-17l-1.55 7.94h30.3l-3.11 15.39h-50.28L384.83.255H434l-3.11 15.37h-29.12ZM217.15 60.735l-8.82-38.13-18.01 29.92-4.95 8.24-19.13-.02L201 .255h20.67l14.63 60.48h-19.15ZM298.061.275l-36.6 60.48h-20.05L226.861.275h20.91l7.52 35.24 21.86-35.26 20.91.02ZM301.3.275h20.39l-12.09 60.48h-20.37L301.3.275ZM339.81 16.065h-17.72l3.2-15.81h55.81l-3.19 15.81h-17.68l-8.9 44.67h-20.42l8.9-44.67ZM150.28 15.605l-1.38 7.08h21.65l-8.63 14.69h-16l-1.56 7.95h25.67l-8.86 15.38h-39.94l12.1-60.48h62.54l-8.82 15.38h-36.77Z"/></g><defs><clipPath id="a"><path fill="#fff" d="M.48.195H434v60.61H.48z"/></clipPath></defs></svg>