<svg xmlns="http://www.w3.org/2000/svg" fill="none" viewBox="0 0 360 59"><g fill="#2F84FF" clip-path="url(#a)"><path d="M11.192 58.163a11.164 11.164 0 0 1-7.914-3.292A11.258 11.258 0 0 1 0 46.925V12.12c0-2.98 1.179-5.839 3.278-7.947a11.167 11.167 0 0 1 7.914-3.29h27.17c0 2.752-1.089 5.392-3.028 7.339a10.31 10.31 0 0 1-7.308 3.04H11.868v12.994h19.795c1.37 0 2.684.546 3.653 1.52a5.2 5.2 0 0 1 1.514 3.668v.004a5.2 5.2 0 0 1-1.514 3.668 5.156 5.156 0 0 1-3.653 1.52H11.868v13.147h16.158a10.31 10.31 0 0 1 7.308 3.04 10.397 10.397 0 0 1 3.027 7.339h-27.17ZM40.964 58.163 55.59 37.096 40.888 16.183h5.864c4.666 0 9.03 2.32 11.65 6.195l6.835 10.105H59.42s3.524-5.212 6.589-9.74a14.89 14.89 0 0 1 12.333-6.56h5.426L69.066 37.096l14.548 21.067h-5.7a14.066 14.066 0 0 1-11.725-6.31l-6.617-9.99h5.512l-6.371 9.62a14.892 14.892 0 0 1-12.415 6.68h-5.334ZM108.959 58.163c-5.053 0-8.971-1.371-11.753-4.113-2.782-2.743-4.174-6.575-4.174-11.495V25.716h-7.044v-9.995h.383c2.144 0 3.79-.538 4.938-1.614 1.15-1.077 1.723-2.692 1.723-4.844V6.187h11.486v9.534h9.801v4.376c0 1.49-.59 2.92-1.639 3.974a5.584 5.584 0 0 1-3.957 1.645h-4.205v16.07c0 1.435.255 2.627.765 3.576.511.947 1.302 1.652 2.374 2.113 1.072.462 2.399.692 3.982.692.357 0 .766-.025 1.225-.077.46-.051.945-.102 1.455-.153v9.765c-.766.102-1.633.204-2.603.307-.97.102-1.889.154-2.757.154ZM141.195 58.163c-4.442 0-8.295-.986-11.562-2.96-3.267-1.974-5.794-4.626-7.581-7.958-1.786-3.332-2.679-7.022-2.679-11.072 0-4.204.931-7.945 2.794-11.226 1.863-3.28 4.378-5.869 7.542-7.765 3.165-1.896 6.738-2.845 10.72-2.845 3.318 0 6.253.525 8.806 1.576 2.552 1.05 4.709 2.525 6.47 4.421a19.463 19.463 0 0 1 4.019 6.575c.92 2.485 1.379 5.189 1.379 8.11 0 .821-.038 1.628-.115 2.422-.076.796-.217 1.475-.421 2.038H129.25v-8.457h24.809l-5.437 3.998c.51-2.204.485-4.165-.076-5.883-.562-1.716-1.545-3.075-2.948-4.074-1.404-1-3.127-1.5-5.169-1.5-1.99 0-3.701.487-5.13 1.461-1.429.974-2.501 2.41-3.216 4.306-.715 1.897-.995 4.203-.843 6.92-.204 2.358.077 4.434.843 6.228.765 1.794 1.94 3.19 3.522 4.19 1.583 1 3.497 1.5 5.743 1.5 2.042 0 3.79-.41 5.245-1.23.353-.2.688-.418 1.004-.653a6.534 6.534 0 0 1 6.671-.623 252.288 252.288 0 0 1 4.921 2.275c-.817 2.05-2.106 3.844-3.867 5.382-1.762 1.538-3.841 2.729-6.24 3.576-2.4.845-5.029 1.268-7.887 1.268ZM167.841 58.163v-41.98h2.451c2.193 0 4.297.875 5.847 2.43a8.32 8.32 0 0 1 2.422 5.873l-.613-1.845c.97-2.512 2.54-4.37 4.709-5.574 2.17-1.204 4.71-1.808 7.619-1.808 3.165 0 5.934.667 8.308 2a14.192 14.192 0 0 1 5.551 5.574c1.327 2.383 1.991 5.165 1.991 8.342v26.988h-11.485V33.636c0-1.64-.319-3.05-.957-4.229a6.978 6.978 0 0 0-2.681-2.768c-1.148-.666-2.488-1-4.019-1-1.48 0-2.808.334-3.982 1a6.9 6.9 0 0 0-2.718 2.768c-.638 1.18-.957 2.589-.957 4.229v24.527h-11.486ZM230.092 58.163c-4.594 0-8.588-1.09-11.982-3.268-3.395-2.178-5.705-5.113-6.93-8.804l1.161-.55a10.319 10.319 0 0 1 10.922 1.305c.22.201.458.381.704.553a10.472 10.472 0 0 0 6.125 1.922c1.634 0 2.885-.333 3.752-1 .869-.666 1.302-1.588 1.302-2.767 0-.616-.153-1.141-.459-1.577-.306-.436-.766-.833-1.379-1.192-.612-.358-1.377-.666-2.297-.922l-7.121-2c-3.42-.974-6.049-2.55-7.886-4.728-1.838-2.178-2.757-4.754-2.757-7.727 0-2.614.664-4.895 1.991-6.843 1.327-1.948 3.191-3.473 5.589-4.575 2.4-1.101 5.156-1.653 8.27-1.653 4.084 0 7.67.96 10.758 2.883 3.088 1.922 5.271 4.627 6.547 8.111l-1.503.708a10.316 10.316 0 0 1-10.176-.793 2.048 2.048 0 0 0-.151-.106c-1.608-1.051-3.433-1.577-5.475-1.577-1.48 0-2.641.309-3.484.923-.842.615-1.263 1.46-1.263 2.538 0 .564.153 1.076.459 1.537.307.461.804.872 1.493 1.23.689.359 1.545.692 2.566 1l6.661 1.999c3.471 1.025 6.125 2.576 7.964 4.651 1.837 2.077 2.755 4.627 2.755 7.65 0 2.616-.676 4.896-2.028 6.844-1.353 1.948-3.229 3.472-5.628 4.575-2.399 1.102-5.233 1.653-8.5 1.653ZM273.278 58.163c-4.441 0-8.296-.986-11.562-2.96-3.267-1.974-5.794-4.626-7.58-7.958-1.787-3.332-2.681-7.022-2.681-11.072 0-4.204.932-7.945 2.795-11.226 1.864-3.28 4.377-5.869 7.543-7.765 3.164-1.896 6.737-2.845 10.72-2.845 3.317 0 6.252.525 8.805 1.576 2.552 1.05 4.709 2.525 6.47 4.421 1.761 1.897 3.101 4.088 4.02 6.575.919 2.485 1.378 5.189 1.378 8.11 0 .821-.038 1.628-.115 2.422-.077.796-.217 1.475-.421 2.038h-31.317v-8.457h24.808l-5.436 3.998c.511-2.204.485-4.165-.077-5.883-.561-1.716-1.543-3.075-2.948-4.074-1.403-1-3.126-1.5-5.167-1.5-1.992 0-3.702.487-5.131 1.461-1.43.974-2.501 2.41-3.216 4.306-.715 1.897-.996 4.203-.842 6.92-.204 2.358.077 4.434.842 6.228.766 1.794 1.94 3.19 3.522 4.19 1.583 1 3.497 1.5 5.743 1.5 2.042 0 3.79-.41 5.245-1.23.354-.2.689-.418 1.005-.653a6.533 6.533 0 0 1 6.67-.623 252.288 252.288 0 0 1 4.921 2.275c-.817 2.05-2.106 3.844-3.867 5.382-1.761 1.538-3.842 2.729-6.24 3.576-2.4.845-5.028 1.268-7.887 1.268ZM312.635.882h-11.868v57.28h11.868V.883ZM333.003 58.163V13.134a1.87 1.87 0 0 0-1.865-1.873h-12.607V.882h40.582v10.38h-12.377c-.494 0-.969.197-1.319.548a1.88 1.88 0 0 0-.546 1.324v45.029h-11.868Z"/></g><defs><clipPath id="a"><path fill="#fff" d="M0 0h360v59H0z"/></clipPath></defs></svg>