<svg xmlns="http://www.w3.org/2000/svg" fill="none" viewBox="0 0 1023 1153"><g clip-path="url(#a)"><path fill="#DEDEDE" d="M141.873 221.682C269.235 147.641 396.636 73.801 524.117 0c-.48 55.84.8 111.681-.64 167.441-4.36 88.121-54.601 172.122-130.241 217.522C265.115 459.764 136.193 533.125 8.152 608.005c-.44-37.56-.08-75.12-.2-112.681.2-30.92-1.48-62.24 5.2-92.68 14.6-75.041 62.721-142.482 128.721-180.962Z"/><path fill="#5D5D5D" d="M748.359 142.081c42.8 25.24 85.881 50.041 128.801 75.081 87.681 46.36 146.76 142.561 144.8 242.162-.04 51 0 102.001-.24 152.961-36.599-20.24-72.639-41.44-108.999-62.04-21.761-12.44-44.041-24.32-63.361-40.481-63.201-50.16-101.561-130.001-101.081-210.681-.04-52.361-.2-104.681.08-157.002Z"/><path fill="#B7B6B7" d="M2.353 683.126c7.12-37.56 43.2-66.28 81.32-65.24 21.761-.36 40.801 11.2 58.802 22.08 73.28 42.68 146.84 84.92 220.002 127.841 77.44 46.56 128.561 133.601 130.641 224.042.48 53.561.08 107.121.2 160.681-116.961-68.24-234.443-135.56-351.604-203.442-94.6-49.84-152.601-159.801-139.361-265.962Z"/><path fill="#8F8F8F" d="M897.681 629.326c20.8-12.281 47.001-15.281 69.681-6.441 26.4 9.201 46.838 33.041 52.318 60.401 12.28 100.801-39.158 205.922-126.359 258.002C772 1012.05 649.959 1081.57 528.758 1152.57c-.04-53.88-.28-107.72.08-161.561 2.08-90.241 53.28-177.082 130.641-223.362 79.241-46.401 158.802-92.241 238.202-138.321Z"/></g><defs><clipPath id="a"><path fill="#fff" d="M.479 0h1022v1153H.479z"/></clipPath></defs></svg>