<svg xmlns="http://www.w3.org/2000/svg" fill="none" viewBox="0 0 987 363"><g fill="#7F3311" clip-path="url(#a)"><path d="M790.6.148h7.014c7.56.493 14.986 2.4 21.946 5.413 24.094 9.867 44.547 28.014 57.787 50.36 7.04 12.6 13.013 26.787 11.667 41.52-.774 9.627-2.694 19.227-6.36 28.174-1.84 4.52-4.587 8.853-8.68 11.64-3.947 2.68-10.387 1.226-11.894-3.574-3.28-7.92-5.866-16.386-11.56-22.986-6.546-7.48-15.093-12.747-23.293-18.2-6.333-4.227-11.587-9.814-16.76-15.334-4.413-8.533-6.307-18.506-12.787-25.92-9.08-10.52-22.946-14.946-33.08-24.173-4.88-4.44-6.346-12.907-1.306-17.773C770.48 2.335 781.067.92 790.6.148Zm-737.773 25.8c9.013-7.88 18.533-15.52 25.667-25.24 15-.613 30.013.413 45.013.907 2.467.453 6.36-.48 7.44 2.546.88 3.16.24 6.92-2.453 9.027-20.2 19.347-40.4 38.72-60.414 58.267-3.4 3.306-6.626 6.8-10.346 9.76.213 1.026.653 3.066.866 4.08 24.947 22.373 49.627 45.08 72.654 69.453 15.973-35.8 25.426-73.973 39.413-110.507 2.6-3.44 7.96.227 8.453 3.72 2.947 16.387 10.96 31.16 16.28 46.787-1.613 4.107-3.186 8.213-4.48 12.44 2.987.373 7.054-1.147 8.88 2.107 5.08 7.106 8.534 15.56 9.627 24.226.6 2.747-1.533 5.787-4.467 5.48-8.386-.16-16.76-.653-25.146-.84-2.414 6.547-5.52 12.84-7.44 19.56-.507 2.547-2.68 4.134-4.307 5.96-10.36-1.333-20.813-.813-31.227-.906-3.226.08-6.266-.974-9.306-1.894-14.64 1.427-29.4 2.387-44.107 1.4-5.533.227-8.747-4.96-12.267-8.373-6.386-6.52-11.573-14.44-19.28-19.507.987-16.306 1.654-32.653 1-48.986-.32-1.734 1.24-2.88 2.027-4.227-4.827-2.147-3.027-7.453-3.013-11.6.786-14.533 1.826-29.08.933-43.64Zm126.92-4.92c1.6-7.173 3.12-15.36 9.173-20.253 7.947.413 15.947.333 23.88.933 2.84 1.8 1.16 6.093 1.573 8.92 19.467 29.4 30.907 63.027 42.307 96.12 5.6 16.84 11.48 33.6 16.48 50.627.507 5.36-6.08 4.786-9.653 4.866-10.067-.626-20.147-.866-30.227-.306-10.08-24.72-20.373-49.347-30.773-73.934-8.813-21.88-16.094-44.36-22.76-66.973Zm111.48-17.8c11.826-.6 23.706-1.84 35.586-1.093 1.814.346 2.987 1.8 3.974 3.226-.987 1.747-3.294 3.174-2.747 5.467 3.733 48.973 5.587 98.24 2.52 147.307a47.35 47.35 0 0 1-1.6 3.693c-12.04-.067-24.093.453-36.12.2-3.267-.027-2.027-4.04-1.427-5.867.72-2.133 1.16-4.36 1.107-6.6.28-46.693-2.653-93.333-2.773-140.013-.16-2.24.186-4.453 1.48-6.32Zm46.547 3.693c-.174-3.733 3.56-6.613 7.093-6.44 14.747.04 29.56-.133 44.24 1.534 3.587.2 4.64 4.386 4.613 7.346-.266 7.16.134 14.32.014 21.48-.307 3.8-.134 8.16-2.88 11.16-4.68-.52-9.28.867-13.947.84-11.64.267-23.28-.413-34.907-.226-2.026.12-3.786-1.24-4.96-2.747-.12-10.973.52-21.973.734-32.947Zm78.4-3.413c11.746-1.253 23.56-1.867 35.36-1.427 1.533.467 2.893 1.347 4.333 2.04-.573 2.374-2.92 4.214-2.693 6.734 3.733 48.973 5.546 98.213 2.533 147.266-.52 1.827-1.56 4.507-4.053 3.707-10.28.107-20.56.2-30.827.333-1.76-.106-4.787.387-5.027-2.12-.026-3.12 1.84-5.92 1.787-9.053.453-47.653-2.667-95.24-2.733-142.88-.16-1.707.28-3.24 1.32-4.6Zm49.106-1.4c1.787-1.413 3.974-1.88 6.214-1.653 14.213.106 28.48-.067 42.626 1.533 4.827.44 4.907 6.413 4.72 10.093-.853 9.72 1.947 20.16-2.16 29.347-16.266 2.64-32.8.867-49.2 1.187-2.72.213-6.066-1.974-5.426-5 .226-9.84.56-19.68.8-29.507.013-2.16.32-4.813 2.426-6Zm79.64-.04c12.987.733 26.134 1.347 39-1.107.88 49.093-2.533 98.12-3.013 147.187-.4 5.12 1.387 11.64-3.76 14.96-11.173-1.92-22.56-1.147-33.827-1.573-1.746.013-2.72-1.627-4-2.52 2.947-5.52-.013-11.68.254-17.534-.44-24.853-.374-49.733.866-74.56.494-19.6-.106-39.213-.426-58.813-.387-2.88 1.373-6.947 4.906-6.04Zm44.347.293c.84-.333 2.507-1 3.347-1.333 15.186 1.08 30.413.92 45.64.946 1.693-.04 3.306.547 4.933 1-.213 11.947.72 23.894.68 35.84.053 2.214-2.013 4.12-4.227 3.72-15.613.12-31.213-.066-46.826.094-1.707.253-3.187-.707-4.654-1.373.12-11.534-.706-23.054-.44-34.6 0-1.574.987-2.88 1.547-4.294ZM4.147 16.201c-.267-4.546-1.187-9.226.24-13.693C16.96 3.16 29.6 1.188 42.12 2.055c4.96 1.72-.346 5.4.053 8.613 3.6 44.413 4.907 89.067 2.934 133.613-.347 5.68.24 11.547-1.667 17.014-11.053.48-22.12.666-33.186.733-3.654.2-6.6-2.107-9.4-4.08v-1.48c2.653-29.373 5.333-58.8 5.466-88.307.054-17.346-.96-34.666-2.173-51.96ZM742.84 35.735c9.453-2.587 18.533 2.373 26.6 6.706 8.467 4.814 17.293 10.054 22.56 18.534 5.92 8.493 3.627 20.853 11.987 27.96 6.786 9.48 18.493 12.76 27.826 18.893 10.414 9.133 19.334 21 22.081 34.827.906 5.52 1.439 12.546-3.707 16.253-9.32 6.8-21.787 6.8-32.627 4.387-19.013-4.427-35.933-15.294-50.213-28.334-15.72-14.613-28.96-32.626-35.147-53.4-3.36-11.666-4.427-24.693.52-36.093 1.84-4.44 5.253-8.6 10.12-9.733ZM339.32 71.628c15.64-.213 31.28-.387 46.934-.56 1.68-.16 3.213.693 4.76 1.2-.414 11.533.573 23.067.613 34.6.133 1.8-1.12 3.253-1.747 4.84-15.44.64-30.893-.147-46.333.16-1.733.24-3.307-.56-4.88-1.093.187-11.52-1.08-23.027-.827-34.56-.093-1.72.4-3.254 1.48-4.587Zm123.707 3.106c.28-1.613 1.027-3.826 3.133-3.173 15.16-.067 30.32-.387 45.467-.48 1.613-.12 3.04.72 4.52 1.213-.427 8.827.307 17.654.413 26.48-.066 4.334 1.16 9.067-1.493 12.907-15.373.694-30.747-.133-46.12.187-1.827.213-3.507-.453-5.147-1.08.187-12.027-1.213-24.027-.773-36.053Zm126.32-3.173c1.853-1.08 4.226-.186 6.28-.293 13.306.88 26.64-.6 39.96-.053 4.76-.187 8.573 4.2 7.986 8.906-.4 9.08.534 18.294-1.146 27.28-.6 2-1.32 5.347-4.134 4.907-16.066-.987-32.173.667-48.226-.56-1.894-1.44-3.587-3.787-3.267-6.293.187-9.307.44-18.6.613-27.894.054-2.093.08-4.6 1.934-6Zm1.4 49.067c.467-.227 1.387-.667 1.84-.88 7.16-.28 14.347.027 21.507-.173 9.826.106 19.866-.574 29.493 1.826 1.867.72 5.027 1.4 5.107 3.854-.014 10.333-.454 20.666-.6 31 .16 2.88-1.254 5.84-3.734 7.32-15.426-.08-30.906.653-46.28-.894-3.8-.76-8.586-.666-11.186-3.973-.134-10.64.413-21.293.56-31.933-.174-2.494.973-5.04 3.293-6.147Zm-123.72 102.227c9.093-7.867 18.373-15.774 25.747-25.347 15.173-.467 30.346.4 45.506 1 2.2.32 4.974-.16 6.574 1.747 1.24 3.253.76 7.466-2.107 9.733-18.867 18.067-37.707 36.147-56.427 54.373-4.906 4.534-9.28 9.68-14.56 13.8.76 1.96.894 4.36 2.8 5.64 24.387 21.734 48.48 43.894 70.787 67.787 1.72 1.373 2.147 3.853.787 5.64-15.44 1.733-31.027 2.84-46.574 2.04-2.333-.307-5 .013-6.973-1.48-9.76-7.96-16.227-19.36-26.547-26.653 1.054-16.067 1.68-32.187 1.04-48.28-.346-1.96.907-3.507 2.054-4.92a124.902 124.902 0 0 1-3.48-2.88c.746-17.387 2.426-34.787 1.373-52.2ZM586.6 204.041c-.293-2.786 1.707-6.373 4.814-6.146 9.346.706 18.72.28 28.066.053 2.68-.053 6.254.667 7.094 3.64.386 2.627-.307 5.28-.08 7.933 5.266 29.92 3.6 60.454 3.093 90.667-.573 18-.92 36.013-1.853 53.986-.067 2.267-1.32 5.294-4.094 4.814-10.746-.427-21.493.507-32.226-.147-1.694-.08-3.094-1.146-4.574-1.773-.733-2.493-1.4-5.013-1.32-7.627-.493-22.226-1.093-44.493.2-66.706 1.587-26.2 1.16-52.467.88-78.694ZM5.12 199.828a308.916 308.916 0 0 1 36-1.12c1.667.413 2.827 1.8 4.16 2.787-1.013 1.36-2.04 2.72-3.08 4.066 3.44 49.254 5.2 98.734 2.413 148.08-.04 1.747-.96 3.28-1.533 4.88-12.32.267-24.666.627-36.973.294-3.307-2.814.76-7.2.413-10.694.44-48.066-2.72-96.08-2.72-144.133-.12-1.533.787-2.8 1.32-4.16Zm111.507 5.627c-.654-3.32 1.346-8.454 5.493-7.24 10.6 1.44 21.293.293 31.933.6 3.734.813 3.147 5.066 3.054 7.96-1.414 23.52.893 47.04.266 70.56-.346 6.933.16 13.866.574 20.786.346 8.014 5.08 15.987 12.466 19.387 1.387.773 2.787 1.533 4.08 2.467.734 8.933 1.267 17.88.96 26.84-.226 5.2 2.227 12.333-4.053 14.84-12.973-3.147-26.453-7.454-36.067-17.2-6.106-6.667-12.12-13.92-14.4-22.867-4.613-15.613-1.786-32.013-3.586-47.96-1.974-22.693.653-45.453-.72-68.173Zm86.293-2.467c.307-1.48 1.147-2.773 1.747-4.133 10.707.32 21.427.466 32.147.12 5.613-1.054 8.813 4.626 12.026 8.173-3.213 16.667-6.053 33.48-6.72 50.467-.826 18.253-1.973 36.56-5.333 54.546-2.027 9.92-4.88 19.827-9.72 28.774-8.773 12.186-23.973 16.826-38.027 19.68a502.554 502.554 0 0 0-3.786-2.054c0-12.226.066-24.466-.04-36.706 1.88-4.2 6.906-4.44 9.786-7.587 4.64-4.853 6.84-11.587 7.32-18.187 1.014-31.026-2-62.106.6-93.093Zm70.4-3.427c7.267-1.053 14.654-.933 21.974-.853 27.906 44.093 59.986 85.453 94.053 124.946l.96 1.547c-.067 9.48-.547 18.96-.773 28.44.053 1.92-.707 3.773-1.96 5.213-5.547.694-11.174.12-16.747.027-.973-2.6-2.387-5-4.387-6.933-18.84-20.107-36.32-41.494-51.693-64.36-13.267-19.72-27.973-38.414-42.453-57.227-.427-7.387-.227-14.813-.467-22.227.12-2.866-.653-6.24 1.493-8.573Zm74.987 4.427c-.053-1.867 1.013-3.467 1.733-5.107 11.667.387 23.36.547 35.027.08 2-.253 3.16 1.814 4.627 2.747-.734.587-2.214 1.747-2.947 2.333.587 21.347.04 42.72.773 64.067.28 8.933 2.174 17.773 1.854 26.733-.214 2.774-4.56 4-6.067 1.547-12.253-15-24.12-30.32-36.453-45.267.52-15.706.933-31.426 1.453-47.133Zm69.413.08c-.413-1.84.56-3.373 1.52-4.827 11.64.654 23.293-.666 34.947-.68 2.186-.346 3.56 1.654 4.986 2.92-1.013 1.387-2.026 2.787-3.04 4.174 4.014 46.053 5.12 92.386 3.054 138.573-.454 4.72.64 9.893-2.067 14.12-11.2.067-22.4.64-33.587.493-3.333-.013-5.92-2.306-8.52-4.04 2.387-28.84 5.214-57.693 5.494-86.666.2-21.387-1.28-42.747-2.787-64.067Zm133 4.08c.027-3.013-.987-7.053 2.147-8.933 5.746-.52 11.533-.08 17.293-.387 3.653.013 7.56-.813 10.893 1.147-.4 11.613.734 23.213.534 34.84.066 2.026-1.067 4.893-3.507 4.68-7.533.173-15.067.04-22.6.066-2.627.134-6.72-1.346-5.92-4.666.907-8.88 1.653-17.814 1.16-26.747Zm84.36-5.32c.027-2.32 1.933-5.067 4.52-4.72 6.653.107 13.427-.293 19.973 1.133 1.6.387 3.854 1.254 3.627 3.32.227 10.8.64 21.614.267 32.414.36 2.653-2 3.986-3.707 5.426-6.787-.666-13.587-.64-20.373-.88-1.52.054-2.72-.986-4-1.56-.12-11.706-.614-23.426-.307-35.133Zm50.387 1.267c-.187-2.547 1.64-5.827 4.6-5.187 13.106.72 26.36 1.387 39.333-1.067.813 50.134-2.653 100.214-3.067 150.334-.28 3.413.667 7.493-1.933 10.24-1.427 2.146-4.147.986-6.16.96-9.347-1.134-18.773-.68-28.147-.827-1.893.133-3.666-.773-4.853-2.187.013-2.626 1.333-5.133.747-7.76-1.627-11.173-.96-22.466-1.214-33.693.08-16.053.12-32.12 1.014-48.16.76-20.88-.054-41.773-.32-62.653Zm49.08-4.84c3.626-1.96 7.733-1.054 11.64-.907 12.453.6 24.933.44 37.4.467 1.826-.16 3.52.613 5.186 1.266-.493 12 .68 24.014.56 36.014-.36 2.226-2.266 3.706-4.493 3.28-15.56.106-31.133-.094-46.693.12-1.707.16-3.16-.36-4.36-1.56-.28-11.307-.747-22.614-.6-33.934-.107-1.706.813-3.186 1.36-4.746Zm82.333.08c7.24-.534 14.494-.747 21.76-.747 27.48 43.027 58.667 83.587 91.987 122.24 1.253 1.813 3.72 3.32 3.28 5.853-.227 8.88-.547 17.76-.787 26.64-.133 2.107-.52 5.08-2.893 5.747-5.36.267-10.707-.067-16.053-.107-17.374-21.76-35.84-42.706-51.814-65.56-13.84-20.293-28.346-40.12-43.773-59.24-1.267-1.76-3.267-3.413-2.893-5.84-.067-8.053-.28-16.12-.307-24.173-.253-1.773.84-3.267 1.493-4.813Zm75 4.706c.067-2.04.76-5.44 3.507-5.16 11.133.48 22.293.467 33.44.08 1.68-.106 2.986 1.28 3.906 2.534-.44 4.053-2.506 7.813-2.226 11.946.44 26.747-.614 53.587 2.453 80.2.867 3.2-3.973 5.574-5.92 2.947-12.32-15.093-24.293-30.48-36.653-45.56.6-15.653.946-31.333 1.493-46.987Zm-840.333.067c-.507-2.92 2.533-5.333 5.293-4.72 11.027.907 21.373 6.693 28.387 15.173 7.426 8.987 11.72 20.507 12.133 32.147-1.12 12.36-4.56 25.093-12.547 34.867-7.093 8.706-18.266 13.16-29.266 13.893-2.934-.187-5.254-2.973-5.08-5.853-.187-11.507-.067-23.014-.147-34.507 3.227-.12 6.96.827 9.68-1.4 3.813-2.68 4.08-8.907.467-11.88-2.747-2.613-6.84-1.8-10.28-1.933 1.333-11.88 2.106-23.84 1.36-35.787Zm763.013 61.267c.56-2.694.733-7.707 4.453-7.56 4.827 4.053 8.4 9.333 12.307 14.24a639.352 639.352 0 0 1 21.84 30.48c.893 1.2 1.493 2.626 1.52 4.16 1.293 14.226 2.28 28.493 2.053 42.786-.146 2.92-.28 6.04-1.906 8.574-3.387 1.96-7.574.426-11.28.84-9.027-.427-18.32 1.306-27.16-.987 1.546-3.507.613-7.36.573-11.027-1.107-27.16-4.107-54.333-2.4-81.506Zm-544.053 9.44c.24-5.987-.36-12.707 3.707-17.654 4.893 3.094 8.066 8.067 11.68 12.467 8.64 11.427 17.32 22.893 24.906 35.053 1.694 15.267 2.627 30.667 2.307 46.04-.36 2.96-.267 8.134-4.36 8.254-8.027-.12-16.04-.08-24.053.08-3.974-.067-8.12.253-11.894-1.24a10.921 10.921 0 0 0 .88-5.52c-1.053-25.827-3.613-51.614-3.173-77.48Zm462.52-2.854c.12-1.933 1.52-4.48 3.827-4.026 14.186 1.066 28.4-.134 42.6.013 3.813-.173 8.346 1.507 9.213 5.667.893 6.586-.107 13.28.187 19.92-.294 5.12.213 11.066-3.187 15.293-2.84.813-5.893.067-8.8.147-13.267-.52-26.547.613-39.8-.174-2.653.227-3.48-2.786-4.893-4.426.386-10.8.386-21.614.853-32.414Zm1.146 46.814a96.536 96.536 0 0 0 3.974-2.174c13.4.094 26.8-.613 40.186.094 5.48.466 11.547.653 15.96 4.4-.373 11.186-.426 22.386-.826 33.573-.054 2.347-1.96 4.04-3.187 5.867-16.653-.454-33.44.92-49.987-1.467-3.026-.787-8.626-1.133-8.026-5.533.16-9.84.44-19.68.626-29.507-.093-1.853.574-3.587 1.28-5.253Zm213.921 26.626c-3.44-10.333 3.52-22.493 14.253-24.6 10.8-2.813 22.28 5.227 23.84 16.187v5.093c-1.093 7.72-6.773 14.694-14.493 16.467-9.734 2.773-20.934-3.32-23.6-13.147Zm12.28-17.64c4.893.16 11.853-1.786 15.106 3.12 2.48 4.134-.986 8.614-5.053 9.734 3.213 2.773 5.253 6.56 7.467 10.133-1.174-.013-3.52-.013-4.694-.027-2.586-4.36-4.786-10.826-11.08-10-.026 3.334-.013 6.68-.026 10.04-.934-.013-2.814-.04-3.747-.04.387-7.786-.84-15.773.733-23.413-1.2-.12-2.4-.2-3.573-.2-1.68 3.347-4.293 6.347-4.733 10.187-1.334 7.613 3.68 15.693 11.133 17.813 8.307 2.907 18.24-2.453 20.373-10.987 2.707-8.573-3.253-18.506-12.106-20.12-3.654-1.293-7.32.84-10.934.414.347 1.12.72 2.226 1.134 3.346Zm1.733 2.92a628.21 628.21 0 0 0 0 7c2.68-.093 5.427.187 8.067-.506 2.32-.787 2.866-4.28.653-5.56-2.667-1.347-5.853-.68-8.72-.934Z"/></g><defs><clipPath id="a"><path fill="#fff" d="M.854.148h985.333v362.667H.854z"/></clipPath></defs></svg>