<svg width="987" height="363" viewBox="0 0 987 363" fill="none" xmlns="http://www.w3.org/2000/svg">
<g clip-path="url(#clip0_1_439)">
<path d="M790.6 0.147949H797.614C805.174 0.641283 812.6 2.54795 819.56 5.56128C843.654 15.4279 864.107 33.5746 877.347 55.9213C884.387 68.5213 890.36 82.708 889.014 97.4413C888.24 107.068 886.32 116.668 882.654 125.615C880.814 130.135 878.067 134.468 873.974 137.255C870.027 139.935 863.587 138.481 862.08 133.681C858.8 125.761 856.214 117.295 850.52 110.695C843.974 103.215 835.427 97.948 827.227 92.4946C820.894 88.268 815.64 82.6813 810.467 77.1613C806.054 68.6279 804.16 58.6546 797.68 51.2413C788.6 40.7213 774.734 36.2946 764.6 27.068C759.72 22.628 758.254 14.1613 763.294 9.29462C770.48 2.33462 781.067 0.921283 790.6 0.147949Z" fill="black"/>
<path d="M52.8269 25.9479C61.8402 18.0679 71.3602 10.4279 78.4936 0.707886C93.4936 0.0945528 108.507 1.12122 123.507 1.61455C125.974 2.06789 129.867 1.13455 130.947 4.16122C131.827 7.32122 131.187 11.0812 128.494 13.1879C108.294 32.5346 88.0936 51.9079 68.0802 71.4546C64.6802 74.7612 61.4536 78.2546 57.7336 81.2146C57.9469 82.2412 58.3869 84.2812 58.6002 85.2946C83.5469 107.668 108.227 130.375 131.254 154.748C147.227 118.948 156.68 80.7746 170.667 44.2412C173.267 40.8012 178.627 44.4679 179.12 47.9612C182.067 64.3479 190.08 79.1212 195.4 94.7479C193.787 98.8546 192.214 102.961 190.92 107.188C193.907 107.561 197.974 106.041 199.8 109.295C204.88 116.401 208.334 124.855 209.427 133.521C210.027 136.268 207.894 139.308 204.96 139.001C196.574 138.841 188.2 138.348 179.814 138.161C177.4 144.708 174.294 151.001 172.374 157.721C171.867 160.268 169.694 161.855 168.067 163.681C157.707 162.348 147.254 162.868 136.84 162.775C133.614 162.855 130.574 161.801 127.534 160.881C112.894 162.308 98.1336 163.268 83.4269 162.281C77.8936 162.508 74.6802 157.321 71.1602 153.908C64.7736 147.388 59.5869 139.468 51.8802 134.401C52.8669 118.095 53.5336 101.748 52.8802 85.4146C52.5602 83.6812 54.1202 82.5346 54.9069 81.1879C50.0802 79.0412 51.8802 73.7346 51.8936 69.5879C52.6802 55.0546 53.7202 40.5079 52.8269 25.9479Z" fill="black"/>
<path d="M179.747 21.028C181.347 13.8547 182.867 5.66799 188.92 0.774658C196.867 1.18799 204.867 1.10799 212.8 1.70799C215.64 3.50799 213.96 7.80133 214.373 10.628C233.84 40.028 245.28 73.6547 256.68 106.748C262.28 123.588 268.16 140.348 273.16 157.375C273.667 162.735 267.08 162.161 263.507 162.241C253.44 161.615 243.36 161.375 233.28 161.935C223.2 137.215 212.907 112.588 202.507 88.0013C193.694 66.1213 186.413 43.6413 179.747 21.028Z" fill="black"/>
<path d="M291.227 3.22798C303.053 2.62798 314.933 1.38798 326.813 2.13465C328.627 2.48132 329.8 3.93465 330.787 5.36132C329.8 7.10798 327.493 8.53465 328.04 10.828C331.773 59.8013 333.627 109.068 330.56 158.135C330.08 159.388 329.547 160.615 328.96 161.828C316.92 161.761 304.867 162.281 292.84 162.028C289.573 162.001 290.813 157.988 291.413 156.161C292.133 154.028 292.573 151.801 292.52 149.561C292.8 102.868 289.867 56.228 289.747 9.54798C289.587 7.30798 289.933 5.09465 291.227 3.22798Z" fill="black"/>
<path d="M337.774 6.92131C337.6 3.18797 341.334 0.307975 344.867 0.481308C359.614 0.521308 374.427 0.347975 389.107 2.01464C392.694 2.21464 393.747 6.40131 393.72 9.36131C393.454 16.5213 393.854 23.6813 393.734 30.8413C393.427 34.6413 393.6 39.0013 390.854 42.0013C386.174 41.4813 381.574 42.868 376.907 42.8413C365.267 43.108 353.627 42.428 342 42.6146C339.974 42.7346 338.214 41.3746 337.04 39.868C336.92 28.8946 337.56 17.8946 337.774 6.92131Z" fill="black"/>
<path d="M416.174 3.50799C427.92 2.25465 439.734 1.64132 451.534 2.08132C453.067 2.54799 454.427 3.42799 455.867 4.12132C455.294 6.49465 452.947 8.33465 453.174 10.8547C456.907 59.828 458.72 109.068 455.707 158.121C455.187 159.948 454.147 162.628 451.654 161.828C441.374 161.935 431.094 162.028 420.827 162.161C419.067 162.055 416.04 162.548 415.8 160.041C415.774 156.921 417.64 154.121 417.587 150.988C418.04 103.335 414.92 55.748 414.854 8.10799C414.694 6.40132 415.134 4.86799 416.174 3.50799Z" fill="black"/>
<path d="M465.28 2.108C467.067 0.694664 469.254 0.227997 471.494 0.454664C485.707 0.56133 499.974 0.387997 514.12 1.988C518.947 2.428 519.027 8.40133 518.84 12.0813C517.987 21.8013 520.787 32.2413 516.68 41.428C500.414 44.068 483.88 42.2947 467.48 42.6147C464.76 42.828 461.414 40.6413 462.054 37.6147C462.28 27.7747 462.614 17.9347 462.854 8.108C462.867 5.948 463.174 3.29466 465.28 2.108Z" fill="black"/>
<path d="M544.92 2.06785C557.907 2.80118 571.054 3.41452 583.92 0.961182C584.8 50.0545 581.387 99.0812 580.907 148.148C580.507 153.268 582.294 159.788 577.147 163.108C565.974 161.188 554.587 161.961 543.32 161.535C541.574 161.548 540.6 159.908 539.32 159.015C542.267 153.495 539.307 147.335 539.574 141.481C539.134 116.628 539.2 91.7479 540.44 66.9212C540.934 47.3212 540.334 27.7078 540.014 8.10785C539.627 5.22785 541.387 1.16118 544.92 2.06785Z" fill="black"/>
<path d="M589.267 2.36117C590.107 2.02783 591.774 1.36117 592.614 1.02783C607.8 2.10783 623.027 1.94783 638.254 1.9745C639.947 1.9345 641.56 2.52117 643.187 2.9745C642.974 14.9212 643.907 26.8678 643.867 38.8145C643.92 41.0278 641.854 42.9345 639.64 42.5345C624.027 42.6545 608.427 42.4678 592.814 42.6278C591.107 42.8812 589.627 41.9212 588.16 41.2545C588.28 29.7212 587.454 18.2012 587.72 6.6545C587.72 5.08117 588.707 3.7745 589.267 2.36117Z" fill="black"/>
<path d="M4.14685 16.2013C3.88018 11.6546 2.96018 6.97459 4.38685 2.50792C16.9602 3.16125 29.6002 1.18792 42.1202 2.05459C47.0802 3.77459 41.7735 7.45459 42.1735 10.6679C45.7735 55.0813 47.0802 99.7346 45.1068 144.281C44.7602 149.961 45.3469 155.828 43.4402 161.295C32.3869 161.775 21.3202 161.961 10.2535 162.028C6.60018 162.228 3.65352 159.921 0.853516 157.948V156.468C3.50685 127.095 6.18685 97.6679 6.32018 68.1613C6.37352 50.8146 5.36018 33.4946 4.14685 16.2013Z" fill="black"/>
<path d="M742.84 35.7347C752.293 33.148 761.373 38.108 769.44 42.4413C777.907 47.2547 786.733 52.4947 792 60.9747C797.92 69.468 795.627 81.828 803.987 88.9347C810.773 98.4147 822.48 101.695 831.813 107.828C842.227 116.961 851.147 128.828 853.894 142.655C854.8 148.175 855.333 155.201 850.187 158.908C840.867 165.708 828.4 165.708 817.56 163.295C798.547 158.868 781.627 148.001 767.347 134.961C751.627 120.348 738.387 102.335 732.2 81.5613C728.84 69.8947 727.773 56.868 732.72 45.468C734.56 41.028 737.973 36.868 742.84 35.7347Z" fill="black"/>
<path d="M339.32 71.628C354.96 71.4147 370.6 71.2413 386.254 71.068C387.934 70.908 389.467 71.7614 391.014 72.268C390.6 83.8014 391.587 95.3347 391.627 106.868C391.76 108.668 390.507 110.121 389.88 111.708C374.44 112.348 358.987 111.561 343.547 111.868C341.814 112.108 340.24 111.308 338.667 110.775C338.854 99.2547 337.587 87.748 337.84 76.2147C337.747 74.4947 338.24 72.9614 339.32 71.628Z" fill="black"/>
<path d="M463.027 74.7345C463.307 73.1212 464.054 70.9078 466.16 71.5612C481.32 71.4945 496.48 71.1745 511.627 71.0812C513.24 70.9612 514.667 71.8012 516.147 72.2945C515.72 81.1212 516.454 89.9478 516.56 98.7745C516.494 103.108 517.72 107.841 515.067 111.681C499.694 112.375 484.32 111.548 468.947 111.868C467.12 112.081 465.44 111.415 463.8 110.788C463.987 98.7612 462.587 86.7612 463.027 74.7345Z" fill="black"/>
<path d="M589.347 71.5613C591.2 70.4813 593.573 71.3746 595.627 71.268C608.933 72.148 622.267 70.668 635.587 71.2146C640.347 71.028 644.16 75.4146 643.573 80.1213C643.173 89.2013 644.107 98.4147 642.427 107.401C641.827 109.401 641.107 112.748 638.293 112.308C622.227 111.321 606.12 112.975 590.067 111.748C588.173 110.308 586.48 107.961 586.8 105.455C586.987 96.148 587.24 86.8547 587.413 77.5613C587.467 75.468 587.493 72.9613 589.347 71.5613Z" fill="black"/>
<path d="M590.747 120.628C591.214 120.401 592.134 119.961 592.587 119.748C599.747 119.468 606.934 119.775 614.094 119.575C623.92 119.681 633.96 119.001 643.587 121.401C645.454 122.121 648.614 122.801 648.694 125.255C648.68 135.588 648.24 145.921 648.094 156.255C648.254 159.135 646.84 162.095 644.36 163.575C628.934 163.495 613.454 164.228 598.08 162.681C594.28 161.921 589.494 162.015 586.894 158.708C586.76 148.068 587.307 137.415 587.454 126.775C587.28 124.281 588.427 121.735 590.747 120.628Z" fill="black"/>
<path d="M467.027 222.855C476.12 214.988 485.4 207.081 492.774 197.508C507.947 197.041 523.12 197.908 538.28 198.508C540.48 198.828 543.254 198.348 544.854 200.255C546.094 203.508 545.614 207.721 542.747 209.988C523.88 228.055 505.04 246.135 486.32 264.361C481.414 268.895 477.04 274.041 471.76 278.161C472.52 280.121 472.654 282.521 474.56 283.801C498.947 305.535 523.04 327.695 545.347 351.588C547.067 352.961 547.494 355.441 546.134 357.228C530.694 358.961 515.107 360.068 499.56 359.268C497.227 358.961 494.56 359.281 492.587 357.788C482.827 349.828 476.36 338.428 466.04 331.135C467.094 315.068 467.72 298.948 467.08 282.855C466.734 280.895 467.987 279.348 469.134 277.935C467.947 276.988 466.787 276.028 465.654 275.055C466.4 257.668 468.08 240.268 467.027 222.855Z" fill="black"/>
<path d="M586.6 204.041C586.307 201.255 588.307 197.668 591.414 197.895C600.76 198.601 610.134 198.175 619.48 197.948C622.16 197.895 625.734 198.615 626.574 201.588C626.96 204.215 626.267 206.868 626.494 209.521C631.76 239.441 630.094 269.975 629.587 300.188C629.014 318.188 628.667 336.201 627.734 354.175C627.667 356.441 626.414 359.468 623.64 358.988C612.894 358.561 602.147 359.495 591.414 358.841C589.72 358.761 588.32 357.695 586.84 357.068C586.107 354.575 585.44 352.055 585.52 349.441C585.027 327.215 584.427 304.948 585.72 282.735C587.307 256.535 586.88 230.268 586.6 204.041Z" fill="black"/>
<path d="M5.12012 199.828C17.0801 198.761 29.1068 198.375 41.1201 198.708C42.7868 199.121 43.9468 200.508 45.2801 201.495C44.2668 202.855 43.2401 204.215 42.2001 205.561C45.6401 254.815 47.4001 304.295 44.6135 353.641C44.5735 355.388 43.6535 356.921 43.0801 358.521C30.7601 358.788 18.4135 359.148 6.10679 358.815C2.80012 356.001 6.86679 351.615 6.52012 348.121C6.96012 300.055 3.80012 252.041 3.80012 203.988C3.68012 202.455 4.58679 201.188 5.12012 199.828Z" fill="black"/>
<path d="M116.627 205.455C115.973 202.135 117.973 197.001 122.12 198.215C132.72 199.655 143.413 198.508 154.053 198.815C157.787 199.628 157.2 203.881 157.107 206.775C155.693 230.295 158 253.815 157.373 277.335C157.027 284.268 157.533 291.201 157.947 298.121C158.293 306.135 163.027 314.108 170.413 317.508C171.8 318.281 173.2 319.041 174.493 319.975C175.227 328.908 175.76 337.855 175.453 346.815C175.227 352.015 177.68 359.148 171.4 361.655C158.427 358.508 144.947 354.201 135.333 344.455C129.227 337.788 123.213 330.535 120.933 321.588C116.32 305.975 119.147 289.575 117.347 273.628C115.373 250.935 118 228.175 116.627 205.455Z" fill="black"/>
<path d="M202.92 202.988C203.227 201.508 204.067 200.215 204.667 198.855C215.374 199.175 226.094 199.321 236.814 198.975C242.427 197.921 245.627 203.601 248.84 207.148C245.627 223.815 242.787 240.628 242.12 257.615C241.294 275.868 240.147 294.175 236.787 312.161C234.76 322.081 231.907 331.988 227.067 340.935C218.294 353.121 203.094 357.761 189.04 360.615C187.774 359.921 186.52 359.241 185.254 358.561C185.254 346.335 185.32 334.095 185.214 321.855C187.094 317.655 192.12 317.415 195 314.268C199.64 309.415 201.84 302.681 202.32 296.081C203.334 265.055 200.32 233.975 202.92 202.988Z" fill="black"/>
<path d="M273.32 199.561C280.587 198.508 287.974 198.628 295.294 198.708C323.2 242.801 355.28 284.161 389.347 323.654C389.587 324.041 390.067 324.814 390.307 325.201C390.24 334.681 389.76 344.161 389.534 353.641C389.587 355.561 388.827 357.414 387.574 358.854C382.027 359.548 376.4 358.974 370.827 358.881C369.854 356.281 368.44 353.881 366.44 351.948C347.6 331.841 330.12 310.454 314.747 287.588C301.48 267.868 286.774 249.174 272.294 230.361C271.867 222.974 272.067 215.548 271.827 208.134C271.947 205.268 271.174 201.894 273.32 199.561Z" fill="black"/>
<path d="M348.307 203.988C348.254 202.121 349.32 200.521 350.04 198.881C361.707 199.268 373.4 199.428 385.067 198.961C387.067 198.708 388.227 200.775 389.694 201.708C388.96 202.295 387.48 203.455 386.747 204.041C387.334 225.388 386.787 246.761 387.52 268.108C387.8 277.041 389.694 285.881 389.374 294.841C389.16 297.615 384.814 298.841 383.307 296.388C371.054 281.388 359.187 266.068 346.854 251.121C347.374 235.415 347.787 219.695 348.307 203.988Z" fill="black"/>
<path d="M417.72 204.068C417.307 202.228 418.28 200.695 419.24 199.241C430.88 199.895 442.533 198.575 454.187 198.561C456.373 198.215 457.747 200.215 459.173 201.481C458.16 202.868 457.147 204.268 456.133 205.655C460.147 251.708 461.253 298.041 459.187 344.228C458.733 348.948 459.827 354.121 457.12 358.348C445.92 358.415 434.72 358.988 423.533 358.841C420.2 358.828 417.613 356.535 415.013 354.801C417.4 325.961 420.227 297.108 420.507 268.135C420.707 246.748 419.227 225.388 417.72 204.068Z" fill="black"/>
<path d="M550.72 208.148C550.747 205.135 549.733 201.095 552.867 199.215C558.613 198.695 564.4 199.135 570.16 198.828C573.813 198.841 577.72 198.015 581.053 199.975C580.653 211.588 581.787 223.188 581.587 234.815C581.653 236.841 580.52 239.708 578.08 239.495C570.547 239.668 563.013 239.535 555.48 239.561C552.853 239.695 548.76 238.215 549.56 234.895C550.467 226.015 551.213 217.081 550.72 208.148Z" fill="black"/>
<path d="M635.08 202.828C635.107 200.508 637.013 197.761 639.6 198.108C646.253 198.215 653.027 197.815 659.573 199.241C661.173 199.628 663.427 200.495 663.2 202.561C663.427 213.361 663.84 224.175 663.467 234.975C663.827 237.628 661.467 238.961 659.76 240.401C652.973 239.735 646.173 239.761 639.387 239.521C637.867 239.575 636.667 238.535 635.387 237.961C635.267 226.255 634.773 214.535 635.08 202.828Z" fill="black"/>
<path d="M685.467 204.095C685.28 201.548 687.107 198.268 690.067 198.908C703.173 199.628 716.427 200.295 729.4 197.841C730.213 247.975 726.747 298.055 726.333 348.175C726.053 351.588 727 355.668 724.4 358.415C722.973 360.561 720.253 359.401 718.24 359.375C708.893 358.241 699.467 358.695 690.093 358.548C688.2 358.681 686.427 357.775 685.24 356.361C685.253 353.735 686.573 351.228 685.987 348.601C684.36 337.428 685.027 326.135 684.773 314.908C684.853 298.855 684.893 282.788 685.787 266.748C686.547 245.868 685.733 224.975 685.467 204.095Z" fill="black"/>
<path d="M734.547 199.255C738.173 197.295 742.28 198.201 746.187 198.348C758.64 198.948 771.12 198.788 783.587 198.815C785.413 198.655 787.107 199.428 788.773 200.081C788.28 212.081 789.453 224.095 789.333 236.095C788.973 238.321 787.067 239.801 784.84 239.375C769.28 239.481 753.707 239.281 738.147 239.495C736.44 239.655 734.987 239.135 733.787 237.935C733.507 226.628 733.04 215.321 733.187 204.001C733.08 202.295 734 200.815 734.547 199.255Z" fill="black"/>
<path d="M816.88 199.335C824.12 198.801 831.374 198.588 838.64 198.588C866.12 241.615 897.307 282.175 930.627 320.828C931.88 322.641 934.347 324.148 933.907 326.681C933.68 335.561 933.36 344.441 933.12 353.321C932.987 355.428 932.6 358.401 930.227 359.068C924.867 359.335 919.52 359.001 914.174 358.961C896.8 337.201 878.334 316.255 862.36 293.401C848.52 273.108 834.014 253.281 818.587 234.161C817.32 232.401 815.32 230.748 815.694 228.321C815.627 220.268 815.414 212.201 815.387 204.148C815.134 202.375 816.227 200.881 816.88 199.335Z" fill="black"/>
<path d="M891.88 204.041C891.947 202.001 892.64 198.601 895.387 198.881C906.52 199.361 917.68 199.348 928.827 198.961C930.507 198.855 931.813 200.241 932.733 201.495C932.293 205.548 930.227 209.308 930.507 213.441C930.947 240.188 929.893 267.028 932.96 293.641C933.827 296.841 928.987 299.215 927.04 296.588C914.72 281.495 902.747 266.108 890.387 251.028C890.987 235.375 891.333 219.695 891.88 204.041Z" fill="black"/>
<path d="M51.5468 204.108C51.0401 201.188 54.0801 198.775 56.8401 199.388C67.8668 200.295 78.2134 206.081 85.2268 214.561C92.6534 223.548 96.9468 235.068 97.3601 246.708C96.2401 259.068 92.8001 271.801 84.8134 281.575C77.7201 290.281 66.5468 294.735 55.5468 295.468C52.6134 295.281 50.2934 292.495 50.4668 289.615C50.2801 278.108 50.4001 266.601 50.3201 255.108C53.5468 254.988 57.2801 255.935 60.0001 253.708C63.8134 251.028 64.0801 244.801 60.4668 241.828C57.7201 239.215 53.6268 240.028 50.1868 239.895C51.5201 228.015 52.2934 216.055 51.5468 204.108Z" fill="black"/>
<path d="M814.56 265.375C815.12 262.681 815.293 257.668 819.013 257.815C823.84 261.868 827.413 267.148 831.32 272.055C838.893 281.988 846.173 292.161 853.16 302.535C854.053 303.735 854.653 305.161 854.68 306.695C855.973 320.921 856.96 335.188 856.733 349.481C856.587 352.401 856.453 355.521 854.827 358.055C851.44 360.015 847.253 358.481 843.547 358.895C834.52 358.468 825.227 360.201 816.387 357.908C817.933 354.401 817 350.548 816.96 346.881C815.853 319.721 812.853 292.548 814.56 265.375Z" fill="black"/>
<path d="M270.507 274.815C270.747 268.828 270.147 262.108 274.214 257.161C279.107 260.255 282.28 265.228 285.894 269.628C294.534 281.055 303.214 292.521 310.8 304.681C312.494 319.948 313.427 335.348 313.107 350.721C312.747 353.681 312.84 358.855 308.747 358.975C300.72 358.855 292.707 358.895 284.694 359.055C280.72 358.988 276.574 359.308 272.8 357.815C273.574 356.041 273.867 354.201 273.68 352.295C272.627 326.468 270.067 300.681 270.507 274.815Z" fill="black"/>
<path d="M733.027 271.961C733.147 270.028 734.547 267.481 736.854 267.935C751.04 269.001 765.254 267.801 779.454 267.948C783.267 267.775 787.8 269.455 788.667 273.615C789.56 280.201 788.56 286.895 788.854 293.535C788.56 298.655 789.067 304.601 785.667 308.828C782.827 309.641 779.774 308.895 776.867 308.975C763.6 308.455 750.32 309.588 737.067 308.801C734.414 309.028 733.587 306.015 732.174 304.375C732.56 293.575 732.56 282.761 733.027 271.961Z" fill="black"/>
<path d="M734.173 318.775C735.507 318.081 736.84 317.361 738.147 316.601C751.547 316.695 764.947 315.988 778.333 316.695C783.813 317.161 789.88 317.348 794.293 321.095C793.92 332.281 793.867 343.481 793.467 354.668C793.413 357.015 791.507 358.708 790.28 360.535C773.627 360.081 756.84 361.455 740.293 359.068C737.267 358.281 731.667 357.935 732.267 353.535C732.427 343.695 732.707 333.855 732.893 324.028C732.8 322.175 733.467 320.441 734.173 318.775Z" fill="black"/>
<path d="M948.094 345.401C944.654 335.068 951.614 322.908 962.347 320.801C973.147 317.988 984.627 326.028 986.187 336.988V342.081C985.094 349.801 979.414 356.775 971.694 358.548C961.96 361.321 950.76 355.228 948.094 345.401ZM960.374 327.761C965.267 327.921 972.227 325.975 975.48 330.881C977.96 335.015 974.494 339.495 970.427 340.615C973.64 343.388 975.68 347.175 977.894 350.748C976.72 350.735 974.374 350.735 973.2 350.721C970.614 346.361 968.414 339.895 962.12 340.721C962.094 344.055 962.107 347.401 962.094 350.761C961.16 350.748 959.28 350.721 958.347 350.721C958.734 342.935 957.507 334.948 959.08 327.308C957.88 327.188 956.68 327.108 955.507 327.108C953.827 330.455 951.214 333.455 950.774 337.295C949.44 344.908 954.454 352.988 961.907 355.108C970.214 358.015 980.147 352.655 982.28 344.121C984.987 335.548 979.027 325.615 970.174 324.001C966.52 322.708 962.854 324.841 959.24 324.415C959.587 325.535 959.96 326.641 960.374 327.761ZM962.107 330.681C962.094 333.015 962.094 335.348 962.107 337.681C964.787 337.588 967.534 337.868 970.174 337.175C972.494 336.388 973.04 332.895 970.827 331.615C968.16 330.268 964.974 330.935 962.107 330.681Z" fill="black"/>
</g>
<defs>
<clipPath id="clip0_1_439">
<rect width="985.333" height="362.667" fill="white" transform="translate(0.853516 0.147949)"/>
</clipPath>
</defs>
</svg>
