<svg width="986" height="363" viewBox="0 0 986 363" fill="none" xmlns="http://www.w3.org/2000/svg">
<g clip-path="url(#clip0_1_491)">
<path d="M789.933 0.147949H796.947C804.507 0.641283 811.933 2.54795 818.893 5.56128C842.987 15.4279 863.44 33.5746 876.68 55.9213C883.72 68.5213 889.693 82.708 888.347 97.4413C887.573 107.068 885.653 116.668 881.987 125.615C880.147 130.135 877.4 134.468 873.307 137.255C869.36 139.935 862.92 138.481 861.413 133.681C858.133 125.761 855.547 117.295 849.853 110.695C843.307 103.215 834.76 97.948 826.56 92.4946C820.227 88.268 814.973 82.6813 809.8 77.1613C805.387 68.6279 803.493 58.6546 797.013 51.2413C787.933 40.7213 774.067 36.2946 763.933 27.068C759.053 22.628 757.587 14.1613 762.627 9.29462C769.813 2.33462 780.4 0.921283 789.933 0.147949Z" fill="white"/>
<path d="M52.1599 25.9479C61.1732 18.0679 70.6932 10.4279 77.8266 0.707886C92.8266 0.0945528 107.84 1.12122 122.84 1.61455C125.307 2.06789 129.2 1.13455 130.28 4.16122C131.16 7.32122 130.52 11.0812 127.827 13.1879C107.627 32.5346 87.4266 51.9079 67.4132 71.4546C64.0132 74.7612 60.7866 78.2546 57.0666 81.2146C57.2799 82.2412 57.7199 84.2812 57.9332 85.2946C82.8799 107.668 107.56 130.375 130.587 154.748C146.56 118.948 156.013 80.7746 170 44.2412C172.6 40.8012 177.96 44.4679 178.453 47.9612C181.4 64.3479 189.413 79.1212 194.733 94.7479C193.12 98.8546 191.547 102.961 190.253 107.188C193.24 107.561 197.307 106.041 199.133 109.295C204.213 116.401 207.667 124.855 208.76 133.521C209.36 136.268 207.227 139.308 204.293 139.001C195.907 138.841 187.533 138.348 179.147 138.161C176.733 144.708 173.627 151.001 171.707 157.721C171.2 160.268 169.027 161.855 167.4 163.681C157.04 162.348 146.587 162.868 136.173 162.775C132.947 162.855 129.907 161.801 126.867 160.881C112.227 162.308 97.4666 163.268 82.7599 162.281C77.2266 162.508 74.0132 157.321 70.4932 153.908C64.1066 147.388 58.9199 139.468 51.2132 134.401C52.1999 118.095 52.8666 101.748 52.2132 85.4146C51.8932 83.6812 53.4532 82.5346 54.2399 81.1879C49.4132 79.0412 51.2132 73.7346 51.2266 69.5879C52.0132 55.0546 53.0532 40.5079 52.1599 25.9479Z" fill="white"/>
<path d="M179.08 21.028C180.68 13.8547 182.2 5.66799 188.253 0.774658C196.2 1.18799 204.2 1.10799 212.133 1.70799C214.973 3.50799 213.293 7.80133 213.707 10.628C233.173 40.028 244.613 73.6547 256.013 106.748C261.613 123.588 267.493 140.348 272.493 157.375C273 162.735 266.413 162.161 262.84 162.241C252.773 161.615 242.693 161.375 232.613 161.935C222.533 137.215 212.24 112.588 201.84 88.0013C193.027 66.1213 185.747 43.6413 179.08 21.028Z" fill="white"/>
<path d="M290.56 3.22798C302.386 2.62798 314.266 1.38798 326.146 2.13465C327.96 2.48132 329.133 3.93465 330.12 5.36132C329.133 7.10798 326.826 8.53465 327.373 10.828C331.106 59.8013 332.96 109.068 329.893 158.135C329.413 159.388 328.88 160.615 328.293 161.828C316.253 161.761 304.2 162.281 292.173 162.028C288.906 162.001 290.146 157.988 290.746 156.161C291.466 154.028 291.906 151.801 291.853 149.561C292.133 102.868 289.2 56.228 289.08 9.54798C288.92 7.30798 289.266 5.09465 290.56 3.22798Z" fill="white"/>
<path d="M337.107 6.92131C336.933 3.18797 340.667 0.307975 344.2 0.481308C358.947 0.521308 373.76 0.347975 388.44 2.01464C392.027 2.21464 393.08 6.40131 393.053 9.36131C392.787 16.5213 393.187 23.6813 393.067 30.8413C392.76 34.6413 392.933 39.0013 390.187 42.0013C385.507 41.4813 380.907 42.868 376.24 42.8413C364.6 43.108 352.96 42.428 341.333 42.6146C339.307 42.7346 337.547 41.3746 336.373 39.868C336.253 28.8946 336.893 17.8946 337.107 6.92131Z" fill="white"/>
<path d="M415.506 3.50799C427.253 2.25465 439.066 1.64132 450.866 2.08132C452.4 2.54799 453.76 3.42799 455.2 4.12132C454.626 6.49465 452.28 8.33465 452.506 10.8547C456.24 59.828 458.053 109.068 455.04 158.121C454.52 159.948 453.48 162.628 450.986 161.828C440.706 161.935 430.426 162.028 420.16 162.161C418.4 162.055 415.373 162.548 415.133 160.041C415.106 156.921 416.973 154.121 416.92 150.988C417.373 103.335 414.253 55.748 414.186 8.10799C414.026 6.40132 414.466 4.86799 415.506 3.50799Z" fill="white"/>
<path d="M464.613 2.108C466.4 0.694664 468.586 0.227997 470.826 0.454664C485.04 0.56133 499.306 0.387997 513.453 1.988C518.28 2.428 518.36 8.40133 518.173 12.0813C517.32 21.8013 520.12 32.2413 516.013 41.428C499.746 44.068 483.213 42.2947 466.813 42.6147C464.093 42.828 460.746 40.6413 461.386 37.6147C461.613 27.7747 461.946 17.9347 462.186 8.108C462.2 5.948 462.506 3.29466 464.613 2.108Z" fill="white"/>
<path d="M544.253 2.06785C557.24 2.80118 570.387 3.41452 583.253 0.961182C584.133 50.0545 580.72 99.0812 580.24 148.148C579.84 153.268 581.627 159.788 576.48 163.108C565.307 161.188 553.92 161.961 542.653 161.535C540.907 161.548 539.933 159.908 538.653 159.015C541.6 153.495 538.64 147.335 538.907 141.481C538.467 116.628 538.533 91.7479 539.773 66.9212C540.267 47.3212 539.667 27.7078 539.347 8.10785C538.96 5.22785 540.72 1.16118 544.253 2.06785Z" fill="white"/>
<path d="M588.6 2.36117C589.44 2.02783 591.107 1.36117 591.947 1.02783C607.133 2.10783 622.36 1.94783 637.587 1.9745C639.28 1.9345 640.893 2.52117 642.52 2.9745C642.307 14.9212 643.24 26.8678 643.2 38.8145C643.253 41.0278 641.187 42.9345 638.973 42.5345C623.36 42.6545 607.76 42.4678 592.147 42.6278C590.44 42.8812 588.96 41.9212 587.493 41.2545C587.613 29.7212 586.787 18.2012 587.053 6.6545C587.053 5.08117 588.04 3.7745 588.6 2.36117Z" fill="white"/>
<path d="M3.47986 16.2013C3.21319 11.6546 2.29319 6.97459 3.71986 2.50792C16.2932 3.16125 28.9332 1.18792 41.4532 2.05459C46.4132 3.77459 41.1065 7.45459 41.5065 10.6679C45.1065 55.0813 46.4132 99.7346 44.4399 144.281C44.0932 149.961 44.6799 155.828 42.7732 161.295C31.7199 161.775 20.6532 161.961 9.58652 162.028C5.93319 162.228 2.98652 159.921 0.186523 157.948V156.468C2.83986 127.095 5.51986 97.6679 5.65319 68.1613C5.70652 50.8146 4.69319 33.4946 3.47986 16.2013Z" fill="white"/>
<path d="M742.173 35.7347C751.626 33.148 760.706 38.108 768.773 42.4413C777.24 47.2547 786.066 52.4947 791.333 60.9747C797.253 69.468 794.96 81.828 803.32 88.9347C810.106 98.4147 821.813 101.695 831.146 107.828C841.56 116.961 850.48 128.828 853.227 142.655C854.133 148.175 854.666 155.201 849.52 158.908C840.2 165.708 827.733 165.708 816.893 163.295C797.88 158.868 780.96 148.001 766.68 134.961C750.96 120.348 737.72 102.335 731.533 81.5613C728.173 69.8947 727.107 56.868 732.053 45.468C733.893 41.028 737.306 36.868 742.173 35.7347Z" fill="white"/>
<path d="M338.653 71.628C354.293 71.4147 369.933 71.2413 385.587 71.068C387.267 70.908 388.8 71.7614 390.347 72.268C389.933 83.8014 390.92 95.3347 390.96 106.868C391.093 108.668 389.84 110.121 389.213 111.708C373.773 112.348 358.32 111.561 342.88 111.868C341.147 112.108 339.573 111.308 338 110.775C338.187 99.2547 336.92 87.748 337.173 76.2147C337.08 74.4947 337.573 72.9614 338.653 71.628Z" fill="white"/>
<path d="M462.36 74.7345C462.64 73.1212 463.387 70.9078 465.493 71.5612C480.653 71.4945 495.813 71.1745 510.96 71.0812C512.573 70.9612 514 71.8012 515.48 72.2945C515.053 81.1212 515.787 89.9478 515.893 98.7745C515.827 103.108 517.053 107.841 514.4 111.681C499.027 112.375 483.653 111.548 468.28 111.868C466.453 112.081 464.773 111.415 463.133 110.788C463.32 98.7612 461.92 86.7612 462.36 74.7345Z" fill="white"/>
<path d="M588.68 71.5613C590.533 70.4813 592.907 71.3746 594.96 71.268C608.267 72.148 621.6 70.668 634.92 71.2146C639.68 71.028 643.493 75.4146 642.907 80.1213C642.507 89.2013 643.44 98.4147 641.76 107.401C641.16 109.401 640.44 112.748 637.627 112.308C621.56 111.321 605.453 112.975 589.4 111.748C587.507 110.308 585.813 107.961 586.133 105.455C586.32 96.148 586.573 86.8547 586.747 77.5613C586.8 75.468 586.827 72.9613 588.68 71.5613Z" fill="white"/>
<path d="M590.08 120.628C590.546 120.401 591.466 119.961 591.92 119.748C599.08 119.468 606.266 119.775 613.426 119.575C623.253 119.681 633.293 119.001 642.92 121.401C644.786 122.121 647.946 122.801 648.026 125.255C648.013 135.588 647.573 145.921 647.426 156.255C647.586 159.135 646.173 162.095 643.693 163.575C628.266 163.495 612.786 164.228 597.413 162.681C593.613 161.921 588.826 162.015 586.226 158.708C586.093 148.068 586.64 137.415 586.786 126.775C586.613 124.281 587.76 121.735 590.08 120.628Z" fill="white"/>
<path d="M466.36 222.855C475.453 214.988 484.733 207.081 492.106 197.508C507.28 197.041 522.453 197.908 537.613 198.508C539.813 198.828 542.586 198.348 544.186 200.255C545.426 203.508 544.946 207.721 542.08 209.988C523.213 228.055 504.373 246.135 485.653 264.361C480.746 268.895 476.373 274.041 471.093 278.161C471.853 280.121 471.986 282.521 473.893 283.801C498.28 305.535 522.373 327.695 544.68 351.588C546.4 352.961 546.826 355.441 545.466 357.228C530.026 358.961 514.44 360.068 498.893 359.268C496.56 358.961 493.893 359.281 491.92 357.788C482.16 349.828 475.693 338.428 465.373 331.135C466.426 315.068 467.053 298.948 466.413 282.855C466.066 280.895 467.32 279.348 468.466 277.935C467.28 276.988 466.12 276.028 464.986 275.055C465.733 257.668 467.413 240.268 466.36 222.855Z" fill="white"/>
<path d="M585.933 204.041C585.64 201.255 587.64 197.668 590.746 197.895C600.093 198.601 609.466 198.175 618.813 197.948C621.493 197.895 625.066 198.615 625.906 201.588C626.293 204.215 625.6 206.868 625.826 209.521C631.093 239.441 629.426 269.975 628.92 300.188C628.346 318.188 628 336.201 627.066 354.175C627 356.441 625.746 359.468 622.973 358.988C612.226 358.561 601.48 359.495 590.746 358.841C589.053 358.761 587.653 357.695 586.173 357.068C585.44 354.575 584.773 352.055 584.853 349.441C584.36 327.215 583.76 304.948 585.053 282.735C586.64 256.535 586.213 230.268 585.933 204.041Z" fill="white"/>
<path d="M4.45338 199.828C16.4134 198.761 28.44 198.375 40.4534 198.708C42.12 199.121 43.28 200.508 44.6134 201.495C43.6 202.855 42.5734 204.215 41.5334 205.561C44.9734 254.815 46.7334 304.295 43.9467 353.641C43.9067 355.388 42.9867 356.921 42.4134 358.521C30.0934 358.788 17.7467 359.148 5.44004 358.815C2.13338 356.001 6.20004 351.615 5.85338 348.121C6.29338 300.055 3.13338 252.041 3.13338 203.988C3.01338 202.455 3.92004 201.188 4.45338 199.828Z" fill="white"/>
<path d="M115.96 205.455C115.307 202.135 117.307 197.001 121.453 198.215C132.053 199.655 142.747 198.508 153.387 198.815C157.12 199.628 156.533 203.881 156.44 206.775C155.027 230.295 157.333 253.815 156.707 277.335C156.36 284.268 156.867 291.201 157.28 298.121C157.627 306.135 162.36 314.108 169.747 317.508C171.133 318.281 172.533 319.041 173.827 319.975C174.56 328.908 175.093 337.855 174.787 346.815C174.56 352.015 177.013 359.148 170.733 361.655C157.76 358.508 144.28 354.201 134.667 344.455C128.56 337.788 122.547 330.535 120.267 321.588C115.653 305.975 118.48 289.575 116.68 273.628C114.707 250.935 117.333 228.175 115.96 205.455Z" fill="white"/>
<path d="M202.253 202.988C202.56 201.508 203.4 200.215 204 198.855C214.706 199.175 225.426 199.321 236.146 198.975C241.76 197.921 244.96 203.601 248.173 207.148C244.96 223.815 242.12 240.628 241.453 257.615C240.626 275.868 239.48 294.175 236.12 312.161C234.093 322.081 231.24 331.988 226.4 340.935C217.626 353.121 202.426 357.761 188.373 360.615C187.106 359.921 185.853 359.241 184.586 358.561C184.586 346.335 184.653 334.095 184.546 321.855C186.426 317.655 191.453 317.415 194.333 314.268C198.973 309.415 201.173 302.681 201.653 296.081C202.666 265.055 199.653 233.975 202.253 202.988Z" fill="white"/>
<path d="M272.653 199.561C279.92 198.508 287.306 198.628 294.626 198.708C322.533 242.801 354.613 284.161 388.68 323.654C388.92 324.041 389.4 324.814 389.64 325.201C389.573 334.681 389.093 344.161 388.866 353.641C388.92 355.561 388.16 357.414 386.906 358.854C381.36 359.548 375.733 358.974 370.16 358.881C369.186 356.281 367.773 353.881 365.773 351.948C346.933 331.841 329.453 310.454 314.08 287.588C300.813 267.868 286.106 249.174 271.626 230.361C271.2 222.974 271.4 215.548 271.16 208.134C271.28 205.268 270.506 201.894 272.653 199.561Z" fill="white"/>
<path d="M347.64 203.988C347.587 202.121 348.653 200.521 349.373 198.881C361.04 199.268 372.733 199.428 384.4 198.961C386.4 198.708 387.56 200.775 389.027 201.708C388.293 202.295 386.813 203.455 386.08 204.041C386.667 225.388 386.12 246.761 386.853 268.108C387.133 277.041 389.027 285.881 388.707 294.841C388.493 297.615 384.147 298.841 382.64 296.388C370.387 281.388 358.52 266.068 346.187 251.121C346.707 235.415 347.12 219.695 347.64 203.988Z" fill="white"/>
<path d="M417.053 204.068C416.64 202.228 417.613 200.695 418.573 199.241C430.213 199.895 441.867 198.575 453.52 198.561C455.707 198.215 457.08 200.215 458.507 201.481C457.493 202.868 456.48 204.268 455.467 205.655C459.48 251.708 460.587 298.041 458.52 344.228C458.067 348.948 459.16 354.121 456.453 358.348C445.253 358.415 434.053 358.988 422.867 358.841C419.533 358.828 416.947 356.535 414.347 354.801C416.733 325.961 419.56 297.108 419.84 268.135C420.04 246.748 418.56 225.388 417.053 204.068Z" fill="white"/>
<path d="M550.053 208.148C550.08 205.135 549.067 201.095 552.2 199.215C557.947 198.695 563.733 199.135 569.493 198.828C573.147 198.841 577.053 198.015 580.387 199.975C579.987 211.588 581.12 223.188 580.92 234.815C580.987 236.841 579.853 239.708 577.413 239.495C569.88 239.668 562.347 239.535 554.813 239.561C552.187 239.695 548.093 238.215 548.893 234.895C549.8 226.015 550.547 217.081 550.053 208.148Z" fill="white"/>
<path d="M634.413 202.828C634.44 200.508 636.347 197.761 638.933 198.108C645.587 198.215 652.36 197.815 658.907 199.241C660.507 199.628 662.76 200.495 662.533 202.561C662.76 213.361 663.173 224.175 662.8 234.975C663.16 237.628 660.8 238.961 659.093 240.401C652.307 239.735 645.507 239.761 638.72 239.521C637.2 239.575 636 238.535 634.72 237.961C634.6 226.255 634.107 214.535 634.413 202.828Z" fill="white"/>
<path d="M684.8 204.095C684.613 201.548 686.44 198.268 689.4 198.908C702.506 199.628 715.76 200.295 728.733 197.841C729.546 247.975 726.08 298.055 725.666 348.175C725.386 351.588 726.333 355.668 723.733 358.415C722.306 360.561 719.586 359.401 717.573 359.375C708.226 358.241 698.8 358.695 689.426 358.548C687.533 358.681 685.76 357.775 684.573 356.361C684.586 353.735 685.906 351.228 685.32 348.601C683.693 337.428 684.36 326.135 684.106 314.908C684.186 298.855 684.226 282.788 685.12 266.748C685.88 245.868 685.066 224.975 684.8 204.095Z" fill="white"/>
<path d="M733.88 199.255C737.507 197.295 741.613 198.201 745.52 198.348C757.973 198.948 770.453 198.788 782.92 198.815C784.747 198.655 786.44 199.428 788.107 200.081C787.613 212.081 788.787 224.095 788.667 236.095C788.307 238.321 786.4 239.801 784.173 239.375C768.613 239.481 753.04 239.281 737.48 239.495C735.773 239.655 734.32 239.135 733.12 237.935C732.84 226.628 732.373 215.321 732.52 204.001C732.413 202.295 733.333 200.815 733.88 199.255Z" fill="white"/>
<path d="M816.213 199.335C823.453 198.801 830.707 198.588 837.973 198.588C865.453 241.615 896.64 282.175 929.96 320.828C931.213 322.641 933.68 324.148 933.24 326.681C933.013 335.561 932.693 344.441 932.453 353.321C932.32 355.428 931.933 358.401 929.56 359.068C924.2 359.335 918.853 359.001 913.507 358.961C896.133 337.201 877.667 316.255 861.693 293.401C847.853 273.108 833.347 253.281 817.92 234.161C816.653 232.401 814.653 230.748 815.027 228.321C814.96 220.268 814.747 212.201 814.72 204.148C814.467 202.375 815.56 200.881 816.213 199.335Z" fill="white"/>
<path d="M891.213 204.041C891.28 202.001 891.973 198.601 894.72 198.881C905.853 199.361 917.013 199.348 928.16 198.961C929.84 198.855 931.146 200.241 932.066 201.495C931.626 205.548 929.56 209.308 929.84 213.441C930.28 240.188 929.226 267.028 932.293 293.641C933.16 296.841 928.32 299.215 926.373 296.588C914.053 281.495 902.08 266.108 889.72 251.028C890.32 235.375 890.666 219.695 891.213 204.041Z" fill="white"/>
<path d="M50.88 204.108C50.3734 201.188 53.4134 198.775 56.1734 199.388C67.2 200.295 77.5467 206.081 84.56 214.561C91.9867 223.548 96.28 235.068 96.6934 246.708C95.5734 259.068 92.1334 271.801 84.1467 281.575C77.0534 290.281 65.88 294.735 54.88 295.468C51.9467 295.281 49.6267 292.495 49.8 289.615C49.6134 278.108 49.7334 266.601 49.6534 255.108C52.88 254.988 56.6134 255.935 59.3334 253.708C63.1467 251.028 63.4134 244.801 59.8 241.828C57.0534 239.215 52.96 240.028 49.52 239.895C50.8534 228.015 51.6267 216.055 50.88 204.108Z" fill="white"/>
<path d="M813.893 265.375C814.453 262.681 814.626 257.668 818.346 257.815C823.173 261.868 826.746 267.148 830.653 272.055C838.226 281.988 845.506 292.161 852.493 302.535C853.386 303.735 853.986 305.161 854.013 306.695C855.306 320.921 856.293 335.188 856.066 349.481C855.92 352.401 855.786 355.521 854.16 358.055C850.773 360.015 846.586 358.481 842.88 358.895C833.853 358.468 824.56 360.201 815.72 357.908C817.266 354.401 816.333 350.548 816.293 346.881C815.186 319.721 812.186 292.548 813.893 265.375Z" fill="white"/>
<path d="M269.84 274.815C270.08 268.828 269.48 262.108 273.547 257.161C278.44 260.255 281.613 265.228 285.227 269.628C293.867 281.055 302.547 292.521 310.133 304.681C311.827 319.948 312.76 335.348 312.44 350.721C312.08 353.681 312.173 358.855 308.08 358.975C300.053 358.855 292.04 358.895 284.027 359.055C280.053 358.988 275.907 359.308 272.133 357.815C272.907 356.041 273.2 354.201 273.013 352.295C271.96 326.468 269.4 300.681 269.84 274.815Z" fill="white"/>
<path d="M732.36 271.961C732.48 270.028 733.88 267.481 736.186 267.935C750.373 269.001 764.586 267.801 778.786 267.948C782.6 267.775 787.133 269.455 788 273.615C788.893 280.201 787.893 286.895 788.186 293.535C787.893 298.655 788.4 304.601 785 308.828C782.16 309.641 779.106 308.895 776.2 308.975C762.933 308.455 749.653 309.588 736.4 308.801C733.746 309.028 732.92 306.015 731.506 304.375C731.893 293.575 731.893 282.761 732.36 271.961Z" fill="white"/>
<path d="M733.506 318.775C734.84 318.081 736.173 317.361 737.48 316.601C750.88 316.695 764.28 315.988 777.666 316.695C783.146 317.161 789.213 317.348 793.626 321.095C793.253 332.281 793.2 343.481 792.8 354.668C792.746 357.015 790.84 358.708 789.613 360.535C772.96 360.081 756.173 361.455 739.626 359.068C736.6 358.281 731 357.935 731.6 353.535C731.76 343.695 732.04 333.855 732.226 324.028C732.133 322.175 732.8 320.441 733.506 318.775Z" fill="white"/>
<path d="M947.427 345.401C943.987 335.068 950.947 322.908 961.68 320.801C972.48 317.988 983.96 326.028 985.52 336.988V342.081C984.427 349.801 978.747 356.775 971.027 358.548C961.293 361.321 950.093 355.228 947.427 345.401ZM959.707 327.761C964.6 327.921 971.56 325.975 974.813 330.881C977.293 335.015 973.827 339.495 969.76 340.615C972.973 343.388 975.013 347.175 977.227 350.748C976.053 350.735 973.707 350.735 972.533 350.721C969.947 346.361 967.747 339.895 961.453 340.721C961.427 344.055 961.44 347.401 961.427 350.761C960.493 350.748 958.613 350.721 957.68 350.721C958.067 342.935 956.84 334.948 958.413 327.308C957.213 327.188 956.013 327.108 954.84 327.108C953.16 330.455 950.547 333.455 950.107 337.295C948.773 344.908 953.787 352.988 961.24 355.108C969.547 358.015 979.48 352.655 981.613 344.121C984.32 335.548 978.36 325.615 969.507 324.001C965.853 322.708 962.187 324.841 958.573 324.415C958.92 325.535 959.293 326.641 959.707 327.761ZM961.44 330.681C961.427 333.015 961.427 335.348 961.44 337.681C964.12 337.588 966.867 337.868 969.507 337.175C971.827 336.388 972.373 332.895 970.16 331.615C967.493 330.268 964.307 330.935 961.44 330.681Z" fill="white"/>
</g>
<defs>
<clipPath id="clip0_1_491">
<rect width="985.333" height="362.667" fill="white" transform="translate(0.186523 0.147949)"/>
</clipPath>
</defs>
</svg>
