<svg xmlns="http://www.w3.org/2000/svg" fill="none" viewBox="0 0 1521 569"><path fill="#8895CB" d="M1012.89 1.974c3.87-2.093 8.6-2.626 12.78-1.093 10.81 3.587 22.65 5.387 31.9 12.507 3.62 2.746 5.15 7.693 3.47 11.96-3.88 12.506-11.73 23.253-19.21 33.826-17.99 24.587-37.9 47.707-55.631 72.48-11.226 15.92-22.293 32.307-28.973 50.734-3.987 10.986-5.987 23.506-1.04 34.546 22.507-9.986 41.933-25.64 59.724-42.44 25.33-23.546 46.62-51.106 72.45-74.146 9.48-7.84 20.63-16.614 33.72-15.067 4.35.36 8.65-.52 13.01-.653 1.36 1.746 3.51 3.4 3.08 5.933-.93 2.573-2.2 5.027-3.3 7.533 4.54.534 9.12.094 13.66-.466.76 2.6 1.88 5.293 1.47 8.053-4.71 10.413-10.92 20.6-11.91 32.213-.85 4.72 4.86 6 8.11 7.494-.84 17.44-11.69 31.973-15.97 48.493-1.72 6.067-2.2 12.373-2.48 18.64 7.48-5.053 13.57-11.787 19.76-18.293 27.88-29.894 53.89-61.587 83.68-89.654 7.65-7.133 15.61-14.053 24.45-19.706 4.39-2.587 9.2-5.227 14.44-5.12 6.07.88 11.8 3.493 16.95 6.76 3.42 2.24 7.6 2.933 11.02 5.213 1.07 1.733-.68 3.467-1.14 5.107-3.23 6.093-1.59 13.253-3.43 19.72-4.92 18.24-15.81 34.346-20.24 52.72 17.49-5.254 23.2-25.04 37.93-34.134 9.44-5.813 18.19-12.786 25.84-20.813 5.43-5.227 10.32-11.2 16.88-15.093 5.62-3.427 12.32-4.52 18.82-4.507 4.94.053 8.98 3.293 13.29 5.307 1.35 5.293 2.19 10.88 4.97 15.653 1.04 2.253 5.35.427 5.36 3.52 2.02 4.2-1.14 8-2.8 11.667-11.53 22.32-15.6 47.786-15.06 72.72.21 5.333.26 10.76 2.04 15.88 7.09 1.973 14.6.706 21.7-.64 20.76-4.547 40.07-14.134 58.03-25.28 9.72-6.56 19.91-12.56 28.52-20.6 11.32-10.174 20.55-22.467 32.11-32.387.42 11.64-8.56 20.28-13.99 29.68-1.6 7.6-1.59 16.493-7.72 22.173 3.77 8.494.41 17.974-4.2 25.4-9.84 15.947-24.56 28.4-40.61 37.774-14.98 8.4-32.03 14.44-49.4 13.36-7.32-1.094-15.2-.48-21.8-4.347-15.92-8.453-31.43-18.667-42.72-32.933-7.35-9.2-12.58-20.214-14.14-31.934-1.09-7.093-.1-14.293-.78-21.413-5.46 1.733-8.84 6.6-12.86 10.333-6.06 6.334-12.17 12.64-17.74 19.414-4.67 6.546-12.64 9.573-17.44 16.026-6.62 6.974-9.71 16.694-17.24 22.854-3.58 2.6-8.08 4.68-12.59 3.96-3.48-.76-4.64-5.36-8.13-5.814-5.08.88-10.82 2.454-15.44-.733-5.78-5-11.52-10.747-13.38-18.427-3.41-8.693-1.48-18.226 1.5-26.733 2.42-7.533 6.2-14.613 8.05-22.32.57-1.893-.13-3.773-.72-5.56-14.73 19.787-29.89 39.307-46.83 57.28-9.24 9.387-18.38 19.587-30.46 25.333-7.1 3.84-13.1-3.813-20.1-3.96-1.96.974-3.28 3.027-5.46 3.494-8.75-1.4-16.39-6.654-22.36-13-3.26-3.027-5.96-6.774-9.87-8.974-9.2 3.227-15.6 12.28-25.31 14.574-5.58-1.294-11.01-3.96-16.86-3.64-2 .72-3.78 1.933-5.72 2.72-3.96-.84-7.44-3.12-10.48-5.694-4.55-3.92-6.86-9.906-11.98-13.2-13.54 10.6-26.304 22.907-42.664 29.147-10.187 3.867-21.973 5.987-32.333 1.533-12.72-4.8-22.827-15.56-27.134-28.413-.96-3.053-2.093-7.053-5.986-7.24-3.494.667-6.374 2.907-8.987 5.16-8.107 6.973-14.8 15.387-22.773 22.493-10.934 10.094-23.507 19.76-38.6 22.107-11.147 1.2-23.667.36-32.56-7.253-8.427-7.36-10.374-19.307-9.88-29.92 1.226-14.627 6.693-28.427 12.293-41.84 5.6-13.387 12.6-26.12 18.84-39.174-1.227-3.173-5-2.253-7.373-1.266-8.894 3.773-16.334 10.16-23.387 16.6-10.333 9.946-20.293 20.866-26.12 34.133-2.707 5.84-3.587 13.08.72 18.427-12.947 22.28-29.133 42.546-46.453 61.546-2.414 2.76-3.827-2.413-4.88-4.106-6.214-1.08-12.214 3.253-18.334 1.066-9.08-2.173-14.786-11.026-16.226-19.8-2.614-10.32 2.16-20.48 6.253-29.72 7.667-16.226 15.507-32.373 22.44-48.933-10.64 2.72-21.933 1.987-32.253 6.013-14.867 5.32-26.707 16.627-35.827 29.214-11.667 15.773-19.68 33.786-29.56 50.64-4.48 7.186-9.067 14.96-16.627 19.266-6.533 3.88-14.706 1.787-21.066-1.413-9.134-4.627-14.4-14.947-13.88-25.04-.934-21.013 8.533-40.307 15.76-59.453 2.266-6.88 5.746-15.36.68-21.854-11.36 11.747-22.854 23.614-31.947 37.254-2.387 3.053-2.68 6.8-1.867 10.466-11.426 12.36-20.173 26.867-30.493 40.134-9.24 12.306-19.12 24.333-31.093 34.093-6.707 5.227-14.614 9.987-23.387 9.947-11.76-.534-23.947-3.36-33.333-10.814-8.214-6.426-13.08-16.36-14.694-26.52-1.68-11.76-.2-23.693 2.747-35.133-22.76 14.747-32.547 42.387-54.387 58.187-5.84 4.186-12.773 7.16-20.026 7.28-7.214.093-14.454-.067-21.587-1.227-5.027-.853-10.453-3.08-12.787-7.947-4.706-10.306-4.266-22.186-1.293-32.92 7.28-27.813 18.493-54.386 27.6-81.613 1.4-4.373 2.88-8.76 3.667-13.293.746-3.8-1.014-8.427-4.854-9.814-5.36-2.026-11.173-.76-16.72-.746-11.56.76-24.013 1.453-33.853 8.266-3.44 1.96-4.213 6.054-5.533 9.454-7.32 21.186-13.214 42.826-19.68 64.28-9.467 31.84-19.574 63.56-32.507 94.186-9.64 22.52-20.613 44.72-35.44 64.334-14.04 5-21.053 19.8-33.947 26.666 4.84-57.466 20.467-113.32 37.507-168.2 6.533-21.133 13.813-42.04 19.72-63.373 1.133-4.867 3.027-9.88 1.84-14.92-15.187 3.827-30.027 10.187-42.627 19.507-14.44 22.96-18.013 50.426-25.866 75.92-6.894 24.08-18.107 47.826-37.08 64.746-7.12-2.293-14.267 1.32-19.067 6.467-5.36 5.653-10.48 11.573-16.373 16.707-3.494-.854-8.454-2.16-8.04-6.747-.24-25.76 4-51.427 11.146-76.133 3.734-13.347 8.294-26.48 11.014-40.08-7.734 3.853-15.36 9.84-24.454 9.093-6.68-1.453-10.693-7.72-15.773-11.773 9.373-8.04 21.267-11.84 32.387-16.68 7.36-3.387 13.626-9.387 16.706-16.96 4.454-10.654 6.88-21.987 9.814-33.107 5.24-20.36 10.053-41.12 19.653-59.96 5.107-9.533 11.96-19.28 22.573-23.027 7.24-2.226 15.307-1.533 22.254 1.4 11.026 4.774 18.413 16.68 17.68 28.694-1.494 16.88-6.4 33.16-10.12 49.613 5.186-1.093 10.44-1.987 15.493-3.6 4.72-2.027 8.507-5.667 13-8.107 6.16-3.666 13.44-4.573 20.44-5.186 5.813-9.174 9.213-19.56 13.027-29.654 7.213-20.226 16.853-39.986 31.493-55.92 4.24 2.92 7.973 6.6 10.613 11.054 5.36 8.333 6.654 18.346 10.267 27.4-5.48 4.92-6.453 12.466-6.8 19.4-.307 7.146-.013 14.293.28 21.44 11.72-3.187 23.787-4.747 35.8-6.387 16.373-2.373 33.893 1.36 47.28 11.267 8.933 6.413 14.64 17.346 13.56 28.453-1.027 12.64-3.933 25.267-9.24 36.813-4.133 9.507-11.027 17.32-16.747 25.84-4.266 6.32-5.866 14.054-5.386 21.6 27.706-28.853 53.68-59.346 82.133-87.48 9.267-8.866 20.307-18.426 34.013-17.706 7.24 1.16 14.014 4.6 20.067 8.653 2.76 2.093 6.453 5.48 4.68 9.307-11.387 23.8-22.693 47.733-31.28 72.72-2.267 7.226-4.88 14.6-4.827 22.253-.213 3.453 4.494 7.333 7.414 4.573 5.946-4.32 10.96-9.76 15.786-15.266 22.64-26.267 42.747-54.814 67.934-78.814 19.213-18.24 42.106-35.48 69.32-38.16 8.96-.373 18.453-1.266 26.96 2.254 5.32 2.213 8.266 7.853 8.6 13.413.8 10.16-.574 20.32-.84 30.48 19.32-11.707 37.173-26.147 58.253-34.733 9.84-4.12 20.44-6.787 31.16-6.414 10.04-.293 21.16 1.214 28.653 8.56 3.44 3.16 7.04 8.214 12.44 6.614 5.774-1.92 9.667-6.894 14.214-10.654 14.52-12.986 35.106-17.08 54.066-15.68 12.56.734 25.24 7.267 30.52 19.16-8.266 14.04-16.16 28.32-23.733 42.747-4.373 8.987-9.6 17.747-11.867 27.573 20.374-10.12 37.174-26.186 52.027-43.173 30.173-35.187 51.933-76.413 74.373-116.693 8.427-14.827 16.654-29.867 26.894-43.56 4.837-6.24 10.067-12.574 17.197-16.294Zm74.43 153.32c-8.27 9.054-17.57 17.427-23.65 28.214-.26 4.2 5.68 6.12 8.44 3.506 6.64-6.413 12.78-13.306 19.14-19.986 4.6-5.734 7.23-12.867 8.86-19.974-5.02 1.374-9.4 4.32-12.79 8.24Z"/><path fill="#8895CB" d="M1477.76 335.321c11.88-8.707 22.88-18.547 34.48-27.613 2.47 1.733 4.95 3.466 7.4 5.24-4.05 9.12-10.32 17-16.39 24.84-8.45 10.6-17.2 21-27.08 30.306-4.02 3.734-9.2 5.894-13.34 9.467-4.62 3.893-9.27 8.04-15.11 9.933-7.12 2.08-12.56 7.574-19.57 9.88-20.06 6.894-40.62 13.04-61.86 14.654-14.7.973-29.42 1.226-44.14 1.653-21.28-.667-42.64.307-63.88-1.573-29.07-2.52-58.16-4.654-87.18-7.707-44.76-5.747-89.68-10.2-134.56-14.747-16.77-1.4-33.53-3.613-50.397-3.253-37.8.147-75.613-.347-113.4.333-24.44-.013-48.88.014-73.32-.013-30.613 1.147-61.254-.653-91.853.64-13.054.12-26.014 2.013-38.987 3.293-29.453 2.894-58.32 10.094-86.427 19.147-29.493 9.68-58.88 19.693-87.8 30.96-9.64 3.587-18.746 8.587-28.76 11.147-57.826 16.88-116.173 31.92-174.4 47.373-88.493 23.187-177.013 46.267-265.76 68.48-8.106 2.6-16.613.187-24.906.08 74.04-28.467 148.586-55.667 223.68-81.267 35.24-12.08 70.786-23.213 106.2-34.773 14.626-4.72 28.413-11.64 42.56-17.573 17.746-7.774 36.093-14.054 53.693-22.16 50.92-23.734 104-42.774 158.227-57.374 28.546-6.893 57.76-10.4 86.546-16.04 29.094-4.186 58.534-5.093 87.827-7.2 55.093-3.906 110.36-4.44 165.56-3.906 23.64-.067 47.213 1.733 70.8 3.186 59.737 3.867 119.467 7.854 179.157 12.4 12.96.867 25.78 3.054 38.64 4.68 29.22 3.547 58.62 5.534 87.78 9.627 24.57 3.827 49.49 4.373 74.28 5.84 19.73.667 39.92.8 59.12-4.427 15.46-5.573 29.7-14.186 43.17-23.533Zm-37.76 30.28c-23.07 7.24-47.68 6.333-71.53 5.373-21.24-1.36-42.58-1.813-63.66-4.906-26.54-3.92-53.32-5.934-79.97-8.867-18.17-1.747-36.15-5.227-54.39-6.373-66.76-4.947-133.54-9.507-200.344-13.64-35.053-2.454-70.213-1.614-105.32-1.8-24.96.506-49.92 1.173-74.866 2.133-19.16.987-38.28 2.707-57.441 3.64-24.013 1.773-48.213 2.747-71.826 7.707-30.333 5.453-61.107 9.16-90.627 18.32-34.226 9.96-68 21.533-100.96 35.133-22.96 9.227-44.986 20.573-68.173 29.24-17.787 6.827-35.12 14.733-52.613 22.253-15.12 6.2-30.894 10.587-46.4 15.72-71.814 22.947-143.04 47.787-213.734 74.014 61.414-15.587 122.72-31.6 184.027-47.614 61.907-16.36 123.907-32.413 185.467-50.08 8.106-2.266 16.12-4.866 23.706-8.546 28.867-11.854 58.427-21.934 88.014-31.827 22.88-7.813 46.24-14.227 69.973-18.867 17.2-3.053 34.613-4.6 51.973-6.426 34.56-2.614 69.227-.347 103.84-1.347 32.094-.44 64.214.36 96.307-.453 35.853.093 71.72-.12 107.587.106 48.28 3.454 96.37 9.24 144.49 14.374 23.7 3.213 47.48 5.64 71.31 7.546 27.28 2.094 54.53 5.4 81.93 4.987 20.02.187 40 .28 60-.88 18.43-.467 36.6-4.44 54.12-10.013 7.39-2.414 15.14-4.174 21.78-8.4 3.57-2.36 7.26-4.627 11.41-5.867 7.85-2.44 12.87-9.507 19.88-13.44 4.19-2.373 7.96-5.427 11.24-8.987 9.21-9.76 17.91-20.026 25.95-30.786-18.18 15.96-38.72 29.44-61.15 38.573Z"/></svg>