<svg width="1522" height="569" viewBox="0 0 1522 569" fill="none" xmlns="http://www.w3.org/2000/svg">
<path d="M1013.25 1.97437C1017.12 -0.118964 1021.85 -0.652297 1026.03 0.881036C1036.84 4.4677 1048.68 6.2677 1057.93 13.3877C1061.55 16.1344 1063.08 21.081 1061.4 25.3477C1057.52 37.8544 1049.67 48.601 1042.19 59.1744C1024.2 83.761 1004.29 106.881 986.561 131.654C975.334 147.574 964.267 163.961 957.587 182.388C953.601 193.374 951.601 205.894 956.547 216.934C979.054 206.948 998.481 191.294 1016.27 174.494C1041.6 150.948 1062.89 123.388 1088.72 100.348C1098.2 92.5077 1109.35 83.7344 1122.44 85.281C1126.79 85.641 1131.09 84.761 1135.45 84.6277C1136.81 86.3744 1138.96 88.0277 1138.53 90.561C1137.6 93.1344 1136.33 95.5877 1135.23 98.0944C1139.77 98.6277 1144.35 98.1877 1148.89 97.6277C1149.65 100.228 1150.77 102.921 1150.36 105.681C1145.65 116.094 1139.44 126.281 1138.45 137.894C1137.6 142.614 1143.31 143.894 1146.56 145.388C1145.72 162.828 1134.87 177.361 1130.59 193.881C1128.87 199.948 1128.39 206.254 1128.11 212.521C1135.59 207.468 1141.68 200.734 1147.87 194.228C1175.75 164.334 1201.76 132.641 1231.55 104.574C1239.2 97.441 1247.16 90.521 1256 84.8677C1260.39 82.281 1265.2 79.641 1270.44 79.7477C1276.51 80.6277 1282.24 83.241 1287.39 86.5077C1290.81 88.7477 1294.99 89.441 1298.41 91.721C1299.48 93.4544 1297.73 95.1877 1297.27 96.8277C1294.04 102.921 1295.68 110.081 1293.84 116.548C1288.92 134.788 1278.03 150.894 1273.6 169.268C1291.09 164.014 1296.8 144.228 1311.53 135.134C1320.97 129.321 1329.72 122.348 1337.37 114.321C1342.8 109.094 1347.69 103.121 1354.25 99.2277C1359.87 95.801 1366.57 94.7077 1373.07 94.721C1378.01 94.7744 1382.05 98.0144 1386.36 100.028C1387.71 105.321 1388.55 110.908 1391.33 115.681C1392.37 117.934 1396.68 116.108 1396.69 119.201C1398.71 123.401 1395.55 127.201 1393.89 130.868C1382.36 153.188 1378.29 178.654 1378.83 203.588C1379.04 208.921 1379.09 214.348 1380.87 219.468C1387.96 221.441 1395.47 220.174 1402.57 218.828C1423.33 214.281 1442.64 204.694 1460.6 193.548C1470.32 186.988 1480.51 180.988 1489.12 172.948C1500.44 162.774 1509.67 150.481 1521.23 140.561C1521.65 152.201 1512.67 160.841 1507.24 170.241C1505.64 177.841 1505.65 186.734 1499.52 192.414C1503.29 200.908 1499.93 210.388 1495.32 217.814C1485.48 233.761 1470.76 246.214 1454.71 255.588C1439.73 263.988 1422.68 270.028 1405.31 268.948C1397.99 267.854 1390.11 268.468 1383.51 264.601C1367.59 256.148 1352.08 245.934 1340.79 231.668C1333.44 222.468 1328.21 211.454 1326.65 199.734C1325.56 192.641 1326.55 185.441 1325.87 178.321C1320.41 180.054 1317.03 184.921 1313.01 188.654C1306.95 194.988 1300.84 201.294 1295.27 208.068C1290.6 214.614 1282.63 217.641 1277.83 224.094C1271.21 231.068 1268.12 240.788 1260.59 246.948C1257.01 249.548 1252.51 251.628 1248 250.908C1244.52 250.148 1243.36 245.548 1239.87 245.094C1234.79 245.974 1229.05 247.548 1224.43 244.361C1218.65 239.361 1212.91 233.614 1211.05 225.934C1207.64 217.241 1209.57 207.708 1212.55 199.201C1214.97 191.668 1218.75 184.588 1220.6 176.881C1221.17 174.988 1220.47 173.108 1219.88 171.321C1205.15 191.108 1189.99 210.628 1173.05 228.601C1163.81 237.988 1154.67 248.188 1142.59 253.934C1135.49 257.774 1129.49 250.121 1122.49 249.974C1120.53 250.948 1119.21 253.001 1117.03 253.468C1108.28 252.068 1100.64 246.814 1094.67 240.468C1091.41 237.441 1088.71 233.694 1084.8 231.494C1075.6 234.721 1069.2 243.774 1059.49 246.068C1053.91 244.774 1048.48 242.108 1042.63 242.428C1040.63 243.148 1038.85 244.361 1036.91 245.148C1032.95 244.308 1029.47 242.028 1026.43 239.454C1021.88 235.534 1019.57 229.548 1014.45 226.254C1000.91 236.854 988.147 249.161 971.787 255.401C961.601 259.268 949.814 261.388 939.454 256.934C926.734 252.134 916.627 241.374 912.321 228.521C911.361 225.468 910.227 221.468 906.334 221.281C902.841 221.948 899.961 224.188 897.347 226.441C889.241 233.414 882.547 241.828 874.574 248.934C863.641 259.028 851.067 268.694 835.974 271.041C824.827 272.241 812.307 271.401 803.414 263.788C794.987 256.428 793.041 244.481 793.534 233.868C794.761 219.241 800.227 205.441 805.827 192.028C811.427 178.641 818.427 165.908 824.667 152.854C823.441 149.681 819.667 150.601 817.294 151.588C808.401 155.361 800.961 161.748 793.907 168.188C783.574 178.134 773.614 189.054 767.787 202.321C765.081 208.161 764.201 215.401 768.507 220.748C755.561 243.028 739.374 263.294 722.054 282.294C719.641 285.054 718.227 279.881 717.174 278.188C710.961 277.108 704.961 281.441 698.841 279.254C689.761 277.081 684.054 268.228 682.614 259.454C680.001 249.134 684.774 238.974 688.867 229.734C696.534 213.508 704.374 197.361 711.307 180.801C700.667 183.521 689.374 182.788 679.054 186.814C664.187 192.134 652.347 203.441 643.227 216.028C631.561 231.801 623.547 249.814 613.667 266.668C609.187 273.854 604.601 281.628 597.041 285.934C590.507 289.814 582.334 287.721 575.974 284.521C566.841 279.894 561.574 269.574 562.094 259.481C561.161 238.468 570.627 219.174 577.854 200.028C580.121 193.148 583.601 184.668 578.534 178.174C567.174 189.921 555.681 201.788 546.587 215.428C544.201 218.481 543.907 222.228 544.721 225.894C533.294 238.254 524.547 252.761 514.227 266.028C504.987 278.334 495.107 290.361 483.134 300.121C476.427 305.348 468.521 310.108 459.747 310.068C447.987 309.534 435.801 306.708 426.414 299.254C418.201 292.828 413.334 282.894 411.721 272.734C410.041 260.974 411.521 249.041 414.467 237.601C391.707 252.348 381.921 279.988 360.081 295.788C354.241 299.974 347.307 302.948 340.054 303.068C332.841 303.161 325.601 303.001 318.467 301.841C313.441 300.988 308.014 298.761 305.681 293.894C300.974 283.588 301.414 271.708 304.387 260.974C311.667 233.161 322.881 206.588 331.987 179.361C333.387 174.988 334.867 170.601 335.654 166.068C336.401 162.268 334.641 157.641 330.801 156.254C325.441 154.228 319.627 155.494 314.081 155.508C302.521 156.268 290.067 156.961 280.227 163.774C276.787 165.734 276.014 169.828 274.694 173.228C267.374 194.414 261.481 216.054 255.014 237.508C245.547 269.348 235.441 301.068 222.507 331.694C212.867 354.214 201.894 376.414 187.067 396.028C173.027 401.028 166.014 415.828 153.121 422.694C157.961 365.228 173.587 309.374 190.627 254.494C197.161 233.361 204.441 212.454 210.347 191.121C211.481 186.254 213.374 181.241 212.187 176.201C197.001 180.028 182.161 186.388 169.561 195.708C155.121 218.668 151.547 246.134 143.694 271.628C136.801 295.708 125.587 319.454 106.614 336.374C99.4941 334.081 92.3474 337.694 87.5474 342.841C82.1874 348.494 77.0674 354.414 71.1741 359.548C67.6807 358.694 62.7207 357.388 63.1341 352.801C62.8941 327.041 67.1341 301.374 74.2807 276.668C78.0141 263.321 82.574 250.188 85.294 236.588C77.5607 240.441 69.9341 246.428 60.8407 245.681C54.1607 244.228 50.1474 237.961 45.0674 233.908C54.4407 225.868 66.3341 222.068 77.4541 217.228C84.8141 213.841 91.0807 207.841 94.1607 200.268C98.6141 189.614 101.041 178.281 103.974 167.161C109.214 146.801 114.027 126.041 123.627 107.201C128.734 97.6677 135.587 87.921 146.201 84.1744C153.441 81.9477 161.507 82.641 168.454 85.5744C179.481 90.3477 186.867 102.254 186.134 114.268C184.641 131.148 179.734 147.428 176.014 163.881C181.201 162.788 186.454 161.894 191.507 160.281C196.227 158.254 200.014 154.614 204.507 152.174C210.667 148.508 217.947 147.601 224.947 146.988C230.761 137.814 234.161 127.428 237.974 117.334C245.187 97.1077 254.827 77.3477 269.467 61.4144C273.707 64.3344 277.441 68.0144 280.081 72.4677C285.441 80.801 286.734 90.8144 290.347 99.8677C284.867 104.788 283.894 112.334 283.547 119.268C283.241 126.414 283.534 133.561 283.827 140.708C295.547 137.521 307.614 135.961 319.627 134.321C336.001 131.948 353.521 135.681 366.907 145.588C375.841 152.001 381.547 162.934 380.467 174.041C379.441 186.681 376.534 199.308 371.227 210.854C367.094 220.361 360.201 228.174 354.481 236.694C350.214 243.014 348.614 250.748 349.094 258.294C376.801 229.441 402.774 198.948 431.227 170.814C440.494 161.948 451.534 152.388 465.241 153.108C472.481 154.268 479.254 157.708 485.307 161.761C488.067 163.854 491.761 167.241 489.987 171.068C478.601 194.868 467.294 218.801 458.707 243.788C456.441 251.014 453.827 258.388 453.881 266.041C453.667 269.494 458.374 273.374 461.294 270.614C467.241 266.294 472.254 260.854 477.081 255.348C499.721 229.081 519.827 200.534 545.014 176.534C564.227 158.294 587.121 141.054 614.334 138.374C623.294 138.001 632.787 137.108 641.294 140.628C646.614 142.841 649.561 148.481 649.894 154.041C650.694 164.201 649.321 174.361 649.054 184.521C668.374 172.814 686.227 158.374 707.307 149.788C717.147 145.668 727.747 143.001 738.467 143.374C748.507 143.081 759.627 144.588 767.121 151.934C770.561 155.094 774.161 160.148 779.561 158.548C785.334 156.628 789.227 151.654 793.774 147.894C808.294 134.908 828.881 130.814 847.841 132.214C860.401 132.948 873.081 139.481 878.361 151.374C870.094 165.414 862.201 179.694 854.627 194.121C850.254 203.108 845.027 211.868 842.761 221.694C863.134 211.574 879.934 195.508 894.787 178.521C924.961 143.334 946.721 102.108 969.161 61.8277C977.587 47.001 985.814 31.961 996.054 18.2677C1000.89 12.0277 1006.12 5.69437 1013.25 1.97437ZM1087.68 155.294C1079.41 164.348 1070.11 172.721 1064.03 183.508C1063.77 187.708 1069.71 189.628 1072.47 187.014C1079.11 180.601 1085.25 173.708 1091.61 167.028C1096.21 161.294 1098.84 154.161 1100.47 147.054C1095.45 148.428 1091.07 151.374 1087.68 155.294Z" fill="#FAFCFB"/>
<path d="M1478.12 335.321C1490 326.614 1501 316.774 1512.6 307.708C1515.07 309.441 1517.55 311.174 1520 312.948C1515.95 322.068 1509.68 329.948 1503.61 337.788C1495.16 348.388 1486.41 358.788 1476.53 368.094C1472.51 371.828 1467.33 373.988 1463.19 377.561C1458.57 381.454 1453.92 385.601 1448.08 387.494C1440.96 389.574 1435.52 395.068 1428.51 397.374C1408.45 404.268 1387.89 410.414 1366.65 412.028C1351.95 413.001 1337.23 413.254 1322.51 413.681C1301.23 413.014 1279.87 413.988 1258.63 412.108C1229.56 409.588 1200.47 407.454 1171.45 404.401C1126.69 398.654 1081.77 394.201 1036.89 389.654C1020.12 388.254 1003.36 386.041 986.494 386.401C948.694 386.548 910.881 386.054 873.094 386.734C848.654 386.721 824.214 386.748 799.774 386.721C769.161 387.868 738.521 386.068 707.921 387.361C694.868 387.481 681.908 389.374 668.934 390.654C639.481 393.548 610.614 400.748 582.508 409.801C553.014 419.481 523.628 429.494 494.708 440.761C485.068 444.348 475.961 449.348 465.948 451.908C408.121 468.788 349.774 483.828 291.548 499.281C203.054 522.468 114.534 545.548 25.7875 567.761C17.6809 570.361 9.17419 567.948 0.880859 567.841C74.9209 539.374 149.468 512.174 224.561 486.574C259.801 474.494 295.348 463.361 330.761 451.801C345.388 447.081 359.174 440.161 373.321 434.228C391.068 426.454 409.414 420.174 427.014 412.068C477.934 388.334 531.014 369.294 585.241 354.694C613.788 347.801 643.001 344.294 671.788 338.654C700.881 334.468 730.321 333.561 759.614 331.454C814.708 327.548 869.974 327.014 925.174 327.548C948.814 327.481 972.388 329.281 995.974 330.734C1055.71 334.601 1115.44 338.588 1175.13 343.134C1188.09 344.001 1200.91 346.188 1213.77 347.814C1242.99 351.361 1272.39 353.348 1301.55 357.441C1326.12 361.268 1351.04 361.814 1375.83 363.281C1395.56 363.948 1415.75 364.081 1434.95 358.854C1450.41 353.281 1464.65 344.668 1478.12 335.321ZM1440.36 365.601C1417.29 372.841 1392.68 371.934 1368.83 370.974C1347.59 369.614 1326.25 369.161 1305.17 366.068C1278.63 362.148 1251.85 360.134 1225.2 357.201C1207.03 355.454 1189.05 351.974 1170.81 350.828C1104.05 345.881 1037.27 341.321 970.468 337.188C935.414 334.734 900.254 335.574 865.148 335.388C840.188 335.894 815.228 336.561 790.281 337.521C771.121 338.508 752.001 340.228 732.841 341.161C708.828 342.934 684.628 343.908 661.014 348.868C630.681 354.321 599.908 358.028 570.388 367.188C536.161 377.148 502.388 388.721 469.428 402.321C446.468 411.548 424.441 422.894 401.254 431.561C383.468 438.388 366.134 446.294 348.641 453.814C333.521 460.014 317.748 464.401 302.241 469.534C230.428 492.481 159.201 517.321 88.5075 543.548C149.921 527.961 211.228 511.948 272.534 495.934C334.441 479.574 396.441 463.521 458.001 445.854C466.108 443.588 474.121 440.988 481.708 437.308C510.574 425.454 540.134 415.374 569.721 405.481C592.601 397.668 615.961 391.254 639.694 386.614C656.894 383.561 674.307 382.014 691.668 380.188C726.228 377.574 760.894 379.841 795.508 378.841C827.601 378.401 859.721 379.201 891.814 378.388C927.668 378.481 963.534 378.268 999.401 378.494C1047.68 381.948 1095.77 387.734 1143.89 392.868C1167.59 396.081 1191.37 398.508 1215.2 400.414C1242.48 402.508 1269.73 405.814 1297.13 405.401C1317.15 405.588 1337.13 405.681 1357.13 404.521C1375.56 404.054 1393.73 400.081 1411.25 394.508C1418.64 392.094 1426.39 390.334 1433.03 386.108C1436.6 383.748 1440.29 381.481 1444.44 380.241C1452.29 377.801 1457.31 370.734 1464.32 366.801C1468.51 364.428 1472.28 361.374 1475.56 357.814C1484.77 348.054 1493.47 337.788 1501.51 327.028C1483.33 342.988 1462.79 356.468 1440.36 365.601Z" fill="#FAFCFB"/>
</svg>
