<svg width="401" height="167" viewBox="0 0 401 167" fill="none" xmlns="http://www.w3.org/2000/svg">
<path d="M51.1196 166.487C65.1196 103.487 129.42 51.6868 201.22 51.6868C273.02 51.6868 337.12 103.487 350.12 166.487H51.1196Z" fill="#73A8DA"/>
<path d="M13.2195 138.487C10.2195 137.387 6.91951 136.687 6.21951 133.287L6.01953 133.187L0.519531 148.187L0.719531 148.287C3.41953 146.187 6.51951 147.687 9.41951 148.787L30.3195 156.387C33.2195 157.487 36.5195 158.187 37.2195 161.587L37.4195 161.687L44.9195 139.287L37.8195 134.287C38.7195 137.387 38.5195 140.087 37.4195 143.087C36.7195 145.087 37.2195 145.087 35.7195 146.587L13.2195 138.487Z" fill="black"/>
<path fill-rule="evenodd" clip-rule="evenodd" d="M46.5193 112.287L52.5193 113.387C53.5193 113.487 53.8193 113.587 54.7193 114.087C56.4193 114.987 56.6193 116.387 56.7193 117.987L56.9193 118.087L65.6193 102.387H65.5193L65.4193 102.287C61.0193 103.687 59.7193 103.287 55.6193 102.687L23.3193 97.6868L16.3193 110.387L16.5193 110.487C17.8193 109.787 19.2193 109.387 20.6193 110.187C21.7193 110.787 23.3193 112.787 24.1193 113.687L40.9193 132.387C43.0193 134.787 44.2193 136.287 44.9193 139.287L45.1193 139.387L51.0193 128.687L50.8193 128.587C49.5193 129.087 48.3193 129.687 46.8193 128.887C45.7193 128.287 44.4193 126.787 43.6193 125.887L40.8193 122.687L46.5193 112.287ZM40.7193 111.287L36.8193 118.387L28.5193 109.287V109.187L40.7193 111.287Z" fill="black"/>
<path d="M64.7193 103.387C68.3193 101.687 71.5193 99.2868 74.1193 96.3868C77.0193 93.2868 79.2193 90.1868 79.7193 85.7868C80.2193 81.8868 78.7193 78.3868 75.9193 75.6868C73.1193 73.0868 70.1193 72.3868 66.3193 72.7868C63.2193 73.0868 60.5193 74.2868 57.6193 75.4868C55.4193 76.4868 52.2193 78.1868 50.1193 76.2868C48.1193 74.3868 49.3193 71.5868 50.8193 69.8868C52.8193 67.6868 55.7193 66.3868 58.6193 65.6868L53.5193 60.9868C50.5193 62.4868 47.6193 64.6868 45.4193 67.0868C42.9193 69.7868 40.9193 72.8868 40.4193 76.5868C40.0193 79.8868 41.2193 83.3868 43.7193 85.6868C53.4193 94.7868 64.7193 80.4868 70.0193 85.4868C72.4193 87.7868 70.6193 90.9868 68.8193 92.9868C65.9193 96.0868 61.2193 98.3868 56.9193 98.9868L64.7193 103.387Z" fill="black"/>
<path d="M76.9195 48.0867C77.5195 47.1867 78.2195 46.5867 79.0195 45.8867C80.7195 44.5867 82.5195 43.8867 84.4195 44.8867L80.3195 36.5867L59.0195 53.8867L58.0195 54.4867L62.0195 63.0867L62.1195 62.5867C62.9195 59.9867 63.8195 58.3867 65.9195 56.6867C66.7195 55.9867 67.4195 55.4867 68.4195 54.9867L83.5195 73.5867C85.4195 75.9867 87.9195 78.3867 86.8195 81.5867L86.9195 81.6867L99.4195 71.5867L99.3195 71.4867C95.8195 71.2867 94.1195 69.1867 91.9195 66.5867L76.9195 48.0867Z" fill="black"/>
<path fill-rule="evenodd" clip-rule="evenodd" d="M86.7197 32.3868L86.8197 32.5868C90.2197 32.7868 91.4197 35.9868 92.9197 38.6868L103.32 58.2868C104.82 61.0868 106.72 63.7868 105.02 66.7868L105.12 66.9868L120.52 58.7868C124.22 56.7868 127.02 55.2868 128.52 51.2868C129.82 47.7868 129.62 44.3868 127.92 41.1868C125.52 36.5868 120.42 34.4868 115.62 36.1868C118.22 33.4868 119.52 30.0868 117.62 26.5868C116.12 23.8868 113.72 22.4868 110.62 21.9868C107.52 21.3868 105.22 22.6868 102.42 24.0868L86.7197 32.3868ZM101.42 31.2868C101.82 30.7868 102.22 30.4868 102.82 30.1868C105.12 28.9868 107.22 30.3868 108.32 32.4868C109.52 34.7868 109.42 37.6868 106.92 39.0868C106.52 39.2868 106.22 39.2868 105.82 39.3868L101.42 31.2868ZM108.22 44.0868L109.52 43.3868C113.52 41.2868 116.32 42.0868 118.42 46.0868C120.02 49.0868 120.22 52.6868 116.72 54.4868C115.82 54.9868 115.12 55.1868 114.12 55.0868L108.22 44.0868Z" fill="black"/>
<path d="M137.72 18.5868C136.72 15.6868 135.22 12.5868 137.42 9.88677L137.32 9.68677L122.12 14.8868L122.22 15.0868C125.62 15.8868 126.32 19.1868 127.32 22.1868L134.52 43.1868C135.52 46.0868 137.02 49.0868 134.82 51.7868L134.92 51.9868L150.02 46.7868L149.92 46.5868C146.52 45.7868 145.92 42.4868 144.82 39.5868L137.72 18.5868Z" fill="black"/>
<path d="M158.619 13.3868C158.119 10.2868 157.119 6.98681 159.619 4.68682V4.48682L143.819 7.28681V7.48681C147.019 8.78681 147.219 12.1868 147.719 15.2868L151.619 37.1868C152.119 40.1868 153.119 43.4868 150.619 45.7868V45.9868L174.519 40.3868L175.319 31.7868C173.119 34.1868 170.719 35.2868 167.419 35.7868C165.319 36.1868 164.819 36.2868 162.719 36.9868L158.619 13.3868Z" fill="black"/>
<path d="M177.62 39.3866C181.32 40.7866 185.32 41.3866 189.22 41.2866C193.42 41.1866 197.22 40.5866 200.72 37.9866C203.82 35.5866 205.42 32.0866 205.32 28.2866C205.22 24.4866 203.62 21.7866 200.72 19.3866C198.32 17.3866 195.62 16.2866 192.72 15.0866C190.52 14.1866 187.02 13.0866 187.02 10.2866C187.02 7.48663 189.82 6.38663 192.12 6.38663C195.12 6.28663 198.02 7.48663 200.52 9.08663L200.42 2.08662C197.32 0.986618 193.72 0.386618 190.42 0.486618C186.82 0.586618 183.12 1.28662 180.12 3.48662C177.42 5.48663 175.82 8.78663 175.82 12.1866C176.02 25.4866 194.22 23.6866 194.32 30.9866C194.42 34.2866 190.72 35.2866 188.12 35.2866C183.82 35.3866 178.92 33.5866 175.52 30.8866L177.62 39.3866Z" fill="black"/>
<path d="M207.819 38.8868C211.319 40.7868 215.119 41.9868 219.019 42.3868C223.219 42.8868 227.019 42.7868 230.819 40.6868C234.219 38.7868 236.219 35.5868 236.719 31.6868C237.219 27.8868 236.019 25.0868 233.419 22.1868C231.319 19.7868 228.819 18.3868 226.119 16.7868C224.019 15.5868 220.719 13.9868 221.119 11.1868C221.419 8.38684 224.419 7.78684 226.719 8.08684C229.719 8.48684 232.419 9.98684 234.719 11.8868L235.519 4.98683C232.619 3.38683 229.119 2.38683 225.819 1.98683C222.219 1.58683 218.419 1.78683 215.219 3.58683C212.219 5.18683 210.219 8.28684 209.819 11.5868C208.219 24.7868 226.419 25.5868 225.519 32.7868C225.119 36.0868 221.419 36.5868 218.719 36.1868C214.419 35.6868 209.819 33.1868 206.919 30.0868L207.819 38.8868Z" fill="black"/>
<path fill-rule="evenodd" clip-rule="evenodd" d="M261.52 17.8868C262.62 17.8868 263.52 18.0868 264.52 18.3868C266.52 18.9868 268.12 20.0868 268.42 22.2868L273.02 14.2868L246.62 6.18677L245.62 5.68677L240.72 13.7868L241.22 13.5868C243.82 12.7868 245.72 12.6868 248.32 13.4868C249.32 13.7868 250.22 14.0868 251.12 14.5868L244.12 37.4868C243.22 40.4868 242.62 43.7868 239.32 44.6868L239.22 44.8868L254.62 49.5868L254.72 49.3868C252.92 46.3868 253.72 43.7868 254.72 40.5868L261.52 17.8868Z" fill="black"/>
<path fill-rule="evenodd" clip-rule="evenodd" d="M282.32 50.3867L281.22 56.3867C281.12 57.3867 281.02 57.6867 280.52 58.5867C279.62 60.2867 278.22 60.4867 276.62 60.5867L276.52 60.7867L292.22 69.4867V69.3867L292.32 69.2867C290.92 64.8867 291.32 63.5867 291.92 59.4867L296.92 27.1867L284.12 20.0867V20.3867C284.82 21.6867 285.22 23.0867 284.42 24.4867C283.82 25.5867 281.82 27.1867 280.92 27.9867L262.22 44.7867C259.82 46.8867 258.32 48.0867 255.32 48.7867L255.22 48.9867L265.92 54.8867L266.02 54.6867C265.52 53.3867 264.92 52.1867 265.72 50.6867C266.32 49.5867 267.82 48.2867 268.72 47.4867L271.92 44.6867L282.32 50.3867ZM283.22 44.5867L276.12 40.6867L285.22 32.3867H285.32L283.22 44.5867Z" fill="black"/>
<path d="M322.52 51.8868C323.52 52.2868 324.32 52.7868 325.12 53.3868C326.82 54.6868 327.92 56.2868 327.42 58.3868L334.42 52.3868L312.32 35.7868L311.52 34.9868L304.12 40.8868H304.62C307.32 40.9868 309.12 41.4868 311.32 43.1868C312.22 43.7868 312.92 44.3868 313.52 45.1868L299.32 64.3868C297.42 66.8868 295.72 69.7868 292.32 69.4868L292.22 69.5868L305.12 79.3868L305.22 79.2868C304.62 75.8868 306.22 73.6868 308.22 70.9868L322.52 51.8868Z" fill="black"/>
<path d="M340.62 69.5866C342.72 67.2866 344.62 64.4866 348.02 65.0866L348.12 64.9866L336.22 54.2866L336.12 54.3866C337.02 57.6866 334.52 59.9866 332.42 62.2866L317.52 78.7866C315.42 81.0866 313.52 83.8866 310.12 83.2866L310.02 83.3866L321.92 94.0866L322.02 93.9866C321.12 90.6866 323.62 88.4866 325.72 86.1866L340.62 69.5866Z" fill="black"/>
<path fill-rule="evenodd" clip-rule="evenodd" d="M340.019 82.4867C329.619 89.4867 328.319 101.787 335.119 111.887C341.919 121.887 353.919 126.187 364.619 118.987C375.519 111.687 376.319 99.9867 369.419 89.6867C362.619 79.5867 350.519 75.3867 340.019 82.4867ZM347.719 91.1867C352.819 87.7867 360.119 86.5867 364.019 92.3867C368.619 99.1867 362.019 106.787 356.419 110.587C354.019 112.187 351.219 113.587 348.319 113.387C345.119 113.287 342.219 111.787 340.419 109.187C338.519 106.387 338.719 102.687 340.219 99.6867C341.719 96.5867 344.919 93.0867 347.719 91.1867Z" fill="black"/>
<path d="M391.52 148.187C394.62 146.687 397.02 145.687 400.32 146.987L400.52 146.887L395.72 136.487L395.52 136.587C394.42 139.987 392.02 141.087 388.92 142.587L374.92 149.087L388.92 122.387L389.12 122.287L383.92 111.087L383.72 111.187C381.82 115.587 380.52 116.487 376.32 118.487L357.72 127.187C354.62 128.687 352.22 129.687 348.92 128.387L348.72 128.487L353.62 138.887L353.82 138.787C354.92 135.387 357.32 134.287 360.42 132.787L374.62 126.187L374.72 126.387L365.72 143.187C363.52 147.487 362.12 149.287 362.02 154.287C361.92 156.287 362.02 159.887 362.92 161.787L391.52 148.187Z" fill="black"/>
<path d="M202.12 41.9867C217.52 49.9867 241.12 58.5867 254.42 70.0867C255.92 71.5867 255.72 73.5867 256.32 75.2867C257.52 75.5867 258.72 74.8867 260.02 74.9867C290.12 100.087 313.42 129.987 313.42 129.987C298.92 112.887 293.42 107.887 294.52 108.887C294.32 108.687 294.52 115.587 294.92 117.187C297.02 119.887 310.12 132.387 310.62 133.287C310.62 133.287 296.12 118.987 294.92 118.187C295.12 121.787 295.12 127.587 295.12 127.587C297.92 130.387 312.32 142.387 314.12 145.087L295.12 128.187L294.82 141.287C297.52 144.087 307.02 148.987 309.82 151.987C306.72 148.987 294.72 142.187 294.72 142.187L294.82 149.687C300.32 151.987 307.82 156.687 312.62 159.987C307.82 156.787 301.02 153.387 295.92 150.987C295.92 150.987 293.72 150.287 293.52 150.287C294.82 157.087 293.62 156.587 293.12 159.687C293.12 159.687 305.92 162.187 307.52 162.287L292.92 160.287C292.62 161.387 292.22 162.087 291.12 163.187C293.82 164.087 287.52 162.787 287.32 162.587C286.62 162.287 285.92 162.887 285.52 162.987C282.82 162.787 278.22 162.187 276.42 159.887C274.62 161.587 268.72 160.987 265.82 160.987C262.92 160.787 263.72 159.987 260.82 159.487C260.22 158.787 257.72 157.087 257.42 156.087C256.22 156.687 256.02 160.187 252.32 160.087C247.32 160.387 209.92 161.087 209.82 161.287C237.32 160.887 344.12 165.587 347.22 166.287C346.82 166.387 214.32 163.787 214.32 163.787L308.32 166.487H108.02C108.02 166.487 144.52 164.287 149.72 163.887C133.32 164.187 110.52 165.587 94.1197 166.087C94.7197 164.887 164.02 161.087 169.52 160.187C160.62 159.687 83.1197 165.687 82.0197 165.687C83.1197 164.887 76.1197 164.787 71.7197 164.787C101.82 161.787 133.92 162.387 164.12 161.487C181.12 160.787 238.72 160.087 245.52 159.687C240.02 159.087 235.82 158.787 235.12 158.787C231.02 158.387 232.52 155.587 229.82 152.387C223.12 154.987 198.52 153.287 198.22 152.587C197.52 152.987 196.72 153.987 196.02 154.587C196.62 154.887 198.42 154.887 199.12 154.987C197.72 155.187 189.92 155.987 186.92 155.787C181.82 155.587 180.92 152.887 178.12 148.687C175.22 148.687 153.52 150.687 153.52 150.687L153.42 152.887C160.72 153.487 177.12 154.387 177.12 154.387L152.52 154.187C152.52 154.187 151.02 155.587 151.12 155.987C154.52 156.687 169.82 156.487 173.32 156.987C171.72 156.887 159.42 156.787 157.82 157.187L158.02 157.087C155.62 157.387 152.02 156.687 149.72 157.887C149.52 158.087 149.12 158.287 149.12 158.487C155.82 158.887 171.22 157.987 178.02 158.687C168.52 158.687 150.02 159.487 140.12 159.687C136.02 159.087 132.22 158.187 131.12 154.387C130.92 152.187 128.22 152.287 126.42 151.987C120.52 152.187 116.12 151.487 110.62 151.187C108.92 151.387 107.92 149.987 107.92 148.387C108.02 146.487 108.32 141.887 108.32 141.887L109.42 122.287C108.12 122.487 104.72 123.187 104.72 123.187C104.82 115.687 105.92 109.087 107.82 102.287C108.62 102.387 111.32 100.087 113.02 99.6867C114.02 95.3867 115.12 91.0867 116.22 86.8867C115.82 86.2867 113.62 87.2867 114.02 85.8867C115.42 85.2867 117.42 84.5867 117.82 83.0867C118.52 81.4867 122.92 70.6867 128.32 64.9867C131.12 62.5867 134.32 59.9867 138.12 58.6867C138.82 57.6867 139.72 56.6867 140.32 55.5867C158.82 48.4867 178.72 44.5867 198.72 41.3867C200.02 41.0867 201.02 41.2867 202.12 41.9867Z" fill="black"/>
<path d="M203.22 56.0868C206.72 76.3868 206.92 98.1868 206.42 119.587L205.52 119.387C204.82 103.187 204.82 70.5868 202.02 54.8868C202.12 59.4868 204.42 76.8868 204.02 81.3868C204.42 93.2868 204.32 106.287 204.32 119.087C203.62 118.487 201.72 118.987 201.82 117.787C202.82 111.087 203.12 102.087 202.92 95.2868C203.02 93.6868 202.22 59.9868 197.92 45.5868C196.52 43.7868 193.92 44.9868 192.02 44.9868C186.62 45.6868 150.52 54.8868 141.52 58.1868C142.82 56.6868 145.22 56.2868 147.12 55.5868C156.72 51.6868 186.02 44.1868 199.92 43.1868C201.02 44.1868 203.02 52.7868 203.22 56.0868Z" fill="#DCDDDE"/>
<path d="M253.82 70.6867C255.12 71.9867 254.52 76.5867 254.52 76.5867C256.32 94.3867 254.72 115.287 254.92 132.887C251.52 132.187 217.42 122.987 207.82 119.987C207.62 95.2867 207.22 69.2867 202.62 45.0867C210.02 48.0867 240.62 59.5867 253.82 70.6867Z" fill="#F1F2F2"/>
<path d="M179.919 57.6868C176.919 61.2868 174.819 64.3868 172.619 68.3868C169.819 66.3868 160.019 69.3868 152.819 70.9868C141.219 73.8868 131.719 76.3868 120.919 79.4868C125.619 71.2868 127.019 64.2868 137.719 60.1868C141.919 58.7868 174.719 48.6868 193.619 45.1868C193.619 45.1868 184.719 51.8868 179.919 57.6868Z" fill="white"/>
<path d="M196.52 46.6868C199.32 57.6868 200.62 69.0868 201.02 80.8868C192.52 75.7868 183.32 72.0868 173.72 69.0868C176.42 63.2868 181.22 57.5868 186.12 52.5868C189.22 50.3868 192.52 47.1868 196.52 46.6868Z" fill="#F1F2F2"/>
<path d="M171.42 70.7868C167.72 70.5868 165.82 70.9868 161.42 71.9868C146.82 75.0868 133.12 78.9868 119.22 83.1868C120.52 79.0868 123.62 79.3868 129.82 77.5868C142.42 74.1868 155.92 70.6868 168.82 68.1868C169.82 67.9868 171.42 68.1868 172.52 68.8868L171.42 70.7868Z" fill="white"/>
<path d="M171.82 71.5868C169.22 81.1868 166.32 89.0868 164.72 101.787L164.62 109.387C149.12 110.087 114.32 118.887 112.02 119.587L112.92 110.887C121.42 106.987 155.62 100.087 162.72 98.6868C163.72 91.9868 168.12 77.2868 170.92 71.4868C171.32 71.3868 171.52 71.3868 171.82 71.5868Z" fill="white"/>
<path d="M258.819 77.0867C260.319 85.7867 261.319 125.887 261.319 135.187C260.919 135.287 259.919 134.487 259.919 134.387C259.419 122.287 258.919 97.5867 258.919 97.5867C259.119 99.6867 259.219 121.987 259.419 134.487L258.219 134.187C258.019 115.887 258.919 97.4867 256.919 79.0867L257.319 77.0867H258.819Z" fill="#DCDDDE"/>
<path d="M201.019 82.7868C201.419 90.3868 201.419 97.5868 201.019 105.387C197.219 103.887 193.319 102.887 189.819 100.987L186.919 100.287C188.419 92.2868 188.519 83.3868 187.419 75.4868C192.319 76.9868 197.019 79.5868 201.019 82.7868Z" fill="#F1F2F2"/>
<path d="M291.119 104.887C292.619 107.387 292.919 105.687 292.819 108.387C290.719 105.987 288.519 103.587 285.919 101.287C287.719 104.187 291.219 106.687 292.919 109.987L293.419 115.287C289.619 112.487 285.719 108.187 281.719 105.087C284.819 108.987 289.819 112.687 293.519 116.887L293.819 126.687L286.019 120.287C288.119 122.187 292.619 126.187 293.919 127.687C293.619 132.087 294.119 136.087 293.719 140.287C292.819 140.387 285.819 135.187 285.119 134.487C290.519 138.787 293.419 140.487 293.719 141.187L293.519 148.387C284.719 143.287 271.419 139.387 262.019 135.687C262.019 115.887 261.719 97.0867 260.419 78.1867L260.819 78.0867C268.119 83.0867 289.819 103.387 291.119 104.887Z" fill="#F1F2F2"/>
<path d="M166.319 79.2868C158.419 80.1868 151.419 83.2868 143.419 84.1868C150.619 82.2868 158.619 80.0868 166.519 78.6868L166.319 79.2868Z" fill="#808285"/>
<path d="M155.22 84.4868C155.52 84.4868 155.62 84.2868 155.92 84.0868L155.82 83.9868C159.12 82.5868 162.12 81.6868 165.82 81.1868V81.6868L155.22 84.4868Z" fill="#808285"/>
<path d="M175.02 82.1868C174.02 82.5868 172.52 82.4868 171.22 82.6868C171.42 82.1868 171.72 81.2868 172.52 81.4868C173.42 81.4868 174.42 81.4868 175.02 82.1868Z" fill="#808285"/>
<path d="M176.22 83.7867C174.32 84.4867 171.82 84.3867 170.12 86.0867C170.62 85.2867 170.52 83.7867 171.62 83.4867C173.02 83.2867 175.62 81.7867 176.22 83.7867Z" fill="#808285"/>
<path d="M164.919 83.6868C160.419 84.8868 155.419 85.7868 150.919 86.4868C155.619 84.9868 160.219 83.6868 165.019 82.6868L164.919 83.6868Z" fill="#808285"/>
<path d="M186.32 99.0868L185.52 99.2868C186.02 98.4868 185.72 90.2868 186.02 89.3868C186.02 87.7868 185.92 76.9868 186.02 75.4868C187.92 83.6868 186.32 96.0868 186.32 99.0868Z" fill="white"/>
<path d="M129.82 82.4867C129.72 83.4867 128.32 83.7867 126.92 84.8867C122.42 89.3867 120.02 94.7867 119.42 100.887L119.62 101.087C121.02 95.5867 122.62 89.5867 127.62 85.6867C127.82 85.6867 129.62 84.3867 129.82 84.6867C129.32 85.1867 127.22 87.2867 126.52 87.6867C128.12 88.1867 131.22 88.1867 132.12 90.4867C132.72 94.3867 131.12 98.4867 130.32 102.287C125.12 104.187 120.02 105.987 115.12 108.487V108.787C115.12 108.787 146.42 99.2867 161.92 96.4867L162.32 95.5867C162.22 96.5867 161.12 97.6867 160.32 97.9867C144.12 101.087 128.62 104.987 113.42 109.887L113.12 108.487C114.62 100.987 115.92 93.6867 118.22 86.4867L119.82 86.3867C117.02 92.7867 115.72 99.8867 115.72 106.887L116.12 106.487C117.52 99.6867 118.22 92.4867 121.92 86.6867C123.12 84.5867 127.32 82.3867 129.82 82.4867Z" fill="white"/>
<path d="M165.22 85.2866C161.42 85.5866 158.12 86.9866 154.52 87.7866C157.62 86.0866 161.22 85.3866 164.92 84.7866H165.42L165.22 85.2866Z" fill="#808285"/>
<path d="M157.52 88.2866C159.72 86.8866 162.62 86.7866 165.02 86.2866C163.12 87.3866 160.02 87.6866 157.52 88.2866Z" fill="#808285"/>
<path d="M174.22 103.787C173.02 104.087 170.42 104.987 169.32 104.587C168.22 100.487 169.12 93.3868 169.32 89.0868C169.62 87.0868 172.52 87.3868 174.42 86.6868C173.52 92.2868 173.42 98.2868 174.22 103.787Z" fill="white"/>
<path d="M158.819 89.3868L159.019 89.1868C158.819 89.0868 158.619 88.7868 158.319 88.8868C160.319 88.1868 162.419 87.9868 164.619 87.6868L164.419 88.0868L158.819 89.3868Z" fill="#808285"/>
<path d="M161.219 90.2866C160.619 90.7866 159.619 90.4866 158.919 90.7866C159.019 90.8866 160.519 90.5866 161.219 90.2866Z" fill="#808285"/>
<path d="M163.819 91.4868C161.719 92.4868 159.119 92.2868 156.819 92.9868L163.819 90.6868V91.4868Z" fill="#808285"/>
<path d="M175.52 91.9868L176.62 91.6868L178.82 92.0868L175.52 91.9868Z" fill="#808285"/>
<path d="M180.019 93.3867L175.519 93.4867C175.319 92.7867 175.919 93.1867 176.219 92.8867C177.619 93.1867 178.719 92.6867 180.019 93.3867Z" fill="#808285"/>
<path d="M163.22 93.4866L159.52 94.1866L160.42 93.7866C158.92 93.7866 157.12 94.0866 155.52 94.5866C157.32 94.1866 160.52 93.0866 163.22 92.7866V93.4866Z" fill="#808285"/>
<path d="M181.52 95.1868L175.32 94.9868C175.22 93.1868 177.52 94.4868 178.42 93.9868C179.52 94.4868 181.42 93.3868 181.52 95.1868Z" fill="#808285"/>
<path d="M181.82 95.7867C181.42 96.7867 182.62 96.2867 183.02 96.5867C180.62 96.6867 177.82 97.4867 175.32 96.7867L175.22 95.8867C177.62 95.1867 179.52 96.1867 181.82 95.7867Z" fill="#808285"/>
<path d="M168.819 105.687C169.519 107.187 174.319 105.487 175.419 104.487L175.319 98.0867C184.619 99.7867 192.519 102.987 201.019 106.487C200.619 110.287 200.619 113.887 200.419 117.587C189.019 114.687 177.419 113.887 165.419 111.987L166.119 98.3868C166.819 97.9868 166.719 95.3868 167.919 96.2868L168.819 105.687Z" fill="#F1F2F2"/>
<path d="M109.719 119.787C108.919 120.387 107.819 120.387 106.919 120.687C106.219 114.187 107.619 109.987 108.819 103.987C109.419 102.487 111.319 101.787 112.719 101.087C112.719 104.287 109.719 119.787 109.719 119.787Z" fill="white"/>
<path d="M163.72 113.587C163.72 115.987 164.92 118.887 163.42 122.487C162.72 122.687 161.42 122.487 160.52 122.387C160.52 122.387 161.62 122.887 161.82 122.187C161.82 119.487 164.32 110.987 159.22 111.787C144.82 114.787 127.72 117.187 114.02 121.287C113.32 121.387 112.52 121.687 112.12 122.487C111.52 124.487 110.72 133.687 111.22 133.387L112.42 133.687L109.22 135.387C110.12 131.687 109.42 125.287 111.12 121.387C117.82 118.387 151.02 111.887 160.82 110.587C163.42 109.987 163.62 110.987 163.72 113.587Z" fill="white"/>
<path d="M189.92 116.387C188.22 120.287 185.42 126.687 183.72 131.887C182.82 132.887 170.42 131.387 165.12 130.687C165.52 124.287 164.82 119.687 165.52 113.087C173.82 113.787 190.32 116.087 189.92 116.387Z" fill="#F1F2F2"/>
<path d="M200.42 123.987C200.82 124.887 201.22 129.187 201.32 130.087C200.72 128.087 199.62 123.587 196.62 123.887C193.82 124.687 193.32 126.387 191.62 129.287C190.02 135.387 189.12 143.687 195.32 148.087C196.92 148.887 198.52 146.787 200.92 141.587C199.92 144.987 199.02 154.187 194.12 152.787C190.72 150.487 189.22 148.187 186.92 142.187C184.52 135.887 186.32 129.787 189.12 123.687C190.32 121.387 191.22 120.287 193.82 119.287C198.32 118.687 199.42 120.787 200.42 123.987Z" fill="#808285"/>
<path d="M236.819 131.787L236.319 144.287C236.319 144.287 212.319 142.387 204.419 141.287C204.919 134.887 204.919 123.987 204.919 123.987L236.819 131.787Z" fill="white"/>
<path d="M159.82 123.987C157.12 124.587 153.62 123.887 151.92 126.787C151.72 127.587 151.82 129.187 152.12 130.187C152.02 129.887 150.72 130.587 150.52 130.587C150.32 129.187 150.22 126.287 151.12 124.887C153.62 124.187 157.82 122.787 160.52 122.987L159.82 123.987Z" fill="white"/>
<path d="M235.22 132.187C234.52 135.787 235.12 139.387 234.82 142.687L206.52 139.387L207.22 126.287C213.42 128.087 235.22 132.187 235.22 132.187Z" fill="black"/>
<path d="M201.02 132.087C201.02 136.687 201.32 139.887 198.12 144.487C197.32 145.687 196.32 145.887 194.62 144.787C192.62 142.887 192.22 140.687 191.82 137.787C191.62 133.587 191.82 131.287 194.02 127.887C194.52 127.087 195.12 126.287 196.02 125.887C200.02 125.887 200.92 129.187 201.02 132.087Z" fill="white"/>
<path d="M159.82 128.887L152.72 129.687C152.62 127.887 152.62 126.287 154.42 125.587C155.52 125.487 158.62 124.487 159.82 124.587V128.887Z" fill="white"/>
<path d="M150.22 124.787C149.92 126.387 149.72 129.187 149.92 130.687C142.22 132.487 122.72 136.287 120.92 137.187C119.92 135.687 121.02 132.787 121.62 130.987C131.02 128.187 140.22 126.787 150.22 124.787Z" fill="white"/>
<path d="M231.92 133.387C232.62 134.987 232.12 136.887 232.42 138.587C227.52 137.687 214.12 136.387 209.22 135.287C208.92 135.387 209.12 134.887 209.02 134.687C213.12 135.287 225.32 136.387 229.02 137.387L229.32 137.087C225.62 135.587 213.22 134.587 209.12 133.687L209.02 133.187C212.82 133.087 225.12 134.987 228.82 135.087C225.22 133.587 213.02 133.087 209.22 132.087C208.92 131.787 209.22 131.387 209.12 131.087C211.72 131.587 223.32 132.287 225.82 132.587C223.22 131.287 212.02 130.887 209.12 130.087V129.487C214.42 129.987 227.32 131.687 231.92 133.387Z" fill="#DCDDDE"/>
<path d="M246.12 133.587C246.62 134.287 247.02 136.587 247.42 137.287C246.52 135.787 246.22 134.987 244.92 134.787C241.72 136.187 241.42 139.587 241.52 142.187C241.52 144.887 242.02 150.787 244.42 152.287C245.72 153.087 247.02 152.187 247.62 151.387H247.52V150.587H247.62C247.62 152.587 247.02 154.487 245.62 156.287C244.62 157.287 243.52 157.187 241.82 154.887C239.42 150.687 239.22 145.287 238.72 140.587C238.92 136.887 238.92 132.987 241.72 130.687C244.02 130.287 245.32 132.287 246.12 133.587Z" fill="#808285"/>
<path d="M164.72 134.187C164.52 137.187 164.92 139.487 163.82 141.487C158.02 141.187 149.92 141.787 142.92 142.787C141.82 139.987 143.02 137.887 142.82 134.787C138.82 135.287 127.52 137.987 124.72 138.787C123.52 139.187 123.52 139.987 123.32 140.587C123.12 142.787 123.22 143.987 123.62 145.987C118.22 147.087 114.22 148.087 108.82 149.287C109.22 145.587 107.22 142.087 112.12 141.187C119.82 138.487 151.62 131.487 159.02 130.587C160.22 130.387 164.72 129.887 164.72 134.187Z" fill="white"/>
<path d="M183.519 132.987C182.419 135.687 179.419 138.987 176.719 140.687C172.819 140.787 168.619 141.487 164.919 140.987C165.219 137.787 165.519 135.187 165.319 132.287C165.419 131.387 165.919 131.887 166.919 131.787C167.919 132.287 179.419 132.487 183.519 132.987Z" fill="#F1F2F2"/>
<path d="M158.519 134.087C158.319 134.887 158.619 136.087 157.519 136.687C155.019 136.687 152.819 137.987 150.219 137.987C150.019 136.187 149.319 133.487 151.119 132.587C153.219 132.587 159.719 129.287 158.519 134.087Z" fill="black"/>
<path d="M256.22 141.187C255.32 140.987 255.72 139.787 255.22 139.187C255.12 138.487 254.42 137.887 253.52 137.587C252.32 137.787 251.52 138.987 251.02 139.887C249.62 145.287 249.82 151.187 254.22 154.787C255.42 154.987 256.32 151.687 256.32 151.687C256.12 153.987 254.92 156.787 252.92 158.187C251.72 158.487 251.42 157.687 250.92 156.987C247.82 150.287 249.32 143.587 249.22 136.687C249.62 135.887 250.62 134.687 251.72 134.787C255.62 134.887 255.12 138.987 256.22 141.187Z" fill="#808285"/>
<path d="M157.22 135.287L150.92 136.187C150.62 135.287 150.82 133.587 152.22 133.087C153.62 132.487 155.32 132.487 157.12 132.687L157.22 135.287Z" fill="white"/>
<path d="M246.62 137.687C247.42 141.987 248.02 147.187 246.82 151.387C246.52 151.987 245.72 151.987 245.22 151.687C242.42 147.387 242.62 141.287 243.92 136.387C245.22 135.387 246.02 136.787 246.62 137.687Z" fill="white"/>
<path d="M119.32 132.987C117.32 133.987 114.62 133.087 113.52 135.487C113.02 136.387 112.32 139.087 112.62 139.987C111.72 139.287 112.62 135.487 112.72 134.487C113.72 131.887 118.02 132.687 120.32 131.387C120.62 131.587 119.22 132.687 119.32 132.987Z" fill="white"/>
<path d="M232.319 139.987C227.419 139.487 214.019 137.987 209.119 137.087L208.919 136.287C214.319 137.387 227.419 137.987 232.319 139.987Z" fill="#DCDDDE"/>
<path d="M119.219 137.687L113.119 139.587C112.619 138.487 113.719 135.987 114.319 135.087C115.619 134.187 117.319 133.887 119.119 134.087L119.219 137.687Z" fill="white"/>
<path d="M140.32 136.487C140.42 138.387 140.82 140.987 141.02 142.587C136.22 143.187 130.52 144.787 125.62 145.687C124.92 143.787 125.12 142.087 125.72 140.387C130.12 138.287 135.32 137.587 140.32 136.487Z" fill="white"/>
<path d="M232.32 140.987V141.287C227.12 140.887 213.62 139.887 208.72 138.487V137.887C213.82 138.887 227.12 140.087 232.32 140.987Z" fill="#DCDDDE"/>
<path d="M255.42 141.987C255.82 145.787 256.42 149.387 255.02 152.887C253.82 153.387 253.32 152.087 252.82 151.287C251.92 147.787 250.72 143.387 252.42 139.787C254.12 138.387 255.32 140.787 255.42 141.987Z" fill="white"/>
<path d="M269.519 141.787C269.719 142.487 270.219 144.687 270.319 145.487C269.719 145.187 269.519 142.087 268.319 142.087C265.419 145.487 267.119 156.087 269.019 155.387C270.019 154.987 269.919 153.887 270.319 153.187C270.219 154.787 270.719 157.887 268.719 158.287C265.119 157.587 264.719 149.587 264.519 145.987C264.319 142.987 266.119 140.887 267.419 140.787C268.219 140.987 269.319 140.987 269.519 141.787Z" fill="#808285"/>
<path d="M111.42 140.187C111.42 140.187 110.22 140.687 109.22 141.087C109.92 139.487 107.72 136.087 111.82 135.287C111.22 136.487 111.02 138.987 111.42 140.187Z" fill="white"/>
<path d="M269.22 154.287L268.62 154.087C266.82 150.887 266.92 146.287 268.42 142.987C269.72 146.387 269.72 150.587 269.22 154.287Z" fill="white"/>
<path d="M275.82 144.187C276.12 144.887 276.62 146.087 276.72 147.187C276.02 146.587 276.22 144.987 274.92 145.087C272.62 147.787 273.22 151.787 274.52 154.787C275.12 155.287 275.02 155.587 275.92 155.587L276.82 153.887C277.02 154.987 276.12 157.387 274.92 158.287C272.92 157.787 272.52 155.687 272.12 154.087C271.82 150.287 271.62 145.787 274.12 143.187C274.92 143.187 275.32 143.787 275.82 144.187Z" fill="#808285"/>
<path d="M120.12 142.487C119.62 143.287 119.82 143.687 119.42 144.487C117.62 144.887 115.92 145.887 114.12 146.687C112.92 146.887 112.22 145.787 112.32 144.787C111.72 141.187 116.82 141.687 119.02 140.287C120.52 140.287 119.62 141.887 120.12 142.487Z" fill="black"/>
<path d="M118.82 143.687C117.02 144.287 115.52 145.487 113.32 145.387C113.22 144.687 113.02 144.187 113.12 143.487C114.92 142.787 116.62 141.887 118.52 141.487C119.22 142.087 118.72 142.987 118.82 143.687Z" fill="white"/>
<path d="M242.019 156.687C241.419 156.687 239.819 156.387 239.119 156.087C239.319 155.687 235.719 149.387 237.719 146.587L238.319 145.087C238.419 148.187 240.219 153.287 242.019 156.687Z" fill="#58595B"/>
<path d="M275.52 155.087C274.02 152.787 273.82 149.587 274.82 146.987L275.22 146.387C276.82 148.587 276.72 152.487 275.52 155.087Z" fill="white"/>
<path d="M263.22 145.487C263.52 151.187 265.619 156.787 266.619 157.787C266.519 158.087 265.219 158.387 264.919 158.087C263.119 155.187 261.92 151.787 261.72 148.587C261.52 147.487 262.82 144.587 263.22 145.487Z" fill="#58595B"/>
<path d="M287.319 150.187C286.919 150.387 286.719 149.887 286.419 150.187C284.319 153.287 285.119 157.687 287.219 160.587C287.319 160.887 287.019 161.287 286.719 161.387C285.619 161.587 285.319 160.387 284.819 159.787C283.819 156.587 284.019 152.787 284.719 149.487C284.919 148.987 285.719 147.587 286.519 148.587C286.919 148.887 287.319 149.587 287.319 150.187Z" fill="#808285"/>
<path d="M193.72 154.087C192.32 154.087 189.82 154.887 188.62 154.087C186.12 152.687 182.72 146.687 182.52 144.187C182.62 143.587 184.12 142.487 184.62 141.887C185.92 148.287 190.32 154.087 193.72 154.087Z" fill="#58595B"/>
<path d="M264.32 158.387C264.02 158.987 262.42 157.687 262.02 157.687C260.52 155.687 258.02 151.387 260.72 148.387C261.32 152.087 262.72 155.287 264.32 158.387Z" fill="#58595B"/>
<path d="M188.02 154.187C186.72 154.187 185.82 154.287 186.32 154.287C183.32 153.587 182.22 150.087 181.12 147.687C180.42 145.587 179.82 145.987 181.92 144.287C182.92 147.487 184.72 152.287 188.02 154.187Z" fill="#58595B"/>
<path d="M238.619 156.287C236.019 157.087 234.619 155.487 233.519 153.687C233.019 152.887 232.619 151.987 232.419 151.187L233.419 150.587C234.119 152.187 236.519 155.587 236.519 155.287C235.219 153.787 234.919 151.887 234.519 149.987L235.919 148.987C236.319 151.487 237.419 153.887 238.619 156.287Z" fill="#58595B"/>
<path d="M287.719 157.687C287.519 158.387 287.619 158.987 287.519 159.487C285.919 158.587 285.719 151.887 287.019 150.987C287.819 153.187 288.119 154.287 287.719 157.687Z" fill="white"/>
<path d="M291.62 151.587C289.72 152.887 289.82 155.087 289.72 157.487C290.02 159.187 290.12 160.187 291.12 161.287C290.72 161.587 290.72 162.187 290.22 162.187C288.42 160.487 289.02 158.787 288.52 156.487C288.52 153.987 289.22 151.087 291.12 149.787L291.62 151.587Z" fill="#808285"/>
<path d="M291.419 160.487C290.019 158.587 290.719 155.387 291.219 153.087C292.319 155.087 292.319 158.187 291.419 160.487Z" fill="white"/>
<path d="M250.02 157.287C249.92 157.487 250.12 157.787 249.82 157.887C248.82 157.687 249.02 156.787 248.32 156.287C248.82 155.187 247.42 154.187 248.42 153.187C249.22 154.487 248.72 156.087 250.02 157.287Z" fill="#58595B"/>
<path d="M247.42 157.287C246.42 156.487 247.12 155.887 247.52 154.987C247.12 155.987 249.12 157.187 247.42 157.287Z" fill="#58595B"/>
<path d="M160.019 112.887C147.919 115.887 126.119 118.687 114.519 122.887C114.319 122.787 114.319 122.387 114.319 122.387C114.319 122.387 147.819 114.487 160.019 112.887Z" fill="white"/>
<path d="M159.619 114.287C147.519 117.287 126.119 120.387 114.519 124.487C114.319 124.387 114.319 123.987 114.319 123.987C114.319 123.987 147.419 115.887 159.619 114.287Z" fill="white"/>
<path d="M159.619 116.187C147.519 119.187 126.119 122.087 114.519 126.287C114.319 126.187 114.319 125.787 114.319 125.787C114.319 125.787 147.419 117.687 159.619 116.187Z" fill="white"/>
<path d="M159.619 117.787C147.519 120.787 126.119 123.687 114.519 127.887C114.319 127.787 114.319 127.387 114.319 127.387C114.319 127.387 147.419 119.387 159.619 117.787Z" fill="white"/>
<path d="M159.519 119.787C147.419 122.787 126.119 125.487 114.519 129.587C114.319 129.487 114.319 129.087 114.319 129.087C114.319 129.087 147.319 121.287 159.519 119.787Z" fill="white"/>
<path d="M159.619 121.387C147.519 124.387 126.119 127.087 114.519 131.187C114.319 131.087 114.319 130.687 114.319 130.687C114.319 130.687 147.419 122.987 159.619 121.387Z" fill="white"/>
<path d="M160.72 123.087L164.02 122.987L164.42 130.987L160.72 129.287V123.087Z" fill="white"/>
<path d="M126.419 88.2866C123.919 90.7866 121.019 97.0866 118.919 105.887L130.019 101.387L131.419 94.0866C131.719 91.6866 131.419 90.0866 130.419 89.1866L126.419 88.2866Z" fill="#E6E7E8"/>
</svg>
