<svg width="400" height="167" viewBox="0 0 400 167" fill="none" xmlns="http://www.w3.org/2000/svg">
<path d="M50.6 166.011C64.6 103.011 128.9 51.2109 200.7 51.2109C272.5 51.2109 336.6 103.011 349.6 166.011H50.6Z" fill="#73A8DA"/>
<path d="M12.7 138.011C9.69998 136.911 6.39998 136.211 5.69998 132.811L5.5 132.711L0 147.711L0.2 147.811C2.9 145.711 5.99998 147.211 8.89998 148.311L29.8 155.911C32.7 157.011 36 157.711 36.7 161.111L36.9 161.211L44.4 138.811L37.3 133.811C38.2 136.911 38 139.611 36.9 142.611C36.2 144.611 36.7 144.611 35.2 146.111L12.7 138.011Z" fill="black"/>
<path fill-rule="evenodd" clip-rule="evenodd" d="M45.9999 111.811L51.9999 112.911C52.9999 113.011 53.2999 113.111 54.1999 113.611C55.8999 114.511 56.0999 115.911 56.1999 117.511L56.3999 117.611L65.0999 101.911H64.9999L64.8999 101.811C60.4999 103.211 59.1999 102.811 55.0999 102.211L22.7999 97.2109L15.7999 109.911L15.9999 110.011C17.2999 109.311 18.6999 108.911 20.0999 109.711C21.1999 110.311 22.7999 112.311 23.5999 113.211L40.3999 131.911C42.4999 134.311 43.6999 135.811 44.3999 138.811L44.5999 138.911L50.4999 128.211L50.2999 128.111C48.9999 128.611 47.7999 129.211 46.2999 128.411C45.1999 127.811 43.8999 126.311 43.0999 125.411L40.2999 122.211L45.9999 111.811ZM40.1999 110.811L36.2999 117.911L27.9999 108.811V108.711L40.1999 110.811Z" fill="black"/>
<path d="M64.2 102.911C67.8 101.211 71 98.811 73.6 95.911C76.5 92.811 78.7 89.711 79.2 85.311C79.7 81.411 78.2 77.911 75.4 75.211C72.6 72.611 69.6 71.911 65.8 72.311C62.7 72.611 60 73.811 57.1 75.011C54.9 76.011 51.7 77.711 49.6 75.811C47.6 73.911 48.8 71.111 50.3 69.411C52.3 67.211 55.2 65.911 58.1 65.211L53 60.511C50 62.011 47.1 64.211 44.9 66.611C42.4 69.311 40.4 72.411 39.9 76.111C39.5 79.411 40.7 82.911 43.2 85.211C52.9 94.311 64.2 80.011 69.5 85.011C71.9 87.311 70.1 90.511 68.3 92.511C65.4 95.611 60.7 97.911 56.4 98.511L64.2 102.911Z" fill="black"/>
<path d="M76.4 47.6108C77 46.7108 77.7 46.1108 78.5 45.4108C80.2 44.1108 82 43.4108 83.9 44.4108L79.8 36.1108L58.5 53.4108L57.5 54.0108L61.5 62.6108L61.6 62.1108C62.4 59.5108 63.3 57.9108 65.4 56.2108C66.2 55.5108 66.9 55.0108 67.9 54.5108L83 73.1108C84.9 75.5108 87.4 77.9108 86.3 81.1108L86.4 81.2108L98.9 71.1108L98.8 71.0108C95.3 70.8108 93.6 68.7108 91.4 66.1108L76.4 47.6108Z" fill="black"/>
<path fill-rule="evenodd" clip-rule="evenodd" d="M86.2 31.911L86.2999 32.111C89.6999 32.311 90.9 35.511 92.4 38.211L102.8 57.811C104.3 60.611 106.2 63.311 104.5 66.311L104.6 66.511L120 58.311C123.7 56.311 126.5 54.811 128 50.811C129.3 47.311 129.1 43.911 127.4 40.711C125 36.111 119.9 34.011 115.1 35.711C117.7 33.011 119 29.611 117.1 26.111C115.6 23.411 113.2 22.011 110.1 21.511C107 20.911 104.7 22.211 101.9 23.611L86.2 31.911ZM100.9 30.811C101.3 30.311 101.7 30.011 102.3 29.711C104.6 28.511 106.7 29.911 107.8 32.011C109 34.311 108.9 37.211 106.4 38.611C106 38.811 105.7 38.811 105.3 38.911L100.9 30.811ZM107.7 43.611L109 42.911C113 40.811 115.8 41.611 117.9 45.611C119.5 48.611 119.7 52.211 116.2 54.011C115.3 54.511 114.6 54.711 113.6 54.611L107.7 43.611Z" fill="black"/>
<path d="M137.2 18.1109C136.2 15.2109 134.7 12.1109 136.9 9.41094L136.8 9.21094L121.6 14.4109L121.7 14.6109C125.1 15.4109 125.8 18.7109 126.8 21.7109L134 42.7109C135 45.6109 136.5 48.6109 134.3 51.3109L134.4 51.5109L149.5 46.3109L149.4 46.1109C146 45.3109 145.4 42.0109 144.3 39.1109L137.2 18.1109Z" fill="black"/>
<path d="M158.1 12.911C157.6 9.81098 156.6 6.51098 159.1 4.21099V4.01099L143.3 6.81098V7.01098C146.5 8.31098 146.7 11.711 147.2 14.811L151.1 36.711C151.6 39.711 152.6 43.011 150.1 45.311V45.511L174 39.911L174.8 31.311C172.6 33.711 170.2 34.811 166.9 35.311C164.8 35.711 164.3 35.811 162.2 36.511L158.1 12.911Z" fill="black"/>
<path d="M177.1 38.9108C180.8 40.3108 184.8 40.9108 188.7 40.8108C192.9 40.7108 196.7 40.1108 200.2 37.5108C203.3 35.1108 204.9 31.6108 204.8 27.8108C204.7 24.0108 203.1 21.3108 200.2 18.9108C197.8 16.9108 195.1 15.8108 192.2 14.6108C190 13.7108 186.5 12.6108 186.5 9.8108C186.5 7.0108 189.3 5.9108 191.6 5.9108C194.6 5.8108 197.5 7.0108 200 8.6108L199.9 1.61079C196.8 0.510788 193.2 -0.0892117 189.9 0.0107883C186.3 0.110788 182.6 0.810788 179.6 3.01079C176.9 5.0108 175.3 8.3108 175.3 11.7108C175.5 25.0108 193.7 23.2108 193.8 30.5108C193.9 33.8108 190.2 34.8108 187.6 34.8108C183.3 34.9108 178.4 33.1108 175 30.4108L177.1 38.9108Z" fill="black"/>
<path d="M207.3 38.411C210.8 40.311 214.6 41.511 218.5 41.911C222.7 42.411 226.5 42.311 230.3 40.211C233.7 38.311 235.7 35.111 236.2 31.211C236.7 27.411 235.5 24.611 232.9 21.711C230.8 19.311 228.3 17.911 225.6 16.311C223.5 15.111 220.2 13.511 220.6 10.711C220.9 7.91101 223.9 7.31101 226.2 7.61101C229.2 8.01101 231.9 9.51101 234.2 11.411L235 4.511C232.1 2.911 228.6 1.911 225.3 1.511C221.7 1.111 217.9 1.311 214.7 3.111C211.7 4.711 209.7 7.81101 209.3 11.111C207.7 24.311 225.9 25.111 225 32.311C224.6 35.611 220.9 36.111 218.2 35.711C213.9 35.211 209.3 32.711 206.4 29.611L207.3 38.411Z" fill="black"/>
<path fill-rule="evenodd" clip-rule="evenodd" d="M261 17.4109C262.1 17.4109 263 17.6109 264 17.9109C266 18.5109 267.6 19.6109 267.9 21.8109L272.5 13.8109L246.1 5.71094L245.1 5.21094L240.2 13.3109L240.7 13.1109C243.3 12.3109 245.2 12.2109 247.8 13.0109C248.8 13.3109 249.7 13.6109 250.6 14.1109L243.6 37.0109C242.7 40.0109 242.1 43.3109 238.8 44.2109L238.7 44.4109L254.1 49.1109L254.2 48.9109C252.4 45.9109 253.2 43.3109 254.2 40.1109L261 17.4109Z" fill="black"/>
<path fill-rule="evenodd" clip-rule="evenodd" d="M281.8 49.9108L280.7 55.9108C280.6 56.9108 280.5 57.2108 280 58.1108C279.1 59.8108 277.7 60.0108 276.1 60.1108L276 60.3108L291.7 69.0108V68.9108L291.8 68.8108C290.4 64.4108 290.8 63.1108 291.4 59.0108L296.4 26.7108L283.6 19.6108V19.9108C284.3 21.2108 284.7 22.6108 283.9 24.0108C283.3 25.1108 281.3 26.7108 280.4 27.5108L261.7 44.3108C259.3 46.4108 257.8 47.6108 254.8 48.3108L254.7 48.5108L265.4 54.4108L265.5 54.2108C265 52.9108 264.4 51.7108 265.2 50.2108C265.8 49.1108 267.3 47.8108 268.2 47.0108L271.4 44.2108L281.8 49.9108ZM282.7 44.1108L275.6 40.2108L284.7 31.9108H284.8L282.7 44.1108Z" fill="black"/>
<path d="M322 51.411C323 51.811 323.8 52.311 324.6 52.911C326.3 54.211 327.4 55.811 326.9 57.911L333.9 51.911L311.8 35.311L311 34.511L303.6 40.411H304.1C306.8 40.511 308.6 41.011 310.8 42.711C311.7 43.311 312.4 43.911 313 44.711L298.8 63.911C296.9 66.411 295.2 69.311 291.8 69.011L291.7 69.111L304.6 78.911L304.7 78.811C304.1 75.411 305.7 73.211 307.7 70.511L322 51.411Z" fill="black"/>
<path d="M340.1 69.1108C342.2 66.8108 344.1 64.0108 347.5 64.6108L347.6 64.5108L335.7 53.8108L335.6 53.9108C336.5 57.2108 334 59.5108 331.9 61.8108L317 78.3108C314.9 80.6108 313 83.4108 309.6 82.8108L309.5 82.9108L321.4 93.6108L321.5 93.5108C320.6 90.2108 323.1 88.0108 325.2 85.7108L340.1 69.1108Z" fill="black"/>
<path fill-rule="evenodd" clip-rule="evenodd" d="M339.5 82.0109C329.1 89.0109 327.8 101.311 334.6 111.411C341.4 121.411 353.4 125.711 364.1 118.511C375 111.211 375.8 99.5109 368.9 89.2109C362.1 79.1109 350 74.9109 339.5 82.0109ZM347.2 90.7109C352.3 87.3109 359.6 86.1109 363.5 91.9109C368.1 98.7109 361.5 106.311 355.9 110.111C353.5 111.711 350.7 113.111 347.8 112.911C344.6 112.811 341.7 111.311 339.9 108.711C338 105.911 338.2 102.211 339.7 99.2109C341.2 96.1109 344.4 92.6109 347.2 90.7109Z" fill="black"/>
<path d="M391 147.711C394.1 146.211 396.5 145.211 399.8 146.511L400 146.411L395.2 136.011L395 136.111C393.9 139.511 391.5 140.611 388.4 142.111L374.4 148.611L388.4 121.911L388.6 121.811L383.4 110.611L383.2 110.711C381.3 115.111 380 116.011 375.8 118.011L357.2 126.711C354.1 128.211 351.7 129.211 348.4 127.911L348.2 128.011L353.1 138.411L353.3 138.311C354.4 134.911 356.8 133.811 359.9 132.311L374.1 125.711L374.2 125.911L365.2 142.711C363 147.011 361.6 148.811 361.5 153.811C361.4 155.811 361.5 159.411 362.4 161.311L391 147.711Z" fill="black"/>
<path d="M201.6 41.5109C217 49.5109 240.6 58.1109 253.9 69.6109C255.4 71.1109 255.2 73.1109 255.8 74.8109C257 75.1109 258.2 74.4109 259.5 74.5109C289.6 99.6109 312.9 129.511 312.9 129.511C298.4 112.411 292.9 107.411 294 108.411C293.8 108.211 294 115.111 294.4 116.711C296.5 119.411 309.6 131.911 310.1 132.811C310.1 132.811 295.6 118.511 294.4 117.711C294.6 121.311 294.6 127.111 294.6 127.111C297.4 129.911 311.8 141.911 313.6 144.611L294.6 127.711L294.3 140.811C297 143.611 306.5 148.511 309.3 151.511C306.2 148.511 294.2 141.711 294.2 141.711L294.3 149.211C299.8 151.511 307.3 156.211 312.1 159.511C307.3 156.311 300.5 152.911 295.4 150.511C295.4 150.511 293.2 149.811 293 149.811C294.3 156.611 293.1 156.111 292.6 159.211C292.6 159.211 305.4 161.711 307 161.811L292.4 159.811C292.1 160.911 291.7 161.611 290.6 162.711C293.3 163.611 287 162.311 286.8 162.111C286.1 161.811 285.4 162.411 285 162.511C282.3 162.311 277.7 161.711 275.9 159.411C274.1 161.111 268.2 160.511 265.3 160.511C262.4 160.311 263.2 159.511 260.3 159.011C259.7 158.311 257.2 156.611 256.9 155.611C255.7 156.211 255.5 159.711 251.8 159.611C246.8 159.911 209.4 160.611 209.3 160.811C236.8 160.411 343.6 165.111 346.7 165.811C346.3 165.911 213.8 163.311 213.8 163.311L307.8 166.011H107.5C107.5 166.011 144 163.811 149.2 163.411C132.8 163.711 110 165.111 93.6 165.611C94.2 164.411 163.5 160.611 169 159.711C160.1 159.211 82.6 165.211 81.5 165.211C82.6 164.411 75.6 164.311 71.2 164.311C101.3 161.311 133.4 161.911 163.6 161.011C180.6 160.311 238.2 159.611 245 159.211C239.5 158.611 235.3 158.311 234.6 158.311C230.5 157.911 232 155.111 229.3 151.911C222.6 154.511 198 152.811 197.7 152.111C197 152.511 196.2 153.511 195.5 154.111C196.1 154.411 197.9 154.411 198.6 154.511C197.2 154.711 189.4 155.511 186.4 155.311C181.3 155.111 180.4 152.411 177.6 148.211C174.7 148.211 153 150.211 153 150.211L152.9 152.411C160.2 153.011 176.6 153.911 176.6 153.911L152 153.711C152 153.711 150.5 155.111 150.6 155.511C154 156.211 169.3 156.011 172.8 156.511C171.2 156.411 158.9 156.311 157.3 156.711L157.5 156.611C155.1 156.911 151.5 156.211 149.2 157.411C149 157.611 148.6 157.811 148.6 158.011C155.3 158.411 170.7 157.511 177.5 158.211C168 158.211 149.5 159.011 139.6 159.211C135.5 158.611 131.7 157.711 130.6 153.911C130.4 151.711 127.7 151.811 125.9 151.511C120 151.711 115.6 151.011 110.1 150.711C108.4 150.911 107.4 149.511 107.4 147.911C107.5 146.011 107.8 141.411 107.8 141.411L108.9 121.811C107.6 122.011 104.2 122.711 104.2 122.711C104.3 115.211 105.4 108.611 107.3 101.811C108.1 101.911 110.8 99.6109 112.5 99.2109C113.5 94.9109 114.6 90.6109 115.7 86.4109C115.3 85.8109 113.1 86.8109 113.5 85.4109C114.9 84.8109 116.9 84.1109 117.3 82.6109C118 81.0109 122.4 70.2109 127.8 64.5109C130.6 62.1109 133.8 59.5109 137.6 58.2109C138.3 57.2109 139.2 56.2109 139.8 55.1109C158.3 48.0109 178.2 44.1109 198.2 40.9109C199.5 40.6109 200.5 40.8109 201.6 41.5109Z" fill="black"/>
<path d="M202.7 55.6109C206.2 75.9109 206.4 97.7109 205.9 119.111L205 118.911C204.3 102.711 204.3 70.1109 201.5 54.4109C201.6 59.0109 203.9 76.4109 203.5 80.9109C203.9 92.8109 203.8 105.811 203.8 118.611C203.1 118.011 201.2 118.511 201.3 117.311C202.3 110.611 202.6 101.611 202.4 94.8109C202.5 93.2109 201.7 59.5109 197.4 45.1109C196 43.3109 193.4 44.5109 191.5 44.5109C186.1 45.2109 150 54.4109 141 57.7109C142.3 56.2109 144.7 55.8109 146.6 55.1109C156.2 51.2109 185.5 43.7109 199.4 42.7109C200.5 43.7109 202.5 52.3109 202.7 55.6109Z" fill="#DCDDDE"/>
<path d="M253.3 70.2108C254.6 71.5108 254 76.1108 254 76.1108C255.8 93.9108 254.2 114.811 254.4 132.411C251 131.711 216.9 122.511 207.3 119.511C207.1 94.8108 206.7 68.8108 202.1 44.6108C209.5 47.6108 240.1 59.1108 253.3 70.2108Z" fill="#F1F2F2"/>
<path d="M179.4 57.2109C176.4 60.8109 174.3 63.9109 172.1 67.9109C169.3 65.9109 159.5 68.9109 152.3 70.5109C140.7 73.4109 131.2 75.9109 120.4 79.0109C125.1 70.8109 126.5 63.8109 137.2 59.7109C141.4 58.3109 174.2 48.2109 193.1 44.7109C193.1 44.7109 184.2 51.4109 179.4 57.2109Z" fill="white"/>
<path d="M196 46.2109C198.8 57.2109 200.1 68.6109 200.5 80.4109C192 75.3109 182.8 71.6109 173.2 68.6109C175.9 62.8109 180.7 57.1109 185.6 52.1109C188.7 49.9109 192 46.7109 196 46.2109Z" fill="#F1F2F2"/>
<path d="M170.9 70.311C167.2 70.111 165.3 70.511 160.9 71.511C146.3 74.611 132.6 78.511 118.7 82.711C120 78.611 123.1 78.911 129.3 77.111C141.9 73.711 155.4 70.211 168.3 67.711C169.3 67.511 170.9 67.711 172 68.411L170.9 70.311Z" fill="white"/>
<path d="M171.3 71.111C168.7 80.711 165.8 88.611 164.2 101.311L164.1 108.911C148.6 109.611 113.8 118.411 111.5 119.111L112.4 110.411C120.9 106.511 155.1 99.611 162.2 98.211C163.2 91.511 167.6 76.811 170.4 71.011C170.8 70.911 171 70.911 171.3 71.111Z" fill="white"/>
<path d="M258.3 76.6108C259.8 85.3108 260.8 125.411 260.8 134.711C260.4 134.811 259.4 134.011 259.4 133.911C258.9 121.811 258.4 97.1108 258.4 97.1108C258.6 99.2108 258.7 121.511 258.9 134.011L257.7 133.711C257.5 115.411 258.4 97.0108 256.4 78.6108L256.8 76.6108H258.3Z" fill="#DCDDDE"/>
<path d="M200.5 82.311C200.9 89.911 200.9 97.111 200.5 104.911C196.7 103.411 192.8 102.411 189.3 100.511L186.4 99.811C187.9 91.811 188 82.911 186.9 75.011C191.8 76.511 196.5 79.111 200.5 82.311Z" fill="#F1F2F2"/>
<path d="M290.6 104.411C292.1 106.911 292.4 105.211 292.3 107.911C290.2 105.511 288 103.111 285.4 100.811C287.2 103.711 290.7 106.211 292.4 109.511L292.9 114.811C289.1 112.011 285.2 107.711 281.2 104.611C284.3 108.511 289.3 112.211 293 116.411L293.3 126.211L285.5 119.811C287.6 121.711 292.1 125.711 293.4 127.211C293.1 131.611 293.6 135.611 293.2 139.811C292.3 139.911 285.3 134.711 284.6 134.011C290 138.311 292.9 140.011 293.2 140.711L293 147.911C284.2 142.811 270.9 138.911 261.5 135.211C261.5 115.411 261.2 96.6108 259.9 77.7108L260.3 77.6108C267.6 82.6108 289.3 102.911 290.6 104.411Z" fill="#F1F2F2"/>
<path d="M165.8 78.8109C157.9 79.7109 150.9 82.8109 142.9 83.7109C150.1 81.8109 158.1 79.6109 166 78.2109L165.8 78.8109Z" fill="#808285"/>
<path d="M154.7 84.0109C155 84.0109 155.1 83.8109 155.4 83.6109L155.3 83.5109C158.6 82.1109 161.6 81.2109 165.3 80.7109V81.2109L154.7 84.0109Z" fill="#808285"/>
<path d="M174.5 81.7109C173.5 82.1109 172 82.0109 170.7 82.2109C170.9 81.7109 171.2 80.8109 172 81.0109C172.9 81.0109 173.9 81.0109 174.5 81.7109Z" fill="#808285"/>
<path d="M175.7 83.3109C173.8 84.0109 171.3 83.9109 169.6 85.6109C170.1 84.8109 170 83.3109 171.1 83.0109C172.5 82.8109 175.1 81.3109 175.7 83.3109Z" fill="#808285"/>
<path d="M164.4 83.2109C159.9 84.4109 154.9 85.3109 150.4 86.0109C155.1 84.5109 159.7 83.2109 164.5 82.2109L164.4 83.2109Z" fill="#808285"/>
<path d="M185.8 98.611L185 98.811C185.5 98.011 185.2 89.811 185.5 88.911C185.5 87.311 185.4 76.511 185.5 75.011C187.4 83.211 185.8 95.611 185.8 98.611Z" fill="white"/>
<path d="M129.3 82.0109C129.2 83.0109 127.8 83.3109 126.4 84.4109C121.9 88.9109 119.5 94.3109 118.9 100.411L119.1 100.611C120.5 95.1109 122.1 89.1109 127.1 85.2109C127.3 85.2109 129.1 83.9109 129.3 84.2109C128.8 84.7109 126.7 86.8109 126 87.2109C127.6 87.7109 130.7 87.7109 131.6 90.0109C132.2 93.9109 130.6 98.0109 129.8 101.811C124.6 103.711 119.5 105.511 114.6 108.011V108.311C114.6 108.311 145.9 98.8109 161.4 96.0109L161.8 95.1109C161.7 96.1109 160.6 97.2109 159.8 97.5109C143.6 100.611 128.1 104.511 112.9 109.411L112.6 108.011C114.1 100.511 115.4 93.2109 117.7 86.0109L119.3 85.9109C116.5 92.3109 115.2 99.4109 115.2 106.411L115.6 106.011C117 99.2109 117.7 92.0109 121.4 86.2109C122.6 84.1109 126.8 81.9109 129.3 82.0109Z" fill="white"/>
<path d="M164.7 84.8108C160.9 85.1108 157.6 86.5108 154 87.3108C157.1 85.6108 160.7 84.9108 164.4 84.3108H164.9L164.7 84.8108Z" fill="#808285"/>
<path d="M157 87.8108C159.2 86.4108 162.1 86.3108 164.5 85.8108C162.6 86.9108 159.5 87.2108 157 87.8108Z" fill="#808285"/>
<path d="M173.7 103.311C172.5 103.611 169.9 104.511 168.8 104.111C167.7 100.011 168.6 92.9109 168.8 88.6109C169.1 86.6109 172 86.9109 173.9 86.2109C173 91.8109 172.9 97.8109 173.7 103.311Z" fill="white"/>
<path d="M158.3 88.9109L158.5 88.7109C158.3 88.6109 158.1 88.3109 157.8 88.4109C159.8 87.7109 161.9 87.5109 164.1 87.2109L163.9 87.6109L158.3 88.9109Z" fill="#808285"/>
<path d="M160.7 89.8108C160.1 90.3108 159.1 90.0108 158.4 90.3108C158.5 90.4108 160 90.1108 160.7 89.8108Z" fill="#808285"/>
<path d="M163.3 91.0109C161.2 92.0109 158.6 91.8109 156.3 92.5109L163.3 90.2109V91.0109Z" fill="#808285"/>
<path d="M175 91.5109L176.1 91.2109L178.3 91.6109L175 91.5109Z" fill="#808285"/>
<path d="M179.5 92.9109L175 93.0109C174.8 92.3109 175.4 92.7109 175.7 92.4109C177.1 92.7109 178.2 92.2109 179.5 92.9109Z" fill="#808285"/>
<path d="M162.7 93.0108L159 93.7108L159.9 93.3108C158.4 93.3108 156.6 93.6108 155 94.1108C156.8 93.7108 160 92.6108 162.7 92.3108V93.0108Z" fill="#808285"/>
<path d="M181 94.711L174.8 94.511C174.7 92.711 177 94.011 177.9 93.511C179 94.011 180.9 92.911 181 94.711Z" fill="#808285"/>
<path d="M181.3 95.3108C180.9 96.3108 182.1 95.8108 182.5 96.1108C180.1 96.2108 177.3 97.0108 174.8 96.3108L174.7 95.4108C177.1 94.7108 179 95.7108 181.3 95.3108Z" fill="#808285"/>
<path d="M168.3 105.211C169 106.711 173.8 105.011 174.9 104.011L174.8 97.6109C184.1 99.3109 192 102.511 200.5 106.011C200.1 109.811 200.1 113.411 199.9 117.111C188.5 114.211 176.9 113.411 164.9 111.511L165.6 97.9109C166.3 97.5109 166.2 94.9109 167.4 95.8109L168.3 105.211Z" fill="#F1F2F2"/>
<path d="M109.2 119.311C108.4 119.911 107.3 119.911 106.4 120.211C105.7 113.711 107.1 109.511 108.3 103.511C108.9 102.011 110.8 101.311 112.2 100.611C112.2 103.811 109.2 119.311 109.2 119.311Z" fill="white"/>
<path d="M163.2 113.111C163.2 115.511 164.4 118.411 162.9 122.011C162.2 122.211 160.9 122.011 160 121.911C160 121.911 161.1 122.411 161.3 121.711C161.3 119.011 163.8 110.511 158.7 111.311C144.3 114.311 127.2 116.711 113.5 120.811C112.8 120.911 112 121.211 111.6 122.011C111 124.011 110.2 133.211 110.7 132.911L111.9 133.211L108.7 134.911C109.6 131.211 108.9 124.811 110.6 120.911C117.3 117.911 150.5 111.411 160.3 110.111C162.9 109.511 163.1 110.511 163.2 113.111Z" fill="white"/>
<path d="M189.4 115.911C187.7 119.811 184.9 126.211 183.2 131.411C182.3 132.411 169.9 130.911 164.6 130.211C165 123.811 164.3 119.211 165 112.611C173.3 113.311 189.8 115.611 189.4 115.911Z" fill="#F1F2F2"/>
<path d="M199.9 123.511C200.3 124.411 200.7 128.711 200.8 129.611C200.2 127.611 199.1 123.111 196.1 123.411C193.3 124.211 192.8 125.911 191.1 128.811C189.5 134.911 188.6 143.211 194.8 147.611C196.4 148.411 198 146.311 200.4 141.111C199.4 144.511 198.5 153.711 193.6 152.311C190.2 150.011 188.7 147.711 186.4 141.711C184 135.411 185.8 129.311 188.6 123.211C189.8 120.911 190.7 119.811 193.3 118.811C197.8 118.211 198.9 120.311 199.9 123.511Z" fill="#808285"/>
<path d="M236.3 131.311L235.8 143.811C235.8 143.811 211.8 141.911 203.9 140.811C204.4 134.411 204.4 123.511 204.4 123.511L236.3 131.311Z" fill="white"/>
<path d="M159.3 123.511C156.6 124.111 153.1 123.411 151.4 126.311C151.2 127.111 151.3 128.711 151.6 129.711C151.5 129.411 150.2 130.111 150 130.111C149.8 128.711 149.7 125.811 150.6 124.411C153.1 123.711 157.3 122.311 160 122.511L159.3 123.511Z" fill="white"/>
<path d="M234.7 131.711C234 135.311 234.6 138.911 234.3 142.211L206 138.911L206.7 125.811C212.9 127.611 234.7 131.711 234.7 131.711Z" fill="black"/>
<path d="M200.5 131.611C200.5 136.211 200.8 139.411 197.6 144.011C196.8 145.211 195.8 145.411 194.1 144.311C192.1 142.411 191.7 140.211 191.3 137.311C191.1 133.111 191.3 130.811 193.5 127.411C194 126.611 194.6 125.811 195.5 125.411C199.5 125.411 200.4 128.711 200.5 131.611Z" fill="white"/>
<path d="M159.3 128.411L152.2 129.211C152.1 127.411 152.1 125.811 153.9 125.111C155 125.011 158.1 124.011 159.3 124.111V128.411Z" fill="white"/>
<path d="M149.7 124.311C149.4 125.911 149.2 128.711 149.4 130.211C141.7 132.011 122.2 135.811 120.4 136.711C119.4 135.211 120.5 132.311 121.1 130.511C130.5 127.711 139.7 126.311 149.7 124.311Z" fill="white"/>
<path d="M231.4 132.911C232.1 134.511 231.6 136.411 231.9 138.111C227 137.211 213.6 135.911 208.7 134.811C208.4 134.911 208.6 134.411 208.5 134.211C212.6 134.811 224.8 135.911 228.5 136.911L228.8 136.611C225.1 135.111 212.7 134.111 208.6 133.211L208.5 132.711C212.3 132.611 224.6 134.511 228.3 134.611C224.7 133.111 212.5 132.611 208.7 131.611C208.4 131.311 208.7 130.911 208.6 130.611C211.2 131.111 222.8 131.811 225.3 132.111C222.7 130.811 211.5 130.411 208.6 129.611V129.011C213.9 129.511 226.8 131.211 231.4 132.911Z" fill="#DCDDDE"/>
<path d="M245.6 133.111C246.1 133.811 246.5 136.111 246.9 136.811C246 135.311 245.7 134.511 244.4 134.311C241.2 135.711 240.9 139.111 241 141.711C241 144.411 241.5 150.311 243.9 151.811C245.2 152.611 246.5 151.711 247.1 150.911H247V150.111H247.1C247.1 152.111 246.5 154.011 245.1 155.811C244.1 156.811 243 156.711 241.3 154.411C238.9 150.211 238.7 144.811 238.2 140.111C238.4 136.411 238.4 132.511 241.2 130.211C243.5 129.811 244.8 131.811 245.6 133.111Z" fill="#808285"/>
<path d="M164.2 133.711C164 136.711 164.4 139.011 163.3 141.011C157.5 140.711 149.4 141.311 142.4 142.311C141.3 139.511 142.5 137.411 142.3 134.311C138.3 134.811 127 137.511 124.2 138.311C123 138.711 123 139.511 122.8 140.111C122.6 142.311 122.7 143.511 123.1 145.511C117.7 146.611 113.7 147.611 108.3 148.811C108.7 145.111 106.7 141.611 111.6 140.711C119.3 138.011 151.1 131.011 158.5 130.111C159.7 129.911 164.2 129.411 164.2 133.711Z" fill="white"/>
<path d="M183 132.511C181.9 135.211 178.9 138.511 176.2 140.211C172.3 140.311 168.1 141.011 164.4 140.511C164.7 137.311 165 134.711 164.8 131.811C164.9 130.911 165.4 131.411 166.4 131.311C167.4 131.811 178.9 132.011 183 132.511Z" fill="#F1F2F2"/>
<path d="M158 133.611C157.8 134.411 158.1 135.611 157 136.211C154.5 136.211 152.3 137.511 149.7 137.511C149.5 135.711 148.8 133.011 150.6 132.111C152.7 132.111 159.2 128.811 158 133.611Z" fill="black"/>
<path d="M255.7 140.711C254.8 140.511 255.2 139.311 254.7 138.711C254.6 138.011 253.9 137.411 253 137.111C251.8 137.311 251 138.511 250.5 139.411C249.1 144.811 249.3 150.711 253.7 154.311C254.9 154.511 255.8 151.211 255.8 151.211C255.6 153.511 254.4 156.311 252.4 157.711C251.2 158.011 250.9 157.211 250.4 156.511C247.3 149.811 248.8 143.111 248.7 136.211C249.1 135.411 250.1 134.211 251.2 134.311C255.1 134.411 254.6 138.511 255.7 140.711Z" fill="#808285"/>
<path d="M156.7 134.811L150.4 135.711C150.1 134.811 150.3 133.111 151.7 132.611C153.1 132.011 154.8 132.011 156.6 132.211L156.7 134.811Z" fill="white"/>
<path d="M246.1 137.211C246.9 141.511 247.5 146.711 246.3 150.911C246 151.511 245.2 151.511 244.7 151.211C241.9 146.911 242.1 140.811 243.4 135.911C244.7 134.911 245.5 136.311 246.1 137.211Z" fill="white"/>
<path d="M118.8 132.511C116.8 133.511 114.1 132.611 113 135.011C112.5 135.911 111.8 138.611 112.1 139.511C111.2 138.811 112.1 135.011 112.2 134.011C113.2 131.411 117.5 132.211 119.8 130.911C120.1 131.111 118.7 132.211 118.8 132.511Z" fill="white"/>
<path d="M231.8 139.511C226.9 139.011 213.5 137.511 208.6 136.611L208.4 135.811C213.8 136.911 226.9 137.511 231.8 139.511Z" fill="#DCDDDE"/>
<path d="M118.7 137.211L112.6 139.111C112.1 138.011 113.2 135.511 113.8 134.611C115.1 133.711 116.8 133.411 118.6 133.611L118.7 137.211Z" fill="white"/>
<path d="M139.8 136.011C139.9 137.911 140.3 140.511 140.5 142.111C135.7 142.711 130 144.311 125.1 145.211C124.4 143.311 124.6 141.611 125.2 139.911C129.6 137.811 134.8 137.111 139.8 136.011Z" fill="white"/>
<path d="M231.8 140.511V140.811C226.6 140.411 213.1 139.411 208.2 138.011V137.411C213.3 138.411 226.6 139.611 231.8 140.511Z" fill="#DCDDDE"/>
<path d="M254.9 141.511C255.3 145.311 255.9 148.911 254.5 152.411C253.3 152.911 252.8 151.611 252.3 150.811C251.4 147.311 250.2 142.911 251.9 139.311C253.6 137.911 254.8 140.311 254.9 141.511Z" fill="white"/>
<path d="M269 141.311C269.2 142.011 269.7 144.211 269.8 145.011C269.2 144.711 269 141.611 267.8 141.611C264.9 145.011 266.6 155.611 268.5 154.911C269.5 154.511 269.4 153.411 269.8 152.711C269.7 154.311 270.2 157.411 268.2 157.811C264.6 157.111 264.2 149.111 264 145.511C263.8 142.511 265.6 140.411 266.9 140.311C267.7 140.511 268.8 140.511 269 141.311Z" fill="#808285"/>
<path d="M110.9 139.711C110.9 139.711 109.7 140.211 108.7 140.611C109.4 139.011 107.2 135.611 111.3 134.811C110.7 136.011 110.5 138.511 110.9 139.711Z" fill="white"/>
<path d="M268.7 153.811L268.1 153.611C266.3 150.411 266.4 145.811 267.9 142.511C269.2 145.911 269.2 150.111 268.7 153.811Z" fill="white"/>
<path d="M275.3 143.711C275.6 144.411 276.1 145.611 276.2 146.711C275.5 146.111 275.7 144.511 274.4 144.611C272.1 147.311 272.7 151.311 274 154.311C274.6 154.811 274.5 155.111 275.4 155.111L276.3 153.411C276.5 154.511 275.6 156.911 274.4 157.811C272.4 157.311 272 155.211 271.6 153.611C271.3 149.811 271.1 145.311 273.6 142.711C274.4 142.711 274.8 143.311 275.3 143.711Z" fill="#808285"/>
<path d="M119.6 142.011C119.1 142.811 119.3 143.211 118.9 144.011C117.1 144.411 115.4 145.411 113.6 146.211C112.4 146.411 111.7 145.311 111.8 144.311C111.2 140.711 116.3 141.211 118.5 139.811C120 139.811 119.1 141.411 119.6 142.011Z" fill="black"/>
<path d="M118.3 143.211C116.5 143.811 115 145.011 112.8 144.911C112.7 144.211 112.5 143.711 112.6 143.011C114.4 142.311 116.1 141.411 118 141.011C118.7 141.611 118.2 142.511 118.3 143.211Z" fill="white"/>
<path d="M241.5 156.211C240.9 156.211 239.3 155.911 238.6 155.611C238.8 155.211 235.2 148.911 237.2 146.111L237.8 144.611C237.9 147.711 239.7 152.811 241.5 156.211Z" fill="#58595B"/>
<path d="M275 154.611C273.5 152.311 273.3 149.111 274.3 146.511L274.7 145.911C276.3 148.111 276.2 152.011 275 154.611Z" fill="white"/>
<path d="M262.7 145.011C263 150.711 265.1 156.311 266.1 157.311C266 157.611 264.7 157.911 264.4 157.611C262.6 154.711 261.4 151.311 261.2 148.111C261 147.011 262.3 144.111 262.7 145.011Z" fill="#58595B"/>
<path d="M286.8 149.711C286.4 149.911 286.2 149.411 285.9 149.711C283.8 152.811 284.6 157.211 286.7 160.111C286.8 160.411 286.5 160.811 286.2 160.911C285.1 161.111 284.8 159.911 284.3 159.311C283.3 156.111 283.5 152.311 284.2 149.011C284.4 148.511 285.2 147.111 286 148.111C286.4 148.411 286.8 149.111 286.8 149.711Z" fill="#808285"/>
<path d="M193.2 153.611C191.8 153.611 189.3 154.411 188.1 153.611C185.6 152.211 182.2 146.211 182 143.711C182.1 143.111 183.6 142.011 184.1 141.411C185.4 147.811 189.8 153.611 193.2 153.611Z" fill="#58595B"/>
<path d="M263.8 157.911C263.5 158.511 261.9 157.211 261.5 157.211C260 155.211 257.5 150.911 260.2 147.911C260.8 151.611 262.2 154.811 263.8 157.911Z" fill="#58595B"/>
<path d="M187.5 153.711C186.2 153.711 185.3 153.811 185.8 153.811C182.8 153.111 181.7 149.611 180.6 147.211C179.9 145.111 179.3 145.511 181.4 143.811C182.4 147.011 184.2 151.811 187.5 153.711Z" fill="#58595B"/>
<path d="M238.1 155.811C235.5 156.611 234.1 155.011 233 153.211C232.5 152.411 232.1 151.511 231.9 150.711L232.9 150.111C233.6 151.711 236 155.111 236 154.811C234.7 153.311 234.4 151.411 234 149.511L235.4 148.511C235.8 151.011 236.9 153.411 238.1 155.811Z" fill="#58595B"/>
<path d="M287.2 157.211C287 157.911 287.1 158.511 287 159.011C285.4 158.111 285.2 151.411 286.5 150.511C287.3 152.711 287.6 153.811 287.2 157.211Z" fill="white"/>
<path d="M291.1 151.111C289.2 152.411 289.3 154.611 289.2 157.011C289.5 158.711 289.6 159.711 290.6 160.811C290.2 161.111 290.2 161.711 289.7 161.711C287.9 160.011 288.5 158.311 288 156.011C288 153.511 288.7 150.611 290.6 149.311L291.1 151.111Z" fill="#808285"/>
<path d="M290.9 160.011C289.5 158.111 290.2 154.911 290.7 152.611C291.8 154.611 291.8 157.711 290.9 160.011Z" fill="white"/>
<path d="M249.5 156.811C249.4 157.011 249.6 157.311 249.3 157.411C248.3 157.211 248.5 156.311 247.8 155.811C248.3 154.711 246.9 153.711 247.9 152.711C248.7 154.011 248.2 155.611 249.5 156.811Z" fill="#58595B"/>
<path d="M246.9 156.811C245.9 156.011 246.6 155.411 247 154.511C246.6 155.511 248.6 156.711 246.9 156.811Z" fill="#58595B"/>
<path d="M159.5 112.411C147.4 115.411 125.6 118.211 114 122.411C113.8 122.311 113.8 121.911 113.8 121.911C113.8 121.911 147.3 114.011 159.5 112.411Z" fill="white"/>
<path d="M159.1 113.811C147 116.811 125.6 119.911 114 124.011C113.8 123.911 113.8 123.511 113.8 123.511C113.8 123.511 146.9 115.411 159.1 113.811Z" fill="white"/>
<path d="M159.1 115.711C147 118.711 125.6 121.611 114 125.811C113.8 125.711 113.8 125.311 113.8 125.311C113.8 125.311 146.9 117.211 159.1 115.711Z" fill="white"/>
<path d="M159.1 117.311C147 120.311 125.6 123.211 114 127.411C113.8 127.311 113.8 126.911 113.8 126.911C113.8 126.911 146.9 118.911 159.1 117.311Z" fill="white"/>
<path d="M159 119.311C146.9 122.311 125.6 125.011 114 129.111C113.8 129.011 113.8 128.611 113.8 128.611C113.8 128.611 146.8 120.811 159 119.311Z" fill="white"/>
<path d="M159.1 120.911C147 123.911 125.6 126.611 114 130.711C113.8 130.611 113.8 130.211 113.8 130.211C113.8 130.211 146.9 122.511 159.1 120.911Z" fill="white"/>
<path d="M160.2 122.611L163.5 122.511L163.9 130.511L160.2 128.811V122.611Z" fill="white"/>
<path d="M125.9 87.8108C123.4 90.3108 120.5 96.6108 118.4 105.411L129.5 100.911L130.9 93.6108C131.2 91.2108 130.9 89.6108 129.9 88.7108L125.9 87.8108Z" fill="#E6E7E8"/>
</svg>
