<svg width="409" height="176" viewBox="0 0 409 176" fill="none" xmlns="http://www.w3.org/2000/svg">
<path d="M55 171.1C69 108.1 133.3 56.3 205.1 56.3C276.9 56.3 341 108.1 354 171.1H55Z" fill="#73A8DA"/>
<path d="M17.1 143.1C14.1 142 10.8 141.3 10.1 137.9L9.90002 137.8L4.40002 152.8L4.60002 152.9C7.30002 150.8 10.4 152.3 13.3 153.4L34.2 161C37.1 162.1 40.4 162.8 41.1 166.2L41.3 166.3L48.8 143.9L41.7 138.9C42.6 142 42.4 144.7 41.3 147.7C40.6 149.7 41.1 149.7 39.6 151.2L17.1 143.1Z" fill="black"/>
<path fill-rule="evenodd" clip-rule="evenodd" d="M50.4 116.9L56.4 118C57.4 118.1 57.7 118.2 58.6 118.7C60.3 119.6 60.5 121 60.6 122.6L60.8 122.7L69.5 107H69.4L69.3 106.9C64.9 108.3 63.6 107.9 59.5 107.3L27.2 102.3L20.2 115L20.4 115.1C21.7 114.4 23.1 114 24.5 114.8C25.6 115.4 27.2 117.4 28 118.3L44.8 137C46.9 139.4 48.1 140.9 48.8 143.9L49 144L54.9 133.3L54.7 133.2C53.4 133.7 52.2 134.3 50.7 133.5C49.6 132.9 48.3 131.4 47.5 130.5L44.7 127.3L50.4 116.9ZM44.6 115.9L40.7 123L32.4 113.9V113.8L44.6 115.9Z" fill="black"/>
<path d="M68.6 108C72.2 106.3 75.4 103.9 78 101C80.9 97.9 83.1 94.8 83.6 90.4C84.1 86.5 82.6 83 79.8 80.3C77 77.7 74 77 70.2 77.4C67.1 77.7 64.4 78.9 61.5 80.1C59.3 81.1 56.1 82.8 54 80.9C52 79 53.2 76.2 54.7 74.5C56.7 72.3 59.6 71 62.5 70.3L57.4 65.6C54.4 67.1 51.5 69.3 49.3 71.7C46.8 74.4 44.8 77.5 44.3 81.2C43.9 84.5 45.1 88 47.6 90.3C57.3 99.4 68.6 85.1 73.9 90.1C76.3 92.4 74.5 95.6 72.7 97.6C69.8 100.7 65.1 103 60.8 103.6L68.6 108Z" fill="black"/>
<path d="M80.8 52.7C81.4 51.8 82.1 51.2 82.9 50.5C84.6 49.2 86.4 48.5 88.3 49.5L84.2 41.2L62.9 58.5L61.9 59.1L65.9 67.7L66 67.2C66.8 64.6 67.7 63 69.8 61.3C70.6 60.6 71.3 60.1 72.3 59.6L87.4 78.2C89.3 80.6 91.8 83 90.7 86.2L90.8 86.3L103.3 76.2L103.2 76.1C99.7 75.9 98 73.8 95.8 71.2L80.8 52.7Z" fill="black"/>
<path fill-rule="evenodd" clip-rule="evenodd" d="M90.6 37L90.7 37.2C94.1 37.4 95.3 40.6 96.8 43.3L107.2 62.9C108.7 65.7 110.6 68.4 108.9 71.4L109 71.6L124.4 63.4C128.1 61.4 130.9 59.9 132.4 55.9C133.7 52.4 133.5 49 131.8 45.8C129.4 41.2 124.3 39.1 119.5 40.8C122.1 38.1 123.4 34.7 121.5 31.2C120 28.5 117.6 27.1 114.5 26.6C111.4 26 109.1 27.3 106.3 28.7L90.6 37ZM105.3 35.9C105.7 35.4 106.1 35.1 106.7 34.8C109 33.6 111.1 35 112.2 37.1C113.4 39.4 113.3 42.3 110.8 43.7C110.4 43.9 110.1 43.9 109.7 44L105.3 35.9ZM112.1 48.7L113.4 48C117.4 45.9 120.2 46.7 122.3 50.7C123.9 53.7 124.1 57.3 120.6 59.1C119.7 59.6 119 59.8 118 59.7L112.1 48.7Z" fill="black"/>
<path d="M141.6 23.2C140.6 20.3 139.1 17.2 141.3 14.5L141.2 14.3L126 19.5L126.1 19.7C129.5 20.5 130.2 23.8 131.2 26.8L138.4 47.8C139.4 50.7 140.9 53.7 138.7 56.4L138.8 56.6L153.9 51.4L153.8 51.2C150.4 50.4 149.8 47.1 148.7 44.2L141.6 23.2Z" fill="black"/>
<path d="M162.5 18C162 14.9 161 11.6 163.5 9.30001V9.10001L147.7 11.9V12.1C150.9 13.4 151.1 16.8 151.6 19.9L155.5 41.8C156 44.8 157 48.1 154.5 50.4V50.6L178.4 45L179.2 36.4C177 38.8 174.6 39.9 171.3 40.4C169.2 40.8 168.7 40.9 166.6 41.6L162.5 18Z" fill="black"/>
<path d="M181.5 44C185.2 45.4 189.2 46 193.1 45.9C197.3 45.8 201.1 45.2 204.6 42.6C207.7 40.2 209.3 36.7 209.2 32.9C209.1 29.1 207.5 26.4 204.6 24C202.2 22 199.5 20.9 196.6 19.7C194.4 18.8 190.9 17.7 190.9 14.9C190.9 12.1 193.7 11 196 11C199 10.9 201.9 12.1 204.4 13.7L204.3 6.69999C201.2 5.59999 197.6 4.99999 194.3 5.09999C190.7 5.19999 187 5.89999 184 8.09999C181.3 10.1 179.7 13.4 179.7 16.8C179.9 30.1 198.1 28.3 198.2 35.6C198.3 38.9 194.6 39.9 192 39.9C187.7 40 182.8 38.2 179.4 35.5L181.5 44Z" fill="black"/>
<path d="M211.7 43.5C215.2 45.4 219 46.6 222.9 47C227.1 47.5 230.9 47.4 234.7 45.3C238.1 43.4 240.1 40.2 240.6 36.3C241.1 32.5 239.9 29.7 237.3 26.8C235.2 24.4 232.7 23 230 21.4C227.9 20.2 224.6 18.6 225 15.8C225.3 13 228.3 12.4 230.6 12.7C233.6 13.1 236.3 14.6 238.6 16.5L239.4 9.59999C236.5 7.99999 233 6.99999 229.7 6.59999C226.1 6.19999 222.3 6.39999 219.1 8.19999C216.1 9.79999 214.1 12.9 213.7 16.2C212.1 29.4 230.3 30.2 229.4 37.4C229 40.7 225.3 41.2 222.6 40.8C218.3 40.3 213.7 37.8 210.8 34.7L211.7 43.5Z" fill="black"/>
<path fill-rule="evenodd" clip-rule="evenodd" d="M265.4 22.5C266.5 22.5 267.4 22.7 268.4 23C270.4 23.6 272 24.7 272.3 26.9L276.9 18.9L250.5 10.8L249.5 10.3L244.6 18.4L245.1 18.2C247.7 17.4 249.6 17.3 252.2 18.1C253.2 18.4 254.1 18.7 255 19.2L248 42.1C247.1 45.1 246.5 48.4 243.2 49.3L243.1 49.5L258.5 54.2L258.6 54C256.8 51 257.6 48.4 258.6 45.2L265.4 22.5Z" fill="black"/>
<path fill-rule="evenodd" clip-rule="evenodd" d="M286.2 55L285.1 61C285 62 284.9 62.3 284.4 63.2C283.5 64.9 282.1 65.1 280.5 65.2L280.4 65.4L296.1 74.1V74L296.2 73.9C294.8 69.5 295.2 68.2 295.8 64.1L300.8 31.8L288 24.7V25C288.7 26.3 289.1 27.7 288.3 29.1C287.7 30.2 285.7 31.8 284.8 32.6L266.1 49.4C263.7 51.5 262.2 52.7 259.2 53.4L259.1 53.6L269.8 59.5L269.9 59.3C269.4 58 268.8 56.8 269.6 55.3C270.2 54.2 271.7 52.9 272.6 52.1L275.8 49.3L286.2 55ZM287.1 49.2L280 45.3L289.1 37H289.2L287.1 49.2Z" fill="black"/>
<path d="M326.4 56.5C327.4 56.9 328.2 57.4 329 58C330.7 59.3 331.8 60.9 331.3 63L338.3 57L316.2 40.4L315.4 39.6L308 45.5H308.5C311.2 45.6 313 46.1 315.2 47.8C316.1 48.4 316.8 49 317.4 49.8L303.2 69C301.3 71.5 299.6 74.4 296.2 74.1L296.1 74.2L309 84L309.1 83.9C308.5 80.5 310.1 78.3 312.1 75.6L326.4 56.5Z" fill="black"/>
<path d="M344.5 74.2C346.6 71.9 348.5 69.1 351.9 69.7L352 69.6L340.1 58.9L340 59C340.9 62.3 338.4 64.6 336.3 66.9L321.4 83.4C319.3 85.7 317.4 88.5 314 87.9L313.9 88L325.8 98.7L325.9 98.6C325 95.3 327.5 93.1 329.6 90.8L344.5 74.2Z" fill="black"/>
<path fill-rule="evenodd" clip-rule="evenodd" d="M343.9 87.1C333.5 94.1 332.2 106.4 339 116.5C345.8 126.5 357.8 130.8 368.5 123.6C379.4 116.3 380.2 104.6 373.3 94.3C366.5 84.2 354.4 80 343.9 87.1ZM351.6 95.8C356.7 92.4 364 91.2 367.9 97C372.5 103.8 365.9 111.4 360.3 115.2C357.9 116.8 355.1 118.2 352.2 118C349 117.9 346.1 116.4 344.3 113.8C342.4 111 342.6 107.3 344.1 104.3C345.6 101.2 348.8 97.7 351.6 95.8Z" fill="black"/>
<path d="M395.4 152.8C398.5 151.3 400.9 150.3 404.2 151.6L404.4 151.5L399.6 141.1L399.4 141.2C398.3 144.6 395.9 145.7 392.8 147.2L378.8 153.7L392.8 127L393 126.9L387.8 115.7L387.6 115.8C385.7 120.2 384.4 121.1 380.2 123.1L361.6 131.8C358.5 133.3 356.1 134.3 352.8 133L352.6 133.1L357.5 143.5L357.7 143.4C358.8 140 361.2 138.9 364.3 137.4L378.5 130.8L378.6 131L369.6 147.8C367.4 152.1 366 153.9 365.9 158.9C365.8 160.9 365.9 164.5 366.8 166.4L395.4 152.8Z" fill="black"/>
<path d="M206 46.6C221.4 54.6 245 63.2 258.3 74.7C259.8 76.2 259.6 78.2 260.2 79.9C261.4 80.2 262.6 79.5 263.9 79.6C294 104.7 317.3 134.6 317.3 134.6C302.8 117.5 297.3 112.5 298.4 113.5C298.2 113.3 298.4 120.2 298.8 121.8C300.9 124.5 314 137 314.5 137.9C314.5 137.9 300 123.6 298.8 122.8C299 126.4 299 132.2 299 132.2C301.8 135 316.2 147 318 149.7L299 132.8L298.7 145.9C301.4 148.7 310.9 153.6 313.7 156.6C310.6 153.6 298.6 146.8 298.6 146.8L298.7 154.3C304.2 156.6 311.7 161.3 316.5 164.6C311.7 161.4 304.9 158 299.8 155.6C299.8 155.6 297.6 154.9 297.4 154.9C298.7 161.7 297.5 161.2 297 164.3C297 164.3 309.8 166.8 311.4 166.9L296.8 164.9C296.5 166 296.1 166.7 295 167.8C297.7 168.7 291.4 167.4 291.2 167.2C290.5 166.9 289.8 167.5 289.4 167.6C286.7 167.4 282.1 166.8 280.3 164.5C278.5 166.2 272.6 165.6 269.7 165.6C266.8 165.4 267.6 164.6 264.7 164.1C264.1 163.4 261.6 161.7 261.3 160.7C260.1 161.3 259.9 164.8 256.2 164.7C251.2 165 213.8 165.7 213.7 165.9C241.2 165.5 348 170.2 351.1 170.9C350.7 171 218.2 168.4 218.2 168.4L312.2 171.1H111.9C111.9 171.1 148.4 168.9 153.6 168.5C137.2 168.8 114.4 170.2 98 170.7C98.6 169.5 167.9 165.7 173.4 164.8C164.5 164.3 87 170.3 85.9 170.3C87 169.5 80 169.4 75.6 169.4C105.7 166.4 137.8 167 168 166.1C185 165.4 242.6 164.7 249.4 164.3C243.9 163.7 239.7 163.4 239 163.4C234.9 163 236.4 160.2 233.7 157C227 159.6 202.4 157.9 202.1 157.2C201.4 157.6 200.6 158.6 199.9 159.2C200.5 159.5 202.3 159.5 203 159.6C201.6 159.8 193.8 160.6 190.8 160.4C185.7 160.2 184.8 157.5 182 153.3C179.1 153.3 157.4 155.3 157.4 155.3L157.3 157.5C164.6 158.1 181 159 181 159L156.4 158.8C156.4 158.8 154.9 160.2 155 160.6C158.4 161.3 173.7 161.1 177.2 161.6C175.6 161.5 163.3 161.4 161.7 161.8L161.9 161.7C159.5 162 155.9 161.3 153.6 162.5C153.4 162.7 153 162.9 153 163.1C159.7 163.5 175.1 162.6 181.9 163.3C172.4 163.3 153.9 164.1 144 164.3C139.9 163.7 136.1 162.8 135 159C134.8 156.8 132.1 156.9 130.3 156.6C124.4 156.8 120 156.1 114.5 155.8C112.8 156 111.8 154.6 111.8 153C111.9 151.1 112.2 146.5 112.2 146.5L113.3 126.9C112 127.1 108.6 127.8 108.6 127.8C108.7 120.3 109.8 113.7 111.7 106.9C112.5 107 115.2 104.7 116.9 104.3C117.9 100 119 95.7 120.1 91.5C119.7 90.9 117.5 91.9 117.9 90.5C119.3 89.9 121.3 89.2 121.7 87.7C122.4 86.1 126.8 75.3 132.2 69.6C135 67.2 138.2 64.6 142 63.3C142.7 62.3 143.6 61.3 144.2 60.2C162.7 53.1 182.6 49.2 202.6 46C203.9 45.7 204.9 45.9 206 46.6Z" fill="black"/>
<path d="M207.1 60.7C210.6 81 210.8 102.8 210.3 124.2L209.4 124C208.7 107.8 208.7 75.2 205.9 59.5C206 64.1 208.3 81.5 207.9 86C208.3 97.9 208.2 110.9 208.2 123.7C207.5 123.1 205.6 123.6 205.7 122.4C206.7 115.7 207 106.7 206.8 99.9C206.9 98.3 206.1 64.6 201.8 50.2C200.4 48.4 197.8 49.6 195.9 49.6C190.5 50.3 154.4 59.5 145.4 62.8C146.7 61.3 149.1 60.9 151 60.2C160.6 56.3 189.9 48.8 203.8 47.8C204.9 48.8 206.9 57.4 207.1 60.7Z" fill="#DCDDDE"/>
<path d="M257.7 75.3C259 76.6 258.4 81.2 258.4 81.2C260.2 99 258.6 119.9 258.8 137.5C255.4 136.8 221.3 127.6 211.7 124.6C211.5 99.9 211.1 73.9 206.5 49.7C213.9 52.7 244.5 64.2 257.7 75.3Z" fill="#F1F2F2"/>
<path d="M183.8 62.3C180.8 65.9 178.7 69 176.5 73C173.7 71 163.9 74 156.7 75.6C145.1 78.5 135.6 81 124.8 84.1C129.5 75.9 130.9 68.9 141.6 64.8C145.8 63.4 178.6 53.3 197.5 49.8C197.5 49.8 188.6 56.5 183.8 62.3Z" fill="white"/>
<path d="M200.4 51.3C203.2 62.3 204.5 73.7 204.9 85.5C196.4 80.4 187.2 76.7 177.6 73.7C180.3 67.9 185.1 62.2 190 57.2C193.1 55 196.4 51.8 200.4 51.3Z" fill="#F1F2F2"/>
<path d="M175.3 75.4C171.6 75.2 169.7 75.6 165.3 76.6C150.7 79.7 137 83.6 123.1 87.8C124.4 83.7 127.5 84 133.7 82.2C146.3 78.8 159.8 75.3 172.7 72.8C173.7 72.6 175.3 72.8 176.4 73.5L175.3 75.4Z" fill="white"/>
<path d="M175.7 76.2C173.1 85.8 170.2 93.7 168.6 106.4L168.5 114C153 114.7 118.2 123.5 115.9 124.2L116.8 115.5C125.3 111.6 159.5 104.7 166.6 103.3C167.6 96.6 172 81.9 174.8 76.1C175.2 76 175.4 76 175.7 76.2Z" fill="white"/>
<path d="M262.7 81.7C264.2 90.4 265.2 130.5 265.2 139.8C264.8 139.9 263.8 139.1 263.8 139C263.3 126.9 262.8 102.2 262.8 102.2C263 104.3 263.1 126.6 263.3 139.1L262.1 138.8C261.9 120.5 262.8 102.1 260.8 83.7L261.2 81.7H262.7Z" fill="#DCDDDE"/>
<path d="M204.9 87.4C205.3 95 205.3 102.2 204.9 110C201.1 108.5 197.2 107.5 193.7 105.6L190.8 104.9C192.3 96.9 192.4 88 191.3 80.1C196.2 81.6 200.9 84.2 204.9 87.4Z" fill="#F1F2F2"/>
<path d="M295 109.5C296.5 112 296.8 110.3 296.7 113C294.6 110.6 292.4 108.2 289.8 105.9C291.6 108.8 295.1 111.3 296.8 114.6L297.3 119.9C293.5 117.1 289.6 112.8 285.6 109.7C288.7 113.6 293.7 117.3 297.4 121.5L297.7 131.3L289.9 124.9C292 126.8 296.5 130.8 297.8 132.3C297.5 136.7 298 140.7 297.6 144.9C296.7 145 289.7 139.8 289 139.1C294.4 143.4 297.3 145.1 297.6 145.8L297.4 153C288.6 147.9 275.3 144 265.9 140.3C265.9 120.5 265.6 101.7 264.3 82.8L264.7 82.7C272 87.7 293.7 108 295 109.5Z" fill="#F1F2F2"/>
<path d="M170.2 83.9C162.3 84.8 155.3 87.9 147.3 88.8C154.5 86.9 162.5 84.7 170.4 83.3L170.2 83.9Z" fill="#808285"/>
<path d="M159.1 89.1C159.4 89.1 159.5 88.9 159.8 88.7L159.7 88.6C163 87.2 166 86.3 169.7 85.8V86.3L159.1 89.1Z" fill="#808285"/>
<path d="M178.9 86.8C177.9 87.2 176.4 87.1 175.1 87.3C175.3 86.8 175.6 85.9 176.4 86.1C177.3 86.1 178.3 86.1 178.9 86.8Z" fill="#808285"/>
<path d="M180.1 88.4C178.2 89.1 175.7 89 174 90.7C174.5 89.9 174.4 88.4 175.5 88.1C176.9 87.9 179.5 86.4 180.1 88.4Z" fill="#808285"/>
<path d="M168.8 88.3C164.3 89.5 159.3 90.4 154.8 91.1C159.5 89.6 164.1 88.3 168.9 87.3L168.8 88.3Z" fill="#808285"/>
<path d="M190.2 103.7L189.4 103.9C189.9 103.1 189.6 94.9 189.9 94C189.9 92.4 189.8 81.6 189.9 80.1C191.8 88.3 190.2 100.7 190.2 103.7Z" fill="white"/>
<path d="M133.7 87.1C133.6 88.1 132.2 88.4 130.8 89.5C126.3 94 123.9 99.4 123.3 105.5L123.5 105.7C124.9 100.2 126.5 94.2 131.5 90.3C131.7 90.3 133.5 89 133.7 89.3C133.2 89.8 131.1 91.9 130.4 92.3C132 92.8 135.1 92.8 136 95.1C136.6 99 135 103.1 134.2 106.9C129 108.8 123.9 110.6 119 113.1V113.4C119 113.4 150.3 103.9 165.8 101.1L166.2 100.2C166.1 101.2 165 102.3 164.2 102.6C148 105.7 132.5 109.6 117.3 114.5L117 113.1C118.5 105.6 119.8 98.3 122.1 91.1L123.7 91C120.9 97.4 119.6 104.5 119.6 111.5L120 111.1C121.4 104.3 122.1 97.1 125.8 91.3C127 89.2 131.2 87 133.7 87.1Z" fill="white"/>
<path d="M169.1 89.9C165.3 90.2 162 91.6 158.4 92.4C161.5 90.7 165.1 90 168.8 89.4H169.3L169.1 89.9Z" fill="#808285"/>
<path d="M161.4 92.9C163.6 91.5 166.5 91.4 168.9 90.9C167 92 163.9 92.3 161.4 92.9Z" fill="#808285"/>
<path d="M178.1 108.4C176.9 108.7 174.3 109.6 173.2 109.2C172.1 105.1 173 98 173.2 93.7C173.5 91.7 176.4 92 178.3 91.3C177.4 96.9 177.3 102.9 178.1 108.4Z" fill="white"/>
<path d="M162.7 94L162.9 93.8C162.7 93.7 162.5 93.4 162.2 93.5C164.2 92.8 166.3 92.6 168.5 92.3L168.3 92.7L162.7 94Z" fill="#808285"/>
<path d="M165.1 94.9C164.5 95.4 163.5 95.1 162.8 95.4C162.9 95.5 164.4 95.2 165.1 94.9Z" fill="#808285"/>
<path d="M167.7 96.1C165.6 97.1 163 96.9 160.7 97.6L167.7 95.3V96.1Z" fill="#808285"/>
<path d="M179.4 96.6L180.5 96.3L182.7 96.7L179.4 96.6Z" fill="#808285"/>
<path d="M183.9 98L179.4 98.1C179.2 97.4 179.8 97.8 180.1 97.5C181.5 97.8 182.6 97.3 183.9 98Z" fill="#808285"/>
<path d="M167.1 98.1L163.4 98.8L164.3 98.4C162.8 98.4 161 98.7 159.4 99.2C161.2 98.8 164.4 97.7 167.1 97.4V98.1Z" fill="#808285"/>
<path d="M185.4 99.8L179.2 99.6C179.1 97.8 181.4 99.1 182.3 98.6C183.4 99.1 185.3 98 185.4 99.8Z" fill="#808285"/>
<path d="M185.7 100.4C185.3 101.4 186.5 100.9 186.9 101.2C184.5 101.3 181.7 102.1 179.2 101.4L179.1 100.5C181.5 99.8 183.4 100.8 185.7 100.4Z" fill="#808285"/>
<path d="M172.7 110.3C173.4 111.8 178.2 110.1 179.3 109.1L179.2 102.7C188.5 104.4 196.4 107.6 204.9 111.1C204.5 114.9 204.5 118.5 204.3 122.2C192.9 119.3 181.3 118.5 169.3 116.6L170 103C170.7 102.6 170.6 100 171.8 100.9L172.7 110.3Z" fill="#F1F2F2"/>
<path d="M113.6 124.4C112.8 125 111.7 125 110.8 125.3C110.1 118.8 111.5 114.6 112.7 108.6C113.3 107.1 115.2 106.4 116.6 105.7C116.6 108.9 113.6 124.4 113.6 124.4Z" fill="white"/>
<path d="M299.5 117L300.1 118L299.5 117Z" fill="black"/>
<path d="M167.6 118.2C167.6 120.6 168.8 123.5 167.3 127.1C166.6 127.3 165.3 127.1 164.4 127C164.4 127 165.5 127.5 165.7 126.8C165.7 124.1 168.2 115.6 163.1 116.4C148.7 119.4 131.6 121.8 117.9 125.9C117.2 126 116.4 126.3 116 127.1C115.4 129.1 114.6 138.3 115.1 138L116.3 138.3L113.1 140C114 136.3 113.3 129.9 115 126C121.7 123 154.9 116.5 164.7 115.2C167.3 114.6 167.5 115.6 167.6 118.2Z" fill="white"/>
<path d="M193.8 121C192.1 124.9 189.3 131.3 187.6 136.5C186.7 137.5 174.3 136 169 135.3C169.4 128.9 168.7 124.3 169.4 117.7C177.7 118.4 194.2 120.7 193.8 121Z" fill="#F1F2F2"/>
<path d="M204.3 128.6C204.7 129.5 205.1 133.8 205.2 134.7C204.6 132.7 203.5 128.2 200.5 128.5C197.7 129.3 197.2 131 195.5 133.9C193.9 140 193 148.3 199.2 152.7C200.8 153.5 202.4 151.4 204.8 146.2C203.8 149.6 202.9 158.8 198 157.4C194.6 155.1 193.1 152.8 190.8 146.8C188.4 140.5 190.2 134.4 193 128.3C194.2 126 195.1 124.9 197.7 123.9C202.2 123.3 203.3 125.4 204.3 128.6Z" fill="#808285"/>
<path d="M291.6 125.9L293.3 127.4L291.6 125.9Z" fill="black"/>
<path d="M240.7 136.4L240.2 148.9C240.2 148.9 216.2 147 208.3 145.9C208.8 139.5 208.8 128.6 208.8 128.6L240.7 136.4Z" fill="white"/>
<path d="M163.7 128.6C161 129.2 157.5 128.5 155.8 131.4C155.6 132.2 155.7 133.8 156 134.8C155.9 134.5 154.6 135.2 154.4 135.2C154.2 133.8 154.1 130.9 155 129.5C157.5 128.8 161.7 127.4 164.4 127.6L163.7 128.6Z" fill="white"/>
<path d="M239.1 136.8C238.4 140.4 239 144 238.7 147.3L210.4 144L211.1 130.9C217.3 132.7 239.1 136.8 239.1 136.8Z" fill="black"/>
<path d="M204.9 136.7C204.9 141.3 205.2 144.5 202 149.1C201.2 150.3 200.2 150.5 198.5 149.4C196.5 147.5 196.1 145.3 195.7 142.4C195.5 138.2 195.7 135.9 197.9 132.5C198.4 131.7 199 130.9 199.9 130.5C203.9 130.5 204.8 133.8 204.9 136.7Z" fill="white"/>
<path d="M163.7 133.5L156.6 134.3C156.5 132.5 156.5 130.9 158.3 130.2C159.4 130.1 162.5 129.1 163.7 129.2V133.5Z" fill="white"/>
<path d="M154.1 129.4C153.8 131 153.6 133.8 153.8 135.3C146.1 137.1 126.6 140.9 124.8 141.8C123.8 140.3 124.9 137.4 125.5 135.6C134.9 132.8 144.1 131.4 154.1 129.4Z" fill="white"/>
<path d="M235.8 138C236.5 139.6 236 141.5 236.3 143.2C231.4 142.3 218 141 213.1 139.9C212.8 140 213 139.5 212.9 139.3C217 139.9 229.2 141 232.9 142L233.2 141.7C229.5 140.2 217.1 139.2 213 138.3L212.9 137.8C216.7 137.7 229 139.6 232.7 139.7C229.1 138.2 216.9 137.7 213.1 136.7C212.8 136.4 213.1 136 213 135.7C215.6 136.2 227.2 136.9 229.7 137.2C227.1 135.9 215.9 135.5 213 134.7V134.1C218.3 134.6 231.2 136.3 235.8 138Z" fill="#DCDDDE"/>
<path d="M250 138.2C250.5 138.9 250.9 141.2 251.3 141.9C250.4 140.4 250.1 139.6 248.8 139.4C245.6 140.8 245.3 144.2 245.4 146.8C245.4 149.5 245.9 155.4 248.3 156.9C249.6 157.7 250.9 156.8 251.5 156H251.4V155.2H251.5C251.5 157.2 250.9 159.1 249.5 160.9C248.5 161.9 247.4 161.8 245.7 159.5C243.3 155.3 243.1 149.9 242.6 145.2C242.8 141.5 242.8 137.6 245.6 135.3C247.9 134.9 249.2 136.9 250 138.2Z" fill="#808285"/>
<path d="M168.6 138.8C168.4 141.8 168.8 144.1 167.7 146.1C161.9 145.8 153.8 146.4 146.8 147.4C145.7 144.6 146.9 142.5 146.7 139.4C142.7 139.9 131.4 142.6 128.6 143.4C127.4 143.8 127.4 144.6 127.2 145.2C127 147.4 127.1 148.6 127.5 150.6C122.1 151.7 118.1 152.7 112.7 153.9C113.1 150.2 111.1 146.7 116 145.8C123.7 143.1 155.5 136.1 162.9 135.2C164.1 135 168.6 134.5 168.6 138.8Z" fill="white"/>
<path d="M187.4 137.6C186.3 140.3 183.3 143.6 180.6 145.3C176.7 145.4 172.5 146.1 168.8 145.6C169.1 142.4 169.4 139.8 169.2 136.9C169.3 136 169.8 136.5 170.8 136.4C171.8 136.9 183.3 137.1 187.4 137.6Z" fill="#F1F2F2"/>
<path d="M162.4 138.7C162.2 139.5 162.5 140.7 161.4 141.3C158.9 141.3 156.7 142.6 154.1 142.6C153.9 140.8 153.2 138.1 155 137.2C157.1 137.2 163.6 133.9 162.4 138.7Z" fill="black"/>
<path d="M260.1 145.8C259.2 145.6 259.6 144.4 259.1 143.8C259 143.1 258.3 142.5 257.4 142.2C256.2 142.4 255.4 143.6 254.9 144.5C253.5 149.9 253.7 155.8 258.1 159.4C259.3 159.6 260.2 156.3 260.2 156.3C260 158.6 258.8 161.4 256.8 162.8C255.6 163.1 255.3 162.3 254.8 161.6C251.7 154.9 253.2 148.2 253.1 141.3C253.5 140.5 254.5 139.3 255.6 139.4C259.5 139.5 259 143.6 260.1 145.8Z" fill="#808285"/>
<path d="M161.1 139.9L154.8 140.8C154.5 139.9 154.7 138.2 156.1 137.7C157.5 137.1 159.2 137.1 161 137.3L161.1 139.9Z" fill="white"/>
<path d="M250.5 142.3C251.3 146.6 251.9 151.8 250.7 156C250.4 156.6 249.6 156.6 249.1 156.3C246.3 152 246.5 145.9 247.8 141C249.1 140 249.9 141.4 250.5 142.3Z" fill="white"/>
<path d="M123.2 137.6C121.2 138.6 118.5 137.7 117.4 140.1C116.9 141 116.2 143.7 116.5 144.6C115.6 143.9 116.5 140.1 116.6 139.1C117.6 136.5 121.9 137.3 124.2 136C124.5 136.2 123.1 137.3 123.2 137.6Z" fill="white"/>
<path d="M236.2 144.6C231.3 144.1 217.9 142.6 213 141.7L212.8 140.9C218.2 142 231.3 142.6 236.2 144.6Z" fill="#DCDDDE"/>
<path d="M123.1 142.3L117 144.2C116.5 143.1 117.6 140.6 118.2 139.7C119.5 138.8 121.2 138.5 123 138.7L123.1 142.3Z" fill="white"/>
<path d="M144.2 141.1C144.3 143 144.7 145.6 144.9 147.2C140.1 147.8 134.4 149.4 129.5 150.3C128.8 148.4 129 146.7 129.6 145C134 142.9 139.2 142.2 144.2 141.1Z" fill="white"/>
<path d="M236.2 145.6V145.9C231 145.5 217.5 144.5 212.6 143.1V142.5C217.7 143.5 231 144.7 236.2 145.6Z" fill="#DCDDDE"/>
<path d="M259.3 146.6C259.7 150.4 260.3 154 258.9 157.5C257.7 158 257.2 156.7 256.7 155.9C255.8 152.4 254.6 148 256.3 144.4C258 143 259.2 145.4 259.3 146.6Z" fill="white"/>
<path d="M273.4 146.4C273.6 147.1 274.1 149.3 274.2 150.1C273.6 149.8 273.4 146.7 272.2 146.7C269.3 150.1 271 160.7 272.9 160C273.9 159.6 273.8 158.5 274.2 157.8C274.1 159.4 274.6 162.5 272.6 162.9C269 162.2 268.6 154.2 268.4 150.6C268.2 147.6 270 145.5 271.3 145.4C272.1 145.6 273.2 145.6 273.4 146.4Z" fill="#808285"/>
<path d="M115.3 144.8C115.3 144.8 114.1 145.3 113.1 145.7C113.8 144.1 111.6 140.7 115.7 139.9C115.1 141.1 114.9 143.6 115.3 144.8Z" fill="white"/>
<path d="M273.1 158.9L272.5 158.7C270.7 155.5 270.8 150.9 272.3 147.6C273.6 151 273.6 155.2 273.1 158.9Z" fill="white"/>
<path d="M279.7 148.8C280 149.5 280.5 150.7 280.6 151.8C279.9 151.2 280.1 149.6 278.8 149.7C276.5 152.4 277.1 156.4 278.4 159.4C279 159.9 278.9 160.2 279.8 160.2L280.7 158.5C280.9 159.6 280 162 278.8 162.9C276.8 162.4 276.4 160.3 276 158.7C275.7 154.9 275.5 150.4 278 147.8C278.8 147.8 279.2 148.4 279.7 148.8Z" fill="#808285"/>
<path d="M124 147.1C123.5 147.9 123.7 148.3 123.3 149.1C121.5 149.5 119.8 150.5 118 151.3C116.8 151.5 116.1 150.4 116.2 149.4C115.6 145.8 120.7 146.3 122.9 144.9C124.4 144.9 123.5 146.5 124 147.1Z" fill="black"/>
<path d="M122.7 148.3C120.9 148.9 119.4 150.1 117.2 150C117.1 149.3 116.9 148.8 117 148.1C118.8 147.4 120.5 146.5 122.4 146.1C123.1 146.7 122.6 147.6 122.7 148.3Z" fill="white"/>
<path d="M245.9 161.3C245.3 161.3 243.7 161 243 160.7C243.2 160.3 239.6 154 241.6 151.2L242.2 149.7C242.3 152.8 244.1 157.9 245.9 161.3Z" fill="#58595B"/>
<path d="M279.4 159.7C277.9 157.4 277.7 154.2 278.7 151.6L279.1 151C280.7 153.2 280.6 157.1 279.4 159.7Z" fill="white"/>
<path d="M267.1 150.1C267.4 155.8 269.5 161.4 270.5 162.4C270.4 162.7 269.1 163 268.8 162.7C267 159.8 265.8 156.4 265.6 153.2C265.4 152.1 266.7 149.2 267.1 150.1Z" fill="#58595B"/>
<path d="M291.2 154.8C290.8 155 290.6 154.5 290.3 154.8C288.2 157.9 289 162.3 291.1 165.2C291.2 165.5 290.9 165.9 290.6 166C289.5 166.2 289.2 165 288.7 164.4C287.7 161.2 287.9 157.4 288.6 154.1C288.8 153.6 289.6 152.2 290.4 153.2C290.8 153.5 291.2 154.2 291.2 154.8Z" fill="#808285"/>
<path d="M197.6 158.7C196.2 158.7 193.7 159.5 192.5 158.7C190 157.3 186.6 151.3 186.4 148.8C186.5 148.2 188 147.1 188.5 146.5C189.8 152.9 194.2 158.7 197.6 158.7Z" fill="#58595B"/>
<path d="M268.2 163C267.9 163.6 266.3 162.3 265.9 162.3C264.4 160.3 261.9 156 264.6 153C265.2 156.7 266.6 159.9 268.2 163Z" fill="#58595B"/>
<path d="M191.9 158.8C190.6 158.8 189.7 158.9 190.2 158.9C187.2 158.2 186.1 154.7 185 152.3C184.3 150.2 183.7 150.6 185.8 148.9C186.8 152.1 188.6 156.9 191.9 158.8Z" fill="#58595B"/>
<path d="M242.5 160.9C239.9 161.7 238.5 160.1 237.4 158.3C236.9 157.5 236.5 156.6 236.3 155.8L237.3 155.2C238 156.8 240.4 160.2 240.4 159.9C239.1 158.4 238.8 156.5 238.4 154.6L239.8 153.6C240.2 156.1 241.3 158.5 242.5 160.9Z" fill="#58595B"/>
<path d="M291.6 162.3C291.4 163 291.5 163.6 291.4 164.1C289.8 163.2 289.6 156.5 290.9 155.6C291.7 157.8 292 158.9 291.6 162.3Z" fill="white"/>
<path d="M295.5 156.2C293.6 157.5 293.7 159.7 293.6 162.1C293.9 163.8 294 164.8 295 165.9C294.6 166.2 294.6 166.8 294.1 166.8C292.3 165.1 292.9 163.4 292.4 161.1C292.4 158.6 293.1 155.7 295 154.4L295.5 156.2Z" fill="#808285"/>
<path d="M295.3 165.1C293.9 163.2 294.6 160 295.1 157.7C296.2 159.7 296.2 162.8 295.3 165.1Z" fill="white"/>
<path d="M253.9 161.9C253.8 162.1 254 162.4 253.7 162.5C252.7 162.3 252.9 161.4 252.2 160.9C252.7 159.8 251.3 158.8 252.3 157.8C253.1 159.1 252.6 160.7 253.9 161.9Z" fill="#58595B"/>
<path d="M229.7 157.9L230.2 158.5L229.7 157.9Z" fill="white"/>
<path d="M251.3 161.9C250.3 161.1 251 160.5 251.4 159.6C251 160.6 253 161.8 251.3 161.9Z" fill="#58595B"/>
<path d="M163.9 117.5C151.8 120.5 130 123.3 118.4 127.5C118.2 127.4 118.2 127 118.2 127C118.2 127 151.7 119.1 163.9 117.5Z" fill="white"/>
<path d="M163.5 118.9C151.4 121.9 130 125 118.4 129.1C118.2 129 118.2 128.6 118.2 128.6C118.2 128.6 151.3 120.5 163.5 118.9Z" fill="white"/>
<path d="M163.5 120.8C151.4 123.8 130 126.7 118.4 130.9C118.2 130.8 118.2 130.4 118.2 130.4C118.2 130.4 151.3 122.3 163.5 120.8Z" fill="white"/>
<path d="M163.5 122.4C151.4 125.4 130 128.3 118.4 132.5C118.2 132.4 118.2 132 118.2 132C118.2 132 151.3 124 163.5 122.4Z" fill="white"/>
<path d="M163.4 124.4C151.3 127.4 130 130.1 118.4 134.2C118.2 134.1 118.2 133.7 118.2 133.7C118.2 133.7 151.2 125.9 163.4 124.4Z" fill="white"/>
<path d="M163.5 126C151.4 129 130 131.7 118.4 135.8C118.2 135.7 118.2 135.3 118.2 135.3C118.2 135.3 151.3 127.6 163.5 126Z" fill="white"/>
<path d="M164.6 127.7L167.9 127.6L168.3 135.6L164.6 133.9V127.7Z" fill="white"/>
<path d="M130.3 92.9C127.8 95.4 124.9 101.7 122.8 110.5L133.9 106L135.3 98.7C135.6 96.3 135.3 94.7 134.3 93.8L130.3 92.9Z" fill="#E6E7E8"/>
</svg>
