<svg xmlns="http://www.w3.org/2000/svg" fill="none" viewBox="0 0 401 167"><path fill="#73A8DA" d="M51.12 166.487c14-63 78.3-114.8 150.1-114.8s135.9 51.8 148.9 114.8h-299Z"/><path fill="#fff" d="M13.22 138.487c-3-1.1-6.3-1.8-7-5.2l-.2-.1-5.5 15 .2.1c2.7-2.1 5.8-.6 8.7.5l20.9 7.6c2.9 1.1 6.2 1.8 6.9 5.2l.2.1 7.5-22.4-7.1-5c.9 3.1.7 5.8-.4 8.8-.7 2-.2 2-1.7 3.5l-22.5-8.1Z"/><path fill="#fff" fill-rule="evenodd" d="m46.52 112.287 6 1.1c1 .1 1.3.2 2.2.7 1.7.9 1.9 2.3 2 3.9l.2.1 8.7-15.7h-.1l-.1-.1c-4.4 1.4-5.7 1-9.8.4l-32.3-5-7 12.7.2.1c1.3-.7 2.7-1.1 4.1-.3 1.1.6 2.7 2.6 3.5 3.5l16.8 18.7c2.1 2.4 3.3 3.9 4 6.9l.2.1 5.9-10.7-.2-.1c-1.3.5-2.5 1.1-4 .3-1.1-.6-2.4-2.1-3.2-3l-2.8-3.2 5.7-10.4Zm-5.8-1-3.9 7.1-8.3-9.1v-.1l12.2 2.1Z" clip-rule="evenodd"/><path fill="#fff" d="M64.72 103.387c3.6-1.7 6.8-4.1 9.4-7 2.9-3.1 5.1-6.2 5.6-10.6.5-3.9-1-7.4-3.8-10.1-2.8-2.6-5.8-3.3-9.6-2.9-3.1.3-5.8 1.5-8.7 2.7-2.2 1-5.4 2.7-7.5.8-2-1.9-.8-4.7.7-6.4 2-2.2 4.9-3.5 7.8-4.2l-5.1-4.7c-3 1.5-5.9 3.7-8.1 6.1-2.5 2.7-4.5 5.8-5 9.5-.4 3.3.8 6.8 3.3 9.1 9.7 9.1 21-5.2 26.3-.2 2.4 2.3.6 5.5-1.2 7.5-2.9 3.1-7.6 5.4-11.9 6l7.8 4.4ZM76.92 48.087c.6-.9 1.3-1.5 2.1-2.2 1.7-1.3 3.5-2 5.4-1l-4.1-8.3-21.3 17.3-1 .6 4 8.6.1-.5c.8-2.6 1.7-4.2 3.8-5.9.8-.7 1.5-1.2 2.5-1.7l15.1 18.6c1.9 2.4 4.4 4.8 3.3 8l.1.1 12.5-10.1-.1-.1c-3.5-.2-5.2-2.3-7.4-4.9l-15-18.5Z"/><path fill="#fff" fill-rule="evenodd" d="m86.72 32.387.1.2c3.4.2 4.6 3.4 6.1 6.1l10.4 19.6c1.5 2.8 3.4 5.5 1.7 8.5l.1.2 15.4-8.2c3.7-2 6.5-3.5 8-7.5 1.3-3.5 1.1-6.9-.6-10.1-2.4-4.6-7.5-6.7-12.3-5 2.6-2.7 3.9-6.1 2-9.6-1.5-2.7-3.9-4.1-7-4.6-3.1-.6-5.4.7-8.2 2.1l-15.7 8.3Zm14.7-1.1c.4-.5.8-.8 1.4-1.1 2.3-1.2 4.4.2 5.5 2.3 1.2 2.3 1.1 5.2-1.4 6.6-.4.2-.7.2-1.1.3l-4.4-8.1Zm6.8 12.8 1.3-.7c4-2.1 6.8-1.3 8.9 2.7 1.6 3 1.8 6.6-1.7 8.4-.9.5-1.6.7-2.6.6l-5.9-11Z" clip-rule="evenodd"/><path fill="#fff" d="M137.72 18.587c-1-2.9-2.5-6-.3-8.7l-.1-.2-15.2 5.2.1.2c3.4.8 4.1 4.1 5.1 7.1l7.2 21c1 2.9 2.5 5.9.3 8.6l.1.2 15.1-5.2-.1-.2c-3.4-.8-4-4.1-5.1-7l-7.1-21ZM158.619 13.387c-.5-3.1-1.5-6.4 1-8.7v-.2l-15.8 2.8v.2c3.2 1.3 3.4 4.7 3.9 7.8l3.9 21.9c.5 3 1.5 6.3-1 8.6v.2l23.9-5.6.8-8.6c-2.2 2.4-4.6 3.5-7.9 4-2.1.4-2.6.5-4.7 1.2l-4.1-23.6ZM177.62 39.387c3.7 1.4 7.7 2 11.6 1.9 4.2-.1 8-.7 11.5-3.3 3.1-2.4 4.7-5.9 4.6-9.7-.1-3.8-1.7-6.5-4.6-8.9-2.4-2-5.1-3.1-8-4.3-2.2-.9-5.7-2-5.7-4.8s2.8-3.9 5.1-3.9c3-.1 5.9 1.1 8.4 2.7l-.1-7c-3.1-1.1-6.7-1.7-10-1.6-3.6.1-7.3.8-10.3 3-2.7 2-4.3 5.3-4.3 8.7.2 13.3 18.4 11.5 18.5 18.8.1 3.3-3.6 4.3-6.2 4.3-4.3.1-9.2-1.7-12.6-4.4l2.1 8.5ZM207.819 38.887c3.5 1.9 7.3 3.1 11.2 3.5 4.2.5 8 .4 11.8-1.7 3.4-1.9 5.4-5.1 5.9-9 .5-3.8-.7-6.6-3.3-9.5-2.1-2.4-4.6-3.8-7.3-5.4-2.1-1.2-5.4-2.8-5-5.6.3-2.8 3.3-3.4 5.6-3.1 3 .4 5.7 1.9 8 3.8l.8-6.9c-2.9-1.6-6.4-2.6-9.7-3-3.6-.4-7.4-.2-10.6 1.6-3 1.6-5 4.7-5.4 8-1.6 13.2 16.6 14 15.7 21.2-.4 3.3-4.1 3.8-6.8 3.4-4.3-.5-8.9-3-11.8-6.1l.9 8.8Z"/><path fill="#fff" fill-rule="evenodd" d="M261.52 17.887c1.1 0 2 .2 3 .5 2 .6 3.6 1.7 3.9 3.9l4.6-8-26.4-8.1-1-.5-4.9 8.1.5-.2c2.6-.8 4.5-.9 7.1-.1 1 .3 1.9.6 2.8 1.1l-7 22.9c-.9 3-1.5 6.3-4.8 7.2l-.1.2 15.4 4.7.1-.2c-1.8-3-1-5.6 0-8.8l6.8-22.7ZM282.32 50.387l-1.1 6c-.1 1-.2 1.3-.7 2.2-.9 1.7-2.3 1.9-3.9 2l-.1.2 15.7 8.7v-.1l.1-.1c-1.4-4.4-1-5.7-.4-9.8l5-32.3-12.8-7.1v.3c.7 1.3 1.1 2.7.3 4.1-.6 1.1-2.6 2.7-3.5 3.5l-18.7 16.8c-2.4 2.1-3.9 3.3-6.9 4l-.1.2 10.7 5.9.1-.2c-.5-1.3-1.1-2.5-.3-4 .6-1.1 2.1-2.4 3-3.2l3.2-2.8 10.4 5.7Zm.9-5.8-7.1-3.9 9.1-8.3h.1l-2.1 12.2Z" clip-rule="evenodd"/><path fill="#fff" d="M322.52 51.887c1 .4 1.8.9 2.6 1.5 1.7 1.3 2.8 2.9 2.3 5l7-6-22.1-16.6-.8-.8-7.4 5.9h.5c2.7.1 4.5.6 6.7 2.3.9.6 1.6 1.2 2.2 2l-14.2 19.2c-1.9 2.5-3.6 5.4-7 5.1l-.1.1 12.9 9.8.1-.1c-.6-3.4 1-5.6 3-8.3l14.3-19.1ZM340.62 69.587c2.1-2.3 4-5.1 7.4-4.5l.1-.1-11.9-10.7-.1.1c.9 3.3-1.6 5.6-3.7 7.9l-14.9 16.5c-2.1 2.3-4 5.1-7.4 4.5l-.1.1 11.9 10.7.1-.1c-.9-3.3 1.6-5.5 3.7-7.8l14.9-16.6Z"/><path fill="#fff" fill-rule="evenodd" d="M340.019 82.487c-10.4 7-11.7 19.3-4.9 29.4 6.8 10 18.8 14.3 29.5 7.1 10.9-7.3 11.7-19 4.8-29.3-6.8-10.1-18.9-14.3-29.4-7.2Zm7.7 8.7c5.1-3.4 12.4-4.6 16.3 1.2 4.6 6.8-2 14.4-7.6 18.2-2.4 1.6-5.2 3-8.1 2.8-3.2-.1-6.1-1.6-7.9-4.2-1.9-2.8-1.7-6.5-.2-9.5 1.5-3.1 4.7-6.6 7.5-8.5Z" clip-rule="evenodd"/><path fill="#fff" d="M391.52 148.187c3.1-1.5 5.5-2.5 8.8-1.2l.2-.1-4.8-10.4-.2.1c-1.1 3.4-3.5 4.5-6.6 6l-14 6.5 14-26.7.2-.1-5.2-11.2-.2.1c-1.9 4.4-3.2 5.3-7.4 7.3l-18.6 8.7c-3.1 1.5-5.5 2.5-8.8 1.2l-.2.1 4.9 10.4.2-.1c1.1-3.4 3.5-4.5 6.6-6l14.2-6.6.1.2-9 16.8c-2.2 4.3-3.6 6.1-3.7 11.1-.1 2 0 5.6.9 7.5l28.6-13.6Z"/><path fill="#000" d="M202.12 41.987c15.4 8 39 16.6 52.3 28.1 1.5 1.5 1.3 3.5 1.9 5.2 1.2.3 2.4-.4 3.7-.3 30.1 25.1 53.4 55 53.4 55-14.5-17.1-20-22.1-18.9-21.1-.2-.2 0 6.7.4 8.3 2.1 2.7 15.2 15.2 15.7 16.1 0 0-14.5-14.3-15.7-15.1.2 3.6.2 9.4.2 9.4 2.8 2.8 17.2 14.8 19 17.5l-19-16.9-.3 13.1c2.7 2.8 12.2 7.7 15 10.7-3.1-3-15.1-9.8-15.1-9.8l.1 7.5c5.5 2.3 13 7 17.8 10.3-4.8-3.2-11.6-6.6-16.7-9 0 0-2.2-.7-2.4-.7 1.3 6.8.1 6.3-.4 9.4 0 0 12.8 2.5 14.4 2.6l-14.6-2c-.3 1.1-.7 1.8-1.8 2.9 2.7.9-3.6-.4-3.8-.6-.7-.3-1.4.3-1.8.4-2.7-.2-7.3-.8-9.1-3.1-1.8 1.7-7.7 1.1-10.6 1.1-2.9-.2-2.1-1-5-1.5-.6-.7-3.1-2.4-3.4-3.4-1.2.6-1.4 4.1-5.1 4-5 .3-42.4 1-42.5 1.2 27.5-.4 134.3 4.3 137.4 5-.4.1-132.9-2.5-132.9-2.5l94 2.7h-200.3s36.5-2.2 41.7-2.6c-16.4.3-39.2 1.7-55.6 2.2.6-1.2 69.9-5 75.4-5.9-8.9-.5-86.4 5.5-87.5 5.5 1.1-.8-5.9-.9-10.3-.9 30.1-3 62.2-2.4 92.4-3.3 17-.7 74.6-1.4 81.4-1.8-5.5-.6-9.7-.9-10.4-.9-4.1-.4-2.6-3.2-5.3-6.4-6.7 2.6-31.3.9-31.6.2-.7.4-1.5 1.4-2.2 2 .6.3 2.4.3 3.1.4-1.4.2-9.2 1-12.2.8-5.1-.2-6-2.9-8.8-7.1-2.9 0-24.6 2-24.6 2l-.1 2.2c7.3.6 23.7 1.5 23.7 1.5l-24.6-.2s-1.5 1.4-1.4 1.8c3.4.7 18.7.5 22.2 1-1.6-.1-13.9-.2-15.5.2l.2-.1c-2.4.3-6-.4-8.3.8-.2.2-.6.4-.6.6 6.7.4 22.1-.5 28.9.2-9.5 0-28 .8-37.9 1-4.1-.6-7.9-1.5-9-5.3-.2-2.2-2.9-2.1-4.7-2.4-5.9.2-10.3-.5-15.8-.8-1.7.2-2.7-1.2-2.7-2.8.1-1.9.4-6.5.4-6.5l1.1-19.6c-1.3.2-4.7.9-4.7.9.1-7.5 1.2-14.1 3.1-20.9.8.1 3.5-2.2 5.2-2.6 1-4.3 2.1-8.6 3.2-12.8-.4-.6-2.6.4-2.2-1 1.4-.6 3.4-1.3 3.8-2.8.7-1.6 5.1-12.4 10.5-18.1 2.8-2.4 6-5 9.8-6.3.7-1 1.6-2 2.2-3.1 18.5-7.1 38.4-11 58.4-14.2 1.3-.3 2.3-.1 3.4.6Z"/><path fill="#DCDDDE" d="M203.22 56.087c3.5 20.3 3.7 42.1 3.2 63.5l-.9-.2c-.7-16.2-.7-48.8-3.5-64.5.1 4.6 2.4 22 2 26.5.4 11.9.3 24.9.3 37.7-.7-.6-2.6-.1-2.5-1.3 1-6.7 1.3-15.7 1.1-22.5.1-1.6-.7-35.3-5-49.7-1.4-1.8-4-.6-5.9-.6-5.4.7-41.5 9.9-50.5 13.2 1.3-1.5 3.7-1.9 5.6-2.6 9.6-3.9 38.9-11.4 52.8-12.4 1.1 1 3.1 9.6 3.3 12.9Z"/><path fill="#F1F2F2" d="M253.82 70.687c1.3 1.3.7 5.9.7 5.9 1.8 17.8.2 38.7.4 56.3-3.4-.7-37.5-9.9-47.1-12.9-.2-24.7-.6-50.7-5.2-74.9 7.4 3 38 14.5 51.2 25.6Z"/><path fill="#fff" d="M179.919 57.687c-3 3.6-5.1 6.7-7.3 10.7-2.8-2-12.6 1-19.8 2.6-11.6 2.9-21.1 5.4-31.9 8.5 4.7-8.2 6.1-15.2 16.8-19.3 4.2-1.4 37-11.5 55.9-15 0 0-8.9 6.7-13.7 12.5Z"/><path fill="#F1F2F2" d="M196.52 46.687c2.8 11 4.1 22.4 4.5 34.2-8.5-5.1-17.7-8.8-27.3-11.8 2.7-5.8 7.5-11.5 12.4-16.5 3.1-2.2 6.4-5.4 10.4-5.9Z"/><path fill="#fff" d="M171.42 70.787c-3.7-.2-5.6.2-10 1.2-14.6 3.1-28.3 7-42.2 11.2 1.3-4.1 4.4-3.8 10.6-5.6 12.6-3.4 26.1-6.9 39-9.4 1-.2 2.6 0 3.7.7l-1.1 1.9ZM171.82 71.587c-2.6 9.6-5.5 17.5-7.1 30.2l-.1 7.6c-15.5.7-50.3 9.5-52.6 10.2l.9-8.7c8.5-3.9 42.7-10.8 49.8-12.2 1-6.7 5.4-21.4 8.2-27.2.4-.1.6-.1.9.1Z"/><path fill="#DCDDDE" d="M258.819 77.087c1.5 8.7 2.5 48.8 2.5 58.1-.4.1-1.4-.7-1.4-.8-.5-12.1-1-36.8-1-36.8.2 2.1.3 24.4.5 36.9l-1.2-.3c-.2-18.3.7-36.7-1.3-55.1l.4-2h1.5Z"/><path fill="#F1F2F2" d="M201.019 82.787c.4 7.6.4 14.8 0 22.6-3.8-1.5-7.7-2.5-11.2-4.4l-2.9-.7c1.5-8 1.6-16.9.5-24.8 4.9 1.5 9.6 4.1 13.6 7.3ZM291.119 104.887c1.5 2.5 1.8.8 1.7 3.5-2.1-2.4-4.3-4.8-6.9-7.1 1.8 2.9 5.3 5.4 7 8.7l.5 5.3c-3.8-2.8-7.7-7.1-11.7-10.2 3.1 3.9 8.1 7.6 11.8 11.8l.3 9.8-7.8-6.4c2.1 1.9 6.6 5.9 7.9 7.4-.3 4.4.2 8.4-.2 12.6-.9.1-7.9-5.1-8.6-5.8 5.4 4.3 8.3 6 8.6 6.7l-.2 7.2c-8.8-5.1-22.1-9-31.5-12.7 0-19.8-.3-38.6-1.6-57.5l.4-.1c7.3 5 29 25.3 30.3 26.8Z"/><path fill="#808285" d="M166.319 79.287c-7.9.9-14.9 4-22.9 4.9 7.2-1.9 15.2-4.1 23.1-5.5l-.2.6ZM155.22 84.487c.3 0 .4-.2.7-.4l-.1-.1c3.3-1.4 6.3-2.3 10-2.8v.5l-10.6 2.8ZM175.02 82.187c-1 .4-2.5.3-3.8.5.2-.5.5-1.4 1.3-1.2.9 0 1.9 0 2.5.7ZM176.22 83.787c-1.9.7-4.4.6-6.1 2.3.5-.8.4-2.3 1.5-2.6 1.4-.2 4-1.7 4.6.3ZM164.919 83.687c-4.5 1.2-9.5 2.1-14 2.8 4.7-1.5 9.3-2.8 14.1-3.8l-.1 1Z"/><path fill="#fff" d="m186.32 99.087-.8.2c.5-.8.2-9 .5-9.9 0-1.6-.1-12.4 0-13.9 1.9 8.2.3 20.6.3 23.6ZM129.82 82.487c-.1 1-1.5 1.3-2.9 2.4-4.5 4.5-6.9 9.9-7.5 16l.2.2c1.4-5.5 3-11.5 8-15.4.2 0 2-1.3 2.2-1-.5.5-2.6 2.6-3.3 3 1.6.5 4.7.5 5.6 2.8.6 3.9-1 8-1.8 11.8-5.2 1.9-10.3 3.7-15.2 6.2v.3s31.3-9.5 46.8-12.3l.4-.9c-.1 1-1.2 2.1-2 2.4-16.2 3.1-31.7 7-46.9 11.9l-.3-1.4c1.5-7.5 2.8-14.8 5.1-22l1.6-.1c-2.8 6.4-4.1 13.5-4.1 20.5l.4-.4c1.4-6.8 2.1-14 5.8-19.8 1.2-2.1 5.4-4.3 7.9-4.2Z"/><path fill="#808285" d="M165.22 85.287c-3.8.3-7.1 1.7-10.7 2.5 3.1-1.7 6.7-2.4 10.4-3h.5l-.2.5ZM157.52 88.287c2.2-1.4 5.1-1.5 7.5-2-1.9 1.1-5 1.4-7.5 2Z"/><path fill="#fff" d="M174.22 103.787c-1.2.3-3.8 1.2-4.9.8-1.1-4.1-.2-11.2 0-15.5.3-2 3.2-1.7 5.1-2.4-.9 5.6-1 11.6-.2 17.1Z"/><path fill="#808285" d="m158.819 89.387.2-.2c-.2-.1-.4-.4-.7-.3 2-.7 4.1-.9 6.3-1.2l-.2.4-5.6 1.3ZM161.219 90.287c-.6.5-1.6.2-2.3.5.1.1 1.6-.2 2.3-.5ZM163.819 91.487c-2.1 1-4.7.8-7 1.5l7-2.3v.8ZM175.52 91.987l1.1-.3 2.2.4-3.3-.1ZM180.019 93.387l-4.5.1c-.2-.7.4-.3.7-.6 1.4.3 2.5-.2 3.8.5ZM163.22 93.487l-3.7.7.9-.4c-1.5 0-3.3.3-4.9.8 1.8-.4 5-1.5 7.7-1.8v.7ZM181.52 95.187l-6.2-.2c-.1-1.8 2.2-.5 3.1-1 1.1.5 3-.6 3.1 1.2ZM181.82 95.787c-.4 1 .8.5 1.2.8-2.4.1-5.2.9-7.7.2l-.1-.9c2.4-.7 4.3.3 6.6-.1Z"/><path fill="#F1F2F2" d="M168.819 105.687c.7 1.5 5.5-.2 6.6-1.2l-.1-6.4c9.3 1.7 17.2 4.9 25.7 8.4-.4 3.8-.4 7.4-.6 11.1-11.4-2.9-23-3.7-35-5.6l.7-13.6c.7-.4.6-3 1.8-2.1l.9 9.4Z"/><path fill="#fff" d="M109.719 119.787c-.8.6-1.9.6-2.8.9-.7-6.5.7-10.7 1.9-16.7.6-1.5 2.5-2.2 3.9-2.9 0 3.2-3 18.7-3 18.7ZM163.72 113.587c0 2.4 1.2 5.3-.3 8.9-.7.2-2 0-2.9-.1 0 0 1.1.5 1.3-.2 0-2.7 2.5-11.2-2.6-10.4-14.4 3-31.5 5.4-45.2 9.5-.7.1-1.5.4-1.9 1.2-.6 2-1.4 11.2-.9 10.9l1.2.3-3.2 1.7c.9-3.7.2-10.1 1.9-14 6.7-3 39.9-9.5 49.7-10.8 2.6-.6 2.8.4 2.9 3Z"/><path fill="#F1F2F2" d="M189.92 116.387c-1.7 3.9-4.5 10.3-6.2 15.5-.9 1-13.3-.5-18.6-1.2.4-6.4-.3-11 .4-17.6 8.3.7 24.8 3 24.4 3.3Z"/><path fill="#808285" d="M200.42 123.987c.4.9.8 5.2.9 6.1-.6-2-1.7-6.5-4.7-6.2-2.8.8-3.3 2.5-5 5.4-1.6 6.1-2.5 14.4 3.7 18.8 1.6.8 3.2-1.3 5.6-6.5-1 3.4-1.9 12.6-6.8 11.2-3.4-2.3-4.9-4.6-7.2-10.6-2.4-6.3-.6-12.4 2.2-18.5 1.2-2.3 2.1-3.4 4.7-4.4 4.5-.6 5.6 1.5 6.6 4.7Z"/><path fill="#fff" d="m236.819 131.787-.5 12.5s-24-1.9-31.9-3c.5-6.4.5-17.3.5-17.3l31.9 7.8ZM159.82 123.987c-2.7.6-6.2-.1-7.9 2.8-.2.8-.1 2.4.2 3.4-.1-.3-1.4.4-1.6.4-.2-1.4-.3-4.3.6-5.7 2.5-.7 6.7-2.1 9.4-1.9l-.7 1Z"/><path fill="#000" d="M235.22 132.187c-.7 3.6-.1 7.2-.4 10.5l-28.3-3.3.7-13.1c6.2 1.8 28 5.9 28 5.9Z"/><path fill="#fff" d="M201.02 132.087c0 4.6.3 7.8-2.9 12.4-.8 1.2-1.8 1.4-3.5.3-2-1.9-2.4-4.1-2.8-7-.2-4.2 0-6.5 2.2-9.9.5-.8 1.1-1.6 2-2 4 0 4.9 3.3 5 6.2ZM159.82 128.887l-7.1.8c-.1-1.8-.1-3.4 1.7-4.1 1.1-.1 4.2-1.1 5.4-1v4.3ZM150.22 124.787c-.3 1.6-.5 4.4-.3 5.9-7.7 1.8-27.2 5.6-29 6.5-1-1.5.1-4.4.7-6.2 9.4-2.8 18.6-4.2 28.6-6.2Z"/><path fill="#DCDDDE" d="M231.92 133.387c.7 1.6.2 3.5.5 5.2-4.9-.9-18.3-2.2-23.2-3.3-.3.1-.1-.4-.2-.6 4.1.6 16.3 1.7 20 2.7l.3-.3c-3.7-1.5-16.1-2.5-20.2-3.4l-.1-.5c3.8-.1 16.1 1.8 19.8 1.9-3.6-1.5-15.8-2-19.6-3-.3-.3 0-.7-.1-1 2.6.5 14.2 1.2 16.7 1.5-2.6-1.3-13.8-1.7-16.7-2.5v-.6c5.3.5 18.2 2.2 22.8 3.9Z"/><path fill="#808285" d="M246.12 133.587c.5.7.9 3 1.3 3.7-.9-1.5-1.2-2.3-2.5-2.5-3.2 1.4-3.5 4.8-3.4 7.4 0 2.7.5 8.6 2.9 10.1 1.3.8 2.6-.1 3.2-.9h-.1v-.8h.1c0 2-.6 3.9-2 5.7-1 1-2.1.9-3.8-1.4-2.4-4.2-2.6-9.6-3.1-14.3.2-3.7.2-7.6 3-9.9 2.3-.4 3.6 1.6 4.4 2.9Z"/><path fill="#fff" d="M164.72 134.187c-.2 3 .2 5.3-.9 7.3-5.8-.3-13.9.3-20.9 1.3-1.1-2.8.1-4.9-.1-8-4 .5-15.3 3.2-18.1 4-1.2.4-1.2 1.2-1.4 1.8-.2 2.2-.1 3.4.3 5.4-5.4 1.1-9.4 2.1-14.8 3.3.4-3.7-1.6-7.2 3.3-8.1 7.7-2.7 39.5-9.7 46.9-10.6 1.2-.2 5.7-.7 5.7 3.6Z"/><path fill="#F1F2F2" d="M183.519 132.987c-1.1 2.7-4.1 6-6.8 7.7-3.9.1-8.1.8-11.8.3.3-3.2.6-5.8.4-8.7.1-.9.6-.4 1.6-.5 1 .5 12.5.7 16.6 1.2Z"/><path fill="#000" d="M158.519 134.087c-.2.8.1 2-1 2.6-2.5 0-4.7 1.3-7.3 1.3-.2-1.8-.9-4.5.9-5.4 2.1 0 8.6-3.3 7.4 1.5Z"/><path fill="#808285" d="M256.22 141.187c-.9-.2-.5-1.4-1-2-.1-.7-.8-1.3-1.7-1.6-1.2.2-2 1.4-2.5 2.3-1.4 5.4-1.2 11.3 3.2 14.9 1.2.2 2.1-3.1 2.1-3.1-.2 2.3-1.4 5.1-3.4 6.5-1.2.3-1.5-.5-2-1.2-3.1-6.7-1.6-13.4-1.7-20.3.4-.8 1.4-2 2.5-1.9 3.9.1 3.4 4.2 4.5 6.4Z"/><path fill="#fff" d="m157.22 135.287-6.3.9c-.3-.9-.1-2.6 1.3-3.1 1.4-.6 3.1-.6 4.9-.4l.1 2.6ZM246.62 137.687c.8 4.3 1.4 9.5.2 13.7-.3.6-1.1.6-1.6.3-2.8-4.3-2.6-10.4-1.3-15.3 1.3-1 2.1.4 2.7 1.3ZM119.32 132.987c-2 1-4.7.1-5.8 2.5-.5.9-1.2 3.6-.9 4.5-.9-.7 0-4.5.1-5.5 1-2.6 5.3-1.8 7.6-3.1.3.2-1.1 1.3-1 1.6Z"/><path fill="#DCDDDE" d="M232.319 139.987c-4.9-.5-18.3-2-23.2-2.9l-.2-.8c5.4 1.1 18.5 1.7 23.4 3.7Z"/><path fill="#fff" d="m119.219 137.687-6.1 1.9c-.5-1.1.6-3.6 1.2-4.5 1.3-.9 3-1.2 4.8-1l.1 3.6ZM140.32 136.487c.1 1.9.5 4.5.7 6.1-4.8.6-10.5 2.2-15.4 3.1-.7-1.9-.5-3.6.1-5.3 4.4-2.1 9.6-2.8 14.6-3.9Z"/><path fill="#DCDDDE" d="M232.32 140.987v.3c-5.2-.4-18.7-1.4-23.6-2.8v-.6c5.1 1 18.4 2.2 23.6 3.1Z"/><path fill="#fff" d="M255.42 141.987c.4 3.8 1 7.4-.4 10.9-1.2.5-1.7-.8-2.2-1.6-.9-3.5-2.1-7.9-.4-11.5 1.7-1.4 2.9 1 3 2.2Z"/><path fill="#808285" d="M269.519 141.787c.2.7.7 2.9.8 3.7-.6-.3-.8-3.4-2-3.4-2.9 3.4-1.2 14 .7 13.3 1-.4.9-1.5 1.3-2.2-.1 1.6.4 4.7-1.6 5.1-3.6-.7-4-8.7-4.2-12.3-.2-3 1.6-5.1 2.9-5.2.8.2 1.9.2 2.1 1Z"/><path fill="#fff" d="M111.42 140.187s-1.2.5-2.2.9c.7-1.6-1.5-5 2.6-5.8-.6 1.2-.8 3.7-.4 4.9ZM269.22 154.287l-.6-.2c-1.8-3.2-1.7-7.8-.2-11.1 1.3 3.4 1.3 7.6.8 11.3Z"/><path fill="#808285" d="M275.82 144.187c.3.7.8 1.9.9 3-.7-.6-.5-2.2-1.8-2.1-2.3 2.7-1.7 6.7-.4 9.7.6.5.5.8 1.4.8l.9-1.7c.2 1.1-.7 3.5-1.9 4.4-2-.5-2.4-2.6-2.8-4.2-.3-3.8-.5-8.3 2-10.9.8 0 1.2.6 1.7 1Z"/><path fill="#000" d="M120.12 142.487c-.5.8-.3 1.2-.7 2-1.8.4-3.5 1.4-5.3 2.2-1.2.2-1.9-.9-1.8-1.9-.6-3.6 4.5-3.1 6.7-4.5 1.5 0 .6 1.6 1.1 2.2Z"/><path fill="#fff" d="M118.82 143.687c-1.8.6-3.3 1.8-5.5 1.7-.1-.7-.3-1.2-.2-1.9 1.8-.7 3.5-1.6 5.4-2 .7.6.2 1.5.3 2.2Z"/><path fill="#58595B" d="M242.019 156.687c-.6 0-2.2-.3-2.9-.6.2-.4-3.4-6.7-1.4-9.5l.6-1.5c.1 3.1 1.9 8.2 3.7 11.6Z"/><path fill="#fff" d="M275.52 155.087c-1.5-2.3-1.7-5.5-.7-8.1l.4-.6c1.6 2.2 1.5 6.1.3 8.7Z"/><path fill="#58595B" d="M263.22 145.487c.3 5.7 2.399 11.3 3.399 12.3-.1.3-1.4.6-1.7.3-1.8-2.9-2.999-6.3-3.199-9.5-.2-1.1 1.1-4 1.5-3.1Z"/><path fill="#808285" d="M287.319 150.187c-.4.2-.6-.3-.9 0-2.1 3.1-1.3 7.5.8 10.4.1.3-.2.7-.5.8-1.1.2-1.4-1-1.9-1.6-1-3.2-.8-7-.1-10.3.2-.5 1-1.9 1.8-.9.4.3.8 1 .8 1.6Z"/><path fill="#58595B" d="M193.72 154.087c-1.4 0-3.9.8-5.1 0-2.5-1.4-5.9-7.4-6.1-9.9.1-.6 1.6-1.7 2.1-2.3 1.3 6.4 5.7 12.2 9.1 12.2ZM264.32 158.387c-.3.6-1.9-.7-2.3-.7-1.5-2-4-6.3-1.3-9.3.6 3.7 2 6.9 3.6 10Z"/><path fill="#58595B" d="M188.02 154.187c-1.3 0-2.2.1-1.7.1-3-.7-4.1-4.2-5.2-6.6-.7-2.1-1.3-1.7.8-3.4 1 3.2 2.8 8 6.1 9.9ZM238.619 156.287c-2.6.8-4-.8-5.1-2.6-.5-.8-.9-1.7-1.1-2.5l1-.6c.7 1.6 3.1 5 3.1 4.7-1.3-1.5-1.6-3.4-2-5.3l1.4-1c.4 2.5 1.5 4.9 2.7 7.3Z"/><path fill="#fff" d="M287.719 157.687c-.2.7-.1 1.3-.2 1.8-1.6-.9-1.8-7.6-.5-8.5.8 2.2 1.1 3.3.7 6.7Z"/><path fill="#808285" d="M291.62 151.587c-1.9 1.3-1.8 3.5-1.9 5.9.3 1.7.4 2.7 1.4 3.8-.4.3-.4.9-.9.9-1.8-1.7-1.2-3.4-1.7-5.7 0-2.5.7-5.4 2.6-6.7l.5 1.8Z"/><path fill="#fff" d="M291.419 160.487c-1.4-1.9-.7-5.1-.2-7.4 1.1 2 1.1 5.1.2 7.4Z"/><path fill="#58595B" d="M250.02 157.287c-.1.2.1.5-.2.6-1-.2-.8-1.1-1.5-1.6.5-1.1-.9-2.1.1-3.1.8 1.3.3 2.9 1.6 4.1ZM247.42 157.287c-1-.8-.3-1.4.1-2.3-.4 1 1.6 2.2-.1 2.3Z"/><path fill="#fff" d="M160.019 112.887c-12.1 3-33.9 5.8-45.5 10-.2-.1-.2-.5-.2-.5s33.5-7.9 45.7-9.5ZM159.619 114.287c-12.1 3-33.5 6.1-45.1 10.2-.2-.1-.2-.5-.2-.5s33.1-8.1 45.3-9.7ZM159.619 116.187c-12.1 3-33.5 5.9-45.1 10.1-.2-.1-.2-.5-.2-.5s33.1-8.1 45.3-9.6ZM159.619 117.787c-12.1 3-33.5 5.9-45.1 10.1-.2-.1-.2-.5-.2-.5s33.1-8 45.3-9.6ZM159.519 119.787c-12.1 3-33.4 5.7-45 9.8-.2-.1-.2-.5-.2-.5s33-7.8 45.2-9.3ZM159.619 121.387c-12.1 3-33.5 5.7-45.1 9.8-.2-.1-.2-.5-.2-.5s33.1-7.7 45.3-9.3ZM160.72 123.087l3.3-.1.4 8-3.7-1.7v-6.2Z"/><path fill="#E6E7E8" d="M126.419 88.287c-2.5 2.5-5.4 8.8-7.5 17.6l11.1-4.5 1.4-7.3c.3-2.4 0-4-1-4.9l-4-.9Z"/></svg>