<svg xmlns="http://www.w3.org/2000/svg" fill="none" viewBox="0 0 1008 187"><path fill="#970E7E" d="M323.533.901c3.787-.026 7.587-.026 11.374-.04.013 3.574.013 7.134.026 10.707-3.8.04-7.6.027-11.413-.08.013-3.533.027-7.067.013-10.587ZM.333 1.808c75.214-.013 150.427 0 225.627 0 0 60.627.013 121.267 0 181.907-75.2 0-150.4.04-225.613-.027C.4 123.061.427 62.435.333 1.808Zm25.974 25.827c-.214 30.506-.014 61.013-.107 91.506 7.027 0 14.04-.053 21.067.094.213-22.294-.84-44.614-.174-66.894 6.12 22.307 12.44 44.56 18.787 66.814 5.04-.027 10.093-.014 15.133.013 6.214-22.013 12.054-44.147 18.827-66 .88 21.973-.507 43.973-.507 65.96 10.134.053 20.267-.067 30.4.08-3.52-8.027-10.6-15.267-9.346-24.613.04-22.32.106-44.627-.027-66.934-10.147-.013-20.293.014-30.44-.013-5.48 19.32-10.84 38.68-16.013 58.093-6.88-19.013-10.88-38.973-17.36-58.133-10.08.107-20.16.04-30.24.027Zm100.16.093c2.76 6.36 7.453 12.013 9.013 18.8.173 24.2.027 48.413.053 72.613 7.547.014 15.08-.04 22.614.04.92-14.586.52-29.24.133-43.84 1.44 1.894 2.827 3.84 3.96 5.96 6.653 12.614 13.187 25.307 19.987 37.84 7.88 0 15.746-.04 23.613.08-6.24-11.12-12.28-22.36-18.467-33.506 19.72-8.56 21.094-38.854 4.894-51.48-7.8-5.694-17.907-6.12-27.187-6.574-12.867 0-25.733-.066-38.613.067ZM26.733 132.715c.094 8.76.014 17.52.067 26.293 5.173-.133 10.76.693 15.52-1.8 8.213-4.813 7.573-18.64-.72-23.067-4.653-2.093-9.92-1.226-14.867-1.426Zm48.307 12.6c-.64 7.6 6.347 14.933 14.053 14.066 6.974-.32 12.174-6.666 12.254-13.453-5.267.013-10.534-.253-15.787.067-.187.893-.547 2.653-.733 3.533 4.186.013 8.373.013 12.546.213-2.066 2.187-3.706 5.467-7.04 5.84-5.986 1.68-12.04-4.266-11.466-10.2-.027-5.2 4.853-9.853 10-9.733 3.84 1.12 6.826 4.52 11.173 4.013-2.253-3.013-4.893-6.213-8.8-6.96-7.853-2.333-16.24 4.627-16.2 12.614Zm94.507-12.574c.053 6.654.08 13.307.013 19.947-4.16-6.653-8.24-13.36-12.48-19.973-1.04.013-3.12.053-4.16.066.133 8.787-.307 17.587.36 26.36.867-.053 2.587-.146 3.453-.2.16-6.533-.013-13.066.2-19.586 4.107 5.613 7.28 11.84 11.28 17.52.987 1.96 3.334 1.946 5.147 2.586.12-8.88 0-17.76.093-26.64l-3.906-.08Zm-109.534-.013c-3.026 8.933-6.693 17.627-9.533 26.627 5.08.746 5.293-4.76 6.773-8.08a991.15 991.15 0 0 1 8.96-.04c1 2.546 1.974 5.106 2.947 7.68 1.027.013 3.053.066 4.08.093-3.173-8.693-6.573-17.32-9.547-26.08-.92-.053-2.76-.147-3.68-.2Zm42.907 26.6c5.173.92 5.4-4.787 7.08-8.107 2.947.014 5.893.014 8.84.04 1.453 3.534 1.907 8.627 6.973 8.2-2.613-7.92-5.626-15.706-8.52-23.533-.426-2.307-2.253-3.373-4.413-3.72-3.293 9.053-6.733 18.04-9.96 27.12Zm27.293-26.6c.014 8.747-.013 17.507.014 26.253 1.266.014 2.546.014 3.826.027 0-4.04-.013-8.067-.026-12.107 2.906 3.974 5.666 8.067 8.506 12.107 1.2-.027 3.614-.067 4.814-.093-2.334-3.067-4.627-6.174-6.947-9.267 5.413-1.307 8.933-7.307 6.133-12.453-2.92-6.2-10.866-4.067-16.32-4.467Zm57.68.013c-3.266 8.894-6.68 17.734-9.72 26.707 4.867.227 5.52-4.627 6.854-8.147 3.093-.04 6.2-.013 9.306.134 1.267 3.373 1.574 8.746 6.6 7.933-2.84-8.96-6.426-17.653-9.573-26.493-.867-.04-2.6-.094-3.467-.134ZM339.627.901C343.4.875 347.16.875 350.92.888c0 3.547.013 7.093.04 10.653-3.773.054-7.547.054-11.32.014-.013-3.56-.013-7.107-.013-10.654ZM419.947 22.741c5.96-10 21.666-11.68 29.68-3.28 2.84 2.827 3.453 6.947 4.346 10.654-4.346.173-8.693.16-13.04.146a50.313 50.313 0 0 0-2.346-4.026c-1.694-1.107-3.84-.36-5.72-.427-.52 1.013-1.56 3.027-2.08 4.04 6.413 6.627 17.96 6.693 22.32 15.573 2.253 6.414 1.04 14.774-4.707 19.04-4.747 3.494-10.92 3.534-16.547 3.08-4.893-.44-9.84-2.933-12.373-7.28-2.133-3.053-1.933-6.933-2.387-10.48 4.347-.026 8.694-.026 13.04.04.614 3 1.84 7.08 5.707 6.84 3.6.52 6.76-4.626 3.96-7.32-5.653-3.946-13.187-4.76-18.053-9.933-4.307-4.32-4.947-11.493-1.8-16.667ZM562.987 32.128c4.466-13.52 20.56-21.093 33.973-16.947 8.627 2.267 15.56 9.04 18.747 17.28-4.96.134-9.934.094-14.894.067-3.786-5.467-11.04-8.56-17.333-5.48-10.44 4.2-11.453 20.253-2.693 26.653 6.813 5.427 17.8 2.72 21.2-5.346-5.347-.214-10.694-.16-16.04-.16 0-3.56.013-7.107.026-10.654 10.347.04 20.68-.04 31.027.04.053 7.76-1.413 16.067-7.053 21.814-8.374 9.106-22.947 11.6-33.84 5.666-11.707-5.773-17.52-20.693-13.12-32.933ZM252.053 14.995c5.88-.014 11.76-.014 17.64 0 3.387 11.026 6.187 22.24 9.867 33.186 2.867-11.093 6.16-22.08 9.173-33.133 6.027-.093 12.054-.107 18.08.027-.026 17.346-.093 34.68.027 52.013a930.14 930.14 0 0 1-12.187.067c-.186-12.734.227-25.467.094-38.2a1794.161 1794.161 0 0 0-10.92 38.12c-2.907.053-5.827.08-8.747.133-4.24-12.613-7.067-25.667-11.427-38.227.4 12.72.36 25.44.534 38.16-4.04 0-8.067 0-12.107.027.013-17.4.067-34.787-.027-52.173ZM331.947 15.035c3.76-.054 7.533-.054 11.293 0 6.493 17.373 13.587 34.56 19.587 52.106-4.747.014-9.48 0-14.227.027-.933-2.56-1.853-5.133-2.813-7.68-5.747.067-11.507.053-17.254.04a402.173 402.173 0 0 0-2.64 7.587c-4.773.04-9.533.04-14.306.026 6.56-17.453 13.653-34.706 20.36-52.106Zm-.2 33.986c3.56 0 7.133-.013 10.693-.053-1.627-5.987-3.573-11.88-5.36-17.813-1.867 5.92-3.693 11.866-5.333 17.866ZM368.053 14.981c3.827 0 7.654 0 11.48.067 6.48 10.493 12.96 21 19.454 31.493-.054-10.52-.12-21.04-.28-31.546 4.24-.014 8.48-.014 12.72.013.053 17.373-.014 34.76.04 52.133h-11.56c-6.547-10.4-12.907-20.92-19.547-31.253.187 10.413.12 20.84.36 31.253-4.227.014-8.44 0-12.653-.013.053-17.387.066-34.76-.014-52.147ZM461.36 14.995c4.427-.014 8.84-.014 13.267-.014.066 7.64-.08 15.267.093 22.907 5.027-7.493 9.64-15.267 14.493-22.867 4.72-.04 9.44-.026 14.16-.066-5.413 8.213-10.946 16.346-16.266 24.613-1.214 1.36.44 2.88 1.066 4.067 5.68 7.813 11.32 15.666 16.96 23.506-5.413.014-10.826 0-16.24.014-4.853-7.36-9.36-14.92-14.213-22.267-.093 7.413-.027 14.84-.027 22.253h-13.306c.04-17.373.013-34.76.013-52.146ZM508.747 15.035c4.426-.054 8.866-.054 13.306-.054-.026 13.427 0 26.867-.013 40.307 5.187.053 10.387.04 15.587.053-.04 3.934-.04 7.867 0 11.8-9.64 0-19.267.014-28.907-.013.053-17.36.013-34.733.027-52.093ZM541.907 14.981c4.44.014 8.88.014 13.333 0-.027 17.4-.013 34.787-.013 52.174-4.44-.014-8.88-.014-13.32-.014.08-17.386.08-34.773 0-52.16ZM635.427 15.048c3.866-.067 7.746-.067 11.626-.027 6.68 17.36 13.267 34.774 19.92 52.147-4.826-.027-9.64-.04-14.466.013-.96-2.56-1.88-5.133-2.854-7.693-5.866.08-11.746.067-17.6.013-.946 2.534-1.826 5.094-2.706 7.64-4.854 0-9.694.014-14.534-.026 7.134-17.254 13.774-34.694 20.614-52.067Zm5.28 16.307c-2 5.84-3.667 11.8-5.614 17.653 3.76 0 7.52 0 11.28-.04-1.853-5.88-3.653-11.787-5.666-17.613Z"/><path fill="#970E7E" d="M158.147 48.568c6.386-.026 13.893-1.44 19.146 3.174 6.16 5.293 5.334 15.92-.893 20.786-5.32 3.227-11.933 2.133-17.853 2.733.093-8.906.466-17.826-.4-26.693ZM305.587 75.088c3.693.013 7.386.027 11.08.013-.027 3.574-.054 7.147-.107 10.734a993.73 993.73 0 0 0-10.92-.014c-.053-3.573-.067-7.146-.053-10.733ZM321.44 75.115h11.227c-.04 3.573-.04 7.146-.08 10.733-3.694-.027-7.387-.04-11.08-.08 0-3.547-.014-7.107-.067-10.653ZM438.76 98.888c8.533-11.2 25.893-13.947 37.573-6.173 5.254 3.186 8.974 8.36 11.147 14.04-4.813-.027-9.653.373-14.44-.24-3.387-3.307-7.187-6.2-12-6.974-3.32 1-7.053 1.56-9.587 4.147-6.666 6.147-6.213 18.2.84 23.88 2.427 2.107 5.734 2.587 8.707 3.507 5.453-.72 10.547-3.454 12.56-8.84-5.253-.12-10.52-.08-15.787-.107 0-3.507 0-7.027.014-10.533 10.346 0 20.706-.027 31.066.013.067 8.2-1.653 17.08-7.986 22.84-9.987 9.88-27.6 10.707-38.134 1.213-10.586-8.773-12.44-25.96-3.973-36.773ZM621.493 92.395c7.4-5.774 19.387-5.654 25.96 1.373 2.787 2.84 3.507 6.88 4.04 10.667-4.32.066-8.64.066-12.96-.04-1.186-2.12-2.266-5.76-5.44-4.96-2.906 0-4.533 2.986-3.706 5.586 6.813 5.427 17.333 6.307 21.6 14.774.933 4.026.853 8.306-.134 12.32-1.88 5.226-6.933 8.773-12.346 9.493-7.214 1.107-16.094.12-20.654-6.293-2.613-3.28-2.92-7.56-3.146-11.587 4.36 0 8.733 0 13.106.027.094 3.506 2.32 5.96 5.214 7.64a201.572 201.572 0 0 1 4.32-1.92c.586-1.52 1.186-3.054 1.8-4.574-6.254-5.48-15.8-5.906-20.92-12.826-4.694-6-2.574-15.267 3.266-19.68ZM759.947 94.875c8.226-6.987 20.573-8.587 30.333-3.987 6.827 2.96 11.947 8.973 14.547 15.867-4.84-.04-9.707.386-14.507-.254-3.373-3.306-7.16-6.2-11.947-6.96-3.333 1-7.04 1.574-9.586 4.12-6.72 6.134-6.227 18.307.88 23.96 2.48 2.067 5.786 2.56 8.773 3.507 5.387-.827 10.453-3.533 12.453-8.893-5.266-.134-10.52-.08-15.786-.094 0-3.52 0-7.04.013-10.546 10.307-.04 20.613.053 30.92-.067.227 7.307-1.027 15.107-5.947 20.84-7.813 9.573-22.28 12.68-33.453 7.52-9.24-4.067-15.747-13.72-15.84-23.84-.467-7.96 2.96-16.093 9.147-21.173ZM251.773 89.021c9.654.294 19.547-1.026 28.987 1.56 9.947 3.32 13.013 16.534 8.293 25.16-1.68 2.854-4.466 4.747-7.04 6.707 3.587 6.16 6.974 12.427 10.52 18.587-4.666.026-9.32.04-13.986-.067-4.427-8.12-8.267-16.6-13.467-24.267-.333 8.12-.12 16.254-.16 24.374-4.44-.014-8.867-.014-13.307-.08-.053-3.894-.12-7.787.094-11.667.88-13.44-.6-26.88.066-40.307Zm13.387 11.667c-.4 5.28-.36 10.587.187 15.867 3.133-.494 6.373-.587 9.386-1.614 4.654-2.333 4.894-10.28.334-12.88-3-1.76-6.6-1.173-9.907-1.373ZM293.267 141.021c7.093-17.266 13.56-34.786 20.68-52.04 3.693.027 7.386.027 11.093.08 6.587 17.334 13.16 34.68 19.853 51.974-4.92.026-9.853.026-14.786-.014-.707-2.386-1.454-4.76-2.147-7.16-5.947-.133-11.893-.08-17.827-.066-.76 2.413-1.52 4.813-2.266 7.226-4.867.04-9.734.04-14.6 0Zm25.493-35.226c-1.96 5.76-3.547 11.64-5.347 17.453 3.694 0 7.387 0 11.08.013-1.96-5.813-3.52-11.746-5.733-17.466ZM340.893 89.048c11.267-.067 22.547-.067 33.827 0 0 3.893-.013 7.787.013 11.68-3.4.04-6.786.053-10.173.067.027 13.426-.027 26.84.027 40.266-4.454 0-8.907 0-13.347-.053.093-13.4.053-26.813.027-40.227-3.44 0-6.867 0-10.294-.026-.066-3.894-.08-7.8-.08-11.707ZM375.427 89.008c11.373.187 22.773-.427 34.133.36-.04 3.787-.053 7.587-.04 11.373-3.453.027-6.92.04-10.36.054.04 13.413-.08 26.826.067 40.24-4.467.026-8.934.026-13.387.013.133-13.413-.04-26.84.093-40.253-3.52-.014-7.026-.014-10.546-.014.04-3.92.04-7.853.04-11.773ZM413.72 141.035c.04-17.334-.093-34.68.067-52.027 4.426 0 8.84 0 13.266.013.027 17.347-.04 34.694.027 52.04-4.453-.013-8.907 0-13.36-.026ZM494.827 89.048c4.426-.053 8.866-.04 13.293 0 .093 6.533.04 13.067.067 19.6a769.16 769.16 0 0 1 16.64 0c.186-2.013.4-4.027.586-6.04-.066-4.52-.053-9.04-.053-13.573 4.267-.027 8.533-.027 12.813-.027.08 17.347 0 34.693.014 52.04-4.267 0-8.534 0-12.8.013-.027-2.186-.04-4.373-.054-6.546.027-4.667.027-9.32.08-13.974-5.746-.213-11.493-.133-17.24-.146.014 6.866 0 13.746.014 20.613-4.467.053-8.92.04-13.374.067.04-17.347.027-34.694.014-52.027ZM547.16 141.048c.027-17.347-.04-34.693.027-52.053 9.786.013 19.56.04 29.346-.014.04 3.934.054 7.867.08 11.8H560.44c-.013 2.707-.013 5.414-.013 8.12 5.253-.04 10.506-.04 15.76 0-.014 3.934-.014 7.867-.014 11.814h-15.76c.014 2.96.027 5.92.067 8.88 5.373.013 10.747.013 16.12-.014-.027 3.827-.027 7.64.013 11.467-9.826.013-19.64.013-29.453 0ZM579.173 89.035c11.254-.04 22.507-.027 33.76-.014.04 3.92.04 7.84.054 11.76-3.414 0-6.814 0-10.2.014.133 13.413.026 26.84.053 40.253-4.453 0-8.907 0-13.36.027.08-13.427-.053-26.854.08-40.28-3.467-.014-6.92-.014-10.373-.027-.014-3.92-.014-7.827-.014-11.733ZM657.2 89.035c10.093.4 20.533-1.32 30.333 1.786 10.507 3.92 15.867 15.84 14.68 26.547 0 9.813-6.093 19.76-15.88 22.4-9.493 2.427-19.44.827-29.12 1.293a1188.871 1188.871 0 0 1-.013-52.026Zm13.067 11.706c.253 9.2-.28 18.414.24 27.587.186.32.56.947.746 1.267 5.8.506 13.294-.147 16.08-6.174 2.64-6.16 2.374-14.32-2.24-19.506-3.84-4.014-9.84-3.04-14.826-3.174ZM721.347 89.741c3.426-1.613 7.773-.4 11.56-.693 6.586 17.347 13.133 34.72 19.906 52-4.946.013-9.88.013-14.813-.013-.733-2.36-1.44-4.734-2.093-7.107-6.094-.093-12.214-.507-18.267.133-1 2.227-1.547 4.614-2.253 6.934-4.867.08-9.72.08-14.574.013 7.08-16.987 13.174-34.413 20.534-51.267Zm-.334 33.48c3.774.027 7.56.027 11.347.027-2-6-3.907-12.027-5.893-18.04-1.747 6.027-3.694 11.987-5.454 18.013ZM804.12 141.048c6.987-17.307 13.627-34.747 20.6-52.053 3.787.013 7.587.013 11.387.013 6.773 17.28 13.146 34.72 19.946 51.987-4.92.08-9.826.093-14.733 0-.787-2.414-1.56-4.814-2.36-7.214-6.04 0-12.067-.04-18.107.08-.706 2.4-1.44 4.787-2.146 7.187-4.867.013-9.734.013-14.587 0Zm20.107-17.8c3.773 0 7.56 0 11.346.013-1.88-5.813-3.693-11.64-5.546-17.453-2.454 5.64-3.907 11.613-5.8 17.44ZM860.387 141.048c.026-17.347-.067-34.693.053-52.04 9.667.333 19.587-1.027 29.027 1.627 9.96 3.386 13.093 16.88 7.986 25.413-1.533 2.773-4.32 4.427-6.786 6.24 3.48 6.24 6.906 12.52 10.493 18.707-4.6.066-9.187.066-13.773.066-4.454-8.24-9.214-16.346-13.08-24.88 2.933-.346 6-.226 8.853-1.146 4.027-1.96 5.32-8.067 2.28-11.44-2.8-3.56-7.787-2.694-11.733-2.92.053 13.453-.094 26.906.04 40.36-4.454.013-8.907.026-13.36.013ZM905.933 89.061c3.8-.04 7.614-.053 11.427-.08 6.6 10.427 13 20.96 19.467 31.454-.067-10.467-.147-20.92-.12-31.387 4.266-.04 8.546-.04 12.826 0 0 17.32-.106 34.64.067 51.96-3.907.04-7.8.053-11.68.093-6.533-10.2-12.907-20.506-19.227-30.84.04 10.254.014 20.507.214 30.747-4.36.053-8.707.053-13.054 0 .214-17.307.067-34.627.08-51.947ZM954.347 140.995c6.88-17.347 13.44-34.827 20.64-52.027 3.666.04 7.32.04 11 0 7.2 17.173 13.24 34.813 20.253 52.067-4.96.026-9.907.04-14.853-.067-.72-2.373-1.44-4.747-2.134-7.12-6.093-.107-12.186-.067-18.266-.067-.68 2.36-1.334 4.72-1.947 7.094-4.893.24-9.8.213-14.693.12Zm20.013-17.747c3.813.013 7.627 0 11.453-.027-2.2-6-3.96-12.146-5.946-18.213a624.856 624.856 0 0 1-5.507 18.24ZM30.667 136.235c2.733.146 5.533-.027 8.2.733 6.16 2.64 7.48 12.187 2.306 16.44-2.92 2.44-7 1.867-10.533 2.173-.04-6.453-.093-12.893.027-19.346ZM134.147 136.075c2.893.453 6.426-.12 8.64 2.28 1.173 1.933 1.16 4.96-.854 6.346-2.16 1.8-5.24 1.32-7.826 1.84a272.41 272.41 0 0 1 .04-10.466ZM61.507 137.968c1.306 3.16 2.48 6.36 3.6 9.587-2.16.026-4.32.066-6.48.106 1-3.213 1.973-6.44 2.88-9.693ZM111.173 147.595c1.04-3.187 2.12-6.347 3.254-9.494 1.08 3.174 2.146 6.374 3.226 9.547-2.16-.013-4.32-.04-6.48-.053ZM189.547 138.288c1.2 3.093 2.266 6.24 3.333 9.373-2.147-.013-4.293-.04-6.427-.08.974-3.12 2-6.213 3.094-9.293ZM347.173 165.595c1.48.053 2.96.053 4.454.013l-.814.36c-.4.24-1.213.707-1.613.947-2.227 5.066-1.56 11.586.64 16.613 1-3.867.733-7.907.867-11.853.6.853 1.226 1.706 1.853 2.56l-.427.626c-1.426 3.214-.386 6.8-.506 10.187-1.494.08-2.974.147-4.467.213.24-6.546.307-13.12.013-19.666ZM359.48 166.208c1.2-.32 2.413-.64 3.627-.973-4.574 3.4-2.134 9.64-2.734 14.44-1.24-1.08-2.613-2.067-3.253-3.627l-.093-.8c.613-.6 1.84-1.773 2.453-2.36 0-2.227.013-4.453 0-6.68ZM690.453 165.928c1.88-.04 3.774-.067 5.667-.08-.013 6.253-.04 12.507-.027 18.76-1.133.453-2.253.907-3.36 1.373 4.32-5.786 2.2-13.32 2.467-19.96-1.187-.026-3.56-.066-4.747-.093ZM731.413 166.035c1.387-.187 2.787-.387 4.2-.587l-.346.173c-.64.32-1.934.96-2.587 1.28-.4 4.174-.44 8.374-.64 12.574-.92-1.28-1.853-2.56-2.733-3.854l2.186.374c-.053-3.334-.066-6.64-.08-9.96ZM772.267 165.581c1.373-.093 2.76-.173 4.146-.253-.32 5.44-.173 10.893-.173 16.347 2.04.04 4.133.106 6.2.16-2.36-.014-4.72-.014-7.067-.027.107-3.773.28-7.56-.04-11.32 1.174-1.293-1.16-4.4-2.36-2.613.347 5.213-1.493 10.906.36 15.813 2.774 1.64 6.174.96 9.254 1.293-3.48.454-6.987.574-10.48.814-.12-6.734-.147-13.48.16-20.214ZM932.56 165.555c1.68-.04 3.373-.067 5.08-.08-.267 2.693-.347 5.413-.413 8.12 2.386.026 4.786.053 7.2.093-2.44.013-4.894.027-7.32.027-.827-1.614-.027-7.76-2.72-5.854-1.107 4.907-1.174 10.014 0 14.92 2.666 1.96 1.813-4.693 2.773-6.093 2.6-.64 5.253-.96 7.907-1.413.186 3.746-2.054 9.186 3.106 10.346a200.84 200.84 0 0 0-3.626-.76c1-3.546-1.96-9.933-5.974-6.133-1.853 1.787-1.146 4.267-.973 6.52-1.68-.027-3.36-.053-5.027-.093.454-6.52.44-13.08-.013-19.6Z"/><path fill="#fff" d="M26.307 27.635c10.08.013 20.16.08 30.24-.027 6.48 19.16 10.48 39.12 17.36 58.133C79.08 66.328 84.44 46.968 89.92 27.648c10.147.027 20.293 0 30.44.013.133 22.307.067 44.614.027 66.934-1.254 9.346 5.826 16.586 9.346 24.613-10.133-.147-20.266-.027-30.4-.08 0-21.987 1.387-43.987.507-65.96-6.773 21.853-12.613 43.987-18.827 66-5.04-.027-10.093-.04-15.133-.013-6.347-22.254-12.667-44.507-18.787-66.814-.666 22.28.387 44.6.174 66.894-7.027-.147-14.04-.094-21.067-.094.093-30.493-.107-61 .107-91.506ZM126.467 27.728c12.88-.134 25.746-.067 38.613-.067 9.28.453 19.387.88 27.187 6.573 16.2 12.627 14.826 42.92-4.894 51.48 6.187 11.147 12.227 22.387 18.467 33.507-7.867-.12-15.733-.08-23.613-.08-6.8-12.533-13.334-25.227-19.987-37.84-1.133-2.12-2.52-4.067-3.96-5.96.387 14.6.787 29.254-.133 43.84-7.534-.08-15.067-.026-22.614-.04-.026-24.2.12-48.413-.053-72.613-1.56-6.787-6.253-12.44-9.013-18.8Zm31.68 20.84c.866 8.867.493 17.787.4 26.693 5.92-.6 12.533.493 17.853-2.733 6.227-4.867 7.053-15.494.893-20.787-5.253-4.613-12.76-3.2-19.146-3.173ZM26.733 132.715c4.947.2 10.214-.667 14.867 1.426 8.293 4.427 8.933 18.254.72 23.067-4.76 2.493-10.347 1.667-15.52 1.8-.053-8.773.027-17.533-.067-26.293Zm3.934 3.52c-.12 6.453-.067 12.893-.027 19.346 3.533-.306 7.613.267 10.533-2.173 5.174-4.253 3.854-13.8-2.306-16.44-2.667-.76-5.467-.587-8.2-.733ZM75.04 145.315c-.04-7.987 8.347-14.947 16.2-12.614 3.907.747 6.547 3.947 8.8 6.96-4.347.507-7.333-2.893-11.173-4.013-5.147-.12-10.027 4.533-10 9.733-.574 5.934 5.48 11.88 11.466 10.2 3.334-.373 4.974-3.653 7.04-5.84-4.173-.2-8.36-.2-12.546-.213.186-.88.546-2.64.733-3.533 5.253-.32 10.52-.054 15.787-.067-.08 6.787-5.28 13.133-12.254 13.453-7.706.867-14.693-6.466-14.053-14.066ZM169.547 132.741l3.906.08c-.093 8.88.027 17.76-.093 26.64-1.813-.64-4.16-.626-5.147-2.586-4-5.68-7.173-11.907-11.28-17.52-.213 6.52-.04 13.053-.2 19.586-.866.054-2.586.147-3.453.2-.667-8.773-.227-17.573-.36-26.36 1.04-.013 3.12-.053 4.16-.066 4.24 6.613 8.32 13.32 12.48 19.973.067-6.64.04-13.293-.013-19.947ZM60.013 132.728c.92.053 2.76.147 3.68.2 2.974 8.76 6.374 17.387 9.547 26.08-1.027-.027-3.053-.08-4.08-.093a645.206 645.206 0 0 0-2.947-7.68c-2.986 0-5.973.013-8.96.04-1.48 3.32-1.693 8.826-6.773 8.08 2.84-9 6.507-17.694 9.533-26.627Zm1.494 5.24c-.907 3.253-1.88 6.48-2.88 9.693 2.16-.04 4.32-.08 6.48-.106-1.12-3.227-2.294-6.427-3.6-9.587ZM102.92 159.328c3.227-9.08 6.667-18.067 9.96-27.12 2.16.347 3.987 1.413 4.413 3.72 2.894 7.827 5.907 15.613 8.52 23.533-5.066.427-5.52-4.666-6.973-8.2-2.947-.026-5.893-.026-8.84-.04-1.68 3.32-1.907 9.027-7.08 8.107Zm8.253-11.733c2.16.013 4.32.04 6.48.053-1.08-3.173-2.146-6.373-3.226-9.547a329.536 329.536 0 0 0-3.254 9.494ZM130.213 132.728c5.454.4 13.4-1.733 16.32 4.467 2.8 5.146-.72 11.146-6.133 12.453 2.32 3.093 4.613 6.2 6.947 9.267-1.2.026-3.614.066-4.814.093-2.84-4.04-5.6-8.133-8.506-12.107.013 4.04.026 8.067.026 12.107-1.28-.013-2.56-.013-3.826-.027-.027-8.746 0-17.506-.014-26.253Zm3.934 3.347a272.41 272.41 0 0 0-.04 10.466c2.586-.52 5.666-.04 7.826-1.84 2.014-1.386 2.027-4.413.854-6.346-2.214-2.4-5.747-1.827-8.64-2.28ZM187.893 132.741c.867.04 2.6.094 3.467.134 3.147 8.84 6.733 17.533 9.573 26.493-5.026.813-5.333-4.56-6.6-7.933a154.608 154.608 0 0 0-9.306-.134c-1.334 3.52-1.987 8.374-6.854 8.147 3.04-8.973 6.454-17.813 9.72-26.707Zm1.654 5.547a252.829 252.829 0 0 0-3.094 9.293c2.134.04 4.28.067 6.427.08-1.067-3.133-2.133-6.28-3.333-9.373Z"/><path fill="#E1006B" d="M422.187 160.661c1.213-.2 2.44-.4 3.68-.587-.014.96-.027 2.88-.027 3.84-1.24-.173-2.48-.346-3.707-.52l.054-2.733ZM428.12 160.248c.813 0 2.413 0 3.227.013 0 .88.013 2.667.013 3.56l-3.2-.053c-.013-.88-.027-2.64-.04-3.52ZM632.627 163.634c.04-1.146.08-2.293.146-3.426.894.08 2.667.24 3.56.306 0 .814-.013 2.414-.013 3.227-1.24-.04-2.48-.08-3.693-.107ZM638.627 160.248c.8.013 2.4.066 3.2.093 0 .84-.027 2.507-.027 3.333l-3.16.16c0-.893-.013-2.693-.013-3.586ZM702.667 160.808c1.44.12 2.88.253 4.32.4l-1.534 3.413c1.107.36 3.907 1.333 2.947-.92-.627-2.6 1.933-2.773 3.773-3.173-.08 1.213-.173 2.426-.266 3.653l-.614.747c-.333.613-1.013 1.826-1.36 2.44 2.4 6.053 4.974 12.027 7.027 18.213-1.32-.026-2.64-.053-3.933-.067a288.877 288.877 0 0 1-1.574-3.866c-2.533-.013-5.066-.014-7.573-.014-.76 1.334-1.52 2.667-2.267 4l-3.2-.106c1.854-6.454 4.574-12.627 7.32-18.747-1.706-1.613-2.786-3.627-3.066-5.973Zm4.853 9.533c-.947 2.64-1.84 5.293-2.72 7.947 1.813.013 3.64.026 5.48.053a715.092 715.092 0 0 0-2.76-8ZM862.04 160.861c1.147.067 2.307.133 3.48.2 0 1.147.013 2.307.04 3.453l-3.56.12c0-1.253.013-2.52.04-3.773ZM868.213 161.088c.96-.107 1.947-.2 2.934-.307-.107 1.44-.2 2.894-.28 4.334l-2.667-1.134c1.947 7.334 5.48 14.107 7.6 21.374-1.053.12-2.107.24-3.133.36a167.228 167.228 0 0 1-2.254-3.947c-2.466-.093-4.92-.133-7.373-.147-1.027 2.547-2.933 3.987-5.827 3.654 2.414-6.214 4.787-12.454 7.507-18.547 2.373-.933 3.733-3.013 3.493-5.64Zm-4.4 17.213c1.814 0 3.64.014 5.48.027-.946-2.667-1.866-5.333-2.8-7.987-.88 2.654-1.8 5.294-2.68 7.96ZM254.653 165.768c.88.026 2.627.093 3.507.12a593.093 593.093 0 0 1 8.747 13.4c0-4.52-.04-9.027-.027-13.534 1.32.08 2.64.174 3.96.267-.147 6.373-.12 12.747 0 19.12a51.92 51.92 0 0 1-3.813-.507c-3.4-4.053-5.894-8.773-8.88-13.12.026 4.494.053 8.987.053 13.48-.893.027-2.68.054-3.56.067.04-6.427-.013-12.867.013-19.293ZM279.24 166.395c6.093-3.054 14.507 1.173 14.707 8.226 1.133 7.374-7.827 13.693-14.374 9.947-7.613-2.974-7.6-14.76-.333-18.173Zm3.88 2.493c-4.733.453-7.2 6.866-4.2 10.453 2.027 3.6 7.653 3.707 9.8.16 3.587-4.013-.173-11.467-5.6-10.613ZM314.027 165.834c3.48.027 7.013-.28 10.44.454 7.253 2.68 7.853 14.666.893 18.026-3.667 1.134-7.587.587-11.36.68.027-6.386 0-12.773.027-19.16Zm3.946 3.04c-.053 4.4-.053 8.814.027 13.227a181.927 181.927 0 0 0 7.467-1.667c.493-2.866 1.426-5.96.026-8.706-1.413-2.774-4.986-2.174-7.52-2.854ZM367.4 173.688c-2.453-4.4 2.507-9.36 7.04-8.08 3.28-.12 4.413 3.466 5.307 5.933-2.72.067-7.52-5.267-9-.96.92 4.053 8.413 3.253 8.693 8.013 1.013 3.56-2.253 5.627-4.6 7.507-4.053-.533-8.173-2.307-8.84-6.813.867 0 2.613-.027 3.48-.027 1.347 1.76 3.053 3.16 5.373 3.307.267-.974.8-2.934 1.067-3.907-2.893-1.547-6.227-2.533-8.52-4.973ZM390.187 172.194c-.694-4.293 3.906-7.6 7.88-6.573 3.173.067 4.12 3.6 5.293 5.88-3.347.12-7.347-5.107-9.627-.907 1.814 3.04 5.92 3.36 8.227 5.894 2.227 2.746.867 7.453-2.533 8.506-2.56 1.48-5.387-.08-7.974-.586a166.762 166.762 0 0 1-1.906-5.64c2.28.28 4.106 1.546 5.813 2.973 1.76 1.64 3.52-1.147 4.84-1.933-3.067-2.854-8.32-3.48-10.013-7.614ZM425.36 165.608c6.053-1.2 12.48 4.106 11.533 10.44.307 8.133-10.706 12.64-16.506 7.16-6.667-4.867-3.414-17.04 4.973-17.6Zm-3.2 4.693c-2.24 4.107-1.867 10.413 3.467 11.68 4.186 1.253 6.746-2.813 8.16-6.067-1.2-2.386-1.707-5.826-4.68-6.653-2.307-1.147-4.707.48-6.947 1.04ZM440.28 165.768c4.413.493 10.653-1.507 13.213 3.36 1.747 3.52-.146 7.266-3.026 9.453 1.226 2.307 2.493 4.6 3.733 6.92l-3.787.04c-1.68-2.96-3.386-5.92-5.133-8.84 1.6-.56 3.2-1.12 4.813-1.68-.04-1.72-.106-3.44-.173-5.147a280.42 280.42 0 0 0-5.72-.786c-.013 5.28-.04 10.546.067 15.826l-3.987.12c-.027-6.413 0-12.84 0-19.266ZM456.707 173.341c-1.907-4.48 2.76-8.88 7.2-7.773 3.2.093 4.746 3.32 5.146 6.093-2.933-.88-5.56-3.24-8.773-2.627.053.774.173 2.347.24 3.12 3.28 1.894 9.053 2.814 8.48 7.787.28 6.08-9.16 7.733-11.907 2.84a39.024 39.024 0 0 1-1.706-3.427c.893-.026 2.706-.106 3.6-.133 1.333 1.387 2.426 3.52 4.72 3.12a46.648 46.648 0 0 0 2.16-3.44c-3.12-1.733-6.814-2.733-9.16-5.56ZM470.48 165.834c4.04-.013 8.08-.013 12.133.027.04.787.107 2.373.147 3.16-1.413.08-2.813.173-4.2.267-.013 5.226.013 10.466.013 15.706-.986.014-2.96.054-3.946.067v-15.787c-1.107-.04-3.32-.133-4.427-.186.067-.814.213-2.44.28-3.254ZM489.613 165.794c1.174.067 2.36.134 3.547.214 2.36 6.373 4.8 12.733 7.56 18.96-1.493.013-2.973.04-4.453.066-.307-.84-.947-2.52-1.254-3.36-2.586-.026-5.16-.04-7.72-.053-.306.84-.92 2.507-1.213 3.347h-4.4c2.813-6.32 5.253-12.8 7.933-19.174Zm1.12 4.734a201.146 201.146 0 0 1-2.346 7.8l5.706-.04a492.964 492.964 0 0 0-3.36-7.76ZM529.693 166.275c5.214-2.294 12.107.213 13.787 5.853 3.48 7.653-5.827 16.386-13.28 12.733-8.187-2.587-8.333-15.4-.507-18.586Zm-.546 13.52c2.293 3.24 7.733 3.053 9.813-.334 2.413-2.68.52-6.146-.147-9.106-2.28-.627-4.693-2.281-7.053-1.054-4.2 1.307-5.307 7.267-2.613 10.494ZM547.24 165.795c4.493.44 11.173-1.574 13.413 3.733 1.507 2.107.08 4.52-.346 6.707-.787.48-2.387 1.44-3.174 1.906 1.374 2.374 2.787 4.734 4.107 7.147-5.453.907-6.787-5.147-8.373-8.96-1.96 2.507-1.774 5.68-1.774 8.707-1.306-.027-2.586-.027-3.88-.04.027-6.4 0-12.8.027-19.2Zm4.107 3c-.147 2.613-.334 5.24-.534 7.866 2.414-.906 7.68-.68 6.68-4.573-.186-3.053-4.12-2.453-6.146-3.293ZM563.987 165.821c.973 0 2.933 0 3.906-.013.094 4.72-.293 9.453.254 14.146.4 2.72 3.52 1.667 5.413 2.134.813-5.347.587-10.774.48-16.16 1-.04 3.013-.12 4.013-.174-.093 4.72.187 9.454-.2 14.174-.293 7.093-12.946 7.226-13.653.32-.453-4.8-.133-9.627-.213-14.427ZM634.76 165.781c6.24-1.88 13.453 3.627 12.547 10.267.08 7.853-10.427 12.64-16.307 7.346-6.693-4.533-4.213-16.253 3.76-17.613Zm-1.187 4.333c-3.84 2.72-3.28 9.08.88 11.214 4.347 2.906 9.987-2.054 8.92-6.774-.28-4.573-6.16-7.613-9.8-4.44ZM675.6 165.621c1.733.093 3.48.24 5.213.467 1.907 4.373 3.08 9.053 5.267 13.32 1.4-4.52 2.933-8.974 4.373-13.48 1.187.026 3.56.066 4.747.093-.267 6.64 1.853 14.173-2.467 19.96-.68-5.24-.28-10.52-.48-15.773-1.84 4.893-3.386 9.906-5.253 14.786l-2.613.054c-1.747-4.92-3.174-9.96-5.24-14.76-.147 5.053.053 10.106-.08 15.16-.84-.214-2.52-.627-3.36-.827-.347-6.333-.08-12.667-.107-19ZM738.92 173.888c-.96-4.107 1.56-8.88 6.267-8.4 3.733-.494 5.586 2.973 6.666 5.933-2.786.093-4.84-1.56-6.84-3.147a59.572 59.572 0 0 0-3.08 3.254c3.427 2.333 9.787 3.12 9.68 8.386-.346 1.654-1.28 3.08-2.013 4.574a231.57 231.57 0 0 0-4.693 1.44c-3.467-.76-6.28-3.014-6.934-6.627 1.014-.04 3.04-.12 4.054-.147.373.854 1.133 2.56 1.506 3.427 2.28-.213 3.974-1.427 4.8-3.6-3.173-1.64-6.373-3.213-9.413-5.093ZM758.76 174.714c2.08-3 4.16-5.986 6.28-8.96 1.04.067 3.133.174 4.187.24-2.387 3.054-4.667 6.2-7.067 9.254 2.533 3.4 5.347 6.653 7.253 10.48-1.6-.334-3.146-.654-4.733-.974-1.96-2.76-3.933-5.506-5.907-8.253-.026 2.8-.013 5.587.027 8.387-1.013.053-3.027.133-4.027.186-.026-6.44-.04-12.866 0-19.293 1.014.04 3.04.107 4.054.133-.054 2.934-.08 5.867-.067 8.8ZM784.693 165.941c1.32-.053 2.654-.107 4-.147.027 6.427 0 12.84.027 19.267-1.36-.067-2.72-.12-4.053-.187.026-6.32 0-12.626.026-18.933ZM792.987 170.501c4.04-7.413 15.426-6.053 18.866 1.24-4.8 1.08-8.506-4.893-13.093-2.027-5.333 2.64-3.573 12.227 2.587 12.387 3 .573 4.986-1.92 6.88-3.76-2.627-.16-5.214-.227-7.827-.293l-.053-3.04c4.12-.014 8.266-.027 12.4.213-.947 4.28-3.16 8.907-7.867 9.933-8.213 3.08-16.693-7.146-11.893-14.653ZM819.693 166.061c1.16-.12 2.32-.253 3.507-.36 2.613 6.747 5.627 13.4 7.84 20.294-2.88-.187-4.96-1.787-6.147-4.347-2.506-.027-5-.013-7.48.04l-1.12 3.32H812c2.733-6.254 5.253-12.587 7.693-18.947Zm-1 12.334c1.854-.04 3.72-.054 5.587-.04-1-2.667-2.053-5.307-2.88-8.027-.907 2.68-1.84 5.373-2.707 8.067ZM841.867 165.808c4.306.466 10.253-1.48 13.066 2.893 1.88 3.573.227 7.707-2.96 9.867 1.334 2.226 2.6 4.48 3.854 6.773-5.2.88-6.187-4.72-8.28-8.027-1.507 2.32-1.907 5.014-1.947 7.72-1.253-.013-2.493-.026-3.707-.026 0-6.4 0-12.8-.026-19.2Zm4.08 3.013c-.12 2.667-.267 5.32-.427 7.973 2.44-.986 7.893-.946 6.6-4.96-.68-2.853-4.027-2.28-6.173-3.013ZM902.68 165.768c1.346.066 2.706.133 4.08.213a624.903 624.903 0 0 0 0 18.773c-1.36.134-2.72.254-4.067.387-.053-6.453-.04-12.92-.013-19.373ZM909.587 175.955c-.867-6.267 5.693-11.6 11.68-10.334 3.84.067 6.213 3.36 8.413 6.04-3.733.654-6.587-1.773-9.867-2.826-6.24-.307-8.773 8.986-3.626 12.2 3.413 2.613 7.68.213 9.973-2.72-2.707-.16-5.4-.227-8.093-.307.026-.733.066-2.2.08-2.947 4.093-.053 8.186-.066 12.293.054-.707 3.866-2.4 8-6.373 9.506-6.054 3.427-14.64-1.773-14.48-8.666ZM964.067 166.088c4.2-.32 8.426-.28 12.653-.28.24.72.747 2.173.987 2.906-1.227.254-3.694.747-4.92.987.093 5.093.066 10.187.053 15.28-.88.013-2.627.027-3.507.04.014-5.013.014-10.027.04-15.04-2.32-.6-4.786-1.16-5.306-3.893ZM979.493 165.874c3.707-.066 7.427-.053 11.147.04.04 1.04.053 2.08.053 3.12-2.44.094-4.866.174-7.28.24 0 1.094.014 3.267.014 4.347l6.733.04c-.014.827-.053 2.48-.067 3.293-2.226.014-4.453.014-6.653.027-.013 1.187-.027 3.573-.04 4.76 2.24 0 4.507 0 6.773.013.014.8.014 2.4.027 3.214-3.56.04-7.12.053-10.667.066 0-6.386.027-12.773-.04-19.16ZM993.813 165.754c3.84.027 7.677.174 11.517.547 3.11 3.707 3.2 9.587-1.34 12.227 1.33 2.266 2.6 4.546 3.86 6.866-5.16.76-6.26-4.693-8.317-8.053-1.52 2.32-1.92 5-1.96 7.72-1.253-.027-2.493-.067-3.733-.093.027-6.414 0-12.814-.027-19.214Zm4.134 3.067c-.147 2.653-.294 5.307-.467 7.96 2.59-.92 7.55-.867 6.75-4.933-.83-2.8-4.1-2.32-6.283-3.027ZM297.347 165.794c3.6.014 7.2.107 10.8.334 1.053 1.88 3.2 3.493 2.973 5.853.587 3.013-2.213 4.707-3.947 6.64a430.443 430.443 0 0 1 4.187 6.72c-5.44.787-6.68-4.933-9-8.507 1.587-.626 3.187-1.266 4.787-1.893 0-1.64-.014-3.28-.04-4.92-2.04-.027-4.8-2.027-6.187.267.08 4.666.72 9.32.307 13.973a56.23 56.23 0 0 1-3.707 1.373c-.24-6.613-.107-13.226-.173-19.84ZM333.52 185.021c-.013-6.4-.04-12.8.013-19.2h10.694c0 .853 0 2.547-.014 3.4l-6.8-.04c0 1.107.014 3.32.027 4.427l6.733.04c-.026.826-.066 2.48-.093 3.306h-6.453c-.107 1.587-.2 3.174-.294 4.774 2.294.013 4.6.013 6.907.026-.027.814-.067 2.454-.08 3.267-3.56-.027-7.093-.013-10.64 0ZM349.2 166.914c.4-.24 1.213-.706 1.613-.946 2.254 2.533 3.88 5.533 5.707 8.386l.507.894.093.8c.64 1.56 2.013 2.546 3.253 3.626.6-4.8-1.84-11.04 2.734-14.44.666 6.574.226 13.187.386 19.787l-3.52-.053c-2.426-3.627-4.826-7.254-7.413-10.734a148.238 148.238 0 0 1-1.853-2.56c-.134 3.947.133 7.987-.867 11.854-2.2-5.027-2.867-11.547-.64-16.614Z"/><path fill="#E1006B" d="M404.267 165.808c4.066.013 8.146.013 12.213.027 0 .84 0 2.52-.013 3.36-1.014 0-3.067.026-4.094.04-.053 5.24-.08 10.493.067 15.746-1.333.014-2.667.04-3.987.067.04-5.28.027-10.56.027-15.827-1.04 0-3.107-.013-4.133-.013-.027-.84-.054-2.547-.08-3.4ZM511.333 165.808c3.44.013 6.88.013 10.334.027-.027.84-.067 2.52-.094 3.373h-6.293c-.027 1.147-.053 3.467-.067 4.613 2.174.04 4.36.094 6.547.147a304.786 304.786 0 0 0-.307 3.573c-2.08-.013-4.173-.013-6.24-.013.014 2.52.04 5.053.067 7.573l-3.947-.2c.027-6.36.027-12.72 0-19.093ZM581.933 165.861c1.294-.026 3.894-.066 5.187-.08 1.72 4.467 3.267 9 4.933 13.507 1.8-4.427 3.387-8.933 4.934-13.453 1.72.013 3.44.026 5.16.053-.107 6.36-.054 12.72-.067 19.08-.84.027-2.533.067-3.373.093.013-4.92.093-9.84-.04-14.746-1.894 4.8-3.48 9.72-5.187 14.6-.667.053-1.987.133-2.653.186-1.84-5.013-3.347-10.12-5.187-15.106-.253 5.133-.067 10.293-.173 15.44-.854-.214-2.547-.654-3.4-.867-.32-6.227.026-12.467-.134-18.707ZM614.84 185.115c-.08-6.44-.04-12.867-.04-19.307 3.333.013 6.667.013 10 .04-.013.84-.027 2.533-.04 3.387-2-.027-3.987-.04-5.973-.054-.067 1.547-.12 3.107-.16 4.667 2.2.04 4.413.107 6.626.187.214 4.28-3.653 3.466-6.573 3.626.04 2.374.067 4.747.12 7.12-1.333.12-2.653.227-3.96.334ZM650.053 165.834c3.64.107 7.44-.466 10.96.734 2.227 1.533 3.694 4.253 3.214 7-.707 2.066-2.587 3.373-4.014 4.906 1.32 2.294 2.56 4.64 3.6 7.08-.733 0-2.213-.026-2.96-.04a1030.025 1030.025 0 0 1-3.506-4.653 74.432 74.432 0 0 1-1.934-3.08c-.386.053-1.173.16-1.573.2.12 2.36.227 4.733.32 7.093-1.373-.066-2.733-.12-4.093-.173.093-6.36.08-12.707-.014-19.067Zm4.134 2.974c-.12 2.626-.28 5.253-.48 7.88 2.666-1 7.826-.454 6.666-4.747-.32-2.973-4.173-2.307-6.186-3.133ZM719.453 165.368c5.614.28 6.827 6.613 9.854 10.253.88 1.293 1.813 2.573 2.733 3.853.2-4.2.24-8.4.64-12.573.653-.32 1.947-.96 2.587-1.28.186 6.48.093 12.96.12 19.44-.907-.04-2.707-.12-3.614-.173-2.866-4.32-5.653-8.694-8.653-12.92-.013 4.36.053 8.72.04 13.08l-3.827-.107c.067-6.533 0-13.053.12-19.573ZM772.973 167.874c1.2-1.786 3.534 1.32 2.36 2.614.32 3.76.147 7.546.04 11.32 2.347.013 4.707.013 7.067.026l.147 3.147c-3.08-.333-6.48.347-9.254-1.293-1.853-4.907-.013-10.6-.36-15.814ZM874.533 165.981c4.28-.213 8.574-.173 12.88-.107-.04.814-.106 2.414-.133 3.214l-4.16.16c0 5.266-.013 10.52.013 15.786-1.36-.026-2.706-.04-4.04-.053.134-5.12.107-10.24.094-15.36-2.92.267-4.467-.947-4.654-3.64ZM888.067 165.834c4.253-.026 8.533-.053 12.8.147-.04 2.907-2.32 3.413-4.694 3.64.027 5.107-.013 10.2.094 15.307l-3.987.106c-.027-5.173-.04-10.346.067-15.506-1.04-.107-3.094-.307-4.134-.4-.04-.827-.106-2.467-.146-3.294ZM934.387 167.861c2.693-1.907 1.893 4.24 2.72 5.853 2.426 0 4.88-.013 7.32-.026 0-2.614-.027-5.227-.027-7.827 1-.027 2.987-.053 3.987-.067-.107 6.6.12 13.214-.214 19.827-5.16-1.16-2.92-6.6-3.106-10.347-2.654.454-5.307.774-7.907 1.414-.96 1.4-.107 8.053-2.773 6.093-1.174-4.907-1.107-10.013 0-14.92ZM952.413 165.821c3.64 0 7.307.013 10.96.04-.053.84-.173 2.507-.226 3.347-2.28 0-4.56 0-6.827.013v4.4c2.267.013 4.573.04 6.88.08l.053 3.2c-2.32.04-4.64.067-6.933.107v4.733c2.293 0 4.613 0 6.933.013.014.814.027 2.427.04 3.24-3.626 0-7.253.014-10.853.054-.027-6.414-.013-12.814-.027-19.227Z"/></svg>