<svg width="1008" height="187" viewBox="0 0 1008 187" fill="none" xmlns="http://www.w3.org/2000/svg">
<path d="M323.533 0.901328C327.32 0.874661 331.12 0.874661 334.907 0.861328C334.92 4.43466 334.92 7.99466 334.933 11.568C331.133 11.608 327.333 11.5947 323.52 11.488C323.533 7.95466 323.547 4.42133 323.533 0.901328Z" fill="#970E7E"/>
<path d="M0.333374 1.80793C75.5467 1.79459 150.76 1.80793 225.96 1.80793C225.96 62.4346 225.973 123.075 225.96 183.715C150.76 183.715 75.56 183.755 0.346707 183.688C0.400041 123.061 0.426707 62.4346 0.333374 1.80793ZM26.3067 27.6346C26.0934 58.1413 26.2934 88.6479 26.2 119.141C33.2267 119.141 40.24 119.088 47.2667 119.235C47.48 96.9413 46.4267 74.6213 47.0934 52.3413C53.2134 74.6479 59.5334 96.9013 65.88 119.155C70.92 119.128 75.9734 119.141 81.0134 119.168C87.2267 97.1546 93.0667 75.0213 99.8401 53.1679C100.72 75.1413 99.3334 97.1413 99.3334 119.128C109.467 119.181 119.6 119.061 129.733 119.208C126.213 111.181 119.133 103.941 120.387 94.5946C120.427 72.2746 120.493 49.9679 120.36 27.6613C110.213 27.6479 100.067 27.6746 89.92 27.6479C84.44 46.9679 79.08 66.3279 73.9067 85.7413C67.0267 66.7279 63.0267 46.7679 56.5467 27.6079C46.4667 27.7146 36.3867 27.6479 26.3067 27.6346ZM126.467 27.7279C129.227 34.0879 133.92 39.7413 135.48 46.5279C135.653 70.7279 135.507 94.9413 135.533 119.141C143.08 119.155 150.613 119.101 158.147 119.181C159.067 104.595 158.667 89.9413 158.28 75.3413C159.72 77.2346 161.107 79.1813 162.24 81.3013C168.893 93.9146 175.427 106.608 182.227 119.141C190.107 119.141 197.973 119.101 205.84 119.221C199.6 108.101 193.56 96.8613 187.373 85.7146C207.093 77.1546 208.467 46.8613 192.267 34.2346C184.467 28.5413 174.36 28.1146 165.08 27.6613C152.213 27.6613 139.347 27.5946 126.467 27.7279ZM26.7334 132.715C26.8267 141.475 26.7467 150.235 26.8 159.008C31.9734 158.875 37.56 159.701 42.32 157.208C50.5334 152.395 49.8934 138.568 41.6 134.141C36.9467 132.048 31.68 132.915 26.7334 132.715ZM75.04 145.315C74.4 152.915 81.3867 160.248 89.0934 159.381C96.0667 159.061 101.267 152.715 101.347 145.928C96.08 145.941 90.8134 145.675 85.56 145.995C85.3734 146.888 85.0134 148.648 84.8267 149.528C89.0134 149.541 93.2 149.541 97.3734 149.741C95.3067 151.928 93.6667 155.208 90.3334 155.581C84.3467 157.261 78.2934 151.315 78.8667 145.381C78.84 140.181 83.72 135.528 88.8667 135.648C92.7067 136.768 95.6934 140.168 100.04 139.661C97.7867 136.648 95.1467 133.448 91.24 132.701C83.3867 130.368 75 137.328 75.04 145.315ZM169.547 132.741C169.6 139.395 169.627 146.048 169.56 152.688C165.4 146.035 161.32 139.328 157.08 132.715C156.04 132.728 153.96 132.768 152.92 132.781C153.053 141.568 152.613 150.368 153.28 159.141C154.147 159.088 155.867 158.995 156.733 158.941C156.893 152.408 156.72 145.875 156.933 139.355C161.04 144.968 164.213 151.195 168.213 156.875C169.2 158.835 171.547 158.821 173.36 159.461C173.48 150.581 173.36 141.701 173.453 132.821C172.147 132.795 170.84 132.768 169.547 132.741ZM60.0134 132.728C56.9867 141.661 53.32 150.355 50.48 159.355C55.56 160.101 55.7734 154.595 57.2534 151.275C60.24 151.248 63.2267 151.235 66.2134 151.235C67.2134 153.781 68.1867 156.341 69.16 158.915C70.1867 158.928 72.2134 158.981 73.24 159.008C70.0667 150.315 66.6667 141.688 63.6934 132.928C62.7734 132.875 60.9334 132.781 60.0134 132.728ZM102.92 159.328C108.093 160.248 108.32 154.541 110 151.221C112.947 151.235 115.893 151.235 118.84 151.261C120.293 154.795 120.747 159.888 125.813 159.461C123.2 151.541 120.187 143.755 117.293 135.928C116.867 133.621 115.04 132.555 112.88 132.208C109.587 141.261 106.147 150.248 102.92 159.328ZM130.213 132.728C130.227 141.475 130.2 150.235 130.227 158.981C131.493 158.995 132.773 158.995 134.053 159.008C134.053 154.968 134.04 150.941 134.027 146.901C136.933 150.875 139.693 154.968 142.533 159.008C143.733 158.981 146.147 158.941 147.347 158.915C145.013 155.848 142.72 152.741 140.4 149.648C145.813 148.341 149.333 142.341 146.533 137.195C143.613 130.995 135.667 133.128 130.213 132.728ZM187.893 132.741C184.627 141.635 181.213 150.475 178.173 159.448C183.04 159.675 183.693 154.821 185.027 151.301C188.12 151.261 191.227 151.288 194.333 151.435C195.6 154.808 195.907 160.181 200.933 159.368C198.093 150.408 194.507 141.715 191.36 132.875C190.493 132.835 188.76 132.781 187.893 132.741Z" fill="#970E7E"/>
<path d="M339.627 0.901242C343.4 0.874575 347.16 0.874575 350.92 0.887909C350.92 4.43458 350.933 7.98124 350.96 11.5412C347.187 11.5946 343.413 11.5946 339.64 11.5546C339.627 7.99458 339.627 4.44791 339.627 0.901242Z" fill="#970E7E"/>
<path d="M419.947 22.7412C425.907 12.7412 441.613 11.0612 449.627 19.4612C452.467 22.2879 453.08 26.4079 453.973 30.1146C449.627 30.2879 445.28 30.2746 440.933 30.2612C440.213 28.8746 439.427 27.5412 438.587 26.2346C436.893 25.1279 434.747 25.8746 432.867 25.8079C432.347 26.8212 431.307 28.8346 430.787 29.8479C437.2 36.4746 448.747 36.5412 453.107 45.4212C455.36 51.8346 454.147 60.1946 448.4 64.4612C443.653 67.9546 437.48 67.9946 431.853 67.5412C426.96 67.1012 422.013 64.6079 419.48 60.2612C417.347 57.2079 417.547 53.3279 417.093 49.7812C421.44 49.7546 425.787 49.7546 430.133 49.8212C430.747 52.8212 431.973 56.9012 435.84 56.6612C439.44 57.1812 442.6 52.0346 439.8 49.3412C434.147 45.3946 426.613 44.5812 421.747 39.4079C417.44 35.0879 416.8 27.9146 419.947 22.7412Z" fill="#970E7E"/>
<path d="M562.987 32.1279C567.453 18.6079 583.547 11.0346 596.96 15.1812C605.587 17.4479 612.52 24.2212 615.707 32.4612C610.747 32.5946 605.773 32.5546 600.813 32.5279C597.027 27.0612 589.773 23.9679 583.48 27.0479C573.04 31.2479 572.027 47.3012 580.787 53.7012C587.6 59.1279 598.587 56.4212 601.987 48.3546C596.64 48.1412 591.293 48.1946 585.947 48.1946C585.947 44.6346 585.96 41.0879 585.973 37.5412C596.32 37.5812 606.653 37.5012 617 37.5812C617.053 45.3412 615.587 53.6479 609.947 59.3946C601.573 68.5012 587 70.9946 576.107 65.0612C564.4 59.2879 558.587 44.3679 562.987 32.1279Z" fill="#970E7E"/>
<path d="M252.053 14.9947C257.933 14.9814 263.813 14.9814 269.693 14.9947C273.08 26.0214 275.88 37.2347 279.56 48.1814C282.427 37.0881 285.72 26.1014 288.733 15.0481C294.76 14.9547 300.787 14.9414 306.813 15.0747C306.787 32.4214 306.72 49.7547 306.84 67.0881C302.773 67.1414 298.707 67.1547 294.653 67.1547C294.467 54.4214 294.88 41.6881 294.747 28.9547C290.96 41.6214 287.333 54.3281 283.827 67.0747C280.92 67.1281 278 67.1547 275.08 67.2081C270.84 54.5947 268.013 41.5414 263.653 28.9814C264.053 41.7014 264.013 54.4214 264.187 67.1414C260.147 67.1414 256.12 67.1414 252.08 67.1681C252.093 49.7681 252.147 32.3814 252.053 14.9947Z" fill="#970E7E"/>
<path d="M331.947 15.0346C335.707 14.9813 339.48 14.9813 343.24 15.0346C349.733 32.408 356.827 49.5946 362.827 67.1413C358.08 67.1546 353.347 67.1413 348.6 67.168C347.667 64.608 346.747 62.0346 345.787 59.488C340.04 59.5546 334.28 59.5413 328.533 59.528C327.627 62.048 326.747 64.5813 325.893 67.1146C321.12 67.1546 316.36 67.1546 311.587 67.1413C318.147 49.688 325.24 32.4346 331.947 15.0346ZM331.747 49.0213C335.307 49.0213 338.88 49.008 342.44 48.968C340.813 42.9813 338.867 37.088 337.08 31.1546C335.213 37.0746 333.387 43.0213 331.747 49.0213Z" fill="#970E7E"/>
<path d="M368.053 14.9814C371.88 14.9814 375.707 14.9814 379.533 15.0481C386.013 25.5414 392.493 36.0481 398.987 46.5414C398.933 36.0214 398.867 25.5014 398.707 14.9948C402.947 14.9814 407.187 14.9814 411.427 15.0081C411.48 32.3814 411.413 49.7681 411.467 67.1415C407.613 67.1415 403.76 67.1415 399.907 67.1415C393.36 56.7414 387 46.2214 380.36 35.8881C380.547 46.3014 380.48 56.7281 380.72 67.1415C376.493 67.1548 372.28 67.1414 368.067 67.1281C368.12 49.7414 368.133 32.3681 368.053 14.9814Z" fill="#970E7E"/>
<path d="M461.36 14.9946C465.787 14.9813 470.2 14.9813 474.627 14.9813C474.693 22.6213 474.547 30.2479 474.72 37.8879C479.747 30.3946 484.36 22.6213 489.213 15.0213C493.933 14.9813 498.653 14.9946 503.373 14.9546C497.96 23.1679 492.427 31.3013 487.107 39.5679C485.893 40.9279 487.547 42.4479 488.173 43.6346C493.853 51.4479 499.493 59.3013 505.133 67.1413C499.72 67.1546 494.307 67.1413 488.893 67.1546C484.04 59.7946 479.533 52.2346 474.68 44.8879C474.587 52.3013 474.653 59.7279 474.653 67.1413C470.213 67.1413 465.773 67.1413 461.347 67.1413C461.387 49.7679 461.36 32.3813 461.36 14.9946Z" fill="#970E7E"/>
<path d="M508.747 15.0348C513.173 14.9814 517.613 14.9814 522.053 14.9814C522.027 28.4081 522.053 41.8481 522.04 55.2881C527.227 55.3414 532.427 55.3281 537.627 55.3414C537.587 59.2748 537.587 63.2081 537.627 67.1415C527.987 67.1415 518.36 67.1548 508.72 67.1281C508.773 49.7681 508.733 32.3948 508.747 15.0348Z" fill="#970E7E"/>
<path d="M541.907 14.9814C546.347 14.9948 550.787 14.9948 555.24 14.9814C555.213 32.3814 555.227 49.7681 555.227 67.1548C550.787 67.1414 546.347 67.1415 541.907 67.1415C541.987 49.7548 541.987 32.3681 541.907 14.9814Z" fill="#970E7E"/>
<path d="M635.427 15.0481C639.293 14.9814 643.173 14.9814 647.053 15.0214C653.733 32.3814 660.32 49.7948 666.973 67.1681C662.147 67.1414 657.333 67.1281 652.507 67.1814C651.547 64.6214 650.627 62.0481 649.653 59.4881C643.787 59.5681 637.907 59.5548 632.053 59.5014C631.107 62.0348 630.227 64.5948 629.347 67.1414C624.493 67.1414 619.653 67.1548 614.813 67.1148C621.947 49.8614 628.587 32.4214 635.427 15.0481ZM640.707 31.3548C638.707 37.1948 637.04 43.1548 635.093 49.0081C638.853 49.0081 642.613 49.0081 646.373 48.9681C644.52 43.0881 642.72 37.1814 640.707 31.3548Z" fill="#970E7E"/>
<path d="M158.147 48.5681C164.533 48.5415 172.04 47.1281 177.293 51.7415C183.453 57.0348 182.627 67.6615 176.4 72.5281C171.08 75.7548 164.467 74.6615 158.547 75.2615C158.64 66.3548 159.013 57.4348 158.147 48.5681Z" fill="#970E7E"/>
<path d="M305.587 75.0879C309.28 75.1012 312.973 75.1146 316.667 75.1012C316.64 78.6746 316.613 82.2479 316.56 85.8346C312.92 85.8079 309.28 85.8079 305.64 85.8212C305.587 82.2479 305.573 78.6746 305.587 75.0879Z" fill="#970E7E"/>
<path d="M321.44 75.1147C325.187 75.1147 328.92 75.1147 332.667 75.1147C332.627 78.6881 332.627 82.2614 332.587 85.8481C328.893 85.8214 325.2 85.8081 321.507 85.7681C321.507 82.2214 321.493 78.6614 321.44 75.1147Z" fill="#970E7E"/>
<path d="M438.76 98.8879C447.293 87.6879 464.653 84.9412 476.333 92.7146C481.587 95.9012 485.307 101.075 487.48 106.755C482.667 106.728 477.827 107.128 473.04 106.515C469.653 103.208 465.853 100.315 461.04 99.5412C457.72 100.541 453.987 101.101 451.453 103.688C444.787 109.835 445.24 121.888 452.293 127.568C454.72 129.675 458.027 130.155 461 131.075C466.453 130.355 471.547 127.621 473.56 122.235C468.307 122.115 463.04 122.155 457.773 122.128C457.773 118.621 457.773 115.101 457.787 111.595C468.133 111.595 478.493 111.568 488.853 111.608C488.92 119.808 487.2 128.688 480.867 134.448C470.88 144.328 453.267 145.155 442.733 135.661C432.147 126.888 430.293 109.701 438.76 98.8879Z" fill="#970E7E"/>
<path d="M621.493 92.3946C628.893 86.6213 640.88 86.7413 647.453 93.7679C650.24 96.6079 650.96 100.648 651.493 104.435C647.173 104.501 642.853 104.501 638.533 104.395C637.347 102.275 636.267 98.6346 633.093 99.4346C630.187 99.4346 628.56 102.421 629.387 105.021C636.2 110.448 646.72 111.328 650.987 119.795C651.92 123.821 651.84 128.101 650.853 132.115C648.973 137.341 643.92 140.888 638.507 141.608C631.293 142.715 622.413 141.728 617.853 135.315C615.24 132.035 614.933 127.755 614.707 123.728C619.067 123.728 623.44 123.728 627.813 123.755C627.907 127.261 630.133 129.715 633.027 131.395C634.453 130.741 635.893 130.101 637.347 129.475C637.933 127.955 638.533 126.421 639.147 124.901C632.893 119.421 623.347 118.995 618.227 112.075C613.533 106.075 615.653 96.8079 621.493 92.3946Z" fill="#970E7E"/>
<path d="M759.947 94.8746C768.173 87.888 780.52 86.2879 790.28 90.8879C797.107 93.8479 802.227 99.8613 804.827 106.755C799.987 106.715 795.12 107.141 790.32 106.501C786.947 103.195 783.16 100.301 778.373 99.5413C775.04 100.541 771.333 101.115 768.787 103.661C762.067 109.795 762.56 121.968 769.667 127.621C772.147 129.688 775.453 130.181 778.44 131.128C783.827 130.301 788.893 127.595 790.893 122.235C785.627 122.101 780.373 122.155 775.107 122.141C775.107 118.621 775.107 115.101 775.12 111.595C785.427 111.555 795.733 111.648 806.04 111.528C806.267 118.835 805.013 126.635 800.093 132.368C792.28 141.941 777.813 145.048 766.64 139.888C757.4 135.821 750.893 126.168 750.8 116.048C750.333 108.088 753.76 99.9546 759.947 94.8746Z" fill="#970E7E"/>
<path d="M251.773 89.0214C261.427 89.3148 271.32 87.9948 280.76 90.5814C290.707 93.9014 293.773 107.115 289.053 115.741C287.373 118.595 284.587 120.488 282.013 122.448C285.6 128.608 288.987 134.875 292.533 141.035C287.867 141.061 283.213 141.075 278.547 140.968C274.12 132.848 270.28 124.368 265.08 116.701C264.747 124.821 264.96 132.955 264.92 141.075C260.48 141.061 256.053 141.061 251.613 140.995C251.56 137.101 251.493 133.208 251.707 129.328C252.587 115.888 251.107 102.448 251.773 89.0214ZM265.16 100.688C264.76 105.968 264.8 111.275 265.347 116.555C268.48 116.061 271.72 115.968 274.733 114.941C279.387 112.608 279.627 104.661 275.067 102.061C272.067 100.301 268.467 100.888 265.16 100.688Z" fill="#970E7E"/>
<path d="M293.267 141.021C300.36 123.755 306.827 106.235 313.947 88.9814C317.64 89.0081 321.333 89.0081 325.04 89.0615C331.627 106.395 338.2 123.741 344.893 141.035C339.973 141.061 335.04 141.061 330.107 141.021C329.4 138.635 328.653 136.261 327.96 133.861C322.013 133.728 316.067 133.781 310.133 133.795C309.373 136.208 308.613 138.608 307.867 141.021C303 141.061 298.133 141.061 293.267 141.021ZM318.76 105.795C316.8 111.555 315.213 117.435 313.413 123.248C317.107 123.248 320.8 123.248 324.493 123.261C322.533 117.448 320.973 111.515 318.76 105.795Z" fill="#970E7E"/>
<path d="M340.893 89.048C352.16 88.9814 363.44 88.9814 374.72 89.048C374.72 92.9414 374.707 96.8347 374.733 100.728C371.333 100.768 367.947 100.781 364.56 100.795C364.587 114.221 364.533 127.635 364.587 141.061C360.133 141.061 355.68 141.061 351.24 141.008C351.333 127.608 351.293 114.195 351.267 100.781C347.827 100.781 344.4 100.781 340.973 100.755C340.907 96.8614 340.893 92.9547 340.893 89.048Z" fill="#970E7E"/>
<path d="M375.427 89.0079C386.8 89.1946 398.2 88.5812 409.56 89.3679C409.52 93.1546 409.507 96.9546 409.52 100.741C406.067 100.768 402.6 100.781 399.16 100.795C399.2 114.208 399.08 127.621 399.227 141.035C394.76 141.061 390.293 141.061 385.84 141.048C385.973 127.635 385.8 114.208 385.933 100.795C382.413 100.781 378.907 100.781 375.387 100.781C375.427 96.8612 375.427 92.9279 375.427 89.0079Z" fill="#970E7E"/>
<path d="M413.72 141.035C413.76 123.701 413.627 106.355 413.787 89.0081C418.213 89.0081 422.627 89.008 427.053 89.0214C427.08 106.368 427.013 123.715 427.08 141.061C422.627 141.048 418.173 141.061 413.72 141.035Z" fill="#970E7E"/>
<path d="M494.827 89.0481C499.253 88.9947 503.693 89.0081 508.12 89.0481C508.213 95.5814 508.16 102.115 508.187 108.648C513.733 108.581 519.28 108.595 524.827 108.648C525.013 106.635 525.227 104.621 525.413 102.608C525.347 98.0881 525.36 93.5681 525.36 89.0347C529.627 89.0081 533.893 89.0081 538.173 89.0081C538.253 106.355 538.173 123.701 538.187 141.048C533.92 141.048 529.653 141.048 525.387 141.061C525.36 138.875 525.347 136.688 525.333 134.515C525.36 129.848 525.36 125.195 525.413 120.541C519.667 120.328 513.92 120.408 508.173 120.395C508.187 127.261 508.173 134.141 508.187 141.008C503.72 141.061 499.267 141.048 494.813 141.075C494.853 123.728 494.84 106.381 494.827 89.0481Z" fill="#970E7E"/>
<path d="M547.16 141.048C547.187 123.701 547.12 106.355 547.187 88.9948C556.973 89.0081 566.747 89.0348 576.533 88.9814C576.573 92.9148 576.587 96.8481 576.613 100.781C571.227 100.781 565.827 100.781 560.44 100.781C560.427 103.488 560.427 106.195 560.427 108.901C565.68 108.861 570.933 108.861 576.187 108.901C576.173 112.835 576.173 116.768 576.173 120.715C570.92 120.715 565.667 120.715 560.413 120.715C560.427 123.675 560.44 126.635 560.48 129.595C565.853 129.608 571.227 129.608 576.6 129.581C576.573 133.408 576.573 137.221 576.613 141.048C566.787 141.061 556.973 141.061 547.16 141.048Z" fill="#970E7E"/>
<path d="M579.173 89.0347C590.427 88.9947 601.68 89.0081 612.933 89.0214C612.973 92.9414 612.973 96.8614 612.987 100.781C609.573 100.781 606.173 100.781 602.787 100.795C602.92 114.208 602.813 127.635 602.84 141.048C598.387 141.048 593.933 141.048 589.48 141.075C589.56 127.648 589.427 114.221 589.56 100.795C586.093 100.781 582.64 100.781 579.187 100.768C579.173 96.8481 579.173 92.9414 579.173 89.0347Z" fill="#970E7E"/>
<path d="M657.2 89.0347C667.293 89.4347 677.733 87.7147 687.533 90.8213C698.04 94.7413 703.4 106.661 702.213 117.368C702.213 127.181 696.12 137.128 686.333 139.768C676.84 142.195 666.893 140.595 657.213 141.061C656.827 123.728 656.827 106.368 657.2 89.0347ZM670.267 100.741C670.52 109.941 669.987 119.155 670.507 128.328C670.693 128.648 671.067 129.275 671.253 129.595C677.053 130.101 684.547 129.448 687.333 123.421C689.973 117.261 689.707 109.101 685.093 103.915C681.253 99.9013 675.253 100.875 670.267 100.741Z" fill="#970E7E"/>
<path d="M721.347 89.7413C724.773 88.128 729.12 89.3413 732.907 89.048C739.493 106.395 746.04 123.768 752.813 141.048C747.867 141.061 742.933 141.061 738 141.035C737.267 138.675 736.56 136.301 735.907 133.928C729.813 133.835 723.693 133.421 717.64 134.061C716.64 136.288 716.093 138.675 715.387 140.995C710.52 141.075 705.667 141.075 700.813 141.008C707.893 124.021 713.987 106.595 721.347 89.7413ZM721.013 123.221C724.787 123.248 728.573 123.248 732.36 123.248C730.36 117.248 728.453 111.221 726.467 105.208C724.72 111.235 722.773 117.195 721.013 123.221Z" fill="#970E7E"/>
<path d="M804.12 141.048C811.107 123.741 817.747 106.301 824.72 88.9946C828.507 89.008 832.307 89.008 836.107 89.008C842.88 106.288 849.253 123.728 856.053 140.995C851.133 141.075 846.227 141.088 841.32 140.995C840.533 138.581 839.76 136.181 838.96 133.781C832.92 133.781 826.893 133.741 820.853 133.861C820.147 136.261 819.413 138.648 818.707 141.048C813.84 141.061 808.973 141.061 804.12 141.048ZM824.227 123.248C828 123.248 831.787 123.248 835.573 123.261C833.693 117.448 831.88 111.621 830.027 105.808C827.573 111.448 826.12 117.421 824.227 123.248Z" fill="#970E7E"/>
<path d="M860.387 141.048C860.413 123.701 860.32 106.355 860.44 89.0079C870.107 89.3413 880.027 87.9813 889.467 90.6346C899.427 94.0213 902.56 107.515 897.453 116.048C895.92 118.821 893.133 120.475 890.667 122.288C894.147 128.528 897.573 134.808 901.16 140.995C896.56 141.061 891.973 141.061 887.387 141.061C882.933 132.821 878.173 124.715 874.307 116.181C877.24 115.835 880.307 115.955 883.16 115.035C887.187 113.075 888.48 106.968 885.44 103.595C882.64 100.035 877.653 100.901 873.707 100.675C873.76 114.128 873.613 127.581 873.747 141.035C869.293 141.048 864.84 141.061 860.387 141.048Z" fill="#970E7E"/>
<path d="M905.933 89.0615C909.733 89.0215 913.547 89.0081 917.36 88.9814C923.96 99.4081 930.36 109.941 936.827 120.435C936.76 109.968 936.68 99.5148 936.707 89.0481C940.973 89.0081 945.253 89.0081 949.533 89.0481C949.533 106.368 949.427 123.688 949.6 141.008C945.693 141.048 941.8 141.061 937.92 141.101C931.387 130.901 925.013 120.595 918.693 110.261C918.733 120.515 918.707 130.768 918.907 141.008C914.547 141.061 910.2 141.061 905.853 141.008C906.067 123.701 905.92 106.381 905.933 89.0615Z" fill="#970E7E"/>
<path d="M954.347 140.995C961.227 123.648 967.787 106.168 974.987 88.968C978.653 89.008 982.307 89.008 985.987 88.968C993.187 106.141 999.227 123.781 1006.24 141.035C1001.28 141.061 996.333 141.075 991.387 140.968C990.667 138.595 989.947 136.221 989.253 133.848C983.16 133.741 977.067 133.781 970.987 133.781C970.307 136.141 969.653 138.501 969.04 140.875C964.147 141.115 959.24 141.088 954.347 140.995ZM974.36 123.248C978.173 123.261 981.987 123.248 985.813 123.221C983.613 117.221 981.853 111.075 979.867 105.008C978.12 111.115 976.293 117.195 974.36 123.248Z" fill="#970E7E"/>
<path d="M30.6667 136.235C33.4 136.381 36.2 136.208 38.8667 136.968C45.0267 139.608 46.3467 149.155 41.1734 153.408C38.2534 155.848 34.1734 155.275 30.64 155.581C30.6 149.128 30.5467 142.688 30.6667 136.235Z" fill="#970E7E"/>
<path d="M134.147 136.075C137.04 136.528 140.573 135.955 142.787 138.355C143.96 140.288 143.947 143.315 141.933 144.701C139.773 146.501 136.693 146.021 134.107 146.541C134.053 143.048 134.067 139.555 134.147 136.075Z" fill="#970E7E"/>
<path d="M61.5067 137.968C62.8134 141.128 63.9867 144.328 65.1067 147.555C62.9467 147.581 60.7867 147.621 58.6267 147.661C59.6267 144.448 60.6 141.221 61.5067 137.968Z" fill="#970E7E"/>
<path d="M111.173 147.595C112.213 144.408 113.293 141.248 114.427 138.101C115.507 141.275 116.573 144.475 117.653 147.648C115.493 147.635 113.333 147.608 111.173 147.595Z" fill="#970E7E"/>
<path d="M189.547 138.288C190.747 141.381 191.813 144.528 192.88 147.661C190.733 147.648 188.587 147.621 186.453 147.581C187.427 144.461 188.453 141.368 189.547 138.288Z" fill="#970E7E"/>
<path d="M347.173 165.595C348.653 165.648 350.133 165.648 351.627 165.608L350.813 165.968C350.413 166.208 349.6 166.675 349.2 166.915C346.973 171.981 347.64 178.501 349.84 183.528C350.84 179.661 350.573 175.621 350.707 171.675C351.307 172.528 351.933 173.381 352.56 174.235L352.133 174.861C350.707 178.075 351.747 181.661 351.627 185.048C350.133 185.128 348.653 185.195 347.16 185.261C347.4 178.715 347.467 172.141 347.173 165.595Z" fill="#970E7E"/>
<path d="M359.48 166.208C360.68 165.888 361.893 165.568 363.107 165.235C358.533 168.635 360.973 174.875 360.373 179.675C359.133 178.595 357.76 177.608 357.12 176.048L357.027 175.248C357.64 174.648 358.867 173.475 359.48 172.888C359.48 170.661 359.493 168.435 359.48 166.208Z" fill="#970E7E"/>
<path d="M690.453 165.928C692.333 165.888 694.227 165.861 696.12 165.848C696.107 172.101 696.08 178.355 696.093 184.608C694.96 185.061 693.84 185.515 692.733 185.981C697.053 180.195 694.933 172.661 695.2 166.021C694.013 165.995 691.64 165.955 690.453 165.928Z" fill="#970E7E"/>
<path d="M731.413 166.035C732.8 165.848 734.2 165.648 735.613 165.448L735.267 165.621C734.627 165.941 733.333 166.581 732.68 166.901C732.28 171.075 732.24 175.275 732.04 179.475C731.12 178.195 730.187 176.915 729.307 175.621L731.493 175.995C731.44 172.661 731.427 169.355 731.413 166.035Z" fill="#970E7E"/>
<path d="M772.267 165.581C773.64 165.488 775.027 165.408 776.413 165.328C776.093 170.768 776.24 176.221 776.24 181.675C778.28 181.715 780.373 181.781 782.44 181.835C780.08 181.821 777.72 181.821 775.373 181.808C775.48 178.035 775.653 174.248 775.333 170.488C776.507 169.195 774.173 166.088 772.973 167.875C773.32 173.088 771.48 178.781 773.333 183.688C776.107 185.328 779.507 184.648 782.587 184.981C779.107 185.435 775.6 185.555 772.107 185.795C771.987 179.061 771.96 172.315 772.267 165.581Z" fill="#970E7E"/>
<path d="M932.56 165.555C934.24 165.515 935.933 165.488 937.64 165.475C937.373 168.168 937.293 170.888 937.227 173.595C939.613 173.621 942.013 173.648 944.427 173.688C941.987 173.701 939.533 173.715 937.107 173.715C936.28 172.101 937.08 165.955 934.387 167.861C933.28 172.768 933.213 177.875 934.387 182.781C937.053 184.741 936.2 178.088 937.16 176.688C939.76 176.048 942.413 175.728 945.067 175.275C945.253 179.021 943.013 184.461 948.173 185.621C946.96 185.355 945.747 185.101 944.547 184.861C945.547 181.315 942.587 174.928 938.573 178.728C936.72 180.515 937.427 182.995 937.6 185.248C935.92 185.221 934.24 185.195 932.573 185.155C933.027 178.635 933.013 172.075 932.56 165.555Z" fill="#970E7E"/>
<path d="M26.3067 27.6346C36.3867 27.6479 46.4667 27.7146 56.5467 27.6079C63.0267 46.7679 67.0267 66.7279 73.9067 85.7412C79.08 66.3279 84.44 46.9679 89.92 27.6479C100.067 27.6746 110.213 27.6479 120.36 27.6612C120.493 49.9679 120.427 72.2746 120.387 94.5946C119.133 103.941 126.213 111.181 129.733 119.208C119.6 119.061 109.467 119.181 99.3333 119.128C99.3333 97.1412 100.72 75.1412 99.84 53.1679C93.0667 75.0212 87.2267 97.1546 81.0133 119.168C75.9733 119.141 70.92 119.128 65.88 119.155C59.5333 96.9012 53.2133 74.6479 47.0933 52.3412C46.4267 74.6212 47.48 96.9412 47.2667 119.235C40.24 119.088 33.2267 119.141 26.2 119.141C26.2933 88.6479 26.0933 58.1412 26.3067 27.6346Z" fill="white"/>
<path d="M126.467 27.7279C139.347 27.5945 152.213 27.6612 165.08 27.6612C174.36 28.1145 184.467 28.5412 192.267 34.2345C208.467 46.8612 207.093 77.1545 187.373 85.7145C193.56 96.8612 199.6 108.101 205.84 119.221C197.973 119.101 190.107 119.141 182.227 119.141C175.427 106.608 168.893 93.9145 162.24 81.3012C161.107 79.1812 159.72 77.2345 158.28 75.3412C158.667 89.9412 159.067 104.595 158.147 119.181C150.613 119.101 143.08 119.155 135.533 119.141C135.507 94.9412 135.653 70.7279 135.48 46.5279C133.92 39.7412 129.227 34.0879 126.467 27.7279ZM158.147 48.5679C159.013 57.4345 158.64 66.3545 158.547 75.2612C164.467 74.6612 171.08 75.7545 176.4 72.5279C182.627 67.6612 183.453 57.0345 177.293 51.7412C172.04 47.1279 164.533 48.5412 158.147 48.5679Z" fill="white"/>
<path d="M26.7333 132.715C31.68 132.915 36.9467 132.048 41.6 134.141C49.8933 138.568 50.5333 152.395 42.32 157.208C37.56 159.701 31.9733 158.875 26.8 159.008C26.7467 150.235 26.8267 141.475 26.7333 132.715ZM30.6667 136.235C30.5467 142.688 30.6 149.128 30.64 155.581C34.1733 155.275 38.2533 155.848 41.1733 153.408C46.3467 149.155 45.0267 139.608 38.8667 136.968C36.2 136.208 33.4 136.381 30.6667 136.235Z" fill="white"/>
<path d="M75.04 145.315C75 137.328 83.3867 130.368 91.24 132.701C95.1467 133.448 97.7867 136.648 100.04 139.661C95.6933 140.168 92.7067 136.768 88.8667 135.648C83.72 135.528 78.84 140.181 78.8667 145.381C78.2933 151.315 84.3467 157.261 90.3333 155.581C93.6667 155.208 95.3067 151.928 97.3733 149.741C93.2 149.541 89.0133 149.541 84.8267 149.528C85.0133 148.648 85.3733 146.888 85.56 145.995C90.8133 145.675 96.08 145.941 101.347 145.928C101.267 152.715 96.0667 159.061 89.0933 159.381C81.3867 160.248 74.4 152.915 75.04 145.315Z" fill="white"/>
<path d="M169.547 132.741C170.84 132.768 172.147 132.795 173.453 132.821C173.36 141.701 173.48 150.581 173.36 159.461C171.547 158.821 169.2 158.835 168.213 156.875C164.213 151.195 161.04 144.968 156.933 139.355C156.72 145.875 156.893 152.408 156.733 158.941C155.867 158.995 154.147 159.088 153.28 159.141C152.613 150.368 153.053 141.568 152.92 132.781C153.96 132.768 156.04 132.728 157.08 132.715C161.32 139.328 165.4 146.035 169.56 152.688C169.627 146.048 169.6 139.395 169.547 132.741Z" fill="white"/>
<path d="M60.0133 132.728C60.9333 132.781 62.7733 132.875 63.6933 132.928C66.6666 141.688 70.0666 150.315 73.24 159.008C72.2133 158.981 70.1867 158.928 69.16 158.915C68.1867 156.341 67.2133 153.781 66.2133 151.235C63.2267 151.235 60.24 151.248 57.2533 151.275C55.7733 154.595 55.56 160.101 50.48 159.355C53.32 150.355 56.9866 141.661 60.0133 132.728ZM61.5066 137.968C60.6 141.221 59.6266 144.448 58.6266 147.661C60.7866 147.621 62.9466 147.581 65.1066 147.555C63.9866 144.328 62.8133 141.128 61.5066 137.968Z" fill="white"/>
<path d="M102.92 159.328C106.147 150.248 109.587 141.261 112.88 132.208C115.04 132.555 116.867 133.621 117.293 135.928C120.187 143.755 123.2 151.541 125.813 159.461C120.747 159.888 120.293 154.795 118.84 151.261C115.893 151.235 112.947 151.235 110 151.221C108.32 154.541 108.093 160.248 102.92 159.328ZM111.173 147.595C113.333 147.608 115.493 147.635 117.653 147.648C116.573 144.475 115.507 141.275 114.427 138.101C113.293 141.248 112.213 144.408 111.173 147.595Z" fill="white"/>
<path d="M130.213 132.728C135.667 133.128 143.613 130.995 146.533 137.195C149.333 142.341 145.813 148.341 140.4 149.648C142.72 152.741 145.013 155.848 147.347 158.915C146.147 158.941 143.733 158.981 142.533 159.008C139.693 154.968 136.933 150.875 134.027 146.901C134.04 150.941 134.053 154.968 134.053 159.008C132.773 158.995 131.493 158.995 130.227 158.981C130.2 150.235 130.227 141.475 130.213 132.728ZM134.147 136.075C134.067 139.555 134.053 143.048 134.107 146.541C136.693 146.021 139.773 146.501 141.933 144.701C143.947 143.315 143.96 140.288 142.787 138.355C140.573 135.955 137.04 136.528 134.147 136.075Z" fill="white"/>
<path d="M187.893 132.741C188.76 132.781 190.493 132.835 191.36 132.875C194.507 141.715 198.093 150.408 200.933 159.368C195.907 160.181 195.6 154.808 194.333 151.435C191.227 151.288 188.12 151.261 185.027 151.301C183.693 154.821 183.04 159.675 178.173 159.448C181.213 150.475 184.627 141.635 187.893 132.741ZM189.547 138.288C188.453 141.368 187.427 144.461 186.453 147.581C188.587 147.621 190.733 147.648 192.88 147.661C191.813 144.528 190.747 141.381 189.547 138.288Z" fill="white"/>
<path d="M422.187 160.661C423.4 160.461 424.627 160.261 425.867 160.074C425.853 161.034 425.84 162.954 425.84 163.914C424.6 163.741 423.36 163.568 422.133 163.394C422.147 162.714 422.173 161.341 422.187 160.661Z" fill="#E1006B"/>
<path d="M428.12 160.248C428.933 160.248 430.533 160.248 431.347 160.261C431.347 161.141 431.36 162.928 431.36 163.821C430.56 163.808 428.96 163.781 428.16 163.768C428.147 162.888 428.133 161.128 428.12 160.248Z" fill="#E1006B"/>
<path d="M632.627 163.634C632.667 162.488 632.707 161.341 632.773 160.208C633.667 160.288 635.44 160.448 636.333 160.514C636.333 161.328 636.32 162.928 636.32 163.741C635.08 163.701 633.84 163.661 632.627 163.634Z" fill="#E1006B"/>
<path d="M638.627 160.248C639.427 160.261 641.027 160.314 641.827 160.341C641.827 161.181 641.8 162.848 641.8 163.674C641.013 163.714 639.427 163.794 638.64 163.834C638.64 162.941 638.627 161.141 638.627 160.248Z" fill="#E1006B"/>
<path d="M702.667 160.808C704.107 160.928 705.547 161.061 706.987 161.208L705.453 164.621C706.56 164.981 709.36 165.954 708.4 163.701C707.773 161.101 710.333 160.928 712.173 160.528C712.093 161.741 712 162.954 711.907 164.181L711.293 164.928C710.96 165.541 710.28 166.754 709.933 167.368C712.333 173.421 714.907 179.395 716.96 185.581C715.64 185.555 714.32 185.528 713.027 185.514C712.493 184.221 711.96 182.928 711.453 181.648C708.92 181.635 706.387 181.634 703.88 181.634C703.12 182.968 702.36 184.301 701.613 185.634C700.813 185.608 699.213 185.554 698.413 185.528C700.267 179.074 702.987 172.901 705.733 166.781C704.027 165.168 702.947 163.154 702.667 160.808ZM707.52 170.341C706.573 172.981 705.68 175.634 704.8 178.288C706.613 178.301 708.44 178.314 710.28 178.341C709.373 175.661 708.453 172.994 707.52 170.341Z" fill="#E1006B"/>
<path d="M862.04 160.861C863.187 160.928 864.347 160.994 865.52 161.061C865.52 162.208 865.533 163.368 865.56 164.514C864.36 164.554 863.173 164.594 862 164.634C862 163.381 862.013 162.114 862.04 160.861Z" fill="#E1006B"/>
<path d="M868.213 161.088C869.173 160.981 870.16 160.888 871.147 160.781C871.04 162.221 870.947 163.675 870.867 165.115L868.2 163.981C870.147 171.315 873.68 178.088 875.8 185.355C874.747 185.475 873.693 185.595 872.667 185.715C871.893 184.408 871.147 183.088 870.413 181.768C867.947 181.675 865.493 181.635 863.04 181.621C862.013 184.168 860.107 185.608 857.213 185.275C859.627 179.061 862 172.821 864.72 166.728C867.093 165.795 868.453 163.715 868.213 161.088ZM863.813 178.301C865.627 178.301 867.453 178.315 869.293 178.328C868.347 175.661 867.427 172.995 866.493 170.341C865.613 172.995 864.693 175.635 863.813 178.301Z" fill="#E1006B"/>
<path d="M254.653 165.768C255.533 165.794 257.28 165.861 258.16 165.888C261.133 170.314 264.053 174.781 266.907 179.288C266.907 174.768 266.867 170.261 266.88 165.754C268.2 165.834 269.52 165.928 270.84 166.021C270.693 172.394 270.72 178.768 270.84 185.141C269.56 185.021 268.293 184.848 267.027 184.634C263.627 180.581 261.133 175.861 258.147 171.514C258.173 176.008 258.2 180.501 258.2 184.994C257.307 185.021 255.52 185.048 254.64 185.061C254.68 178.634 254.627 172.194 254.653 165.768Z" fill="#E1006B"/>
<path d="M279.24 166.395C285.333 163.341 293.747 167.568 293.947 174.621C295.08 181.995 286.12 188.314 279.573 184.568C271.96 181.594 271.973 169.808 279.24 166.395ZM283.12 168.888C278.387 169.341 275.92 175.754 278.92 179.341C280.947 182.941 286.573 183.048 288.72 179.501C292.307 175.488 288.547 168.034 283.12 168.888Z" fill="#E1006B"/>
<path d="M314.027 165.834C317.507 165.861 321.04 165.554 324.467 166.288C331.72 168.968 332.32 180.954 325.36 184.314C321.693 185.448 317.773 184.901 314 184.994C314.027 178.608 314 172.221 314.027 165.834ZM317.973 168.874C317.92 173.274 317.92 177.688 318 182.101C320.493 181.608 322.987 181.034 325.467 180.434C325.96 177.568 326.893 174.474 325.493 171.728C324.08 168.954 320.507 169.554 317.973 168.874Z" fill="#E1006B"/>
<path d="M367.4 173.688C364.947 169.288 369.907 164.328 374.44 165.608C377.72 165.488 378.853 169.074 379.747 171.541C377.027 171.608 372.227 166.274 370.747 170.581C371.667 174.634 379.16 173.834 379.44 178.594C380.453 182.154 377.187 184.221 374.84 186.101C370.787 185.568 366.667 183.794 366 179.288C366.867 179.288 368.613 179.261 369.48 179.261C370.827 181.021 372.533 182.421 374.853 182.568C375.12 181.594 375.653 179.634 375.92 178.661C373.027 177.114 369.693 176.128 367.4 173.688Z" fill="#E1006B"/>
<path d="M390.187 172.194C389.493 167.901 394.093 164.594 398.067 165.621C401.24 165.688 402.187 169.221 403.36 171.501C400.013 171.621 396.013 166.394 393.733 170.594C395.547 173.634 399.653 173.954 401.96 176.488C404.187 179.234 402.827 183.941 399.427 184.994C396.867 186.474 394.04 184.914 391.453 184.408C390.787 182.541 390.147 180.661 389.547 178.768C391.827 179.048 393.653 180.314 395.36 181.741C397.12 183.381 398.88 180.594 400.2 179.808C397.133 176.954 391.88 176.328 390.187 172.194Z" fill="#E1006B"/>
<path d="M425.36 165.608C431.413 164.408 437.84 169.714 436.893 176.048C437.2 184.181 426.187 188.688 420.387 183.208C413.72 178.341 416.973 166.168 425.36 165.608ZM422.16 170.301C419.92 174.408 420.293 180.714 425.627 181.981C429.813 183.234 432.373 179.168 433.787 175.914C432.587 173.528 432.08 170.088 429.107 169.261C426.8 168.114 424.4 169.741 422.16 170.301Z" fill="#E1006B"/>
<path d="M440.28 165.768C444.693 166.261 450.933 164.261 453.493 169.128C455.24 172.648 453.347 176.394 450.467 178.581C451.693 180.888 452.96 183.181 454.2 185.501C452.933 185.514 451.667 185.528 450.413 185.541C448.733 182.581 447.027 179.621 445.28 176.701C446.88 176.141 448.48 175.581 450.093 175.021C450.053 173.301 449.987 171.581 449.92 169.874C448.013 169.594 446.107 169.328 444.2 169.088C444.187 174.368 444.16 179.634 444.267 184.914C442.933 184.954 441.6 184.994 440.28 185.034C440.253 178.621 440.28 172.194 440.28 165.768Z" fill="#E1006B"/>
<path d="M456.707 173.341C454.8 168.861 459.467 164.461 463.907 165.568C467.107 165.661 468.653 168.888 469.053 171.661C466.12 170.781 463.493 168.421 460.28 169.034C460.333 169.808 460.453 171.381 460.52 172.154C463.8 174.048 469.573 174.968 469 179.941C469.28 186.021 459.84 187.674 457.093 182.781C456.467 181.661 455.893 180.514 455.387 179.354C456.28 179.328 458.093 179.248 458.987 179.221C460.32 180.608 461.413 182.741 463.707 182.341C464.48 181.221 465.2 180.074 465.867 178.901C462.747 177.168 459.053 176.168 456.707 173.341Z" fill="#E1006B"/>
<path d="M470.48 165.834C474.52 165.821 478.56 165.821 482.613 165.861C482.653 166.648 482.72 168.234 482.76 169.021C481.347 169.101 479.947 169.194 478.56 169.288C478.547 174.514 478.573 179.754 478.573 184.994C477.587 185.008 475.613 185.048 474.627 185.061C474.627 179.794 474.627 174.541 474.627 169.274C473.52 169.234 471.307 169.141 470.2 169.088C470.267 168.274 470.413 166.648 470.48 165.834Z" fill="#E1006B"/>
<path d="M489.613 165.794C490.787 165.861 491.973 165.928 493.16 166.008C495.52 172.381 497.96 178.741 500.72 184.968C499.227 184.981 497.747 185.008 496.267 185.034C495.96 184.194 495.32 182.514 495.013 181.674C492.427 181.648 489.853 181.634 487.293 181.621C486.987 182.461 486.373 184.128 486.08 184.968C484.6 184.968 483.147 184.968 481.68 184.968C484.493 178.648 486.933 172.168 489.613 165.794ZM490.733 170.528C490 173.141 489.227 175.741 488.387 178.328C490.293 178.314 492.187 178.301 494.093 178.288C493 175.688 491.867 173.101 490.733 170.528Z" fill="#E1006B"/>
<path d="M529.693 166.275C534.907 163.981 541.8 166.488 543.48 172.128C546.96 179.781 537.653 188.514 530.2 184.861C522.013 182.274 521.867 169.461 529.693 166.275ZM529.147 179.795C531.44 183.035 536.88 182.848 538.96 179.461C541.373 176.781 539.48 173.315 538.813 170.355C536.533 169.728 534.12 168.074 531.76 169.301C527.56 170.608 526.453 176.568 529.147 179.795Z" fill="#E1006B"/>
<path d="M547.24 165.795C551.733 166.235 558.413 164.221 560.653 169.528C562.16 171.635 560.733 174.048 560.307 176.235C559.52 176.715 557.92 177.675 557.133 178.141C558.507 180.515 559.92 182.875 561.24 185.288C555.787 186.195 554.453 180.141 552.867 176.328C550.907 178.835 551.093 182.008 551.093 185.035C549.787 185.008 548.507 185.008 547.213 184.995C547.24 178.595 547.213 172.195 547.24 165.795ZM551.347 168.795C551.2 171.408 551.013 174.035 550.813 176.661C553.227 175.755 558.493 175.981 557.493 172.088C557.307 169.035 553.373 169.635 551.347 168.795Z" fill="#E1006B"/>
<path d="M563.987 165.821C564.96 165.821 566.92 165.821 567.893 165.808C567.987 170.528 567.6 175.261 568.147 179.954C568.547 182.674 571.667 181.621 573.56 182.088C574.373 176.741 574.147 171.314 574.04 165.928C575.04 165.888 577.053 165.808 578.053 165.754C577.96 170.474 578.24 175.208 577.853 179.928C577.56 187.021 564.907 187.154 564.2 180.248C563.747 175.448 564.067 170.621 563.987 165.821Z" fill="#E1006B"/>
<path d="M634.76 165.781C641 163.901 648.213 169.408 647.307 176.048C647.387 183.901 636.88 188.688 631 183.394C624.307 178.861 626.787 167.141 634.76 165.781ZM633.573 170.114C629.733 172.834 630.293 179.194 634.453 181.328C638.8 184.234 644.44 179.274 643.373 174.554C643.093 169.981 637.213 166.941 633.573 170.114Z" fill="#E1006B"/>
<path d="M675.6 165.621C677.333 165.714 679.08 165.861 680.813 166.088C682.72 170.461 683.893 175.141 686.08 179.408C687.48 174.888 689.013 170.434 690.453 165.928C691.64 165.954 694.013 165.994 695.2 166.021C694.933 172.661 697.053 180.194 692.733 185.981C692.053 180.741 692.453 175.461 692.253 170.208C690.413 175.101 688.867 180.114 687 184.994C686.347 185.008 685.04 185.034 684.387 185.048C682.64 180.128 681.213 175.088 679.147 170.288C679 175.341 679.2 180.394 679.067 185.448C678.227 185.234 676.547 184.821 675.707 184.621C675.36 178.288 675.627 171.954 675.6 165.621Z" fill="#E1006B"/>
<path d="M738.92 173.888C737.96 169.781 740.48 165.008 745.187 165.488C748.92 164.994 750.773 168.461 751.853 171.421C749.067 171.514 747.013 169.861 745.013 168.274C743.947 169.314 742.92 170.408 741.933 171.528C745.36 173.861 751.72 174.648 751.613 179.914C751.267 181.568 750.333 182.994 749.6 184.488C748.027 184.954 746.453 185.434 744.907 185.928C741.44 185.168 738.627 182.914 737.973 179.301C738.987 179.261 741.013 179.181 742.027 179.154C742.4 180.008 743.16 181.714 743.533 182.581C745.813 182.368 747.507 181.154 748.333 178.981C745.16 177.341 741.96 175.768 738.92 173.888Z" fill="#E1006B"/>
<path d="M758.76 174.714C760.84 171.714 762.92 168.728 765.04 165.754C766.08 165.821 768.173 165.928 769.227 165.994C766.84 169.048 764.56 172.194 762.16 175.248C764.693 178.648 767.507 181.901 769.413 185.728C767.813 185.394 766.267 185.074 764.68 184.754C762.72 181.994 760.747 179.248 758.773 176.501C758.747 179.301 758.76 182.088 758.8 184.888C757.787 184.941 755.773 185.021 754.773 185.074C754.747 178.634 754.733 172.208 754.773 165.781C755.787 165.821 757.813 165.888 758.827 165.914C758.773 168.848 758.747 171.781 758.76 174.714Z" fill="#E1006B"/>
<path d="M784.693 165.941C786.013 165.888 787.347 165.834 788.693 165.794C788.72 172.221 788.693 178.634 788.72 185.061C787.36 184.994 786 184.941 784.667 184.874C784.693 178.554 784.667 172.248 784.693 165.941Z" fill="#E1006B"/>
<path d="M792.987 170.501C797.027 163.088 808.413 164.448 811.853 171.741C807.053 172.821 803.347 166.848 798.76 169.714C793.427 172.354 795.187 181.941 801.347 182.101C804.347 182.674 806.333 180.181 808.227 178.341C805.6 178.181 803.013 178.114 800.4 178.048C800.387 177.288 800.36 175.768 800.347 175.008C804.467 174.994 808.613 174.981 812.747 175.221C811.8 179.501 809.587 184.128 804.88 185.154C796.667 188.234 788.187 178.008 792.987 170.501Z" fill="#E1006B"/>
<path d="M819.693 166.061C820.853 165.941 822.013 165.808 823.2 165.701C825.813 172.448 828.827 179.101 831.04 185.995C828.16 185.808 826.08 184.208 824.893 181.648C822.387 181.621 819.893 181.635 817.413 181.688C817.133 182.515 816.573 184.181 816.293 185.008C814.853 185.008 813.427 185.008 812 185.008C814.733 178.754 817.253 172.421 819.693 166.061ZM818.693 178.395C820.547 178.355 822.413 178.341 824.28 178.355C823.28 175.688 822.227 173.048 821.4 170.328C820.493 173.008 819.56 175.701 818.693 178.395Z" fill="#E1006B"/>
<path d="M841.867 165.808C846.173 166.274 852.12 164.328 854.933 168.701C856.813 172.274 855.16 176.408 851.973 178.568C853.307 180.794 854.573 183.048 855.827 185.341C850.627 186.221 849.64 180.621 847.547 177.314C846.04 179.634 845.64 182.328 845.6 185.034C844.347 185.021 843.107 185.008 841.893 185.008C841.893 178.608 841.893 172.208 841.867 165.808ZM845.947 168.821C845.827 171.488 845.68 174.141 845.52 176.794C847.96 175.808 853.413 175.848 852.12 171.834C851.44 168.981 848.093 169.554 845.947 168.821Z" fill="#E1006B"/>
<path d="M902.68 165.768C904.026 165.834 905.386 165.901 906.76 165.981C906.666 172.234 906.666 178.501 906.76 184.754C905.4 184.888 904.04 185.008 902.693 185.141C902.64 178.688 902.653 172.221 902.68 165.768Z" fill="#E1006B"/>
<path d="M909.587 175.955C908.72 169.688 915.28 164.355 921.267 165.621C925.107 165.688 927.48 168.981 929.68 171.661C925.947 172.315 923.093 169.888 919.813 168.835C913.573 168.528 911.04 177.821 916.187 181.035C919.6 183.648 923.867 181.248 926.16 178.315C923.453 178.155 920.76 178.088 918.067 178.008C918.093 177.275 918.133 175.808 918.147 175.061C922.24 175.008 926.333 174.995 930.44 175.115C929.733 178.981 928.04 183.115 924.067 184.621C918.013 188.048 909.427 182.848 909.587 175.955Z" fill="#E1006B"/>
<path d="M964.067 166.088C968.267 165.768 972.493 165.808 976.72 165.808C976.96 166.528 977.467 167.981 977.707 168.714C976.48 168.968 974.013 169.461 972.787 169.701C972.88 174.794 972.853 179.888 972.84 184.981C971.96 184.994 970.213 185.008 969.333 185.021C969.347 180.008 969.347 174.994 969.373 169.981C967.053 169.381 964.587 168.821 964.067 166.088Z" fill="#E1006B"/>
<path d="M979.493 165.874C983.2 165.808 986.92 165.821 990.64 165.914C990.68 166.954 990.693 167.994 990.693 169.034C988.253 169.128 985.827 169.208 983.413 169.274C983.413 170.368 983.427 172.541 983.427 173.621C985.653 173.634 987.906 173.648 990.16 173.661C990.146 174.488 990.107 176.141 990.093 176.954C987.867 176.968 985.64 176.968 983.44 176.981C983.427 178.168 983.413 180.554 983.4 181.741C985.64 181.741 987.907 181.741 990.173 181.754C990.187 182.554 990.187 184.154 990.2 184.968C986.64 185.008 983.08 185.021 979.533 185.034C979.533 178.648 979.56 172.261 979.493 165.874Z" fill="#E1006B"/>
<path d="M993.813 165.754C997.653 165.781 1001.49 165.928 1005.33 166.301C1008.44 170.008 1008.53 175.888 1003.99 178.528C1005.32 180.794 1006.59 183.074 1007.85 185.394C1002.69 186.154 1001.59 180.701 999.533 177.341C998.013 179.661 997.613 182.341 997.573 185.061C996.32 185.034 995.08 184.994 993.84 184.968C993.867 178.554 993.84 172.154 993.813 165.754ZM997.947 168.821C997.8 171.474 997.653 174.128 997.48 176.781C1000.07 175.861 1005.03 175.914 1004.23 171.848C1003.4 169.048 1000.13 169.528 997.947 168.821Z" fill="#E1006B"/>
<path d="M297.347 165.794C300.947 165.808 304.547 165.901 308.147 166.128C309.2 168.008 311.347 169.621 311.12 171.981C311.707 174.994 308.907 176.688 307.173 178.621C308.587 180.848 309.987 183.088 311.36 185.341C305.92 186.128 304.68 180.408 302.36 176.834C303.947 176.208 305.547 175.568 307.147 174.941C307.147 173.301 307.133 171.661 307.107 170.021C305.067 169.994 302.307 167.994 300.92 170.288C301 174.954 301.64 179.608 301.227 184.261C300 184.768 298.76 185.221 297.52 185.634C297.28 179.021 297.413 172.408 297.347 165.794Z" fill="#E1006B"/>
<path d="M333.52 185.021C333.507 178.621 333.48 172.221 333.533 165.821C337.093 165.821 340.667 165.821 344.227 165.821C344.227 166.674 344.227 168.368 344.213 169.221C341.947 169.208 339.68 169.194 337.413 169.181C337.413 170.288 337.427 172.501 337.44 173.608C339.667 173.621 341.92 173.634 344.173 173.648C344.147 174.474 344.107 176.128 344.08 176.954C341.92 176.954 339.773 176.954 337.627 176.954C337.52 178.541 337.427 180.128 337.333 181.728C339.627 181.741 341.933 181.741 344.24 181.754C344.213 182.568 344.173 184.208 344.16 185.021C340.6 184.994 337.067 185.008 333.52 185.021Z" fill="#E1006B"/>
<path d="M349.2 166.914C349.6 166.674 350.413 166.208 350.813 165.968C353.067 168.501 354.693 171.501 356.52 174.354L357.027 175.248L357.12 176.048C357.76 177.608 359.133 178.594 360.373 179.674C360.973 174.874 358.533 168.634 363.107 165.234C363.773 171.808 363.333 178.421 363.493 185.021C362.613 185.008 360.853 184.981 359.973 184.968C357.547 181.341 355.147 177.714 352.56 174.234C351.933 173.381 351.307 172.528 350.707 171.674C350.573 175.621 350.84 179.661 349.84 183.528C347.64 178.501 346.973 171.981 349.2 166.914Z" fill="#E1006B"/>
<path d="M404.267 165.808C408.333 165.821 412.413 165.821 416.48 165.835C416.48 166.675 416.48 168.355 416.467 169.195C415.453 169.195 413.4 169.221 412.373 169.235C412.32 174.475 412.293 179.728 412.44 184.981C411.107 184.995 409.773 185.021 408.453 185.048C408.493 179.768 408.48 174.488 408.48 169.221C407.44 169.221 405.373 169.208 404.347 169.208C404.32 168.368 404.293 166.661 404.267 165.808Z" fill="#E1006B"/>
<path d="M511.333 165.808C514.773 165.821 518.213 165.821 521.667 165.835C521.64 166.675 521.6 168.355 521.573 169.208C519.467 169.208 517.36 169.208 515.28 169.208C515.253 170.355 515.227 172.675 515.213 173.821C517.387 173.861 519.573 173.915 521.76 173.968C521.653 175.155 521.547 176.341 521.453 177.541C519.373 177.528 517.28 177.528 515.213 177.528C515.227 180.048 515.253 182.581 515.28 185.101C513.96 185.035 512.64 184.968 511.333 184.901C511.36 178.541 511.36 172.181 511.333 165.808Z" fill="#E1006B"/>
<path d="M581.933 165.861C583.227 165.835 585.827 165.795 587.12 165.781C588.84 170.248 590.387 174.781 592.053 179.288C593.853 174.861 595.44 170.355 596.987 165.835C598.707 165.848 600.427 165.861 602.147 165.888C602.04 172.248 602.093 178.608 602.08 184.968C601.24 184.995 599.547 185.035 598.707 185.061C598.72 180.141 598.8 175.221 598.667 170.315C596.773 175.115 595.187 180.035 593.48 184.915C592.813 184.968 591.493 185.048 590.827 185.101C588.987 180.088 587.48 174.981 585.64 169.995C585.387 175.128 585.573 180.288 585.467 185.435C584.613 185.221 582.92 184.781 582.067 184.568C581.747 178.341 582.093 172.101 581.933 165.861Z" fill="#E1006B"/>
<path d="M614.84 185.115C614.76 178.675 614.8 172.248 614.8 165.808C618.133 165.821 621.467 165.821 624.8 165.848C624.787 166.688 624.773 168.381 624.76 169.235C622.76 169.208 620.773 169.195 618.787 169.181C618.72 170.728 618.667 172.288 618.627 173.848C620.827 173.888 623.04 173.955 625.253 174.035C625.467 178.315 621.6 177.501 618.68 177.661C618.72 180.035 618.747 182.408 618.8 184.781C617.467 184.901 616.147 185.008 614.84 185.115Z" fill="#E1006B"/>
<path d="M650.053 165.834C653.693 165.941 657.493 165.368 661.013 166.568C663.24 168.101 664.707 170.821 664.227 173.568C663.52 175.634 661.64 176.941 660.213 178.474C661.533 180.768 662.773 183.114 663.813 185.554C663.08 185.554 661.6 185.528 660.853 185.514C659.68 183.968 658.507 182.408 657.347 180.861C656.68 179.848 656.027 178.821 655.413 177.781C655.027 177.834 654.24 177.941 653.84 177.981C653.96 180.341 654.067 182.714 654.16 185.074C652.787 185.008 651.427 184.954 650.067 184.901C650.16 178.541 650.147 172.194 650.053 165.834ZM654.187 168.808C654.067 171.434 653.907 174.061 653.707 176.688C656.373 175.688 661.533 176.234 660.373 171.941C660.053 168.968 656.2 169.634 654.187 168.808Z" fill="#E1006B"/>
<path d="M719.453 165.368C725.067 165.648 726.28 171.981 729.307 175.621C730.187 176.914 731.12 178.194 732.04 179.474C732.24 175.274 732.28 171.074 732.68 166.901C733.333 166.581 734.627 165.941 735.267 165.621C735.453 172.101 735.36 178.581 735.387 185.061C734.48 185.021 732.68 184.941 731.773 184.888C728.907 180.568 726.12 176.194 723.12 171.968C723.107 176.328 723.173 180.688 723.16 185.048C722.2 185.021 720.293 184.968 719.333 184.941C719.4 178.408 719.333 171.888 719.453 165.368Z" fill="#E1006B"/>
<path d="M772.973 167.874C774.173 166.088 776.507 169.194 775.333 170.488C775.653 174.248 775.48 178.034 775.373 181.808C777.72 181.821 780.08 181.821 782.44 181.834L782.587 184.981C779.507 184.648 776.107 185.328 773.333 183.688C771.48 178.781 773.32 173.088 772.973 167.874Z" fill="#E1006B"/>
<path d="M874.533 165.981C878.813 165.768 883.107 165.808 887.413 165.874C887.373 166.688 887.307 168.288 887.28 169.088C886.24 169.128 884.16 169.208 883.12 169.248C883.12 174.514 883.107 179.768 883.133 185.034C881.773 185.008 880.427 184.994 879.093 184.981C879.227 179.861 879.2 174.741 879.187 169.621C876.267 169.888 874.72 168.674 874.533 165.981Z" fill="#E1006B"/>
<path d="M888.067 165.834C892.32 165.808 896.6 165.781 900.867 165.981C900.827 168.888 898.547 169.394 896.173 169.621C896.2 174.728 896.16 179.821 896.267 184.928C895.267 184.954 893.28 185.008 892.28 185.034C892.253 179.861 892.24 174.688 892.347 169.528C891.307 169.421 889.253 169.221 888.213 169.128C888.173 168.301 888.107 166.661 888.067 165.834Z" fill="#E1006B"/>
<path d="M934.387 167.861C937.08 165.954 936.28 172.101 937.107 173.714C939.533 173.714 941.987 173.701 944.427 173.688C944.427 171.074 944.4 168.461 944.4 165.861C945.4 165.834 947.387 165.808 948.387 165.794C948.28 172.394 948.507 179.008 948.173 185.621C943.013 184.461 945.253 179.021 945.067 175.274C942.413 175.728 939.76 176.048 937.16 176.688C936.2 178.088 937.053 184.741 934.387 182.781C933.213 177.874 933.28 172.768 934.387 167.861Z" fill="#E1006B"/>
<path d="M952.413 165.821C956.053 165.821 959.72 165.834 963.373 165.861C963.32 166.701 963.2 168.368 963.147 169.208C960.867 169.208 958.587 169.208 956.32 169.221C956.32 170.314 956.32 172.514 956.32 173.621C958.587 173.634 960.893 173.661 963.2 173.701C963.213 174.501 963.24 176.101 963.253 176.901C960.933 176.941 958.613 176.968 956.32 177.008C956.32 178.194 956.32 180.554 956.32 181.741C958.613 181.741 960.933 181.741 963.253 181.754C963.267 182.568 963.28 184.181 963.293 184.994C959.667 184.994 956.04 185.008 952.44 185.048C952.413 178.634 952.427 172.234 952.413 165.821Z" fill="#E1006B"/>
</svg>
