<svg xmlns="http://www.w3.org/2000/svg" width="141" height="41" fill="none"><path fill="#3083FF" d="M32.155 8.31V.272h-8.039V8.31h-8.038v8.04h8.038v8.038h8.04v-8.039h8.038V8.31h-8.039Z"/><path fill="#083B87" d="M16.078 24.388v-8.039h-8.04v8.039H0v8.039h8.039v8.038h8.039v-8.038h8.038v-8.04h-8.038Z"/><path fill="#fff" d="m58.714.272 3.83 10.384h.156l-.156-5.978V.272h3.3V14.43h-4.639L57.231 3.814h-.144l.155 6.111v4.506h-3.3V.271h4.772ZM73.634 14.708c-1.978 0-3.44-.44-4.384-1.318-.945-.885-1.417-2.173-1.417-3.863v-1.13c0-1.667.443-2.944 1.328-3.83.886-.893 2.174-1.34 3.864-1.34 1.137 0 2.081.196 2.834.587.76.384 1.329.934 1.705 1.65.384.716.576 1.575.576 2.58v.365c0 .28-.015.568-.045.863a8.351 8.351 0 0 1-.1.808H74.94c.03-.428.048-.83.056-1.206.007-.384.01-.731.01-1.041 0-.45-.07-.827-.21-1.13a1.486 1.486 0 0 0-.653-.708c-.288-.162-.66-.243-1.118-.243-.679 0-1.177.184-1.495.553-.31.362-.465.878-.465 1.55v.996l.023.366v.775c0 .28.044.546.133.797.096.25.258.472.487.664.236.184.557.332.963.443.413.103.937.155 1.572.155.671 0 1.317-.063 1.937-.188a11.59 11.59 0 0 0 1.783-.532l-.277 2.546c-.502.259-1.096.462-1.783.61a10.81 10.81 0 0 1-2.27.22Zm-4.008-4.628V7.988h7.683v2.092h-7.683ZM81.204 14.431 79.023 3.549h3.432l1.35 8.49h.2l1.328-8.225h4.14l1.351 8.226h.189l1.361-8.491h3.399L93.592 14.43h-4.816l-1.096-6.93-.188-1.218h-.155l-.2 1.218-1.095 6.93h-4.838ZM101.848 11.043c-1.749 0-3.063-.324-3.94-.974-.88-.65-1.318-1.56-1.318-2.734V7.19c0-.797.177-1.469.531-2.015.362-.554.915-.982 1.66-1.284.746-.303 1.702-.484 2.868-.543l5.812-.265v2.39l-2.889-.077v.111c.494.081.9.221 1.217.42.325.193.565.447.72.765.162.31.244.693.244 1.151v.077c0 1.012-.403 1.787-1.207 2.325-.797.532-2.03.797-3.698.797Zm-.166 5.148h.332c.532 0 .96-.033 1.285-.1.332-.066.575-.165.73-.298a.63.63 0 0 0 .233-.498v-.023c0-.258-.111-.442-.332-.553-.214-.11-.539-.185-.975-.222l-3.21-.32.742-.045c-.222.037-.414.1-.576.188-.155.089-.28.2-.377.332a.858.858 0 0 0-.132.488v.022c0 .221.08.41.243.564.163.155.41.27.742.344.339.08.771.121 1.295.121Zm-.166 2.48c-1.092 0-2.026-.088-2.8-.266-.768-.17-1.351-.442-1.75-.819-.398-.376-.598-.874-.598-1.494v-.045c0-.42.093-.775.277-1.063.184-.287.45-.512.797-.675a3.515 3.515 0 0 1 1.218-.299v-.11c-.568-.104-1.007-.284-1.317-.543-.303-.258-.454-.62-.454-1.085v-.01c0-.333.073-.613.221-.842.155-.229.38-.402.675-.52.296-.126.657-.2 1.085-.222v-.365l2.502.63-.73-.01c-.259 0-.443.033-.554.1a.332.332 0 0 0-.155.298v.011c0 .163.085.28.255.355.177.066.461.121.852.166l2.58.299c1.254.147 2.188.457 2.8.93.613.472.919 1.202.919 2.191v.067c0 .753-.214 1.373-.642 1.86-.42.494-1.033.86-1.838 1.096-.797.243-1.771.365-2.922.365h-.421Zm.222-9.908c.435 0 .793-.056 1.073-.166.288-.118.502-.288.642-.51.148-.228.222-.501.222-.819v-.1c0-.317-.07-.586-.21-.808-.141-.22-.355-.387-.643-.498-.28-.118-.642-.177-1.084-.177h-.012c-.45 0-.819.06-1.107.177-.287.118-.501.288-.642.51-.133.221-.199.49-.199.808v.088c0 .318.07.59.21.82.148.22.366.39.654.509.287.11.653.166 1.096.166ZM114.025 14.708c-1.978 0-3.44-.44-4.384-1.318-.945-.885-1.417-2.173-1.417-3.863v-1.13c0-1.667.442-2.944 1.328-3.83.886-.893 2.174-1.34 3.864-1.34 1.136 0 2.081.196 2.834.587.76.384 1.328.934 1.705 1.65.383.716.575 1.575.575 2.58v.365c0 .28-.014.568-.044.863a8.075 8.075 0 0 1-.1.808h-3.055c.029-.428.048-.83.055-1.206.008-.384.011-.731.011-1.041 0-.45-.07-.827-.21-1.13a1.486 1.486 0 0 0-.653-.708c-.288-.162-.661-.243-1.118-.243-.679 0-1.177.184-1.495.553-.31.362-.465.878-.465 1.55v.996l.022.366v.775c0 .28.045.546.133.797.096.25.259.472.487.664.236.184.558.332.963.443.414.103.938.155 1.573.155.671 0 1.317-.063 1.937-.188.62-.133 1.214-.31 1.782-.532l-.277 2.546c-.501.259-1.096.462-1.782.61-.686.147-1.443.22-2.269.22Zm-4.008-4.628V7.988h7.683v2.092h-7.683ZM127.36 14.431V8.032c0-.398-.052-.742-.155-1.03a1.27 1.27 0 0 0-.521-.675c-.243-.155-.575-.232-.996-.232a2.13 2.13 0 0 0-.919.188 1.896 1.896 0 0 0-.675.498c-.177.207-.31.443-.399.709l-.52-1.583h.576c.118-.495.31-.938.575-1.329a2.838 2.838 0 0 1 1.119-.93c.472-.236 1.07-.354 1.793-.354.812 0 1.476.159 1.993.476.516.31.896.775 1.14 1.395.251.62.376 1.395.376 2.325v6.941h-3.387Zm-6.997 0V3.549h3.366l-.111 2.723.133.321v7.838h-3.388ZM137.212 14.675c-.967 0-1.738-.144-2.314-.432a2.607 2.607 0 0 1-1.229-1.318c-.251-.583-.376-1.302-.376-2.158V4.689h3.365v5.535c0 .531.118.923.354 1.174.244.243.694.365 1.351.365.362 0 .72-.04 1.074-.122.354-.081.675-.184.963-.31l-.288 2.801a6.364 6.364 0 0 1-1.306.388 7.69 7.69 0 0 1-1.594.155Zm-5.381-8.425V3.593h8.469l-.299 2.657h-8.17Zm1.506-2.414-.011-2.812 3.354-.32-.122 3.132h-3.221ZM55.57 36.382v-1.55h3.432c1.255 0 2.196-.34 2.823-1.019.635-.686.952-1.664.952-2.934v-3.155c0-1.277-.317-2.255-.952-2.933-.627-.68-1.568-1.019-2.823-1.019h-3.443v-1.539h3.51c1.83 0 3.213.473 4.15 1.417.938.938 1.407 2.292 1.407 4.063v3.177c0 1.764-.469 3.122-1.406 4.075-.938.944-2.321 1.416-4.152 1.416H55.57Zm-1.24 0V22.233h1.816v14.149H54.33ZM67.256 36.382V25.577h1.794v10.805h-1.794Zm.897-12.577c-.37 0-.646-.096-.83-.288-.177-.199-.266-.468-.266-.808v-.055c0-.347.088-.616.266-.808.184-.192.46-.288.83-.288.369 0 .646.096.83.288.185.192.277.461.277.808v.055c0 .347-.092.617-.277.808-.184.192-.461.288-.83.288ZM76.23 33.149c-1.469 0-2.598-.321-3.388-.963-.782-.642-1.173-1.561-1.173-2.757v-.277c0-.745.151-1.395.454-1.948.31-.554.8-.985 1.472-1.295.672-.318 1.55-.491 2.635-.52l5.513-.178v1.417l-3.255-.11-.01.077c.509.103.926.28 1.25.531.325.251.565.565.72.941.162.377.244.816.244 1.318v.243c0 1.144-.377 2.019-1.13 2.624-.752.598-1.863.897-3.332.897Zm-.078 5.956h.255c.664 0 1.233-.052 1.705-.155.48-.096.849-.251 1.107-.465.258-.214.388-.498.388-.852v-.045c0-.413-.152-.73-.454-.952-.296-.214-.805-.354-1.528-.42l-3.056-.277.51-.023c-.414.06-.779.156-1.096.288-.31.133-.554.307-.731.52-.177.222-.266.495-.266.82v.022c0 .377.13.68.388.908.258.229.623.391 1.096.487a8.565 8.565 0 0 0 1.683.144Zm-.1 1.428c-.973 0-1.815-.085-2.523-.255-.701-.162-1.248-.431-1.639-.808-.383-.369-.575-.867-.575-1.494v-.045c0-.442.103-.811.31-1.107.214-.295.498-.527.852-.697.362-.17.764-.284 1.207-.343l-.011-.067c-.606-.103-1.052-.28-1.34-.531a1.278 1.278 0 0 1-.432-.996v-.012c0-.28.063-.52.189-.72.132-.198.328-.357.586-.475.266-.118.602-.192 1.008-.222v-.221l2.059.52-.841-.022c-.502.008-.85.07-1.041.188a.549.549 0 0 0-.288.51v.01c0 .244.137.429.41.554.273.126.738.225 1.394.3l2.624.265c1.144.118 1.978.395 2.502.83.524.428.786 1.063.786 1.904v.056c0 .671-.199 1.221-.597 1.65-.4.427-.964.737-1.694.93-.731.198-1.606.298-2.624.298h-.321Zm.156-8.713c.62 0 1.133-.088 1.539-.265.413-.185.723-.458.93-.82.214-.369.32-.819.32-1.35v-.266c0-.517-.103-.956-.31-1.317a1.896 1.896 0 0 0-.907-.82c-.406-.191-.915-.287-1.528-.287h-.066c-.665 0-1.207.103-1.628.31-.413.199-.716.483-.908.852-.184.362-.276.786-.276 1.273v.255c0 .531.103.978.31 1.34.214.361.531.634.952.819.42.184.945.276 1.572.276ZM83.408 36.382V25.577h1.794v10.805h-1.794Zm.897-12.577c-.37 0-.646-.096-.83-.288-.178-.199-.266-.468-.266-.808v-.055c0-.347.088-.616.266-.808.184-.192.46-.288.83-.288.369 0 .646.096.83.288.185.192.277.461.277.808v.055c0 .347-.092.617-.277.808-.184.192-.461.288-.83.288ZM92.105 36.603c-.834 0-1.505-.126-2.015-.377a2.28 2.28 0 0 1-1.107-1.14c-.229-.509-.343-1.144-.343-1.904v-6.82h1.771v6.61c0 .708.163 1.232.487 1.572.325.332.871.498 1.639.498.435 0 .852-.048 1.25-.144a5.23 5.23 0 0 0 1.141-.41l-.166 1.54a5.11 5.11 0 0 1-1.218.42 6.61 6.61 0 0 1-1.439.155ZM86.87 27.17v-1.44h7.948l-.166 1.44H86.87Zm1.782-1.262-.01-3.034 1.804-.232-.078 3.266h-1.716ZM103.32 36.382l.078-2.624-.066-.277v-3.443l.011-.631c0-.878-.225-1.528-.676-1.948-.443-.421-1.147-.631-2.114-.631-.775 0-1.487.11-2.137.332a9.466 9.466 0 0 0-1.716.775l.166-1.528c.28-.17.613-.336.997-.498a7.406 7.406 0 0 1 2.978-.587c.775 0 1.431.096 1.97.288.546.184.986.454 1.318.808.339.354.586.782.741 1.284a5.69 5.69 0 0 1 .233 1.683v6.997h-1.783Zm-3.72.232c-1.07 0-1.892-.258-2.468-.775-.568-.524-.853-1.27-.853-2.236v-.321c0-.997.307-1.738.92-2.225.62-.495 1.6-.838 2.944-1.03l3.421-.487.1 1.306-3.299.476c-.827.118-1.417.321-1.772.61-.354.28-.531.697-.531 1.25v.177c0 .569.173 1.004.52 1.306.355.303.882.454 1.583.454.62 0 1.152-.107 1.595-.32.442-.215.8-.502 1.073-.864.273-.362.458-.764.554-1.207l.277 1.218h-.344a3.573 3.573 0 0 1-.586 1.317c-.281.406-.676.735-1.185.986-.509.243-1.159.365-1.948.365ZM107.907 36.382v-14.67h1.782v14.67h-1.782Z"/></svg>