<svg xmlns="http://www.w3.org/2000/svg" width="141" height="41" fill="none"><path fill="#3083FF" d="M32.217 8.054V0h-8.054v8.054h-8.054v8.055h8.054v8.054h8.054v-8.054h8.055V8.054h-8.055Z"/><path fill="#083B87" d="M16.109 24.163v-8.054H8.054v8.054H0v8.054h8.054v8.055h8.055v-8.055h8.054v-8.054h-8.054Z"/><path fill="#000" d="m58.827 0 3.838 10.404h.156l-.156-5.99V0h3.306v14.187h-4.648L57.341 3.55h-.144l.155 6.122v4.515h-3.305V0h4.78ZM73.776 14.464c-1.982 0-3.446-.44-4.392-1.32-.947-.887-1.42-2.178-1.42-3.871V8.142c0-1.672.444-2.95 1.33-3.838.888-.895 2.179-1.342 3.872-1.342 1.139 0 2.085.196 2.84.588.761.384 1.33.935 1.708 1.652.384.718.576 1.579.576 2.585v.366c0 .28-.014.57-.044.865a8.32 8.32 0 0 1-.1.81h-3.061c.03-.43.048-.832.055-1.21.008-.384.011-.731.011-1.042 0-.451-.07-.828-.21-1.131a1.49 1.49 0 0 0-.655-.71c-.288-.163-.662-.244-1.12-.244-.68 0-1.18.184-1.497.554-.311.363-.466.88-.466 1.553v.998l.022.366v.777c0 .28.044.547.133.798.096.252.259.474.488.666.237.185.558.333.965.444.414.103.94.155 1.575.155.673 0 1.32-.063 1.941-.189.621-.133 1.217-.31 1.786-.532l-.277 2.551c-.503.259-1.098.462-1.786.61-.688.148-1.446.222-2.274.222Zm-4.015-4.636V7.73h7.698v2.097H69.76ZM81.36 14.187 79.177 3.283h3.438l1.353 8.508h.2l1.33-8.241h4.15L91 11.79h.188l1.364-8.507h3.406l-2.185 10.904h-4.825l-1.099-6.944-.188-1.22h-.155l-.2 1.22-1.098 6.944H81.36ZM102.045 10.793c-1.753 0-3.069-.326-3.949-.976-.88-.651-1.32-1.564-1.32-2.74v-.144c0-.799.178-1.472.532-2.02.363-.554.917-.983 1.664-1.286.747-.303 1.705-.484 2.873-.543l5.824-.267v2.396l-2.896-.077v.11c.496.082.903.222 1.221.422a1.8 1.8 0 0 1 .721.765c.162.311.244.696.244 1.154v.078c0 1.013-.403 1.79-1.209 2.329-.799.532-2.034.799-3.705.799Zm-.167 5.157h.333c.533 0 .962-.033 1.287-.1.333-.066.577-.166.732-.299a.631.631 0 0 0 .233-.499v-.022c0-.259-.111-.444-.333-.555-.214-.11-.54-.185-.976-.222l-3.217-.321.744-.045c-.222.037-.415.1-.577.189-.156.089-.281.2-.377.333a.86.86 0 0 0-.133.488v.022c0 .222.08.41.244.566.162.155.41.27.743.343.34.082.772.122 1.297.122Zm-.166 2.485c-1.094 0-2.03-.089-2.806-.266-.77-.17-1.353-.444-1.753-.821-.4-.377-.599-.876-.599-1.497v-.045c0-.421.093-.776.278-1.065.184-.288.45-.514.798-.676a3.52 3.52 0 0 1 1.22-.3v-.11c-.57-.104-1.009-.285-1.32-.544-.303-.259-.454-.621-.454-1.087v-.011c0-.333.074-.614.221-.843.156-.23.381-.403.677-.522.296-.125.658-.2 1.087-.221v-.366l2.507.632-.732-.011c-.259 0-.444.033-.555.1a.333.333 0 0 0-.155.299v.011c0 .163.085.281.255.355.178.067.462.122.854.166l2.585.3c1.257.148 2.192.458 2.806.932.614.473.92 1.205.92 2.196v.066c0 .755-.214 1.376-.643 1.864-.421.495-1.035.861-1.841 1.098-.799.244-1.775.366-2.928.366h-.422Zm.222-9.927c.436 0 .795-.056 1.076-.167.288-.118.503-.288.643-.51a1.48 1.48 0 0 0 .222-.82v-.1c0-.319-.07-.588-.211-.81-.14-.222-.355-.389-.643-.5-.281-.118-.643-.177-1.087-.177h-.011c-.451 0-.821.06-1.109.178-.289.118-.503.288-.644.51-.133.222-.2.492-.2.81v.088c0 .318.071.592.211.821.148.222.366.392.655.51.288.111.654.167 1.098.167ZM114.245 14.464c-1.982 0-3.446-.44-4.393-1.32-.946-.887-1.42-2.178-1.42-3.871V8.142c0-1.672.444-2.95 1.332-3.838.887-.895 2.177-1.342 3.871-1.342 1.138 0 2.085.196 2.839.588.762.384 1.331.935 1.708 1.652.385.718.577 1.579.577 2.585v.366c0 .28-.015.57-.044.865a8.412 8.412 0 0 1-.1.81h-3.061c.029-.43.048-.832.055-1.21.007-.384.011-.731.011-1.042 0-.451-.07-.828-.211-1.131a1.485 1.485 0 0 0-.654-.71c-.288-.163-.662-.244-1.12-.244-.681 0-1.18.184-1.498.554-.31.363-.466.88-.466 1.553v.998l.023.366v.777c0 .28.044.547.133.798.096.252.258.474.488.666.236.185.558.333.965.444.414.103.939.155 1.575.155.673 0 1.32-.063 1.941-.189.621-.133 1.216-.31 1.786-.532l-.278 2.551c-.502.259-1.098.462-1.785.61a10.84 10.84 0 0 1-2.274.222Zm-4.016-4.636V7.73h7.698v2.097h-7.698ZM127.606 14.187V7.776c0-.4-.052-.744-.156-1.032a1.268 1.268 0 0 0-.521-.677c-.244-.155-.577-.233-.998-.233-.348 0-.655.063-.921.189a1.903 1.903 0 0 0-.677.5c-.177.206-.31.443-.399.71l-.521-1.587h.577c.118-.496.31-.94.576-1.331a2.846 2.846 0 0 1 1.121-.932c.473-.236 1.072-.355 1.797-.355.813 0 1.479.16 1.996.477.518.31.899.777 1.143 1.398.251.62.377 1.397.377 2.33v6.954h-3.394Zm-7.011 0V3.283h3.372l-.111 2.729.134.322v7.853h-3.395ZM137.476 14.43c-.968 0-1.741-.143-2.318-.432a2.61 2.61 0 0 1-1.231-1.32c-.251-.584-.377-1.305-.377-2.163v-6.09h3.372v5.547c0 .532.118.924.355 1.176.244.244.695.366 1.353.366.362 0 .721-.041 1.076-.122a5.46 5.46 0 0 0 .965-.311l-.288 2.806a6.4 6.4 0 0 1-1.309.388 7.701 7.701 0 0 1-1.598.156Zm-5.39-8.44V3.328h8.485l-.299 2.662h-8.186Zm1.508-2.418-.011-2.818 3.361-.321-.122 3.139h-3.228ZM55.677 36.18v-1.553h3.439c1.257 0 2.2-.34 2.828-1.02.636-.688.954-1.668.954-2.94v-3.161c0-1.28-.318-2.26-.954-2.94-.628-.68-1.571-1.02-2.828-1.02h-3.45v-1.542h3.516c1.834 0 3.22.473 4.16 1.42.939.939 1.409 2.296 1.409 4.07v3.184c0 1.767-.47 3.128-1.41 4.082-.938.946-2.325 1.42-4.159 1.42h-3.505Zm-1.242 0V22.004h1.82V36.18h-1.82ZM67.386 36.18V25.354h1.797V36.18h-1.797Zm.898-12.6c-.37 0-.647-.097-.832-.29-.177-.199-.266-.469-.266-.809v-.056c0-.347.09-.617.266-.81.185-.191.463-.288.832-.288.37 0 .647.096.832.289.185.192.278.462.278.81v.055c0 .347-.093.617-.278.81-.184.192-.462.288-.832.288ZM76.377 32.94c-1.471 0-2.603-.32-3.394-.964-.784-.644-1.176-1.564-1.176-2.762v-.277c0-.747.152-1.398.455-1.953.31-.554.802-.987 1.475-1.297.673-.318 1.553-.492 2.64-.522l5.524-.177v1.42l-3.261-.111-.011.077c.51.104.928.281 1.253.533.326.251.566.565.721.942.163.378.244.818.244 1.32v.244c0 1.147-.377 2.023-1.131 2.63-.754.598-1.867.898-3.339.898Zm-.078 5.968h.256c.665 0 1.234-.052 1.708-.155.48-.096.85-.251 1.109-.466.259-.214.388-.499.388-.854v-.044c0-.414-.151-.732-.455-.954-.295-.215-.806-.355-1.53-.422l-3.062-.277.51-.022c-.413.059-.78.155-1.098.288-.31.133-.554.307-.732.521-.177.222-.266.496-.266.821v.023c0 .377.13.68.388.91.26.228.625.391 1.099.487a8.582 8.582 0 0 0 1.685.144Zm-.1 1.431c-.975 0-1.818-.085-2.528-.255-.703-.163-1.25-.433-1.642-.81-.385-.37-.577-.868-.577-1.497v-.044c0-.444.104-.814.31-1.11.215-.295.5-.528.855-.698.362-.17.765-.285 1.209-.344l-.011-.067c-.606-.103-1.054-.28-1.342-.532a1.28 1.28 0 0 1-.433-.999v-.01c0-.282.063-.522.189-.722.133-.2.329-.358.588-.477.266-.118.602-.192 1.009-.221v-.222l2.063.521-.843-.022c-.503.007-.85.07-1.043.188a.55.55 0 0 0-.288.51v.012c0 .244.137.429.41.554.274.126.74.226 1.398.3l2.629.266c1.146.118 1.982.396 2.507.832.525.429.787 1.065.787 1.908v.055c0 .673-.2 1.224-.599 1.653-.4.429-.965.74-1.697.932-.732.2-1.608.3-2.629.3H76.2Zm.156-8.73c.621 0 1.135-.088 1.542-.266.414-.184.724-.458.931-.82.215-.37.322-.821.322-1.354v-.266c0-.517-.103-.957-.31-1.32a1.9 1.9 0 0 0-.91-.82c-.407-.193-.917-.289-1.53-.289h-.067c-.666 0-1.21.104-1.63.31-.415.2-.718.485-.91.855-.185.362-.278.787-.278 1.275v.255c0 .533.104.98.311 1.343.214.362.532.636.954.82.421.185.946.278 1.575.278ZM83.57 36.18V25.354h1.796V36.18h-1.797Zm.898-12.6c-.37 0-.648-.097-.832-.29-.178-.199-.266-.469-.266-.809v-.056c0-.347.088-.617.266-.81.184-.191.462-.288.832-.288.37 0 .647.096.831.289.185.192.278.462.278.81v.055c0 .347-.093.617-.278.81-.184.192-.462.288-.831.288ZM92.283 36.401c-.836 0-1.509-.125-2.019-.377a2.285 2.285 0 0 1-1.109-1.142c-.23-.51-.344-1.146-.344-1.908v-6.833h1.775v6.622c0 .71.163 1.235.488 1.575.325.333.873.5 1.642.5.436 0 .854-.049 1.253-.145a5.235 5.235 0 0 0 1.142-.41l-.166 1.542a5.124 5.124 0 0 1-1.22.421 6.628 6.628 0 0 1-1.442.155Zm-5.247-9.45V25.51h7.965l-.167 1.442h-7.798Zm1.786-1.264-.01-3.04 1.807-.233-.078 3.273h-1.719ZM103.52 36.18l.078-2.63-.067-.276v-3.45l.011-.632c0-.88-.225-1.531-.677-1.953-.443-.421-1.149-.632-2.118-.632-.776 0-1.49.111-2.14.333a9.478 9.478 0 0 0-1.72.776l.166-1.53a7.83 7.83 0 0 1 .999-.5 7.411 7.411 0 0 1 2.983-.587c.777 0 1.435.096 1.975.288.547.185.987.455 1.32.81.34.355.588.784.743 1.287a5.71 5.71 0 0 1 .233 1.685v7.01h-1.786Zm-3.727.233c-1.072 0-1.897-.26-2.474-.777-.569-.525-.854-1.272-.854-2.24v-.322c0-.998.307-1.742.921-2.23.621-.495 1.605-.839 2.95-1.031l3.428-.488.1 1.309-3.306.477c-.828.118-1.42.321-1.774.61-.355.28-.533.698-.533 1.253v.178c0 .569.174 1.005.521 1.308.355.304.884.455 1.587.455.621 0 1.153-.107 1.597-.322a2.906 2.906 0 0 0 1.076-.865c.273-.362.458-.765.554-1.209l.278 1.22h-.344c-.104.474-.3.914-.588 1.32-.281.407-.677.736-1.187.988-.51.244-1.161.366-1.952.366ZM108.115 36.18V21.483h1.786V36.18h-1.786Z"/></svg>