<svg xmlns="http://www.w3.org/2000/svg" fill="none" viewBox="0 0 493 119"><g fill="#EB663C" clip-path="url(#a)"><path d="M176.826 100.771c-23.07 0-41.76-18.48-41.76-41.29s18.7-41.29 41.76-41.29c23.07 0 41.77 18.49 41.77 41.29s-18.7 41.29-41.77 41.29Zm0-100.68c-33.18 0-60.08 26.59-60.08 59.39s26.9 59.39 60.08 59.39 60.08-26.59 60.08-59.39-26.9-59.39-60.08-59.39Z"/><path d="M193.105 59.481c0 8.88-7.29 16.09-16.27 16.09-8.99 0-16.27-7.21-16.27-16.09 0-8.88 7.29-16.08 16.27-16.08s16.27 7.2 16.27 16.08ZM18.536 15.271v-.04H.386v92.16h18.15v-65.67l60.2 65.62v.05h.04l.01.01v-.01h18.09v-92.16h-18.14v65.41l-60.08-65.49-.12.12ZM272.866 90.601v-75.36h-18.15v92.17h77.11v-16.81h-58.96ZM368.306 15.231h-18.14v92.16h18.14v-92.16ZM439.696 33.731l14.63 32.45h-29.25l14.62-32.45Zm-11.49-18.58-41.59 92.26h19.87l11-24.42h44.41l11.01 24.42h19.86l-41.58-92.26h-22.98Z"/></g><defs><clipPath id="a"><path fill="#fff" d="M.386.091h492.39v118.78H.386z"/></clipPath></defs></svg>