<svg xmlns="http://www.w3.org/2000/svg" xml:space="preserve" id="Layer_1" x="0" y="0" style="enable-background:new 0 0 492.39 118.78" viewBox="0 0 492.39 118.78"><path d="M176.44 100.68c-23.07 0-41.76-18.48-41.76-41.29s18.7-41.29 41.76-41.29c23.07 0 41.77 18.49 41.77 41.29s-18.7 41.29-41.77 41.29m0-100.68c-33.18 0-60.08 26.59-60.08 59.39s26.9 59.39 60.08 59.39 60.08-26.59 60.08-59.39S209.62 0 176.44 0" class="st0"/><path d="M192.72 59.39c0 8.88-7.29 16.09-16.27 16.09-8.99 0-16.27-7.21-16.27-16.09 0-8.88 7.29-16.08 16.27-16.08s16.27 7.2 16.27 16.08M18.15 15.18v-.04H0v92.16h18.15V41.63l60.2 65.62v.05h.04l.01.01v-.01h18.09V15.14H78.35v65.41L18.27 15.06zM272.48 90.51V15.15h-18.15v92.17h77.11V90.51zM349.78 15.14h18.14v92.16h-18.14zM439.31 33.64l14.63 32.45h-29.25l14.62-32.45zm-11.49-18.58-41.59 92.26h19.87l11-24.42h44.41l11.01 24.42h19.86L450.8 15.06h-22.98z" class="st0"/></svg>