<svg xmlns="http://www.w3.org/2000/svg" fill="none" viewBox="0 0 1011 200"><g fill="#F9F9F9" clip-path="url(#a)"><path d="M129.216 62.433c-3.755 1.044-7.095 4.175-8.974 8.773-1.879 5.008-3.758 11.479-3.758 25.045v101.662h-8.35L28.81 86.648h-.626v74.526c0 13.357 1.67 20.04 3.549 25.05 1.881 4.381 5.636 7.721 9.185 8.765a49.098 49.098 0 0 0 7.1 1.253v.835H4.177v-.835a58.48 58.48 0 0 0 7.306-1.253c3.549-1.044 7.1-4.384 8.976-8.765 1.879-5.01 3.755-11.693 3.755-25.05v-57.615c0-13.989-2.085-24.841-4.59-29.851A22.69 22.69 0 0 0 6.684 62.85a20.94 20.94 0 0 0-6.685-1.67v-1.253h52.192l59.914 87.258h.418V96.25c0-13.566-1.67-20.037-3.549-25.045a14.87 14.87 0 0 0-9.394-8.773 21.141 21.141 0 0 0-6.68-1.252v-1.253h43.42v1.253c-2.42.037-4.818.46-7.104 1.253Zm650.205 0c-3.762 1.044-7.1 4.175-8.979 8.773-1.879 5.008-3.758 11.479-3.758 25.045v101.662h-8.347L679.015 86.648h-.626v74.526c0 13.357 1.67 20.04 3.549 25.05 1.876 4.381 5.634 7.721 9.183 8.765a49.108 49.108 0 0 0 7.1 1.253v.835h-43.839v-.835a58.603 58.603 0 0 0 7.3-1.253c3.549-1.044 7.1-4.384 8.979-8.765 1.879-5.01 3.758-11.693 3.758-25.05v-57.615c0-13.989-2.087-24.841-4.6-29.851a22.686 22.686 0 0 0-12.942-10.858 20.879 20.879 0 0 0-6.678-1.67v-1.253h52.188l59.906 87.258h.417V96.25c0-13.566-1.668-20.037-3.546-25.045a14.863 14.863 0 0 0-9.4-8.773 21.108 21.108 0 0 0-6.675-1.252v-1.253h43.42v1.253a22.749 22.749 0 0 0-7.088 1.253ZM200.611 200c-39.871 0-65.965-27.555-65.965-71.39s26.094-71.393 65.965-71.393 65.965 27.555 65.965 71.393S240.482 200 200.611 200Zm13.986-135.479c-4.386-3.549-9.6-4.175-13.986-4.175-4.386 0-9.811.626-13.986 4.175-9.6 7.935-16.074 25.259-16.074 64.089s6.471 56.154 16.074 64.084c4.175 3.549 9.6 4.175 13.986 4.175 4.386 0 9.809-.626 13.986-4.175 9.6-7.93 16.074-25.259 16.074-64.084s-6.68-56.154-16.074-64.089Zm145.499 132.556c-3.966-5.427-7.932-16.28-8.976-28.181-1.044-13.775-2.5-24.632-7.726-31.939-4.384-5.843-9.809-6.051-18.785-6.051h-6.056v30.477c0 9.182 1.044 18.161 2.5 23.171 1.675 6.469 5.221 9.183 9.6 10.435 2.324.596 4.703.946 7.1 1.044v1.044h-69.927v-1.044a27.707 27.707 0 0 0 6.263-1.044c4.386-1.253 7.935-3.966 9.814-10.435 1.459-5.01 1.876-13.989 1.876-23.171V95.624c0-9.394-.626-18.159-2.294-23.169-1.879-6.474-5.219-8.979-9.6-10.231a28.092 28.092 0 0 0-6.054-1.044v-1.253h70.558c27.346 0 49.685 9.811 49.685 34.652 0 14.2-7.724 24.424-18.79 30.063a54.337 54.337 0 0 1-18.159 4.8v.418c5.845.835 14.61 2.5 19.62 6.054 6.474 4.59 12.319 12.105 14.406 25.05 2.923 17.744 6.469 27.761 11.061 31.728 2.3 2.087 7.1 3.34 9.4 3.549v.835l-45.516.001ZM330.453 63.268c-4.384 0-7.93 1.252-10.022 4.8-1.67 2.927-1.879 8.144-1.879 13.78v45.09h8.77c10.644 0 15.654-2.3 18.994-7.517 3.551-5.845 5.012-16.489 5.012-25.468 0-18.576-4.8-30.686-19.2-30.686l-1.675.001Z"/><path d="M494.107 197.077c-3.966-5.427-7.932-16.28-8.976-28.181-1.044-13.775-2.5-24.632-7.721-31.939-4.384-5.843-9.814-6.051-18.79-6.051h-6.051v30.477c0 9.182 1.044 18.161 2.5 23.171 1.67 6.469 5.219 9.183 9.6 10.435 2.324.596 4.703.946 7.1 1.044v1.044h-69.925v-1.044c2.12-.107 4.22-.457 6.26-1.044 4.384-1.253 7.935-3.966 9.814-10.435 1.461-5.01 1.879-13.989 1.879-23.171V95.624c0-9.394-.626-18.159-2.3-23.169-1.879-6.474-5.221-8.979-9.605-10.231a28.145 28.145 0 0 0-6.051-1.044v-1.253h70.555c27.346 0 49.678 9.811 49.678 34.652 0 14.2-7.721 24.424-18.783 30.063a54.371 54.371 0 0 1-18.164 4.8v.418c5.845.835 14.615 2.5 19.625 6.054 6.469 4.59 12.314 12.105 14.4 25.05 2.92 17.744 6.474 27.761 11.066 31.728 2.3 2.087 7.1 3.34 9.391 3.549v.835l-45.502.001ZM464.464 63.268c-4.384 0-7.932 1.252-10.017 4.8-1.67 2.927-1.879 8.144-1.879 13.78v45.09h8.767c10.649 0 15.659-2.3 19-7.517 3.546-5.845 5.008-16.489 5.008-25.468 0-18.576-4.8-30.686-19.205-30.686l-1.674.001Z"/><path d="M590.754 197.077v-1.253a34.172 34.172 0 0 0 7.933-2.088c3.755-1.461 6.886-4.592 6.886-10.435 0-5.843-1.67-11.066-3.758-17.955l-3.546-11.479h-35.7l-4.381 13.357c-2.3 6.262-3.34 11.066-3.34 15.033 0 5.845 2.923 9.809 6.886 11.479a24.392 24.392 0 0 0 8.355 2.088v1.253h-41.541v-1.253a19.896 19.896 0 0 0 8.77-2.922c2.923-1.67 5.636-4.384 8.35-8.556 2.5-4.175 5.008-9.814 7.93-17.955l39.247-107.5h9.183l30.478 89.969c5.636 17.117 10.44 29.436 14.824 36.742a18.147 18.147 0 0 0 9.809 8.765 33.03 33.03 0 0 0 7.1 1.461v1.253l-73.485-.004Zm-9.4-94.352h-.626l-16.906 47.8h33.191l-15.659-47.8Zm319.013 73.698s-1.2-7.07-1.772-9.066c-.728-2.078-.952-4.781-3.251-5.418-2.264-.159-4.155.02-5.239-1.218-1.084-1.238 2.229-4.4.467-4.868l-7.515 1.416a6.132 6.132 0 0 0-.616-.653l-4.553-21.6 2.2-3.82 20.075-3.218a43.26 43.26 0 0 0-8.539-5.887 42.919 42.919 0 0 1-6.193-4.406c-7.085 2.085-11.114 3.541-12.207 3.862-4.381 1.3-7.174 5.688-5.107 9.212 3.844 9.548 6.335 21.158 7.763 28.243.022.41.022.788.087 1.292.281 2.13 2.791 4.751 4.921 4.98.19.01.379.01.569 0 2.5-.025 5.435 1.2 7.518 2.319a7.479 7.479 0 0 1 2.714 2.865c1.121 1.926 5.912 6.722 8.678 5.954m83.517-48.262c-6.081-6.369-16.258-5.219-18.512-4.9 1 5.877 1.817 10.726 2.326 13.159.586 2.8 1.014 5.291 1.62 8.541.606 3.25-.917 7.96-1.742 10.761a215.479 215.479 0 0 1-8.964 21.514 59.326 59.326 0 0 1-4.359 6.8 12.214 12.214 0 0 1-3.472 2.843 33.485 33.485 0 0 0-6.61 3.725 7.327 7.327 0 0 0-3.1 4.727c-.122.34 8.4-.02 12.368-.224 1.4-.452 1.417-.835 1.732-1.792.611-2.043.83-4.061 2.9-4.747 1.369-.234 1.819 2.137 2.5 1.568 1.051-.88 1.981-4.913 2.709-6.456 2.9-6.533 5.843-13.062 15.448-28 1.618-2.786 4.64-6.024 4.2-7.836a30.47 30.47 0 0 1-1.511-9.59c-.082-3.285 1.74-7.935 2.465-10.085M882.033 7.994c-.437-1.909-1.819-1.389-2.169-.174-3.661 12.639-6.436 8.683-7.547 7.207a55.995 55.995 0 0 1-5.072-8.032c-1.374-2.932-3.35-2.239-2.937.83.442 3.28 2.03 9.64-.7 10.477-3.494 1.074-7.965-6.138-9.814-9.58-.962-1.807-3.077-.907-2.505 1.069.646 2.242 1.094 3.586 1.782 5.919.256.92-.219 1.894-1.431 2.632-2.632 1.608-9.17-6.543-10.485-7.624-1.315-1.081-2.545-.025-1.879 1.315.326.651 4.533 9.232 11.658 13.256 9.083 5.117 18.3 5.3 23.308 6.884.3-.214.594-.422.885-.671a25.74 25.74 0 0 0 5.649-6.921c3.534-6.67 1.68-14.718 1.257-16.587Z"/><path d="M1006.67 139.885c4.55 6.869 4.12 5.621 2.42 14.707a300.418 300.418 0 0 0-4.22 33.554c-.05 1.054.66 3.253-.06 3.738-.72.485-2.5-2.44-4.07.281-.959 1.665-.03 4.627-1.861 4.8a75.638 75.638 0 0 1-12.013.082c-1.151-.224 2.562-4.488 4.163-5.629 1.638-1.17 3.106-1.879 4.307-2.667a11.876 11.876 0 0 0 3.29-4.891 135.06 135.06 0 0 0 1.564-14.1c.25-5.574-.19-14.426-.19-14.426a103.845 103.845 0 0 0-12.309-26.263 26.711 26.711 0 0 0-6.218-6.548 21.893 21.893 0 0 0-11.285-4.421 50.707 50.707 0 0 0-7.607-.152c-6.2.057-14.535 2.14-19.143 3.785a69.613 69.613 0 0 1-24.118 3.3l1.335 66.5c-.82 1.623-3.255-2.247-4.689-1.436-1.417.815-1.625 2.709-2.227 4.893-1.089 2.125-3.773 1.8-5.952 2.112-2.078.159-9.245-.085-9.245-.085-.2-2.838 5.5-6.489 7.567-7.3 1.32-.519 1.926-.763 3.144-1.243 1.655-1.839 4.125-4.441 4.568-7.344.611-9.811-.179-14.023-1.476-23.812-1.091-2.01-3.042-4.429-3.616-5.785-.251-.589-2.863-14.466-4.766-20.746a28.658 28.658 0 0 0-2.058-4.523c-1.981-3.293-5-5.5-7.314-7.179a32.04 32.04 0 0 1-3.258-2.811l.02-.005a26.043 26.043 0 0 1-7.8-16.123 49.696 49.696 0 0 0-10.022-22.07 18.195 18.195 0 0 0-.427-7.664c-2.115 5.907-2.184 5.9-5.348 10.318-.3-1.4-.743-3.82-1.471-6.571-2.766 2.816-6.538 6.441-8.989 7.761.264-1.255.431-2.53.5-3.81.244-2.744.773-6.389.1-10.261-1.451 2-3.154 4.018-4.563 4.675 0 0 .835-12.12-.679-14.605-6.238-6.156-12.078-3.854-12.078-3.854-.4 1.228-2.572 5.276-5.678 5.363-.723.03-.877-.358-1.213-1.247-.253-.649-1.054-3.956-1.054-3.956l-3.941 2.157c-1.62-.035-3.951-7.237-3.917-8.8.034-1.563 1.471-3.156 4.4-5.582 2.929-2.426 5.644-3.422 7.279-3.5 1.635-.078 20.91-.082 20.91-.082s3.268-3.825 7.739-3.7c.184 0 5.644.291 6.663.234 4.578-.268 11.3-6.461 15.609-12.649 2.525-3.626 4.021-8.84 4.831-12.547a72 72 0 0 0 1.4-7.918c.263-2.343 3.014-2.7 2.952.39a70.52 70.52 0 0 0 .408 12.12c1.111 6.663 5.221 5.949 11.633-.37a44.848 44.848 0 0 0 7.4-8.815c1.62-2.445 3.35-1.059 2.932.519-.594 2.256-1.757 5.219-4.428 11.484-1.586 3.718 1.837 9.389 11.4 1.069a47.08 47.08 0 0 0 8.34-9.528 1.058 1.058 0 0 1 1.747 1.146c-.524 1.762-1.349 3.671-3.874 7.649-2.525 3.978-3.429 5.281-4.167 6.295-1.4 1.938-.293 5.087 3.168 4.374 3.315-.678 7.44-3.956 9.508-6.091 1.807-1.864 3.6-1.315 1.787 1.844a59.777 59.777 0 0 1-4.15 5.964c-1.141 1.5-.164 3.191 3.111 2.778 6.737-.845 10.781-4.953 13.3-8.315 1.553-2.073 3.1-1.3 2.624.4a23.732 23.732 0 0 1-9.794 12.98c-8.815 6.066-21.948 7.368-35.627.417-12.062-6.124-24.091-2.717-27.091 2.35.832-.062 6.439-1.049 11.531-.05a30.93 30.93 0 0 1 9.165 3.258 13.397 13.397 0 0 1-4.675 3.5 25.715 25.715 0 0 1-13.815 2.51c-1.173-.092 2.734 2.826 6.354 3.442 6.223 1.061 12.05-1.938 13.536-2.679 3.777.209 8.387 2.008 12.823 4.672 6.981 4.195 10.139 11.5 14.115 13.146 13.877 5.741 24.886-.91 44.019-.91 14.449 0 24.104 12.475 26.044 15.974 1.54 2.786 3.56 7.614 2.59 8.941-.79 1.076-2.12.139-2.89-.972a12.684 12.684 0 0 0-3.39-3.169c1.91 9.406.42 16.832-2.473 25.525 1.951 9.212 3.403 17.659 8.943 26.186M863.14 46.052a2.911 2.911 0 0 1 2.609-1.92 2.92 2.92 0 0 1 2.774 1.674l.422-.167a3.09 3.09 0 0 0-.127-1.377 3.139 3.139 0 0 0-3.827-2.03 3.143 3.143 0 0 0-2.217 3.722l.366.098Z"/></g><defs><clipPath id="a"><path fill="#fff" d="M0 0h1010.28v200H0z"/></clipPath></defs></svg>