<svg id="Lager_1" xmlns="http://www.w3.org/2000/svg" viewBox="0 0 423.2 219.7"><style>.st0{fill:#ce7f10}</style><path class="st0" d="M107.6 119.9c-4.4-1.2-9.9-2.2-16.2-3-4.1-.5-7.1-1-9-1.5-1.9-.5-2.9-1.4-2.9-2.6 0-2.5 3.5-3.7 10.6-3.7 8.2 0 15.7 1.9 22.6 5.7l8.9-21.3c-4-2.1-8.8-3.7-14.5-4.8S95.6 87 89.7 87c-8.5 0-15.8 1.2-21.8 3.6-6.1 2.4-10.6 5.6-13.7 9.6-3.1 4-4.6 8.5-4.6 13.6 0 6.4 1.7 11.3 5.1 14.7 3.4 3.4 7.3 5.7 11.8 6.9 4.5 1.2 9.9 2.2 16.3 2.9 4.2.5 7.2 1 9.1 1.4 1.9.5 2.8 1.3 2.8 2.6 0 1.2-.7 2.2-2.2 2.8-1.5.6-4.1.9-7.8.9-4.7 0-9.5-.6-14.5-1.9-5-1.2-9.3-3-12.9-5.1l-8.9 21.3c4 2.3 9.3 4.1 15.7 5.6 6.5 1.4 13.1 2.1 19.7 2.1 8.7 0 16.1-1.2 22.2-3.6 6.1-2.4 10.7-5.6 13.7-9.6s4.6-8.4 4.6-13.3c0-6.4-1.7-11.3-5.1-14.7-3.2-3.3-7.1-5.7-11.6-6.9z"/><path class="st0" d="M226.8 88.4h-38.2l-22.5 22.8V70.9c3.2-2.7 6-5.7 8.2-9.2 3.9-6.2 5.8-13.1 5.8-21 0-7.8-1.9-14.8-5.8-21-3.9-6.2-9.3-10.9-16.2-14.4S143.3.2 134.6.2s-16.5 1.7-23.4 5.1c-6.9 3.4-12.3 8.2-16.2 14.4s-5.9 13.1-5.9 21c0 7.8 2 14.8 5.9 21s9.3 11 16.2 14.5c6.7 3.4 14.2 5.1 22.5 5.2v85.4H166v-18.5l5.2-5.6 19 24h39.1l-34.9-44.4 32.4-33.9zM121.9 40.7c0-4.9 1.2-8.6 3.6-11.3s5.4-4 9.2-4c3.7 0 6.8 1.3 9.2 4s3.6 6.4 3.6 11.3-1.2 8.7-3.6 11.4c-2.4 2.7-5.4 4.1-9.2 4.1-3.7 0-6.8-1.4-9.2-4.1-2.4-2.7-3.6-6.5-3.6-11.4z"/><path class="st0" d="M305.4 106.5c-3.9-6.2-9.3-10.9-16.2-14.4-6.9-3.4-14.8-5.1-23.5-5.1s-16.5 1.7-23.4 5.1c-6.9 3.4-12.3 8.2-16.2 14.4-3.9 6.2-5.9 13.1-5.9 21 0 7.8 2 14.8 5.9 21 3.9 6.2 9.3 11 16.2 14.5s14.7 5.2 23.4 5.2c8.8 0 16.6-1.7 23.5-5.2s12.3-8.3 16.2-14.5c3.9-6.2 5.8-13.1 5.8-21s-1.9-14.8-5.8-21zm-30.5 32.3c-2.4 2.7-5.4 4.1-9.2 4.1-3.7 0-6.8-1.4-9.2-4.1s-3.6-6.5-3.6-11.4 1.2-8.6 3.6-11.3c2.4-2.7 5.4-4 9.2-4 3.7 0 6.8 1.3 9.2 4 2.4 2.7 3.6 6.4 3.6 11.3-.1 4.9-1.3 8.7-3.6 11.4zM54.1 79.9h32.3V35.3c0-11.7-2.9-20.5-8.8-26.3C71.8 3.1 64 .2 54.4.2c-4.7 0-9 .8-13 2.3-4 1.5-7.5 3.8-10.6 6.9V1.7H0V80h32.3V43.2c0-5.4 1.1-9.4 3.4-11.9 2.2-2.5 5.2-3.8 8.8-3.8 6.4 0 9.6 4.5 9.6 13.5v38.9zM220.2 45.2c0-11.3 5.5-16.9 16.6-16.9 2.2 0 4.6.2 7.2.6V.2c-11.2 0-19.6 3.3-25.3 9.9V1.7h-30.8V80h32.3V45.2zM285.5 45.2c0-11.3 5.5-16.9 16.6-16.9 2.2 0 4.6.2 7.2.6V.2c-11.2 0-19.6 3.3-25.3 9.9V1.7h-30.8V80h32.3V45.2zM351.3 81.6c11 0 19.3-5.2 24.2-11.4v9.4h28.1V2h-28.1v9.6C370.5 5.4 362.2 0 351.3 0 328.4 0 311 18.2 311 40.4c0 21.3 18 41.2 40.3 41.2zm2.6-56c7.5 0 13.7 6.1 13.7 13.7S361.5 53 353.9 53c-7.5 0-13.7-6.1-13.7-13.7s6.2-13.7 13.7-13.7zM365.5 174.8c-9.7 0-15.8 1.2-21.5 3.5l5.8-11.6c4 .9 8.2 1.4 12.7 1.4 8.8 0 16.6-1.7 23.5-5.2 6.9-3.5 12.3-8.3 16.2-14.5 3.9-6.2 5.8-13.1 5.8-21 0-2-.1-4-.4-5.9l15.6-15.6-19.5-19.5-10.3 10.3c-2.2-1.7-4.6-3.3-7.3-4.7-6.9-3.4-14.8-5.1-23.5-5.1s-16.5 1.7-23.4 5.1-12.3 8.2-16.2 14.4c-3.9 6.2-5.9 13.1-5.9 21 0 7.8 2 14.8 5.9 21 .9 1.4 1.8 2.6 2.8 3.8L307 189.3l18.4 18.4c10.7-5.2 19-7.8 31.7-7.8 15.8 0 23.9 7.4 28.1 19.7l29.3-8.3c-8-24-26.2-36.5-49-36.5zm-12.1-58.6c2.4-2.7 5.4-4 9.2-4 3.7 0 6.8 1.3 9.2 4s3.6 6.4 3.6 11.3-1.2 8.7-3.6 11.4-5.4 4.1-9.2 4.1c-3.7 0-6.8-1.4-9.2-4.1s-3.6-6.5-3.6-11.4 1.2-8.7 3.6-11.3z"/></svg>