<svg xmlns="http://www.w3.org/2000/svg" fill="none" viewBox="0 0 664 181"><path fill="#096BB3" d="M30.827 11.994C48.321-1.139 73.001-3.166 93.24 4.607c.014 14.534 0 29.067 0 43.6-20.8-12.08-41.653-24.066-62.413-36.213Zm67.68-5.08c19.827 9.667 34.28 29.253 37.6 51.067-12.533 7.266-25.08 14.533-37.613 21.8 0-24.294-.014-48.574.013-72.867ZM.627 73.407c-1.813-22.026 8.054-44.346 25.174-58.213 12.56 7.253 25.106 14.533 37.666 21.813-20.946 12.147-41.88 24.294-62.84 36.4Zm374.987-13c7.466-6.093 19.053-5.64 26.106.92-1.466 1.454-2.933 2.92-4.386 4.374-4.08-3.294-9.867-4.48-14.694-2.134-8.306 4.12-8.746 17.787-.866 22.587 5.04 2.8 11.373 1.667 15.706-1.947 1.56 1.56 3.147 3.107 4.734 4.667-7.294 6.373-19.214 7.12-26.734.8-8.093-7.427-7.96-21.893.134-29.267Zm-199.453-3.36c7.307.387 14.84-.96 21.987 1 8.48 2.787 10.52 15.227 3.933 20.987-5.173 4.867-12.84 2.987-19.253 3.333v10.68h-6.667v-36Zm6.667 6.32v12.694c3.92-.04 7.866.186 11.773-.107 5.56-.973 6.467-9.747 1.32-11.92-4.213-1.307-8.747-.467-13.093-.667Zm29.333-6.32c7.52.534 15.453-1.266 22.693 1.294 9.747 3.933 8.427 20.213-2.093 22.213 3.613 4.147 7.307 8.213 10.8 12.467-2.747.04-5.507.026-8.253.026-3.32-4.053-6.734-8.026-10.16-11.986-2.107-.014-4.214-.014-6.32-.014v12h-6.667v-36Zm6.667 6.32v11.72c4.106-.16 8.306.454 12.346-.373 5.107-1.507 4.8-10.147-.48-11.146-3.933-.454-7.92-.147-11.866-.2Zm41.586-6.133c5.613-1.653 12.16-.92 16.867 2.707 9.16 7.226 9.106 22.933.213 30.346-8.093 6.494-22.147 4.467-26.947-5.146-5.453-9.72-1.44-24.6 9.867-27.907Zm1.533 5.853c-7.186 2.854-8.786 12.6-5.573 18.987 2.96 6.28 12.227 7.493 17.24 3.04 4.76-4.573 5.013-12.56 1.693-18.04-2.64-4.453-8.72-5.693-13.36-3.987Zm30.213-6.04c6.987.374 14.347-1.106 21.027 1.547 12.893 5.733 12.826 27.28-.067 32.987-6.64 2.653-14 1.026-20.96 1.466v-36Zm6.667 6.307v23.027c4.053-.254 8.466.826 12.226-1.12 7.187-4.454 6.867-17.08-.746-20.96-3.627-1.48-7.667-.814-11.48-.947Zm32-6.307h6.667c.107 7.547-.213 15.107.133 22.64.027 6.067 7.387 9.974 12.6 7.227 3.2-1.4 4.467-5.08 4.56-8.333.134-7.174-.013-14.36.04-21.534h6.667c-.013 6.68.013 13.374.013 20.054.054 4.586-1.093 9.52-4.52 12.786-5.12 4.64-13.266 4.947-19.146 1.627-4.627-2.507-6.894-7.92-6.987-12.987-.107-7.16.013-14.32-.027-21.48Zm78.667 0h26.667v6.667h-20v8.36c6.44-.013 12.893.013 19.346-.027-.04 2.107-.066 4.227-.08 6.334h-19.266v8h20v6.666h-26.667v-36Zm34.666 0h5.4c6.2 7.414 12.347 14.88 18.6 22.254V57.047h6.667v35.987l-4.04.053c-6.72-8.013-13.24-16.186-19.934-24.226-.053 8.066-.013 16.12-.026 24.186h-6.667v-36Zm38.054 0h29.226c0 1.987.014 3.987.04 5.974-3.773-.027-7.546-.014-11.32-.027-.013 10.027 0 20.04 0 30.053h-6.666V62.994c-3.787.013-7.547 0-11.32.027l.04-5.974Zm35.28 0h26.667c-.014 2.227-.014 4.44 0 6.667h-20v8.36c6.44-.013 12.893.013 19.346-.027-.04 2.107-.066 4.227-.08 6.334h-19.266v8h20a529 529 0 0 0 0 6.666h-26.667v-36Zm34.667 0c7.493.52 15.373-1.226 22.613 1.254 9.814 3.88 8.534 20.213-2 22.266 3.6 4.147 7.307 8.214 10.787 12.454-2.76.04-5.507.026-8.253.026-3.32-4.053-6.734-8.026-10.16-11.986-2.12-.014-4.227-.014-6.32-.014v12h-6.667v-36Zm6.667 6.32v11.72c4.093-.16 8.293.44 12.333-.373 5.12-1.48 4.813-10.147-.467-11.147-3.946-.44-7.92-.146-11.866-.2Zm30.666-6.32c1.787 0 3.587 0 5.4-.013 6.2 7.427 12.347 14.893 18.6 22.267V57.047h6.667v35.987c-1.014.013-3.04.027-4.054.04-6.706-8.013-13.24-16.173-19.92-24.213-.066 8.066-.013 16.12-.026 24.186h-6.667v-36Zm50.84 0c2.467 0 4.933 0 7.4.014 5.24 12.04 10.68 23.986 16.013 35.986h-7.333c-1.013-2.226-2.04-4.44-3.053-6.666h-18.747c-.987 2.226-1.987 4.426-2.973 6.64-2.454.026-4.92.026-7.347.026 5.333-12.013 10.773-23.973 16.04-36Zm-2.947 23.014c4.4.013 8.827.013 13.24 0-2.226-5.174-4.453-10.334-6.613-15.52-2.12 5.213-4.44 10.346-6.627 15.52ZM1.308 79.114c12.466-7.333 25.013-14.52 37.52-21.787-.014 25.707.013 51.427-.014 77.134-.12 12.066-2.906 24.84-11.146 34.066-6.6 7.56-16.44 11.654-26.334 12.374-.04-33.92.027-67.854-.026-101.787Zm72.612 20.973a26889.519 26889.519 0 0 1 62.854-36.413c1.774 22.04-8.066 44.373-25.226 58.213a80986.548 80986.548 0 0 1-37.627-21.8ZM44.08 88.834c20.92 12.24 42.027 24.133 62.827 36.573-18.186 12.28-42.186 15.027-62.68 7.147-.346-14.56-.053-29.147-.146-43.72Zm239.521 25.547h1.893v20h-1.893a623.093 623.093 0 0 1 0-20Zm36.186-.693c4.653 5.253 8.707 10.986 13.107 16.453-.027-5.254-.067-10.507.04-15.76h1.893c-.027 6.893.04 13.773-.027 20.666-4.786-5.226-8.84-11.066-13.306-16.546v15.88H319.6c-.026-6.894-.28-13.8.187-20.693Zm35.533 1.439c6.64-3.106 15.24 2.387 14.214 9.92.053 7.347-8.894 11.694-15.014 8.2-7.04-3.466-6.72-15.413.8-18.12Zm-.306 2.067c-6.347 3.627-3.934 15.587 3.826 15.36 5.6.947 9.92-4.867 8.627-10.08-.667-5.747-7.867-7.813-12.453-5.28Zm29.146-2.813c4.72.573 11.2-1.84 14.387 2.853 2.76 3.84-.267 9.333-4.827 9.76 2.147 2.453 4.333 4.893 6.48 7.36-.613.013-1.84.04-2.453.04-2.147-2.453-4.307-4.92-6.414-7.413-1.76-.054-3.506-.094-5.253-.147.027 2.507.013 5.027-.013 7.547h-1.907v-20Zm1.907 1.813c.04 2.96.053 5.907.053 8.867 2.827-.04 5.693.186 8.507-.28 3.506-1 3.866-6.574.653-8.147-3.013-.72-6.147-.293-9.213-.44Zm26.867-1.787c4.774.507 11.52-1.92 14.494 3.2 2.506 4.054-.787 8.574-4.92 9.56 2.24 2.454 4.506 4.894 6.466 7.587-4.44-.44-6.146-5.267-9.133-7.947-1.68.054-3.347.107-5.013.147v7.427h-1.894a668.313 668.313 0 0 1 0-19.974Zm1.894 1.84v8.814c3.853-.334 10.84 1.666 11.28-4.107.32-6.293-7.28-4.587-11.28-4.707Zm27.439-1.866h1.894c0 6.013-.014 12.04 0 18.053 3.76.707 9.12-1.786 11.626 1.8-4.506.24-9.013.147-13.52.134a669.183 669.183 0 0 1 0-19.987Zm32.96.4c.44-.214 1.334-.64 1.774-.867 2.96 7.027 6.386 13.867 9.133 20.973-2.68-.493-3.293-3.186-4.32-5.306h-11.333c-1.147 1.933-1.32 5.04-4.187 5.293 2.68-6.813 5.64-13.56 8.933-20.093Zm-4 12.92c3.28.013 6.574.013 9.854.013-1.667-3.733-3.294-7.467-4.934-11.213-1.573 3.76-3.253 7.48-4.92 11.2Zm28.547-14c4.853 5.28 9.08 11.093 13.72 16.546v-15.866h1.893c.04 6.88.254 13.76-.16 20.64-4.84-5.28-9.12-11.04-13.733-16.507-.013 5.28 0 10.573 0 15.867h-1.893c-.04-6.894-.267-13.8.173-20.68Zm30.493.693c4.654.214 10.347-1.12 14.027 2.56 4.907 4.454 3.8 13.4-2.12 16.454-3.76 1.573-7.947.826-11.907.96a627.336 627.336 0 0 1 0-19.974Zm1.907 1.907a1674.02 1674.02 0 0 0 0 16.16c3.32-.213 7.054.627 10.014-1.347 4.36-3.013 4.426-10.373.08-13.413-2.96-2.04-6.734-1.2-10.094-1.4Z"/></svg>