<svg width="665" height="181" viewBox="0 0 665 181" fill="none" xmlns="http://www.w3.org/2000/svg">
<path d="M31.1885 11.9941C48.6818 -1.13924 73.3618 -3.16591 93.6018 4.60742C93.6151 19.1408 93.6018 33.6741 93.6018 48.2074C72.8018 36.1274 51.9485 24.1408 31.1885 11.9941Z" fill="black"/>
<path d="M98.8682 6.91406C118.695 16.5807 133.148 36.1674 136.468 57.9807C123.935 65.2474 111.388 72.5141 98.8549 79.7807C98.8549 55.4874 98.8416 31.2074 98.8682 6.91406Z" fill="black"/>
<path d="M0.98865 73.4074C-0.824684 51.3808 9.04198 29.0608 26.162 15.1941C38.722 22.4474 51.2687 29.7274 63.8287 37.0074C42.882 49.1541 21.9487 61.3008 0.98865 73.4074Z" fill="black"/>
<path d="M375.975 60.4074C383.442 54.314 395.028 54.7674 402.082 61.3274C400.615 62.7807 399.148 64.2474 397.695 65.7007C393.615 62.4074 387.828 61.2207 383.002 63.5674C374.695 67.6874 374.255 81.354 382.135 86.154C387.175 88.954 393.508 87.8207 397.842 84.2074C399.402 85.7674 400.988 87.314 402.575 88.874C395.282 95.2474 383.362 95.994 375.842 89.674C367.748 82.2474 367.882 67.7807 375.975 60.4074Z" fill="black"/>
<path d="M176.522 57.0474C183.829 57.4341 191.362 56.0874 198.509 58.0474C206.989 60.8341 209.029 73.2741 202.442 79.0341C197.269 83.9008 189.602 82.0208 183.189 82.3674C183.189 85.9274 183.189 89.4874 183.189 93.0474C180.962 93.0474 178.736 93.0474 176.522 93.0474C176.522 81.0474 176.522 69.0474 176.522 57.0474ZM183.189 63.3674C183.189 67.5941 183.189 71.8341 183.189 76.0607C187.109 76.0207 191.056 76.2474 194.962 75.9541C200.522 74.9807 201.429 66.2074 196.282 64.0341C192.069 62.7274 187.536 63.5674 183.189 63.3674Z" fill="black"/>
<path d="M212.522 57.0475C220.042 57.5809 227.976 55.7809 235.216 58.3409C244.962 62.2742 243.642 78.5542 233.122 80.5542C236.736 84.7009 240.429 88.7675 243.922 93.0209C241.176 93.0609 238.416 93.0475 235.669 93.0475C232.349 88.9942 228.936 85.0209 225.509 81.0609C223.402 81.0475 221.296 81.0475 219.189 81.0475C219.189 85.0475 219.189 89.0475 219.189 93.0475C216.962 93.0475 214.736 93.0475 212.522 93.0475C212.522 81.0475 212.522 69.0475 212.522 57.0475ZM219.189 63.3675C219.189 67.2742 219.189 71.1809 219.189 75.0875C223.296 74.9275 227.496 75.5409 231.536 74.7142C236.642 73.2075 236.336 64.5675 231.056 63.5675C227.122 63.1142 223.136 63.4209 219.189 63.3675Z" fill="black"/>
<path d="M260.775 57.234C266.389 55.5807 272.935 56.314 277.642 59.9407C286.802 67.1674 286.749 82.874 277.855 90.2874C269.762 96.7807 255.709 94.754 250.909 85.1407C245.455 75.4207 249.469 60.5407 260.775 57.234ZM262.309 63.0874C255.122 65.9407 253.522 75.6874 256.735 82.074C259.695 88.354 268.962 89.5674 273.975 85.114C278.735 80.5407 278.989 72.554 275.669 67.074C273.029 62.6207 266.949 61.3807 262.309 63.0874Z" fill="black"/>
<path d="M292.521 57.0474C299.508 57.4208 306.868 55.9408 313.548 58.5941C326.441 64.3274 326.375 85.8741 313.481 91.5808C306.841 94.2341 299.481 92.6074 292.521 93.0474C292.521 81.0474 292.521 69.0474 292.521 57.0474ZM299.188 63.3541C299.188 71.0208 299.188 78.7008 299.188 86.3808C303.241 86.1274 307.655 87.2074 311.415 85.2608C318.601 80.8074 318.281 68.1808 310.668 64.3008C307.041 62.8208 303.001 63.4874 299.188 63.3541Z" fill="black"/>
<path d="M331.189 57.0474C333.402 57.0474 335.629 57.0474 337.855 57.0474C337.962 64.594 337.642 72.154 337.989 79.6874C338.015 85.754 345.375 89.6607 350.589 86.914C353.789 85.514 355.055 81.834 355.149 78.5807C355.282 71.4074 355.135 64.2207 355.189 57.0474C357.402 57.0474 359.629 57.0474 361.855 57.0474C361.842 63.7274 361.869 70.4207 361.869 77.1007C361.922 81.6874 360.775 86.6207 357.349 89.8874C352.229 94.5274 344.082 94.834 338.202 91.514C333.575 89.0074 331.309 83.594 331.215 78.5274C331.109 71.3674 331.229 64.2074 331.189 57.0474Z" fill="black"/>
<path d="M409.855 57.0474C418.749 57.0474 427.629 57.0474 436.522 57.0474C436.522 59.274 436.522 61.4874 436.522 63.714C429.855 63.714 423.189 63.714 416.522 63.714C416.522 66.5007 416.522 69.2874 416.522 72.074C422.962 72.0607 429.415 72.0874 435.869 72.0474C435.829 74.154 435.802 76.274 435.789 78.3807C429.362 78.3807 422.949 78.3807 416.522 78.3807C416.522 81.0474 416.522 83.714 416.522 86.3807C423.189 86.3807 429.855 86.3807 436.522 86.3807C436.522 88.6074 436.522 90.8207 436.522 93.0474C427.629 93.0474 418.749 93.0474 409.855 93.0474C409.855 81.0474 409.855 69.0474 409.855 57.0474Z" fill="black"/>
<path d="M444.521 57.0474C446.321 57.0474 448.121 57.0474 449.921 57.0474C456.121 64.4607 462.268 71.9274 468.521 79.3007C468.521 71.8874 468.521 64.4607 468.521 57.0474C470.735 57.0474 472.961 57.0474 475.188 57.0474C475.188 69.0474 475.188 81.034 475.188 93.034C474.175 93.0474 472.161 93.074 471.148 93.0874C464.428 85.074 457.908 76.9007 451.215 68.8607C451.161 76.9274 451.201 84.9807 451.188 93.0474C448.961 93.0474 446.735 93.0474 444.521 93.0474C444.521 81.0474 444.521 69.0474 444.521 57.0474Z" fill="black"/>
<path d="M482.575 57.0474C492.322 57.0474 502.055 57.0474 511.802 57.0474C511.802 59.034 511.815 61.034 511.842 63.0207C508.068 62.994 504.295 63.0074 500.522 62.994C500.508 73.0207 500.522 83.034 500.522 93.0474C498.295 93.0474 496.068 93.0474 493.855 93.0474C493.855 83.034 493.855 73.0207 493.855 62.994C490.068 63.0074 486.308 62.994 482.535 63.0207C482.548 61.034 482.562 59.034 482.575 57.0474Z" fill="black"/>
<path d="M517.855 57.0474C526.749 57.0474 535.629 57.0474 544.522 57.0474C544.509 59.274 544.509 61.4874 544.522 63.714C537.855 63.714 531.189 63.714 524.522 63.714C524.522 66.5007 524.522 69.2874 524.522 72.074C530.962 72.0607 537.415 72.0874 543.869 72.0474C543.829 74.154 543.802 76.274 543.789 78.3807C537.362 78.3807 530.949 78.3807 524.522 78.3807C524.522 81.0474 524.522 83.714 524.522 86.3807C531.189 86.3807 537.855 86.3807 544.522 86.3807C544.509 88.6074 544.509 90.8207 544.522 93.0474C535.629 93.0474 526.749 93.0474 517.855 93.0474C517.855 81.0474 517.855 69.0474 517.855 57.0474Z" fill="black"/>
<path d="M552.522 57.0474C560.016 57.5674 567.896 55.8208 575.136 58.3008C584.949 62.1808 583.669 78.5141 573.136 80.5674C576.736 84.7141 580.442 88.7808 583.922 93.0208C581.162 93.0608 578.416 93.0474 575.669 93.0474C572.349 88.9941 568.936 85.0208 565.509 81.0608C563.389 81.0474 561.282 81.0474 559.189 81.0474C559.189 85.0474 559.189 89.0474 559.189 93.0474C556.962 93.0474 554.736 93.0474 552.522 93.0474C552.522 81.0474 552.522 69.0474 552.522 57.0474ZM559.189 63.3674C559.189 67.2741 559.189 71.1808 559.189 75.0874C563.282 74.9274 567.482 75.5274 571.522 74.7141C576.642 73.2341 576.336 64.5674 571.056 63.5674C567.109 63.1274 563.136 63.4208 559.189 63.3674Z" fill="black"/>
<path d="M589.855 57.0475C591.642 57.0475 593.442 57.0475 595.255 57.0342C601.455 64.4608 607.602 71.9275 613.855 79.3008C613.855 71.8875 613.855 64.4608 613.855 57.0475C616.069 57.0475 618.295 57.0475 620.522 57.0475C620.522 69.0475 620.522 81.0342 620.522 93.0342C619.509 93.0475 617.482 93.0608 616.469 93.0742C609.762 85.0608 603.229 76.9008 596.549 68.8608C596.482 76.9275 596.535 84.9808 596.522 93.0475C594.295 93.0475 592.069 93.0475 589.855 93.0475C589.855 81.0475 589.855 69.0475 589.855 57.0475Z" fill="black"/>
<path d="M640.695 57.0474C643.162 57.0474 645.629 57.0474 648.095 57.0607C653.335 69.1007 658.775 81.0474 664.109 93.0474C661.642 93.0474 659.215 93.0474 656.775 93.0474C655.762 90.8207 654.735 88.6074 653.722 86.3807C647.469 86.3807 641.215 86.3807 634.975 86.3807C633.989 88.6074 632.989 90.8074 632.002 93.0207C629.549 93.0474 627.082 93.0474 624.655 93.0474C629.989 81.034 635.429 69.074 640.695 57.0474ZM637.749 80.0607C642.149 80.074 646.575 80.074 650.989 80.0607C648.762 74.8874 646.535 69.7274 644.375 64.5407C642.255 69.754 639.935 74.8874 637.749 80.0607Z" fill="black"/>
<path d="M1.66895 79.1141C14.1356 71.7807 26.6823 64.5941 39.1889 57.3274C39.1756 83.0341 39.2023 108.754 39.1756 134.461C39.0556 146.527 36.2689 159.301 28.0289 168.527C21.4289 176.087 11.5889 180.181 1.69561 180.901C1.65561 146.981 1.72228 113.047 1.66895 79.1141Z" fill="black"/>
<path d="M74.2822 100.087C95.2156 87.9274 116.162 75.7807 137.136 63.6741C138.909 85.7141 129.069 108.047 111.909 121.887C99.3622 114.621 86.8156 107.354 74.2822 100.087Z" fill="black"/>
<path d="M44.4419 88.834C65.3619 101.074 86.4686 112.967 107.269 125.407C89.0819 137.687 65.0819 140.434 44.5886 132.554C44.2419 117.994 44.5352 103.407 44.4419 88.834Z" fill="black"/>
<path d="M283.962 114.381H285.855C285.855 121.048 285.855 127.714 285.855 134.381H283.962C283.855 127.714 283.855 121.048 283.962 114.381Z" fill="black"/>
<path d="M320.148 113.688C324.802 118.941 328.855 124.674 333.255 130.141C333.228 124.887 333.188 119.634 333.295 114.381H335.188C335.162 121.274 335.228 128.154 335.162 135.047C330.375 129.821 326.322 123.981 321.855 118.501C321.855 123.794 321.855 129.087 321.855 134.381H319.962C319.935 127.487 319.682 120.581 320.148 113.688Z" fill="black"/>
<path d="M355.682 115.127C362.322 112.021 370.922 117.514 369.895 125.047C369.948 132.394 361.002 136.741 354.882 133.247C347.842 129.781 348.162 117.834 355.682 115.127ZM355.375 117.194C349.028 120.821 351.442 132.781 359.202 132.554C364.802 133.501 369.122 127.687 367.828 122.474C367.162 116.727 359.962 114.661 355.375 117.194Z" fill="black"/>
<path d="M384.521 114.381C389.241 114.954 395.721 112.541 398.908 117.234C401.668 121.074 398.642 126.567 394.082 126.994C396.228 129.447 398.415 131.887 400.561 134.354C399.948 134.367 398.721 134.394 398.108 134.394C395.961 131.941 393.801 129.474 391.695 126.981C389.935 126.927 388.188 126.887 386.441 126.834C386.468 129.341 386.455 131.861 386.428 134.381H384.521C384.521 127.714 384.521 121.047 384.521 114.381ZM386.428 116.194C386.468 119.154 386.481 122.101 386.481 125.061C389.308 125.021 392.175 125.247 394.988 124.781C398.495 123.781 398.855 118.207 395.641 116.634C392.628 115.914 389.495 116.341 386.428 116.194Z" fill="black"/>
<path d="M413.296 114.407C418.069 114.914 424.816 112.487 427.789 117.607C430.296 121.661 427.002 126.181 422.869 127.167C425.109 129.621 427.376 132.061 429.336 134.754C424.896 134.314 423.189 129.487 420.202 126.807C418.522 126.861 416.856 126.914 415.189 126.954C415.189 129.421 415.189 131.901 415.189 134.381H413.296C413.189 127.727 413.202 121.061 413.296 114.407ZM415.189 116.247C415.189 119.181 415.189 122.114 415.189 125.061C419.042 124.727 426.029 126.727 426.469 120.954C426.789 114.661 419.189 116.367 415.189 116.247Z" fill="black"/>
<path d="M442.629 114.381H444.522C444.522 120.394 444.509 126.421 444.522 132.434C448.282 133.141 453.642 130.648 456.149 134.234C451.642 134.474 447.135 134.381 442.629 134.368C442.535 127.701 442.522 121.034 442.629 114.381Z" fill="black"/>
<path d="M475.589 114.781C476.029 114.567 476.922 114.141 477.362 113.914C480.322 120.941 483.749 127.781 486.495 134.887C483.815 134.394 483.202 131.701 482.175 129.581C478.389 129.581 474.615 129.581 470.842 129.581C469.695 131.514 469.522 134.621 466.655 134.874C469.335 128.061 472.295 121.314 475.589 114.781ZM471.589 127.701C474.869 127.714 478.162 127.714 481.442 127.714C479.775 123.981 478.149 120.247 476.509 116.501C474.935 120.261 473.255 123.981 471.589 127.701Z" fill="black"/>
<path d="M500.135 113.701C504.989 118.981 509.215 124.794 513.855 130.247C513.855 124.967 513.855 119.674 513.855 114.381H515.749C515.789 121.261 516.002 128.141 515.589 135.021C510.749 129.741 506.469 123.981 501.855 118.514C501.842 123.794 501.855 129.087 501.855 134.381H499.962C499.922 127.487 499.695 120.581 500.135 113.701Z" fill="black"/>
<path d="M530.629 114.394C535.282 114.608 540.976 113.274 544.656 116.954C549.562 121.408 548.456 130.354 542.536 133.408C538.776 134.981 534.589 134.234 530.629 134.368C530.522 127.714 530.522 121.048 530.629 114.394ZM532.536 116.301C532.509 121.688 532.509 127.074 532.536 132.461C535.856 132.248 539.589 133.088 542.549 131.114C546.909 128.101 546.975 120.741 542.629 117.701C539.669 115.661 535.896 116.501 532.536 116.301Z" fill="black"/>
</svg>
