<svg width="664" height="181" viewBox="0 0 664 181" fill="none" xmlns="http://www.w3.org/2000/svg">
<path d="M30.5215 11.9941C48.0148 -1.13924 72.6948 -3.16591 92.9348 4.60742C92.9481 19.1408 92.9348 33.6741 92.9348 48.2074C72.1348 36.1274 51.2815 24.1408 30.5215 11.9941Z" fill="white"/>
<path d="M98.2012 6.91406C118.028 16.5807 132.481 36.1674 135.801 57.9807C123.268 65.2474 110.721 72.5141 98.1879 79.7807C98.1879 55.4874 98.1746 31.2074 98.2012 6.91406Z" fill="white"/>
<path d="M0.321658 73.4074C-1.49168 51.3808 8.37499 29.0608 25.495 15.1941C38.055 22.4474 50.6017 29.7274 63.1617 37.0074C42.215 49.1541 21.2817 61.3008 0.321658 73.4074Z" fill="white"/>
<path d="M375.308 60.4074C382.775 54.314 394.361 54.7674 401.415 61.3274C399.948 62.7807 398.481 64.2474 397.028 65.7007C392.948 62.4074 387.161 61.2207 382.335 63.5674C374.028 67.6874 373.588 81.354 381.468 86.154C386.508 88.954 392.841 87.8207 397.175 84.2074C398.735 85.7674 400.321 87.314 401.908 88.874C394.615 95.2474 382.695 95.994 375.175 89.674C367.081 82.2474 367.215 67.7807 375.308 60.4074Z" fill="white"/>
<path d="M175.855 57.0474C183.162 57.4341 190.695 56.0874 197.842 58.0474C206.322 60.8341 208.362 73.2741 201.775 79.0341C196.602 83.9008 188.935 82.0208 182.522 82.3674C182.522 85.9274 182.522 89.4874 182.522 93.0474C180.295 93.0474 178.069 93.0474 175.855 93.0474C175.855 81.0474 175.855 69.0474 175.855 57.0474ZM182.522 63.3674C182.522 67.5941 182.522 71.8341 182.522 76.0607C186.442 76.0207 190.389 76.2474 194.295 75.9541C199.855 74.9807 200.762 66.2074 195.615 64.0341C191.402 62.7274 186.869 63.5674 182.522 63.3674Z" fill="white"/>
<path d="M211.855 57.0475C219.375 57.5809 227.309 55.7809 234.549 58.3409C244.295 62.2742 242.975 78.5542 232.455 80.5542C236.069 84.7009 239.762 88.7675 243.255 93.0209C240.509 93.0609 237.749 93.0475 235.002 93.0475C231.682 88.9942 228.269 85.0209 224.842 81.0609C222.735 81.0475 220.629 81.0475 218.522 81.0475C218.522 85.0475 218.522 89.0475 218.522 93.0475C216.295 93.0475 214.069 93.0475 211.855 93.0475C211.855 81.0475 211.855 69.0475 211.855 57.0475ZM218.522 63.3675C218.522 67.2742 218.522 71.1809 218.522 75.0875C222.629 74.9275 226.829 75.5409 230.869 74.7142C235.975 73.2075 235.669 64.5675 230.389 63.5675C226.455 63.1142 222.469 63.4209 218.522 63.3675Z" fill="white"/>
<path d="M260.108 57.234C265.722 55.5807 272.268 56.314 276.975 59.9407C286.135 67.1674 286.082 82.874 277.188 90.2874C269.095 96.7807 255.042 94.754 250.242 85.1407C244.788 75.4207 248.802 60.5407 260.108 57.234ZM261.642 63.0874C254.455 65.9407 252.855 75.6874 256.068 82.074C259.028 88.354 268.295 89.5674 273.308 85.114C278.068 80.5407 278.322 72.554 275.002 67.074C272.362 62.6207 266.282 61.3807 261.642 63.0874Z" fill="white"/>
<path d="M291.855 57.0474C298.842 57.4208 306.202 55.9408 312.882 58.5941C325.775 64.3274 325.709 85.8741 312.815 91.5808C306.175 94.2341 298.815 92.6074 291.855 93.0474C291.855 81.0474 291.855 69.0474 291.855 57.0474ZM298.522 63.3541C298.522 71.0208 298.522 78.7008 298.522 86.3808C302.575 86.1274 306.989 87.2074 310.749 85.2608C317.935 80.8074 317.615 68.1808 310.002 64.3008C306.375 62.8208 302.335 63.4874 298.522 63.3541Z" fill="white"/>
<path d="M330.522 57.0474C332.735 57.0474 334.962 57.0474 337.188 57.0474C337.295 64.594 336.975 72.154 337.322 79.6874C337.348 85.754 344.708 89.6607 349.922 86.914C353.122 85.514 354.388 81.834 354.482 78.5807C354.615 71.4074 354.468 64.2207 354.522 57.0474C356.735 57.0474 358.962 57.0474 361.188 57.0474C361.175 63.7274 361.202 70.4207 361.202 77.1007C361.255 81.6874 360.108 86.6207 356.682 89.8874C351.562 94.5274 343.415 94.834 337.535 91.514C332.908 89.0074 330.642 83.594 330.548 78.5274C330.442 71.3674 330.562 64.2074 330.522 57.0474Z" fill="white"/>
<path d="M409.188 57.0474C418.082 57.0474 426.962 57.0474 435.855 57.0474C435.855 59.274 435.855 61.4874 435.855 63.714C429.188 63.714 422.522 63.714 415.855 63.714C415.855 66.5007 415.855 69.2874 415.855 72.074C422.295 72.0607 428.748 72.0874 435.202 72.0474C435.162 74.154 435.135 76.274 435.122 78.3807C428.695 78.3807 422.282 78.3807 415.855 78.3807C415.855 81.0474 415.855 83.714 415.855 86.3807C422.522 86.3807 429.188 86.3807 435.855 86.3807C435.855 88.6074 435.855 90.8207 435.855 93.0474C426.962 93.0474 418.082 93.0474 409.188 93.0474C409.188 81.0474 409.188 69.0474 409.188 57.0474Z" fill="white"/>
<path d="M443.855 57.0474C445.655 57.0474 447.455 57.0474 449.255 57.0474C455.455 64.4607 461.602 71.9274 467.855 79.3007C467.855 71.8874 467.855 64.4607 467.855 57.0474C470.069 57.0474 472.295 57.0474 474.522 57.0474C474.522 69.0474 474.522 81.034 474.522 93.034C473.509 93.0474 471.495 93.074 470.482 93.0874C463.762 85.074 457.242 76.9007 450.549 68.8607C450.495 76.9274 450.535 84.9807 450.522 93.0474C448.295 93.0474 446.069 93.0474 443.855 93.0474C443.855 81.0474 443.855 69.0474 443.855 57.0474Z" fill="white"/>
<path d="M481.908 57.0474C491.655 57.0474 501.388 57.0474 511.135 57.0474C511.135 59.034 511.148 61.034 511.175 63.0207C507.401 62.994 503.628 63.0074 499.855 62.994C499.841 73.0207 499.855 83.034 499.855 93.0474C497.628 93.0474 495.401 93.0474 493.188 93.0474C493.188 83.034 493.188 73.0207 493.188 62.994C489.401 63.0074 485.641 62.994 481.868 63.0207C481.881 61.034 481.895 59.034 481.908 57.0474Z" fill="white"/>
<path d="M517.188 57.0474C526.082 57.0474 534.962 57.0474 543.855 57.0474C543.842 59.274 543.842 61.4874 543.855 63.714C537.188 63.714 530.522 63.714 523.855 63.714C523.855 66.5007 523.855 69.2874 523.855 72.074C530.295 72.0607 536.748 72.0874 543.202 72.0474C543.162 74.154 543.135 76.274 543.122 78.3807C536.695 78.3807 530.282 78.3807 523.855 78.3807C523.855 81.0474 523.855 83.714 523.855 86.3807C530.522 86.3807 537.188 86.3807 543.855 86.3807C543.842 88.6074 543.842 90.8207 543.855 93.0474C534.962 93.0474 526.082 93.0474 517.188 93.0474C517.188 81.0474 517.188 69.0474 517.188 57.0474Z" fill="white"/>
<path d="M551.855 57.0474C559.349 57.5674 567.229 55.8208 574.469 58.3008C584.282 62.1808 583.002 78.5141 572.469 80.5674C576.069 84.7141 579.775 88.7808 583.255 93.0208C580.495 93.0608 577.749 93.0474 575.002 93.0474C571.682 88.9941 568.269 85.0208 564.842 81.0608C562.722 81.0474 560.615 81.0474 558.522 81.0474C558.522 85.0474 558.522 89.0474 558.522 93.0474C556.295 93.0474 554.069 93.0474 551.855 93.0474C551.855 81.0474 551.855 69.0474 551.855 57.0474ZM558.522 63.3674C558.522 67.2741 558.522 71.1808 558.522 75.0874C562.615 74.9274 566.815 75.5274 570.855 74.7141C575.975 73.2341 575.669 64.5674 570.389 63.5674C566.442 63.1274 562.469 63.4208 558.522 63.3674Z" fill="white"/>
<path d="M589.188 57.0475C590.975 57.0475 592.775 57.0475 594.588 57.0342C600.788 64.4608 606.935 71.9275 613.188 79.3008C613.188 71.8875 613.188 64.4608 613.188 57.0475C615.402 57.0475 617.628 57.0475 619.855 57.0475C619.855 69.0475 619.855 81.0342 619.855 93.0342C618.842 93.0475 616.815 93.0608 615.802 93.0742C609.095 85.0608 602.562 76.9008 595.882 68.8608C595.815 76.9275 595.868 84.9808 595.855 93.0475C593.628 93.0475 591.402 93.0475 589.188 93.0475C589.188 81.0475 589.188 69.0475 589.188 57.0475Z" fill="white"/>
<path d="M640.028 57.0474C642.495 57.0474 644.962 57.0474 647.428 57.0607C652.668 69.1007 658.108 81.0474 663.442 93.0474C660.975 93.0474 658.548 93.0474 656.108 93.0474C655.095 90.8207 654.068 88.6074 653.055 86.3807C646.802 86.3807 640.548 86.3807 634.308 86.3807C633.322 88.6074 632.322 90.8074 631.335 93.0207C628.882 93.0474 626.415 93.0474 623.988 93.0474C629.322 81.034 634.762 69.074 640.028 57.0474ZM637.082 80.0607C641.482 80.074 645.908 80.074 650.322 80.0607C648.095 74.8874 645.868 69.7274 643.708 64.5407C641.588 69.754 639.268 74.8874 637.082 80.0607Z" fill="white"/>
<path d="M1.00195 79.1141C13.4686 71.7807 26.0153 64.5941 38.522 57.3274C38.5086 83.0341 38.5353 108.754 38.5086 134.461C38.3886 146.527 35.602 159.301 27.362 168.527C20.762 176.087 10.922 180.181 1.02862 180.901C0.98862 146.981 1.05529 113.047 1.00195 79.1141Z" fill="white"/>
<path d="M73.6152 100.087C94.5486 87.9274 115.495 75.7807 136.469 63.6741C138.242 85.7141 128.402 108.047 111.242 121.887C98.6952 114.621 86.1486 107.354 73.6152 100.087Z" fill="white"/>
<path d="M43.7749 88.834C64.6949 101.074 85.8016 112.967 106.602 125.407C88.4149 137.687 64.4149 140.434 43.9216 132.554C43.5749 117.994 43.8682 103.407 43.7749 88.834Z" fill="white"/>
<path d="M283.295 114.381H285.188C285.188 121.048 285.188 127.714 285.188 134.381H283.295C283.188 127.714 283.188 121.048 283.295 114.381Z" fill="white"/>
<path d="M319.481 113.688C324.135 118.941 328.188 124.674 332.588 130.141C332.561 124.887 332.521 119.634 332.628 114.381H334.521C334.495 121.274 334.561 128.154 334.495 135.047C329.708 129.821 325.655 123.981 321.188 118.501C321.188 123.794 321.188 129.087 321.188 134.381H319.295C319.268 127.487 319.015 120.581 319.481 113.688Z" fill="white"/>
<path d="M355.015 115.127C361.655 112.021 370.255 117.514 369.228 125.047C369.281 132.394 360.335 136.741 354.215 133.247C347.175 129.781 347.495 117.834 355.015 115.127ZM354.708 117.194C348.361 120.821 350.775 132.781 358.535 132.554C364.135 133.501 368.455 127.687 367.161 122.474C366.495 116.727 359.295 114.661 354.708 117.194Z" fill="white"/>
<path d="M383.855 114.381C388.575 114.954 395.055 112.541 398.242 117.234C401.002 121.074 397.975 126.567 393.415 126.994C395.562 129.447 397.749 131.887 399.895 134.354C399.282 134.367 398.055 134.394 397.442 134.394C395.295 131.941 393.135 129.474 391.029 126.981C389.269 126.927 387.522 126.887 385.775 126.834C385.802 129.341 385.789 131.861 385.762 134.381H383.855C383.855 127.714 383.855 121.047 383.855 114.381ZM385.762 116.194C385.802 119.154 385.815 122.101 385.815 125.061C388.642 125.021 391.509 125.247 394.322 124.781C397.829 123.781 398.189 118.207 394.975 116.634C391.962 115.914 388.829 116.341 385.762 116.194Z" fill="white"/>
<path d="M412.628 114.407C417.401 114.914 424.148 112.487 427.121 117.607C429.628 121.661 426.335 126.181 422.201 127.167C424.441 129.621 426.708 132.061 428.668 134.754C424.228 134.314 422.521 129.487 419.535 126.807C417.855 126.861 416.188 126.914 414.521 126.954C414.521 129.421 414.521 131.901 414.521 134.381H412.628C412.521 127.727 412.534 121.061 412.628 114.407ZM414.521 116.247C414.521 119.181 414.521 122.114 414.521 125.061C418.375 124.727 425.361 126.727 425.801 120.954C426.121 114.661 418.521 116.367 414.521 116.247Z" fill="white"/>
<path d="M441.962 114.381H443.855C443.855 120.394 443.842 126.421 443.855 132.434C447.615 133.141 452.975 130.648 455.482 134.234C450.975 134.474 446.468 134.381 441.962 134.368C441.868 127.701 441.855 121.034 441.962 114.381Z" fill="white"/>
<path d="M474.922 114.781C475.362 114.567 476.255 114.141 476.695 113.914C479.655 120.941 483.082 127.781 485.828 134.887C483.148 134.394 482.535 131.701 481.508 129.581C477.722 129.581 473.948 129.581 470.175 129.581C469.028 131.514 468.855 134.621 465.988 134.874C468.668 128.061 471.628 121.314 474.922 114.781ZM470.922 127.701C474.202 127.714 477.495 127.714 480.775 127.714C479.108 123.981 477.482 120.247 475.842 116.501C474.268 120.261 472.588 123.981 470.922 127.701Z" fill="white"/>
<path d="M499.468 113.701C504.322 118.981 508.548 124.794 513.188 130.247C513.188 124.967 513.188 119.674 513.188 114.381H515.082C515.122 121.261 515.335 128.141 514.922 135.021C510.082 129.741 505.802 123.981 501.188 118.514C501.175 123.794 501.188 129.087 501.188 134.381H499.295C499.255 127.487 499.028 120.581 499.468 113.701Z" fill="white"/>
<path d="M529.962 114.394C534.615 114.608 540.309 113.274 543.989 116.954C548.895 121.408 547.789 130.354 541.869 133.408C538.109 134.981 533.922 134.234 529.962 134.368C529.855 127.714 529.855 121.048 529.962 114.394ZM531.869 116.301C531.842 121.688 531.842 127.074 531.869 132.461C535.189 132.248 538.922 133.088 541.882 131.114C546.242 128.101 546.309 120.741 541.962 117.701C539.002 115.661 535.229 116.501 531.869 116.301Z" fill="white"/>
</svg>
