<svg xmlns="http://www.w3.org/2000/svg" fill="none" viewBox="0 0 664 181"><path fill="#000" d="M30.413 11.933C47.907-1.201 72.587-3.227 92.827 4.546c.013 14.533 0 29.067 0 43.6-20.8-12.08-41.654-24.067-62.414-36.213ZM98.093 6.853c19.827 9.666 34.28 29.253 37.6 51.066-12.533 7.267-25.08 14.534-37.613 21.8 0-24.293-.013-48.573.013-72.866ZM.213 73.346C-1.6 51.319 8.267 28.999 25.387 15.133c12.56 7.253 25.106 14.533 37.666 21.813-20.946 12.147-41.88 24.293-62.84 36.4ZM375.2 60.346c7.467-6.093 19.053-5.64 26.107.92-1.467 1.453-2.934 2.92-4.387 4.373-4.08-3.293-9.867-4.48-14.693-2.133-8.307 4.12-8.747 17.787-.867 22.587 5.04 2.8 11.373 1.666 15.707-1.947 1.56 1.56 3.146 3.107 4.733 4.667-7.293 6.373-19.213 7.12-26.733.8-8.094-7.427-7.96-21.894.133-29.267ZM175.747 56.986c7.306.387 14.84-.96 21.986 1 8.48 2.787 10.52 15.227 3.934 20.987-5.174 4.866-12.84 2.986-19.254 3.333v10.68h-6.666v-36Zm6.666 6.32v12.693c3.92-.04 7.867.187 11.774-.106 5.56-.974 6.466-9.747 1.32-11.92-4.214-1.307-8.747-.467-13.094-.667ZM211.747 56.986c7.52.533 15.453-1.267 22.693 1.293 9.747 3.933 8.427 20.214-2.093 22.214 3.613 4.146 7.306 8.213 10.8 12.466-2.747.04-5.507.027-8.254.027-3.32-4.053-6.733-8.027-10.16-11.987-2.106-.013-4.213-.013-6.32-.013v12h-6.666v-36Zm6.666 6.32v11.72c4.107-.16 8.307.453 12.347-.373 5.107-1.507 4.8-10.147-.48-11.147-3.933-.453-7.92-.147-11.867-.2ZM260 57.172c5.613-1.653 12.16-.92 16.867 2.707 9.16 7.227 9.106 22.934.213 30.347-8.093 6.493-22.147 4.466-26.947-5.147-5.453-9.72-1.44-24.6 9.867-27.906Zm1.533 5.854c-7.186 2.853-8.786 12.6-5.573 18.986 2.96 6.28 12.227 7.494 17.24 3.04 4.76-4.573 5.013-12.56 1.693-18.04-2.64-4.453-8.72-5.693-13.36-3.986ZM291.747 56.986c6.986.373 14.346-1.107 21.026 1.547 12.894 5.733 12.827 27.28-.066 32.986-6.64 2.654-14 1.027-20.96 1.467v-36Zm6.666 6.307v23.026c4.054-.253 8.467.827 12.227-1.12 7.187-4.453 6.867-17.08-.747-20.96-3.626-1.48-7.666-.813-11.48-.946ZM330.413 56.986h6.667c.107 7.547-.213 15.107.133 22.64.027 6.067 7.387 9.973 12.6 7.227 3.2-1.4 4.467-5.08 4.56-8.334.134-7.173-.013-14.36.04-21.533h6.667c-.013 6.68.013 13.373.013 20.053.054 4.587-1.093 9.52-4.52 12.787-5.12 4.64-13.266 4.947-19.146 1.627-4.627-2.507-6.894-7.92-6.987-12.987-.107-7.16.013-14.32-.027-21.48ZM409.08 56.986h26.667v6.667h-20v8.36c6.44-.014 12.893.013 19.346-.027-.04 2.107-.066 4.227-.08 6.333h-19.266v8h20v6.667H409.08v-36ZM443.747 56.986h5.4c6.2 7.413 12.346 14.88 18.6 22.253V56.986h6.666v35.987l-4.04.053c-6.72-8.013-13.24-16.187-19.933-24.227-.053 8.067-.013 16.12-.027 24.187h-6.666v-36ZM481.8 56.986h29.227c0 1.987.013 3.987.04 5.973-3.774-.026-7.547-.013-11.32-.026-.014 10.026 0 20.04 0 30.053h-6.667V62.933c-3.787.013-7.547 0-11.32.026l.04-5.973ZM517.08 56.986h26.667c-.014 2.227-.014 4.44 0 6.667h-20v8.36c6.44-.014 12.893.013 19.346-.027-.04 2.107-.066 4.227-.08 6.333h-19.266v8h20c-.014 2.227-.014 4.44 0 6.667H517.08v-36ZM551.747 56.986c7.493.52 15.373-1.227 22.613 1.253 9.813 3.88 8.533 20.214-2 22.267 3.6 4.147 7.307 8.213 10.787 12.453-2.76.04-5.507.027-8.254.027-3.32-4.053-6.733-8.027-10.16-11.987-2.12-.013-4.226-.013-6.32-.013v12h-6.666v-36Zm6.666 6.32v11.72c4.094-.16 8.294.44 12.334-.373 5.12-1.48 4.813-10.147-.467-11.147-3.947-.44-7.92-.147-11.867-.2ZM589.08 56.986c1.787 0 3.587 0 5.4-.014 6.2 7.427 12.347 14.894 18.6 22.267V56.986h6.667v35.986c-1.014.014-3.04.027-4.054.04-6.706-8.013-13.24-16.173-19.92-24.213-.066 8.067-.013 16.12-.026 24.187h-6.667v-36ZM639.92 56.986c2.467 0 4.933 0 7.4.013 5.24 12.04 10.68 23.987 16.013 35.987H656c-1.013-2.227-2.04-4.44-3.053-6.667H634.2c-.987 2.227-1.987 4.427-2.973 6.64-2.454.027-4.92.027-7.347.027 5.333-12.013 10.773-23.973 16.04-36Zm-2.947 23.013c4.4.014 8.827.014 13.24 0-2.226-5.173-4.453-10.333-6.613-15.52-2.12 5.214-4.44 10.347-6.627 15.52ZM.893 79.052c12.467-7.333 25.014-14.52 37.52-21.786-.013 25.706.014 51.427-.013 77.133-.12 12.067-2.907 24.84-11.147 34.067-6.6 7.56-16.44 11.653-26.333 12.373-.04-33.92.027-67.853-.027-101.787ZM73.507 100.026c20.933-12.16 41.88-24.307 62.853-36.413 1.773 22.04-8.067 44.373-25.227 58.213-12.546-7.267-25.093-14.533-37.626-21.8ZM43.667 88.773c20.92 12.24 42.026 24.133 62.826 36.573-18.186 12.28-42.186 15.027-62.68 7.147-.346-14.56-.053-29.147-.146-43.72ZM283.187 114.319h1.893v20h-1.893a623.093 623.093 0 0 1 0-20ZM319.373 113.626c4.654 5.253 8.707 10.987 13.107 16.453-.027-5.253-.067-10.506.04-15.76h1.893c-.026 6.894.04 13.774-.026 20.667-4.787-5.227-8.84-11.067-13.307-16.547v15.88h-1.893c-.027-6.893-.28-13.8.186-20.693ZM354.907 115.066c6.64-3.107 15.24 2.387 14.213 9.92.053 7.347-8.893 11.693-15.013 8.2-7.04-3.467-6.72-15.413.8-18.12Zm-.307 2.067c-6.347 3.626-3.933 15.586 3.827 15.36 5.6.946 9.92-4.867 8.626-10.08-.666-5.747-7.866-7.814-12.453-5.28ZM383.747 114.319c4.72.574 11.2-1.84 14.386 2.854 2.76 3.84-.266 9.333-4.826 9.76 2.146 2.453 4.333 4.893 6.48 7.36-.614.013-1.84.04-2.454.04-2.146-2.454-4.306-4.92-6.413-7.414-1.76-.053-3.507-.093-5.253-.146.026 2.506.013 5.026-.014 7.546h-1.906v-20Zm1.906 1.814c.04 2.96.054 5.906.054 8.866 2.826-.04 5.693.187 8.506-.28 3.507-1 3.867-6.573.654-8.146-3.014-.72-6.147-.294-9.214-.44ZM412.52 114.346c4.773.507 11.52-1.92 14.493 3.2 2.507 4.053-.786 8.573-4.92 9.56 2.24 2.453 4.507 4.893 6.467 7.587-4.44-.44-6.147-5.267-9.133-7.947-1.68.053-3.347.107-5.014.147v7.426h-1.893a664.905 664.905 0 0 1 0-19.973Zm1.893 1.84v8.813c3.854-.333 10.84 1.667 11.28-4.106.32-6.294-7.28-4.587-11.28-4.707ZM441.853 114.319h1.894c0 6.014-.014 12.04 0 18.054 3.76.706 9.12-1.787 11.626 1.8-4.506.24-9.013.146-13.52.133a669.183 669.183 0 0 1 0-19.987ZM474.813 114.719c.44-.213 1.334-.64 1.774-.866 2.96 7.026 6.386 13.866 9.133 20.973-2.68-.493-3.293-3.187-4.32-5.307h-11.333c-1.147 1.934-1.32 5.04-4.187 5.294 2.68-6.814 5.64-13.56 8.933-20.094Zm-4 12.92c3.28.014 6.574.014 9.854.014-1.667-3.734-3.294-7.467-4.934-11.214-1.573 3.76-3.253 7.48-4.92 11.2ZM499.36 113.639c4.853 5.28 9.08 11.094 13.72 16.547v-15.867h1.893c.04 6.88.254 13.76-.16 20.64-4.84-5.28-9.12-11.04-13.733-16.506-.013 5.28 0 10.573 0 15.866h-1.893c-.04-6.893-.267-13.8.173-20.68ZM529.853 114.333c4.654.213 10.347-1.12 14.027 2.56 4.907 4.453 3.8 13.4-2.12 16.453-3.76 1.573-7.947.827-11.907.96a627.274 627.274 0 0 1 0-19.973Zm1.907 1.906a1612.02 1612.02 0 0 0 0 16.16c3.32-.213 7.053.627 10.013-1.346 4.36-3.014 4.427-10.374.08-13.414-2.96-2.04-6.733-1.2-10.093-1.4Z"/></svg>