<svg xmlns="http://www.w3.org/2000/svg" fill="none" viewBox="0 0 795 475"><path fill="#1D1D1D" d="M119.373 0h29.28c16.68 1.333 34.76 2.853 48.44 13.547 15.12 12.333 21.347 32.8 20.547 51.773-.64 11.133-3.48 23.187-12.093 30.933-8.267 7.32-18.027 12.854-28.347 16.694 1.16 3 3.92 4.786 6.893 5.706 11.587 3.747 24.414 2.067 35.28-3.16.054 22.854-.133 45.707-.386 68.547-24.014 3.147-48.707 4.307-72.547-.733-7.267-1.76-15-3.667-20.507-9.107-12.613-11.707-17.706-29.413-18.373-46.173-4.52.506-9.04 1-13.56 1.533.053 18.813-.107 37.64.08 56.453-31.453 3.374-62.827 7.947-93.653 15.12C.24 139.2.307 77.267.387 15.333 39.56 7.04 79.36 1.693 119.373 0Zm-25.36 61.12c-.013 6.96-.013 13.907 0 20.853 8.187.107 16.454-.013 24.52-1.533 5.387-1.147 11.76-4.92 11.52-11.16-.573-5.6-6.32-8.76-11.413-9.36-8.213-.747-16.493.107-24.627 1.2ZM242.667 0h.813c54.68 2.453 109.253 6.84 163.827 11.067.066 22.6.026 45.213.013 67.826-22.653-2.946-45.307-5.96-67.96-8.933-.04 6.533-.013 13.067-.04 19.613 19.227 1.547 38.44 3.134 57.667 4.574.093 20.133-.094 40.266.093 60.4-19.24-1.467-38.48-3.04-57.707-4.614a4295.556 4295.556 0 0 0 0 39.16c-32.213-1.986-64.413-4.546-96.693-5.466-.04-61.2 0-122.414-.013-183.627ZM625.613 14.76c32.84-1.72 65.507-5.707 98.054-10.307-.867 35.947-1.32 71.894-2.387 107.827 24.4-3.827 48.56-9.12 72.787-13.787-.16 26.267-.014 52.52-.067 78.774.533 2.306-2.293 1.88-3.64 2.333-54.373 9.2-109.293 16.04-164.493 17.187-.507-60.667 0-121.347-.254-182.027ZM449.907 18.067c16.92-7.574 35.813-8.214 54.04-8.747 32.693.533 65.533 3.053 97.466 10.36.027 21.787-.613 43.547-.4 65.333-11.173-7.293-24.746-9.32-37.76-10.613-8.626-.627-17.733-1.92-25.933 1.573-4.88 2.014-8.373 6.68-8.853 11.96 15.893.574 31.973 2.2 47.106 7.32 10.854 3.76 21.254 10.454 26.867 20.76 6.787 12.494 6.947 27.4 5.16 41.174-1.76 12.84-8.013 25.44-18.84 32.946-15.653 11.107-35.493 13.4-54.133 14.374-37.667 1.186-75.2-4.534-111.774-13.147.28-24.827 1.907-49.667 2.867-74.493 13.573 8.88 29.787 12.506 45.627 14.826 9.68 1.027 20.186 2.907 29.28-1.68 3.933-1.76 5.893-5.866 6.586-9.906-18.066-1.094-36.466-3.054-53.333-10.014-11.293-4.626-21.6-13.04-25.933-24.76-4.707-12.746-4.32-27-1.174-40.08 2.854-12.106 11.854-22.173 23.134-27.186Z"/><path fill="#FAA61A" d="M135.733 266.68c38.747-.773 77.534-1.373 116.267.347-.133 69.213.253 138.44-.187 207.64H135.72c-.093-69.334-.093-138.654.013-207.987Z"/><path fill="#702C91" d="M677.333 284.027c39.014-3.054 77.867-7.707 116.68-12.6-.12 67.746.174 135.493-.146 203.24h-116.24c-.68-23.08-.094-46.187-.294-69.28v-121.36Z"/><path fill="#00AB4E" d="M406.693 288.56c38.574 4.36 77.267 8.173 116.107 9.12.44 58.987.12 117.987.16 176.987h-116c-.2-2.214-.307-4.44-.32-6.654.067-59.826-.013-119.64.053-179.453Z"/><path fill="#ED1C24" d="M0 308.333c38.267-9.026 77.36-14.533 116.6-16.773.067 61.027.187 122.067-.053 183.107H.307A71.853 71.853 0 0 1 0 469.32V308.333Z"/><path fill="#FD0" d="M271 293.267c38.987 2.306 77.907 5.973 116.68 10.746-.107 56.88.173 113.774-.147 170.654H271.24c-.4-4.92-.227-9.84-.24-14.76v-166.64Z"/><path fill="#0071BC" d="M542.013 312.32c38.774.12 77.56-.547 116.28-2.707.014 55.014.187 110.04-.08 165.054H542.12c-.267-54.107-.067-108.227-.107-162.347Z"/></svg>