<svg xmlns="http://www.w3.org/2000/svg" fill="none" viewBox="0 0 174 39"><path fill="#FF7F0B" d="M38.255 18.738 27.441 0 16.632 18.738l-.955 1.635-7.18 12.463-1.258 2.177.914 1.612 1.24 2.142h36.078l2.178-3.754-9.394-16.275ZM11.647 34.972l7.18-12.451 8.614-14.954 15.8 27.358-31.594.047Z"/><path fill="#FF7F0B" d="m16.632 18.738-2.201-3.79-5.02-8.667L0 22.52l5.043 8.731 2.196 3.79.914 1.583 1.24 2.142 1.24-2.142 2.196-3.79 5.999-10.314-2.196-3.784v.002Zm-9.405 8.696L4.385 22.52l5.026-8.673 2.819 4.89 2.19 3.783-5.01 8.68-2.184-3.766h.001Z"/><path fill="url(#a)" d="m14.43 14.948-.948 1.647-1.252 2.143 2.19 3.783-5.01 8.68-2.183-3.767-2.184 3.79 2.196 3.789 1.258-2.177 7.18-12.463.955-1.647-2.202-3.778Z"/><path fill="#FF7F0B" d="m38.25 18.738 2.2-3.79 5.02-8.667 9.412 16.24-5.038 8.731-2.201 3.79-.932 1.612-1.24 2.113-1.212-2.142-2.195-3.79-6.01-10.314 2.195-3.784.001.001Zm9.405 8.696 2.841-4.913-5.025-8.673-2.836 4.89-2.19 3.783 5.026 8.679 2.184-3.766Z"/><path fill="url(#b)" d="m40.45 14.948.95 1.647 1.235 2.143-2.19 3.783 5.026 8.68 2.184-3.767 2.19 3.79-2.202 3.789-1.258-2.177-7.18-12.463-.956-1.647 2.201-3.778Z"/><path fill="#000" d="M66.302 6.502h9.318a10.65 10.65 0 0 1 4.548.931 7 7 0 0 1 3.086 2.707 8.06 8.06 0 0 1 1.095 4.278 7.8 7.8 0 0 1-1.217 4.395 7.13 7.13 0 0 1-3.32 2.724l5.76 10.07h-5.206l-5.189-9.26h-4.315v9.25h-4.578l.018-25.095Zm9.405 11.787a4.081 4.081 0 0 0 2.964-1.06 3.701 3.701 0 0 0 1.112-2.81 3.7 3.7 0 0 0-1.112-2.812 4.08 4.08 0 0 0-2.964-1.06h-4.822v7.742h4.822Zm15.561 12.463a9.3 9.3 0 0 1-3.524-3.434 9.4 9.4 0 0 1-1.298-4.884 9.5 9.5 0 0 1 1.28-4.884 9.2 9.2 0 0 1 3.495-3.434 9.86 9.86 0 0 1 4.921-1.246 9.73 9.73 0 0 1 4.869 1.246 9.419 9.419 0 0 1 4.798 8.318 9.436 9.436 0 0 1-1.287 4.924 9.2 9.2 0 0 1-3.494 3.417 10.2 10.2 0 0 1-9.737 0l-.023-.023Zm1.194-4.36a4.78 4.78 0 0 0 3.692 1.548 4.84 4.84 0 0 0 2.591-.71 5.003 5.003 0 0 0 1.806-1.967c.445-.882.668-1.86.652-2.847a5.992 5.992 0 0 0-.652-2.81 5.1 5.1 0 0 0-1.806-1.986 4.75 4.75 0 0 0-2.591-.728 4.9 4.9 0 0 0-2.65.728c-.773.48-1.4 1.16-1.817 1.967a6 6 0 0 0-.658 2.83 5.65 5.65 0 0 0 1.433 3.975Zm21.815 4.93-7.123-18.05h4.747l4.752 12.63 4.717-12.63h4.787l-9.9 25.06h-4.752l2.772-7.01Zm14.57-.739a4.762 4.762 0 0 1-1.291-1.707 4.756 4.756 0 0 1-.409-2.1 5.107 5.107 0 0 1 1.584-3.842c1.054-1.012 2.638-1.682 4.752-2.02l5.457-.879v-.582a2.475 2.475 0 0 0-.92-2.037 3.67 3.67 0 0 0-2.44-.774 4.299 4.299 0 0 0-2.51.757 4.397 4.397 0 0 0-1.602 2.002l-3.605-1.746a6.801 6.801 0 0 1 2.964-3.464 9.241 9.241 0 0 1 4.921-1.315 9.048 9.048 0 0 1 3.955.826 6.3 6.3 0 0 1 2.696 2.33 6.125 6.125 0 0 1 .961 3.381v12.224h-4.176V29.64a7.391 7.391 0 0 1-5.73 2.328 7 7 0 0 1-4.607-1.385Zm3.594-2.509c.52.398 1.162.603 1.817.582a4.625 4.625 0 0 0 3.371-1.298 4.35 4.35 0 0 0 1.311-3.219v-.762l-4.613.774a4 4 0 0 0-1.956.88 2.011 2.011 0 0 0-.641 1.566 1.81 1.81 0 0 0 .711 1.478ZM147.431 6.1h4.414v25.496h-4.414V6.1Zm12.282 24.617a8.97 8.97 0 0 1-3.337-3.493 9.895 9.895 0 0 1-1.165-4.849 9.892 9.892 0 0 1 1.165-4.866 8.947 8.947 0 0 1 3.267-3.417 8.8 8.8 0 0 1 4.659-1.245 9.202 9.202 0 0 1 4.781 1.193 7.947 7.947 0 0 1 3.086 3.254 9.698 9.698 0 0 1 1.06 4.511 6.003 6.003 0 0 1-.239 1.851h-13.231a4.73 4.73 0 0 0 4.886 4.447 4.95 4.95 0 0 0 2.545-.623 4.66 4.66 0 0 0 1.701-1.746l3.575 1.746a6.749 6.749 0 0 1-2.97 3.248 9.54 9.54 0 0 1-4.88 1.287 9.301 9.301 0 0 1-4.903-1.298Zm8.776-10.408a4.16 4.16 0 0 0-1.316-2.742 4.08 4.08 0 0 0-2.912-1.059 4.32 4.32 0 0 0-2.865.99 4.767 4.767 0 0 0-1.549 2.811h8.642Z"/><defs><linearGradient id="a" x1="12.393" x2="9.493" y1="25.967" y2="24.132" gradientUnits="userSpaceOnUse"><stop stop-opacity=".3"/><stop offset="1" stop-opacity="0"/></linearGradient><linearGradient id="b" x1="42.495" x2="45.389" y1="25.967" y2="24.132" gradientUnits="userSpaceOnUse"><stop stop-opacity=".3"/><stop offset="1" stop-opacity="0"/></linearGradient></defs></svg>