<svg xmlns="http://www.w3.org/2000/svg" fill="none" viewBox="0 0 685 253"><g clip-path="url(#a)"><path fill="#fff" d="M354.667 8.367c7.2-10.067 24.534-9.307 30.934 1.253 5.306 9.493 4.173 22.28-3.307 30.333 9.613 16.667 12.547 35.907 18.053 54.08-.24-9.453-.026-18.933-.373-28.386.053-4.494-3.653-7.64-4.867-11.747-1.813-6.973 1.174-15.413 8.04-18.413 6.28-2.814 13.12-.08 19.654-.467 6.36-.307 13.093-1.653 19.146 1.053 4.72 1.854 8.334 5.56 11.48 9.414 2.414-5.947 8.067-10.467 14.76-9.64 9.947 1.32 20.134-.84 29.934 1.706 5.586 1.334 10.12 5.04 14.12 9 2.52-2.76 5.213-6.066 9.28-6.213 9.373-.64 18.693 1.267 28.066 1.36 3.654-.04 6.987-1.84 10.6-2.187 3.667-.066 6.24 2.92 8.894 5 6.48-2.146 13.773-2.72 20.253-.226 5.667 2.6 7.787 9.026 10.307 14.253 1.76-4.747 4.226-10.08 9.52-11.653 9.613-2.867 21.826.16 26.426 9.8 3.88-3.72 8.387-7.494 14.067-7.614 6.893-1.2 12.04 4.667 18.627 5.32 5.626.654 8.24 6.454 9.76 11.214 3.24 10.88 4.973 22.32 4.373 33.693-.173 6.12-2.427 12.213-7.093 16.32 8.946 19.08 9.546 40.947 6.413 61.467-1.6 9.146-4.507 18.92-11.88 25.12-5.8 4.973-14.56 5.146-21.173 1.76-8.094-4.04-14.347-10.947-19.16-18.454-2.76 3.027-6.32 6.24-10.787 5.254-6.32-.84-9.093-7.307-11.013-12.56-1.814-4.72-3.68-9.414-5.44-14.147-1.374 4.947-3.147 10.68-8.294 12.907-8.6 3.56-18.373-.4-24.373-6.947l-5.68 1.8c8.293 15.853 14.013 32.88 21.067 49.293 1.64 4.68 7.626 5.84 9.08 10.64 2.746 6.747-1.467 14.76-8.294 16.88-9.306 2.987-19.32 2.2-28.92 1.494-5.24-.32-10.253-2.44-13.733-6.427-9.387 9.187-24.507 8.027-35.933 3.773-11.587 3.427-24.56 4.6-35.867-.466-10.28 6.466-25.2 6.546-33.893-2.667-7.414 6.093-17.494 6.307-26.6 5.653-4.747-.293-9.214-2.053-13.427-4.133-2.107 1.547-4.08 3.4-6.64 4.16-4.453.533-8.8-1.08-13.253-1.133-8.44-.187-16.88.013-25.334-.04-6.986-.08-14.346.706-20.866-2.387-2.934 1.907-6.187 4.213-9.907 3.333-10.987-1.76-22.133-.666-33.2-.96-7.28-.146-14.76.8-21.787-1.546-6.72 5.026-14.8 1.053-22.306 1.52-10.68.08-21.374-.174-32.054.346-3.6.2-7.093-.76-10.48-1.84-9.84 3.12-20.533 4.307-30.653 1.92-6.48-1.493-12.36-7.106-12.173-14.093-.654-5.253 3.973-8.733 5.493-13.293.48-4.454.173-8.947.387-13.427-5.96 8.747-15.814 13.973-26.267 14.853 3.28 3.254 7.32 6.76 7.12 11.84.44 7.28-6.08 12.774-12.693 14.174-8.427 1.84-17.36 1.773-25.8.04-6.52-1.24-12.507-7.04-11.52-14.08-.134-4.614 4.493-6.92 6.053-10.72.653-9.6.293-19.254-.12-28.854-2.347-1.706-5.08-3.186-6.467-5.853-1.586-2.907-.986-6.333-1.106-9.493-4.854.773-9.827.613-14.36-1.454-5.814 10.48-19.547 16.934-30.974 12.027-4.706 8.173-13.066 13.013-21.8 15.84-5.8 1.093-12.133-.32-16.946-3.76-5.347-3.947-6.534-10.947-7.48-17.093C.894 174.9-.28 163.727.907 152.673c.347-4.84 3-8.986 6.387-12.28-5.64-14.693-6.373-30.746-4.92-46.266 1.173-11.214 3.827-22.52 9.6-32.32 3.533-6.014 9.173-11.334 16.293-12.467 4.027-.787 7.934.813 11.774 1.8 5.213-1.067 10.986.307 13.533 5.4 5.093 9.76 6.573 21.147 6.56 32.04-.027 7.147-2.107 14.48-7.587 19.387 1.867 3.4 3.547 6.893 5.094 10.44 2.053-11.347 4.24-22.707 5.52-34.174 1.213-10.733-.84-22.333 4.72-32.146 2.893-5.974 10-10.214 16.613-8 6.427 2.04 9.787 8.493 12.053 14.373 8.147 21.467 9.694 44.613 14.987 66.8.667-15.387 1.027-30.827.213-46.213.094-5.24-4.546-8.8-5.493-13.747-1.373-7.2.547-15.533 6.453-20.267 5.747-4.173 13.44-5 20.28-3.746 5.774 1.52 8.374 7.44 10.84 12.293 1.414-4.653 3.107-9.8 7.547-12.44 6.947-4.013 15.547-3.507 23.027-1.387 6.186-2.666 13.16-3.84 19.8-2.386 5.493 1.533 7.986 7.213 10.706 11.68 1.494-4.867 3.867-10.08 8.907-12.147 8.853-4.187 18.467.373 27.64-.987 8.453-.826 16.96-.44 25.413-1.186 4.827-.334 9.467-4 14.334-1.907 5.653 2.28 7.52 8.653 9.12 13.947 6.52-9.507 18.053-16.68 29.906-14.014 4.734 1.387 9.627 1.147 14.494 1.414 5.306 1.4 7.906 6.933 9.613 11.68 3.347 10.146 3.893 22.04-1.947 31.4 1.76 1.053 3.547 2.12 5.32 3.186 2.214-8.72 4.52-17.52 4.4-26.586-.186-5.307 1.107-10.494 3.627-15.147-6.48-8.573-7.187-21.387-1.067-30.333Zm9.827 1.986c-6.72 2.827-7.613 11.867-5.787 18.054 1.64 8.72 15.907 9.866 19.28 1.893 2.174-4.893 2.067-10.8-.106-15.667-2.467-4.733-8.68-5.773-13.387-4.28Zm-96.333 32.654c-9.694 1.306-19.587.173-29.267 1.666-3.08.227-3.373 4.107-3.48 6.52-.32 3.814 3.76 5.854 4.587 9.294.986 4.386 1 8.92 1.146 13.386-.026 15.134.414 30.347-1.626 45.374-.32 4.026-3.947 6.72-4.734 10.533-.053 2.147-.4 5.573 2.494 5.907 13.84-.76 27.613-4.614 41.52-2.894 3.84-9.88 7.333-20.866 4.426-31.453-1.08-.053-3.226-.147-4.306-.2-2.227 5.387-2.854 11.96-7.454 16-3.8 2.6-9.253 3.827-13.48 1.627-1.213-3.734-1.12-7.72-1.253-11.587.053-4.867-.533-10.253 2.613-14.373 1.4 1.053 2.814 2.106 4.214 3.186.853 3.56.24 7.814 2.866 10.707 3.174-1.707 3.8-5.547 4.387-8.76 1.187-8.507 1.373-17.227.093-25.733-.6-2.427-.84-6.027-4.16-5.96-3.053 3.72-1.906 8.906-3.64 13.133-1.693 2.107-4.24 1.333-6.32.387.267-6.827-.72-13.787.707-20.52 1.547-4.2 7.173-3.227 10.667-2.787 5.226.893 5.706 7.107 8.44 10.667 3.4 2.106 4.586-2.987 5.053-5.44.547-6.92.267-14.547-3.68-20.52-3.387-.307-6.493 1.466-9.813 1.84Zm25.8 12.56c-7.147 13.786-8.56 30.053-5.974 45.226 1.84 9.774 5.667 19.96 13.84 26.16 5.907 4.64 14.534 5.48 21.12 1.827 7.094-3.72 11.4-11.133 13.347-18.68 1.067-3.64 1-7.973 4.253-10.533 4.854-3.694 3.374-12.64-2.52-14.414-6.053-2.2-13.16-2.106-18.92.894-4.293 2.16-5.413 8.146-3.213 12.173 1.813 1.467 4.027 2.307 5.933 3.653 1.294 4.12-.333 8.24-2.813 11.52-3.547-1.346-7.053-3.466-8.64-7.093-4.24-8.827-5.32-18.813-5.253-28.493.32-6.827.96-14.44 5.906-19.654 2.027-2.253 5.747-2.666 8.12-.68 5.014 3.96 5.934 10.96 10.467 15.32 5.107 2.227 7.24-4.2 7.653-8.093.587-7.733-.266-16.52-5.573-22.587-2.067.267-4 1.04-5.973 1.627-4.294-1.88-8.907-3.84-13.707-2.893-8.227 1.066-14.347 7.733-18.053 14.72Zm69.986-13.987c-4.68 3.4-4.386 9.68-4.48 14.84-.04 10.2-3.173 19.987-5.6 29.8-2.266 8.453-4.2 17-6.893 25.333-.76 2.894-3 4.934-4.973 7.014-2.707 2.32-2.627 7.12-.307 9.653 3.52 2.067 7.827 2.093 11.8 1.947 3.427-.134 7.733-1.734 8.147-5.68 1.106-3.894-2.96-6.36-4.44-9.507-.467-2.52 1.533-4.387 2.786-6.293 4.76.293 9.84-.347 14.307 1.64 2.653 1.96 2.32 6.133-.24 8.08-3.88 3.026-2.56 9.96 2.08 11.453 5.587 1.68 11.533 1.947 17.333 1.813 3.587-.013 7.88-1.786 8.254-5.853 1.72-5.693-5.307-7.987-6.094-13.053-4.226-15.174-8.013-30.48-12.226-45.667-2.574-8.2-5.08-16.693-10.147-23.76-2.013-2.92-6.453-4.32-9.307-1.76Zm-148.6 3.573c-3.573 3.2-3.76 9.347-.853 13.067 3.84 4.827 2.987 11.24 3.013 16.987-.373 2.506.614 6.4-2.72 7.133-6.946-9.013-11.986-19.333-17.933-29.013-2-2.947-3.48-7.08-7.32-8-3.707-.44-7.64-.04-11.04 1.586-3.867 1.974-4.587 6.96-4.173 10.867 1.666 4.04 5.68 7.107 5.533 11.867 1.373 17.413.533 34.946-.36 52.386-.04 4.12-1.68 7.92-3.747 11.414-2.346 3.946-2.373 10.706 2.374 12.853 6.866 1.813 16.32-1.933 17.146-9.787 1.72-5.706-4.973-9.12-4.56-14.706-.253-8.16-1.32-16.974 2.387-24.547 7.933 10.44 14.013 22.133 21.08 33.173 2.48 3.547 4.227 8.96 9.44 8.76 3.92-10.173 2.773-21.333 3.2-32 .547-14.32-.333-28.72 1.267-42.973.173-5.04 6.053-7.8 5.44-13.053.293-3.414-1.814-7.174-5.48-7.467-4.214-.347-8.894-.707-12.694 1.453Zm188.414 9.067c2.36 2.88 3.666 6.44 3.626 10.173.24 15.147.8 30.32.214 45.467.093 3.867-1.76 7.267-3.72 10.467-2.68 3.906-.294 9.466 3.8 11.293 5.053 2.413 10.92 2.933 16.44 2.32 2.813-.16 5.493-2.4 5.4-5.373.84-5.094-4.254-8.507-4.334-13.427-.64-6.64-.786-13.347.12-19.973 1.8 1.28 4.334 2.053 5.08 4.373 3.814 10.453 2.747 22.24 7.627 32.373 2.827 6.267 10.933 8.974 17.107 6.267 3.093-1.44 4.146-5.24 4.026-8.387-.053-3.866-4.266-5.786-5.066-9.346-1.374-7.267-1.067-14.934-4-21.84-1.574-3.8-5.16-6.267-7-9.894 7.013-8.066 8.293-19.493 5.96-29.626-1.24-6.614-5.48-13.04-11.907-15.534-6-1.746-12.24.24-18.333-.093-4.4 0-8.907-1.707-13.214-.227-3.906 2.04-4.8 7.76-1.826 10.987Zm59.48-9.493c-2.974 1.84-3.147 5.88-2.48 8.946 1.253 3.374 4.973 5.614 4.866 9.52.587 19.08.974 38.214.067 57.28.56 4.587-6.013 6.067-4.947 10.76-.493 3.88 1.827 8.694 6.267 8.494 8.64.48 16.893 3.106 25.293 4.893 5.44 1.387 11.307-.973 14.787-5.267 5.28-6.413 7.08-14.826 8.293-22.826 2.014-14.734 1.267-29.827-1.84-44.347-2.226-8.84-5.413-18.387-13.08-23.987-7.133-4.933-16.173-2.893-24.266-3.4-4.307.067-8.76-1.293-12.96-.066ZM152.814 50.5c-1.627 3.307-2.067 7.587-.227 10.92 5.787 8.533 4.067 19.68 2.307 29.227-5.907-6.414-9.093-14.707-13.493-22.12-3.707-6.2-6.174-13.227-10.88-18.774-6.747-2.12-17.16.747-17.054 9.307-1.44 5.387 3.227 9 4.84 13.573 1.32 6.96 1.214 14.094 1.2 21.147.04 14.733-.04 29.493-1.266 44.187-.12 5.746-5.067 10.106-4.827 15.88-.093 3.133.6 7.346 4.147 8.333 8.04 1.587 17.2-5.04 16.64-13.667.666-5-4.347-8.306-4.414-13.186-.466-8.894-.906-18.094 1.28-26.8.547-.054 1.64-.147 2.2-.187 6.614 10.12 11.8 21.133 18.134 31.44 2.52 3.733 3.986 8.48 7.52 11.347 4.386 1.426 4.76-4.427 5.373-7.36 2.2-24.227.613-48.614 2.4-72.867-.227-6.427 6.76-10.56 5.653-17.107-.106-3.213-2.013-6.893-5.64-6.973-4.706-.48-10.906-.76-13.893 3.68Zm368.84-1.627c-2.733.68-3.413 3.8-3.253 6.24-.48 5.147 5.32 8.04 5.266 13.16 2.147 20.907 2.294 42.054 1.254 63.04.213 4.187-2.76 7.254-4.654 10.654-.48 3.346.294 8.04 4.134 9.04 13.186 4.146 27.346 5.706 39.52 12.613 2.946-8.307 4.373-17.067 4.84-25.84.186-5.28-.014-11.347-4.534-14.907-2.613 4.734-3.133 10.2-5.186 15.134-3.027 8-17.694 4.56-16.92-3.987-.507-7.867-1.374-15.92-.027-23.733 2.093-2.24 4.707.573 5.373 2.706 1.334 4.014 1.467 8.294 2.174 12.427.973.013 2.92.027 3.893.04 2.667-11.667 2.493-23.773 1.307-35.613-.787-4.187-.2-10.44-5.627-11.494-1.213 4.787-1.507 9.72-1.947 14.614-.933.426-2.786 1.266-3.72 1.68-4.853-4.214-2.96-11.2-3.453-16.854.307-4.213-1.12-9.693 3.013-12.493 3.4-.52 7.107.227 9.96 2.213 4.974 3.907 3.52 12.44 9.734 15.147 3.373-9.16 2.146-19.267-.16-28.52-.84-2.307-1.654-6.787-5.027-5.307-11.813 3.227-24.013-.96-35.96.04Zm50.587 3.52c-2.667 1.734-3.214 5.187-3.4 8.12-.147 6.414 6.16 10.64 6.186 17.08 1.827 16.894 1.52 33.92 1.814 50.88-.494 6.76.746 14.24-3.134 20.24-6.053 9.427 3.454 23.107 14.374 21.28 3.746-.693 4.493-5.04 4.613-8.2.413-6.373-4.827-11.253-4.987-17.546-.506-9.627-1.546-19.52.747-28.987 1.92 2 3.56 4.267 4.6 6.853 7.347 17.294 14.427 34.68 21.16 52.227 1.133 2.867 2.2 5.893 4.373 8.173 3.04-.533 3.08-3.813 3.494-6.24 1.6-15.44.106-30.933.373-46.4.213-15.586-.4-31.2.307-46.76-.227-5.493 5.186-9.106 5-14.573 0-4.627-.494-10.867-5.454-12.88-3.973-1.347-8.533-1.8-12.546-.387-2.547 2.867-3.174 6.96-2.707 10.654.413 5.213 4.733 9.146 4.947 14.413.573 8.24 1.4 16.76-.814 24.827-3.52-5.214-5.653-11.16-8.2-16.854a1298.228 1298.228 0 0 0-13.64-30.133c-1.453-2.693-2.8-6.413-6.346-6.733-3.56-.414-7.52-.92-10.76.946Zm-495.414.694c-4.893 4.573-5.56 11.733-5.64 18.026 0 9.56-.92 19.094-2.666 28.48-3.627 19.947-6.774 40-10.947 59.854-1 6.173-6.96 10.546-6.467 17.066.067 2.96.214 7.054 3.707 8.014 8.693-.054 17.88-6.614 17.347-16.014 1-4.493-5-6.373-4.334-10.653.387-3.027.36-7.147 3.56-8.68a32.916 32.916 0 0 1 10.107-2.893c2.147-.32 4.667 1.16 4.627 3.533 1.386 5.533-4.454 9.227-4.32 14.587-.214 3.28.786 8.213 4.986 8.093 6.36-.44 12.68-2.48 18.12-5.813 4.774-2.894 6.76-8.894 6.08-14.214-1.76-3.2-5.32-5.386-5.6-9.333-4.013-19.52-7.533-39.16-11.186-58.76-1.92-9.56-4.387-19.147-8.694-27.933-1.453-3.147-5.52-6.307-8.68-3.36Zm-58.746 13.36c-6.84 11.866-8.667 25.866-8.974 39.36 0 13.106 1.414 27.04 8.707 38.306 3.053 5.067 9.133 6.84 12.96 11.067 3.053 5.747 1.947 13.773-3.173 18-3.16 2.573-7.227-.413-8.734-3.4-3.48-6.72-3.36-14.733-7.066-21.373-3.72.6-3.4 5.293-3.894 8.133-.306 11.573.48 23.28 3 34.6.667 4.48 4.92 7.293 9.214 7.573 8.4 1.08 15.746-4.986 19.933-11.72 8.333-13.386 11.253-29.52 11.147-45.106.066-9.814-.96-20.187-6.36-28.64-3.12-5.054-8.934-7.187-13.334-10.84-4.506-4.32-4.333-11.614-2.413-17.134.707-1.933 2.947-4.706 5.133-2.906 5.52 4.186 6.947 11.506 10.04 17.373 1.014.04 3.027.093 4.04.12 5.08-12.933 1.974-27.6-3.146-40.027-1.92.494-3.814 1.027-5.707 1.614-3.173-1.56-6.267-3.827-9.92-3.907-5.253.32-8.88 4.773-11.453 8.907Zm621.733-2.307c-6.373 9.52-7.92 21.28-8.267 32.48-.08 19.267 5.414 39.293 18.52 53.84 5.307 5.773 7 14.387 3.48 21.547-4.56.2-8.04-3.2-10.066-6.92-5.04-8.347-4.267-18.867-8.987-27.254-1.12-2.773-3.413 1.24-3.373 2.6-1.054 10.827.493 21.734 2.186 32.414 1.174 9.24 7.68 16.773 15.054 21.946 4.093 2.934 10 4.907 14.493 1.627 6.627-5.173 8.573-14.013 9.893-21.88 2.507-18.453 2.227-38.2-6.04-55.253-4.28-9.707-16.4-15.134-16.293-26.8-.107-3.574.12-10.294 5.333-9.28 7.12 6.48 7.827 16.866 12.307 24.986 2.92-1 4.747-3.453 4.8-6.546 1.013-12.36-.44-25.147-5.133-36.68-.614-3.147-3.96-1.134-6.067-1.107-2.973-2.347-5.8-5.187-9.533-6.253-5.107-1.134-9.68 2.52-12.307 6.533Zm-325.56 15.32a787.006 787.006 0 0 1 7.68-3.36c-1.867-3.48-3.68-7-5.627-10.427-1.2 4.507-1.786 9.134-2.053 13.787Zm140.4 9.013c1.387 2.107 2.773 4.214 4.16 6.334.027-5.427-.013-10.84-.147-16.254a392.907 392.907 0 0 1-4.013 9.92ZM564.201 90.1c.666 8.387.706 16.8.573 25.2 1.453.16 2.92.32 4.4.48.053-9.173-.093-18.333-.733-27.48l-4.24 1.8Zm-360.56 37.24c2.44 7.52-.04 15.027-3.507 21.733 4.227-2.4 7.747-6.106 12.76-6.866-3.24-4.854-6.453-9.734-9.253-14.867Zm87.133-.12c-1.08 2.613-1.987 5.293-2.96 7.947 3.4-.387 6.8-.8 10.2-1.267-2.413-2.227-4.707-4.587-7.24-6.68Zm43.387 4.333c-1.56.16-2.534.974-2.96 2.44.973 2.56 6.306-1.613 2.96-2.44Zm-195.347 1.92c1.72 4.067 4.427 7.88 4.68 12.427.413 4.307-.787 8.533-2.067 12.6 6.294-.507 12.36 1.187 18.227 3.227-10.64-6.227-13.867-18.84-20.84-28.254Zm136.213 9.2c-4.866 8.094-7.746 17.64-7.2 27.134.054 3.253 1.96 5.986 3.68 8.6 1.16-.187 3.494-.574 4.654-.76 2.613-5.454 3.546-11.734 7.253-16.6 2.867-2.254 7.653-3.014 10.587-.494.466 2.534-.414 5.014-1.187 7.387-7.533 20.773-15.173 41.52-22.56 62.347-1.053 3.173-2.52 8.773 1.88 9.986 16.8 1.054 33.8-1.106 50.52 1.414 5.147-4.747 6.547-12.134 7.533-18.76.294-5.147 1.027-10.627-.92-15.534-1.093-3.08-6.56-5.613-7.866-1.426-2.787 5.333-2.774 13.413-9.267 15.84-3.427 1.213-8.653 2.04-10.96-1.387.16-4.187 1.907-8.107 3.173-12.053 6.547-18.254 13-36.547 19.587-54.787 1.52-4.427 3.96-11.32-1.187-14.253-15.946.346-31.733 6.28-47.72 3.346Zm97.12-1.64c-11.826-.106-23.706-1.16-35.506.174-2.507.6-3.16 3.64-3.48 5.826-.88 5.347 6.053 7.214 6.506 12.214 2.04 11.4 1.16 23.04 1.774 34.56-.307 10.026-.187 20.146-1.92 30.053-.627 3.613-4.52 5.4-5.667 8.733-.28 2.827.16 7.28 3.76 7.694 16.947 1.16 34.16-1.48 50.947 1.893 3.853-7.04 5.92-14.92 6.92-22.84.44-3.8.546-8-1.534-11.373-.906-2.227-3.866-2.36-5.146-.467-2.987 4.88-3.347 11.293-7.76 15.293-3.867 3.427-9.454 3.36-14.294 2.907-1.826-.267-4.213-.88-4.52-3.04-1.213-6.827-1.32-13.867-.973-20.787.293-2.346.693-6.453 4.08-5.32 5.387.96 4.68 7.92 5.8 11.974-.173 2.04 1.613 2.893 3.413 2.76 3.534-2.974 3.854-7.934 4.547-12.16.907-8.814.96-17.8-.813-26.507-.68-2.52-1.587-6-4.814-5.973-3.6 3-2.76 8.186-3.96 12.266-.346 4.627-8.173 4.6-8.666.147-.654-7.067-.64-14.36.68-21.333 2.6-4.44 9.066-2.48 13.226-1.934 6.454 1.107 7.694 8.36 10.947 12.88 3.12 2.067 5.6-1.533 6.067-4.306 1.573-8.48.093-17.6-4.374-25.027-5.133.173-10.093 1.76-15.24 1.693Zm30.934 2.227c-3.334 1.387-5.094 5.533-3.987 8.92 1.307 2.96 3.933 5.08 5.28 8.013 1.013 3.094.973 6.414 1.107 9.627.133 12.48-.36 24.947-.44 37.427-.387 6.533.48 13.96-4.2 19.266-3.36 3.4-3.294 9.694.813 12.454 5.88 3.76 13.28 2.986 19.933 2.68 4.08-.374 9.6-1.84 10.04-6.76 1.374-5.294-4.893-8.147-5.053-13.094-.467-6.946-1.333-14.226.68-21.013 3.373-.907 6.2 2.2 7 5.2 3.187 10.267 2.387 21.733 7.693 31.333 3.734 6.56 12.48 6.827 18.96 5.067 4.827-1.107 8.587-6.12 7.307-11.093-1.613-3-5.533-4.587-6.013-8.214-1.2-7.146-.88-14.893-4.72-21.32-2.014-3.506-6.334-5.106-7.867-8.906 2.413-3.054 5.733-5.467 7.213-9.174 2.8-6.893 2.92-14.773.72-21.84-2.586-8.12-9.666-14.84-18.12-16.36-7.333-1.2-14.826.027-22.12-1.4-4.693-.626-9.573-2.52-14.226-.813Zm-192.854 8.04c-4.626 7.52-7.626 16.44-7.12 25.333.507 3.334 3.054 9.307 7.227 7.387 4.347-4.707 4.013-12.16 8.587-16.733 3.226-2.614 7.72-2.774 10.88.013-7.214 21.653-15.867 42.813-24.04 64.12-.96 2.867-2.16 7.333 1.12 9.147 16.8 1.053 33.733-.934 50.48.946 2.373-.253 3.6-2.64 4.613-4.506 3.8-7.974 4.547-17.134 3.507-25.814-.467-3.28-4.054-7.426-7.48-5.066-3.747 4.44-3.267 11.253-7.627 15.306-4.093 3.16-9.84 3.014-14.36.854 7.16-23.134 16.427-45.587 24.027-68.574.8-3.266 1.466-8.28-2.374-9.853-15.893 1.787-31.24 8.773-47.44 7.44Zm248.174-5.72c2.306 3.027 4.506 6.133 6.466 9.413 1.44-2.2 2.947-4.373 4.52-6.48-3.733-.706-7.386-1.76-10.986-2.933Zm50.013 4.413c4.96 3.787 9.547 9.2 8.8 15.88.387 4.814-3.307 8.267-6.68 11.067-1.093 10.04-.627 20.16-.733 30.24-.027 5.067-.214 10.173.773 15.173 5.427-11.28 9.333-23.213 13.827-34.866 3.866-8.48.44-18.88 6.773-26.427-4.267-1.133-8.92-1.627-12.653-4.173-3.414-2.387-4.56-6.6-5.907-10.294l-4.2 3.4Zm-34.36 4.467c-.853 2.227-2.747 4.587-1.587 7.067 1.76 3.746 5.454 6.573 5.907 10.893 1.613 13.333.373 26.773.133 40.147-.386 5.773.28 12.453-4.253 16.866-3.2 2.854-2.813 8.494 1.133 10.507 6.48 3.133 14.08 2.413 21.014 1.48 3.92-.827 9.413-1.68 10.453-6.347 1.693-5.733-6.36-7.733-6.093-13.2-.44-15.213-.707-30.506.56-45.68-.04-4.293 4.186-6.28 6.4-9.346 1.026-3.32-.88-7.04-3.814-8.707-8.88-5.32-19.933-6.173-29.853-3.68Zm-290.573 1.6c-6.8 1.92-14.747 4.133-18.8 10.373-2.254 5.8 6.04 7.24 6.226 12.48 1.72 12.427.56 25.027.934 37.52-.24 4.08.733 8.84-2.094 12.254-1.76 2.613-5.053 5.706-2.946 9.066 2.24 3.547 6.946 3.92 10.733 4.347 6.68.227 13.76.133 19.92-2.76 4.013-1.8 4.8-8.213 1.427-10.893-2-1.867-4.374-3.814-4.36-6.814-1.294-13.653-.987-27.386-1.067-41.08.053-3.253 0-6.6 1.067-9.706 1.213-3 4.04-4.96 5.413-7.867.84-2.973-.92-6.453-3.933-7.32-4.107-1.08-8.44-.44-12.52.4Zm134.386 41.24c5.134-2.56 10.947-2.107 15.974.453-.24-12.72.706-25.6-1.84-38.16-5.627 12.214-9.147 25.24-14.134 37.707Zm220.04-31.04c-3.853 1.907-3.413 6.747-3.76 10.36-.226 9.68-4.706 18.44-7.933 27.36-3.093 7.48-5.373 15.32-9.16 22.493-2.147 3.707-8.56 4.867-7.933 9.96.026 4.307 4.986 5.36 8.386 5.587 5.214.213 10.987.92 15.72-1.8 3-1.373 3.774-6.187.867-8.027-1.107-1.653-4.547-2.68-3.533-5.053 1.173-5.667 8.28-3.4 12.36-3.44 3.906.693 11.466.347 10.906 6.053-1.746 2.427-6.346 3.974-5.133 7.6.587 3.427 4.44 4.067 7.28 4.44 7.973.8 16.173 1.307 24.067-.346 2.906-.6 6.333-2.867 5.453-6.294-1.88-2.613-5.987-2.933-7.133-6.213-6.734-15.173-12.4-30.813-19.214-45.96-2.52-5.267-4.986-10.893-9.56-14.733-3.173-2.534-7.92-4.347-11.68-1.987Zm-411.573 5.933c-6.6 2.627-13.587 4.094-20.227 6.547-2.733 1.16-5.866 3.707-4.893 7.04 1.28 1.88 4.08 1.387 5.987 2.187 2.546 3.68 1.88 8.32 1.973 12.546-.2 8.907.28 17.827-.227 26.734.28 4.32-4.853 5.68-6.24 9.186.987 4.8 6.76 5.254 10.72 5.747 7.027.28 15.094 1.107 21.107-3.28 2.64-1.533 1.92-5.427-.56-6.733-5.907-3.374-5.027-11.027-4.347-16.774 6.32-.986 13.2-.24 18.827-3.88 11.893-6.546 15.267-22.333 11.147-34.52-1.84-5.466-7.094-9.36-12.787-9.946-7.253-.947-13.88 2.773-20.48 5.146Zm342.293-3.253c-.306 8.307-1.666 16.72-6.266 23.827 5.493 6.36 7.36 14.68 8.533 22.773.6-12.56.813-25.133.587-37.693.106-3.24-1.227-6.2-2.854-8.907Zm-80.013 8.987c.293 6.64.307 13.293 0 19.933 3.08.107 6.16.373 9.24.773-.213-8.44.307-16.866.427-25.293-2.987 1.987-6.267 3.48-9.667 4.587Zm-127.053-.92c-2.467 7.213-4.987 14.386-7.787 21.466 6.453-2.68 13.84-1.186 18.467 4.107 2-5.16 3.906-10.333 5.746-15.547-3.12-.293-6.533.054-9.346-1.626-3.187-1.974-5.04-5.374-7.08-8.4Zm-58.774 14.16c-.04 8.413.027 16.813.667 25.2 3.267-7.76 6.107-15.694 9.213-23.507-3.32-.36-6.64-.867-9.88-1.693Z"/><path fill="#fff" d="M367.108 16.514c.853-2.76 4.013.413 4.493 1.88 1.24 3.92.787 8.68-2.253 11.693-5.4-1.68-4.814-9.707-2.24-13.573ZM425.733 56.647c4.32.64 5.547 5.466 5.88 9.146.494 5.84.947 12.947-4.333 16.88-.773-.626-2.347-1.88-3.12-2.506.667-7.774-1.653-16.227 1.573-23.52ZM484.547 60.833c2.96-1.48 5.88 1.387 7.413 3.694 4.16 7.24 4.68 15.853 5.44 23.986.587 10.68 1.134 21.574-1.173 32.094-.973 3.8-3.147 9.013-7.84 8.773-4.76-.653-4.667-6.467-4.893-10.12.16-19.04-1.294-38.12-.347-57.133.36-.32 1.053-.974 1.4-1.294ZM361.293 92.913c1.227-6.186 1.733-12.773 5.133-18.266 2.52 5.56 5.067 11.333 5.52 17.493-2.92 2.533-7.16.627-10.653.773ZM72.522 126.033c.826-8.733 1.6-17.746 4.92-25.96 2.853 6.44 4.226 13.427 5.213 20.374 1.52 5.4-6.6 5.613-10.133 5.586ZM427.601 159.22c2.88.347 6.213 1.013 6.96 4.347 2.16 6.093 2.12 13.146-.36 19.146-1.04 2.974-6.094 4.667-7.867 1.627-.573-8.36-.187-16.853 1.267-25.12ZM131.321 181.167c2.866-1.28 6.76-.52 8.12 2.546 2.653 5.4 2.266 12.547-1.574 17.267-1.986 2.107-6.92 4.32-8.24.533-.933-6.426-.76-13.106-.04-19.56.427-.2 1.294-.6 1.734-.786ZM540.866 195.167c5.387 2.52 6.667 9.2 8.28 14.373-2.986 2.8-8.106.533-11.813.027-1.92-4.8 2.133-9.827 3.533-14.4Z"/><path fill="#FDC800" d="M364.493 10.353c4.706-1.493 10.92-.453 13.386 4.28 2.174 4.867 2.28 10.774.107 15.667-3.373 7.973-17.64 6.827-19.28-1.893-1.827-6.187-.933-15.227 5.787-18.054Zm2.613 6.16c-2.573 3.867-3.16 11.894 2.24 13.574 3.04-3.014 3.493-7.774 2.253-11.694-.48-1.466-3.64-4.64-4.493-1.88ZM268.16 43.007c3.32-.373 6.426-2.147 9.813-1.84 3.947 5.973 4.227 13.6 3.68 20.52-.467 2.453-1.653 7.547-5.053 5.44-2.734-3.56-3.214-9.773-8.44-10.667-3.494-.44-9.12-1.413-10.667 2.787-1.427 6.733-.44 13.693-.707 20.52 2.08.947 4.627 1.72 6.32-.387 1.734-4.227.587-9.413 3.64-13.133 3.32-.067 3.56 3.533 4.16 5.96 1.28 8.507 1.094 17.227-.093 25.733-.587 3.213-1.213 7.053-4.387 8.76-2.626-2.893-2.013-7.147-2.866-10.707-1.4-1.08-2.814-2.133-4.214-3.186-3.146 4.12-2.56 9.506-2.613 14.373.133 3.867.04 7.853 1.253 11.587 4.227 2.2 9.68.973 13.48-1.627 4.6-4.04 5.227-10.613 7.454-16 1.08.053 3.226.147 4.306.2 2.907 10.587-.586 21.573-4.426 31.453-13.907-1.72-27.68 2.134-41.52 2.894-2.894-.334-2.547-3.76-2.494-5.907.787-3.813 4.414-6.507 4.734-10.533 2.04-15.027 1.6-30.24 1.626-45.373-.146-4.467-.16-9-1.146-13.387-.827-3.44-4.907-5.48-4.587-9.294.107-2.413.4-6.293 3.48-6.52 9.68-1.493 19.573-.36 29.267-1.666ZM293.96 55.567c3.707-6.987 9.826-13.654 18.053-14.72 4.8-.947 9.413 1.013 13.707 2.893 1.973-.587 3.907-1.36 5.973-1.627 5.307 6.067 6.16 14.854 5.574 22.587-.414 3.893-2.547 10.32-7.654 8.093-4.533-4.36-5.453-11.36-10.466-15.32-2.374-1.986-6.094-1.573-8.12.68-4.947 5.214-5.587 12.827-5.907 19.654-.067 9.68 1.013 19.666 5.253 28.493 1.587 3.627 5.093 5.747 8.64 7.093 2.48-3.28 4.107-7.4 2.813-11.52-1.906-1.346-4.119-2.186-5.933-3.653-2.2-4.027-1.08-10.013 3.214-12.173 5.76-3 12.866-3.094 18.92-.894 5.893 1.774 7.373 10.72 2.52 14.414-3.254 2.56-3.187 6.893-4.254 10.533-1.946 7.547-6.253 14.96-13.346 18.68-6.587 3.653-15.214 2.813-21.121-1.827-8.173-6.2-11.999-16.386-13.839-26.16-2.587-15.173-1.174-31.44 5.973-45.226ZM363.947 41.58c2.853-2.56 7.293-1.16 9.307 1.76 5.066 7.067 7.573 15.56 10.146 23.76 4.214 15.187 8 30.493 12.227 45.667.787 5.066 7.813 7.36 6.093 13.053-.373 4.067-4.666 5.84-8.253 5.853-5.8.134-11.747-.133-17.333-1.813-4.64-1.493-5.96-8.427-2.08-11.453 2.56-1.947 2.893-6.12.24-8.08-4.467-1.987-9.547-1.347-14.307-1.64-1.253 1.906-3.253 3.773-2.787 6.293 1.48 3.147 5.547 5.613 4.44 9.507-.413 3.946-4.72 5.546-8.146 5.68-3.974.146-8.28.12-11.8-1.947-2.32-2.533-2.4-7.333.306-9.653 1.974-2.08 4.214-4.12 4.974-7.014 2.693-8.333 4.626-16.88 6.893-25.333 2.427-9.813 5.56-19.6 5.6-29.8.093-5.16-.2-11.44 4.48-14.84Zm-2.653 51.333c3.493-.146 7.733 1.76 10.653-.773-.453-6.16-3-11.933-5.52-17.493-3.4 5.493-3.907 12.08-5.133 18.266ZM215.347 45.153c3.8-2.16 8.48-1.8 12.693-1.453 3.667.293 5.773 4.053 5.48 7.467.613 5.253-5.267 8.013-5.44 13.053-1.6 14.253-.72 28.653-1.267 42.973-.426 10.667.72 21.827-3.2 32-5.213.2-6.96-5.213-9.44-8.76-7.066-11.04-13.146-22.733-21.08-33.173-3.706 7.573-2.64 16.387-2.386 24.547-.414 5.586 6.28 9 4.56 14.706-.827 7.854-10.28 11.6-17.147 9.787-4.747-2.147-4.72-8.907-2.373-12.853 2.066-3.494 3.706-7.294 3.746-11.414.894-17.44 1.734-34.973.36-52.386.147-4.76-3.866-7.827-5.533-11.867-.413-3.907.307-8.893 4.173-10.867 3.4-1.626 7.334-2.026 11.04-1.586 3.84.92 5.32 5.053 7.32 8 5.947 9.68 10.987 20 17.934 29.013 3.333-.733 2.346-4.627 2.72-7.133-.027-5.747.826-12.16-3.014-16.987-2.906-3.72-2.72-9.867.854-13.067Z"/><path fill="#FDC800" d="M403.761 54.22c-2.974-3.227-2.08-8.947 1.826-10.987 4.307-1.48 8.814.227 13.214.227 6.093.333 12.333-1.653 18.333.093 6.427 2.494 10.667 8.92 11.907 15.534 2.333 10.133 1.053 21.56-5.96 29.626 1.84 3.627 5.427 6.094 7 9.894 2.933 6.906 2.627 14.573 4 21.84.8 3.56 5.013 5.48 5.066 9.346.12 3.147-.933 6.947-4.026 8.387-6.173 2.707-14.28 0-17.107-6.267-4.88-10.133-3.813-21.92-7.627-32.373-.746-2.32-3.28-3.093-5.08-4.373-.906 6.626-.76 13.333-.12 19.973.08 4.92 5.174 8.333 4.334 13.427.093 2.973-2.587 5.213-5.4 5.373-5.52.613-11.387.093-16.44-2.32-4.094-1.827-6.48-7.387-3.8-11.293 1.96-3.2 3.813-6.6 3.72-10.467.586-15.147.026-30.32-.214-45.467.04-3.733-1.266-7.293-3.626-10.173Zm21.973 2.427c-3.227 7.293-.906 15.746-1.573 23.52.773.626 2.346 1.88 3.12 2.506 5.28-3.933 4.827-11.04 4.333-16.88-.333-3.68-1.56-8.506-5.88-9.146ZM463.24 44.727c4.2-1.227 8.653.133 12.96.067 8.093.506 17.133-1.534 24.266 3.4 7.667 5.6 10.854 15.146 13.08 23.986 3.107 14.52 3.854 29.613 1.84 44.347-1.213 8-3.013 16.413-8.293 22.827-3.48 4.293-9.346 6.653-14.786 5.266-8.4-1.787-16.654-4.413-25.294-4.893-4.44.2-6.76-4.613-6.266-8.493-1.067-4.694 5.506-6.174 4.946-10.761.907-19.066.52-38.2-.067-57.28.107-3.906-3.613-6.146-4.866-9.52-.667-3.066-.493-7.106 2.48-8.946Zm21.306 16.107c-.346.32-1.039.973-1.399 1.293-.947 19.013.506 38.093.346 57.133.227 3.653.133 9.467 4.893 10.12 4.694.24 6.867-4.973 7.841-8.773 2.306-10.52 1.76-21.413 1.173-32.094-.76-8.133-1.28-16.746-5.44-23.986-1.534-2.307-4.454-5.174-7.414-3.694ZM152.814 50.5c2.987-4.44 9.187-4.16 13.893-3.68 3.627.08 5.534 3.76 5.64 6.973 1.107 6.547-5.88 10.68-5.653 17.107-1.787 24.253-.2 48.64-2.4 72.867-.613 2.933-.987 8.786-5.373 7.36-3.534-2.867-5-7.614-7.52-11.347-6.334-10.307-11.52-21.32-18.134-31.44-.56.04-1.653.133-2.2.187-2.186 8.706-1.746 17.906-1.28 26.8.067 4.88 5.08 8.186 4.414 13.186.56 8.627-8.6 15.254-16.64 13.667-3.547-.987-4.24-5.2-4.147-8.333-.24-5.774 4.707-10.134 4.827-15.88 1.226-14.694 1.306-29.454 1.266-44.187.014-7.053.12-14.187-1.2-21.147-1.613-4.573-6.28-8.186-4.84-13.573-.106-8.56 10.307-11.427 17.054-9.307 4.706 5.547 7.173 12.574 10.88 18.774 4.4 7.413 7.586 15.706 13.493 22.12 1.76-9.547 3.48-20.694-2.307-29.227-1.84-3.333-1.4-7.613.227-10.92ZM521.653 48.873c11.946-1 24.146 3.187 35.96-.04 3.373-1.48 4.186 3 5.026 5.307 2.307 9.253 3.534 19.36.16 28.52-6.213-2.707-4.76-11.24-9.733-15.147-2.853-1.986-6.56-2.733-9.96-2.213-4.133 2.8-2.707 8.28-3.013 12.493.493 5.654-1.4 12.64 3.453 16.854.933-.414 2.787-1.254 3.72-1.68.44-4.894.733-9.827 1.947-14.614 5.426 1.054 4.84 7.307 5.626 11.494 1.187 11.84 1.36 23.946-1.306 35.613-.974-.013-2.92-.027-3.894-.04-.706-4.133-.84-8.413-2.173-12.427-.667-2.133-3.28-4.946-5.373-2.706-1.347 7.813-.48 15.866.026 23.733-.773 8.547 13.894 11.987 16.92 3.987 2.054-4.934 2.574-10.4 5.187-15.134 4.52 3.56 4.72 9.627 4.533 14.907-.466 8.773-1.893 17.533-4.84 25.84-12.173-6.907-26.333-8.467-39.52-12.613-3.84-1-4.613-5.694-4.133-9.04 1.893-3.4 4.867-6.467 4.653-10.654 1.04-20.986.894-42.133-1.253-63.04.053-5.12-5.747-8.013-5.267-13.16-.16-2.44.52-5.56 3.254-6.24ZM572.24 52.394c3.24-1.867 7.2-1.36 10.76-.947 3.547.32 4.894 4.04 6.347 6.733a1298.426 1298.426 0 0 1 13.64 30.134c2.547 5.693 4.68 11.64 8.2 16.853C613.4 97.1 612.574 88.58 612 80.34c-.213-5.267-4.533-9.2-4.946-14.413-.467-3.694.16-7.787 2.706-10.654 4.014-1.413 8.574-.96 12.547.387 4.96 2.014 5.453 8.254 5.453 12.88.187 5.467-5.226 9.08-5 14.573-.706 15.56-.093 31.174-.306 46.76-.267 15.467 1.226 30.961-.374 46.401-.413 2.426-.453 5.706-3.493 6.239-2.173-2.28-3.24-5.306-4.373-8.173-6.734-17.546-13.814-34.933-21.16-52.227-1.04-2.586-2.68-4.853-4.6-6.853-2.294 9.467-1.254 19.36-.747 28.987.16 6.293 5.4 11.173 4.987 17.547-.12 3.159-.867 7.506-4.614 8.2-10.92 1.826-20.426-11.854-14.373-21.28 3.88-6 2.64-13.481 3.133-20.241-.293-16.96.014-33.986-1.813-50.88-.027-6.44-6.333-10.666-6.187-17.08.187-2.933.734-6.386 3.4-8.12ZM76.827 53.087c3.16-2.947 7.227.213 8.68 3.36C89.814 65.233 92.28 74.82 94.2 84.38c3.654 19.6 7.174 39.24 11.187 58.76.28 3.947 3.84 6.133 5.6 9.333.68 5.32-1.307 11.32-6.08 14.214-5.44 3.333-11.76 5.373-18.12 5.813-4.2.12-5.2-4.813-4.987-8.093-.133-5.36 5.707-9.054 4.32-14.587.04-2.373-2.48-3.853-4.626-3.533a32.916 32.916 0 0 0-10.107 2.893c-3.2 1.533-3.173 5.653-3.56 8.68-.667 4.28 5.333 6.16 4.333 10.653.534 9.4-8.653 15.96-17.346 16.014-3.494-.96-3.64-5.054-3.707-8.014-.493-6.52 5.467-10.893 6.467-17.066 4.173-19.854 7.32-39.907 10.946-59.854 1.747-9.386 2.667-18.92 2.667-28.48.08-6.293.747-13.453 5.64-18.026Zm-4.307 72.946c3.534.027 11.654-.186 10.134-5.586-.987-6.947-2.36-13.934-5.214-20.374-3.32 8.214-4.093 17.227-4.92 25.96ZM18.08 66.447c2.573-4.134 6.2-8.587 11.453-8.907 3.654.08 6.747 2.347 9.92 3.907 1.894-.587 3.787-1.12 5.707-1.614 5.12 12.427 8.227 27.094 3.147 40.027a406.55 406.55 0 0 1-4.04-.12c-3.094-5.867-4.52-13.187-10.04-17.373-2.187-1.8-4.427.973-5.134 2.906-1.92 5.52-2.093 12.814 2.414 17.134 4.4 3.653 10.213 5.786 13.333 10.84 5.4 8.453 6.427 18.826 6.36 28.64.107 15.586-2.813 31.72-11.147 45.106-4.186 6.734-11.533 12.8-19.933 11.72-4.293-.28-8.547-3.093-9.213-7.573-2.52-11.32-3.307-23.027-3-34.6.493-2.84.173-7.533 3.893-8.133 3.707 6.64 3.587 14.653 7.067 21.373 1.506 2.987 5.573 5.973 8.733 3.4 5.12-4.227 6.227-12.253 3.173-18-3.826-4.227-9.906-6-12.96-11.067-7.293-11.266-8.706-25.2-8.706-38.306.306-13.494 2.133-27.494 8.973-39.36ZM639.813 64.14c2.626-4.013 7.2-7.667 12.306-6.533 3.734 1.066 6.56 3.906 9.534 6.253 2.106-.027 5.453-2.04 6.066 1.107 4.694 11.533 6.147 24.32 5.134 36.68-.054 3.093-1.88 5.546-4.8 6.546-4.48-8.12-5.187-18.506-12.307-24.986-5.213-1.014-5.44 5.706-5.333 9.28-.107 11.666 12.013 17.093 16.293 26.8 8.267 17.053 8.547 36.8 6.04 55.253-1.32 7.867-3.267 16.707-9.893 21.88-4.494 3.28-10.4 1.307-14.494-1.627-7.373-5.173-13.88-12.706-15.053-21.946-1.693-10.68-3.24-21.587-2.187-32.414-.04-1.36 2.254-5.373 3.374-2.6 4.72 8.387 3.946 18.907 8.986 27.254 2.027 3.72 5.507 7.12 10.067 6.92 3.52-7.16 1.827-15.774-3.48-21.547-13.107-14.547-18.6-34.573-18.52-53.84.347-11.2 1.893-22.96 8.267-32.48ZM275.026 142.673c15.987 2.934 31.773-3 47.72-3.346 5.147 2.933 2.707 9.826 1.187 14.253-6.587 18.24-13.04 36.533-19.587 54.787-1.267 3.946-3.013 7.866-3.173 12.053 2.306 3.427 7.533 2.6 10.96 1.387 6.493-2.427 6.48-10.507 9.266-15.84 1.307-4.187 6.774-1.654 7.867 1.426 1.947 4.907 1.213 10.387.92 15.534-.987 6.626-2.387 14.013-7.533 18.76-16.72-2.52-33.72-.36-50.52-1.414-4.4-1.213-2.934-6.813-1.88-9.986 7.386-20.827 15.026-41.574 22.56-62.347.773-2.373 1.653-4.853 1.186-7.387-2.933-2.52-7.72-1.76-10.586.494-3.707 4.866-4.64 11.146-7.254 16.6-1.16.186-3.493.573-4.653.76-1.72-2.614-3.627-5.347-3.68-8.6-.547-9.494 2.333-19.04 7.2-27.134ZM372.146 141.033c5.146.067 10.106-1.52 15.24-1.693 4.466 7.427 5.946 16.547 4.373 25.027-.467 2.773-2.947 6.373-6.067 4.306-3.253-4.52-4.493-11.773-10.946-12.88-4.16-.546-10.627-2.506-13.227 1.934-1.32 6.973-1.333 14.266-.68 21.333.493 4.453 8.32 4.48 8.667-.147 1.2-4.08.36-9.266 3.96-12.266 3.226-.027 4.133 3.453 4.813 5.973 1.773 8.707 1.72 17.693.813 26.507-.693 4.226-1.013 9.186-4.546 12.16-1.8.133-3.587-.72-3.414-2.76-1.12-4.054-.413-11.014-5.799-11.974-3.387-1.133-3.787 2.974-4.081 5.32-.346 6.92-.24 13.96.974 20.787.306 2.16 2.693 2.773 4.52 3.04 4.84.453 10.427.52 14.293-2.907 4.413-4 4.773-10.413 7.76-15.293 1.28-1.893 4.24-1.76 5.147.467 2.08 3.373 1.973 7.573 1.533 11.373-1 7.92-3.067 15.8-6.92 22.84-16.787-3.373-34-.733-50.947-1.893-3.6-.414-4.04-4.867-3.76-7.694 1.147-3.333 5.04-5.12 5.667-8.733 1.733-9.907 1.613-20.027 1.92-30.053-.613-11.52.267-23.16-1.773-34.56-.454-5-7.387-6.867-6.507-12.214.32-2.186.973-5.226 3.48-5.826 11.8-1.334 23.68-.28 35.507-.174ZM403.081 143.26c4.653-1.707 9.533.187 14.226.813 7.294 1.427 14.787.2 22.12 1.4 8.454 1.52 15.534 8.24 18.12 16.36 2.2 7.067 2.08 14.947-.72 21.84-1.48 3.707-4.8 6.12-7.213 9.174 1.533 3.8 5.853 5.4 7.867 8.906 3.84 6.427 3.52 14.174 4.72 21.32.48 3.627 4.4 5.214 6.013 8.214 1.28 4.973-2.48 9.986-7.307 11.093-6.48 1.76-15.226 1.493-18.96-5.067-5.306-9.6-4.506-21.066-7.693-31.333-.8-3-3.627-6.107-7-5.2-2.013 6.787-1.147 14.067-.68 21.013.16 4.947 6.427 7.8 5.053 13.094-.44 4.92-5.96 6.386-10.04 6.76-6.653.306-14.053 1.08-19.933-2.68-4.107-2.76-4.173-9.054-.813-12.454 4.68-5.306 3.813-12.733 4.2-19.266.08-12.48.573-24.947.44-37.427-.134-3.213-.094-6.533-1.107-9.627-1.347-2.933-3.973-5.053-5.28-8.013-1.107-3.387.653-7.533 3.987-8.92Zm24.52 15.96c-1.454 8.267-1.84 16.76-1.267 25.12 1.773 3.04 6.827 1.347 7.867-1.627 2.48-6 2.52-13.053.36-19.146-.747-3.334-4.08-4-6.96-4.347ZM210.226 151.3c16.2 1.333 31.547-5.653 47.44-7.44 3.84 1.573 3.174 6.587 2.374 9.853-7.6 22.987-16.867 45.44-24.027 68.574 4.52 2.16 10.267 2.306 14.36-.854 4.36-4.053 3.88-10.866 7.627-15.306 3.426-2.36 7.013 1.786 7.48 5.066 1.04 8.68.293 17.84-3.507 25.814-1.013 1.866-2.24 4.253-4.613 4.506-16.747-1.88-33.68.107-50.48-.946-3.28-1.814-2.08-6.28-1.12-9.147 8.173-21.307 16.826-42.467 24.04-64.12-3.16-2.787-7.654-2.627-10.88-.013-4.574 4.573-4.24 12.026-8.587 16.733-4.173 1.92-6.72-4.053-7.227-7.387-.506-8.893 2.494-17.813 7.12-25.333ZM474.054 154.46c9.92-2.493 20.974-1.64 29.854 3.68 2.933 1.667 4.839 5.387 3.813 8.707-2.214 3.066-6.44 5.053-6.4 9.346-1.267 15.174-1 30.467-.56 45.68-.267 5.467 7.786 7.467 6.093 13.2-1.04 4.667-6.533 5.52-10.453 6.347-6.934.933-14.534 1.653-21.014-1.48-3.946-2.013-4.333-7.653-1.133-10.507 4.533-4.413 3.867-11.093 4.253-16.866.24-13.374 1.481-26.814-.133-40.147-.453-4.32-4.147-7.147-5.907-10.893-1.16-2.48.734-4.84 1.587-7.067ZM183.481 156.06c4.08-.84 8.413-1.48 12.52-.4 3.013.867 4.773 4.347 3.933 7.32-1.373 2.907-4.2 4.867-5.413 7.867-1.067 3.106-1.014 6.453-1.067 9.706.08 13.694-.227 27.427 1.067 41.08-.014 3 2.36 4.947 4.36 6.814 3.373 2.68 2.586 9.093-1.427 10.893-6.16 2.893-13.24 2.987-19.92 2.76-3.787-.427-8.493-.8-10.733-4.347-2.107-3.36 1.186-6.453 2.946-9.066 2.827-3.414 1.854-8.174 2.094-12.254-.374-12.493.786-25.093-.934-37.52-.186-5.24-8.48-6.68-6.226-12.48 4.053-6.24 12-8.453 18.8-10.373ZM537.906 166.26c3.76-2.36 8.506-.547 11.68 1.987 4.573 3.84 7.04 9.466 9.56 14.733 6.813 15.147 12.48 30.787 19.213 45.96 1.147 3.28 5.253 3.6 7.133 6.213.88 3.427-2.546 5.694-5.453 6.294-7.893 1.653-16.093 1.146-24.067.346-2.84-.373-6.693-1.013-7.28-4.44-1.213-3.626 3.387-5.173 5.134-7.6.56-5.706-7-5.36-10.907-6.053-4.08.04-11.187-2.227-12.36 3.44-1.013 2.373 2.427 3.4 3.533 5.053 2.907 1.84 2.134 6.654-.866 8.027-4.734 2.72-10.507 2.013-15.72 1.8-3.4-.227-8.36-1.28-8.387-5.587-.627-5.093 5.787-6.253 7.933-9.96 3.787-7.173 6.067-15.013 9.16-22.493 3.227-8.92 7.707-17.68 7.934-27.36.346-3.613-.094-8.453 3.76-10.36Zm2.96 28.907c-1.4 4.573-5.454 9.6-3.534 14.4 3.707.506 8.827 2.773 11.814-.027-1.614-5.173-2.894-11.853-8.28-14.373ZM126.333 172.193c6.6-2.373 13.226-6.093 20.48-5.146 5.693.586 10.946 4.48 12.786 9.946 4.12 12.187.747 27.974-11.146 34.52-5.627 3.64-12.507 2.894-18.827 3.88-.68 5.747-1.56 13.4 4.347 16.774 2.48 1.306 3.2 5.2.56 6.733-6.014 4.387-14.08 3.56-21.107 3.28-3.96-.493-9.733-.947-10.72-5.747 1.387-3.506 6.52-4.866 6.24-9.186.507-8.907.027-17.827.227-26.734-.094-4.226.573-8.866-1.974-12.546-1.906-.8-4.706-.307-5.986-2.187-.974-3.333 2.16-5.88 4.893-7.04 6.64-2.453 13.627-3.92 20.227-6.547Zm4.986 8.974c-.44.186-1.306.586-1.733.786-.72 6.454-.893 13.134.04 19.56 1.32 3.787 6.253 1.574 8.24-.533 3.84-4.72 4.227-11.867 1.573-17.267-1.36-3.066-5.253-3.826-8.12-2.546Z"/></g><defs><clipPath id="a"><path fill="#fff" d="M.146.5h684v252h-684z"/></clipPath></defs></svg>