<svg xmlns="http://www.w3.org/2000/svg" width="928" height="230" fill="none"><path fill="#1D1D1B" d="M121.867.777C132-.943 145.707 4.27 146.587 15.87c.066 10.16-10.894 16.12-19.974 16.12-9.066.48-20.146-4.6-21.373-14.533-.853-9.24 8.32-15.72 16.627-16.68ZM759.853.017c15.774-.014 31.56-.027 47.334 0-.014 47.266.013 94.546-.014 141.813-15.773.013-31.546.013-47.306 0-.027-47.28-.027-94.547-.014-141.813ZM880.68.017c15.747-.027 31.493-.014 47.253-.014-.013 45.68.027 91.347-.026 137.014-16.107 6.16-33.547 7.453-50.64 7.493-14.667.027-30.107-1.907-42.68-10.013-9.44-5.974-15.987-15.92-18.36-26.774-3-13.706-2.067-28.76 4.866-41.186 5.454-9.96 14.8-17.614 25.534-21.294 10.906-3.76 22.76-3.546 34.053-1.88V.017Zm-15.6 74.626c-3.2 11.574-3.227 24.414.453 35.88 1.92 6.4 8.974 9.04 15.12 7.68.04-17.546.054-35.093 0-52.626-6.72-1.494-13.88 2.213-15.573 9.066ZM12.827 31.603C22.933 19.497 39.32 14.523 54.68 14.79c11.973.293 24.48 1.707 35.093 7.64-3 7.333-5.586 14.813-8.466 22.187-8.96-4.08-19.28-7.054-29.054-4.24-4.586 1.266-8.893 5.226-8.68 10.306-.066 5.454 4.734 9.12 9.147 11.32 10.747 5.44 23.093 8.574 31.733 17.454 8.52 8.52 10.614 21.746 7.907 33.146-2.853 11.44-11.667 20.654-22.107 25.707-10.933 5.52-23.44 6.76-35.52 6.04-11.426-.573-23.12-2.093-33.52-7.187 3.12-8.44 5.934-16.973 9.28-25.32 8.174 4.174 17.507 6.374 26.694 5.667 5.306-.427 11.386-2.973 13.053-8.507 1.6-4.906-1.467-9.88-5.56-12.44C34.04 89.67 20.787 86.75 12 77.097c-11.44-12.414-9.84-33.094.827-45.494ZM384.093 17.657c16.334-.36 32.68-.054 49.027-.16 3.4 22.96 7.187 45.866 10.2 68.88 3.907-23.214 10.413-45.894 15.48-68.88 11.48 0 22.96 0 34.44.013 5.147 23.2 11.387 46.187 15.44 69.613-.04-6.453 1.107-12.813 2.067-19.16 2.613-16.813 5.186-33.64 7.826-50.453 15.227-.013 30.467-.027 45.707 0-10.413 41.44-20.88 82.867-31.307 124.307-14.64.04-29.28.026-43.92.013-4.106-14.12-8.146-28.253-12.24-42.373-1.36-4.547-2.173-9.214-2.746-13.907-3.534 19.053-9.707 37.493-14.454 56.267-14.64.04-29.28.026-43.92.013-10.6-41.373-20.853-82.84-31.6-124.173ZM604.693 42.403c15.387-1.8 31.8-.373 45.454 7.494 10.76 6.093 18.786 16.72 21.706 28.733 4.427 17.64.774 38.307-12.906 51.067-12.414 11.76-30.334 15.52-46.96 14.72-15.96-.494-32.68-6.227-42.974-18.974-12.546-15.626-13.906-38.693-5.373-56.493 7.56-15.587 24.333-24.627 41.053-26.547Zm7.774 26.294c-5.107 3.693-5.134 10.813-5.747 16.506-.2 8.934-.893 18.374 2.613 26.814 1.734 4.533 8.28 6.053 11.587 2.346 3.893-4.666 3.92-11.186 4.347-16.973.093-8.187.52-16.733-2.44-24.52-1.374-4.107-6.507-6.6-10.36-4.173ZM680.68 49.243c23.547-8.333 49.173-8.44 73.8-6.493-2.6 9.347-5.253 18.693-7.88 28.04-5.813-2.6-12.227-3.947-18.587-2.96-.013 24.667.014 49.333-.013 74a28691.7 28691.7 0 0 1-47.307 0c-.026-30.867-.013-61.72-.013-92.587ZM106.613 44.417h38.56c.027 32.466.014 64.946 0 97.413-12.853.013-25.706.013-38.56 0-.013-32.467-.026-64.947 0-97.413ZM179.32 52.763c13.453-7.693 29.507-8.84 44.667-8.173 11.36.667 22.866 2.067 33.533 6.227-.04 30.6.053 61.2-.053 91.8.04 9.506-3.494 19.226-10.734 25.586-10.173 9.067-24.253 11.974-37.48 12.56-15.653.32-31.573-1.12-46.4-6.386 2.44-5.587 4.814-11.214 7.187-16.827 10.88 3.653 22.453 5.413 33.92 4.773 6.333-.426 13.373-2.16 17.307-7.56 4.013-5.44 2.84-12.533 3-18.84-9.48 4.147-20.2 4.267-30.32 3.08-11.76-1.653-23.254-7.813-29.68-18.026-7.867-12.294-8.294-27.947-4.84-41.76 2.773-11 9.946-20.88 19.893-26.454Zm19.32 12.6c-6.44 7.707-7.173 18.32-7.36 27.934.093 9.266.8 19.586 7.16 26.906 6.413 7.107 17.533 7.307 25.84 3.72-.013-20.866-.027-41.72.013-62.586-8.32-3.574-19.386-3.227-25.653 4.026ZM276.773 50.99c18.227-5.773 37.6-7.24 56.614-6.307 10.84.827 22.36 2.454 31.253 9.227 6.013 4.467 8.88 12.08 8.853 19.413.054 21.947.014 43.894.014 65.84-11.107 0-22.214.014-33.32-.013-.014-21.493.04-43-.027-64.493.253-5.2-2.627-10.48-7.533-12.48-7.16-2.947-15.214-1.787-22.454.253 0 25.587.027 51.173-.013 76.747-11.133-.027-22.253 0-33.387-.014 0-29.4-.013-58.786 0-88.173Z"/><path fill="#008ACC" d="M.013 162.59c54.04.04 108.094-.04 162.147.013-2.08 4.934-4.173 9.854-6.267 14.774 15.147 6.426 31.734 8.546 48.08 8.733 11.36.093 22.947-1.32 33.467-5.84 8.413-3.533 15.933-9.573 20.373-17.627 222.934-.12 445.867-.026 668.787-.053v66.747c-299.093.013-598.2-.014-897.293-.067-7.414.12-15.147-2.187-20.427-7.587C2.907 215.67.067 207.017 0 198.643c0-12.013 0-24.04.013-36.053Zm432.867 14.347c-4.8 3.373-6.507 10.773-2.853 15.56 4.173 5 11.453 5.08 16.253 9.16 2.853 2.666 1.6 7.693-1.68 9.44-4.76 2.813-10.56 1.36-15.44-.374a886.691 886.691 0 0 0-2.253 5.307c7.68 2.747 17.04 3.907 24.226-.733 5.494-3.36 7.507-11.44 3.68-16.747-4.08-5.107-11.293-5.28-16.333-8.973-3.36-2.44-2.12-7.947 1.387-9.6 4.28-2.294 9.306-.88 13.573.68.68-1.587 1.373-3.187 2.067-4.774-7.147-2.826-16.107-3.76-22.627 1.054Zm171.88-1.027c.013 13.373.027 26.747 0 40.12 10.52 3.467 24.8 4.373 32.28-5.4 6.093-9.173 6.08-23.147-1.747-31.333-8.173-7.494-20.68-6.627-30.533-3.387Zm263.173 0v40.133c8.36 2.68 17.694 3.374 26.12.587 5.654-1.72 9.414-8.12 7.4-13.84-1.44-4.333-5.8-6.48-9.72-8.093 3.654-1.387 7.707-3.72 8.307-7.987 1.32-5.547-3.2-10.48-8.28-11.813-7.773-2.24-16.213-1.507-23.827 1.013Zm-390.946-1.48c4.173 14.36 8.4 28.707 12.573 43.067h7.2c3.053-10.387 6.387-20.68 9.253-31.12 3.347 10.346 6.294 20.813 9.654 31.146 2.36-.026 4.72-.026 7.093-.04 4.173-14.333 8.333-28.68 12.453-43.04-2.586-.013-5.173-.04-7.746-.08-2.934 11.134-6.254 22.214-8.4 33.547-2.947-11.227-6.427-22.32-9.64-33.467-2-.026-3.974-.04-5.947-.053-3.227 11.253-6.947 22.373-9.587 33.773-2.4-11.333-5.52-22.506-8.28-33.746-2.88 0-5.76 0-8.626.013Zm79.96 0c-.014 14.36-.014 28.707 0 43.067h25.306c0-1.254.014-3.747.014-4.987-5.627 0-11.24-.027-16.854.027-.12-4.907-.08-9.8-.053-14.707h15.067v-4.893c-5.027-.014-10.054-.014-15.08-.014-.027-4.506-.027-9.026.04-13.533 5.626.04 11.253.027 16.88.027 0-1.254 0-3.747-.014-4.987-8.44 0-16.866-.013-25.306 0Zm107.746 0c-.013 14.36-.013 28.707 0 43.053 8.44.014 16.867.014 25.307 0 0-1.24.013-3.733.013-4.973-5.586.013-11.173-.067-16.746.067-.294-4.907-.147-9.827-.16-14.734 5.026-.026 10.053.027 15.08-.066 0-1.2-.014-3.614-.014-4.814-5.026-.066-10.053-.026-15.066-.04 0-4.533-.12-9.066.173-13.586 5.573.146 11.147.066 16.733.08 0-1.254 0-3.734-.013-4.987h-25.307Zm47.84 42.893c2.374.12 4.76.174 7.147.187-.053-11.12.147-22.24-.147-33.347 7.347 10.48 14.934 20.787 22.347 31.227 1.533 3.36 5.587 1.773 8.467 2.093v-43.04c-2.36 0-4.72-.013-7.067 0 0 10.454-.053 20.907.053 31.36-7.733-10.426-15.133-21.093-22.986-31.426-2.547.04-5.08.04-7.614 0-.346 14.32.054 28.64-.2 42.946Zm90.614.174c2.786.013 5.586-.014 8.4-.147 1.373-3.88 2.853-7.72 4.506-11.493 5.68.08 11.36.08 17.054 0 1.653 3.76 3.146 7.6 4.52 11.48 3.066.16 6.133.186 9.213.133-5.907-14.347-11.973-28.64-17.867-42.987a520.34 520.34 0 0 0-7.893-.053c-5.987 14.347-12 28.693-17.933 43.067Z"/><path fill="#008ACC" d="M613.4 179.043c4.533-.653 9.667-1.093 13.573 1.8 4.707 3.414 5.68 9.734 5.614 15.16-.067 5.107-.827 10.96-4.987 14.467-4.053 3.24-9.693 3.067-14.453 1.733.213-11.053-.254-22.12.253-33.16ZM876.08 178.763c4.147-.853 8.733-1.48 12.667.534 4.453 2.266 4.533 9.973 0 12.173-3.894 1.973-8.414 1.587-12.627 1.613-.067-4.773-.053-9.546-.04-14.32ZM817.213 201.577c2.48-6.92 5.28-13.747 7.427-20.8 2.053 7.066 4.853 13.866 7.32 20.8-4.92.013-9.84.013-14.747 0ZM876.187 196.803c4.426.107 9.093-.213 13.226 1.707 5.36 2.347 5.507 11.4.134 13.813-4.187 2.027-9 1.387-13.4.56-.107-5.36-.147-10.72.04-16.08Z"/><path fill="#FFED00" d="M432.88 176.937c6.52-4.814 15.48-3.88 22.627-1.054a702.178 702.178 0 0 0-2.067 4.774c-4.267-1.56-9.293-2.974-13.573-.68-3.507 1.653-4.747 7.16-1.387 9.6 5.04 3.693 12.253 3.866 16.333 8.973 3.827 5.307 1.814 13.387-3.68 16.747-7.186 4.64-16.546 3.48-24.226.733a886.691 886.691 0 0 1 2.253-5.307c4.88 1.734 10.68 3.187 15.44.374 3.28-1.747 4.533-6.774 1.68-9.44-4.8-4.08-12.08-4.16-16.253-9.16-3.654-4.787-1.947-12.187 2.853-15.56ZM604.76 175.91c9.853-3.24 22.36-4.107 30.533 3.387 7.827 8.186 7.84 22.16 1.747 31.333-7.48 9.773-21.76 8.867-32.28 5.4.027-13.373.013-26.747 0-40.12Zm8.64 3.133c-.507 11.04-.04 22.107-.253 33.16 4.76 1.334 10.4 1.507 14.453-1.733 4.16-3.507 4.92-9.36 4.987-14.467.066-5.426-.907-11.746-5.614-15.16-3.906-2.893-9.04-2.453-13.573-1.8ZM867.933 175.91c7.614-2.52 16.054-3.253 23.827-1.013 5.08 1.333 9.6 6.266 8.28 11.813-.6 4.267-4.653 6.6-8.307 7.987 3.92 1.613 8.28 3.76 9.72 8.093 2.014 5.72-1.746 12.12-7.4 13.84-8.426 2.787-17.76 2.093-26.12-.587V175.91Zm8.147 2.853c-.013 4.774-.027 9.547.04 14.32 4.213-.026 8.733.36 12.627-1.613 4.533-2.2 4.453-9.907 0-12.173-3.934-2.014-8.52-1.387-12.667-.534Zm.107 18.04c-.187 5.36-.147 10.72-.04 16.08 4.4.827 9.213 1.467 13.4-.56 5.373-2.413 5.226-11.466-.134-13.813-4.133-1.92-8.8-1.6-13.226-1.707ZM476.987 174.43c2.866-.013 5.746-.013 8.626-.013 2.76 11.24 5.88 22.413 8.28 33.746 2.64-11.4 6.36-22.52 9.587-33.773 1.973.013 3.947.027 5.947.053 3.213 11.147 6.693 22.24 9.64 33.467 2.146-11.333 5.466-22.413 8.4-33.547 2.573.04 5.16.067 7.746.08-4.12 14.36-8.28 28.707-12.453 43.04-2.373.014-4.733.014-7.093.04-3.36-10.333-6.307-20.8-9.654-31.146-2.866 10.44-6.2 20.733-9.253 31.12h-7.2c-4.173-14.36-8.4-28.707-12.573-43.067ZM556.947 174.43c8.44-.013 16.866 0 25.306 0 .014 1.24.014 3.733.014 4.987-5.627 0-11.254.013-16.88-.027a649.487 649.487 0 0 0-.04 13.533c5.026 0 10.053 0 15.08.014v4.893H565.36c-.027 4.907-.067 9.8.053 14.707 5.614-.054 11.227-.027 16.854-.027 0 1.24-.014 3.733-.014 4.987h-25.306c-.014-14.36-.014-28.707 0-43.067ZM664.693 174.43H690c.013 1.253.013 3.733.013 4.987-5.586-.014-11.16.066-16.733-.08-.293 4.52-.173 9.053-.173 13.586 5.013.014 10.04-.026 15.066.04 0 1.2.014 3.614.014 4.814-5.027.093-10.054.04-15.08.066.013 4.907-.134 9.827.16 14.734 5.573-.134 11.16-.054 16.746-.067 0 1.24-.013 3.733-.013 4.973-8.44.014-16.867.014-25.307 0-.013-14.346-.013-28.693 0-43.053ZM712.533 217.323c.254-14.306-.146-28.626.2-42.946 2.534.04 5.067.04 7.614 0 7.853 10.333 15.253 21 22.986 31.426-.106-10.453-.053-20.906-.053-31.36 2.347-.013 4.707 0 7.067 0v43.04c-2.88-.32-6.934 1.267-8.467-2.093-7.413-10.44-15-20.747-22.347-31.227.294 11.107.094 22.227.147 33.347a158.805 158.805 0 0 1-7.147-.187ZM803.147 217.497c5.933-14.374 11.946-28.72 17.933-43.067 2.627 0 5.253.013 7.893.053 5.894 14.347 11.96 28.64 17.867 42.987-3.08.053-6.147.027-9.213-.133-1.374-3.88-2.867-7.72-4.52-11.48-5.694.08-11.374.08-17.054 0-1.653 3.773-3.133 7.613-4.506 11.493-2.814.133-5.614.16-8.4.147Zm14.066-15.92c4.907.013 9.827.013 14.747 0-2.467-6.934-5.267-13.734-7.32-20.8-2.147 7.053-4.947 13.88-7.427 20.8Z"/></svg>