<svg xmlns="http://www.w3.org/2000/svg" width="300" height="88" fill="none"><path fill="#EF9721" d="M110.425.452c26.8-1.533 54.613.44 79.213 12.054 3.787 1.586 7.12 4.533 11.387 4.786 11.693 1.014 23.253 3.08 34.693 5.574 11.373-.734 23.173 2.226 31.773 9.986l-5.346-.533c4.106 1.613 7.773 4.147 10.96 7.16-18.147-.093-36.307.16-54.454-.107-28.026-16.266-62.146-24.253-94.04-15.933-6.773-9.013-16-17.627-27.72-18.853-11.573-.16-22.413 5.04-31.933 11.173 16.44 9.213 35.88 8.853 54.147 8.667-18.52 4.053-37.854 2.96-56.52.426 2.52.774 5 1.72 7.586 2.28 17.934 3.814 35.747 8.254 53.68 12.04-19.653-2.04-39.16-5.48-58.813-7.613-4.827-.6-9.787 2.507-9.987 7.64-6.56-5.6-16.04-4.213-22.76.307-.52-5.147 1.667-9.76 4.907-13.587 2.76-5.333 9.533-4.627 14.493-6.067 6.494-2.506 11.947-7 18.24-9.906C82.278 3.159 96.505.906 110.425.452Zm5.026 3.894c4.974 5.426 11.654 8.986 17.36 13.613 19.214-1.12 38.44-1.587 57.68-1.213-13.28-7.054-27.92-11.547-42.866-13.254-10.667-1.226-21.68-2.053-32.174.854Z"/><path fill="#EF9721" d="M136.838 25.772c17.013-3.36 34.707-.453 50.667 5.907 4.866 1.973 9.68 4.28 13.64 7.787-7.84.013-15.667.066-23.507-.054-3.96-4.84-9.253-8.586-15.387-10.053 4.52 2.68 9.134 5.52 11.96 10.107-2.88-.24-6.466 1.053-8.546-1.6-3.427-3.294-7.76-5.694-12.534-6.16-5.266-.854-10.16 1.706-14.773 3.853 2.307-3.587 5.547-6.4 9.093-8.733-3.533-.454-7.066-.827-10.613-1.054Z"/><path fill="#FAFAFA" d="M100.238 55.012c.307-2.253 3.64-1.533 4.2.227-4.347 2.16-3 7.627-3.387 11.6-.04-3.96-.866-7.867-.813-11.827Z"/><path fill="#EF9721" d="M19.398 78.066c1.6-1.374 3.773-1.267 5.747-1.267 11 .08 22 .027 33.013.04l.093 1.453c-12.946-.106-25.92.334-38.853-.226ZM244.585 77.386c12.933-1.214 26.013-.227 39.013-.534l-.04 1.44c-11.04.08-22.067-.026-33.107.067-2.013.12-4-.24-5.866-.973Z"/><path fill="#FAFAFA" d="M73.891 44.852c.96-2.933 3.814-2.666 6.147-2.613-.133 2.267 1.307 5.347-2.387 6.053.24-1.146.72-3.44.947-4.6-1.173.294-3.52.867-4.707 1.16Z" opacity=".98"/><path fill="#FAFAFA" d="M76.305 45.772c.48.48.48.48 0 0ZM2.211 48.799c7.734-.907 15.614-.133 23.4-.373a176.121 176.121 0 0 1-.106 3.746c-7.16.04-14.32-.013-21.48.027 0 .853-.014 2.547-.014 3.387 5.68.066 11.36-.08 17.054.026 6.346-.906 6.426 11.84.053 10.827-6.987.027-13.973.04-20.947-.067.027-.88.094-2.626.12-3.493 7.134-.093 14.254.133 21.374-.093.08-.867.213-2.587.28-3.44-5.654-.08-11.32.053-16.987-.027-5.653.92-6.333-7.973-2.747-10.52ZM54.758 48.292c1.32.107 2.64.24 3.947.387-1.027 2.84-2.307 5.627-2.907 8.6.547 3.213 1.907 6.213 2.76 9.36-1.013-.093-3.04-.253-4.053-.333-.8-2.347-1.6-4.68-2.427-7.014-5.227.054-10.453.027-15.68.014.04 2.36.053 4.706.08 7.066-.933.027-2.813.067-3.747.08.054-5.933-.133-11.88.08-17.813.894-.107 2.694-.307 3.587-.4.027 2.453.04 4.92.027 7.373 5.213-.013 10.413-.053 15.626.054.88-2.467 1.787-4.92 2.707-7.374ZM97.518 48.226c1.573.253 3.387-.054 4.707 1.053a894.556 894.556 0 0 1 16.746 12.48c.107-4.493.067-8.973.107-13.467.907.08 2.72.227 3.627.307.213 6.04.066 12.093.026 18.147-1.973-.294-4.173-.174-5.693-1.694-4.133-3.106-8.387-6.08-12.4-9.36l-.2-.453c-.56-1.76-3.893-2.48-4.2-.227-.053 3.96.773 7.867.813 11.827l-3.533-.64c-.187-5.987-.067-11.987 0-17.973ZM130.185 50.599c.813-1.507 2.426-2.32 4.133-2.147 7-.106 14.013-.013 21.013-.013-.066 1.253-.146 2.507-.226 3.773-7.147-.04-14.28-.066-21.427.014-.04.826-.107 2.506-.147 3.346 6.734.054 13.454.014 20.187.027-.04.88-.093 2.667-.133 3.547-6.707.44-13.454.04-20.187.2.133.853.373 2.573.507 3.426 7.12.267 14.24-.013 21.373.12 0 .88.027 2.627.04 3.494-7.467-.054-14.947.333-22.4-.054-1.827.094-3.147-2.093-2.96-3.746-.067-3.987-.267-8.014.227-11.987ZM241.731 48.426c6.894.013 13.787-.067 20.68.013 6.387-.707 6.44 10.387.72 11.373.854 2.214 1.64 4.454 2.507 6.68a436.828 436.828 0 0 1-4.267-.173c-.786-2.36-1.6-4.707-2.426-7.04-4.507.067-9.014.053-13.52.027.013 2.453-.014 4.893-.027 7.346-.933-.08-2.787-.24-3.707-.333.054-5.96.014-11.933.04-17.893Zm3.694 3.746c0 .854-.014 2.574-.014 3.44 5.987-.04 11.987.027 17.974-.066-.014-.827-.027-2.494-.027-3.32-5.973-.08-11.96-.014-17.933-.054ZM64.865 66.452c.68-5.666-1.627-12.186 1.373-17.293 4.693-1.64 9.88-.24 14.787-.72 2.906.307 7.266-1.187 8.893 2.12.627 5.253.16 10.573.253 15.853-.88.04-2.626.134-3.506.174-.04-2.427-.067-4.84-.054-7.254-6.026-.013-12.04 0-18.066-.013.026 2.347.053 4.707.066 7.067-.933.013-2.813.053-3.746.066ZM68.25 55.52c6.107.147 12.227.053 18.347.067.013-1.094.027-2.2.053-3.294-5.866-.106-11.733-.253-17.586-.013a10.156 10.156 0 0 0-.814 3.24ZM176.625 57.266c.266-3.027-1.067-7.88 3.04-8.72 7.48-.32 14.986-.04 22.48-.107-.08.907-.227 2.733-.307 3.64-7.107.2-14.24.067-21.36.04-.12 3.573-.12 7.147-.067 10.733 7.2.36 14.587-.626 21.667.48-.027.814-.067 2.427-.093 3.24-7.867-.533-15.84.467-23.64-.546-2.6-2.16-1.427-5.84-1.72-8.76ZM209.371 51.719c-.133-1.893 1.867-3.507 3.694-3.24 5.8-.133 11.613-.107 17.413-.027 2-.226 3.907 1.294 4.04 3.32.293 4.907.053 9.814.093 14.72-5.266 1.654-3.546-4.146-3.773-7.186-6 .04-12 0-18 .026 0 2.374 0 4.734-.013 7.107-.88 0-2.64.013-3.52.027.013-4.92-.174-9.84.066-14.747Zm3.4.587c.027 1.093.067 2.186.094 3.266 6.013.04 12.04.027 18.066.014l-.106-3.36c-6.014-.04-12.04-.134-18.054.08ZM278.278 59.279c-5.893.413-5.787-11.32.12-10.827 7.067-.12 14.147-.013 21.227-.013l-.32 3.653c-7.12.254-14.254-.053-21.387.174v3.266c6.36.24 12.747-.2 19.107.227 3.653 1.693 3.8 9 .013 10.533-7.547.28-15.133.24-22.693 0-.08-.84-.254-2.506-.334-3.346 7.2-.294 14.414.226 21.614-.254.133-.826.4-2.466.546-3.293-5.973-.2-11.933.053-17.893-.12ZM156.238 75.332c4.907.04 9.813-.013 14.72.08.333 2.614.493 5.267 1.187 7.827-1.334-.16-2.667-.307-4-.453l.653-1.094c-3.413.294-6.853.267-10.28.227.027.52.08 1.56.093 2.093 4.56-.16 9.147-.16 13.627.8-4.8 2.8-10.707 1.04-16.013 1.427 0-3.64 0-7.28.013-10.907Zm2.373 2.16c-.04.56-.106 1.667-.146 2.227 3.573.04 7.146.04 10.72.053l-.054-2.266c-3.506.013-7.013.013-10.52-.014ZM130.038 75.532c4.72-.266 9.453-.173 14.187-.186 1.306 3.533.906 7.333.693 11.013-.547-.04-1.613-.133-2.16-.173 0-1.067 0-3.2.013-4.254-3.56 0-7.106 0-10.666-.04-.294 1.894.466 4.494-2.054 5.2-.36-3.853-.333-7.706-.013-11.56Zm2.347 2.094c-.24.493-.734 1.466-.987 1.96 3.88.226 7.773.186 11.667.16-.2-.534-.6-1.6-.787-2.134-3.293-.2-6.6-.24-9.893.014Z" opacity=".98"/></svg>