<svg xmlns="http://www.w3.org/2000/svg" fill="none" viewBox="0 0 1001 417"><path fill="#fff" d="M106.16 47.297c5.453-17.374 13.333-34.894 27.307-47.094 17.24 26.56 30.333 57.547 28.493 89.773 279.64-.053 559.267.027 838.91-.026-.04 82.866-.02 165.733-.02 248.6-283.423-.027-566.85.026-850.277-.027 2.054 14.72 7.12 30.053 1.734 44.653-8.307 25.92-40.32 40.52-65.4 30.374-20.72-8.534-28.694-37.04-16.854-55.627 6.36-10.107 21.307-14.573 31.44-7.4 11.76 8.28 16.174 25.307 10.32 38.373-4.546 9.587-14.773 14.92-24.853 16.667 10.36 5.36 22.96 6.4 33.813 1.853 16.587-6.293 29.6-23.386 28.08-41.56-1-9.16-2.84-18.213-4.28-27.306-47.88 0-95.76-.027-143.64.013.014-82.867 0-165.747 0-248.613 32.854.053 65.707-.014 98.56.026.12-14.44 2.08-28.96 6.667-42.68Zm17.267-2.96c-8.574 13.706-11.88 29.88-14.427 45.626 11.32-.08 22.64.174 33.96-.146 9.107-13.84 10.733-31.84 5.027-47.294-1.96-4.96-6.414-10.28-12.307-9.533-5.707 1.453-9.093 6.813-12.253 11.346ZM4.52 93.523c-.027 19.573 0 39.16-.027 58.747 26.267.04 52.52-.04 78.787.04 6.68-7.32 13.947-14.094 20.84-21.214-3.027-12.28-4.56-24.906-4.627-37.56-31.653 0-63.32.027-94.973-.013Zm104.973 33.507c10.76-10.68 21.694-21.307 30.734-33.507-10.654.027-21.32.014-31.974.014-2.04 11.106-.666 22.466 1.24 33.493Zm22.68 25.253h493.014c1.626-2.867 3.893-6.147 7.613-6.027 4.213-.68 7.6 2.414 9.2 6.014 102.88.026 205.747 0 308.627.013-.027-19.587-.027-39.173 0-58.746-262.974.013-525.934.013-788.894 0-1.506 22.719-14.426 42.533-29.56 58.746Zm822.347-.013c7.027.026 14.053 0 21.093.013-.026-19.587 0-39.173-.013-58.76-7.027.014-14.04.027-21.053 0-.054 19.587.026 39.16-.027 58.747Zm-325.053-.16c2.72.146 5.44.146 8.173.026-1.427-.986-2.547-3.12-4.507-2.96-1.426.694-2.493 1.907-3.666 2.934ZM4.493 155.883c.027 19.24.014 38.48 0 57.72 12.48.04 24.974-.053 37.44.053 8.92-21.44 22.854-40.36 38.08-57.746-25.173-.08-50.346-.014-75.52-.027Zm124.254.013c-4.174 4.427-8.64 8.56-13.08 12.72 3.04 15 5.973 30.014 9.04 45 275.306-.013 550.613-.013 825.92 0-.027-19.253-.027-38.493 0-57.746-102.867.026-205.734-.014-308.614.026-1.76 4.054-6.026 7.307-10.626 5.774-3.094-.507-4.707-3.387-6.174-5.8-165.493.04-330.973-.027-496.466.026Zm500.72.12c1.2 1.08 2.4 2.187 3.76 3.08 1.893-.253 3.04-1.933 4.386-3.12-2.733-.093-5.44-.08-8.146.04Zm325.066-.146c.014 19.253-.013 38.493.014 57.746 7-.013 14.013 0 21.026 0 .08-19.24-.013-38.493.04-57.746-7.026.013-14.053 0-21.08 0Zm-882.64 57.706c15.587.08 31.16.014 46.747.027-2.427-13.813-5.253-27.56-7.787-41.347-14.453 12.254-28.133 25.694-38.96 41.32Zm-67.4 3.64c-.013 19.667.08 39.334-.04 59 10.76.16 21.52-.013 32.28.107-6.04-19.36-3.226-40.4 3.747-59.12-11.987 0-23.987.013-35.987.013Zm64.934-.04c-11.267 17.32-18.854 38.254-15.734 59.12 9.334-.026 18.68-.026 28.014.014-4.214-19.387 5.24-39.987 21.546-50.787 5.12-3.853 11.387-5.427 17.12-8.053-16.96-.614-33.96-.054-50.946-.294Zm73.24-.066c10.386 2.413 20.253 7.546 27.466 15.506 11.254 11.4 15.867 27.947 14.787 43.68 255.227-.04 510.467 0 765.707-.026-.027-19.68-.04-39.374 0-59.054-269.32-.08-538.64.12-807.96-.106Zm811.866.093c.014 19.693 0 39.387 0 59.067 7 .013 14.014.013 21.014.013.12-19.693.026-39.387.053-59.067-7.027-.013-14.053 0-21.067-.013ZM130.48 241.95c2.427 11.44 4.827 22.88 7.213 34.32 9.64.026 19.28.013 28.92 0-1.28-10.987-6.16-21.974-15.04-28.867-5.866-4.813-13.653-6.547-21.093-5.453Zm-27.893 12.44c-5.6 5.746-7.68 14.04-7.147 21.893 12.053.04 24.107-.067 36.16.04-2.333-11.093-4.493-22.227-6.92-33.293-8.253 1.493-16.427 5-22.093 11.36Zm-98.08 25.493c-.014 18.347.026 36.693-.027 55.04 46.467.133 92.947-.107 139.413.027-.253-1.907-.52-3.8-.773-5.68-5.76 2.786-11.973 4.666-18.4 5.04-36.72 3.413-73.547-20.2-86.733-54.454-11.16.054-22.32 0-33.48.027Zm49.84.027c4.733 19.866 19.413 37.053 38.44 44.56 15.373 6.266 33.706 6.253 48.36-1.987-2.934-14.2-5.907-28.4-8.76-42.627-12.174.054-24.36-.04-36.534.067 2.174 9.933 9.12 17.88 17.28 23.573-13.373-1.84-25.906-10.586-30.44-23.586-9.453-.04-18.906-.08-28.346 0Zm84.106-.027c2.707 13.013 5.52 26 8.147 39.027 11.733-9.427 20.28-23.614 20.053-39.014-9.4-.053-18.8 0-28.2-.013Zm45.88 0c-3.346 20.373-18.146 37.16-35.826 46.893.426 2.64.746 5.32 1.4 7.92 4.08.52 8.2.187 12.293.254 262.813-.014 525.613.013 788.413-.014-.013-18.346-.013-36.706 0-55.053-255.426-.013-510.853-.027-766.28 0Zm770.214 0c-.027 18.347.013 36.707-.027 55.053 7.027.014 14.067.014 21.107 0-.04-18.346-.027-36.706-.014-55.053-7.026-.013-14.053-.013-21.066 0Z"/><path fill="#fff" d="M519.227 173.376c.786-3.733 1.666-7.466 2.933-11.066 1.733.68 3.413 1.8 5.387 1.653 9.373.027 18.746.013 28.133.013 2.24.214 4.027-1.293 5.987-2.12-.654 4.227-.454 8.614-1.827 12.707-1.853-2.373-2.067-6.88-5.693-7.267-3.16-.72-6.427-.373-9.627-.453.333 12.347-.747 24.787.587 37.08 1.76.307 3.533.6 5.32.893.106.494.32 1.48.44 1.987-7.12-.107-14.24.093-21.36-.067.96-3.52 6.853-1.04 6.933-4.853.347-11.653.053-23.32.147-34.973-3.427.026-6.96-.414-10.267.586-3.147 1.014-3.64 5.32-7.093 5.88ZM225.693 165.296c5.587-3.36 12.32-2.36 18.334-.906.586 3.373 1.093 6.773 1.2 10.2-3.854-1.614-4.094-7.187-8.347-8.294-4.787-2.12-11.08 2.28-9.533 7.614 2.013 6.053 9.213 7.093 13.586 10.866 6.44 4.534 6.907 15.574.267 20.12-6.28 4.254-14.627 3.334-21.2.28-.973-3.8-2.493-7.933-.747-11.746 2.867 3.946 4.68 9.466 9.8 11.04 4.814 2.226 11.134-2.494 9.774-7.8-1.68-7.867-11.414-8.48-15.627-14.427-4.387-4.947-3.213-13.507 2.493-16.947ZM631.147 166.39c1.693-1.24 3.36-2.52 5.053-3.787 4.827 12.76 8.813 25.827 13.493 38.64.894 3.027 4.734 3.067 6.547 5.387-6 .333-12.013-.027-18.013.266 0-.52-.014-1.586-.014-2.106 1-.2 3-.6 4.014-.8-1.334-4.267-2.587-8.587-4.44-12.667-3.827-.933-7.854-.307-11.747-.387-1.44 4.24-3.053 8.427-4.16 12.774 1.88.666 4.24.866 5.027 3.053-5.267-.333-10.894 1.067-15.894-.92 2.334-1.36 6.04-1.44 6.867-4.547 4.64-11.546 9.307-23.106 13.267-34.906Zm-4.107 21.493c3.253.08 6.507.093 9.773-.04-1.346-4.773-3.053-9.413-4.693-14.08a593.593 593.593 0 0 0-5.08 14.12ZM253.32 164.31c6.56-.534 13.173-.56 19.733.026a12.995 12.995 0 0 1-5.24 2.814c-1.066 5.546-.666 11.226-.413 16.84 6.533-4.4 11.093-11.027 16.48-16.64-1.307-1.014-2.6-2.04-3.853-3.08 5.786-.44 11.613-.507 17.4.066-2.614 2.44-6.56 2.427-9.307 4.667-4.667 3.68-8.56 8.213-12.867 12.28 5.12 7.12 10.64 13.96 16.32 20.627 1.56 2.146 4.32 2.426 6.68 3.08v1.933c-6.346-1.067-13.28 1.333-19.28-1.187l4.32-1.76c-5.32-6.213-9.253-13.733-15.8-18.8-.4 6.2-.72 12.48.267 18.654 2 .533 3.973 1.12 5.947 1.746-2.574 2.014-5.96 1.107-8.947 1.187-3.747-.253-7.667.76-11.213-.813 2.24-1.36 6.293-1.627 5.746-5.187.387-11.16.814-22.44-.4-33.56-1.946-.787-4.066-1.333-5.573-2.893ZM304.8 164.376c10.293-.88 20.64-.213 30.96-.386.32 3.506.693 7.026.467 10.546-2.92-1.986-3.027-7.333-7.307-7.333-3.307-.227-7.293-1.147-10.227.36-.96 5.04-.453 10.213-.32 15.307 3.347.013 6.774.4 10.094-.28 1.6-1.187 1.72-6.814 3.88-4.534.386 4.694.133 9.427.04 14.134-.48-.16-1.427-.48-1.894-.654a41.867 41.867 0 0 0-1.413-4.56c-3.347-1.413-7.107-.56-10.627-.706-.24 5.32-.8 10.866.747 16.026 3.92 2.574 9.253 1.827 13.613.894 3.814-.867 4.054-6.04 7.787-7-.36 3.64-1.36 7.16-2.44 10.64-8.36.333-16.707-.72-25.053-.12-3.254.053-6.747.813-9.734-.854 2.054-1.12 4.387-1.52 6.627-2.106 1.267-11.227.413-22.614.533-33.894.28-3.333-3.773-3.8-5.733-5.48ZM354.64 167.256c-2.133-.733-4.347-1.413-6.093-2.893 6.813-.613 13.72-.64 20.546 0-1.586 1.587-3.773 2.147-5.786 2.933-.947 8.854-.214 17.774-.48 26.654.2 3.106-.667 7.04 2.013 9.346 4.24.867 8.92 1.28 12.987-.466 2.253-2.147 3.386-5.294 6.16-6.907-.4 3.72-1.387 7.347-2.534 10.907-8.173.346-16.333-.747-24.506-.094-2.934.094-6.12.667-8.747-1 2.08-.826 4.253-1.413 6.307-2.306 1.213-4.814.613-9.84.746-14.747-.186-7.147.507-14.347-.613-21.427ZM392.68 163.976c6.587.12 13.2-.346 19.773.347-1.546 1.627-3.746 2.133-5.746 2.893-.96 11.04-.6 22.2-.267 33.267.067 3.347 3.933 3.32 6.413 3.493 2.894-.013 6.187.28 8.68-1.48 1.84-2.2 3.147-4.773 5.16-6.826.667 3.88-.973 7.533-2.013 11.186-10.693-.013-21.36-.613-32.04.08l.04-2.173 5.067-.92c1.026-11.333.386-22.76.44-34.12.44-3.333-3.267-3.4-5.507-3.987v-1.76ZM436.667 163.99c10-.013 20.013-.053 30.026 0 .374 3.507.814 7.053.48 10.587-2.066-1.854-2.826-4.694-4.76-6.601-4.026-1.706-8.533-.959-12.786-1.106-.64 5.32-.454 10.693-.347 16.053 3.267-.026 6.573.28 9.813-.253 1.84-1.547 1.92-4.48 4.187-5.707.027 5.36 1.173 11.027-.853 16.16-.947-2.053-1.587-4.226-2.614-6.24-3.293-1.32-7.053-.44-10.52-.56.014 5.2-.666 10.614.774 15.694 3.48 3.08 9.106 1.946 13.386 1.293 4.107-.76 4.347-6.133 8.187-7.32-.36 3.733-1.4 7.347-2.627 10.88-8.04.253-16.066-.707-24.106-.2-3.36.147-6.774.52-10.094-.213.774-2.52 3.947-1.694 5.867-2.68 1.373-2.587.8-5.654.947-8.467-.187-8.72.28-17.467-.214-26.187.067-2.613-2.906-2.867-4.72-3.52l-.026-1.613ZM480.427 164.416c10.2-.973 20.493-.186 30.733-.466.013 3.586.067 7.173-.12 10.746-2.773-1.48-2.493-5.466-5.16-6.946-3.827-1.36-7.96-.787-11.92-.827-.187 5.573-.12 11.133-.093 16.707 3.6-.147 7.386.546 10.866-.654 1.24-1.88 1.974-4.133 3.827-5.546.067 5.266.013 10.533.093 15.8-2.186-1.347-2.6-3.987-3.88-6.014-3.6-.626-7.28-.306-10.92-.333.067 5.027-.293 10.08.214 15.093.506 3.68 5.84 1.427 7.213 4.64-6.8.467-13.613-.133-20.413.307.013-.453.026-1.373.026-1.84 1.547-.4 3.08-.893 4.587-1.467 1.187-5.36.707-10.92.8-16.373-.133-6.667.453-13.4-.747-20-1.8-.8-3.493-1.747-5.106-2.827ZM571.24 164.363c10.28-.853 20.613-.186 30.92-.4.387 3.52.76 7.054.667 10.614-2.947-1.96-3.187-7.08-7.28-7.307-3.48-.693-7.054-.373-10.56-.32a255.554 255.554 0 0 0-.04 16c3.506.04 7.04.053 10.533-.453.627-2.107 1.053-4.547 3.387-5.427.04 5.013-.094 10.013.106 15.013-.546-.08-1.64-.24-2.173-.333-.373-1.68-.72-3.373-1.08-5.053-3.6-.52-7.24-.52-10.867-.44.227 5.32-.68 10.826.707 16.04 3.627 2.413 8.427 1.8 12.533 1.2 4.28-.574 5.6-5.307 8.454-7.88.64 3.88-.92 7.573-2.027 11.2-8.747.36-17.493-.774-26.24-.04-2.813.026-5.96.706-8.36-1.147 2.187-.787 4.547-1.16 6.64-2.227.573-12.08.747-24.293-.133-36.373a17.857 17.857 0 0 1-5.187-2.667ZM779.64 225.75c.547.586 1.627 1.786 2.173 2.373 10.374.307 20.774.12 31.16.147 2.347.28 4.147-1.374 6.12-2.4-.466 4.026-.68 8.093-1.346 12.093-2.854-.547-2-5.013-4.64-6.04-3.587-1.2-7.467-.56-11.16-.747-.24 8.92-.04 17.84-.134 26.76.027 3.334-.226 6.774.934 9.974 1.906.653 3.906 1.08 5.88 1.6-.24.4-.707 1.213-.934 1.626-6.946-.52-13.92-.173-20.866-.173 1.173-3.467 7.16-1.187 7.173-5.187.547-11.506.28-23.066.093-34.586-3.133.026-6.28-.147-9.373.266-3.6.454-4.773 4.427-6.867 6.787-1.6-4.187 1.12-8.36 1.787-12.493ZM225.68 229.51c5.52-3.414 12.267-2.254 18.253-1 .6 3.08 1.24 6.186 1.254 9.36-2.707 1.213-2.827-2.56-4.16-3.92-2.427-5.067-11.294-5.32-13.387.12-1.573 3.186.467 6.84 3.12 8.72 3.907 2.813 8.827 4.2 12.053 7.933 4.374 4.853 4.254 13.333-.72 17.707-5.053 4.04-12.28 4.266-18.253 2.413-5.8-1.053-6.227-8.867-4.453-13.307 2.52 3.76 4.213 8.6 8.533 10.72 3.347 1.587 8.253.96 10.16-2.546 2.08-3.507.4-7.987-2.573-10.387-4.24-3.387-9.96-5.053-13.04-9.8-3.48-5.04-2.094-12.787 3.213-16.013ZM366.213 228.243c10.227-.093 20.467.32 30.68-.186-.04 3.52-.013 7.04-.2 10.56-2.773-1.12-2.813-4.52-4.733-6.454-3.92-1.6-8.307-.746-12.427-.973-.52 5.467-.426 10.973-.226 16.467 3.68-.014 7.373 0 11.053-.134.973-2.12 1.947-4.266 3.333-6.16.774 5.28.56 10.64.307 15.96-2.28-1.133-2.493-3.826-3.333-5.933-3.72-.6-7.48-.573-11.214-.507-.28 5.627-.866 11.507.8 16.947 2.107.72 4.307 1.133 6.454 1.76-.48.333-1.454 1-1.934 1.347-6.44-.08-12.893-.014-19.333-.094 1.28-1.986 3.667-2.306 5.72-3.026.853-8.134.28-16.334.453-24.48-.106-3.854.387-7.814-.573-11.587-1.64-1.147-3.533-1.933-4.827-3.507ZM421.493 228.03c7.494-1.814 16.147-.707 22.094 4.506 8.6 7.84 9.48 22.494 2.2 31.48-9.4 11.48-30.347 10.507-37.867-2.6-7.333-12.066-.707-30.413 13.573-33.386Zm1.414 2.826c-4.56 1.707-7.387 6.294-8.254 10.907-1.546 7.24-.586 15.28 3.44 21.6 3.347 5.32 10.907 7.347 16.414 4.253 4.773-2.733 6.666-8.466 7.066-13.653.48-7.107-.76-14.92-5.773-20.307-3.227-3.466-8.52-4.32-12.893-2.8ZM558.84 228.043c7.213-1.72 15.52-.88 21.44 3.907 9.64 7.746 10.613 23.84 2.227 32.853-9.68 10.747-29.787 9.32-37.147-3.427-7.2-12.066-.693-30.226 13.48-33.333Zm1.36 2.867c-4.507 1.866-7.333 6.44-8.133 11.12-1.334 7.44-.534 15.773 4.026 22.04 3.934 5.706 13.12 6.826 18.094 1.853 4.2-4.133 5.053-10.413 5-16.027-.387-6.12-1.987-12.733-6.72-16.973-3.254-2.987-8.227-3.467-12.267-2.013ZM748.093 230.296c5.507-4.333 13-3.16 19.334-1.706a63.666 63.666 0 0 1 1.146 9.8c-3.506-.84-3.613-5.28-6.48-7-4.333-3.08-11.693-.627-11.666 5.24 1.106 7.48 10.066 8.426 14.666 13.013 5.427 4.52 5.96 13.813.6 18.573-5.133 4.387-12.68 4.494-18.84 2.534-5.426-1.187-6.04-8.894-3.706-12.934 2.586 4.88 5.786 11.667 12.373 11.2 4.733.2 8.24-5.146 6.36-9.466-2.587-6.707-11.08-7.48-15.173-12.894-4.067-4.626-3.667-12.6 1.386-16.36ZM250.72 228.27c6.333-.04 12.68-.014 19.013.026a15.741 15.741 0 0 1-4.466 3.12 223.327 223.327 0 0 0 8.56 18.174c3.16-5.987 6.493-11.894 9.28-18.054-1.827-.733-3.36-1.826-4.6-3.293 4.853-.067 9.733.173 14.586-.173l.134 1.733c-2.2.867-4.867 1.373-6.187 3.573-3.347 4.8-6.013 10.04-8.933 15.107-3.6 5.867-2.947 13.213-1.667 19.693 2.28.6 5.373.107 6.52 2.72-7.187.04-14.373-.133-21.56.094 1.027-3.174 6.013-1.547 6.307-5.067.52-5.6.906-11.693-2.12-16.707-3.08-5.48-5.52-11.306-8.72-16.706-1.92-1.614-4.56-2.2-6.147-4.24ZM299.4 228.376c4.787-.253 9.573.014 14.36-.213 2.693 10.987 8.853 20.747 13.587 30.933 4.973-10.253 10.56-20.253 14.613-30.92 4.16.16 8.32.147 12.48-.106l.36 1.72c-2.04.84-6.147.653-5.867 3.893-.16 10.747-.28 21.52.574 32.24.04 3.107 4.586 2.36 5.666 5.04-6.36-.133-12.706-.053-19.066-.093 1.2-1.88 3.426-2.4 5.226-3.507.627-9.8.147-19.667.214-29.48-5.72 11.507-11.04 23.2-16.694 34.733-5.013-11.8-10.706-23.306-15.613-35.146.227 10.08-1.44 20.24-.107 30.266 2.054.694 4.24 1.294 5.774 2.934-5.12.386-10.28.066-15.414.373-.133-.36-.413-1.08-.546-1.44 1.826-1.04 5.12-1.093 5.24-3.773 1.226-7.894 1.133-15.907 1.72-23.854 0-3.226.76-6.6-.334-9.72-2.04-1.333-4.293-2.32-6.173-3.88ZM458.187 228.123c4.146.2 8.306.2 12.466.067 7.574 11.067 17.374 20.333 26.28 30.307-.146-8.68.547-17.52-1.08-26.094-1.813-1.706-4.293-2.466-6.2-4.04a296.68 296.68 0 0 1 17.214 0c-1.867 1.974-5.934 2.32-6.04 5.587-1.12 13.013.626 26.2-.907 39.187-3.973-3-6.853-7.094-10.16-10.734-7.133-7.986-14.013-16.213-21.227-24.12.12 8.76-.426 17.574.294 26.32-.24 3.494 3.453 4.067 5.986 4.894-.12.386-.36 1.146-.493 1.533-5.2-.28-10.4-.107-15.6-.133.92-2.2 3.387-2.427 5.293-3.28 1.307-11.294 1.067-22.694.587-34.027-1.933-1.84-4.307-3.067-6.827-3.88l.414-1.587ZM515.427 228.03c5.986.373 12 .386 17.986 0l.107 1.72c-1.6.48-3.147 1.066-4.627 1.773-1.32 5.587-.506 11.373-.706 17.053.2 6.254-.56 12.587.573 18.787 1.827 1.253 4 1.827 5.96 2.853-6.307 1.52-12.88.094-19.28.907-.08-.413-.24-1.227-.333-1.627 2.52-.786 5.986-1.466 5.413-4.906-.133-11.16.707-22.4-.547-33.494-1.613-.373-3.213-.746-4.813-1.106l.267-1.96ZM596.213 229.257c8.534-1.494 17.52-2 26.027-.054 5.533 1.214 9.48 7.027 8.12 12.627-.667 4.253-4.507 6.64-7.853 8.693 4.786 7.294 8.266 16.4 16.84 20.08-4.68 1.547-10.334 1.147-14.107-2.266-4.96-4.294-6.853-10.867-10.933-15.8-1.067-.2-3.2-.614-4.267-.814-.24 5.12-.547 10.32.48 15.374 1.48 1.706 4.12 1.933 5.773 3.56-6.733.413-13.493.186-20.226.226 1.733-2.573 6.72-2.053 6.12-6.106.12-10.307.226-20.627-.067-30.934.08-3.146-4.027-2.92-5.907-4.586Zm13.92 1.68c-.466 6.133-.36 12.293-.12 18.44 3.227-.147 6.934.186 9.547-2.12 3.96-4.254 3.093-12.254-2.027-15.254-2.2-1.453-4.933-.973-7.4-1.066ZM645.4 228.257c5.827-.027 11.653.013 17.493-.014.48.254 1.427.76 1.907 1.014-1.547 1.36-4.947.986-5.413 3.413-.494 5.133-.2 10.32-.014 15.48 6.414-4.48 11.134-10.893 16.347-16.64a77.119 77.119 0 0 1-3.627-3.253c5.694.613 12-1.4 17.254 1.146-9.84 1.44-15.454 10.08-22.147 16.387 5.36 6.813 10.547 13.773 16.267 20.28 1.84 2.653 5.8 2.067 7.56 4.773-6.694.04-13.387.12-20.067-.053 1.32-1.08 2.707-2.08 4.107-3.08-5.454-5.894-9.16-13.4-15.6-18.347-.374 6.16-.68 12.414.226 18.56 2.094.587 4.374 1 5.827 2.814-6.667.213-13.333.293-19.987-.094 2.08-1.88 6.267-2.28 5.68-5.906-.173-11.187.6-22.427-.466-33.56-1.92-.68-4.227-.92-5.347-2.92ZM697.627 229.75c.026-.427.066-1.294.093-1.734 9.947.467 19.933.32 29.893.107.32 3.587 1.027 7.2.347 10.8-1.907-2.107-2.707-5.147-4.893-6.92-4.094-1.373-8.494-.667-12.707-.587-.24 5.267-.267 10.547.027 15.827 3.466.04 6.933-.04 10.386-.453.92-2.054 1.134-4.8 3.694-5.48-.267 5.186.013 10.373-.254 15.56-1.946-1.547-2.266-4.227-3.866-5.96-3.227-.96-6.654-.627-9.974-.654-.12 5.4-.786 10.96.694 16.227 3.533 2.507 8.386 1.4 12.466 1.227 4.56-.24 5.027-6.134 9.027-7.36-.453 3.64-1.413 7.173-2.453 10.68-11.68-.814-23.587.893-35.134-.894 2.174-.893 4.48-1.466 6.68-2.32 1.76-4.373.694-9.266.96-13.88-.266-7.093.587-14.28-.466-21.306-.054-2.294-3.134-1.907-4.52-2.88ZM825.667 228.35c10.253-.254 20.506.133 30.773-.187.347 3.533.76 7.067.667 10.613-2.334-1.853-3.067-5.066-5.36-6.866-4.054-1.174-8.374-.574-12.534-.654a591.39 591.39 0 0 0 0 16.094c3.387-.04 6.774-.134 10.16-.467.934-2.12 1.534-4.56 3.694-5.8.226 4.907.106 9.813.133 14.733-.48.027-1.44.107-1.92.147-.733-1.693-.6-3.947-2.12-5.147-3.24-.786-6.627-.546-9.92-.586.373 5.48-1.187 11.426.96 16.586 3.24 1.987 7.613 1.04 11.32 1.027 4.52-.08 6.4-4.52 8.4-7.787 2.547 3.427-.467 7.467-1.16 11.027-11.507-.547-23.053.08-34.573-.347 1.453-2.253 4.293-2.08 6.586-2.733.96-7.347.267-14.773.48-22.16-.173-4.627.467-9.347-.413-13.907-1.627-1.333-3.507-2.346-5.173-3.586ZM868.107 229.243c8.533-1.453 17.533-2.04 26.04-.04 5.666 1.16 9.546 7.253 8.106 12.88-.72 4.12-4.533 6.36-7.733 8.467 4.787 6.906 7.733 16.4 16.373 19.44-.173.333-.52 1.013-.693 1.346-4.493.267-9.627.36-13.053-3.04-5.027-4.266-6.734-10.986-10.947-15.84-1.08-.16-3.227-.493-4.307-.666.054 5.106-.573 10.333.654 15.346 1.426 1.694 4.146 1.827 5.746 3.507-6.746.427-13.506.2-20.253.227 1.8-2.52 6.733-2.174 6.12-6.16.107-10.734.4-21.507-.173-32.227-1.76-1.427-3.987-2.067-5.88-3.24Zm14.04 1.573c-.534 6.147-.307 12.32-.2 18.467 3.493.04 7.76.293 10.226-2.72 2.894-4.267 2.347-10.92-1.92-14.093-2.293-1.827-5.386-1.48-8.106-1.654Z"/></svg>