<svg xmlns="http://www.w3.org/2000/svg" fill="none" viewBox="0 0 1000 417"><path fill="#000" d="M105.227 47.297C110.68 29.923 118.56 12.403 132.533.203c17.24 26.56 30.334 57.547 28.494 89.773 279.64-.053 559.266.027 838.906-.026-.04 82.866-.013 165.733-.013 248.6-283.427-.027-566.853.026-850.28-.027 2.053 14.72 7.12 30.053 1.733 44.653-8.306 25.92-40.32 40.52-65.4 30.374-20.72-8.534-28.693-37.04-16.853-55.627 6.36-10.107 21.307-14.573 31.44-7.4 11.76 8.28 16.173 25.307 10.32 38.373-4.547 9.587-14.773 14.92-24.853 16.667 10.36 5.36 22.96 6.4 33.813 1.853 16.587-6.293 29.6-23.386 28.08-41.56-1-9.16-2.84-18.213-4.28-27.306-47.88 0-95.76-.027-143.64.013.013-82.867 0-165.747 0-248.613 32.853.053 65.707-.014 98.56.026.12-14.44 2.08-28.96 6.667-42.68Zm17.266-2.96c-8.573 13.706-11.88 29.88-14.426 45.626 11.32-.08 22.64.174 33.96-.146 9.106-13.84 10.733-31.84 5.026-47.294-1.96-4.96-6.413-10.28-12.306-9.533-5.707 1.453-9.094 6.813-12.254 11.346ZM3.587 93.523c-.027 19.573 0 39.16-.027 58.747 26.267.04 52.52-.04 78.787.04 6.68-7.32 13.946-14.094 20.84-21.214-3.027-12.28-4.56-24.906-4.627-37.56-31.653 0-63.32.027-94.973-.013ZM108.56 127.03c10.76-10.68 21.693-21.307 30.733-33.507-10.653.027-21.32.014-31.973.014-2.04 11.106-.667 22.466 1.24 33.493Zm22.68 25.253h493.013c1.627-2.867 3.894-6.147 7.614-6.027 4.213-.68 7.6 2.414 9.2 6.014 102.88.026 205.746 0 308.626.013-.026-19.587-.026-39.173 0-58.746-262.973.013-525.933.013-788.893 0-1.507 22.719-14.427 42.533-29.56 58.746Zm822.347-.013c7.026.026 14.053 0 21.093.013-.027-19.587 0-39.173-.013-58.76-7.027.014-14.04.027-21.054 0-.053 19.587.027 39.16-.026 58.747Zm-325.054-.16c2.72.146 5.44.146 8.174.026-1.427-.986-2.547-3.12-4.507-2.96-1.427.694-2.493 1.907-3.667 2.934ZM3.56 155.883c.027 19.24.013 38.48 0 57.72 12.48.04 24.973-.053 37.44.053 8.92-21.44 22.853-40.36 38.08-57.746-25.173-.08-50.347-.014-75.52-.027Zm124.253.013c-4.173 4.427-8.64 8.56-13.08 12.72 3.04 15 5.974 30.014 9.04 45 275.307-.013 550.614-.013 825.92 0-.026-19.253-.026-38.493 0-57.746-102.866.026-205.733-.014-308.613.026-1.76 4.054-6.027 7.307-10.627 5.774-3.093-.507-4.706-3.387-6.173-5.8-165.493.04-330.973-.027-496.467.026Zm500.72.12c1.2 1.08 2.4 2.187 3.76 3.08 1.894-.253 3.04-1.933 4.387-3.12-2.733-.093-5.44-.08-8.147.04Zm325.067-.146c.013 19.253-.013 38.493.013 57.746 7-.013 14.014 0 21.027 0 .08-19.24-.013-38.493.04-57.746-7.027.013-14.053 0-21.08 0ZM70.96 213.576c15.587.08 31.16.014 46.747.027-2.427-13.813-5.254-27.56-7.787-41.347-14.453 12.254-28.133 25.694-38.96 41.32Zm-67.4 3.64c-.013 19.667.08 39.334-.04 59 10.76.16 21.52-.013 32.28.107-6.04-19.36-3.227-40.4 3.747-59.12-11.987 0-23.987.013-35.987.013Zm64.933-.04c-11.266 17.32-18.853 38.254-15.733 59.12 9.333-.026 18.68-.026 28.013.014-4.213-19.387 5.24-39.987 21.547-50.787 5.12-3.853 11.387-5.427 17.12-8.053-16.96-.614-33.96-.054-50.947-.294Zm73.24-.066c10.387 2.413 20.254 7.546 27.467 15.506 11.253 11.4 15.867 27.947 14.787 43.68 255.226-.04 510.466 0 765.706-.026-.026-19.68-.04-39.374 0-59.054-269.32-.08-538.64.12-807.96-.106Zm811.867.093c.013 19.693 0 39.387 0 59.067 7 .013 14.013.013 21.013.013.12-19.693.027-39.387.054-59.067-7.027-.013-14.054 0-21.067-.013ZM129.547 241.95c2.426 11.44 4.826 22.88 7.213 34.32 9.64.026 19.28.013 28.92 0-1.28-10.987-6.16-21.974-15.04-28.867-5.867-4.813-13.653-6.547-21.093-5.453Zm-27.894 12.44c-5.6 5.746-7.68 14.04-7.146 21.893 12.053.04 24.106-.067 36.16.04-2.334-11.093-4.494-22.227-6.92-33.293-8.254 1.493-16.427 5-22.094 11.36Zm-98.08 25.493c-.013 18.347.027 36.693-.026 55.04 46.466.133 92.946-.107 139.413.027-.253-1.907-.52-3.8-.773-5.68-5.76 2.786-11.974 4.666-18.4 5.04-36.72 3.413-73.547-20.2-86.734-54.454-11.16.054-22.32 0-33.48.027Zm49.84.027c4.734 19.866 19.414 37.053 38.44 44.56 15.374 6.266 33.707 6.253 48.36-1.987-2.933-14.2-5.906-28.4-8.76-42.627-12.173.054-24.36-.04-36.533.067 2.173 9.933 9.12 17.88 17.28 23.573-13.373-1.84-25.907-10.586-30.44-23.586-9.453-.04-18.907-.08-28.347 0Zm84.107-.027c2.707 13.013 5.52 26 8.147 39.027 11.733-9.427 20.28-23.614 20.053-39.014-9.4-.053-18.8 0-28.2-.013Zm45.88 0c-3.347 20.373-18.147 37.16-35.827 46.893.427 2.64.747 5.32 1.4 7.92 4.08.52 8.2.187 12.294.254 262.813-.014 525.613.013 788.413-.014-.013-18.346-.013-36.706 0-55.053-255.427-.013-510.853-.027-766.28 0Zm770.213 0c-.026 18.347.014 36.707-.026 55.053 7.026.014 14.066.014 21.106 0-.04-18.346-.026-36.706-.013-55.053-7.027-.013-14.053-.013-21.067 0Z"/><path fill="#000" d="M518.293 173.376c.787-3.733 1.667-7.466 2.934-11.066 1.733.68 3.413 1.8 5.386 1.653 9.374.027 18.747.013 28.134.013 2.24.214 4.026-1.293 5.986-2.12-.653 4.227-.453 8.614-1.826 12.707-1.854-2.373-2.067-6.88-5.694-7.267-3.16-.72-6.426-.373-9.626-.453.333 12.347-.747 24.787.586 37.08 1.76.307 3.534.6 5.32.893.107.494.32 1.48.44 1.987-7.12-.107-14.24.093-21.36-.067.96-3.52 6.854-1.04 6.934-4.853.346-11.653.053-23.32.146-34.973-3.426.026-6.96-.414-10.266.586-3.147 1.014-3.64 5.32-7.094 5.88ZM224.76 165.296c5.587-3.36 12.32-2.36 18.333-.906.587 3.373 1.094 6.773 1.2 10.2-3.853-1.614-4.093-7.187-8.346-8.294-4.787-2.12-11.08 2.28-9.534 7.614 2.014 6.053 9.214 7.093 13.587 10.866 6.44 4.534 6.907 15.574.267 20.12-6.28 4.254-14.627 3.334-21.2.28-.974-3.8-2.494-7.933-.747-11.746 2.867 3.946 4.68 9.466 9.8 11.04 4.813 2.226 11.133-2.494 9.773-7.8-1.68-7.867-11.413-8.48-15.626-14.427-4.387-4.947-3.214-13.507 2.493-16.947ZM630.213 166.39c1.694-1.24 3.36-2.52 5.054-3.787 4.826 12.76 8.813 25.827 13.493 38.64.893 3.027 4.733 3.067 6.547 5.387-6 .333-12.014-.027-18.014.266 0-.52-.013-1.586-.013-2.106 1-.2 3-.6 4.013-.8-1.333-4.267-2.586-8.587-4.44-12.667-3.826-.933-7.853-.307-11.746-.387-1.44 4.24-3.054 8.427-4.16 12.774 1.88.666 4.24.866 5.026 3.053-5.266-.333-10.893 1.067-15.893-.92 2.333-1.36 6.04-1.44 6.867-4.547 4.64-11.546 9.306-23.106 13.266-34.906Zm-4.106 21.493c3.253.08 6.506.093 9.773-.04-1.347-4.773-3.053-9.413-4.693-14.08a589.209 589.209 0 0 0-5.08 14.12ZM252.387 164.31c6.56-.534 13.173-.56 19.733.026a13.002 13.002 0 0 1-5.24 2.814c-1.067 5.546-.667 11.226-.413 16.84 6.533-4.4 11.093-11.027 16.48-16.64-1.307-1.014-2.6-2.04-3.854-3.08 5.787-.44 11.614-.507 17.4.066-2.613 2.44-6.56 2.427-9.306 4.667-4.667 3.68-8.56 8.213-12.867 12.28 5.12 7.12 10.64 13.96 16.32 20.627 1.56 2.146 4.32 2.426 6.68 3.08v1.933c-6.347-1.067-13.28 1.333-19.28-1.187l4.32-1.76c-5.32-6.213-9.253-13.733-15.8-18.8-.4 6.2-.72 12.48.267 18.654 2 .533 3.973 1.12 5.946 1.746-2.573 2.014-5.96 1.107-8.946 1.187-3.747-.253-7.667.76-11.214-.813 2.24-1.36 6.294-1.627 5.747-5.187.387-11.16.813-22.44-.4-33.56-1.947-.787-4.067-1.333-5.573-2.893ZM303.867 164.376c10.293-.88 20.64-.213 30.96-.386.32 3.506.693 7.026.466 10.546-2.92-1.986-3.026-7.333-7.306-7.333-3.307-.227-7.294-1.147-10.227.36-.96 5.04-.453 10.213-.32 15.307 3.347.013 6.773.4 10.093-.28 1.6-1.187 1.72-6.814 3.88-4.534.387 4.694.134 9.427.04 14.134-.48-.16-1.426-.48-1.893-.654a42.088 42.088 0 0 0-1.413-4.56c-3.347-1.413-7.107-.56-10.627-.706-.24 5.32-.8 10.866.747 16.026 3.92 2.574 9.253 1.827 13.613.894 3.813-.867 4.053-6.04 7.787-7-.36 3.64-1.36 7.16-2.44 10.64-8.36.333-16.707-.72-25.054-.12-3.253.053-6.746.813-9.733-.854 2.053-1.12 4.387-1.52 6.627-2.106 1.266-11.227.413-22.614.533-33.894.28-3.333-3.773-3.8-5.733-5.48ZM353.707 167.256c-2.134-.733-4.347-1.413-6.094-2.893 6.814-.613 13.72-.64 20.547 0-1.587 1.587-3.773 2.147-5.787 2.933-.946 8.854-.213 17.774-.48 26.654.2 3.106-.666 7.04 2.014 9.346 4.24.867 8.92 1.28 12.986-.466 2.254-2.147 3.387-5.294 6.16-6.907-.4 3.72-1.386 7.347-2.533 10.907-8.173.346-16.333-.747-24.507-.094-2.933.094-6.12.667-8.746-1 2.08-.826 4.253-1.413 6.306-2.306 1.214-4.814.614-9.84.747-14.747-.187-7.147.507-14.347-.613-21.427ZM391.747 163.976c6.586.12 13.2-.346 19.773.347-1.547 1.627-3.747 2.133-5.747 2.893-.96 11.04-.6 22.2-.266 33.267.066 3.347 3.933 3.32 6.413 3.493 2.893-.013 6.187.28 8.68-1.48 1.84-2.2 3.147-4.773 5.16-6.826.667 3.88-.973 7.533-2.013 11.186-10.694-.013-21.36-.613-32.04.08l.04-2.173 5.066-.92c1.027-11.333.387-22.76.44-34.12.44-3.333-3.266-3.4-5.506-3.987v-1.76ZM435.733 163.99c10-.013 20.014-.053 30.027 0 .373 3.507.813 7.053.48 10.587-2.067-1.854-2.827-4.694-4.76-6.601-4.027-1.706-8.533-.959-12.787-1.106-.64 5.32-.453 10.693-.346 16.053 3.266-.026 6.573.28 9.813-.253 1.84-1.547 1.92-4.48 4.187-5.707.026 5.36 1.173 11.027-.854 16.16-.946-2.053-1.586-4.226-2.613-6.24-3.293-1.32-7.053-.44-10.52-.56.013 5.2-.667 10.614.773 15.694 3.48 3.08 9.107 1.946 13.387 1.293 4.107-.76 4.347-6.133 8.187-7.32-.36 3.733-1.4 7.347-2.627 10.88-8.04.253-16.067-.707-24.107-.2-3.36.147-6.773.52-10.093-.213.773-2.52 3.947-1.694 5.867-2.68 1.373-2.587.8-5.654.946-8.467-.186-8.72.28-17.467-.213-26.187.067-2.613-2.907-2.867-4.72-3.52l-.027-1.613ZM479.493 164.416c10.2-.973 20.494-.186 30.734-.466.013 3.586.066 7.173-.12 10.746-2.774-1.48-2.494-5.466-5.16-6.946-3.827-1.36-7.96-.787-11.92-.827-.187 5.573-.12 11.133-.094 16.707 3.6-.147 7.387.546 10.867-.654 1.24-1.88 1.973-4.133 3.827-5.546.066 5.266.013 10.533.093 15.8-2.187-1.347-2.6-3.987-3.88-6.014-3.6-.626-7.28-.306-10.92-.333.067 5.027-.293 10.08.213 15.093.507 3.68 5.84 1.427 7.214 4.64-6.8.467-13.614-.133-20.414.307a79.47 79.47 0 0 0 .027-1.84c1.547-.4 3.08-.893 4.587-1.467 1.186-5.36.706-10.92.8-16.373-.134-6.667.453-13.4-.747-20-1.8-.8-3.493-1.747-5.107-2.827ZM570.307 164.363c10.28-.853 20.613-.186 30.92-.4.386 3.52.76 7.054.666 10.614-2.946-1.96-3.186-7.08-7.28-7.307-3.48-.693-7.053-.373-10.56-.32a257.093 257.093 0 0 0-.04 16c3.507.04 7.04.053 10.534-.453.626-2.107 1.053-4.547 3.386-5.427.04 5.013-.093 10.013.107 15.013-.547-.08-1.64-.24-2.173-.333-.374-1.68-.72-3.373-1.08-5.053-3.6-.52-7.24-.52-10.867-.44.227 5.32-.68 10.826.707 16.04 3.626 2.413 8.426 1.8 12.533 1.2 4.28-.574 5.6-5.307 8.453-7.88.64 3.88-.92 7.573-2.026 11.2-8.747.36-17.494-.774-26.24-.04-2.814.026-5.96.706-8.36-1.147 2.186-.787 4.546-1.16 6.64-2.227.573-12.08.746-24.293-.134-36.373a17.852 17.852 0 0 1-5.186-2.667ZM778.707 225.75c.546.586 1.626 1.786 2.173 2.373 10.373.307 20.773.12 31.16.147 2.347.28 4.147-1.374 6.12-2.4-.467 4.026-.68 8.093-1.347 12.093-2.853-.547-2-5.013-4.64-6.04-3.586-1.2-7.466-.56-11.16-.747-.24 8.92-.04 17.84-.133 26.76.027 3.334-.227 6.774.933 9.974 1.907.653 3.907 1.08 5.88 1.6-.24.4-.706 1.213-.933 1.626-6.947-.52-13.92-.173-20.867-.173 1.174-3.467 7.16-1.187 7.174-5.187.546-11.506.28-23.066.093-34.586-3.133.026-6.28-.147-9.373.266-3.6.454-4.774 4.427-6.867 6.787-1.6-4.187 1.12-8.36 1.787-12.493ZM224.747 229.51c5.52-3.414 12.266-2.254 18.253-1 .6 3.08 1.24 6.186 1.253 9.36-2.706 1.213-2.826-2.56-4.16-3.92-2.426-5.067-11.293-5.32-13.386.12-1.574 3.186.466 6.84 3.12 8.72 3.906 2.813 8.826 4.2 12.053 7.933 4.373 4.853 4.253 13.333-.72 17.707-5.053 4.04-12.28 4.266-18.253 2.413-5.8-1.053-6.227-8.867-4.454-13.307 2.52 3.76 4.214 8.6 8.534 10.72 3.346 1.587 8.253.96 10.16-2.546 2.08-3.507.4-7.987-2.574-10.387-4.24-3.387-9.96-5.053-13.04-9.8-3.48-5.04-2.093-12.787 3.214-16.013ZM365.28 228.243c10.227-.093 20.467.32 30.68-.186-.04 3.52-.013 7.04-.2 10.56-2.773-1.12-2.813-4.52-4.733-6.454-3.92-1.6-8.307-.746-12.427-.973-.52 5.467-.427 10.973-.227 16.467 3.68-.014 7.374 0 11.054-.134.973-2.12 1.946-4.266 3.333-6.16.773 5.28.56 10.64.307 15.96-2.28-1.133-2.494-3.826-3.334-5.933-3.72-.6-7.48-.573-11.213-.507-.28 5.627-.867 11.507.8 16.947 2.107.72 4.307 1.133 6.453 1.76-.48.333-1.453 1-1.933 1.347-6.44-.08-12.893-.014-19.333-.094 1.28-1.986 3.666-2.306 5.72-3.026.853-8.134.28-16.334.453-24.48-.107-3.854.387-7.814-.573-11.587-1.64-1.147-3.534-1.933-4.827-3.507ZM420.56 228.03c7.493-1.814 16.147-.707 22.093 4.506 8.6 7.84 9.48 22.494 2.2 31.48-9.4 11.48-30.346 10.507-37.866-2.6-7.334-12.066-.707-30.413 13.573-33.386Zm1.413 2.826c-4.56 1.707-7.386 6.294-8.253 10.907-1.547 7.24-.587 15.28 3.44 21.6 3.347 5.32 10.907 7.347 16.413 4.253 4.774-2.733 6.667-8.466 7.067-13.653.48-7.107-.76-14.92-5.773-20.307-3.227-3.466-8.52-4.32-12.894-2.8ZM557.907 228.043c7.213-1.72 15.52-.88 21.44 3.907 9.64 7.746 10.613 23.84 2.226 32.853-9.68 10.747-29.786 9.32-37.146-3.427-7.2-12.066-.694-30.226 13.48-33.333Zm1.36 2.867c-4.507 1.866-7.334 6.44-8.134 11.12-1.333 7.44-.533 15.773 4.027 22.04 3.933 5.706 13.12 6.826 18.093 1.853 4.2-4.133 5.054-10.413 5-16.027-.386-6.12-1.986-12.733-6.72-16.973-3.253-2.987-8.226-3.467-12.266-2.013ZM747.16 230.296c5.507-4.333 13-3.16 19.333-1.706a63.544 63.544 0 0 1 1.147 9.8c-3.507-.84-3.613-5.28-6.48-7-4.333-3.08-11.693-.627-11.667 5.24 1.107 7.48 10.067 8.426 14.667 13.013 5.427 4.52 5.96 13.813.6 18.573-5.133 4.387-12.68 4.494-18.84 2.534-5.427-1.187-6.04-8.894-3.707-12.934 2.587 4.88 5.787 11.667 12.374 11.2 4.733.2 8.24-5.146 6.36-9.466-2.587-6.707-11.08-7.48-15.174-12.894-4.066-4.626-3.666-12.6 1.387-16.36ZM249.787 228.27c6.333-.04 12.68-.014 19.013.026a15.746 15.746 0 0 1-4.467 3.12 223.663 223.663 0 0 0 8.56 18.174c3.16-5.987 6.494-11.894 9.28-18.054-1.826-.733-3.36-1.826-4.6-3.293 4.854-.067 9.734.173 14.587-.173l.133 1.733c-2.2.867-4.866 1.373-6.186 3.573-3.347 4.8-6.014 10.04-8.934 15.107-3.6 5.867-2.946 13.213-1.666 19.693 2.28.6 5.373.107 6.52 2.72-7.187.04-14.374-.133-21.56.094 1.026-3.174 6.013-1.547 6.306-5.067.52-5.6.907-11.693-2.12-16.707-3.08-5.48-5.52-11.306-8.72-16.706-1.92-1.614-4.56-2.2-6.146-4.24ZM298.467 228.376c4.786-.253 9.573.014 14.36-.213 2.693 10.987 8.853 20.747 13.586 30.933 4.974-10.253 10.56-20.253 14.614-30.92 4.16.16 8.32.147 12.48-.106l.36 1.72c-2.04.84-6.147.653-5.867 3.893-.16 10.747-.28 21.52.573 32.24.04 3.107 4.587 2.36 5.667 5.04-6.36-.133-12.707-.053-19.067-.093 1.2-1.88 3.427-2.4 5.227-3.507.627-9.8.147-19.667.213-29.48-5.72 11.507-11.04 23.2-16.693 34.733-5.013-11.8-10.707-23.306-15.613-35.146.226 10.08-1.44 20.24-.107 30.266 2.053.694 4.24 1.294 5.773 2.934-5.12.386-10.28.066-15.413.373-.133-.36-.413-1.08-.547-1.44 1.827-1.04 5.12-1.093 5.24-3.773 1.227-7.894 1.134-15.907 1.72-23.854 0-3.226.76-6.6-.333-9.72-2.04-1.333-4.293-2.32-6.173-3.88ZM457.253 228.123c4.147.2 8.307.2 12.467.067 7.573 11.067 17.373 20.333 26.28 30.307-.147-8.68.547-17.52-1.08-26.094-1.813-1.706-4.293-2.466-6.2-4.04 5.733-.16 11.48-.173 17.213 0-1.866 1.974-5.933 2.32-6.04 5.587-1.12 13.013.627 26.2-.906 39.187-3.974-3-6.854-7.094-10.16-10.734-7.134-7.986-14.014-16.213-21.227-24.12.12 8.76-.427 17.574.293 26.32-.24 3.494 3.454 4.067 5.987 4.894-.12.386-.36 1.146-.493 1.533-5.2-.28-10.4-.107-15.6-.133.92-2.2 3.386-2.427 5.293-3.28 1.307-11.294 1.067-22.694.587-34.027-1.934-1.84-4.307-3.067-6.827-3.88l.413-1.587ZM514.493 228.03c5.987.373 12 .386 17.987 0l.107 1.72c-1.6.48-3.147 1.066-4.627 1.773-1.32 5.587-.507 11.373-.707 17.053.2 6.254-.56 12.587.574 18.787 1.826 1.253 4 1.827 5.96 2.853-6.307 1.52-12.88.094-19.28.907a56.32 56.32 0 0 0-.334-1.627c2.52-.786 5.987-1.466 5.414-4.906-.134-11.16.706-22.4-.547-33.494-1.613-.373-3.213-.746-4.813-1.106l.266-1.96ZM595.28 229.257c8.533-1.494 17.52-2 26.027-.054 5.533 1.214 9.48 7.027 8.12 12.627-.667 4.253-4.507 6.64-7.854 8.693 4.787 7.294 8.267 16.4 16.84 20.08-4.68 1.547-10.333 1.147-14.106-2.266-4.96-4.294-6.854-10.867-10.934-15.8-1.066-.2-3.2-.614-4.266-.814-.24 5.12-.547 10.32.48 15.374 1.48 1.706 4.12 1.933 5.773 3.56-6.733.413-13.493.186-20.227.226 1.734-2.573 6.72-2.053 6.12-6.106.12-10.307.227-20.627-.066-30.934.08-3.146-4.027-2.92-5.907-4.586Zm13.92 1.68c-.467 6.133-.36 12.293-.12 18.44 3.227-.147 6.933.186 9.547-2.12 3.96-4.254 3.093-12.254-2.027-15.254-2.2-1.453-4.933-.973-7.4-1.066ZM644.467 228.257c5.826-.027 11.653.013 17.493-.014.48.254 1.427.76 1.907 1.014-1.547 1.36-4.947.986-5.414 3.413-.493 5.133-.2 10.32-.013 15.48 6.413-4.48 11.133-10.893 16.347-16.64a76.129 76.129 0 0 1-3.627-3.253c5.693.613 12-1.4 17.253 1.146-9.84 1.44-15.453 10.08-22.146 16.387 5.36 6.813 10.546 13.773 16.266 20.28 1.84 2.653 5.8 2.067 7.56 4.773-6.693.04-13.386.12-20.066-.053 1.32-1.08 2.706-2.08 4.106-3.08-5.453-5.894-9.16-13.4-15.6-18.347-.373 6.16-.68 12.414.227 18.56 2.093.587 4.373 1 5.827 2.814-6.667.213-13.334.293-19.987-.094 2.08-1.88 6.267-2.28 5.68-5.906-.173-11.187.6-22.427-.467-33.56-1.92-.68-4.226-.92-5.346-2.92ZM696.693 229.75c.027-.427.067-1.294.094-1.734 9.946.467 19.933.32 29.893.107.32 3.587 1.027 7.2.347 10.8-1.907-2.107-2.707-5.147-4.894-6.92-4.093-1.373-8.493-.667-12.706-.587-.24 5.267-.267 10.547.026 15.827 3.467.04 6.934-.04 10.387-.453.92-2.054 1.133-4.8 3.693-5.48-.266 5.186.014 10.373-.253 15.56-1.947-1.547-2.267-4.227-3.867-5.96-3.226-.96-6.653-.627-9.973-.654-.12 5.4-.787 10.96.693 16.227 3.534 2.507 8.387 1.4 12.467 1.227 4.56-.24 5.027-6.134 9.027-7.36-.454 3.64-1.414 7.173-2.454 10.68-11.68-.814-23.586.893-35.133-.894 2.173-.893 4.48-1.466 6.68-2.32 1.76-4.373.693-9.266.96-13.88-.267-7.093.587-14.28-.467-21.306-.053-2.294-3.133-1.907-4.52-2.88ZM824.733 228.35c10.254-.254 20.507.133 30.774-.187.346 3.533.76 7.067.666 10.613-2.333-1.853-3.066-5.066-5.36-6.866-4.053-1.174-8.373-.574-12.533-.654-.08 5.36-.067 10.734 0 16.094 3.387-.04 6.773-.134 10.16-.467.933-2.12 1.533-4.56 3.693-5.8.227 4.907.107 9.813.134 14.733-.48.027-1.44.107-1.92.147-.734-1.693-.6-3.947-2.12-5.147-3.24-.786-6.627-.546-9.92-.586.373 5.48-1.187 11.426.96 16.586 3.24 1.987 7.613 1.04 11.32 1.027 4.52-.08 6.4-4.52 8.4-7.787 2.546 3.427-.467 7.467-1.16 11.027-11.507-.547-23.054.08-34.574-.347 1.454-2.253 4.294-2.08 6.587-2.733.96-7.347.267-14.773.48-22.16-.173-4.627.467-9.347-.413-13.907-1.627-1.333-3.507-2.346-5.174-3.586ZM867.173 229.243c8.534-1.453 17.534-2.04 26.04-.04 5.667 1.16 9.547 7.253 8.107 12.88-.72 4.12-4.533 6.36-7.733 8.467 4.786 6.906 7.733 16.4 16.373 19.44-.173.333-.52 1.013-.693 1.346-4.494.267-9.627.36-13.054-3.04-5.026-4.266-6.733-10.986-10.946-15.84-1.08-.16-3.227-.493-4.307-.666.053 5.106-.573 10.333.653 15.346 1.427 1.694 4.147 1.827 5.747 3.507-6.747.427-13.507.2-20.253.227 1.8-2.52 6.733-2.174 6.12-6.16.106-10.734.4-21.507-.174-32.227-1.76-1.427-3.986-2.067-5.88-3.24Zm14.04 1.573c-.533 6.147-.306 12.32-.2 18.467 3.494.04 7.76.293 10.227-2.72 2.893-4.267 2.347-10.92-1.92-14.093-2.293-1.827-5.387-1.48-8.107-1.654Z"/></svg>