<svg xmlns="http://www.w3.org/2000/svg" fill="none" viewBox="0 0 614 217"><g clip-path="url(#a)"><path fill="#B9A115" d="M186.927 54.644V1.719h-16.531V0h34.771v1.719h-16.531v52.925h-1.709ZM315.364 0h1.526v54.645h-1.526V0Zm-33.137 26.541h33.9v1.718h-33.9v-1.718ZM281.465 0h1.525v54.645h-1.525V0ZM397.011 25.526h24.838v1.719h-24.838v-1.719Zm-1.009 29.119V0h30.349v1.719h-28.644v51.207h28.177v1.719h-29.882Z"/><path fill="#B9A152" d="M27.622 189.835H58.87c4.068 0 7.532-.607 10.387-1.823 2.859-1.212 5.052-3.094 6.573-5.651 1.53-2.557 2.289-5.559 2.289-9.009 0-3.32-.826-6.133-2.476-8.435-1.655-2.297-3.973-4.053-6.953-5.269-2.988-1.212-6.581-1.819-10.77-1.819h-30.3v32.006Zm0-54.816h27.06c3.426 0 6.41-.637 8.957-1.915 2.539-1.275 4.477-3.002 5.81-5.178 1.335-2.167 2-4.724 2-7.663 0-4.729-1.524-8.367-4.571-10.925-3.047-2.557-7.624-3.835-13.722-3.835H27.622v29.516ZM.179 214.749V80.589h57.929c8.895 0 16.423 1.312 22.583 3.928 6.16 2.62 10.829 6.422 14.01 11.407 3.17 4.98 4.76 10.924 4.76 17.824 0 7.664-1.905 14.057-5.715 19.163-3.81 5.114-9.274 8.627-16.385 10.543l-.192-3.836c5.84 1.409 10.983 3.71 15.435 6.9 4.443 3.199 7.874 7.16 10.291 11.885 2.413 4.729 3.622 10.095 3.622 16.098 0 6.648-1.083 12.492-3.243 17.539-2.159 5.048-5.335 9.232-9.528 12.552-4.193 3.324-9.116 5.848-14.768 7.571-5.656 1.727-11.975 2.586-18.965 2.586H.179ZM140.813 186.577l9.336-23.191h61.172l9.529 23.191h-80.037Zm-24.205 28.175 52.219-134.164h25.534l52.023 134.164H217.04l-26.872-72.259c-.763-2.038-1.684-4.658-2.759-7.856a573.786 573.786 0 0 1-3.339-10.158 1666.972 1666.972 0 0 1-3.239-10.254c-1.021-3.257-1.78-5.974-2.284-8.145l5.144-.193a231.521 231.521 0 0 1-2.572 9.105c-.955 3.132-1.942 6.326-2.955 9.583a186.44 186.44 0 0 1-3.239 9.487 395.057 395.057 0 0 0-3.243 9.009l-26.868 71.681h-28.206ZM292.504 189.835h31.249c4.068 0 7.532-.607 10.387-1.823 2.859-1.212 5.052-3.094 6.573-5.651 1.53-2.557 2.288-5.559 2.288-9.009 0-3.32-.825-6.133-2.476-8.435-1.654-2.297-3.972-4.053-6.952-5.269-2.989-1.212-6.582-1.819-10.771-1.819h-30.298v32.006Zm0-54.816h27.06c3.426 0 6.41-.637 8.957-1.915 2.539-1.275 4.477-3.002 5.811-5.178 1.333-2.167 2-4.724 2-7.663 0-4.729-1.525-8.367-4.572-10.925-3.047-2.557-7.624-3.835-13.722-3.835h-25.534v29.516Zm-27.443 79.73V80.589h57.929c8.895 0 16.423 1.312 22.583 3.928 6.161 2.62 10.829 6.422 14.009 11.407 3.172 4.98 4.76 10.924 4.76 17.824 0 7.664-1.905 14.057-5.714 19.163-3.81 5.114-9.274 8.627-16.385 10.543l-.192-3.836c5.84 1.409 10.983 3.71 15.435 6.9 4.443 3.199 7.873 7.16 10.291 11.885 2.413 4.729 3.622 10.095 3.622 16.098 0 6.648-1.084 12.492-3.243 17.539-2.159 5.048-5.335 9.232-9.528 12.552-4.193 3.324-9.116 5.848-14.768 7.571-5.656 1.727-11.975 2.586-18.965 2.586h-59.834ZM410.649 134.064h67.65v24.533h-67.65v-24.533Zm-13.338 80.686V80.59h90.137v25.299h-62.314v83.562h63.648v25.299h-91.471ZM561.573 216.667c-8.257 0-15.784-1.023-22.579-3.065-6.798-2.046-12.833-5.047-18.106-9.009-5.269-3.961-10.004-8.749-14.197-14.374l17.915-20.508c6.223 8.69 12.413 14.597 18.582 17.728 6.156 3.132 12.863 4.695 20.103 4.695 3.934 0 7.461-.54 10.574-1.63 3.11-1.082 5.557-2.65 7.336-4.696 1.78-2.041 2.672-4.468 2.672-7.281 0-2.042-.45-3.928-1.338-5.655-.892-1.723-2.159-3.258-3.81-4.599-1.65-1.342-3.622-2.553-5.906-3.643-2.288-1.082-4.831-2.042-7.623-2.872-2.797-.83-5.844-1.5-9.145-2.016-7.12-1.656-13.339-3.668-18.678-6.037-5.335-2.36-9.783-5.299-13.338-8.816-3.56-3.509-6.194-7.504-7.907-11.977-1.717-4.468-2.576-9.52-2.576-15.142 0-5.747 1.267-11.084 3.814-16.005 2.538-4.917 6.065-9.164 10.575-12.744 4.509-3.576 9.72-6.326 15.626-8.242 5.91-1.916 12.163-2.876 18.773-2.876 8.128 0 15.243.931 21.341 2.78 6.098 1.853 11.4 4.506 15.91 7.956 4.51 3.451 8.291 7.668 11.342 12.648l-18.107 17.636c-2.667-3.576-5.556-6.581-8.669-9.009-3.114-2.427-6.482-4.25-10.1-5.466a34.92 34.92 0 0 0-11.15-1.82c-4.193 0-7.811.545-10.858 1.631-3.055 1.086-5.435 2.654-7.148 4.695-1.713 2.046-2.572 4.536-2.572 7.475 0 2.301.571 4.343 1.713 6.133 1.142 1.79 2.793 3.354 4.952 4.695 2.163 1.342 4.768 2.524 7.815 3.547 3.051 1.023 6.415 1.916 10.1 2.683 6.986 1.408 13.275 3.257 18.869 5.558 5.585 2.302 10.387 5.077 14.388 8.339 4.002 3.257 7.078 7.088 9.241 11.499 2.159 4.41 3.239 9.361 3.239 14.852 0 9.076-2.163 16.806-6.482 23.191-4.318 6.389-10.291 11.277-17.91 14.664-7.624 3.383-16.519 5.077-26.681 5.077ZM116.855 24.33H.146v2.095h116.709V24.33ZM612.647 24.33H495.938v2.095h116.709V24.33Z"/></g><defs><clipPath id="a"><path fill="#fff" d="M.146 0h613v217h-613z"/></clipPath></defs></svg>