<svg xmlns="http://www.w3.org/2000/svg" fill="none" viewBox="0 0 1026 451"><path fill="#F5DD5C" d="M307.958 2.262c12.174-8.16 27.894 7.44 22.894 20.04-1.08 2.133-2.36 4.147-3.507 6.227-3.227 1.92-6.32 4.96-10.4 4.306-8.84-.493-15.533-8.893-16.053-17.413.106-5.213 3.413-9.72 7.066-13.16ZM345.305 11.715c2.52-4.973 7.427-8.64 13.013-9.28 5.8.08 11.374 3.387 14.44 8.307 2.374 6.173 2.547 13.4-1.52 18.907-4.32 6.053-12.946 5.253-19.12 2.973-2.72-2.56-4.88-5.573-7.093-8.56-.173-4.107-.613-8.293.28-12.347ZM.012 31.435c-.08-4.626.173-9.573 3.12-13.386 6.52-.574 12.76 1.413 19.093 2.493 6.813.267 13.507 1.707 20.333 1.907 10.934 2.546 22.174 3.013 33.32 4.04 4.8.8 9.52 2.306 14.427 2.266 5.867-.133 11.587 1.64 17.467 1.4 3.6-.08 6.8 1.787 9.733 3.654 1.387 2.973 1.027 6.453 1.333 9.653.014 16.88.12 33.773.12 50.653.014 8.947.747 18.2-2.293 26.787-2.667 3.893-6.4 7.027-11.08 8.147a299.54 299.54 0 0 1-4.6-3.48c-1.533-15.267.853-30.8-2.306-45.934-.894-10.36-4.24-20.613-10.16-29.186-2.454-3.107-6.467-7.4-10.747-4.974-1.44 2.614-.854 5.774-1.147 8.64-.133 22.68.254 45.36.334 68.04.2 5.787 1.533 11.48 1.32 17.294-.307 9 2.933 17.666 2.68 26.653-.054 4.507 1.32 8.867 1.293 13.36-.24 7.707 3.08 14.973 2.8 22.693 1.146 6.574 1.16 13.28 2.36 19.854.44 2.653-.174 5.386-1.387 7.76-1.947 3.053-6.107 1.186-9.093 1.693-14.174-.613-28.56 1.32-42.574-1.467-1.16-2.48-2.306-5.053-2.44-7.826.974-9.76 2.014-19.507 2.88-29.28 2.507-8.707 1.88-17.787 3.387-26.654-.48-10.4 3.067-20.44 2.76-30.813-.2-6.293 1.334-12.467 1.347-18.747 0-22.186-.04-44.386.013-66.586-.053-3.187.467-6.654-1.547-9.4-4.826-1.454-9.56 1.48-11.466 5.92-.68 1.52-1.72 2.813-2.747 4.106-1.947 6.88-4.76 13.467-5.36 20.667-.747 14.24-.507 28.52-.6 42.773.147 2.56-1.8 4.48-2.8 6.667-2.44.093-4.88.067-7.32-.013-.493-.574-1.467-1.72-1.96-2.294-1.893-.706-3.227-2.12-3.96-3.986a310.84 310.84 0 0 1-2.08-2.067c-1.693-5.04-2.027-10.4-2.333-15.667C.038 75.01.025 53.222.012 31.435ZM987.319 20.449c7.906-1.854 16.121-3.427 24.251-2.507 2.76 5.573.84 11.773-.46 17.453-2.47 5.974-4.44 12.134-7.12 18.027-1.02 2.293-2.36 4.413-3.39 6.693-3.428 7.04-7.748 13.587-12.001 20.134-1.707 2.733-3.774 5.226-5.427 7.986-4.267 5.44-8.867 10.614-13.64 15.614 6.027 6.093 11.187 13.146 15.853 20.373 3.294 5.067 7.107 9.76 10.6 14.653.894 1.84 1.92 3.627 3.214 5.24 2.931 5.907 6.561 11.44 9.401 17.414 1.57 3.466 3.68 6.706 4.71 10.426 2.78 4.094 3.14 9.28 6.02 13.32 1.34 6.587 4.67 12.56 5.34 19.28.33 5.84 2.18 11.827.33 17.574-.95 4.546-5.76 6.48-9.68 7.786-10.15.56-20.335-.226-30.468.52-3.76.054-7.893.894-11.307-1.093-1.786-7.107-1.107-14.587-1.72-21.853-.627-6.654.6-13.507-1.373-20.014-1.64-5.693-1.827-11.666-3.093-17.453-4.294-13.24-7.094-27.36-14.814-39.107-.946-1.893-1.96-3.746-3.226-5.426l-1.8-3.547c-5.16 4.36-9.601 9.92-15.947 12.627.12 7.866 1.547 15.653 1.373 23.52-.32 7.746 2.92 15.08 2.774 22.826 1.04 6.107 1.066 12.4 3.133 18.294 1.467 7.16 1.827 14.533 3.693 21.626.614 3.667-.32 8.427-3.76 10.427-13.96.4-27.92 1.147-41.88 1.573-3.173-.093-7.28-.44-9.133-3.32-.96-9.226.813-18.493 3.333-27.32.734-5.746 1.734-11.44 2.174-17.213 4-16.187 3.239-32.973 4.813-49.493.573-21.36.347-42.734-.147-64.094-.173-11.56-1.466-23.093-.92-34.653-.013-2.827 2.654-4.52 4.187-6.6 9.08-.467 18.106-1.707 27.2-2.347 2.346.387 4.987 2.2 4.547 4.907-.067 9.307.226 18.627-.454 27.92-.84 17.893-.946 35.8-.88 53.707 11.014-11.56 22.014-23.64 28.987-38.134 1.987-3.386 3.8-6.893 4.613-10.786 3.84-7.12 3.8-15.427 4.587-23.267-.107-6.36-1.267-12.667-.933-19.04 6-1.707 12.226-2.253 18.44-2.653ZM130.225 34.062c4.867-1.2 9.787.173 14.693.04 8.12-.093 15.92 2.853 24.054 2.667 5.786-.134 11.44 1.613 17.24 1.333 6.48-.533 12.493 2.36 18.866 2.88 5.334.613 10.134 3.08 15.134 4.84 8.066 3.653 16.333 8.493 20.546 16.627 6.654 10.306 6.907 23.573 2.56 34.826-1.6 2.187-2.893 4.574-4.04 7.04-4.933 5.747-10.72 11.28-17.853 14.094l-2.267 2.106c-5.666 1.24-10.2 5.307-16.026 6.12 2.506 3.587 5.88 6.427 8.946 9.507 11.4 13.347 22.627 27.333 29.307 43.72 2.72 4.253 3 9.573 5.947 13.707.946 4.28 2.16 8.493 3.8 12.56 1.4 6.213 2.533 12.493 3.653 18.76.613 3.226-1.12 6.12-2.187 9.026-5.386 2.347-11.333 1.334-17.013 1.52-10.16-.12-20.373.04-30.453-1.413-5.947-5.627-3.8-14.08-4.24-21.32-.48-5.773-1.614-11.493-1.28-17.32.306-8.107-2.227-15.907-2.974-23.92-.64-3.2-.92-6.507-2.16-9.547-2.066-4.586-2.266-9.906-5.28-14.08-.12-.56-.333-1.693-.44-2.253-2.053-3.96-4.293-7.827-6.466-11.72-6.4.08-11.547 4.32-17.48 5.96-.307 8.04.28 16.107.24 24.173 2.8 7.227 3.2 15.08 5.933 22.334 2.787 14.52 8.64 28.133 12.293 42.4-.493 2.12-2.32 3.586-3.466 5.373-12.054-.04-24.12.067-36.187-.04-3.867-.147-8.027.053-11.427-2.12-3.866-1.48-4.626-6.2-4.946-9.84.333-14.693 1.6-29.36 1.706-44.053-.226-21.76.52-43.52.227-65.28.04-24.48-.347-48.96-.24-73.454-.08-1.853.733-3.546 1.28-5.253Zm43.2 20.16c-4.067 2.88-6.413 7.253-8.267 11.76-.493 5.427.04 10.907-.68 16.32-.6 14.533.307 29.093-.293 43.64 1.827-1.107 3.653-2.227 5.333-3.547 1.787-.64 3.574-1.32 5.36-1.986 1.294-1.027 2.627-2.027 4.174-2.667 8.893-4.707 17.626-11.213 22.36-20.293 4.36-6.88 4.053-15.454 3.52-23.267-.6-8.973-7.747-15.84-15.427-19.587-5.227-1.706-10.747-1.226-16.08-.373ZM829.172 37.569c6.466-1.267 13.106-.32 19.586-1.56 7.72-1.494 15.587.146 23 2.386 4.934 2.907 8.747 6.947 11.587 11.907 1.92 6.107 2.093 12.56 0 18.653-2.347 3.28-3.853 7.32-7.493 9.44-5.12 4.4-12.28 4.347-18.627 3.76-1.866-2.866-4.467-5.666-4.227-9.333.134-5.44-2.706-10.16-5.693-14.453-2.32-1.387-4.613-2.84-6.893-4.28-3.774-.04-7.547-.027-11.307.04-4.973 3.56-9.36 7.986-12.2 13.453-3.507 5.053-4.16 11.293-6.24 16.947-.96 10.28-2.32 20.653-1.106 31 1.346 9.786-.107 19.746 1.933 29.453 2.093 9.667 1.133 19.947 5 29.213.893 4.494 2.386 8.814 4.786 12.72a78.139 78.139 0 0 0 3.267 5.08c.813 3.947 5.373 4.387 8.307 6.174 10.333 4.306 22.96-1.4 27.787-11.267 5.786-10.96 5.106-23.787 6.973-35.733.426-3.4 4.573-3.56 7.24-3.934 4.546 1.734 6.266 6.307 8.32 10.294 2.28 7.506 1.906 15.426 2.266 23.186-.546 8 .08 16.134-1.76 24-2.32 10.094-7.24 20.667-16.986 25.467-5.814 1.68-11.56 4.307-17.747 3.947-10.227-.027-20.453-.054-30.68 0-6.027.413-11.533-2.494-17.2-4.094-6.76-3.973-13.56-9.226-16.547-16.733-.493-.493-1.466-1.467-1.959-1.947-2.174-6.546-5.427-12.68-6.107-19.666-2.667-6.854-2.107-14.254-3.414-21.387-.186-14.787-.12-29.587-.026-44.36.68-5.173 1.227-10.36 1.64-15.547 1.827-5.52 2.707-11.266 3.827-16.96 4.24-12.08 8.573-24.306 16.199-34.8 3.094-3.573 5.96-7.426 9.694-10.373 7.066-5.72 15.52-10.4 24.8-10.693ZM676.412 49.355c15.053-3.36 30.6-3.466 45.946-3.2 12.52 2.987 22.294 13.054 27.601 24.507 4.44 8.8 7.32 18.32 9.026 28 2.267 5.773 2.04 12.027 3.147 18.04-.053 10.72 1.827 21.333 1.493 32.067.187 9.84-1.44 19.586-1.506 29.413-1.014 5.4-1.054 11-3.174 16.133-2.44 11.867-7.306 23.68-16.213 32.174-1.987 2.613-4.667 4.506-7.88 5.266-.64.52-1.907 1.56-2.547 2.08-10.653 2.8-21.786 1.44-32.666 2.08-13.414-.093-28.467 2.6-40.107-5.826-9.654-7.694-15.014-19.494-18.014-31.2-.693-6.214-3.866-11.934-3.386-18.307-2.12-13.16-.84-26.52-1.2-39.787-.454-7.226 1.44-14.293 1.387-21.506 0-3.76 1.493-7.28 2.266-10.907.827-5.08 1.294-10.333 3.387-15.093 1.733-4.254 1.747-9.187 4.68-12.92.6-1.96 1.266-3.907 1.853-5.867.533-.56 1.6-1.693 2.134-2.253 4.44-10.267 13.133-19.094 23.773-22.894Zm14.333 12.8c-2.213 1.64-4.733 2.76-7.026 4.227-2.2 2.333-3.134 5.573-5.174 8.067-1.546 6.44-3.093 12.92-4.173 19.466.013 12.28-.947 24.72 1.48 36.867 1.733 7.293.48 14.853 2.12 22.16-.12 8.92 3.4 17.227 4.546 25.987 1.76 2.906 2.881 6.12 4.041 9.293 3.84 6.88 10.813 13.84 19.413 12.213 10.64-1.373 15.973-12.68 16.6-22.346 3.96-16.147 2.133-32.92-.2-49.174.24-8.586-1.4-17.04-1.854-25.573-1.92-5.853-2.333-12-3.853-17.933-1.307-3.654-2.893-7.187-4.026-10.894-1-1.253-1.974-2.52-2.721-3.92-2.16-3.733-5.986-5.826-9.24-8.44-3.32-.066-6.626-.08-9.933 0ZM300.945 50.409c7.547-2.227 15.507-3.654 23.4-2.747 17.333 1.96 34.84.307 52.173 2.52 1 1.28 2.027 2.56 3.08 3.84.374 17.4-1.52 34.747-1.28 52.16-.44 26.307.227 52.693 3.214 78.8 2.293 7.627 2.4 15.653 3.986 23.413 2.68 8.347 3.96 17.147 3.467 25.92-2.867 1.587-5.96 2.92-9.307 2.694-11.146-.067-22.293-.32-33.426-.414-3.534.027-6.974-.733-10.4-1.44-1.28-2.8-2.974-5.746-2.027-8.92 2.853-10.933 2.347-22.373 5.107-33.32 1.12-4.88.266-9.946 1.24-14.853 1.306-6.373.413-12.893 1.08-19.32.853-8.64 1.186-17.307 1.586-25.96-8-.4-16.026.24-23.76 2.253-3.946.947-6.533 4.12-9.706 6.36a64.24 64.24 0 0 1-4.227 6.587c-2.613 9.08-4.96 18.533-3.227 28.013 1.387 6.36 1.48 12.907 3.094 19.214 2.533 7.906 6.093 15.466 8.226 23.506 3.387 4.774 4.014 10.814 3.734 16.507-9.254 1.56-18.667.093-27.987.28-6.547-.453-13.4 1.027-19.627-1.6-5.213-3.573-7.013-9.947-8.346-15.773-.08-22.907-.76-45.92 2.293-68.694.453-10.066 1.027-20.24 3.933-29.933.974-6.467 1.627-13.027 4.054-19.133 1.8-10.307 6.066-19.894 10.12-29.467.973-1.28 1.88-2.613 2.6-4.053 4-6.987 9.92-12.574 16.933-16.44Zm6.253 29.68c-.506.613-1.52 1.853-2.026 2.466-1.36 6.76-4.614 12.947-5.187 19.894-.48 9.68-3.507 19.093-2.813 28.853 6.173-4.613 12.44-9.067 19.133-12.893 3.147-1 6.267-2.12 9.24-3.547 5.853-1.747 11.973-2.2 18.053-2.467-.986-12.666 3.134-25.413.014-37.96-.534-3.093-2.894-5.386-4.347-8.066-3.4-1.574-6.573-4.267-10.48-4.227-9.76 1.307-18.92 8.253-21.587 17.947ZM532.918 52.155c30.294-.013 60.547-2.293 90.84-2.066 3.614-.414 7.014 2.92 6.534 6.573-.014 21.813-.04 43.64.013 65.467.147 3.413-.76 6.76-1.88 9.946-2.147 3.2-5.667 5-8.613 7.334-1.8.013-3.587.04-5.374.066-1.24-2.026-3.373-3.866-3.213-6.453-.187-11.147.4-22.307-.84-33.413.2-7.84-3.147-14.934-5.747-22.12-1.706-2.08-2.96-4.48-4.533-6.654-2.173-1.813-4.667-3.213-6.947-4.88-4.426.707-5.933 5.547-5.693 9.454.04 18.253-.667 36.546.573 54.76 1.4 9.24.374 18.613 2.12 27.813-.36 7.773 1.4 15.333 2.614 22.947-.054 6.733 1.64 13.306 1.72 20.04 2.32 10.8 3.893 21.813 3.853 32.893-2.693 2.013-5.787 3.68-9.253 3.533-12.08.227-24.174.214-36.24.28-3.787.227-7.547-1.24-10-4.133-1.96-6.093 1.04-12.16 1.853-18.16.307-6.333 1.707-12.533 1.88-18.88 3.64-15.213 2.76-30.987 5.653-46.32 1.107-6.2.427-12.52.987-18.76 1.293-14.173.653-28.427.8-42.627-.173-6.6.707-13.333-1.08-19.8-3.533-2.4-7.133-.76-10.173 1.547-5.587 7.76-9.454 16.867-10.187 26.48-2.827 12.627-1.133 25.613-1.947 38.4-.266 5.907-7.52 5.44-11.453 3.733-2.107-2.586-4.92-4.4-7.44-6.546-.36-3.96-1.627-7.827-1.493-11.84.053-19.547.013-39.107.013-58.654-.133-2.76.84-5.36 1.507-7.986 6.666-2.867 14.106-1.547 21.146-1.974ZM428.265 54.262c11.813-2.173 23.96-3.24 35.947-1.827 7.213.574 15.106.24 21.506 4.147.614.093 1.827.253 2.441.347 4.813 1.64 7.866 5.933 11.106 9.586.787 1.48 1.76 2.84 2.774 4.174 1.56 5.613 1.6 11.386.026 17-2.266 3.413-5.173 6.24-8.28 8.88-5.106 2-11.706 2.76-16.613 0-2.413-4.12-2.574-9.28-4.48-13.707-1.694-2.813-3.574-5.56-5.934-7.867-2.413-1.8-5.28-2.906-7.666-4.746-5.507-.467-11.107-.894-16.56.24-4.56 2.013-9.32 5.2-10.427 10.4-1.32 3.573.413 7.226 1.16 10.72 7.987 12.613 21.013 20.546 32.707 29.306 4.226 3.387 8.613 6.587 13.08 9.654 5.32 4.333 12.493 7 15.52 13.68 1.773 2.253 4.04 4.093 5.507 6.586 2.64 3.374 5.08 6.934 7.173 10.694 9.28 17.013 11.52 38.133 4 56.2-2.613 6.666-7.493 12.306-13.56 16.08-5.853 2.013-11.827 4.186-18.12 3.973-18.667-.093-37.347-.2-56.014-.293-5.96 0-11.84-1.294-17.533-2.96-6.08-2.36-7.627-9.254-8.96-14.947-.307-14.24 0-28.52-.146-42.773-.28-7.107 1.986-14.014 4.453-20.587 1.533-1.04 2.973-2.213 4.373-3.427 3.374.24 7.973-1.226 10.107 2.28 1.36 1.547.96 3.734 1.147 5.614-.094 9.106 2.053 18.026 4.226 26.8 2.867 4.946 5.654 10.24 10.907 13.066 7.987 5.374 18.16 4.574 27.133 2.64 2.347-1.733 5.08-2.893 7.44-4.613 1.827-2.093 3.094-4.6 4.707-6.867 1.893-7.48 1.64-15.866-2.814-22.426-7.653-11.854-20.04-19.267-30.413-28.44-5.147-4.854-11.92-7.374-16.707-12.6a28.51 28.51 0 0 0-4.013-4.014c-4.786-4.88-8.547-10.546-12.147-16.32-1.48-4.546-2.559-9.213-3.479-13.906-1.254-7.08 1.546-13.947 3.32-20.68 3.88-6.96 9.733-12.507 16.64-16.414l2.306-.32c1.373-.786 2.76-1.573 4.16-2.333ZM337.185 259.622c3.4-.92 6.867-1.653 10.413-1.52h86.76c2.16-.107 4.254.707 6.08 1.827 1 3.293.747 6.813.854 10.226-.12 17.787.213 35.6-.374 53.374-.08 4.24-2.96 7.453-5.653 10.386-2.253.867-4.56 1.627-7 1.614-.827-.467-2.493-1.4-3.32-1.867-.267-13.587.613-27.347-1.987-40.747-2.653-6.866-4.346-14.906-10.813-19.306-1.64-1.707-3.893-2.294-6.187-2.254-.573.88-1.733 2.654-2.306 3.534-.107 14.373-.014 28.76-.04 43.146-.44 10.96 1.706 21.787 1.586 32.747 3.254 14.907 2.347 30.347 6.174 45.133.346 6.56 2.493 13.014 1.373 19.627-2.44 3.227-6.947 2.507-10.48 2.573-10.747-.306-21.427 1.214-32.147 1.187-2.853-.187-6.88-1.64-6.546-5.16.466-8.16 1.84-16.293 3.746-24.253.08-6.24 1.667-12.32 1.707-18.547.333-6.707 2.813-13.16 2.587-19.92-.187-4.893.84-9.68 1.24-14.52.306-19.587.84-39.173.52-58.76.066-2.307-.894-4.387-1.987-6.333-.693-.094-2.093-.267-2.8-.347-5.627 3.56-8.827 9.32-11.413 15.253-1.32 5.6-2.374 11.267-3.36 16.934-1.267 10.453-.107 21.013-.947 31.493-5.587 4.24-12.48.013-15.667-5.133-.8-3.027-1.8-6.04-1.613-9.214.067-18.24 0-36.493.04-54.733-.093-2.267.947-4.32 1.56-6.44ZM452.945 258.035c8.827.254 17.68-.186 26.493.2 3.72 2 3.6 6.814 3.334 10.467-1.72 23.093-1.92 46.28-1.627 69.44.053 10.64 2.413 21.08 2.827 31.693.88 10.614 4.173 20.747 5.226 31.36 2.454 3.587 2.667 7.907 2.427 12.107a140.58 140.58 0 0 0-3.48 3.427c-14.707-.254-29.427.666-44.133 0-1.107-2.467-3.4-4.907-2.24-7.774 2.626-7.56 2.746-15.666 5.373-23.2 1.44-8.773 1.613-17.72 3.507-26.426 1.56-7.44.786-15.08.96-22.614-.134-18.226.253-36.48-.187-54.706-.093-7.894-4.28-17.24 1.52-23.974ZM495.572 258.049c7.133.066 14.28.133 21.426-.04 4.654 3.48 3 9.8 3.427 14.786.72 9.307.027 18.694 1.693 27.92-.013 6.094.52 12.147 2.2 18.027 1.2 8.293 1.68 16.76 4.36 24.773.8 8.04 4.04 15.44 5.854 23.24 2.493 5.2 4.946 10.374 8.106 15.214 1.774.84 3.627 1.88 5.68 1.453 3.627-4.307 5.014-9.867 6.787-15.067 2.96-5.693 2.693-12.32 4.587-18.346 2.093-6.467.893-13.32 1.4-19.974.146-8.893-.014-17.826-.387-26.706-1.813-6.534-2.72-13.227-4.067-19.854-1.493-4.133-3.08-8.226-3.973-12.533-1.787-3.8-5.88-9.533-1.427-12.92 8.52.267 17.067-.16 25.587.2 5.587.653 8.253 6.48 8.653 11.48 1.654 13.827 3.654 27.773 2.147 41.76-1.813 14.12-1.107 28.587-5.04 42.36-.6 9.507-4.4 18.267-5.92 27.6-2.893 4.4-2.973 10-5.907 14.4-1.44 2.227-1.08 6.04-4.146 6.707-.96 3.906-3.92 6.626-6.08 9.853-2.827 1.613-5.294 4.653-8.814 4.4-8.453-.067-16.92.107-25.36-.08-2.893-.667-5.12-2.893-7.653-4.32-1.533-2.373-3.44-4.48-4.893-6.907-1.12-1.4-2.24-2.8-3.374-4.16a966.21 966.21 0 0 0-.373-2.32c-2.88-3.88-3.147-8.84-4.973-13.173-2.56-5.72-2.227-12.2-4.534-17.987-1.986-7.146-1.693-14.733-3.733-21.88-1.707-5.52-1.027-11.386-2.373-16.986-.427-9.84.28-19.72-1.294-29.494-.28-12.266-.813-24.533-.146-36.786.853-1.547 1.693-3.094 2.56-4.64ZM631.612 259.862c12.666-3.08 25.787-1.293 38.693-1.76 8.374.44 17.04-1.08 25.187 1.413 2.626 5.48 1.187 11.747 1.227 17.6-1.294 22.067-1.2 44.214-.734 66.32 1.32 14.4.707 29.08 4.56 43.134 1.12 6.333 1.093 13 3.893 18.906.96 5.014 1.96 10.294.147 15.254-10.12.333-20.253 0-30.373-.094-5.72-.72-12.6.334-17.134-3.92-.426-5.08-.68-10.4 1-15.306-.266-6.574 2.72-12.68 2.827-19.2-.08-6.787 1.894-13.4 1.4-20.214.64-10.613 1.827-21.2 1.973-31.853-10.506.253-22.013 1.747-29.639 9.693-5.894 6.867-6.641 16.174-6.481 24.84.614 6.974.867 13.974 2.4 20.84 2.987 5.027 3.48 11.12 6.8 16.027 1.64 4.747 4.401 9.2 4.627 14.347-.346.533-1.027 1.6-1.373 2.133-11.414.16-22.854.187-34.267-.08-4.747-.107-8.427-2.747-11.853-5.707-3.534-9.666-2.52-20.12-2.347-30.2.133-7.96.987-15.893.8-23.853-.373-8.56 1.453-17 1.747-25.533 2.733-8.414 2.4-17.534 5.68-25.787 1.36-4.533 1.493-9.56 4.24-13.587.573-2.2 1.28-4.373 1.933-6.546 1.614-2.547 2.893-5.28 4.027-8.054 2.506-3.773 4.893-7.6 8.173-10.786 3.56-3.787 8.16-5.987 12.867-8.027Zm15 11.68c-2.36 1.787-5.147 2.933-7.454 4.787-2.72 3.066-5.24 6.44-6.733 10.293-2.853 4.52-3.213 9.973-5.293 14.813-2.28 9.414-2.347 19.16-2.56 28.8 2.906-3.173 6.613-5.48 10.227-7.76 1.48-.693 2.759-1.72 4.039-2.733 2.747-.947 5.48-1.987 8.08-3.347 5.72-2.413 12.04-2.053 18.027-3.373-.64-11.4 2.68-22.827-.173-34.12-1.907-2.88-4.227-5.427-7.04-7.44a64.518 64.518 0 0 0-11.12.08ZM715.639 259.529c6.506-1.814 13.306-.694 19.959-.867 6.32.293 12.774-.533 19 .933-.426 2.414-1.199 4.734-1.973 7.054-2.84 3.626-3.906 8.213-5.973 12.266-2.427 13.814-1.347 27.934-1.547 41.894-.293 13.013 1.107 25.96 1.6 38.933 1.947 9.987 1.28 20.84 6.56 29.867 1.813 4.293 5.893 7.133 10.413 7.96 4.64-.307 8.694-3.707 10.334-7.987 4.946-10.733 4.746-23.147 3.76-34.707-.174-5.92-3.107-10.973-5.24-16.32-.534-.4-1.6-1.2-2.133-1.613a238.552 238.552 0 0 1-.134-6.213 107.446 107.446 0 0 0 3.387-3.134c6.8-1.96 14.706-.693 19.293 5.054 2.24 3.04 4.307 6.32 5 10.106 1.12 5.974 3.133 11.827 3 17.987 0 17.8 0 35.613.014 53.427.186 3.773-2 7.026-3.16 10.466-5.2 2.787-11.281 1.147-16.881 1.48-7.613.374-15.08-1.666-22.68-1.36-10.466.294-20.799-1.666-31.199-2.413-2.907-.12-5.707-.8-8.414-1.787-2.213-4.533-4.08-9.386-3.92-14.52-.24-27.133 2.92-54.16 2.24-81.293.64-20.093-3.08-40.04-2.667-60.12-.093-1.813.801-3.44 1.361-5.093ZM129.078 262.702c1.387-2.92 5.014-2.947 7.774-3.067 20.946-.413 41.893-.08 62.84-.226 4.946-.414 9.24 2.44 13.893 3.546 1.36.814 2.653 1.707 3.947 2.627 2.506 1.56 3.96 4.2 5.853 6.387 2.147 5.64 1.947 11.786.027 17.466-2.427 2.827-4.774 5.96-8.494 7.12-4.693 2.174-9.786-.293-13.533-3.186-1.44-4.747-4.267-8.854-6.133-13.414-2.347-1.346-4.6-2.853-6.867-4.346-7.44-1.814-15.133-2.054-22.52.16-1.627 2.08-3.893 3.546-5.453 5.68-3.747 4.306-3.8 10.333-5.2 15.6-1.187 11.693-.347 23.493-.64 35.24 1.853-.974 3.373-2.334 4.226-4.267 2.227-1.307 3.8-3.373 5.654-5.133 2.133-4.04 6.933-5.32 10.413-7.947 1.307-.413 2.613-.813 3.947-1.187 6.146-4.12 13.92-1.68 20.813-2.306 3.52 1.973 8.827 4.466 7.573 9.426-.946 3.827-1.013 9.694-5.653 10.867-5.04 1.84-10.267-.773-15.413-.08-7.56 1.427-15.334 3.547-20.907 9.2-.187 2.267-.947 4.387-2.587 6.027-.44 1.32-.906 2.64-1.4 3.946-4.106 13.92-3.093 28.894 1.307 42.6 2.387 3.707 5.093 7.814 9.813 8.587 5.054.16 10.107.187 15.147 0 6.827-1.987 13.68-5.88 17.093-12.413.747-1.547 1.747-2.947 2.747-4.334 3.107-8.413.08-17.933 3.973-26.08 2.8-4.746 8.454-1.333 11.947.574a84.662 84.662 0 0 0 4.2 7.906c2.347 14.48 1.267 29.16 1.4 43.76.067 3.48-.867 6.867-1.373 10.294-3.6 4.973-9.827 7.706-15.92 7.133-9.734 1.587-19.667.693-29.347 2.64-4.44.76-8.92 1.36-13.427 1.28-4.866-.04-9.586 1.493-14.453 1.32-6.867-.347-13.467 1.947-20.267 2.347-3.306.333-5.546-2.387-7.826-4.28.146-10.054-.294-20.134.52-30.174 1.413-20.826 2.333-41.693 2.173-62.56-.12-22.666.307-45.333-.373-67.986-.067-2.92-.067-5.88.506-8.747ZM269.372 259.662c11.413-1.2 22.88-.96 34.306-.053 8.974 2.573 19.4 5.186 23.867 14.36 2.48 6.653 2.627 15.72-3.307 20.666-1.266 1.12-2.586 2.16-3.866 3.267-4.574 1.787-9.494 1.613-14.32 1.613-3.387-2.893-2.387-7.786-4.454-11.426-1.826-5.574-6.32-9.534-11.2-12.44-5.386-1-10.826-.854-16.226 0-2.374 1.933-5.84 2.853-6.974 5.973-.573.56-1.693 1.707-2.253 2.28.04 2.947-.28 5.947.307 8.867 4.28 9.026 12.64 14.933 20.293 20.893 13.893 9.76 28.84 18.747 39.88 31.88 2.533 3.4 5.24 6.707 7.187 10.493 3.4 5.534 4.853 11.894 6.826 18 .36 6.734.24 13.494.054 20.227-1.454 6.493-4.454 12.613-8.267 18.067-5.333 5.72-12.893 9.386-20.747 9.733-14.386-.133-28.586 3.28-42.986 2.707-8.76.453-17.6 2.253-26.254-.227-1.28-1.133-2.546-2.293-4.146-2.92-2.4-5.253-3.787-11.027-3.587-16.813.32-16.334-1.24-33.067 3.64-48.907 3.227-2.053 6.333-4.893 10.467-4.52 1.253 1.2 2.56 2.36 3.92 3.453.08 6.934.973 13.814 1.573 20.707 1.84 7.293 5.347 14.573 12.053 18.573 8.214 3.454 17.494 2.294 25.774-.266 3.253-2.507 6.04-5.507 8.413-8.854 1.76-5.706 1.747-11.626.013-17.32-4.973-9.386-13.6-15.76-21.88-22.04-10.4-8.253-21.72-15.666-30.08-26.173-9.653-10.707-10.92-26.68-6.16-39.88 2.467-2.893 3.8-6.613 6.667-9.187 2.533-2.84 6.2-4.2 9.08-6.626 4.173-1.254 8.253-2.774 12.387-4.107ZM810.639 259.435c19.88 0 39.759.014 59.653-.013 10.106-.307 21.026 1.68 28.906 8.427 5.734 5.6 7.054 14.08 5.067 21.64-.787 3.346-3.653 5.48-5.493 8.213-4.347 2.453-9.334 1.88-13.814.16a231.3 231.3 0 0 0-3.746-4.2c-1.453-4.747-3.854-9.16-6.387-13.387-8.04-6.666-19.347-7.146-29.08-4.6-3.347 2.08-6.267 4.587-8.493 7.854-5.227 15.253-2.707 31.56-3.2 47.346 5.667-6.013 12.346-10.88 19.32-15.173 6.346-1.627 12.733-4.667 19.427-3.373 3.933.746 7.839 1.813 11.573 3.32.746 1.506 1.96 2.68 3.213 3.786.467 5.054-.347 10.174-3.093 14.52-5.6 1.6-11.293-.133-16.947-.306-5.186-.147-10.453.28-15.373 2-4.774 2.613-8.347 6.493-10.974 11.226-4.066 13.96-3.213 29.027.027 43.067 1.707 2.253 2.92 4.867 4.773 7.027 2.094 1.893 4.614 3.24 6.774 5.066 8.013.094 16.04.454 24.053-.08 2.293-1.16 4.147-3.026 6.333-4.386 8.667-9.774 5.894-23.52 8.84-35.254 2.36-.16 4.747-.24 7.134-.306 4.16 2.04 5.693 6.466 8.213 10.026.573 3.787 1.774 7.52 1.627 11.4-.053 15.347-.014 30.694-.027 46.04-1.68 4.907-7 7.56-11.96 7.307-7.666-.307-15.067-3.027-22.787-2.68-5.333.173-10.52-1.547-15.853-1.333-9.04.306-17.773-2.854-26.8-2.654-5.773.227-11.387-1.28-17.133-1.453-4.52-.333-7.227-5.08-7.387-9.227.28-16.906 2.2-33.773 1.92-50.693v-106.76c.413-.64 1.267-1.92 1.694-2.547ZM29.078 262.129c20.814-.907 41.654-.974 62.467-1.614 7.28-.426 14.533 1.067 21.453 3.214 3.147 2.546 6.88 4.52 9 8.12 3.52 4.866 3.547 11.053 2.534 16.733-1.72 4.307-4.667 7.96-8.254 10.853-3.546.134-7.093.12-10.64-.093-.746-.427-2.24-1.267-2.986-1.693-1.947-4.574-4.787-8.72-6.014-13.574a37.055 37.055 0 0 1-4.173-4.386c-5.813-2.147-11.893-4.64-18.227-3.64-6.013 1.28-12.573 3.093-15.933 8.733-1.333 3.453-2.973 6.853-3.88 10.453-.92 14.44-.067 28.907-.76 43.347.267-.6.787-1.787 1.053-2.373 6.094-5.68 11.627-12.12 18.907-16.427 3.387-1.213 6.587-2.907 9.947-4.2 5.693-.6 11.44-.307 17.146-.067 1.827 1.48 3.72 2.867 5.627 4.254.187 5.106.64 10.506-1.427 15.32-2.946 1.386-5.88 3.56-9.36 2.72-7.066-1.334-14.36-.267-21.146 1.92-4.6 2.973-8.827 6.36-11.84 11.013-1.187 4.16-3.374 8-4.214 12.24-.2 7.56-.293 15.147.107 22.693 2.147 6.534 2.6 13.56 5.627 19.814 3.4 11.28 8.2 22.013 12.533 32.96.733 2.026-1.347 3.733-3.187 3.96-12.346 3.4-25.333 2.466-37.8 5.186-3.64 1.147-6.72-1.306-9.386-3.386.186-18.947-.294-37.894.373-56.827.773-35.947.4-71.907.48-107.853.147-5.827-.84-12.014 1.973-17.4ZM917.145 264.769c2.72-4.96 9.507-4.507 14.44-4.36 6.494.613 14.187-1.334 19.507 3.493 2.333 3.427 4.893 6.787 6.293 10.747 2.6 3.72 3.414 8.32 5.92 12.106 2.974 8.734 7.294 16.947 10.134 25.774 1.693 3.213 3.026 6.613 3.746 10.2.72 1.373 1.454 2.746 2.2 4.133 2.854 10.507 7.24 20.547 9.907 31.147 1.667 4.16 3.253 8.413 3.787 12.906.96 1.92 2.28 3.614 3.826 5.12-.026-13.106.24-26.226-.12-39.333-1.533-7.373-.373-15.08-2.826-22.267-1.494-6.32-1.507-12.946-3.44-19.173-2.014-5.4-2.294-11.307-4.8-16.547-1.734-5.36-3.347-11.133-2.227-16.786 8.453-.6 16.918.306 25.388.16 3.6.16 7.51-.694 10.83 1.2.88 26.306-3.22 52.453-2.76 78.76-.07 22.226 1.24 44.44 2.65 66.613-.17 13.24.32 26.48 0 39.72a90.738 90.738 0 0 0-3.47 2.147c-5.68.386-11.01-2.134-16.678-1.814-3.933.36-7.133-2.08-9.84-4.586-1.173-8.76-4.96-16.827-6.333-25.534-2.947-5.426-2.227-12.373-6.04-17.226-.747-3.414-1.294-6.947-2.787-10.12-2.373-4.334-2.267-9.64-5.227-13.707-.586-2.253-1.306-4.48-1.84-6.733-.746-1.36-1.48-2.72-2.2-4.08-.56-2.2-1.253-4.36-1.853-6.547-4.347-7.64-6.427-16.453-10.84-24.12a88.116 88.116 0 0 1-1.187-3.933c-.533-.614-1.586-1.854-2.12-2.467-.586-1.947-1.24-3.88-1.866-5.8-1.174-1.387-2.32-2.8-2.934-4.52-1.586-.013-3.16 0-4.706.027-.174 17.853-.734 35.986 3.773 53.373.627 9.867 4.2 19.08 5.747 28.773 3.173 4.934 2.693 11.174 5.386 16.307 1.654 3.547 1.747 7.627 3.44 11.173 2.08 4.067 3.04 8.64 3.08 13.2-8.013.96-16.066-.613-24.026-1.386-5.814.266-11.454-1.2-16.92-2.934-.76-.426-2.267-1.28-3.014-1.72-1.72-6.84-1.946-13.933-.973-20.906 1.307-8.307.307-16.747 1.413-25.08 2.6-26.2 2.147-52.574.56-78.827-.853-15.507-1.706-31.053-1-46.573Z"/></svg>