<svg width="1026" height="451" viewBox="0 0 1026 451" fill="none" xmlns="http://www.w3.org/2000/svg">
<path d="M307.958 2.26192C320.132 -5.89808 335.852 9.70192 330.852 22.3019C329.772 24.4353 328.492 26.4486 327.345 28.5286C324.118 30.4486 321.025 33.4886 316.945 32.8353C308.105 32.3419 301.412 23.9419 300.892 15.4219C300.998 10.2086 304.305 5.70192 307.958 2.26192Z" fill="#F5DD5C"/>
<path d="M345.305 11.7153C347.825 6.74197 352.732 3.0753 358.318 2.4353C364.118 2.5153 369.692 5.82197 372.758 10.742C375.132 16.9153 375.305 24.142 371.238 29.6486C366.918 35.702 358.292 34.902 352.118 32.622C349.398 30.062 347.238 27.0486 345.025 24.062C344.852 19.9553 344.412 15.7686 345.305 11.7153Z" fill="#F5DD5C"/>
<path d="M0.0117806 31.4353C-0.0682194 26.8086 0.185114 21.8619 3.13178 18.0486C9.65178 17.4753 15.8918 19.4619 22.2251 20.5419C29.0384 20.8086 35.7318 22.2486 42.5584 22.4486C53.4918 24.9953 64.7318 25.4619 75.8784 26.4886C80.6784 27.2886 85.3985 28.7953 90.3051 28.7553C96.1718 28.6219 101.892 30.3953 107.772 30.1553C111.372 30.0753 114.572 31.9419 117.505 33.8086C118.892 36.7819 118.532 40.2619 118.838 43.4619C118.852 60.3419 118.958 77.2353 118.958 94.1153C118.972 103.062 119.705 112.315 116.665 120.902C113.998 124.795 110.265 127.929 105.585 129.049C104.038 127.902 102.505 126.742 100.985 125.569C99.4518 110.302 101.838 94.7686 98.6785 79.6353C97.7851 69.2753 94.4385 59.0219 88.5185 50.4486C86.0651 47.3419 82.0518 43.0486 77.7718 45.4753C76.3318 48.0886 76.9185 51.2486 76.6251 54.1153C76.4918 76.7953 76.8785 99.4753 76.9585 122.155C77.1585 127.942 78.4918 133.635 78.2784 139.449C77.9718 148.449 81.2118 157.115 80.9585 166.102C80.9051 170.609 82.2785 174.969 82.2518 179.462C82.0118 187.169 85.3318 194.435 85.0518 202.155C86.1985 208.729 86.2118 215.435 87.4118 222.009C87.8518 224.662 87.2385 227.395 86.0251 229.769C84.0785 232.822 79.9184 230.955 76.9318 231.462C62.7584 230.849 48.3718 232.782 34.3585 229.995C33.1985 227.515 32.0518 224.942 31.9184 222.169C32.8918 212.409 33.9318 202.662 34.7984 192.889C37.3051 184.182 36.6784 175.102 38.1851 166.235C37.7051 155.835 41.2518 145.795 40.9451 135.422C40.7451 129.129 42.2785 122.955 42.2918 116.675C42.2918 94.4886 42.2518 72.2886 42.3051 50.0886C42.2518 46.9019 42.7718 43.4353 40.7584 40.6886C35.9318 39.2353 31.1984 42.1686 29.2918 46.6086C28.6118 48.1286 27.5718 49.4219 26.5451 50.7153C24.5984 57.5953 21.7851 64.1819 21.1851 71.3819C20.4384 85.6219 20.6784 99.9019 20.5851 114.155C20.7318 116.715 18.7851 118.635 17.7851 120.822C15.3451 120.915 12.9051 120.889 10.4651 120.809C9.97178 120.235 8.99845 119.089 8.50511 118.515C6.61178 117.809 5.27845 116.395 4.54512 114.529C4.02512 114.022 2.98511 112.982 2.46511 112.462C0.771781 107.422 0.438448 102.062 0.131781 96.7953C0.0384475 75.0086 0.025114 53.2219 0.0117806 31.4353Z" fill="#F5DD5C"/>
<path d="M987.319 20.4486C995.225 18.5953 1003.44 17.0219 1011.57 17.9419C1014.33 23.5153 1012.41 29.7153 1011.11 35.3953C1008.64 41.3686 1006.67 47.5286 1003.99 53.4219C1002.97 55.7153 1001.63 57.8353 1000.6 60.1153C997.172 67.1553 992.852 73.7019 988.599 80.2486C986.892 82.9819 984.825 85.4753 983.172 88.2353C978.905 93.6753 974.305 98.8486 969.532 103.849C975.559 109.942 980.719 116.995 985.385 124.222C988.679 129.289 992.492 133.982 995.985 138.875C996.879 140.715 997.905 142.502 999.199 144.115C1002.13 150.022 1005.76 155.555 1008.6 161.529C1010.17 164.995 1012.28 168.235 1013.31 171.955C1016.09 176.049 1016.45 181.235 1019.33 185.275C1020.67 191.862 1024 197.835 1024.67 204.555C1025 210.395 1026.85 216.382 1025 222.129C1024.05 226.675 1019.24 228.609 1015.32 229.915C1005.17 230.475 994.985 229.689 984.852 230.435C981.092 230.489 976.959 231.329 973.545 229.342C971.759 222.235 972.438 214.755 971.825 207.489C971.198 200.835 972.425 193.982 970.452 187.475C968.812 181.782 968.625 175.809 967.359 170.022C963.065 156.782 960.265 142.662 952.545 130.915C951.599 129.022 950.585 127.169 949.319 125.489C948.865 124.595 947.972 122.835 947.519 121.942C942.359 126.302 937.918 131.862 931.572 134.569C931.692 142.435 933.119 150.222 932.945 158.089C932.625 165.835 935.865 173.169 935.719 180.915C936.759 187.022 936.785 193.315 938.852 199.209C940.319 206.369 940.679 213.742 942.545 220.835C943.159 224.502 942.225 229.262 938.785 231.262C924.825 231.662 910.865 232.409 896.905 232.835C893.732 232.742 889.625 232.395 887.772 229.515C886.812 220.289 888.585 211.022 891.105 202.195C891.839 196.449 892.839 190.755 893.279 184.982C897.279 168.795 896.518 152.009 898.092 135.489C898.665 114.129 898.439 92.7553 897.945 71.3953C897.772 59.8353 896.479 48.3019 897.025 36.7419C897.012 33.9153 899.679 32.2219 901.212 30.1419C910.292 29.6753 919.318 28.4353 928.412 27.7953C930.758 28.1819 933.399 29.9953 932.959 32.7019C932.892 42.0086 933.185 51.3286 932.505 60.6219C931.665 78.5153 931.559 96.4219 931.625 114.329C942.639 102.769 953.639 90.6886 960.612 76.1953C962.599 72.8086 964.412 69.3019 965.225 65.4086C969.065 58.2886 969.025 49.9819 969.812 42.1419C969.705 35.7819 968.545 29.4753 968.879 23.1019C974.879 21.3953 981.105 20.8486 987.319 20.4486Z" fill="#F5DD5C"/>
<path d="M130.225 34.0619C135.092 32.8619 140.012 34.2353 144.918 34.1019C153.038 34.0086 160.838 36.9553 168.972 36.7686C174.758 36.6353 180.412 38.3819 186.212 38.1019C192.692 37.5686 198.705 40.4619 205.078 40.9819C210.412 41.5953 215.212 44.0619 220.212 45.8219C228.278 49.4753 236.545 54.3153 240.758 62.4486C247.412 72.7553 247.665 86.0219 243.318 97.2753C241.718 99.4619 240.425 101.849 239.278 104.315C234.345 110.062 228.558 115.595 221.425 118.409C220.865 118.929 219.732 119.982 219.158 120.515C213.492 121.755 208.958 125.822 203.132 126.635C205.638 130.222 209.012 133.062 212.078 136.142C223.478 149.489 234.705 163.475 241.385 179.862C244.105 184.115 244.385 189.435 247.332 193.569C248.278 197.849 249.492 202.062 251.132 206.129C252.532 212.342 253.665 218.622 254.785 224.889C255.398 228.115 253.665 231.009 252.598 233.915C247.212 236.262 241.265 235.249 235.585 235.435C225.425 235.315 215.212 235.475 205.132 234.022C199.185 228.395 201.332 219.942 200.892 212.702C200.412 206.929 199.278 201.209 199.612 195.382C199.918 187.275 197.385 179.475 196.638 171.462C195.998 168.262 195.718 164.955 194.478 161.915C192.412 157.329 192.212 152.009 189.198 147.835C189.078 147.275 188.865 146.142 188.758 145.582C186.705 141.622 184.465 137.755 182.292 133.862C175.892 133.942 170.745 138.182 164.812 139.822C164.505 147.862 165.092 155.929 165.052 163.995C167.852 171.222 168.252 179.075 170.985 186.329C173.772 200.849 179.625 214.462 183.278 228.729C182.785 230.849 180.958 232.315 179.812 234.102C167.758 234.062 155.692 234.169 143.625 234.062C139.758 233.915 135.598 234.115 132.198 231.942C128.332 230.462 127.572 225.742 127.252 222.102C127.585 207.409 128.852 192.742 128.958 178.049C128.732 156.289 129.478 134.529 129.185 112.769C129.225 88.2886 128.838 63.8086 128.945 39.3153C128.865 37.4619 129.678 35.7686 130.225 34.0619ZM173.425 54.2219C169.358 57.1019 167.012 61.4753 165.158 65.9819C164.665 71.4086 165.198 76.8886 164.478 82.3019C163.878 96.8353 164.785 111.395 164.185 125.942C166.012 124.835 167.838 123.715 169.518 122.395C171.305 121.755 173.092 121.075 174.878 120.409C176.172 119.382 177.505 118.382 179.052 117.742C187.945 113.035 196.678 106.529 201.412 97.4486C205.772 90.5686 205.465 81.9953 204.932 74.1819C204.332 65.2086 197.185 58.3419 189.505 54.5953C184.278 52.8886 178.758 53.3686 173.425 54.2219Z" fill="#F5DD5C"/>
<path d="M829.172 37.5686C835.638 36.3019 842.278 37.2486 848.758 36.0086C856.478 34.5153 864.345 36.1553 871.758 38.3953C876.692 41.3019 880.505 45.3419 883.345 50.3019C885.265 56.4086 885.438 62.8619 883.345 68.9553C880.998 72.2353 879.492 76.2753 875.852 78.3953C870.732 82.7953 863.572 82.7419 857.225 82.1553C855.359 79.2886 852.758 76.4886 852.998 72.8219C853.132 67.3819 850.292 62.6619 847.305 58.3686C844.985 56.9819 842.692 55.5286 840.412 54.0886C836.638 54.0486 832.865 54.0619 829.105 54.1286C824.132 57.6886 819.745 62.1153 816.905 67.5819C813.398 72.6353 812.745 78.8753 810.665 84.5286C809.705 94.8086 808.345 105.182 809.559 115.529C810.905 125.315 809.452 135.275 811.492 144.982C813.585 154.649 812.625 164.929 816.492 174.195C817.385 178.689 818.878 183.009 821.278 186.915C822.305 188.649 823.385 190.342 824.545 191.995C825.358 195.942 829.918 196.382 832.852 198.169C843.185 202.475 855.812 196.769 860.639 186.902C866.425 175.942 865.745 163.115 867.612 151.169C868.038 147.769 872.185 147.609 874.852 147.235C879.398 148.969 881.118 153.542 883.172 157.529C885.452 165.035 885.078 172.955 885.438 180.715C884.892 188.715 885.518 196.849 883.678 204.715C881.358 214.809 876.438 225.382 866.692 230.182C860.878 231.862 855.132 234.489 848.945 234.129C838.718 234.102 828.492 234.075 818.265 234.129C812.238 234.542 806.732 231.635 801.065 230.035C794.305 226.062 787.505 220.809 784.518 213.302C784.025 212.809 783.052 211.835 782.559 211.355C780.385 204.809 777.132 198.675 776.452 191.689C773.785 184.835 774.345 177.435 773.038 170.302C772.852 155.515 772.918 140.715 773.012 125.942C773.692 120.769 774.239 115.582 774.652 110.395C776.479 104.875 777.359 99.1286 778.479 93.4353C782.719 81.3553 787.052 69.1286 794.678 58.6353C797.772 55.0619 800.638 51.2086 804.372 48.2619C811.438 42.5419 819.892 37.8619 829.172 37.5686Z" fill="#F5DD5C"/>
<path d="M676.412 49.3553C691.465 45.9953 707.012 45.8886 722.358 46.1553C734.878 49.1419 744.652 59.2086 749.959 70.6619C754.399 79.4619 757.279 88.9819 758.985 98.6619C761.252 104.435 761.025 110.689 762.132 116.702C762.079 127.422 763.959 138.035 763.625 148.769C763.812 158.609 762.185 168.355 762.119 178.182C761.105 183.582 761.065 189.182 758.945 194.315C756.505 206.182 751.639 217.995 742.732 226.489C740.745 229.102 738.065 230.995 734.852 231.755C734.212 232.275 732.945 233.315 732.305 233.835C721.652 236.635 710.519 235.275 699.639 235.915C686.225 235.822 671.172 238.515 659.532 230.089C649.878 222.395 644.518 210.595 641.518 198.889C640.825 192.675 637.652 186.955 638.132 180.582C636.012 167.422 637.292 154.062 636.932 140.795C636.478 133.569 638.372 126.502 638.319 119.289C638.319 115.529 639.812 112.009 640.585 108.382C641.412 103.302 641.879 98.0486 643.972 93.2886C645.705 89.0353 645.719 84.1019 648.652 80.3686C649.252 78.4086 649.918 76.4619 650.505 74.5019C651.038 73.9419 652.105 72.8086 652.639 72.2486C657.079 61.9819 665.772 53.1553 676.412 49.3553ZM690.745 62.1553C688.532 63.7953 686.012 64.9153 683.719 66.3819C681.519 68.7153 680.585 71.9553 678.545 74.4486C676.999 80.8886 675.452 87.3686 674.372 93.9153C674.385 106.195 673.425 118.635 675.852 130.782C677.585 138.075 676.332 145.635 677.972 152.942C677.852 161.862 681.372 170.169 682.518 178.929C684.278 181.835 685.399 185.049 686.559 188.222C690.399 195.102 697.372 202.062 705.972 200.435C716.612 199.062 721.945 187.755 722.572 178.089C726.532 161.942 724.705 145.169 722.372 128.915C722.612 120.329 720.972 111.875 720.518 103.342C718.598 97.4886 718.185 91.3419 716.665 85.4086C715.358 81.7553 713.772 78.2219 712.639 74.5153C711.639 73.2619 710.665 71.9953 709.918 70.5953C707.758 66.8619 703.932 64.7686 700.678 62.1553C697.358 62.0886 694.052 62.0753 690.745 62.1553Z" fill="#F5DD5C"/>
<path d="M300.945 50.4086C308.492 48.182 316.452 46.7553 324.345 47.662C341.678 49.622 359.185 47.9686 376.518 50.182C377.518 51.462 378.545 52.742 379.598 54.022C379.972 71.422 378.078 88.7686 378.318 106.182C377.878 132.489 378.545 158.875 381.532 184.982C383.825 192.609 383.932 200.635 385.518 208.395C388.198 216.742 389.478 225.542 388.985 234.315C386.118 235.902 383.025 237.235 379.678 237.009C368.532 236.942 357.385 236.689 346.252 236.595C342.718 236.622 339.278 235.862 335.852 235.155C334.572 232.355 332.878 229.409 333.825 226.235C336.678 215.302 336.172 203.862 338.932 192.915C340.052 188.035 339.198 182.969 340.172 178.062C341.478 171.689 340.585 165.169 341.252 158.742C342.105 150.102 342.438 141.435 342.838 132.782C334.838 132.382 326.812 133.022 319.078 135.035C315.132 135.982 312.545 139.155 309.372 141.395C308.092 143.675 306.692 145.875 305.145 147.982C302.532 157.062 300.185 166.515 301.918 175.995C303.305 182.355 303.398 188.902 305.012 195.209C307.545 203.115 311.105 210.675 313.238 218.715C316.625 223.489 317.252 229.529 316.972 235.222C307.718 236.782 298.305 235.315 288.985 235.502C282.438 235.049 275.585 236.529 269.358 233.902C264.145 230.329 262.345 223.955 261.012 218.129C260.932 195.222 260.252 172.209 263.305 149.435C263.758 139.369 264.332 129.195 267.238 119.502C268.212 113.035 268.865 106.475 271.292 100.369C273.092 90.062 277.358 80.4753 281.412 70.902C282.385 69.622 283.292 68.2886 284.012 66.8486C288.012 59.862 293.932 54.2753 300.945 50.4086ZM307.198 80.0886C306.692 80.702 305.678 81.942 305.172 82.5553C303.812 89.3153 300.558 95.502 299.985 102.449C299.505 112.129 296.478 121.542 297.172 131.302C303.345 126.689 309.612 122.235 316.305 118.409C319.452 117.409 322.572 116.289 325.545 114.862C331.398 113.115 337.518 112.662 343.598 112.395C342.612 99.7286 346.732 86.982 343.612 74.4353C343.078 71.342 340.718 69.0486 339.265 66.3686C335.865 64.7953 332.692 62.102 328.785 62.142C319.025 63.4486 309.865 70.3953 307.198 80.0886Z" fill="#F5DD5C"/>
<path d="M532.918 52.1552C563.212 52.1418 593.465 49.8618 623.758 50.0885C627.372 49.6752 630.772 53.0085 630.292 56.6618C630.278 78.4752 630.252 100.302 630.305 122.129C630.452 125.542 629.545 128.889 628.425 132.075C626.278 135.275 622.758 137.075 619.812 139.409C618.012 139.422 616.225 139.449 614.438 139.475C613.198 137.449 611.065 135.609 611.225 133.022C611.038 121.875 611.625 110.715 610.385 99.6085C610.585 91.7685 607.238 84.6752 604.638 77.4885C602.932 75.4085 601.678 73.0085 600.105 70.8352C597.932 69.0218 595.438 67.6218 593.158 65.9552C588.732 66.6618 587.225 71.5018 587.465 75.4085C587.505 93.6619 586.798 111.955 588.038 130.169C589.438 139.409 588.412 148.782 590.158 157.982C589.798 165.755 591.558 173.315 592.772 180.929C592.718 187.662 594.412 194.235 594.492 200.969C596.812 211.769 598.385 222.782 598.345 233.862C595.652 235.875 592.558 237.542 589.092 237.395C577.012 237.622 564.918 237.609 552.852 237.675C549.065 237.902 545.305 236.435 542.852 233.542C540.892 227.449 543.892 221.382 544.705 215.382C545.012 209.049 546.412 202.849 546.585 196.502C550.225 181.289 549.345 165.515 552.238 150.182C553.345 143.982 552.665 137.662 553.225 131.422C554.518 117.249 553.878 102.995 554.025 88.7952C553.852 82.1952 554.732 75.4618 552.945 68.9952C549.412 66.5952 545.812 68.2352 542.772 70.5418C537.185 78.3018 533.318 87.4085 532.585 97.0218C529.758 109.649 531.452 122.635 530.638 135.422C530.372 141.329 523.118 140.862 519.185 139.155C517.078 136.569 514.265 134.755 511.745 132.609C511.385 128.649 510.118 124.782 510.252 120.769C510.305 101.222 510.265 81.6618 510.265 62.1152C510.132 59.3552 511.105 56.7552 511.772 54.1285C518.438 51.2618 525.878 52.5818 532.918 52.1552Z" fill="#F5DD5C"/>
<path d="M428.265 54.2619C440.078 52.0886 452.225 51.0219 464.212 52.4353C471.425 53.0086 479.318 52.6753 485.718 56.5819C486.332 56.6753 487.545 56.8353 488.159 56.9286C492.972 58.5686 496.025 62.8619 499.265 66.5153C500.052 67.9953 501.025 69.3553 502.039 70.6886C503.599 76.3019 503.639 82.0753 502.065 87.6886C499.799 91.1019 496.892 93.9286 493.785 96.5686C488.679 98.5686 482.079 99.3286 477.172 96.5686C474.759 92.4486 474.598 87.2886 472.692 82.8619C470.998 80.0486 469.118 77.3019 466.758 74.9953C464.345 73.1953 461.478 72.0886 459.092 70.2486C453.585 69.7819 447.985 69.3553 442.532 70.4886C437.972 72.5019 433.212 75.6886 432.105 80.8886C430.785 84.4619 432.518 88.1153 433.265 91.6086C441.252 104.222 454.278 112.155 465.972 120.915C470.198 124.302 474.585 127.502 479.052 130.569C484.372 134.902 491.545 137.569 494.572 144.249C496.345 146.502 498.612 148.342 500.079 150.835C502.719 154.209 505.159 157.769 507.252 161.529C516.532 178.542 518.772 199.662 511.252 217.729C508.639 224.395 503.759 230.035 497.692 233.809C491.839 235.822 485.865 237.995 479.572 237.782C460.905 237.689 442.225 237.582 423.558 237.489C417.598 237.489 411.718 236.195 406.025 234.529C399.945 232.169 398.398 225.275 397.065 219.582C396.758 205.342 397.065 191.062 396.919 176.809C396.639 169.702 398.905 162.795 401.372 156.222C402.905 155.182 404.345 154.009 405.745 152.795C409.119 153.035 413.718 151.569 415.852 155.075C417.212 156.622 416.812 158.809 416.999 160.689C416.905 169.795 419.052 178.715 421.225 187.489C424.092 192.435 426.879 197.729 432.132 200.555C440.119 205.929 450.292 205.129 459.265 203.195C461.612 201.462 464.345 200.302 466.705 198.582C468.532 196.489 469.799 193.982 471.412 191.715C473.305 184.235 473.052 175.849 468.598 169.289C460.945 157.435 448.558 150.022 438.185 140.849C433.038 135.995 426.265 133.475 421.478 128.249C420.278 126.782 418.932 125.435 417.465 124.235C412.679 119.355 408.918 113.689 405.318 107.915C403.838 103.369 402.759 98.7019 401.839 94.0086C400.585 86.9286 403.385 80.0619 405.159 73.3286C409.039 66.3686 414.892 60.8219 421.799 56.9153C422.372 56.8353 423.532 56.6753 424.105 56.5953C425.478 55.8086 426.865 55.0219 428.265 54.2619Z" fill="#F5DD5C"/>
<path d="M337.185 259.622C340.585 258.702 344.052 257.969 347.598 258.102C376.518 258.102 405.438 258.102 434.358 258.102C436.518 257.995 438.612 258.809 440.438 259.929C441.438 263.222 441.185 266.742 441.292 270.155C441.172 287.942 441.505 305.755 440.918 323.529C440.838 327.769 437.958 330.982 435.265 333.915C433.012 334.782 430.705 335.542 428.265 335.529C427.438 335.062 425.772 334.129 424.945 333.662C424.678 320.075 425.558 306.315 422.958 292.915C420.305 286.049 418.612 278.009 412.145 273.609C410.505 271.902 408.252 271.315 405.958 271.355C405.385 272.235 404.225 274.009 403.652 274.889C403.545 289.262 403.638 303.649 403.612 318.035C403.172 328.995 405.318 339.822 405.198 350.782C408.452 365.689 407.545 381.129 411.372 395.915C411.718 402.475 413.865 408.929 412.745 415.542C410.305 418.769 405.798 418.049 402.265 418.115C391.518 417.809 380.838 419.329 370.118 419.302C367.265 419.115 363.238 417.662 363.572 414.142C364.038 405.982 365.412 397.849 367.318 389.889C367.398 383.649 368.985 377.569 369.025 371.342C369.358 364.635 371.838 358.182 371.612 351.422C371.425 346.529 372.452 341.742 372.852 336.902C373.158 317.315 373.692 297.729 373.372 278.142C373.438 275.835 372.478 273.755 371.385 271.809C370.692 271.715 369.292 271.542 368.585 271.462C362.958 275.022 359.758 280.782 357.172 286.715C355.852 292.315 354.798 297.982 353.812 303.649C352.545 314.102 353.705 324.662 352.865 335.142C347.278 339.382 340.385 335.155 337.198 330.009C336.398 326.982 335.398 323.969 335.585 320.795C335.652 302.555 335.585 284.302 335.625 266.062C335.532 263.795 336.572 261.742 337.185 259.622Z" fill="#F5DD5C"/>
<path d="M452.945 258.035C461.772 258.289 470.625 257.849 479.438 258.235C483.158 260.235 483.038 265.049 482.772 268.702C481.052 291.795 480.852 314.982 481.145 338.142C481.198 348.782 483.558 359.222 483.972 369.835C484.852 380.449 488.145 390.582 489.198 401.195C491.652 404.782 491.865 409.102 491.625 413.302C490.438 414.422 489.292 415.569 488.145 416.729C473.438 416.475 458.718 417.395 444.012 416.729C442.905 414.262 440.612 411.822 441.772 408.955C444.398 401.395 444.518 393.289 447.145 385.755C448.585 376.982 448.758 368.035 450.652 359.329C452.212 351.889 451.438 344.249 451.612 336.715C451.478 318.489 451.865 300.235 451.425 282.009C451.332 274.115 447.145 264.769 452.945 258.035Z" fill="#F5DD5C"/>
<path d="M495.572 258.049C502.705 258.115 509.852 258.182 516.998 258.009C521.652 261.489 519.998 267.809 520.425 272.795C521.145 282.102 520.452 291.489 522.118 300.715C522.105 306.809 522.638 312.862 524.318 318.742C525.518 327.035 525.998 335.502 528.678 343.515C529.478 351.555 532.718 358.955 534.532 366.755C537.025 371.955 539.478 377.129 542.638 381.969C544.412 382.809 546.265 383.849 548.318 383.422C551.945 379.115 553.332 373.555 555.105 368.355C558.065 362.662 557.798 356.035 559.692 350.009C561.785 343.542 560.585 336.689 561.092 330.035C561.238 321.142 561.078 312.209 560.705 303.329C558.892 296.795 557.985 290.102 556.638 283.475C555.145 279.342 553.558 275.249 552.665 270.942C550.878 267.142 546.785 261.409 551.238 258.022C559.758 258.289 568.305 257.862 576.825 258.222C582.412 258.875 585.078 264.702 585.478 269.702C587.132 283.529 589.132 297.475 587.625 311.462C585.812 325.582 586.518 340.049 582.585 353.822C581.985 363.329 578.185 372.089 576.665 381.422C573.772 385.822 573.692 391.422 570.758 395.822C569.318 398.049 569.678 401.862 566.612 402.529C565.652 406.435 562.692 409.155 560.532 412.382C557.705 413.995 555.238 417.035 551.718 416.782C543.265 416.715 534.798 416.889 526.358 416.702C523.465 416.035 521.238 413.809 518.705 412.382C517.172 410.009 515.265 407.902 513.812 405.475C512.692 404.075 511.572 402.675 510.438 401.315C510.345 400.729 510.158 399.569 510.065 398.995C507.185 395.115 506.918 390.155 505.092 385.822C502.532 380.102 502.865 373.622 500.558 367.835C498.572 360.689 498.865 353.102 496.825 345.955C495.118 340.435 495.798 334.569 494.452 328.969C494.025 319.129 494.732 309.249 493.158 299.475C492.878 287.209 492.345 274.942 493.012 262.689C493.865 261.142 494.705 259.595 495.572 258.049Z" fill="#F5DD5C"/>
<path d="M631.612 259.862C644.278 256.782 657.399 258.569 670.305 258.102C678.679 258.542 687.345 257.022 695.492 259.515C698.118 264.995 696.679 271.262 696.719 277.115C695.425 299.182 695.519 321.329 695.985 343.435C697.305 357.835 696.692 372.515 700.545 386.569C701.665 392.902 701.638 399.569 704.438 405.475C705.398 410.489 706.398 415.769 704.585 420.729C694.465 421.062 684.332 420.729 674.212 420.635C668.492 419.915 661.612 420.969 657.078 416.715C656.652 411.635 656.398 406.315 658.078 401.409C657.812 394.835 660.798 388.729 660.905 382.209C660.825 375.422 662.799 368.809 662.305 361.995C662.945 351.382 664.132 340.795 664.278 330.142C653.772 330.395 642.265 331.889 634.639 339.835C628.745 346.702 627.998 356.009 628.158 364.675C628.772 371.649 629.025 378.649 630.558 385.515C633.545 390.542 634.038 396.635 637.358 401.542C638.998 406.289 641.759 410.742 641.985 415.889C641.639 416.422 640.958 417.489 640.612 418.022C629.198 418.182 617.758 418.209 606.345 417.942C601.598 417.835 597.918 415.195 594.492 412.235C590.958 402.569 591.972 392.115 592.145 382.035C592.278 374.075 593.132 366.142 592.945 358.182C592.572 349.622 594.398 341.182 594.692 332.649C597.425 324.235 597.092 315.115 600.372 306.862C601.732 302.329 601.865 297.302 604.612 293.275C605.185 291.075 605.892 288.902 606.545 286.729C608.159 284.182 609.438 281.449 610.572 278.675C613.078 274.902 615.465 271.075 618.745 267.889C622.305 264.102 626.905 261.902 631.612 259.862ZM646.612 271.542C644.252 273.329 641.465 274.475 639.158 276.329C636.438 279.395 633.918 282.769 632.425 286.622C629.572 291.142 629.212 296.595 627.132 301.435C624.852 310.849 624.785 320.595 624.572 330.235C627.478 327.062 631.185 324.755 634.799 322.475C636.279 321.782 637.558 320.755 638.838 319.742C641.585 318.795 644.318 317.755 646.918 316.395C652.638 313.982 658.958 314.342 664.945 313.022C664.305 301.622 667.625 290.195 664.772 278.902C662.865 276.022 660.545 273.475 657.732 271.462C654.025 271.169 650.305 271.195 646.612 271.542Z" fill="#F5DD5C"/>
<path d="M715.639 259.529C722.145 257.715 728.945 258.835 735.598 258.662C741.918 258.955 748.372 258.129 754.598 259.595C754.172 262.009 753.399 264.329 752.625 266.649C749.785 270.275 748.719 274.862 746.652 278.915C744.225 292.729 745.305 306.849 745.105 320.809C744.812 333.822 746.212 346.769 746.705 359.742C748.652 369.729 747.985 380.582 753.265 389.609C755.078 393.902 759.158 396.742 763.678 397.569C768.318 397.262 772.372 393.862 774.012 389.582C778.958 378.849 778.758 366.435 777.772 354.875C777.598 348.955 774.665 343.902 772.532 338.555C771.998 338.155 770.932 337.355 770.399 336.942C770.332 334.875 770.278 332.795 770.265 330.729C771.412 329.715 772.545 328.662 773.652 327.595C780.452 325.635 788.358 326.902 792.945 332.649C795.185 335.689 797.252 338.969 797.945 342.755C799.065 348.729 801.078 354.582 800.945 360.742C800.945 378.542 800.945 396.355 800.959 414.169C801.145 417.942 798.959 421.195 797.799 424.635C792.599 427.422 786.518 425.782 780.918 426.115C773.305 426.489 765.838 424.449 758.238 424.755C747.772 425.049 737.439 423.089 727.039 422.342C724.132 422.222 721.332 421.542 718.625 420.555C716.412 416.022 714.545 411.169 714.705 406.035C714.465 378.902 717.625 351.875 716.945 324.742C717.585 304.649 713.865 284.702 714.278 264.622C714.185 262.809 715.079 261.182 715.639 259.529Z" fill="#F5DD5C"/>
<path d="M129.078 262.702C130.465 259.782 134.092 259.755 136.852 259.635C157.798 259.222 178.745 259.555 199.692 259.409C204.638 258.995 208.932 261.849 213.585 262.955C214.945 263.769 216.238 264.662 217.532 265.582C220.038 267.142 221.492 269.782 223.385 271.969C225.532 277.609 225.332 283.755 223.412 289.435C220.985 292.262 218.638 295.395 214.918 296.555C210.225 298.729 205.132 296.262 201.385 293.369C199.945 288.622 197.118 284.515 195.252 279.955C192.905 278.609 190.652 277.102 188.385 275.609C180.945 273.795 173.252 273.555 165.865 275.769C164.238 277.849 161.972 279.315 160.412 281.449C156.665 285.755 156.612 291.782 155.212 297.049C154.025 308.742 154.865 320.542 154.572 332.289C156.425 331.315 157.945 329.955 158.798 328.022C161.025 326.715 162.598 324.649 164.452 322.889C166.585 318.849 171.385 317.569 174.865 314.942C176.172 314.529 177.478 314.129 178.812 313.755C184.958 309.635 192.732 312.075 199.625 311.449C203.145 313.422 208.452 315.915 207.198 320.875C206.252 324.702 206.185 330.569 201.545 331.742C196.505 333.582 191.278 330.969 186.132 331.662C178.572 333.089 170.798 335.209 165.225 340.862C165.038 343.129 164.278 345.249 162.638 346.889C162.198 348.209 161.732 349.529 161.238 350.835C157.132 364.755 158.145 379.729 162.545 393.435C164.932 397.142 167.638 401.249 172.358 402.022C177.412 402.182 182.465 402.209 187.505 402.022C194.332 400.035 201.185 396.142 204.598 389.609C205.345 388.062 206.345 386.662 207.345 385.275C210.452 376.862 207.425 367.342 211.318 359.195C214.118 354.449 219.772 357.862 223.265 359.769C224.518 362.475 225.932 365.115 227.465 367.675C229.812 382.155 228.732 396.835 228.865 411.435C228.932 414.915 227.998 418.302 227.492 421.729C223.892 426.702 217.665 429.435 211.572 428.862C201.838 430.449 191.905 429.555 182.225 431.502C177.785 432.262 173.305 432.862 168.798 432.782C163.932 432.742 159.212 434.275 154.345 434.102C147.478 433.755 140.878 436.049 134.078 436.449C130.772 436.782 128.532 434.062 126.252 432.169C126.398 422.115 125.958 412.035 126.772 401.995C128.185 381.169 129.105 360.302 128.945 339.435C128.825 316.769 129.252 294.102 128.572 271.449C128.505 268.529 128.505 265.569 129.078 262.702Z" fill="#F5DD5C"/>
<path d="M269.372 259.662C280.785 258.462 292.252 258.702 303.678 259.609C312.652 262.182 323.078 264.795 327.545 273.969C330.025 280.622 330.172 289.689 324.238 294.635C322.972 295.755 321.652 296.795 320.372 297.902C315.798 299.689 310.878 299.515 306.052 299.515C302.665 296.622 303.665 291.729 301.598 288.089C299.772 282.515 295.278 278.555 290.398 275.649C285.012 274.649 279.572 274.795 274.172 275.649C271.798 277.582 268.332 278.502 267.198 281.622C266.625 282.182 265.505 283.329 264.945 283.902C264.985 286.849 264.665 289.849 265.252 292.769C269.532 301.795 277.892 307.702 285.545 313.662C299.438 323.422 314.385 332.409 325.425 345.542C327.958 348.942 330.665 352.249 332.612 356.035C336.012 361.569 337.465 367.929 339.438 374.035C339.798 380.769 339.678 387.529 339.492 394.262C338.038 400.755 335.038 406.875 331.225 412.329C325.892 418.049 318.332 421.715 310.478 422.062C296.092 421.929 281.892 425.342 267.492 424.769C258.732 425.222 249.892 427.022 241.238 424.542C239.958 423.409 238.692 422.249 237.092 421.622C234.692 416.369 233.305 410.595 233.505 404.809C233.825 388.475 232.265 371.742 237.145 355.902C240.372 353.849 243.478 351.009 247.612 351.382C248.865 352.582 250.172 353.742 251.532 354.835C251.612 361.769 252.505 368.649 253.105 375.542C254.945 382.835 258.452 390.115 265.158 394.115C273.372 397.569 282.652 396.409 290.932 393.849C294.185 391.342 296.972 388.342 299.345 384.995C301.105 379.289 301.092 373.369 299.358 367.675C294.385 358.289 285.758 351.915 277.478 345.635C267.078 337.382 255.758 329.969 247.398 319.462C237.745 308.755 236.478 292.782 241.238 279.582C243.705 276.689 245.038 272.969 247.905 270.395C250.438 267.555 254.105 266.195 256.985 263.769C261.158 262.515 265.238 260.995 269.372 259.662Z" fill="#F5DD5C"/>
<path d="M810.639 259.435C830.519 259.435 850.398 259.449 870.292 259.422C880.398 259.115 891.318 261.102 899.198 267.849C904.932 273.449 906.252 281.929 904.265 289.489C903.478 292.835 900.612 294.969 898.772 297.702C894.425 300.155 889.438 299.582 884.958 297.862C883.718 296.435 882.465 295.035 881.212 293.662C879.759 288.915 877.358 284.502 874.825 280.275C866.785 273.609 855.478 273.129 845.745 275.675C842.398 277.755 839.478 280.262 837.252 283.529C832.025 298.782 834.545 315.089 834.052 330.875C839.719 324.862 846.398 319.995 853.372 315.702C859.718 314.075 866.105 311.035 872.799 312.329C876.732 313.075 880.638 314.142 884.372 315.649C885.118 317.155 886.332 318.329 887.585 319.435C888.052 324.489 887.238 329.609 884.492 333.955C878.892 335.555 873.199 333.822 867.545 333.649C862.359 333.502 857.092 333.929 852.172 335.649C847.398 338.262 843.825 342.142 841.198 346.875C837.132 360.835 837.985 375.902 841.225 389.942C842.932 392.195 844.145 394.809 845.998 396.969C848.092 398.862 850.612 400.209 852.772 402.035C860.785 402.129 868.812 402.489 876.825 401.955C879.118 400.795 880.972 398.929 883.158 397.569C891.825 387.795 889.052 374.049 891.998 362.315C894.358 362.155 896.745 362.075 899.132 362.009C903.292 364.049 904.825 368.475 907.345 372.035C907.918 375.822 909.119 379.555 908.972 383.435C908.919 398.782 908.958 414.129 908.945 429.475C907.265 434.382 901.945 437.035 896.985 436.782C889.319 436.475 881.918 433.755 874.198 434.102C868.865 434.275 863.678 432.555 858.345 432.769C849.305 433.075 840.572 429.915 831.545 430.115C825.772 430.342 820.158 428.835 814.412 428.662C809.892 428.329 807.185 423.582 807.025 419.435C807.305 402.529 809.225 385.662 808.945 368.742C808.945 333.155 808.945 297.569 808.945 261.982C809.358 261.342 810.212 260.062 810.639 259.435Z" fill="#F5DD5C"/>
<path d="M29.0784 262.129C49.8918 261.222 70.7318 261.155 91.5451 260.515C98.8251 260.089 106.078 261.582 112.998 263.729C116.145 266.275 119.878 268.249 121.998 271.849C125.518 276.715 125.545 282.902 124.532 288.582C122.812 292.889 119.865 296.542 116.278 299.435C112.732 299.569 109.185 299.555 105.638 299.342C104.892 298.915 103.398 298.075 102.652 297.649C100.705 293.075 97.8651 288.929 96.6384 284.075C95.1318 282.729 93.7318 281.262 92.4651 279.689C86.6518 277.542 80.5718 275.049 74.2384 276.049C68.2251 277.329 61.6651 279.142 58.3051 284.782C56.9718 288.235 55.3318 291.635 54.4251 295.235C53.5051 309.675 54.3584 324.142 53.6651 338.582C53.9318 337.982 54.4518 336.795 54.7184 336.209C60.8118 330.529 66.3451 324.089 73.6251 319.782C77.0118 318.569 80.2118 316.875 83.5718 315.582C89.2651 314.982 95.0118 315.275 100.718 315.515C102.545 316.995 104.438 318.382 106.345 319.769C106.532 324.875 106.985 330.275 104.918 335.089C101.972 336.475 99.0384 338.649 95.5584 337.809C88.4918 336.475 81.1984 337.542 74.4118 339.729C69.8118 342.702 65.5851 346.089 62.5718 350.742C61.3851 354.902 59.1984 358.742 58.3584 362.982C58.1584 370.542 58.0651 378.129 58.4651 385.675C60.6118 392.209 61.0651 399.235 64.0918 405.489C67.4918 416.769 72.2918 427.502 76.6251 438.449C77.3584 440.475 75.2784 442.182 73.4384 442.409C61.0918 445.809 48.1051 444.875 35.6384 447.595C31.9984 448.742 28.9184 446.289 26.2518 444.209C26.4384 425.262 25.9584 406.315 26.6251 387.382C27.3984 351.435 27.0251 315.475 27.1051 279.529C27.2518 273.702 26.2651 267.515 29.0784 262.129Z" fill="#F5DD5C"/>
<path d="M917.145 264.769C919.865 259.809 926.652 260.262 931.585 260.409C938.079 261.022 945.772 259.075 951.092 263.902C953.425 267.329 955.985 270.689 957.385 274.649C959.985 278.369 960.799 282.969 963.305 286.755C966.279 295.489 970.599 303.702 973.439 312.529C975.132 315.742 976.465 319.142 977.185 322.729C977.905 324.102 978.639 325.475 979.385 326.862C982.239 337.369 986.625 347.409 989.292 358.009C990.959 362.169 992.545 366.422 993.079 370.915C994.039 372.835 995.359 374.529 996.905 376.035C996.879 362.929 997.145 349.809 996.785 336.702C995.252 329.329 996.412 321.622 993.959 314.435C992.465 308.115 992.452 301.489 990.519 295.262C988.505 289.862 988.225 283.955 985.719 278.715C983.985 273.355 982.372 267.582 983.492 261.929C991.945 261.329 1000.41 262.235 1008.88 262.089C1012.48 262.249 1016.39 261.395 1019.71 263.289C1020.59 289.595 1016.49 315.742 1016.95 342.049C1016.88 364.275 1018.19 386.489 1019.6 408.662C1019.43 421.902 1019.92 435.142 1019.6 448.382C1018.41 449.075 1017.27 449.795 1016.13 450.529C1010.45 450.915 1005.12 448.395 999.452 448.715C995.519 449.075 992.319 446.635 989.612 444.129C988.439 435.369 984.652 427.302 983.279 418.595C980.332 413.169 981.052 406.222 977.239 401.369C976.492 397.955 975.945 394.422 974.452 391.249C972.079 386.915 972.185 381.609 969.225 377.542C968.639 375.289 967.919 373.062 967.385 370.809C966.639 369.449 965.905 368.089 965.185 366.729C964.625 364.529 963.932 362.369 963.332 360.182C958.985 352.542 956.905 343.729 952.492 336.062C952.065 334.755 951.665 333.435 951.305 332.129C950.772 331.515 949.719 330.275 949.185 329.662C948.599 327.715 947.945 325.782 947.319 323.862C946.145 322.475 944.999 321.062 944.385 319.342C942.799 319.329 941.225 319.342 939.679 319.369C939.505 337.222 938.945 355.355 943.452 372.742C944.079 382.609 947.652 391.822 949.199 401.515C952.372 406.449 951.892 412.689 954.585 417.822C956.239 421.369 956.332 425.449 958.025 428.995C960.105 433.062 961.065 437.635 961.105 442.195C953.092 443.155 945.039 441.582 937.079 440.809C931.265 441.075 925.625 439.609 920.159 437.875C919.399 437.449 917.892 436.595 917.145 436.155C915.425 429.315 915.199 422.222 916.172 415.249C917.479 406.942 916.479 398.502 917.585 390.169C920.185 363.969 919.732 337.595 918.145 311.342C917.292 295.835 916.439 280.289 917.145 264.769Z" fill="#F5DD5C"/>
</svg>
