<svg xmlns="http://www.w3.org/2000/svg" fill="none" viewBox="0 0 1027 451"><path fill="#F5DD5C" d="M308.4 2.459c12.173-8.16 27.893 7.44 22.893 20.04-1.08 2.133-2.36 4.146-3.507 6.226-3.226 1.92-6.32 4.96-10.4 4.307-8.84-.493-15.533-8.893-16.053-17.413.107-5.214 3.413-9.72 7.067-13.16ZM345.746 11.912c2.52-4.973 7.427-8.64 13.014-9.28 5.8.08 11.373 3.387 14.44 8.307 2.373 6.173 2.546 13.4-1.52 18.906-4.32 6.054-12.947 5.254-19.12 2.974-2.72-2.56-4.88-5.574-7.094-8.56-.173-4.107-.613-8.294.28-12.347ZM.453 31.632c-.08-4.627.174-9.573 3.12-13.387 6.52-.573 12.76 1.414 19.093 2.494 6.814.266 13.507 1.706 20.334 1.906 10.933 2.547 22.173 3.014 33.32 4.04 4.8.8 9.52 2.307 14.427 2.267 5.866-.133 11.586 1.64 17.466 1.4 3.6-.08 6.8 1.787 9.734 3.653 1.386 2.974 1.026 6.454 1.333 9.654.013 16.88.12 33.773.12 50.653.013 8.947.747 18.2-2.293 26.787-2.667 3.893-6.4 7.026-11.08 8.146a287.17 287.17 0 0 1-4.6-3.48c-1.534-15.266.853-30.8-2.307-45.933-.894-10.36-4.24-20.613-10.16-29.187-2.453-3.106-6.467-7.4-10.747-4.973-1.44 2.613-.853 5.773-1.146 8.64-.134 22.68.253 45.36.333 68.04.2 5.787 1.533 11.48 1.32 17.293-.307 9 2.933 17.667 2.68 26.654-.053 4.506 1.32 8.866 1.293 13.36-.24 7.706 3.08 14.973 2.8 22.693 1.147 6.573 1.16 13.28 2.36 19.853.44 2.654-.173 5.387-1.386 7.76-1.947 3.054-6.107 1.187-9.094 1.694-14.173-.614-28.56 1.32-42.573-1.467-1.16-2.48-2.307-5.053-2.44-7.827.973-9.76 2.013-19.506 2.88-29.28 2.506-8.706 1.88-17.786 3.386-26.653-.48-10.4 3.067-20.44 2.76-30.813-.2-6.294 1.334-12.467 1.347-18.747 0-22.187-.04-44.387.014-66.587-.054-3.186.466-6.653-1.547-9.4-4.827-1.453-9.56 1.48-11.467 5.92-.68 1.52-1.72 2.814-2.747 4.107-1.946 6.88-4.76 13.467-5.36 20.667-.746 14.24-.506 28.52-.6 42.773.147 2.56-1.8 4.48-2.8 6.667-2.44.093-4.88.066-7.32-.014-.493-.573-1.466-1.72-1.96-2.293-1.893-.707-3.226-2.12-3.96-3.987-.52-.506-1.56-1.546-2.08-2.066-1.693-5.04-2.026-10.4-2.333-15.667C.48 75.205.467 53.419.453 31.632ZM987.761 20.645c7.906-1.853 16.119-3.426 24.249-2.506 2.76 5.573.84 11.773-.46 17.453-2.47 5.973-4.44 12.133-7.12 18.027-1.02 2.293-2.36 4.413-3.39 6.693-3.426 7.04-7.746 13.587-11.999 20.133-1.707 2.734-3.774 5.227-5.427 7.987-4.267 5.44-8.867 10.613-13.64 15.613 6.027 6.094 11.187 13.147 15.853 20.374 3.294 5.066 7.107 9.76 10.6 14.653.894 1.84 1.92 3.627 3.214 5.24 2.929 5.907 6.559 11.44 9.399 17.413 1.57 3.467 3.68 6.707 4.71 10.427 2.78 4.093 3.14 9.28 6.02 13.32 1.34 6.587 4.67 12.56 5.34 19.28.33 5.84 2.18 11.827.33 17.573-.95 4.547-5.76 6.48-9.68 7.787-10.15.56-20.333-.227-30.466.52-3.76.053-7.893.893-11.307-1.093-1.786-7.107-1.106-14.587-1.72-21.854-.626-6.653.6-13.506-1.373-20.013-1.64-5.693-1.827-11.667-3.093-17.453-4.294-13.24-7.094-27.36-14.814-39.107-.946-1.893-1.96-3.747-3.226-5.427l-1.8-3.546c-5.16 4.36-9.6 9.92-15.947 12.626.12 7.867 1.547 15.654 1.373 23.52-.32 7.747 2.92 15.08 2.774 22.827 1.04 6.107 1.066 12.4 3.133 18.293 1.467 7.16 1.827 14.534 3.693 21.627.614 3.667-.32 8.427-3.76 10.427-13.96.4-27.92 1.146-41.88 1.573-3.173-.093-7.28-.44-9.133-3.32-.96-9.227.813-18.493 3.333-27.32.734-5.747 1.734-11.44 2.174-17.213 4-16.187 3.24-32.974 4.813-49.494.573-21.36.347-42.733-.147-64.093-.173-11.56-1.466-23.093-.92-34.653-.013-2.827 2.654-4.52 4.187-6.6 9.08-.467 18.107-1.707 27.2-2.347 2.347.387 4.987 2.2 4.547 4.907-.067 9.306.226 18.626-.454 27.92-.84 17.893-.946 35.8-.88 53.706 11.014-11.56 22.014-23.64 28.987-38.133 1.987-3.387 3.8-6.893 4.613-10.787 3.84-7.12 3.8-15.426 4.587-23.266-.107-6.36-1.267-12.667-.933-19.04 6-1.707 12.226-2.254 18.44-2.654ZM130.667 34.259c4.866-1.2 9.786.173 14.693.04 8.12-.094 15.92 2.853 24.053 2.666 5.787-.133 11.44 1.614 17.24 1.334 6.48-.534 12.494 2.36 18.867 2.88 5.333.613 10.133 3.08 15.133 4.84 8.067 3.653 16.334 8.493 20.547 16.626 6.653 10.307 6.907 23.574 2.56 34.827-1.6 2.187-2.893 4.573-4.04 7.04-4.933 5.747-10.72 11.28-17.853 14.093l-2.267 2.107c-5.667 1.24-10.2 5.307-16.027 6.12 2.507 3.587 5.88 6.427 8.947 9.507 11.4 13.346 22.627 27.333 29.307 43.72 2.72 4.253 3 9.573 5.946 13.706.947 4.28 2.16 8.494 3.8 12.56 1.4 6.214 2.534 12.494 3.654 18.76.613 3.227-1.12 6.12-2.187 9.027-5.387 2.347-11.333 1.333-17.013 1.52-10.16-.12-20.374.04-30.454-1.413-5.946-5.627-3.8-14.08-4.24-21.32-.48-5.774-1.613-11.494-1.28-17.32.307-8.107-2.226-15.907-2.973-23.92-.64-3.2-.92-6.507-2.16-9.547-2.067-4.587-2.267-9.907-5.28-14.08-.12-.56-.333-1.693-.44-2.253-2.053-3.96-4.293-7.827-6.467-11.72-6.4.08-11.546 4.32-17.48 5.96-.306 8.04.28 16.106.24 24.173 2.8 7.227 3.2 15.08 5.934 22.333 2.786 14.52 8.64 28.134 12.293 42.4-.493 2.12-2.32 3.587-3.467 5.374-12.053-.04-24.12.066-36.186-.04-3.867-.147-8.027.053-11.427-2.12-3.867-1.48-4.627-6.2-4.947-9.84.334-14.694 1.6-29.36 1.707-44.054-.227-21.76.52-43.52.227-65.28.04-24.48-.347-48.96-.24-73.453-.08-1.853.733-3.547 1.28-5.253Zm43.2 20.16c-4.067 2.88-6.414 7.253-8.267 11.76-.493 5.426.04 10.906-.68 16.32-.6 14.533.307 29.093-.293 43.64 1.826-1.107 3.653-2.227 5.333-3.547 1.787-.64 3.573-1.32 5.36-1.987 1.293-1.026 2.627-2.026 4.173-2.666 8.894-4.707 17.627-11.214 22.36-20.294 4.36-6.88 4.054-15.453 3.52-23.266-.6-8.974-7.746-15.84-15.426-19.587-5.227-1.707-10.747-1.227-16.08-.373ZM829.614 37.765c6.466-1.266 13.106-.32 19.586-1.56 7.72-1.493 15.587.147 23 2.387 4.934 2.907 8.747 6.947 11.587 11.907 1.92 6.106 2.093 12.56 0 18.653-2.347 3.28-3.853 7.32-7.493 9.44-5.12 4.4-12.28 4.347-18.627 3.76-1.867-2.867-4.467-5.667-4.227-9.333.133-5.44-2.706-10.16-5.693-14.454-2.32-1.386-4.614-2.84-6.894-4.28-3.773-.04-7.546-.026-11.306.04-4.973 3.56-9.36 7.987-12.2 13.454-3.507 5.053-4.16 11.293-6.24 16.946-.96 10.28-2.32 20.654-1.107 31 1.347 9.787-.107 19.747 1.933 29.454 2.094 9.666 1.134 19.946 5 29.213.894 4.493 2.387 8.813 4.787 12.72a78.411 78.411 0 0 0 3.267 5.08c.813 3.947 5.373 4.387 8.307 6.173 10.333 4.307 22.96-1.4 27.786-11.266 5.787-10.96 5.107-23.787 6.974-35.734.426-3.4 4.573-3.56 7.24-3.933 4.546 1.733 6.266 6.307 8.319 10.293 2.28 7.507 1.907 15.427 2.267 23.187-.546 8 .08 16.133-1.76 24-2.32 10.093-7.24 20.667-16.986 25.467-5.814 1.68-11.56 4.306-17.747 3.946-10.227-.026-20.453-.053-30.68 0-6.027.414-11.533-2.493-17.2-4.093-6.76-3.973-13.56-9.227-16.547-16.733a239.176 239.176 0 0 0-1.96-1.947c-2.173-6.547-5.426-12.68-6.106-19.667-2.667-6.853-2.107-14.253-3.414-21.386-.186-14.787-.12-29.587-.026-44.36.68-5.174 1.226-10.36 1.64-15.547 1.826-5.52 2.706-11.267 3.826-16.96 4.24-12.08 8.574-24.307 16.2-34.8 3.094-3.573 5.96-7.427 9.694-10.373 7.066-5.72 15.52-10.4 24.8-10.694ZM676.853 49.552c15.053-3.36 30.6-3.467 45.947-3.2 12.52 2.987 22.293 13.053 27.6 24.507 4.44 8.8 7.32 18.32 9.026 28 2.267 5.773 2.04 12.026 3.147 18.04-.053 10.72 1.827 21.333 1.493 32.066.187 9.84-1.44 19.587-1.506 29.414-1.014 5.4-1.054 11-3.174 16.133-2.44 11.867-7.306 23.68-16.213 32.173-1.987 2.614-4.667 4.507-7.88 5.267-.64.52-1.907 1.56-2.547 2.08-10.653 2.8-21.786 1.44-32.666 2.08-13.414-.093-28.467 2.6-40.107-5.827-9.653-7.693-15.013-19.493-18.013-31.2-.694-6.213-3.867-11.933-3.387-18.306-2.12-13.16-.84-26.52-1.2-39.787-.453-7.227 1.44-14.293 1.387-21.507 0-3.76 1.493-7.28 2.266-10.906.827-5.08 1.294-10.334 3.387-15.094 1.733-4.253 1.747-9.186 4.68-12.92.6-1.96 1.267-3.906 1.853-5.866.534-.56 1.6-1.694 2.134-2.254 4.44-10.266 13.133-19.093 23.773-22.893Zm14.333 12.8c-2.213 1.64-4.733 2.76-7.026 4.227-2.2 2.333-3.134 5.573-5.174 8.066-1.546 6.44-3.093 12.92-4.173 19.467.013 12.28-.947 24.72 1.48 36.867 1.733 7.293.48 14.853 2.12 22.16-.12 8.92 3.4 17.226 4.547 25.986 1.76 2.907 2.88 6.12 4.04 9.294 3.84 6.88 10.813 13.84 19.413 12.213 10.64-1.373 15.973-12.68 16.6-22.347 3.96-16.146 2.133-32.92-.2-49.173.24-8.587-1.4-17.04-1.853-25.573-1.92-5.854-2.334-12-3.854-17.934-1.306-3.653-2.893-7.186-4.026-10.893-1-1.253-1.974-2.52-2.72-3.92-2.16-3.733-5.987-5.827-9.24-8.44-3.32-.067-6.627-.08-9.934 0ZM301.387 50.605c7.546-2.226 15.506-3.653 23.4-2.746 17.333 1.96 34.84.306 52.173 2.52 1 1.28 2.027 2.56 3.08 3.84.373 17.4-1.52 34.746-1.28 52.16-.44 26.306.227 52.693 3.214 78.8 2.293 7.626 2.399 15.653 3.986 23.413 2.68 8.347 3.96 17.147 3.467 25.92-2.867 1.587-5.96 2.92-9.307 2.693-11.147-.066-22.293-.32-33.426-.413-3.534.027-6.974-.733-10.401-1.44-1.28-2.8-2.973-5.747-2.026-8.92 2.853-10.933 2.346-22.373 5.106-33.32 1.12-4.88.267-9.947 1.241-14.853 1.306-6.374.413-12.894 1.08-19.32.853-8.64 1.186-17.307 1.586-25.96-8-.4-16.026.24-23.76 2.253-3.946.947-6.533 4.12-9.706 6.36a64.41 64.41 0 0 1-4.227 6.587c-2.614 9.08-4.96 18.533-3.227 28.013 1.387 6.36 1.48 12.907 3.093 19.213 2.534 7.907 6.094 15.467 8.227 23.507 3.387 4.773 4.013 10.813 3.733 16.507-9.253 1.56-18.666.093-27.986.28-6.547-.454-13.4 1.026-19.627-1.6-5.213-3.574-7.013-9.947-8.347-15.774-.08-22.906-.76-45.92 2.294-68.693.453-10.067 1.026-20.24 3.933-29.933.973-6.467 1.627-13.027 4.053-19.134 1.8-10.306 6.067-19.893 10.12-29.466.974-1.28 1.88-2.614 2.6-4.054 4-6.986 9.92-12.573 16.934-16.44Zm6.253 29.68c-.507.614-1.52 1.854-2.026 2.467-1.36 6.76-4.614 12.947-5.187 19.893-.48 9.68-3.507 19.094-2.813 28.854 6.173-4.614 12.439-9.067 19.133-12.894 3.146-1 6.267-2.12 9.24-3.546 5.853-1.747 11.973-2.2 18.053-2.467-.987-12.667 3.133-25.413.013-37.96-.533-3.093-2.893-5.387-4.346-8.067-3.4-1.573-6.573-4.266-10.48-4.226-9.76 1.306-18.92 8.253-21.587 17.946ZM533.36 52.352c30.293-.013 60.547-2.293 90.84-2.067 3.613-.413 7.013 2.92 6.533 6.574-.013 21.813-.04 43.64.014 65.466.146 3.414-.76 6.76-1.88 9.947-2.147 3.2-5.667 5-8.614 7.333-1.8.014-3.586.04-5.373.067-1.24-2.027-3.373-3.867-3.213-6.453-.187-11.147.4-22.307-.84-33.414.2-7.84-3.147-14.933-5.747-22.12-1.707-2.08-2.96-4.48-4.533-6.653-2.174-1.813-4.667-3.213-6.947-4.88-4.427.707-5.933 5.547-5.693 9.453.04 18.254-.667 36.547.573 54.76 1.4 9.24.373 18.614 2.12 27.814-.36 7.773 1.4 15.333 2.613 22.946-.053 6.734 1.64 13.307 1.72 20.04 2.32 10.8 3.894 21.814 3.854 32.894-2.694 2.013-5.787 3.68-9.254 3.533-12.08.227-24.173.213-36.24.28-3.786.227-7.546-1.24-10-4.133-1.96-6.094 1.04-12.16 1.854-18.16.306-6.334 1.706-12.534 1.88-18.88 3.64-15.214 2.76-30.987 5.653-46.32 1.107-6.2.427-12.52.987-18.76 1.293-14.174.653-28.427.8-42.627-.174-6.6.706-13.333-1.08-19.8-3.534-2.4-7.134-.76-10.174 1.547-5.586 7.76-9.453 16.866-10.186 26.48-2.827 12.626-1.134 25.613-1.947 38.4-.267 5.906-7.52 5.44-11.453 3.733-2.107-2.587-4.92-4.4-7.44-6.547-.36-3.96-1.627-7.826-1.494-11.84.054-19.546.014-39.106.014-58.653-.134-2.76.84-5.36 1.506-7.987 6.667-2.866 14.107-1.546 21.147-1.973ZM428.706 54.459c11.813-2.174 23.96-3.24 35.947-1.827 7.213.573 15.106.24 21.506 4.147.614.093 1.827.253 2.44.346 4.814 1.64 7.867 5.934 11.107 9.587.787 1.48 1.76 2.84 2.773 4.173 1.56 5.614 1.6 11.387.027 17-2.267 3.414-5.173 6.24-8.28 8.88-5.107 2-11.707 2.76-16.613 0-2.414-4.12-2.574-9.28-4.48-13.706-1.694-2.814-3.574-5.56-5.934-7.867-2.413-1.8-5.28-2.907-7.666-4.747-5.507-.466-11.107-.893-16.56.24-4.56 2.014-9.32 5.2-10.427 10.4-1.32 3.574.413 7.227 1.16 10.72 7.987 12.614 21.013 20.547 32.707 29.307 4.226 3.387 8.613 6.587 13.08 9.653 5.32 4.334 12.493 7 15.52 13.68 1.773 2.254 4.04 4.094 5.506 6.587 2.64 3.373 5.08 6.933 7.174 10.693 9.28 17.014 11.52 38.134 4 56.2-2.614 6.667-7.494 12.307-13.56 16.08-5.854 2.014-11.827 4.187-18.12 3.974-18.667-.094-37.347-.2-56.014-.294-5.96 0-11.84-1.293-17.533-2.96-6.08-2.36-7.627-9.253-8.96-14.946-.307-14.24 0-28.52-.147-42.774-.28-7.106 1.987-14.013 4.454-20.586 1.533-1.04 2.973-2.214 4.373-3.427 3.373.24 7.973-1.227 10.107 2.28 1.36 1.547.96 3.733 1.146 5.613-.093 9.107 2.054 18.027 4.227 26.8 2.867 4.947 5.653 10.24 10.907 13.067 7.986 5.373 18.16 4.573 27.133 2.64 2.347-1.733 5.08-2.893 7.44-4.613 1.827-2.094 3.093-4.6 4.707-6.867 1.893-7.48 1.64-15.867-2.814-22.427-7.653-11.853-20.04-19.266-30.413-28.44-5.147-4.853-11.92-7.373-16.707-12.6a28.557 28.557 0 0 0-4.013-4.013c-4.787-4.88-8.547-10.547-12.147-16.32-1.48-4.547-2.56-9.213-3.48-13.907-1.253-7.08 1.547-13.946 3.32-20.68 3.88-6.96 9.734-12.506 16.64-16.413l2.307-.32c1.373-.787 2.76-1.573 4.16-2.333ZM337.627 259.819c3.4-.92 6.866-1.654 10.413-1.52h86.76c2.16-.107 4.253.706 6.08 1.826 1 3.294.747 6.814.853 10.227-.12 17.787.214 35.6-.373 53.373-.08 4.24-2.96 7.454-5.653 10.387-2.254.867-4.56 1.627-7 1.613-.827-.466-2.494-1.4-3.32-1.866-.267-13.587.613-27.347-1.987-40.747-2.653-6.867-4.347-14.907-10.813-19.307-1.64-1.706-3.894-2.293-6.187-2.253-.573.88-1.733 2.653-2.307 3.533-.106 14.374-.013 28.76-.04 43.147-.44 10.96 1.707 21.787 1.587 32.747 3.253 14.906 2.347 30.346 6.173 45.133.347 6.56 2.494 13.013 1.374 19.627-2.44 3.226-6.947 2.506-10.48 2.573-10.747-.307-21.427 1.213-32.147 1.187-2.853-.187-6.88-1.64-6.547-5.16.467-8.16 1.84-16.294 3.747-24.254.08-6.24 1.667-12.32 1.707-18.546.333-6.707 2.813-13.16 2.586-19.92-.186-4.894.84-9.68 1.24-14.52.307-19.587.84-39.174.52-58.76.067-2.307-.893-4.387-1.986-6.334-.694-.093-2.094-.266-2.8-.346-5.627 3.56-8.827 9.32-11.414 15.253-1.32 5.6-2.373 11.267-3.36 16.933-1.266 10.454-.106 21.014-.946 31.494-5.587 4.24-12.48.013-15.667-5.134-.8-3.026-1.8-6.04-1.613-9.213.066-18.24 0-36.493.04-54.733-.094-2.267.946-4.32 1.56-6.44ZM453.387 258.232c8.827.253 17.68-.187 26.493.2 3.72 2 3.6 6.813 3.334 10.467-1.72 23.093-1.92 46.28-1.627 69.44.053 10.64 2.413 21.08 2.827 31.693.88 10.613 4.173 20.747 5.226 31.36 2.454 3.587 2.667 7.907 2.427 12.107a140.54 140.54 0 0 0-3.48 3.426c-14.707-.253-29.427.667-44.133 0-1.107-2.466-3.4-4.906-2.24-7.773 2.626-7.56 2.746-15.667 5.373-23.2 1.44-8.773 1.613-17.72 3.507-26.427 1.56-7.44.786-15.08.96-22.613-.134-18.227.253-36.48-.187-54.707-.093-7.893-4.28-17.24 1.52-23.973ZM496.013 258.245c7.134.067 14.28.134 21.427-.04 4.653 3.48 3 9.8 3.426 14.787.72 9.307.027 18.693 1.694 27.92-.013 6.093.52 12.147 2.2 18.027 1.2 8.293 1.68 16.76 4.36 24.773.8 8.04 4.04 15.44 5.853 23.24 2.494 5.2 4.947 10.373 8.107 15.213 1.773.84 3.627 1.88 5.68 1.454 3.627-4.307 5.013-9.867 6.787-15.067 2.96-5.693 2.693-12.32 4.586-18.347 2.094-6.466.893-13.32 1.4-19.973.147-8.893-.013-17.827-.386-26.707-1.814-6.533-2.72-13.226-4.067-19.853-1.493-4.133-3.08-8.227-3.973-12.533-1.787-3.8-5.88-9.534-1.427-12.92 8.52.266 17.067-.16 25.587.2 5.586.653 8.253 6.48 8.653 11.48 1.653 13.826 3.653 27.773 2.147 41.76-1.814 14.12-1.107 28.586-5.04 42.36-.6 9.506-4.4 18.266-5.92 27.6-2.894 4.4-2.974 10-5.907 14.4-1.44 2.226-1.08 6.04-4.147 6.706-.96 3.907-3.92 6.627-6.08 9.854-2.826 1.613-5.293 4.653-8.813 4.4-8.454-.067-16.92.106-25.36-.08-2.893-.667-5.12-2.894-7.653-4.32-1.534-2.374-3.44-4.48-4.894-6.907-1.12-1.4-2.24-2.8-3.373-4.16-.093-.587-.28-1.747-.373-2.32-2.88-3.88-3.147-8.84-4.974-13.173-2.56-5.72-2.226-12.2-4.533-17.987-1.987-7.147-1.693-14.733-3.733-21.88-1.707-5.52-1.027-11.387-2.374-16.987-.426-9.84.28-19.72-1.293-29.493-.28-12.267-.814-24.533-.147-36.787.853-1.546 1.694-3.093 2.56-4.64ZM632.054 260.059c12.666-3.08 25.786-1.294 38.693-1.76 8.373.44 17.04-1.08 25.187 1.413 2.626 5.48 1.186 11.747 1.226 17.6-1.293 22.067-1.2 44.213-.733 66.32 1.32 14.4.707 29.08 4.56 43.133 1.12 6.334 1.093 13 3.893 18.907.96 5.013 1.96 10.293.147 15.253-10.12.334-20.253 0-30.373-.093-5.72-.72-12.6.333-17.134-3.92-.426-5.08-.68-10.4 1-15.307-.266-6.573 2.72-12.68 2.827-19.2-.08-6.786 1.893-13.4 1.4-20.213.64-10.613 1.827-21.2 1.973-31.853-10.506.253-22.013 1.746-29.64 9.693-5.893 6.867-6.64 16.173-6.48 24.84.614 6.973.867 13.973 2.4 20.84 2.987 5.027 3.48 11.12 6.8 16.027 1.64 4.746 4.4 9.2 4.627 14.346-.347.534-1.027 1.6-1.373 2.134-11.414.16-22.854.186-34.267-.08-4.747-.107-8.427-2.747-11.853-5.707-3.534-9.667-2.52-20.12-2.347-30.2.133-7.96.987-15.893.8-23.853-.373-8.56 1.453-17 1.747-25.534 2.733-8.413 2.4-17.533 5.68-25.786 1.36-4.534 1.493-9.56 4.24-13.587.573-2.2 1.28-4.373 1.933-6.547 1.613-2.546 2.893-5.28 4.027-8.053 2.506-3.773 4.893-7.6 8.173-10.787 3.56-3.786 8.16-5.986 12.867-8.026Zm15 11.68c-2.36 1.786-5.147 2.933-7.454 4.786-2.72 3.067-5.24 6.44-6.733 10.294-2.853 4.52-3.213 9.973-5.293 14.813-2.28 9.413-2.347 19.16-2.56 28.8 2.906-3.173 6.613-5.48 10.226-7.76 1.48-.693 2.76-1.72 4.04-2.733 2.747-.947 5.48-1.987 8.08-3.347 5.72-2.413 12.04-2.053 18.027-3.373-.64-11.4 2.68-22.827-.173-34.12-1.907-2.88-4.227-5.427-7.04-7.44a64.418 64.418 0 0 0-11.12.08ZM716.08 259.725c6.506-1.813 13.306-.693 19.96-.866 6.32.293 12.773-.534 19 .933-.427 2.413-1.2 4.733-1.974 7.053-2.84 3.627-3.906 8.214-5.973 12.267-2.427 13.813-1.347 27.933-1.547 41.893-.293 13.014 1.107 25.96 1.6 38.934 1.947 9.986 1.28 20.84 6.56 29.866 1.814 4.294 5.894 7.134 10.414 7.96 4.64-.306 8.693-3.706 10.333-7.986 4.947-10.734 4.747-23.147 3.76-34.707-.173-5.92-3.107-10.973-5.24-16.32-.533-.4-1.6-1.2-2.133-1.613-.067-2.067-.12-4.147-.134-6.214a106.232 106.232 0 0 0 3.387-3.133c6.8-1.96 14.707-.693 19.293 5.053 2.24 3.04 4.307 6.32 5 10.107 1.12 5.973 3.134 11.827 3 17.987 0 17.8 0 35.613.014 53.426.186 3.774-2 7.027-3.16 10.467-5.2 2.787-11.28 1.147-16.88 1.48-7.614.373-15.08-1.667-22.68-1.36-10.467.293-20.8-1.667-31.2-2.413-2.907-.12-5.707-.8-8.414-1.787-2.213-4.533-4.08-9.387-3.92-14.52-.24-27.133 2.92-54.16 2.24-81.293.64-20.094-3.08-40.04-2.666-60.12-.094-1.814.8-3.44 1.36-5.094ZM129.52 262.899c1.387-2.92 5.013-2.947 7.773-3.067 20.947-.413 41.894-.08 62.84-.227 4.947-.413 9.24 2.44 13.894 3.547 1.36.813 2.653 1.707 3.946 2.627 2.507 1.56 3.96 4.2 5.854 6.386 2.146 5.64 1.946 11.787.026 17.467-2.426 2.827-4.773 5.96-8.493 7.12-4.693 2.173-9.787-.293-13.533-3.187-1.44-4.746-4.267-8.853-6.134-13.413-2.346-1.347-4.6-2.853-6.866-4.347-7.44-1.813-15.134-2.053-22.52.16-1.627 2.08-3.894 3.547-5.454 5.68-3.746 4.307-3.8 10.334-5.2 15.6-1.186 11.694-.346 23.494-.64 35.24 1.854-.973 3.374-2.333 4.227-4.266 2.227-1.307 3.8-3.374 5.653-5.134 2.134-4.04 6.934-5.32 10.414-7.946 1.306-.414 2.613-.814 3.946-1.187 6.147-4.12 13.92-1.68 20.814-2.307 3.52 1.974 8.826 4.467 7.573 9.427-.947 3.827-1.013 9.693-5.653 10.867-5.04 1.84-10.267-.774-15.414-.08-7.56 1.426-15.333 3.546-20.906 9.2-.187 2.266-.947 4.386-2.587 6.026-.44 1.32-.907 2.64-1.4 3.947-4.107 13.92-3.093 28.893 1.307 42.6 2.386 3.707 5.093 7.813 9.813 8.587 5.053.16 10.107.186 15.147 0 6.826-1.987 13.68-5.88 17.093-12.414.747-1.546 1.747-2.946 2.747-4.333 3.106-8.413.08-17.933 3.973-26.08 2.8-4.747 8.453-1.333 11.947.573a84.318 84.318 0 0 0 4.2 7.907c2.346 14.48 1.266 29.16 1.4 43.76.066 3.48-.867 6.867-1.374 10.293-3.6 4.974-9.826 7.707-15.92 7.134-9.733 1.586-19.666.693-29.346 2.64-4.44.76-8.92 1.36-13.427 1.28-4.867-.04-9.587 1.493-14.453 1.32-6.867-.347-13.467 1.946-20.267 2.346-3.307.334-5.547-2.386-7.827-4.28.147-10.053-.293-20.133.52-30.173 1.414-20.827 2.334-41.693 2.174-62.56-.12-22.667.306-45.333-.374-67.987-.066-2.92-.066-5.88.507-8.746ZM269.813 259.859c11.414-1.2 22.88-.96 34.307-.054 8.973 2.574 19.4 5.187 23.867 14.36 2.48 6.654 2.626 15.72-3.307 20.667-1.267 1.12-2.587 2.16-3.867 3.267-4.573 1.786-9.493 1.613-14.32 1.613-3.386-2.893-2.386-7.787-4.453-11.427-1.827-5.573-6.32-9.533-11.2-12.44-5.387-1-10.827-.853-16.227 0-2.373 1.934-5.84 2.854-6.973 5.974-.573.56-1.693 1.706-2.253 2.28.04 2.946-.28 5.946.306 8.866 4.28 9.027 12.64 14.934 20.294 20.894 13.893 9.76 28.84 18.746 39.88 31.88 2.533 3.4 5.24 6.706 7.186 10.493 3.4 5.533 4.854 11.893 6.827 18 .36 6.733.24 13.493.053 20.227-1.453 6.493-4.453 12.613-8.266 18.066-5.334 5.72-12.894 9.387-20.747 9.734-14.387-.134-28.587 3.28-42.987 2.706-8.76.454-17.6 2.254-26.253-.226-1.28-1.134-2.547-2.294-4.147-2.92-2.4-5.254-3.786-11.027-3.586-16.814.32-16.333-1.24-33.066 3.64-48.906 3.226-2.054 6.333-4.894 10.466-4.52 1.254 1.2 2.56 2.36 3.92 3.453.08 6.933.974 13.813 1.574 20.707 1.84 7.293 5.346 14.573 12.053 18.573 8.213 3.453 17.493 2.293 25.773-.267 3.254-2.506 6.04-5.506 8.414-8.853 1.76-5.707 1.746-11.627.013-17.32-4.973-9.387-13.6-15.76-21.88-22.04-10.4-8.253-21.72-15.667-30.08-26.173-9.653-10.707-10.92-26.68-6.16-39.88 2.467-2.894 3.8-6.614 6.667-9.187 2.533-2.84 6.2-4.2 9.08-6.627 4.173-1.253 8.253-2.773 12.386-4.106ZM811.08 259.632c19.88 0 39.76.013 59.653-.013 10.107-.307 21.027 1.68 28.907 8.426 5.733 5.6 7.053 14.08 5.067 21.64-.787 3.347-3.654 5.48-5.494 8.214-4.346 2.453-9.333 1.88-13.813.16a227.612 227.612 0 0 0-3.747-4.2c-1.453-4.747-3.853-9.16-6.386-13.387-8.04-6.667-19.347-7.147-29.08-4.6-3.347 2.08-6.267 4.587-8.494 7.853-5.226 15.254-2.706 31.56-3.2 47.347 5.667-6.013 12.347-10.88 19.32-15.173 6.347-1.627 12.734-4.667 19.427-3.374 3.933.747 7.84 1.814 11.573 3.32.747 1.507 1.96 2.68 3.214 3.787.466 5.053-.347 10.173-3.094 14.52-5.6 1.6-11.293-.133-16.946-.307-5.187-.146-10.454.28-15.374 2-4.773 2.614-8.346 6.494-10.973 11.227-4.067 13.96-3.213 29.027.027 43.067 1.706 2.253 2.92 4.866 4.773 7.026 2.093 1.894 4.613 3.24 6.773 5.067 8.014.093 16.04.453 24.054-.08 2.293-1.16 4.146-3.027 6.333-4.387 8.667-9.773 5.893-23.52 8.84-35.253 2.36-.16 4.747-.24 7.133-.307 4.16 2.04 5.694 6.467 8.214 10.027.573 3.787 1.773 7.52 1.626 11.4-.053 15.347-.013 30.693-.026 46.04-1.68 4.907-7 7.56-11.96 7.307-7.667-.307-15.067-3.027-22.787-2.68-5.333.173-10.52-1.547-15.853-1.334-9.04.307-17.774-2.853-26.8-2.653-5.774.227-11.387-1.28-17.134-1.453-4.52-.334-7.226-5.08-7.386-9.227.28-16.907 2.2-33.773 1.92-50.693v-106.76c.413-.64 1.266-1.92 1.693-2.547ZM29.52 262.325c20.813-.906 41.653-.973 62.467-1.613 7.28-.427 14.533 1.067 21.453 3.213 3.147 2.547 6.88 4.52 9 8.12 3.52 4.867 3.547 11.054 2.533 16.734-1.72 4.306-4.666 7.96-8.253 10.853-3.547.133-7.093.12-10.64-.093-.747-.427-2.24-1.267-2.987-1.694-1.946-4.573-4.786-8.72-6.013-13.573a37.064 37.064 0 0 1-4.173-4.387c-5.814-2.146-11.894-4.64-18.227-3.64-6.013 1.28-12.573 3.094-15.933 8.734-1.334 3.453-2.974 6.853-3.88 10.453-.92 14.44-.067 28.907-.76 43.347.266-.6.786-1.787 1.053-2.374 6.093-5.68 11.627-12.12 18.907-16.426 3.386-1.214 6.586-2.907 9.946-4.2 5.694-.6 11.44-.307 17.147-.067 1.827 1.48 3.72 2.867 5.627 4.253.186 5.107.64 10.507-1.427 15.32-2.947 1.387-5.88 3.56-9.36 2.72-7.067-1.333-14.36-.266-21.147 1.92-4.6 2.974-8.826 6.36-11.84 11.014-1.186 4.16-3.373 8-4.213 12.24-.2 7.56-.293 15.146.107 22.693 2.146 6.533 2.6 13.56 5.626 19.813 3.4 11.28 8.2 22.014 12.534 32.96.733 2.027-1.347 3.734-3.187 3.96-12.347 3.4-25.333 2.467-37.8 5.187-3.64 1.147-6.72-1.307-9.387-3.387.187-18.946-.293-37.893.374-56.826.773-35.947.4-71.907.48-107.854.146-5.826-.84-12.013 1.973-17.4ZM917.586 264.965c2.72-4.96 9.507-4.506 14.44-4.36 6.494.614 14.187-1.333 19.507 3.494 2.333 3.426 4.893 6.786 6.293 10.746 2.6 3.72 3.414 8.32 5.92 12.107 2.974 8.733 7.294 16.947 10.134 25.773 1.693 3.214 3.026 6.614 3.746 10.2.72 1.374 1.454 2.747 2.2 4.134 2.854 10.506 7.24 20.546 9.907 31.146 1.667 4.16 3.253 8.414 3.787 12.907.96 1.92 2.28 3.613 3.826 5.12-.026-13.107.24-26.227-.12-39.333-1.533-7.374-.373-15.08-2.826-22.267-1.494-6.32-1.507-12.947-3.44-19.173-2.014-5.4-2.294-11.307-4.8-16.547-1.734-5.36-3.347-11.133-2.227-16.787 8.453-.6 16.917.307 25.387.16 3.6.16 7.51-.693 10.83 1.2.88 26.307-3.22 52.454-2.76 78.76-.07 22.227 1.24 44.44 2.65 66.614-.17 13.24.32 26.48 0 39.72a92 92 0 0 0-3.47 2.146c-5.68.387-11.01-2.133-16.677-1.813-3.933.36-7.133-2.08-9.84-4.587-1.173-8.76-4.96-16.826-6.333-25.533-2.947-5.427-2.227-12.373-6.04-17.227-.747-3.413-1.294-6.946-2.787-10.12-2.373-4.333-2.267-9.64-5.227-13.706-.586-2.254-1.306-4.48-1.84-6.734-.746-1.36-1.48-2.72-2.2-4.08-.56-2.2-1.253-4.36-1.853-6.546-4.347-7.64-6.427-16.454-10.84-24.12a87.758 87.758 0 0 1-1.187-3.934c-.533-.613-1.586-1.853-2.12-2.466-.586-1.947-1.24-3.88-1.866-5.8-1.174-1.387-2.32-2.8-2.934-4.52-1.586-.014-3.16 0-4.706.026-.174 17.854-.734 35.987 3.773 53.374.627 9.866 4.2 19.08 5.747 28.773 3.173 4.933 2.693 11.173 5.386 16.307 1.654 3.546 1.747 7.626 3.44 11.173 2.08 4.067 3.04 8.64 3.08 13.2-8.013.96-16.066-.613-24.026-1.387-5.814.267-11.454-1.2-16.92-2.933-.76-.427-2.267-1.28-3.014-1.72-1.72-6.84-1.946-13.933-.973-20.907 1.307-8.306.307-16.746 1.413-25.08 2.6-26.2 2.147-52.573.56-78.826-.853-15.507-1.706-31.054-1-46.574Z"/></svg>