<svg width="1027" height="451" viewBox="0 0 1027 451" fill="none" xmlns="http://www.w3.org/2000/svg">
<path d="M308.4 2.4587C320.573 -5.7013 336.293 9.8987 331.293 22.4987C330.213 24.632 328.933 26.6454 327.786 28.7254C324.56 30.6454 321.466 33.6854 317.386 33.032C308.546 32.5387 301.853 24.1387 301.333 15.6187C301.44 10.4054 304.746 5.8987 308.4 2.4587Z" fill="#F5DD5C"/>
<path d="M345.746 11.9121C348.266 6.93875 353.173 3.27208 358.76 2.63208C364.56 2.71208 370.133 6.01875 373.2 10.9387C375.573 17.1121 375.746 24.3387 371.68 29.8454C367.36 35.8987 358.733 35.0987 352.56 32.8187C349.84 30.2587 347.68 27.2454 345.466 24.2587C345.293 20.1521 344.853 15.9654 345.746 11.9121Z" fill="#F5DD5C"/>
<path d="M0.453187 31.632C0.373187 27.0054 0.62652 22.0587 3.57319 18.2454C10.0932 17.672 16.3332 19.6587 22.6665 20.7387C29.4799 21.0054 36.1732 22.4454 42.9999 22.6454C53.9332 25.192 65.1732 25.6587 76.3199 26.6854C81.1199 27.4854 85.8399 28.9921 90.7465 28.9521C96.6132 28.8187 102.333 30.592 108.213 30.352C111.813 30.272 115.013 32.1387 117.947 34.0054C119.333 36.9787 118.973 40.4587 119.28 43.6587C119.293 60.5387 119.4 77.4321 119.4 94.3121C119.413 103.259 120.147 112.512 117.107 121.099C114.44 124.992 110.707 128.125 106.027 129.245C104.48 128.099 102.947 126.939 101.427 125.765C99.8932 110.499 102.28 94.9654 99.1199 79.8321C98.2265 69.4721 94.8799 59.2187 88.9599 50.6454C86.5065 47.5387 82.4932 43.2454 78.2132 45.672C76.7732 48.2854 77.3599 51.4454 77.0665 54.3121C76.9332 76.9921 77.3199 99.672 77.3999 122.352C77.5999 128.139 78.9332 133.832 78.7199 139.645C78.4132 148.645 81.6532 157.312 81.3999 166.299C81.3465 170.805 82.7199 175.165 82.6932 179.659C82.4532 187.365 85.7732 194.632 85.4932 202.352C86.6399 208.925 86.6532 215.632 87.8532 222.205C88.2932 224.859 87.6799 227.592 86.4665 229.965C84.5199 233.019 80.3599 231.152 77.3732 231.659C63.1999 231.045 48.8132 232.979 34.7999 230.192C33.6399 227.712 32.4932 225.139 32.3599 222.365C33.3332 212.605 34.3732 202.859 35.2399 193.085C37.7465 184.379 37.1199 175.299 38.6265 166.432C38.1465 156.032 41.6932 145.992 41.3865 135.619C41.1865 129.325 42.7199 123.152 42.7332 116.872C42.7332 94.6854 42.6932 72.4854 42.7465 50.2854C42.6932 47.0987 43.2132 43.6321 41.1999 40.8854C36.3732 39.4321 31.6399 42.3654 29.7332 46.8054C29.0532 48.3254 28.0132 49.6187 26.9865 50.912C25.0399 57.792 22.2265 64.3787 21.6265 71.5787C20.8799 85.8187 21.1199 100.099 21.0265 114.352C21.1732 116.912 19.2265 118.832 18.2265 121.019C15.7865 121.112 13.3465 121.085 10.9065 121.005C10.4132 120.432 9.43985 119.285 8.94652 118.712C7.05319 118.005 5.71986 116.592 4.98652 114.725C4.46652 114.219 3.42652 113.179 2.90652 112.659C1.21319 107.619 0.879854 102.259 0.573187 96.992C0.479854 75.2054 0.46652 53.4187 0.453187 31.632Z" fill="#F5DD5C"/>
<path d="M987.761 20.6454C995.667 18.792 1003.88 17.2187 1012.01 18.1387C1014.77 23.7121 1012.85 29.9121 1011.55 35.5921C1009.08 41.5654 1007.11 47.7254 1004.43 53.6187C1003.41 55.912 1002.07 58.0321 1001.04 60.3121C997.614 67.3521 993.294 73.8987 989.041 80.4454C987.334 83.1787 985.267 85.672 983.614 88.432C979.347 93.872 974.747 99.0454 969.974 104.045C976.001 110.139 981.161 117.192 985.827 124.419C989.121 129.485 992.934 134.179 996.427 139.072C997.321 140.912 998.347 142.699 999.641 144.312C1002.57 150.219 1006.2 155.752 1009.04 161.725C1010.61 165.192 1012.72 168.432 1013.75 172.152C1016.53 176.245 1016.89 181.432 1019.77 185.472C1021.11 192.059 1024.44 198.032 1025.11 204.752C1025.44 210.592 1027.29 216.579 1025.44 222.325C1024.49 226.872 1019.68 228.805 1015.76 230.112C1005.61 230.672 995.427 229.885 985.294 230.632C981.534 230.685 977.401 231.525 973.987 229.539C972.201 222.432 972.881 214.952 972.267 207.685C971.641 201.032 972.867 194.179 970.894 187.672C969.254 181.979 969.067 176.005 967.801 170.219C963.507 156.979 960.707 142.859 952.987 131.112C952.041 129.219 951.027 127.365 949.761 125.685C949.307 124.792 948.414 123.032 947.961 122.139C942.801 126.499 938.361 132.059 932.014 134.765C932.134 142.632 933.561 150.419 933.387 158.285C933.067 166.032 936.307 173.365 936.161 181.112C937.201 187.219 937.227 193.512 939.294 199.405C940.761 206.565 941.121 213.939 942.987 221.032C943.601 224.699 942.667 229.459 939.227 231.459C925.267 231.859 911.307 232.605 897.347 233.032C894.174 232.939 890.067 232.592 888.214 229.712C887.254 220.485 889.027 211.219 891.547 202.392C892.281 196.645 893.281 190.952 893.721 185.179C897.721 168.992 896.961 152.205 898.534 135.685C899.107 114.325 898.881 92.9521 898.387 71.5921C898.214 60.0321 896.921 48.4987 897.467 36.9387C897.454 34.112 900.121 32.4187 901.654 30.3387C910.734 29.872 919.761 28.632 928.854 27.992C931.201 28.3787 933.841 30.1921 933.401 32.8987C933.334 42.2054 933.627 51.5254 932.947 60.8187C932.107 78.7121 932.001 96.6187 932.067 114.525C943.081 102.965 954.081 90.8854 961.054 76.3921C963.041 73.0054 964.854 69.4987 965.667 65.6054C969.507 58.4854 969.467 50.1787 970.254 42.3387C970.147 35.9787 968.987 29.672 969.321 23.2987C975.321 21.592 981.547 21.0454 987.761 20.6454Z" fill="#F5DD5C"/>
<path d="M130.667 34.2586C135.533 33.0586 140.453 34.4319 145.36 34.2986C153.48 34.2053 161.28 37.1519 169.413 36.9653C175.2 36.8319 180.853 38.5786 186.653 38.2986C193.133 37.7653 199.147 40.6586 205.52 41.1786C210.853 41.7919 215.653 44.2586 220.653 46.0186C228.72 49.6719 236.987 54.5119 241.2 62.6453C247.853 72.9519 248.107 86.2186 243.76 97.4719C242.16 99.6586 240.867 102.045 239.72 104.512C234.787 110.259 229 115.792 221.867 118.605C221.307 119.125 220.173 120.179 219.6 120.712C213.933 121.952 209.4 126.019 203.573 126.832C206.08 130.419 209.453 133.259 212.52 136.339C223.92 149.685 235.147 163.672 241.827 180.059C244.547 184.312 244.827 189.632 247.773 193.765C248.72 198.045 249.933 202.259 251.573 206.325C252.973 212.539 254.107 218.819 255.227 225.085C255.84 228.312 254.107 231.205 253.04 234.112C247.653 236.459 241.707 235.445 236.027 235.632C225.867 235.512 215.653 235.672 205.573 234.219C199.627 228.592 201.773 220.139 201.333 212.899C200.853 207.125 199.72 201.405 200.053 195.579C200.36 187.472 197.827 179.672 197.08 171.659C196.44 168.459 196.16 165.152 194.92 162.112C192.853 157.525 192.653 152.205 189.64 148.032C189.52 147.472 189.307 146.339 189.2 145.779C187.147 141.819 184.907 137.952 182.733 134.059C176.333 134.139 171.187 138.379 165.253 140.019C164.947 148.059 165.533 156.125 165.493 164.192C168.293 171.419 168.693 179.272 171.427 186.525C174.213 201.045 180.067 214.659 183.72 228.925C183.227 231.045 181.4 232.512 180.253 234.299C168.2 234.259 156.133 234.365 144.067 234.259C140.2 234.112 136.04 234.312 132.64 232.139C128.773 230.659 128.013 225.939 127.693 222.299C128.027 207.605 129.293 192.939 129.4 178.245C129.173 156.485 129.92 134.725 129.627 112.965C129.667 88.4853 129.28 64.0053 129.387 39.5119C129.307 37.6586 130.12 35.9653 130.667 34.2586ZM173.867 54.4186C169.8 57.2986 167.453 61.6719 165.6 66.1786C165.107 71.6053 165.64 77.0853 164.92 82.4986C164.32 97.0319 165.227 111.592 164.627 126.139C166.453 125.032 168.28 123.912 169.96 122.592C171.747 121.952 173.533 121.272 175.32 120.605C176.613 119.579 177.947 118.579 179.493 117.939C188.387 113.232 197.12 106.725 201.853 97.6453C206.213 90.7653 205.907 82.1919 205.373 74.3786C204.773 65.4053 197.627 58.5386 189.947 54.7919C184.72 53.0853 179.2 53.5653 173.867 54.4186Z" fill="#F5DD5C"/>
<path d="M829.614 37.7654C836.08 36.4987 842.72 37.4454 849.2 36.2054C856.92 34.712 864.787 36.352 872.2 38.592C877.134 41.4987 880.947 45.5387 883.787 50.4987C885.707 56.6054 885.88 63.0587 883.787 69.152C881.44 72.432 879.934 76.472 876.294 78.592C871.174 82.992 864.014 82.9387 857.667 82.352C855.8 79.4854 853.2 76.6854 853.44 73.0187C853.573 67.5787 850.734 62.8587 847.747 58.5654C845.427 57.1787 843.133 55.7254 840.853 54.2854C837.08 54.2454 833.307 54.2587 829.547 54.3254C824.574 57.8854 820.187 62.312 817.347 67.7787C813.84 72.832 813.187 79.072 811.107 84.7254C810.147 95.0054 808.787 105.379 810 115.725C811.347 125.512 809.893 135.472 811.933 145.179C814.027 154.845 813.067 165.125 816.933 174.392C817.827 178.885 819.32 183.205 821.72 187.112C822.747 188.845 823.827 190.539 824.987 192.192C825.8 196.139 830.36 196.579 833.294 198.365C843.627 202.672 856.254 196.965 861.08 187.099C866.867 176.139 866.187 163.312 868.054 151.365C868.48 147.965 872.627 147.805 875.294 147.432C879.84 149.165 881.56 153.739 883.613 157.725C885.893 165.232 885.52 173.152 885.88 180.912C885.334 188.912 885.96 197.045 884.12 204.912C881.8 215.005 876.88 225.579 867.134 230.379C861.32 232.059 855.574 234.685 849.387 234.325C839.16 234.299 828.934 234.272 818.707 234.325C812.68 234.739 807.174 231.832 801.507 230.232C794.747 226.259 787.947 221.005 784.96 213.499C784.467 213.005 783.494 212.032 783 211.552C780.827 205.005 777.574 198.872 776.894 191.885C774.227 185.032 774.787 177.632 773.48 170.499C773.294 155.712 773.36 140.912 773.454 126.139C774.134 120.965 774.68 115.779 775.094 110.592C776.92 105.072 777.8 99.3254 778.92 93.632C783.16 81.552 787.494 69.3254 795.12 58.832C798.214 55.2587 801.08 51.4054 804.814 48.4587C811.88 42.7387 820.334 38.0587 829.614 37.7654Z" fill="#F5DD5C"/>
<path d="M676.853 49.5519C691.906 46.1919 707.453 46.0853 722.8 46.3519C735.32 49.3386 745.093 59.4053 750.4 70.8586C754.84 79.6586 757.72 89.1786 759.426 98.8586C761.693 104.632 761.466 110.885 762.573 116.899C762.52 127.619 764.4 138.232 764.066 148.965C764.253 158.805 762.626 168.552 762.56 178.379C761.546 183.779 761.506 189.379 759.386 194.512C756.946 206.379 752.08 218.192 743.173 226.685C741.186 229.299 738.506 231.192 735.293 231.952C734.653 232.472 733.386 233.512 732.746 234.032C722.093 236.832 710.96 235.472 700.08 236.112C686.666 236.019 671.613 238.712 659.973 230.285C650.32 222.592 644.96 210.792 641.96 199.085C641.266 192.872 638.093 187.152 638.573 180.779C636.453 167.619 637.733 154.259 637.373 140.992C636.92 133.765 638.813 126.699 638.76 119.485C638.76 115.725 640.253 112.205 641.026 108.579C641.853 103.499 642.32 98.2453 644.413 93.4853C646.146 89.2319 646.16 84.2986 649.093 80.5653C649.693 78.6053 650.36 76.6586 650.946 74.6986C651.48 74.1386 652.546 73.0053 653.08 72.4453C657.52 62.1786 666.213 53.3519 676.853 49.5519ZM691.186 62.3519C688.973 63.9919 686.453 65.1119 684.16 66.5786C681.96 68.9119 681.026 72.1519 678.986 74.6453C677.44 81.0853 675.893 87.5653 674.813 94.1119C674.826 106.392 673.866 118.832 676.293 130.979C678.026 138.272 676.773 145.832 678.413 153.139C678.293 162.059 681.813 170.365 682.96 179.125C684.72 182.032 685.84 185.245 687 188.419C690.84 195.299 697.813 202.259 706.413 200.632C717.053 199.259 722.386 187.952 723.013 178.285C726.973 162.139 725.146 145.365 722.813 129.112C723.053 120.525 721.413 112.072 720.96 103.539C719.04 97.6853 718.626 91.5386 717.106 85.6053C715.8 81.9519 714.213 78.4186 713.08 74.7119C712.08 73.4586 711.106 72.1919 710.36 70.7919C708.2 67.0586 704.373 64.9653 701.12 62.3519C697.8 62.2853 694.493 62.2719 691.186 62.3519Z" fill="#F5DD5C"/>
<path d="M301.387 50.6054C308.933 48.3787 316.893 46.9521 324.787 47.8587C342.12 49.8187 359.627 48.1654 376.96 50.3787C377.96 51.6587 378.987 52.9387 380.04 54.2187C380.413 71.6187 378.52 88.9654 378.76 106.379C378.32 132.685 378.987 159.072 381.974 185.179C384.267 192.805 384.373 200.832 385.96 208.592C388.64 216.939 389.92 225.739 389.427 234.512C386.56 236.099 383.467 237.432 380.12 237.205C368.973 237.139 357.827 236.885 346.694 236.792C343.16 236.819 339.72 236.059 336.293 235.352C335.013 232.552 333.32 229.605 334.267 226.432C337.12 215.499 336.613 204.059 339.373 193.112C340.493 188.232 339.64 183.165 340.614 178.259C341.92 171.885 341.027 165.365 341.694 158.939C342.547 150.299 342.88 141.632 343.28 132.979C335.28 132.579 327.254 133.219 319.52 135.232C315.574 136.179 312.987 139.352 309.814 141.592C308.534 143.872 307.133 146.072 305.587 148.179C302.973 157.259 300.627 166.712 302.36 176.192C303.747 182.552 303.84 189.099 305.453 195.405C307.987 203.312 311.547 210.872 313.68 218.912C317.067 223.685 317.693 229.725 317.413 235.419C308.16 236.979 298.747 235.512 289.427 235.699C282.88 235.245 276.027 236.725 269.8 234.099C264.587 230.525 262.787 224.152 261.453 218.325C261.373 195.419 260.693 172.405 263.747 149.632C264.2 139.565 264.773 129.392 267.68 119.699C268.653 113.232 269.307 106.672 271.733 100.565C273.533 90.2587 277.8 80.6721 281.853 71.0987C282.827 69.8187 283.733 68.4854 284.453 67.0454C288.453 60.0587 294.373 54.4721 301.387 50.6054ZM307.64 80.2854C307.133 80.8987 306.12 82.1387 305.614 82.7521C304.254 89.5121 301 95.6988 300.427 102.645C299.947 112.325 296.92 121.739 297.614 131.499C303.787 126.885 310.053 122.432 316.747 118.605C319.893 117.605 323.014 116.485 325.987 115.059C331.84 113.312 337.96 112.859 344.04 112.592C343.053 99.9254 347.173 87.1787 344.053 74.6321C343.52 71.5387 341.16 69.2454 339.707 66.5654C336.307 64.9921 333.134 62.2987 329.227 62.3387C319.467 63.6454 310.307 70.5921 307.64 80.2854Z" fill="#F5DD5C"/>
<path d="M533.36 52.352C563.653 52.3386 593.907 50.0586 624.2 50.2853C627.813 49.872 631.213 53.2053 630.733 56.8586C630.72 78.672 630.693 100.499 630.747 122.325C630.893 125.739 629.987 129.085 628.867 132.272C626.72 135.472 623.2 137.272 620.253 139.605C618.453 139.619 616.667 139.645 614.88 139.672C613.64 137.645 611.507 135.805 611.667 133.219C611.48 122.072 612.067 110.912 610.827 99.8053C611.027 91.9653 607.68 84.872 605.08 77.6853C603.373 75.6053 602.12 73.2053 600.547 71.032C598.373 69.2186 595.88 67.8186 593.6 66.152C589.173 66.8586 587.667 71.6986 587.907 75.6053C587.947 93.8586 587.24 112.152 588.48 130.365C589.88 139.605 588.853 148.979 590.6 158.179C590.24 165.952 592 173.512 593.213 181.125C593.16 187.859 594.853 194.432 594.933 201.165C597.253 211.965 598.827 222.979 598.787 234.059C596.093 236.072 593 237.739 589.533 237.592C577.453 237.819 565.36 237.805 553.293 237.872C549.507 238.099 545.747 236.632 543.293 233.739C541.333 227.645 544.333 221.579 545.147 215.579C545.453 209.245 546.853 203.045 547.027 196.699C550.667 181.485 549.787 165.712 552.68 150.379C553.787 144.179 553.107 137.859 553.667 131.619C554.96 117.445 554.32 103.192 554.467 88.992C554.293 82.392 555.173 75.6586 553.387 69.192C549.853 66.792 546.253 68.432 543.213 70.7386C537.627 78.4986 533.76 87.6053 533.027 97.2186C530.2 109.845 531.893 122.832 531.08 135.619C530.813 141.525 523.56 141.059 519.627 139.352C517.52 136.765 514.707 134.952 512.187 132.805C511.827 128.845 510.56 124.979 510.693 120.965C510.747 101.419 510.707 81.8586 510.707 62.312C510.573 59.552 511.547 56.952 512.213 54.3253C518.88 51.4586 526.32 52.7786 533.36 52.352Z" fill="#F5DD5C"/>
<path d="M428.706 54.4587C440.519 52.2854 452.666 51.2187 464.653 52.632C471.866 53.2054 479.759 52.872 486.159 56.7787C486.773 56.872 487.986 57.0321 488.599 57.1254C493.413 58.7654 496.466 63.0587 499.706 66.712C500.493 68.192 501.466 69.5521 502.479 70.8854C504.039 76.4987 504.079 82.2721 502.506 87.8854C500.239 91.2987 497.333 94.1254 494.226 96.7654C489.119 98.7654 482.519 99.5254 477.613 96.7654C475.199 92.6454 475.039 87.4854 473.133 83.0587C471.439 80.2454 469.559 77.4987 467.199 75.192C464.786 73.392 461.919 72.2854 459.533 70.4454C454.026 69.9787 448.426 69.5521 442.973 70.6854C438.413 72.6987 433.653 75.8854 432.546 81.0854C431.226 84.6587 432.959 88.312 433.706 91.8054C441.693 104.419 454.719 112.352 466.413 121.112C470.639 124.499 475.026 127.699 479.493 130.765C484.813 135.099 491.986 137.765 495.013 144.445C496.786 146.699 499.053 148.539 500.519 151.032C503.159 154.405 505.599 157.965 507.693 161.725C516.973 178.739 519.213 199.859 511.693 217.925C509.079 224.592 504.199 230.232 498.133 234.005C492.279 236.019 486.306 238.192 480.013 237.979C461.346 237.885 442.666 237.779 423.999 237.685C418.039 237.685 412.159 236.392 406.466 234.725C400.386 232.365 398.839 225.472 397.506 219.779C397.199 205.539 397.506 191.259 397.359 177.005C397.079 169.899 399.346 162.992 401.813 156.419C403.346 155.379 404.786 154.205 406.186 152.992C409.559 153.232 414.159 151.765 416.293 155.272C417.653 156.819 417.253 159.005 417.439 160.885C417.346 169.992 419.493 178.912 421.666 187.685C424.533 192.632 427.319 197.925 432.573 200.752C440.559 206.125 450.733 205.325 459.706 203.392C462.053 201.659 464.786 200.499 467.146 198.779C468.973 196.685 470.239 194.179 471.853 191.912C473.746 184.432 473.493 176.045 469.039 169.485C461.386 157.632 448.999 150.219 438.626 141.045C433.479 136.192 426.706 133.672 421.919 128.445C420.719 126.979 419.373 125.632 417.906 124.432C413.119 119.552 409.359 113.885 405.759 108.112C404.279 103.565 403.199 98.8987 402.279 94.2054C401.026 87.1254 403.826 80.2587 405.599 73.5254C409.479 66.5654 415.333 61.0187 422.239 57.112C422.813 57.032 423.973 56.8721 424.546 56.7921C425.919 56.0054 427.306 55.2187 428.706 54.4587Z" fill="#F5DD5C"/>
<path d="M337.627 259.819C341.027 258.899 344.493 258.165 348.04 258.299C376.96 258.299 405.88 258.299 434.8 258.299C436.96 258.192 439.053 259.005 440.88 260.125C441.88 263.419 441.627 266.939 441.733 270.352C441.613 288.139 441.947 305.952 441.36 323.725C441.28 327.965 438.4 331.179 435.707 334.112C433.453 334.979 431.147 335.739 428.707 335.725C427.88 335.259 426.213 334.325 425.387 333.859C425.12 320.272 426 306.512 423.4 293.112C420.747 286.245 419.053 278.205 412.587 273.805C410.947 272.099 408.693 271.512 406.4 271.552C405.827 272.432 404.667 274.205 404.093 275.085C403.987 289.459 404.08 303.845 404.053 318.232C403.613 329.192 405.76 340.019 405.64 350.979C408.893 365.885 407.987 381.325 411.813 396.112C412.16 402.672 414.307 409.125 413.187 415.739C410.747 418.965 406.24 418.245 402.707 418.312C391.96 418.005 381.28 419.525 370.56 419.499C367.707 419.312 363.68 417.859 364.013 414.339C364.48 406.179 365.853 398.045 367.76 390.085C367.84 383.845 369.427 377.765 369.467 371.539C369.8 364.832 372.28 358.379 372.053 351.619C371.867 346.725 372.893 341.939 373.293 337.099C373.6 317.512 374.133 297.925 373.813 278.339C373.88 276.032 372.92 273.952 371.827 272.005C371.133 271.912 369.733 271.739 369.027 271.659C363.4 275.219 360.2 280.979 357.613 286.912C356.293 292.512 355.24 298.179 354.253 303.845C352.987 314.299 354.147 324.859 353.307 335.339C347.72 339.579 340.827 335.352 337.64 330.205C336.84 327.179 335.84 324.165 336.027 320.992C336.093 302.752 336.027 284.499 336.067 266.259C335.973 263.992 337.013 261.939 337.627 259.819Z" fill="#F5DD5C"/>
<path d="M453.387 258.232C462.214 258.485 471.067 258.045 479.88 258.432C483.6 260.432 483.48 265.245 483.214 268.899C481.494 291.992 481.294 315.179 481.587 338.339C481.64 348.979 484 359.419 484.414 370.032C485.294 380.645 488.587 390.779 489.64 401.392C492.094 404.979 492.307 409.299 492.067 413.499C490.88 414.619 489.734 415.765 488.587 416.925C473.88 416.672 459.16 417.592 444.454 416.925C443.347 414.459 441.054 412.019 442.214 409.152C444.84 401.592 444.96 393.485 447.587 385.952C449.027 377.179 449.2 368.232 451.094 359.525C452.654 352.085 451.88 344.445 452.054 336.912C451.92 318.685 452.307 300.432 451.867 282.205C451.774 274.312 447.587 264.965 453.387 258.232Z" fill="#F5DD5C"/>
<path d="M496.013 258.245C503.147 258.312 510.293 258.379 517.44 258.205C522.093 261.685 520.44 268.005 520.866 272.992C521.586 282.299 520.893 291.685 522.56 300.912C522.547 307.005 523.08 313.059 524.76 318.939C525.96 327.232 526.44 335.699 529.12 343.712C529.92 351.752 533.16 359.152 534.973 366.952C537.467 372.152 539.92 377.325 543.08 382.165C544.853 383.005 546.707 384.045 548.76 383.619C552.387 379.312 553.773 373.752 555.547 368.552C558.507 362.859 558.24 356.232 560.133 350.205C562.227 343.739 561.026 336.885 561.533 330.232C561.68 321.339 561.52 312.405 561.147 303.525C559.333 296.992 558.427 290.299 557.08 283.672C555.587 279.539 554 275.445 553.107 271.139C551.32 267.339 547.227 261.605 551.68 258.219C560.2 258.485 568.747 258.059 577.267 258.419C582.853 259.072 585.52 264.899 585.92 269.899C587.573 283.725 589.573 297.672 588.067 311.659C586.253 325.779 586.96 340.245 583.027 354.019C582.427 363.525 578.627 372.285 577.107 381.619C574.213 386.019 574.133 391.619 571.2 396.019C569.76 398.245 570.12 402.059 567.053 402.725C566.093 406.632 563.133 409.352 560.973 412.579C558.147 414.192 555.68 417.232 552.16 416.979C543.706 416.912 535.24 417.085 526.8 416.899C523.907 416.232 521.68 414.005 519.147 412.579C517.613 410.205 515.707 408.099 514.253 405.672C513.133 404.272 512.013 402.872 510.88 401.512C510.787 400.925 510.6 399.765 510.507 399.192C507.627 395.312 507.36 390.352 505.533 386.019C502.973 380.299 503.307 373.819 501 368.032C499.013 360.885 499.307 353.299 497.267 346.152C495.56 340.632 496.24 334.765 494.893 329.165C494.467 319.325 495.173 309.445 493.6 299.672C493.32 287.405 492.786 275.139 493.453 262.885C494.306 261.339 495.147 259.792 496.013 258.245Z" fill="#F5DD5C"/>
<path d="M632.054 260.059C644.72 256.979 657.84 258.765 670.747 258.299C679.12 258.739 687.787 257.219 695.934 259.712C698.56 265.192 697.12 271.459 697.16 277.312C695.867 299.379 695.96 321.525 696.427 343.632C697.747 358.032 697.134 372.712 700.987 386.765C702.107 393.099 702.08 399.765 704.88 405.672C705.84 410.685 706.84 415.965 705.027 420.925C694.907 421.259 684.774 420.925 674.654 420.832C668.934 420.112 662.054 421.165 657.52 416.912C657.094 411.832 656.84 406.512 658.52 401.605C658.254 395.032 661.24 388.925 661.347 382.405C661.267 375.619 663.24 369.005 662.747 362.192C663.387 351.579 664.574 340.992 664.72 330.339C654.214 330.592 642.707 332.085 635.08 340.032C629.187 346.899 628.44 356.205 628.6 364.872C629.214 371.845 629.467 378.845 631 385.712C633.987 390.739 634.48 396.832 637.8 401.739C639.44 406.485 642.2 410.939 642.427 416.085C642.08 416.619 641.4 417.685 641.054 418.219C629.64 418.379 618.2 418.405 606.787 418.139C602.04 418.032 598.36 415.392 594.934 412.432C591.4 402.765 592.414 392.312 592.587 382.232C592.72 374.272 593.574 366.339 593.387 358.379C593.014 349.819 594.84 341.379 595.134 332.845C597.867 324.432 597.534 315.312 600.814 307.059C602.174 302.525 602.307 297.499 605.054 293.472C605.627 291.272 606.334 289.099 606.987 286.925C608.6 284.379 609.88 281.645 611.014 278.872C613.52 275.099 615.907 271.272 619.187 268.085C622.747 264.299 627.347 262.099 632.054 260.059ZM647.054 271.739C644.694 273.525 641.907 274.672 639.6 276.525C636.88 279.592 634.36 282.965 632.867 286.819C630.014 291.339 629.654 296.792 627.574 301.632C625.294 311.045 625.227 320.792 625.014 330.432C627.92 327.259 631.627 324.952 635.24 322.672C636.72 321.979 638 320.952 639.28 319.939C642.027 318.992 644.76 317.952 647.36 316.592C653.08 314.179 659.4 314.539 665.387 313.219C664.747 301.819 668.067 290.392 665.214 279.099C663.307 276.219 660.987 273.672 658.174 271.659C654.467 271.365 650.747 271.392 647.054 271.739Z" fill="#F5DD5C"/>
<path d="M716.08 259.725C722.586 257.912 729.386 259.032 736.04 258.859C742.36 259.152 748.813 258.325 755.04 259.792C754.613 262.205 753.84 264.525 753.066 266.845C750.226 270.472 749.16 275.059 747.093 279.112C744.666 292.925 745.746 307.045 745.546 321.005C745.253 334.019 746.653 346.965 747.146 359.939C749.093 369.925 748.426 380.779 753.706 389.805C755.52 394.099 759.6 396.939 764.12 397.765C768.76 397.459 772.813 394.059 774.453 389.779C779.4 379.045 779.2 366.632 778.213 355.072C778.04 349.152 775.106 344.099 772.973 338.752C772.44 338.352 771.373 337.552 770.84 337.139C770.773 335.072 770.72 332.992 770.706 330.925C771.853 329.912 772.986 328.859 774.093 327.792C780.893 325.832 788.8 327.099 793.386 332.845C795.626 335.885 797.693 339.165 798.386 342.952C799.506 348.925 801.52 354.779 801.386 360.939C801.386 378.739 801.386 396.552 801.4 414.365C801.586 418.139 799.4 421.392 798.24 424.832C793.04 427.619 786.96 425.979 781.36 426.312C773.746 426.685 766.28 424.645 758.68 424.952C748.213 425.245 737.88 423.285 727.48 422.539C724.573 422.419 721.773 421.739 719.066 420.752C716.853 416.219 714.986 411.365 715.146 406.232C714.906 379.099 718.066 352.072 717.386 324.939C718.026 304.845 714.306 284.899 714.72 264.819C714.626 263.005 715.52 261.379 716.08 259.725Z" fill="#F5DD5C"/>
<path d="M129.52 262.899C130.907 259.979 134.533 259.952 137.293 259.832C158.24 259.419 179.187 259.752 200.133 259.605C205.08 259.192 209.373 262.045 214.027 263.152C215.387 263.965 216.68 264.859 217.973 265.779C220.48 267.339 221.933 269.979 223.827 272.165C225.973 277.805 225.773 283.952 223.853 289.632C221.427 292.459 219.08 295.592 215.36 296.752C210.667 298.925 205.573 296.459 201.827 293.565C200.387 288.819 197.56 284.712 195.693 280.152C193.347 278.805 191.093 277.299 188.827 275.805C181.387 273.992 173.693 273.752 166.307 275.965C164.68 278.045 162.413 279.512 160.853 281.645C157.107 285.952 157.053 291.979 155.653 297.245C154.467 308.939 155.307 320.739 155.013 332.485C156.867 331.512 158.387 330.152 159.24 328.219C161.467 326.912 163.04 324.845 164.893 323.085C167.027 319.045 171.827 317.765 175.307 315.139C176.613 314.725 177.92 314.325 179.253 313.952C185.4 309.832 193.173 312.272 200.067 311.645C203.587 313.619 208.893 316.112 207.64 321.072C206.693 324.899 206.627 330.765 201.987 331.939C196.947 333.779 191.72 331.165 186.573 331.859C179.013 333.285 171.24 335.405 165.667 341.059C165.48 343.325 164.72 345.445 163.08 347.085C162.64 348.405 162.173 349.725 161.68 351.032C157.573 364.952 158.587 379.925 162.987 393.632C165.373 397.339 168.08 401.445 172.8 402.219C177.853 402.379 182.907 402.405 187.947 402.219C194.773 400.232 201.627 396.339 205.04 389.805C205.787 388.259 206.787 386.859 207.787 385.472C210.893 377.059 207.867 367.539 211.76 359.392C214.56 354.645 220.213 358.059 223.707 359.965C224.96 362.672 226.373 365.312 227.907 367.872C230.253 382.352 229.173 397.032 229.307 411.632C229.373 415.112 228.44 418.499 227.933 421.925C224.333 426.899 218.107 429.632 212.013 429.059C202.28 430.645 192.347 429.752 182.667 431.699C178.227 432.459 173.747 433.059 169.24 432.979C164.373 432.939 159.653 434.472 154.787 434.299C147.92 433.952 141.32 436.245 134.52 436.645C131.213 436.979 128.973 434.259 126.693 432.365C126.84 422.312 126.4 412.232 127.213 402.192C128.627 381.365 129.547 360.499 129.387 339.632C129.267 316.965 129.693 294.299 129.013 271.645C128.947 268.725 128.947 265.765 129.52 262.899Z" fill="#F5DD5C"/>
<path d="M269.813 259.859C281.227 258.659 292.693 258.899 304.12 259.805C313.093 262.379 323.52 264.992 327.987 274.165C330.467 280.819 330.613 289.885 324.68 294.832C323.413 295.952 322.093 296.992 320.813 298.099C316.24 299.885 311.32 299.712 306.493 299.712C303.107 296.819 304.107 291.925 302.04 288.285C300.213 282.712 295.72 278.752 290.84 275.845C285.453 274.845 280.013 274.992 274.613 275.845C272.24 277.779 268.773 278.699 267.64 281.819C267.067 282.379 265.947 283.525 265.387 284.099C265.427 287.045 265.107 290.045 265.693 292.965C269.973 301.992 278.333 307.899 285.987 313.859C299.88 323.619 314.827 332.605 325.867 345.739C328.4 349.139 331.107 352.445 333.053 356.232C336.453 361.765 337.907 368.125 339.88 374.232C340.24 380.965 340.12 387.725 339.933 394.459C338.48 400.952 335.48 407.072 331.667 412.525C326.333 418.245 318.773 421.912 310.92 422.259C296.533 422.125 282.333 425.539 267.933 424.965C259.173 425.419 250.333 427.219 241.68 424.739C240.4 423.605 239.133 422.445 237.533 421.819C235.133 416.565 233.747 410.792 233.947 405.005C234.267 388.672 232.707 371.939 237.587 356.099C240.813 354.045 243.92 351.205 248.053 351.579C249.307 352.779 250.613 353.939 251.973 355.032C252.053 361.965 252.947 368.845 253.547 375.739C255.387 383.032 258.893 390.312 265.6 394.312C273.813 397.765 283.093 396.605 291.373 394.045C294.627 391.539 297.413 388.539 299.787 385.192C301.547 379.485 301.533 373.565 299.8 367.872C294.827 358.485 286.2 352.112 277.92 345.832C267.52 337.579 256.2 330.165 247.84 319.659C238.187 308.952 236.92 292.979 241.68 279.779C244.147 276.885 245.48 273.165 248.347 270.592C250.88 267.752 254.547 266.392 257.427 263.965C261.6 262.712 265.68 261.192 269.813 259.859Z" fill="#F5DD5C"/>
<path d="M811.08 259.632C830.96 259.632 850.84 259.645 870.733 259.619C880.84 259.312 891.76 261.299 899.64 268.045C905.373 273.645 906.693 282.125 904.707 289.685C903.92 293.032 901.053 295.165 899.213 297.899C894.867 300.352 889.88 299.779 885.4 298.059C884.16 296.632 882.907 295.232 881.653 293.859C880.2 289.112 877.8 284.699 875.267 280.472C867.227 273.805 855.92 273.325 846.187 275.872C842.84 277.952 839.92 280.459 837.693 283.725C832.467 298.979 834.987 315.285 834.493 331.072C840.16 325.059 846.84 320.192 853.813 315.899C860.16 314.272 866.547 311.232 873.24 312.525C877.173 313.272 881.08 314.339 884.813 315.845C885.56 317.352 886.773 318.525 888.027 319.632C888.493 324.685 887.68 329.805 884.933 334.152C879.333 335.752 873.64 334.019 867.987 333.845C862.8 333.699 857.533 334.125 852.613 335.845C847.84 338.459 844.267 342.339 841.64 347.072C837.573 361.032 838.427 376.099 841.667 390.139C843.373 392.392 844.587 395.005 846.44 397.165C848.533 399.059 851.053 400.405 853.213 402.232C861.227 402.325 869.253 402.685 877.267 402.152C879.56 400.992 881.413 399.125 883.6 397.765C892.267 387.992 889.493 374.245 892.44 362.512C894.8 362.352 897.187 362.272 899.573 362.205C903.733 364.245 905.267 368.672 907.787 372.232C908.36 376.019 909.56 379.752 909.413 383.632C909.36 398.979 909.4 414.325 909.387 429.672C907.707 434.579 902.387 437.232 897.427 436.979C889.76 436.672 882.36 433.952 874.64 434.299C869.307 434.472 864.12 432.752 858.787 432.965C849.747 433.272 841.013 430.112 831.987 430.312C826.213 430.539 820.6 429.032 814.853 428.859C810.333 428.525 807.627 423.779 807.467 419.632C807.747 402.725 809.667 385.859 809.387 368.939C809.387 333.352 809.387 297.765 809.387 262.179C809.8 261.539 810.653 260.259 811.08 259.632Z" fill="#F5DD5C"/>
<path d="M29.52 262.325C50.3334 261.419 71.1734 261.352 91.9867 260.712C99.2667 260.285 106.52 261.779 113.44 263.925C116.587 266.472 120.32 268.445 122.44 272.045C125.96 276.912 125.987 283.099 124.973 288.779C123.253 293.085 120.307 296.739 116.72 299.632C113.173 299.765 109.627 299.752 106.08 299.539C105.333 299.112 103.84 298.272 103.093 297.845C101.147 293.272 98.3067 289.125 97.08 284.272C95.5734 282.925 94.1734 281.459 92.9067 279.885C87.0934 277.739 81.0134 275.245 74.68 276.245C68.6667 277.525 62.1067 279.339 58.7467 284.979C57.4134 288.432 55.7734 291.832 54.8667 295.432C53.9467 309.872 54.8 324.339 54.1067 338.779C54.3734 338.179 54.8934 336.992 55.16 336.405C61.2534 330.725 66.7867 324.285 74.0667 319.979C77.4534 318.765 80.6534 317.072 84.0134 315.779C89.7067 315.179 95.4534 315.472 101.16 315.712C102.987 317.192 104.88 318.579 106.787 319.965C106.973 325.072 107.427 330.472 105.36 335.285C102.413 336.672 99.48 338.845 96 338.005C88.9334 336.672 81.64 337.739 74.8534 339.925C70.2534 342.899 66.0267 346.285 63.0134 350.939C61.8267 355.099 59.64 358.939 58.8 363.179C58.6 370.739 58.5067 378.325 58.9067 385.872C61.0534 392.405 61.5067 399.432 64.5334 405.685C67.9334 416.965 72.7334 427.699 77.0667 438.645C77.8 440.672 75.72 442.379 73.88 442.605C61.5334 446.005 48.5467 445.072 36.08 447.792C32.44 448.939 29.36 446.485 26.6934 444.405C26.88 425.459 26.4 406.512 27.0667 387.579C27.84 351.632 27.4667 315.672 27.5467 279.725C27.6934 273.899 26.7067 267.712 29.52 262.325Z" fill="#F5DD5C"/>
<path d="M917.586 264.965C920.306 260.005 927.093 260.459 932.026 260.605C938.52 261.219 946.213 259.272 951.533 264.099C953.866 267.525 956.426 270.885 957.826 274.845C960.426 278.565 961.24 283.165 963.746 286.952C966.72 295.685 971.04 303.899 973.88 312.725C975.573 315.939 976.906 319.339 977.626 322.925C978.346 324.299 979.08 325.672 979.826 327.059C982.68 337.565 987.066 347.605 989.733 358.205C991.4 362.365 992.986 366.619 993.52 371.112C994.48 373.032 995.8 374.725 997.346 376.232C997.32 363.125 997.586 350.005 997.226 336.899C995.693 329.525 996.853 321.819 994.4 314.632C992.906 308.312 992.893 301.685 990.96 295.459C988.946 290.059 988.666 284.152 986.16 278.912C984.426 273.552 982.813 267.779 983.933 262.125C992.386 261.525 1000.85 262.432 1009.32 262.285C1012.92 262.445 1016.83 261.592 1020.15 263.485C1021.03 289.792 1016.93 315.939 1017.39 342.245C1017.32 364.472 1018.63 386.685 1020.04 408.859C1019.87 422.099 1020.36 435.339 1020.04 448.579C1018.85 449.272 1017.71 449.992 1016.57 450.725C1010.89 451.112 1005.56 448.592 999.893 448.912C995.96 449.272 992.76 446.832 990.053 444.325C988.88 435.565 985.093 427.499 983.72 418.792C980.773 413.365 981.493 406.419 977.68 401.565C976.933 398.152 976.386 394.619 974.893 391.445C972.52 387.112 972.626 381.805 969.666 377.739C969.08 375.485 968.36 373.259 967.826 371.005C967.08 369.645 966.346 368.285 965.626 366.925C965.066 364.725 964.373 362.565 963.773 360.379C959.426 352.739 957.346 343.925 952.933 336.259C952.506 334.952 952.106 333.632 951.746 332.325C951.213 331.712 950.16 330.472 949.626 329.859C949.04 327.912 948.386 325.979 947.76 324.059C946.586 322.672 945.44 321.259 944.826 319.539C943.24 319.525 941.666 319.539 940.12 319.565C939.946 337.419 939.386 355.552 943.893 372.939C944.52 382.805 948.093 392.019 949.64 401.712C952.813 406.645 952.333 412.885 955.026 418.019C956.68 421.565 956.773 425.645 958.466 429.192C960.546 433.259 961.506 437.832 961.546 442.392C953.533 443.352 945.48 441.779 937.52 441.005C931.706 441.272 926.066 439.805 920.6 438.072C919.84 437.645 918.333 436.792 917.586 436.352C915.866 429.512 915.64 422.419 916.613 415.445C917.92 407.139 916.92 398.699 918.026 390.365C920.626 364.165 920.173 337.792 918.586 311.539C917.733 296.032 916.88 280.485 917.586 264.965Z" fill="#F5DD5C"/>
</svg>
