<svg xmlns="http://www.w3.org/2000/svg" fill="none" viewBox="0 0 842 235"><path fill="#2A8DE1" d="M6.695 41.092C42.935 27.332 79.522 14.425 115.71.505c36.586 13.546 73.266 26.853 109.773 40.6-36.587 13.4-73.12 26.947-109.68 40.427A24919.619 24919.619 0 0 0 6.695 41.092ZM15.361 57.985c5.76 2.08 11.44 4.413 17.227 6.44.08 8.547.013 17.08.067 25.627-5.76-.027-11.534.08-17.294.066V57.985ZM79.308 82.852c11.28 4.293 22.641 8.373 33.894 12.693 1.387.4 2.867 1.387 4.347.747 11.52-4.214 22.946-8.68 34.533-12.694 4.147 13.534 8.747 26.907 13.08 40.387a46042.86 46042.86 0 0 1-35.947 110.493c-9.106.094-18.2-.24-27.306-.106-11.987-36.8-24-73.6-36.027-110.4 4.546-13.68 8.906-27.427 13.426-41.12ZM15.828 100.212c5.587-.067 11.187.04 16.787.066 5.187 10.654 10.213 21.387 15.413 32.04-8.106 16.387-15.333 33.267-24.026 49.334-7.787-16.507-15.814-32.894-23.587-49.414 5.213-10.64 10.293-21.346 15.413-32.026Z"/><path fill="#000" d="M706.722 52.251c6.453-1.946 14.427-1.106 19.147 4.147 5.48 5.147 5.96 14.573 1.053 20.267-7.453 9.48-25.107 7.906-29.933-3.467-3.814-8.12 1.213-18.467 9.733-20.947ZM225.029 68.025c30.973.88 61.947-.147 92.92-.054 0 7.907-.053 15.8.04 23.707-10.627-.093-21.253-.027-31.88-.04-.013 32.107 0 64.213 0 96.307-9.787.013-19.56.013-29.333.013-.014-32.12-.014-64.24-.014-96.36-10.586.067-21.173.013-31.773.04-.013-7.88-.013-15.747.04-23.613ZM451.922 69.331c9.787.04 19.574 0 29.36.027-.013 7.733.014 15.48-.013 23.227 6.387.04 12.773.04 19.16 0-.04 8.2-.053 16.4.013 24.613-6.386.027-12.773 0-19.16.013 0 12.92-.186 25.84.067 38.76-.2 3.067 1.76 6.2 4.867 6.84 4.76.747 9.6.267 14.4.24-.08 8.307-.027 16.614-.04 24.92-12.587-.173-26.6 1.467-37.494-6.2-7.893-5.36-10.613-15.293-10.84-24.346-.373-13.4-.213-26.814-.293-40.227-3.88.013-7.76.013-11.627.013.04-8.213.027-16.413 0-24.613 3.88.04 7.76.013 11.64-.027-.04-7.746 0-15.493-.04-23.24ZM546.962 93.011c13.627-3.186 28.574-1.546 40.747 5.547 10.587 6.36 18.107 17.293 20.827 29.28 2.506 12.24 1.44 25.48-4.36 36.667-5.48 10.76-15.574 18.853-27.12 22.213-18.987 5.88-42.347 1.787-55.32-14.133-10.04-11.867-12.44-28.48-9.747-43.414 3.24-17.533 17.373-32.56 34.973-36.16Zm7.68 24.414c-7.16 1.986-12.146 8.586-13.333 15.746-1.587 9.067-.72 19.974 6.653 26.4 7.214 6.56 19.4 5.72 25.947-1.373 5.52-5.347 6.667-13.52 6.12-20.853-.333-6.547-3.04-13.32-8.547-17.187-4.733-3.627-11.2-4.173-16.84-2.733ZM654.589 108.358c6.96-9.627 17.747-16.813 29.947-16.827.053 10.36 0 20.72.013 31.094-7.64.08-16.026-.867-22.786 3.493-5.934 3.72-6.987 11.44-7.16 17.853-.04 14.667.026 29.334-.014 44-9.773.014-19.56.014-29.333.014-.027-31.814.053-63.64-.04-95.454 9.786.174 19.587.027 29.373.094.12 5.24.12 10.493 0 15.733ZM778.962 93.025c13.307-3.134 27.867-1.654 39.894 5 10.773 6.053 18.48 16.853 21.52 28.76 2.68 11.933 1.92 24.853-3.28 36.026-5.347 11.614-15.934 20.494-28.2 23.987-18.934 5.773-42.16 1.64-55.08-14.2-9.76-11.533-12.307-27.573-9.974-42.16 2.774-18.027 17.12-33.707 35.12-37.413Zm7.627 24.426c-7.293 2.054-12.2 8.907-13.32 16.2-1.28 8.36-.68 18.067 5.387 24.574 5.346 5.986 14.706 7.506 21.826 3.933 6.494-3.027 10.76-9.773 11.44-16.827.907-8.12-.026-17.44-6.253-23.386-4.853-5.027-12.52-6.307-19.08-4.494ZM331.589 92.665c9.706-.08 19.413.106 29.12-.12 0 17.12-.214 34.24-.134 51.373.027 4.573.814 9.293 3.307 13.213 6.387 9.734 22.853 10.04 29.6.56 3.2-4.32 3.84-9.88 3.787-15.093-.08-16.667-.147-33.32-.2-49.973 9.773.067 19.546 0 29.32.04.08 31.773.013 63.56.026 95.346-9.773.014-19.56.014-29.333.014-.067-4.174-.12-8.347-.107-12.52-5.8 6.666-13.666 11.96-22.6 13-11.706 1.786-24.693-1.494-32.786-10.494-7.427-8.04-10.04-19.306-10.014-30-.04-18.453-.04-36.906.014-55.346ZM698.335 92.718h29.307c.026 31.747.013 63.493.013 95.24h-29.333c0-31.747-.014-63.493.013-95.24Z"/></svg>