<svg xmlns="http://www.w3.org/2000/svg" fill="none" viewBox="0 0 843 235"><path fill="#2A8DE1" d="M7.167 41.092C43.407 27.332 79.994 14.425 116.18.505c36.587 13.546 73.267 26.853 109.774 40.6-36.587 13.4-73.12 26.947-109.68 40.427A24933.143 24933.143 0 0 0 7.167 41.092ZM15.833 57.985c5.76 2.08 11.44 4.413 17.227 6.44.08 8.547.013 17.08.066 25.627-5.76-.027-11.533.08-17.293.066V57.985ZM79.78 82.852c11.28 4.293 22.64 8.373 33.894 12.693 1.386.4 2.866 1.387 4.346.747 11.52-4.214 22.947-8.68 34.534-12.694 4.146 13.534 8.746 26.907 13.08 40.387-11.934 36.84-23.92 73.68-35.947 110.493-9.107.094-18.2-.24-27.307-.106-11.986-36.8-24-73.6-36.026-110.4 4.546-13.68 8.906-27.427 13.426-41.12ZM16.3 100.212c5.587-.067 11.187.04 16.787.066 5.186 10.654 10.213 21.387 15.413 32.04-8.107 16.387-15.333 33.267-24.027 49.334C16.687 165.145 8.66 148.758.887 132.238 6.1 121.598 11.18 110.892 16.3 100.212Z"/><path fill="#fff" d="M707.194 52.251c6.453-1.946 14.426-1.106 19.146 4.147 5.48 5.147 5.96 14.573 1.054 20.267-7.454 9.48-25.107 7.906-29.934-3.467-3.813-8.12 1.214-18.467 9.734-20.947ZM225.501 68.025c30.973.88 61.946-.147 92.92-.054 0 7.907-.054 15.8.04 23.707-10.627-.093-21.254-.027-31.88-.04-.014 32.107 0 64.213 0 96.307-9.787.013-19.56.013-29.334.013-.013-32.12-.013-64.24-.013-96.36-10.587.067-21.173.013-31.773.04-.014-7.88-.014-15.747.04-23.613ZM452.394 69.331c9.787.04 19.573 0 29.36.027-.013 7.733.013 15.48-.013 23.227 6.386.04 12.773.04 19.16 0-.04 8.2-.054 16.4.013 24.613-6.387.027-12.773 0-19.16.013 0 12.92-.187 25.84.067 38.76-.2 3.067 1.76 6.2 4.866 6.84 4.76.747 9.6.267 14.4.24-.08 8.307-.026 16.614-.04 24.92-12.586-.173-26.6 1.467-37.493-6.2-7.893-5.36-10.613-15.293-10.84-24.346-.373-13.4-.213-26.814-.293-40.227-3.88.013-7.76.013-11.627.013.04-8.213.027-16.413 0-24.613 3.88.04 7.76.013 11.64-.027-.04-7.746 0-15.493-.04-23.24ZM547.434 93.011c13.627-3.186 28.573-1.546 40.747 5.547 10.586 6.36 18.106 17.293 20.826 29.28 2.507 12.24 1.44 25.48-4.36 36.667-5.48 10.76-15.573 18.853-27.12 22.213-18.986 5.88-42.346 1.787-55.32-14.133-10.04-11.867-12.44-28.48-9.746-43.414 3.24-17.533 17.373-32.56 34.973-36.16Zm7.68 24.414c-7.16 1.986-12.147 8.586-13.333 15.746-1.587 9.067-.72 19.974 6.653 26.4 7.213 6.56 19.4 5.72 25.947-1.373 5.52-5.347 6.666-13.52 6.12-20.853-.334-6.547-3.04-13.32-8.547-17.187-4.733-3.627-11.2-4.173-16.84-2.733ZM655.061 108.358c6.96-9.627 17.746-16.813 29.946-16.827.054 10.36.001 20.72.014 31.094-7.64.08-16.027-.867-22.787 3.493-5.933 3.72-6.986 11.44-7.16 17.853-.04 14.667.027 29.334-.013 44-9.773.014-19.56.014-29.333.014-.027-31.814.053-63.64-.04-95.454 9.786.174 19.586.027 29.373.094.12 5.24.12 10.493 0 15.733ZM779.434 93.025c13.307-3.134 27.867-1.654 39.894 5 10.773 6.053 18.479 16.853 21.519 28.76 2.68 11.933 1.92 24.853-3.28 36.026-5.346 11.614-15.933 20.494-28.2 23.987-18.933 5.773-42.16 1.64-55.08-14.2-9.76-11.533-12.306-27.573-9.973-42.16 2.773-18.027 17.12-33.707 35.12-37.413Zm7.627 24.426c-7.294 2.054-12.2 8.907-13.32 16.2-1.28 8.36-.68 18.067 5.386 24.574 5.347 5.986 14.707 7.506 21.827 3.933 6.493-3.027 10.76-9.773 11.44-16.827.907-8.12-.027-17.44-6.253-23.386-4.854-5.027-12.52-6.307-19.08-4.494ZM332.06 92.665c9.707-.08 19.414.106 29.12-.12 0 17.12-.213 34.24-.133 51.373.027 4.573.813 9.293 3.307 13.213 6.386 9.734 22.853 10.04 29.6.56 3.2-4.32 3.84-9.88 3.786-15.093-.08-16.667-.146-33.32-.2-49.973 9.774.067 19.547 0 29.32.04.08 31.773.014 63.56.027 95.346-9.773.014-19.56.014-29.333.014-.067-4.174-.12-8.347-.107-12.52-5.8 6.666-13.667 11.96-22.6 13-11.707 1.786-24.693-1.494-32.787-10.494-7.426-8.04-10.04-19.306-10.013-30-.04-18.453-.04-36.906.013-55.346ZM698.808 92.718h29.306c.027 31.747.014 63.493.014 95.24h-29.334c0-31.747-.013-63.493.014-95.24Z"/></svg>