<svg xmlns="http://www.w3.org/2000/svg" fill="none" viewBox="0 0 842 234"><path fill="#2A8DE1" d="M6.28 40.587C42.52 26.827 79.107 13.92 115.293 0c36.587 13.547 73.267 26.853 109.774 40.6-36.587 13.4-73.12 26.947-109.68 40.427A24935.026 24935.026 0 0 0 6.28 40.587ZM14.947 57.48c5.76 2.08 11.44 4.413 17.226 6.44.08 8.547.014 17.08.067 25.627-5.76-.027-11.533.08-17.293.066V57.48ZM78.893 82.347c11.28 4.293 22.64 8.373 33.894 12.693 1.386.4 2.866 1.387 4.346.747 11.52-4.214 22.947-8.68 34.534-12.694 4.146 13.534 8.746 26.907 13.08 40.387-11.934 36.84-23.92 73.68-35.947 110.493-9.107.094-18.2-.24-27.307-.106-11.986-36.8-24-73.6-36.026-110.4 4.546-13.68 8.906-27.427 13.426-41.12ZM15.413 99.707c5.587-.067 11.187.04 16.787.066 5.187 10.654 10.213 21.387 15.413 32.04-8.106 16.387-15.333 33.267-24.026 49.334C15.8 164.64 7.773 148.253 0 131.733c5.213-10.64 10.293-21.346 15.413-32.026Z"/><path fill="#404040" d="M706.307 51.746c6.453-1.946 14.427-1.106 19.147 4.147 5.48 5.147 5.96 14.573 1.053 20.267-7.453 9.48-25.107 7.907-29.933-3.467-3.814-8.12 1.213-18.466 9.733-20.947ZM224.614 67.52c30.973.88 61.946-.147 92.92-.053 0 7.906-.054 15.8.04 23.706-10.627-.093-21.254-.026-31.88-.04-.014 32.107 0 64.214 0 96.307-9.787.013-19.56.013-29.334.013-.013-32.12-.013-64.24-.013-96.36-10.587.067-21.173.013-31.773.04-.014-7.88-.014-15.746.04-23.613ZM451.507 68.827c9.787.04 19.574 0 29.36.026-.013 7.734.014 15.48-.013 23.227 6.387.04 12.773.04 19.16 0-.04 8.2-.053 16.4.013 24.613-6.386.027-12.773 0-19.16.014 0 12.92-.186 25.84.067 38.76-.2 3.066 1.76 6.2 4.867 6.84 4.76.746 9.6.266 14.4.24-.08 8.306-.027 16.613-.04 24.92-12.587-.174-26.6 1.466-37.494-6.2-7.893-5.36-10.613-15.294-10.84-24.347-.373-13.4-.213-26.813-.293-40.227-3.88.014-7.76.014-11.627.014.04-8.214.027-16.414 0-24.614 3.88.04 7.76.014 11.64-.026-.04-7.747 0-15.494-.04-23.24ZM546.547 92.507c13.627-3.187 28.574-1.547 40.747 5.546 10.587 6.36 18.107 17.294 20.827 29.28 2.506 12.24 1.44 25.48-4.36 36.667-5.48 10.76-15.574 18.853-27.12 22.213-18.987 5.88-42.347 1.787-55.32-14.133-10.04-11.867-12.44-28.48-9.747-43.413 3.24-17.534 17.373-32.56 34.973-36.16Zm7.68 24.413c-7.16 1.987-12.146 8.587-13.333 15.747-1.587 9.066-.72 19.973 6.653 26.4 7.214 6.56 19.4 5.72 25.947-1.374 5.52-5.346 6.667-13.52 6.12-20.853-.333-6.547-3.04-13.32-8.547-17.187-4.733-3.626-11.2-4.173-16.84-2.733ZM654.174 107.853c6.96-9.627 17.746-16.813 29.946-16.827.054 10.36 0 20.72.014 31.094-7.64.08-16.027-.867-22.787 3.493-5.933 3.72-6.987 11.44-7.16 17.853-.04 14.667.027 29.334-.013 44-9.774.014-19.56.014-29.334.014-.026-31.814.054-63.64-.04-95.454 9.787.174 19.587.027 29.374.094.12 5.24.12 10.493 0 15.733ZM778.547 92.52c13.307-3.134 27.867-1.654 39.894 5 10.773 6.053 18.48 16.853 21.52 28.76 2.68 11.933 1.92 24.853-3.28 36.026-5.347 11.614-15.934 20.494-28.2 23.987-18.934 5.773-42.16 1.64-55.08-14.2-9.76-11.533-12.307-27.573-9.974-42.16 2.774-18.027 17.12-33.707 35.12-37.413Zm7.627 24.426c-7.293 2.054-12.2 8.907-13.32 16.2-1.28 8.36-.68 18.067 5.387 24.574 5.346 5.986 14.706 7.506 21.826 3.933 6.494-3.027 10.76-9.773 11.44-16.827.907-8.12-.026-17.44-6.253-23.386-4.853-5.027-12.52-6.307-19.08-4.494ZM331.174 92.16c9.706-.08 19.413.107 29.12-.12 0 17.12-.214 34.24-.134 51.373.027 4.574.814 9.294 3.307 13.214 6.387 9.733 22.853 10.04 29.6.56 3.2-4.32 3.84-9.88 3.787-15.094-.08-16.666-.147-33.32-.2-49.973 9.773.067 19.546 0 29.32.04.08 31.773.013 63.56.026 95.347-9.773.013-19.56.013-29.333.013-.067-4.173-.12-8.347-.107-12.52-5.8 6.667-13.666 11.96-22.6 13-11.706 1.787-24.693-1.493-32.786-10.493-7.427-8.04-10.04-19.307-10.014-30-.04-18.454-.04-36.907.014-55.347ZM697.92 92.213h29.307c.027 31.747.013 63.494.013 95.24h-29.333c0-31.746-.013-63.493.013-95.24Z"/></svg>