<svg width="843" height="235" viewBox="0 0 843 235" fill="none" xmlns="http://www.w3.org/2000/svg">
<path d="M6.99414 41.073C43.2341 27.313 79.8208 14.4063 116.007 0.486328C152.594 14.033 189.274 27.3397 225.781 41.0863C189.194 54.4863 152.661 68.033 116.101 81.513C79.7541 67.953 43.3941 54.4597 6.99414 41.073Z" fill="#2A8DE1"/>
<path d="M15.6602 57.9663C21.4202 60.0463 27.1002 62.3796 32.8868 64.4063C32.9668 72.953 32.9002 81.4863 32.9535 90.033C27.1935 90.0063 21.4202 90.113 15.6602 90.0996C15.6602 79.3796 15.6602 68.673 15.6602 57.9663Z" fill="#2A8DE1"/>
<path d="M79.6073 82.833C90.8873 87.1263 102.247 91.2063 113.501 95.5263C114.887 95.9263 116.367 96.913 117.847 96.273C129.367 92.0597 140.794 87.593 152.381 83.5797C156.527 97.113 161.127 110.486 165.461 123.966C153.527 160.806 141.541 197.646 129.514 234.46C120.407 234.553 111.314 234.22 102.207 234.353C90.2207 197.553 78.2073 160.753 66.1807 123.953C70.7273 110.273 75.0873 96.5263 79.6073 82.833Z" fill="#2A8DE1"/>
<path d="M16.1272 100.193C21.7139 100.126 27.3139 100.233 32.9139 100.26C38.1005 110.913 43.1272 121.646 48.3272 132.3C40.2205 148.686 32.9939 165.566 24.3005 181.633C16.5139 165.126 8.4872 148.74 0.713867 132.22C5.9272 121.58 11.0072 110.873 16.1272 100.193Z" fill="#2A8DE1"/>
<path d="M707.021 52.2329C713.474 50.2862 721.448 51.1262 726.168 56.3795C731.648 61.5262 732.128 70.9529 727.221 76.6462C719.768 86.1262 702.114 84.5529 697.288 73.1795C693.474 65.0595 698.501 54.7129 707.021 52.2329Z" fill="white"/>
<path d="M225.328 68.0062C256.301 68.8862 287.274 67.8595 318.248 67.9529C318.248 75.8595 318.194 83.7529 318.288 91.6595C307.661 91.5662 297.034 91.6329 286.408 91.6195C286.394 123.726 286.408 155.833 286.408 187.926C276.621 187.94 266.848 187.94 257.074 187.94C257.061 155.82 257.061 123.7 257.061 91.5795C246.474 91.6462 235.888 91.5929 225.288 91.6195C225.274 83.7395 225.274 75.8729 225.328 68.0062Z" fill="white"/>
<path d="M452.221 69.313C462.008 69.353 471.794 69.313 481.581 69.3397C481.568 77.073 481.594 84.8197 481.568 92.5663C487.954 92.6063 494.341 92.6063 500.728 92.5663C500.688 100.766 500.674 108.966 500.741 117.18C494.354 117.206 487.968 117.18 481.581 117.193C481.581 130.113 481.394 143.033 481.648 155.953C481.448 159.02 483.408 162.153 486.514 162.793C491.274 163.54 496.114 163.06 500.914 163.033C500.834 171.34 500.888 179.646 500.874 187.953C488.288 187.78 474.274 189.42 463.381 181.753C455.488 176.393 452.768 166.46 452.541 157.406C452.168 144.006 452.328 130.593 452.248 117.18C448.368 117.193 444.488 117.193 440.621 117.193C440.661 108.98 440.648 100.78 440.621 92.5797C444.501 92.6197 448.381 92.593 452.261 92.553C452.221 84.8063 452.261 77.0597 452.221 69.313Z" fill="white"/>
<path d="M547.261 92.9928C560.888 89.8062 575.835 91.4462 588.008 98.5395C598.595 104.9 606.115 115.833 608.835 127.82C611.341 140.06 610.275 153.3 604.475 164.486C598.995 175.246 588.901 183.34 577.355 186.7C558.368 192.58 535.008 188.486 522.035 172.566C511.995 160.7 509.595 144.086 512.288 129.153C515.528 111.62 529.661 96.5928 547.261 92.9928ZM554.941 117.406C547.781 119.393 542.795 125.993 541.608 133.153C540.021 142.22 540.888 153.126 548.261 159.553C555.475 166.113 567.661 165.273 574.208 158.18C579.728 152.833 580.875 144.66 580.328 137.326C579.995 130.78 577.288 124.006 571.781 120.14C567.048 116.513 560.581 115.966 554.941 117.406Z" fill="white"/>
<path d="M654.888 108.34C661.848 98.7129 672.635 91.5263 684.835 91.5129C684.888 101.873 684.835 112.233 684.848 122.606C677.208 122.686 668.821 121.74 662.061 126.1C656.128 129.82 655.075 137.54 654.901 143.953C654.861 158.62 654.928 173.286 654.888 187.953C645.115 187.966 635.328 187.966 625.555 187.966C625.528 156.153 625.608 124.326 625.515 92.5129C635.301 92.6863 645.101 92.5396 654.888 92.6063C655.008 97.8463 655.008 103.1 654.888 108.34Z" fill="white"/>
<path d="M779.261 93.0062C792.568 89.8729 807.128 91.3529 819.155 98.0062C829.928 104.06 837.635 114.86 840.675 126.766C843.355 138.7 842.595 151.62 837.395 162.793C832.048 174.406 821.461 183.286 809.195 186.78C790.261 192.553 767.035 188.42 754.115 172.58C744.355 161.046 741.808 145.006 744.141 130.42C746.915 112.393 761.261 96.7129 779.261 93.0062ZM786.888 117.433C779.595 119.486 774.688 126.34 773.568 133.633C772.288 141.993 772.888 151.7 778.955 158.206C784.301 164.193 793.661 165.713 800.781 162.14C807.275 159.113 811.541 152.366 812.221 145.313C813.128 137.193 812.195 127.873 805.968 121.926C801.115 116.9 793.448 115.62 786.888 117.433Z" fill="white"/>
<path d="M331.888 92.6461C341.594 92.5661 351.301 92.7528 361.008 92.5261C361.008 109.646 360.794 126.766 360.874 143.899C360.901 148.473 361.688 153.193 364.181 157.113C370.568 166.846 387.034 167.153 393.781 157.673C396.981 153.353 397.621 147.793 397.568 142.579C397.488 125.913 397.421 109.259 397.368 92.6061C407.141 92.6728 416.914 92.6061 426.688 92.6461C426.768 124.419 426.701 156.206 426.714 187.993C416.941 188.006 407.154 188.006 397.381 188.006C397.314 183.833 397.261 179.659 397.274 175.486C391.474 182.153 383.608 187.446 374.674 188.486C362.968 190.273 349.981 186.993 341.888 177.993C334.461 169.953 331.848 158.686 331.874 147.993C331.834 129.539 331.834 111.086 331.888 92.6461Z" fill="white"/>
<path d="M698.634 92.6995C708.394 92.6995 718.167 92.6995 727.941 92.6995C727.967 124.446 727.954 156.193 727.954 187.939C718.167 187.939 708.394 187.939 698.621 187.939C698.621 156.193 698.607 124.446 698.634 92.6995Z" fill="white"/>
</svg>
