<svg width="842" height="235" viewBox="0 0 842 235" fill="none" xmlns="http://www.w3.org/2000/svg">
<path d="M6.52246 41.073C42.7625 27.313 79.3491 14.4063 115.536 0.486328C152.122 14.033 188.802 27.3397 225.309 41.0863C188.722 54.4863 152.189 68.033 115.629 81.513C79.2825 67.953 42.9225 54.4597 6.52246 41.073Z" fill="#2A8DE1"/>
<path d="M15.1885 57.9663C20.9485 60.0463 26.6285 62.3796 32.4151 64.4063C32.4951 72.953 32.4285 81.4863 32.4818 90.033C26.7218 90.0063 20.9485 90.113 15.1885 90.0996C15.1885 79.3796 15.1885 68.673 15.1885 57.9663Z" fill="#2A8DE1"/>
<path d="M79.1357 82.833C90.4157 87.1263 101.776 91.2063 113.029 95.5263C114.416 95.9263 115.896 96.913 117.376 96.273C128.896 92.0597 140.322 87.593 151.909 83.5797C156.056 97.113 160.656 110.486 164.989 123.966C153.056 160.806 141.069 197.646 129.042 234.46C119.936 234.553 110.842 234.22 101.736 234.353C89.749 197.553 77.7357 160.753 65.709 123.953C70.2557 110.273 74.6157 96.5263 79.1357 82.833Z" fill="#2A8DE1"/>
<path d="M15.6555 100.193C21.2422 100.126 26.8422 100.233 32.4422 100.26C37.6289 110.913 42.6555 121.646 47.8555 132.3C39.7489 148.686 32.5222 165.566 23.8289 181.633C16.0422 165.126 8.01552 148.74 0.242188 132.22C5.45552 121.58 10.5355 110.873 15.6555 100.193Z" fill="#2A8DE1"/>
<path d="M706.549 52.2329C713.003 50.2862 720.976 51.1262 725.696 56.3795C731.176 61.5262 731.656 70.9529 726.749 76.6462C719.296 86.1262 701.643 84.5529 696.816 73.1795C693.003 65.0595 698.029 54.7129 706.549 52.2329Z" fill="black"/>
<path d="M224.856 68.0062C255.829 68.8862 286.803 67.8595 317.776 67.9529C317.776 75.8595 317.723 83.7529 317.816 91.6595C307.189 91.5662 296.563 91.6329 285.936 91.6195C285.923 123.726 285.936 155.833 285.936 187.926C276.149 187.94 266.376 187.94 256.603 187.94C256.589 155.82 256.589 123.7 256.589 91.5795C246.003 91.6462 235.416 91.5929 224.816 91.6195C224.803 83.7395 224.803 75.8729 224.856 68.0062Z" fill="black"/>
<path d="M451.749 69.313C461.536 69.353 471.323 69.313 481.109 69.3397C481.096 77.073 481.123 84.8197 481.096 92.5663C487.483 92.6063 493.869 92.6063 500.256 92.5663C500.216 100.766 500.203 108.966 500.269 117.18C493.883 117.206 487.496 117.18 481.109 117.193C481.109 130.113 480.923 143.033 481.176 155.953C480.976 159.02 482.936 162.153 486.043 162.793C490.803 163.54 495.643 163.06 500.443 163.033C500.363 171.34 500.416 179.646 500.403 187.953C487.816 187.78 473.803 189.42 462.909 181.753C455.016 176.393 452.296 166.46 452.069 157.406C451.696 144.006 451.856 130.593 451.776 117.18C447.896 117.193 444.016 117.193 440.149 117.193C440.189 108.98 440.176 100.78 440.149 92.5797C444.029 92.6197 447.909 92.593 451.789 92.553C451.749 84.8063 451.789 77.0597 451.749 69.313Z" fill="black"/>
<path d="M546.79 92.9928C560.416 89.8062 575.363 91.4462 587.536 98.5395C598.123 104.9 605.643 115.833 608.363 127.82C610.87 140.06 609.803 153.3 604.003 164.486C598.523 175.246 588.43 183.34 576.883 186.7C557.896 192.58 534.536 188.486 521.563 172.566C511.523 160.7 509.123 144.086 511.816 129.153C515.056 111.62 529.19 96.5928 546.79 92.9928ZM554.47 117.406C547.31 119.393 542.323 125.993 541.136 133.153C539.55 142.22 540.416 153.126 547.79 159.553C555.003 166.113 567.19 165.273 573.736 158.18C579.256 152.833 580.403 144.66 579.856 137.326C579.523 130.78 576.816 124.006 571.31 120.14C566.576 116.513 560.11 115.966 554.47 117.406Z" fill="black"/>
<path d="M654.416 108.34C661.376 98.7129 672.163 91.5263 684.363 91.5129C684.416 101.873 684.363 112.233 684.376 122.606C676.736 122.686 668.35 121.74 661.59 126.1C655.656 129.82 654.603 137.54 654.43 143.953C654.39 158.62 654.456 173.286 654.416 187.953C644.643 187.966 634.856 187.966 625.083 187.966C625.056 156.153 625.136 124.326 625.043 92.5129C634.83 92.6863 644.63 92.5396 654.416 92.6063C654.536 97.8463 654.536 103.1 654.416 108.34Z" fill="black"/>
<path d="M778.79 93.0062C792.096 89.8729 806.656 91.3529 818.683 98.0062C829.456 104.06 837.163 114.86 840.203 126.766C842.883 138.7 842.123 151.62 836.923 162.793C831.576 174.406 820.99 183.286 808.723 186.78C789.79 192.553 766.563 188.42 753.643 172.58C743.883 161.046 741.336 145.006 743.67 130.42C746.443 112.393 760.79 96.7129 778.79 93.0062ZM786.416 117.433C779.123 119.486 774.216 126.34 773.096 133.633C771.816 141.993 772.416 151.7 778.483 158.206C783.83 164.193 793.19 165.713 800.31 162.14C806.803 159.113 811.07 152.366 811.75 145.313C812.656 137.193 811.723 127.873 805.496 121.926C800.643 116.9 792.976 115.62 786.416 117.433Z" fill="black"/>
<path d="M331.416 92.6461C341.123 92.5661 350.829 92.7528 360.536 92.5261C360.536 109.646 360.323 126.766 360.403 143.899C360.429 148.473 361.216 153.193 363.709 157.113C370.096 166.846 386.563 167.153 393.309 157.673C396.509 153.353 397.149 147.793 397.096 142.579C397.016 125.913 396.949 109.259 396.896 92.6061C406.669 92.6728 416.443 92.6061 426.216 92.6461C426.296 124.419 426.229 156.206 426.243 187.993C416.469 188.006 406.683 188.006 396.909 188.006C396.843 183.833 396.789 179.659 396.803 175.486C391.003 182.153 383.136 187.446 374.203 188.486C362.496 190.273 349.509 186.993 341.416 177.993C333.989 169.953 331.376 158.686 331.403 147.993C331.363 129.539 331.363 111.086 331.416 92.6461Z" fill="black"/>
<path d="M698.163 92.6995C707.923 92.6995 717.696 92.6995 727.47 92.6995C727.496 124.446 727.483 156.193 727.483 187.939C717.696 187.939 707.923 187.939 698.15 187.939C698.15 156.193 698.136 124.446 698.163 92.6995Z" fill="black"/>
</svg>
