<svg xmlns="http://www.w3.org/2000/svg" fill="none" viewBox="0 0 335 79"><g fill="#fff" clip-path="url(#a)"><path d="M20.44.833h294.066c10.16.32 19.293 8.974 19.64 19.227v39.387c-.547 9.626-8.813 18.053-18.44 18.72H20.266C9.919 78.007 1.253 68.78.813 58.62V20.673C1.185 10.3 10.039 1.247 20.439.833Zm-3.414 4.174C9.999 6.82 4.546 13.54 4.439 20.82c-.053 12.453-.027 24.907-.013 37.36-.027 8.68 7.72 16.547 16.426 16.52 95.534.053 191.067-.013 286.614.027 4.293-.12 8.84.546 12.867-1.294 6-2.52 10.4-8.68 10.36-15.253 0-12.44.026-24.88-.014-37.32.027-8.72-7.853-16.427-16.533-16.4-97.334-.053-194.667 0-292-.027a18.41 18.41 0 0 0-5.12.574Z"/><path d="M20.212 14.993c1.827-.853 3.987-.293 5.947-.44 10.68.347 21.373.027 32.066-.013 2.12.2 5-.453 6.067 1.987.2 2.453-1.413 4.533-2.533 6.573-6.987 10.96-14.56 21.547-21.28 32.667 5.64.226 12.346.546 16.626-3.854 2.2-1.986 4.12-5.853 7.707-4.56 2.213 2.6.107 6.24-.2 9.214-1.133 3.293-1.493 9.373-6.387 8.56-12.946-.16-25.893-.214-38.826.013-1.947.293-4.6-.48-4.267-2.96-.013-2.547 1.813-4.587 3.04-6.667C25.425 45.1 32.905 34.847 40.12 24.393c-3.24-2.026-7.214-.946-10.627-.013-3.893 1.08-5.547 5.16-8.733 7.213-2.374 1.16-4.52-1.92-3.774-4.053.694-4.227 1.227-8.72 3.227-12.547ZM68.879 15.273c4.333-1.226 8.853-.6 13.28-.626 10.12.266 20.24-.24 30.347 0 1.666 5.546.84 11.493.56 17.186-1.08-.066-3.227-.213-4.307-.28-1.507-2.36-1.893-5.64-4.52-7.133-3.933-2.107-8.613-2.08-12.893-1.227-.36 3.24-1.427 6.854.12 9.934 4.72 3.32 5.24-7.667 10.373-3.774 1.973 6.347.253 13.32.933 19.907-1.76.533-4.48 1.587-5.613-.547-1.253-2.813-1.987-6.64-5.8-6.786.28 3.96.173 7.946.547 11.893 1.68 3.907 7.08 2.293 10.306 1.68 4.427-.947 6.347-5.267 8.84-8.52 1.934-2 5.174.64 4.4 3.04-.466 4.507-.466 9.067-1.186 13.533-.867 2.214-3.667 1.374-5.454 1.587-12.053-.32-24.106-.04-36.16-.04-4.44 1.133-5.173-6.013-1.32-6.987 3.267-1.2 2.027-5.226 2.4-7.88-.24-9.346.68-18.786-.653-28.066-3.533-.614-4.707-3.587-4.2-6.894ZM119.346 15.22c6.173-1.427 12.56-.067 18.813-.613 2.653.2 5.813-.8 8.093.92 1.707 2.626-.573 5.093-2.893 6.173-2.64.773-2.027 3.693-2.147 5.8.214 8.573-.333 17.173.294 25.72.68 4.08 6.013 2.76 8.92 2.573 4.613-.56 6.506-5.106 8.986-8.36 1.28-1.92 4.427-2.106 5.534.08.56 4.827-.68 9.64-.974 14.454.067 1.84-1.093 3.56-3.173 3.133a1968.915 1968.915 0 0 0-38.68-.013c-3.227.426-2.973-3.44-2.827-5.56 1.8-1.334 4.494-2.56 3.974-5.294.093-9.786.026-19.586-.014-29.386.32-2.654-2.68-3.494-3.96-5.28l.054-4.347ZM168.613 20.42c-.427-2.427-.533-6.213 2.947-5.827 8.08.467 16.293-.72 24.293.627-.107 1.067-.307 3.213-.413 4.28-1.427 2.04-5.28 2.28-5.027 5.36-.04 9.213-.28 18.453.147 27.653.186 4.707 6.026 3.64 9.2 3.254 5.026-.627 6.48-5.92 9.56-9.027 1.56-1.787 5.32-.56 4.893 1.96-.307 5.267-.32 10.68-1.72 15.787-1.933 1.04-4.213.52-6.307.64-11.12-.254-22.24-.16-33.36.013-1.96.227-4.92-.347-4.453-3.027-.88-3.68 4.747-4.266 4.16-7.906.16-9.814.053-19.627-.04-29.427.227-2.387-2.107-3.52-3.88-4.36ZM218.626 14.727c7.826-.48 15.68.186 23.506-.014 6.094.107 12.214-.573 18.28.12 2.094 5.214.707 11.334.72 16.88-1.133.014-3.413.027-4.546.027-.894-2.693-1.76-5.787-4.36-7.333-3.92-2.107-8.6-2.08-12.867-1.187-.307 3.36-1.733 7.467.56 10.4 4.56 1.707 4.347-6.573 8.893-4.693 2.547.346 1.627 3.546 1.907 5.293.013 5.027-.12 10.053.08 15.093-1.76.467-4.48 1.52-5.573-.6-1.147-2.853-2.134-6.066-5.374-7.146-.466 4.066-.306 8.186.08 12.253 1.76 3.867 7.067 2.32 10.294 1.68 4.16-.907 6.28-4.72 8.413-7.987 1.8-2.906 5.8-.266 4.92 2.654-.64 4.693-.12 9.746-1.76 14.213-2.28 1.4-5.187.507-7.72.733-10.64-.266-21.28-.066-31.92.027-2 .213-3.84-.44-5.507-1.467-.373-3.426 1.734-5.373 4.52-6.826 1.04-4.8.4-9.787.587-14.654-.2-6.666.52-13.426-.667-20.026-3.653-.227-6.173-5.667-2.466-7.44ZM267.666 18.233c-.2-1.613.586-3.786 2.546-3.626 8.867-.04 17.747.226 26.627-.067 6.373-.32 13.573 2.107 16.4 8.28 3.427 6.533.307 15.227-6.587 17.947 4.054 4.213 7.52 8.946 11.4 13.32 1.467 1.88 4.414 1.973 5.6 4.08.08 3.186-1.96 6.306-5.24 6.826-4.533.187-9.08-.04-13.626.08-2.04.414-3-1.733-3.774-3.16-3.053-6.053-5.373-12.48-8.893-18.293-2.413-.72-2.173 2.253-2.453 3.8-.174 3.88-.427 9.493 4.28 10.747 3.173.84 1.946 4.56 1.88 6.893-8.614-.093-17.24.053-25.84-.067-2.587-.44-2.227-3.306-2.374-5.253 2.174-1.733 4.027-3.973 3.987-6.92.773-9.307.4-18.693.347-28.013.44-3.347-4.814-3.307-4.28-6.574Zm22.613 5.28c-.973 4.094-1.547 8.987 1.067 12.6 2.613-1.053 5.453-2.68 5.52-5.893.773-3.427-2.774-9.12-6.587-6.707Z"/></g><defs><clipPath id="a"><path fill="#fff" d="M.813.833h333.333v77.333H.812z"/></clipPath></defs></svg>