<svg xmlns="http://www.w3.org/2000/svg" width="1024" height="1024"><svg xmlns="http://www.w3.org/2000/svg" width="1024" height="1024" fill="none" viewBox="0 0 1024 1024"><path fill="#FF3030" d="M155.905 277.666v209.976h-21.027v-98.229H21.028v98.229H0V277.666h21.028v94.324h113.85v-94.324h21.027ZM319.534 437.777l-47.763-130.973-47.763 130.973-18.324 49.865h-22.229l76.601-207.273h23.731l76.3 207.273h-22.229l-18.324-49.865ZM408.855 470.52h75.399v17.122h-96.427V277.666h21.028V470.52ZM529.283 470.52h75.399v17.122h-96.427V277.666h21.028V470.52ZM649.711 277.666v209.976h-21.028V277.666h21.028ZM849.629 487.642h-21.028L712.348 311.01v176.632h-21.027V277.666h21.027l116.253 176.332V277.666h21.028v209.976ZM993.66 490.045c-9.012 0-16.422-2.603-22.229-7.81-5.608-5.407-8.411-12.016-8.411-19.826 0-8.011 2.803-14.72 8.411-20.127 5.807-5.407 13.217-8.11 22.229-8.11 8.81 0 16.02 2.703 21.63 8.11 5.81 5.407 8.71 12.116 8.71 20.127 0 7.81-2.9 14.419-8.71 19.826-5.61 5.207-12.82 7.81-21.63 7.81ZM247.379 533.555v211.779h-58.878V628.48l-39.952 116.854H99.284L59.03 627.579v117.755H.153V533.555h71.194l53.17 137.582 51.968-137.582h70.894ZM333.764 580.718v34.545h67.589v44.759h-67.589v38.15h76.601v47.162H274.886V533.555h135.479v47.163h-76.601ZM517.261 533.555c22.229 0 41.655 4.506 58.277 13.518 16.822 8.812 29.739 21.228 38.751 37.249 9.011 16.021 13.517 34.346 13.517 54.973 0 20.427-4.606 38.651-13.818 54.672-9.012 16.021-21.929 28.637-38.751 37.85-16.622 9.011-35.947 13.517-57.976 13.517H433.45V533.555h83.811Zm-4.506 159.811c17.223 0 30.74-4.706 40.553-14.119 9.813-9.412 14.72-22.73 14.72-39.952 0-17.423-4.907-30.841-14.72-40.253-9.813-9.613-23.33-14.419-40.553-14.419h-20.427v108.743h20.427ZM707.216 533.555v211.779h-58.877V533.555h58.877ZM859.485 697.477l-65.87 28.037-11.415 19.82h-61.881l77.202-211.779h67.889l76.901 211.779h-62.182l-20.644-47.857Zm-7.363-47.857-20.957-52.381-26.9 78.15 47.857-25.769Z"/></svg><style>@media (prefers-color-scheme:light){:root{filter:none}}@media (prefers-color-scheme:dark){:root{filter:none}}</style></svg>