<svg xmlns="http://www.w3.org/2000/svg" version="1.1" xmlns:xlink="http://www.w3.org/1999/xlink" xmlns:svgjs="http://svgjs.dev/svgjs" width="1024" height="1024"><svg width="1024" height="1024" viewBox="0 0 1024 1024" fill="none" xmlns="http://www.w3.org/2000/svg">
<path d="M155.905 277.666V487.642H134.878V389.413H21.0277V487.642H0V277.666H21.0277V371.99H134.878V277.666H155.905Z" fill="#FF3030"></path>
<path d="M319.534 437.777L271.771 306.804L224.008 437.777L205.684 487.642H183.455L260.056 280.369H283.787L360.087 487.642H337.858L319.534 437.777Z" fill="#FF3030"></path>
<path d="M408.855 470.52H484.254V487.642H387.827V277.666H408.855V470.52Z" fill="#FF3030"></path>
<path d="M529.283 470.52H604.682V487.642H508.255V277.666H529.283V470.52Z" fill="#FF3030"></path>
<path d="M649.711 277.666V487.642H628.683V277.666H649.711Z" fill="#FF3030"></path>
<path d="M849.629 487.642H828.601L712.348 311.01V487.642H691.321V277.666H712.348L828.601 453.998V277.666H849.629V487.642Z" fill="#FF3030"></path>
<path d="M993.66 490.045C984.648 490.045 977.238 487.442 971.431 482.235C965.823 476.828 963.02 470.219 963.02 462.409C963.02 454.398 965.823 447.689 971.431 442.282C977.238 436.875 984.648 434.172 993.66 434.172C1002.47 434.172 1009.68 436.875 1015.29 442.282C1021.1 447.689 1024 454.398 1024 462.409C1024 470.219 1021.1 476.828 1015.29 482.235C1009.68 487.442 1002.47 490.045 993.66 490.045Z" fill="#FF3030"></path>
<path d="M247.379 533.555V745.334H188.501V628.48L148.549 745.334H99.2838L59.0308 627.579V745.334H0.153238V533.555H71.347L124.517 671.137L176.485 533.555H247.379Z" fill="#FF3030"></path>
<path d="M333.764 580.718V615.263H401.353V660.022H333.764V698.172H410.365V745.334H274.886V533.555H410.365V580.718H333.764Z" fill="#FF3030"></path>
<path d="M517.261 533.555C539.49 533.555 558.916 538.061 575.538 547.073C592.36 555.885 605.277 568.301 614.289 584.322C623.3 600.343 627.806 618.668 627.806 639.295C627.806 659.722 623.2 677.946 613.988 693.967C604.976 709.988 592.059 722.604 575.237 731.817C558.615 740.828 539.29 745.334 517.261 745.334H433.45V533.555H517.261ZM512.755 693.366C529.978 693.366 543.495 688.66 553.308 679.247C563.121 669.835 568.028 656.517 568.028 639.295C568.028 621.872 563.121 608.454 553.308 599.042C543.495 589.429 529.978 584.623 512.755 584.623H492.328V693.366H512.755Z" fill="#FF3030"></path>
<path d="M707.216 533.555V745.334H648.339V533.555H707.216Z" fill="#FF3030"></path>
<path d="M859.485 697.477L793.615 725.514L782.2 745.334H720.319L797.521 533.555H865.41L942.311 745.334H880.129L859.485 697.477ZM852.122 649.62L831.165 597.239L804.265 675.389L852.122 649.62Z" fill="#FF3030"></path>
</svg><style>@media (prefers-color-scheme: light) { :root { filter: none; } }
@media (prefers-color-scheme: dark) { :root { filter: none; } }
</style></svg>