<?xml version="1.0" standalone="no"?>
<!DOCTYPE svg PUBLIC "-//W3C//DTD SVG 20010904//EN"
 "http://www.w3.org/TR/2001/REC-SVG-20010904/DTD/svg10.dtd">
<svg version="1.0" xmlns="http://www.w3.org/2000/svg"
 width="512.000000pt" height="512.000000pt" viewBox="0 0 512.000000 512.000000"
 preserveAspectRatio="xMidYMid meet">
<metadata>
Created by potrace 1.14, written by Peter Selinger 2001-2017
</metadata>
<g transform="translate(0.000000,512.000000) scale(0.100000,-0.100000)"
fill="#000000" stroke="none">
<path d="M4 3721 c-2 -2 -4 -239 -4 -527 l0 -522 48 3 c26 1 49 3 52 4 3 0 6
107 5 237 0 151 3 238 10 243 5 4 134 7 285 7 l275 -1 0 -245 0 -245 53 -1 52
0 -2 525 -3 525 -40 1 c-22 1 -45 0 -50 -2 -7 -2 -10 -84 -10 -229 0 -124 -2
-229 -5 -233 -3 -5 -131 -8 -285 -7 l-280 1 -1 225 c-1 124 -2 230 -3 235 -1
9 -88 15 -97 6z"/>
<path d="M1942 3200 l3 -525 238 -1 237 -1 0 43 0 44 -187 2 -188 3 0 478 c0
262 -2 478 -5 478 -3 1 -26 2 -53 3 l-47 1 2 -525z"/>
<path d="M2557 3722 c-16 -3 -17 -34 -15 -525 l3 -522 230 -1 c127 -1 235 1
240 5 6 3 11 22 10 41 l0 35 -190 5 -189 5 0 478 c0 262 -2 477 -5 478 -24 3
-69 4 -84 1z"/>
<path d="M3159 3723 c-13 -3 -15 -61 -13 -521 1 -284 2 -520 3 -523 0 -4 24
-6 51 -6 l50 0 -2 525 -3 526 -35 1 c-19 0 -42 -1 -51 -2z"/>
<path d="M3458 3710 c-2 -8 -3 -244 -3 -525 l1 -510 52 -1 c50 -2 52 0 53 25
0 14 0 212 0 439 0 226 1 412 3 412 1 0 18 -24 36 -52 19 -29 38 -54 42 -56 4
-2 8 -8 8 -12 0 -5 44 -76 98 -157 54 -81 166 -250 248 -375 l149 -227 50 2
50 2 0 525 0 524 -51 1 -51 0 0 -428 c-1 -236 -3 -430 -6 -433 -2 -3 -76 103
-163 236 -88 132 -216 327 -286 433 l-127 192 -50 0 c-37 0 -51 -4 -53 -15z"/>
<path d="M1290 3685 c-6 -15 -10 -31 -10 -36 0 -5 -5 -17 -10 -27 -10 -16
-350 -935 -350 -944 0 -10 100 -5 108 6 5 6 81 208 168 448 88 240 162 434
165 430 4 -4 70 -180 147 -392 77 -212 150 -410 161 -440 l21 -56 56 -1 c47 0
54 2 49 16 -4 9 -17 45 -30 81 -13 36 -60 164 -105 285 -45 121 -88 238 -96
260 -7 22 -43 119 -78 215 l-64 175 -61 3 c-58 3 -62 2 -71 -23z"/>
<path d="M4890 2922 c-66 -33 -91 -114 -57 -183 25 -52 75 -78 143 -75 79 2
129 45 141 120 18 112 -116 194 -227 138z"/>
<path d="M5 2440 c-2 -4 -4 -242 -4 -531 l1 -524 141 0 c105 0 143 3 147 13 3
7 5 134 5 282 0 149 2 270 5 270 3 0 48 -127 100 -282 l96 -283 104 1 c58 1
114 2 125 3 17 1 34 42 115 280 52 154 97 278 99 276 2 -3 4 -128 4 -279 0
-194 3 -276 11 -278 6 -2 72 -3 146 -3 l135 0 2 510 c1 281 0 519 -2 530 -4
20 -12 20 -176 20 -142 0 -173 -3 -181 -15 -10 -18 -207 -537 -213 -562 -2 -9
-9 -26 -15 -38 -6 -12 -13 -31 -15 -42 -7 -37 -12 -31 -45 54 -18 46 -48 124
-67 173 -19 50 -46 119 -60 155 -14 36 -36 94 -50 130 -14 36 -32 79 -39 97
-8 17 -14 35 -14 40 0 9 -349 12 -355 3z"/>
<path d="M1382 2435 c-8 -12 -10 -1044 -2 -1046 16 -3 647 -4 658 -1 9 3 12
36 12 118 l0 114 -132 1 c-73 0 -159 0 -190 -1 l-58 -1 0 95 0 96 53 1 c28 0
104 0 167 -1 l116 -1 -1 113 0 113 -155 1 c-85 1 -161 2 -167 3 -9 1 -13 25
-13 86 l0 85 190 0 190 0 0 118 0 117 -331 0 c-215 0 -333 -3 -337 -10z"/>
<path d="M2169 2400 c-1 -41 0 -981 1 -1005 0 -15 493 -11 561 5 261 62 417
270 405 541 -2 52 -12 119 -21 149 -37 122 -131 233 -247 291 -104 53 -167 62
-445 63 l-253 2 -1 -46z m504 -227 c63 -18 128 -83 150 -146 20 -58 16 -187
-6 -237 -50 -110 -149 -151 -334 -141 l-22 1 -1 271 0 270 83 -2 c45 -1 104
-8 130 -16z"/>
<path d="M3244 2441 c-2 -2 -4 -239 -4 -527 0 -409 3 -523 13 -526 10 -3 197
-3 263 1 20 1 20 1 19 524 -1 287 -3 524 -4 527 -1 6 -281 7 -287 1z"/>
<path d="M3991 2440 c-6 -4 -186 -490 -357 -965 l-32 -90 147 2 c80 0 151 2
156 2 6 1 22 22 37 49 26 47 29 48 188 116 89 38 165 65 169 60 4 -5 25 -49
45 -99 60 -142 40 -130 209 -129 81 0 149 2 151 5 4 4 -356 1010 -373 1039 -6
12 -37 15 -170 15 -89 0 -166 -2 -170 -5z m194 -387 c15 -38 38 -96 51 -130
l24 -63 -33 -14 c-17 -9 -70 -36 -116 -61 -47 -25 -86 -45 -87 -45 -1 0 18 57
43 128 24 70 54 155 65 190 12 34 22 62 23 62 2 0 15 -30 30 -67z"/>
</g>
</svg>
