<svg width="221" height="24" viewBox="0 0 221 24" fill="none" xmlns="http://www.w3.org/2000/svg">
<path d="M17.4698 0.201996V23.7307H15.1136V12.7237H2.35624V23.7307H0V0.201996H2.35624V10.7714H15.1136V0.201996H17.4698Z" fill="#FAFAF9"/>
<path d="M35.8051 18.1431L30.4531 3.46707L25.1011 18.1431L23.0478 23.7307H20.5569L29.1403 0.504941H31.7995L40.3493 23.7307H37.8584L35.8051 18.1431Z" fill="#FAFAF9"/>
<path d="M45.8139 21.8121H54.2627V23.7307H43.4577V0.201996H45.8139V21.8121Z" fill="#FAFAF9"/>
<path d="M59.3084 21.8121H67.7572V23.7307H56.9521V0.201996H59.3084V21.8121Z" fill="#FAFAF9"/>
<path d="M72.8029 0.201996V23.7307H70.4466V0.201996H72.8029Z" fill="#FAFAF9"/>
<path d="M95.2045 23.7307H92.8483L79.8216 3.93832V23.7307H77.4654V0.201996H79.8216L92.8483 19.9608V0.201996H95.2045V23.7307Z" fill="#FAFAF9"/>
<path d="M126.763 0V23.7307H120.165V10.6367L115.689 23.7307H110.168L105.658 10.5358V23.7307H99.0602V0H107.038L112.996 15.4165L118.819 0H126.763Z" fill="#FAFAF9"/>
<path d="M136.443 5.28471V9.15568H144.016V14.1711H136.443V18.446H145.026V23.7307H129.845V0H145.026V5.28471H136.443Z" fill="#FAFAF9"/>
<path d="M157.004 0C159.495 0 161.672 0.504909 163.534 1.51473C165.419 2.5021 166.867 3.89341 167.877 5.68864C168.886 7.48387 169.391 9.53717 169.391 11.8485C169.391 14.1374 168.875 16.1795 167.843 17.9748C166.833 19.77 165.386 21.1837 163.501 22.216C161.638 23.2258 159.473 23.7307 157.004 23.7307H147.613V0H157.004ZM156.499 17.9074C158.429 17.9074 159.944 17.3801 161.044 16.3254C162.143 15.2707 162.693 13.7784 162.693 11.8485C162.693 9.89621 162.143 8.39271 161.044 7.33801C159.944 6.26087 158.429 5.7223 156.499 5.7223H154.21V17.9074H156.499Z" fill="#FAFAF9"/>
<path d="M178.29 0V23.7307H171.692V0H178.29Z" fill="#FAFAF9"/>
<path d="M195.561 18.2097L187.971 21.5098L186.692 23.7307H179.758L188.409 0H196.016L204.633 23.7307H197.665L195.561 18.2097ZM194.486 12.593L192.178 7.13604L188.71 15.8931L194.486 12.593Z" fill="#FAFAF9"/>
<path d="M217.569 24C216.559 24 215.728 23.7083 215.078 23.1248C214.449 22.5189 214.135 21.7784 214.135 20.9032C214.135 20.0056 214.449 19.2539 215.078 18.648C215.728 18.0421 216.559 17.7391 217.569 17.7391C218.556 17.7391 219.364 18.0421 219.992 18.648C220.643 19.2539 220.968 20.0056 220.968 20.9032C220.968 21.7784 220.643 22.5189 219.992 23.1248C219.364 23.7083 218.556 24 217.569 24Z" fill="#FAFAF9"/>
</svg>
