<svg xmlns="http://www.w3.org/2000/svg" fill="none" viewBox="0 0 256 256"><path fill="#1F893C" d="M0 0h256v256H0z"/><mask id="a" width="129" height="176" x="64" y="40" maskUnits="userSpaceOnUse" style="mask-type:luminance"><path fill="#fff" d="M64.354 40.763h128.415v174.414H64.354V40.763Z"/></mask><g fill="#fff" mask="url(#a)"><path d="M93.54 40.763h5.946c10.653 1.744 20.023 10.1 21.767 20.945 2.711 13.24-6.897 27.463-20.309 29.572-14.474 3.234-29.694-8.753-30.043-23.546-1.157-13.24 9.624-25.45 22.64-26.971Zm29.821 0h8.783c12.493 2.077 24.24 9.656 29.853 21.23 5.945 11.005 3.963 23.848 4.264 35.82.175 12.446-5.802 24.877-16.028 32.075-7.657 5.851-17.423 7.754-26.888 7.548.127-10.544-.095-21.104-.444-31.648.793-21.66.318-43.35.46-65.025Zm43.614 97.624c5.897.095 11.89-.65 17.692.634 4.566 1.253 6.897 5.724 8.102 9.942v16.395c-1.174 4.249-3.583 8.721-8.149 9.989-5.787 1.285-11.764.492-17.645.619a4903.425 4903.425 0 0 1 0-37.579ZM64.37 137.452c18.945-19.281 38.318-38.134 57.533-57.145-.032 19.075.031 38.165 0 57.24-19.167.38-38.366.539-57.533-.095Zm-.016 1.03c25.92.809 51.841-.174 77.762.016-11.208 11.242-22.338 22.547-33.483 33.821-1.728 1.585-3.488 3.726-6.119 3.409-12.715.127-25.445-.032-38.16.032v-37.278Zm42.377 37.357c11.938-12.748 24.62-24.783 36.828-37.261a1749.87 1749.87 0 0 1 22.449 0c-.016 12.526-.016 25.068 0 37.594-19.754-.333-39.524-.127-59.277-.333Zm.967.919c12.381-.031 24.779-.063 37.161.032.063 12.796.031 25.591.031 38.387h-38.809c.348-12.811.983-25.623 1.617-38.419Z"/></g></svg>