<svg xmlns="http://www.w3.org/2000/svg" fill="none" viewBox="0 0 256 256"><path fill="#fff" d="M0 0h256v256H0z"/><g clip-path="url(#a)"><path fill="#19202A" d="M183.915 65.467c2.328-1.312 5.18-1.606 7.714-.73 4.773 1.594 8.808 5.98 9.223 11.1.277 2.697-1.006 5.234-2.651 7.276-3.284 4.034-7.634 6.965-11.669 10.168-5.66 4.72-11.309 9.455-16.946 14.203 2.383 4.072 4.371 8.429 5.424 13.041l-.655-.364c-1.069-2.227-1.149-5.049-3.133-6.735-1.044-2.046-2.076-4.101-3.305-6.047 1.187-1.325 2.848-2.277 3.716-3.849-.499-1.862-1.141-4.076-3.079-4.906-2.235-3.028-4.723-5.967-7.94-7.997-1.254-.784-2.726-1.46-4.241-1.161-.314-.122-.943-.374-1.262-.5 6.002-5.153 12.265-10 18.112-15.334 3.347-2.978 6.719-6.03 10.692-8.165Z"/><path fill="#182029" d="M52.412 74.563c1.305-5.955 7.29-10.932 13.498-10.24 3.264.62 5.977 2.713 8.561 4.68 2.886 2.268 5.57 4.776 8.297 7.224 4.903 4.185 9.907 8.248 14.84 12.4-2.617-.164-5.23.734-7.068 2.638l.554.306c-2.743 2.205-5.096 4.88-7.013 7.828-.793 1.267-1.569 2.6-1.867 4.085.638 1.094 1.842 1.723 2.698 2.641.247.437.465.885.692 1.334-1.64 2.562-2.954 5.309-4.149 8.097-.516.516-1.078 1.027-1.275 1.757-.83 2.495-1.54 5.049-1.972 7.645-.163.683.05 1.35.248 2 .784-.499 1.573-1.137 2.554-1.116.99-.016 1.783.634 2.542 1.175 1.246-1.766 3.188-3.25 5.445-3.183 2.219.025 3.825 1.819 5.264 3.287.063.072.197.218.264.29.558-1.648 1.518-3.183 3.142-3.955 1.023.281 1.938.818 2.756 1.489 1.342-1.589 3.196-2.977 5.377-2.919 1.997-.096 3.377 1.523 4.853 2.596-1.401-4.365-3.8-8.349-6.606-11.951-.524.608-1.053 1.212-1.561 1.833-.121-.843.005-1.686.277-2.487 5.323-6.089 13.049-10.005 21.103-10.722 8.49-.826 17.223 1.996 23.691 7.531 1.325-1.086 3.062-1.962 4.819-1.459 1.686.566 3.087 1.895 3.779 3.535 1.208-1.309 2.702-2.575 4.56-2.701 1.854-.155 3.465 1.128 4.559 2.491 1.489 2.248.764 5.111-.084 7.46-1.891 4.969-4.039 9.85-6.488 14.576.041.226.121.687.159.918 1.388-2.428 2.873-4.797 4.14-7.292.839-1.64 2.881-2.705 4.677-2.021 1.95.872 3.691 2.52 4.06 4.704.73-1.341 1.594-2.696 3.066-3.308.16.042.478.13.638.176-.268-1.459-.516-2.948-.26-4.428.507 1.296.688 2.679.914 4.043 1.456.318 2.555 1.32 3.675 2.239 1.702-.973 3.884-.86 5.26.641 2.894-.423 5.729 1.828 6.35 4.609 2.643-.978 5.436.39 6.758 2.755 1.182-1.43 2.617-2.906 4.58-3.082 2.101-.349 3.918 1.002 5.419 2.289 1.443 1.233 2.378 2.927 3.083 4.667.374-1.325 1.162-2.952 2.768-2.943 1.792-.265 2.937 1.346 4.17 2.327 1.342-.625 2.902-.906 4.324-.361 2.24.965 4.183 2.789 4.971 5.133.814 2.13.659 4.482.118 6.659 1.388.696 2.881 1.694 3.191 3.333.428 1.854-.939 3.468-1.757 5.007-1.607 2.529-3.762 5.351-7.001 5.611-3.15.1-5.511-2.848-5.776-5.795-.675 1.534-2.126 2.88-3.909 2.717-1.506.084-2.68-.977-3.716-1.912-2.45.373-4.79-.994-6.116-2.99-2.584 1.245-5.549-.201-6.854-2.587-1.04.62-2.223 1.233-3.473.951-2.055-.44-3.515-2.289-3.976-4.268-.587-2.009-.453-4.122-.386-6.185-1.535 2.369-3.741 4.151-5.898 5.916-1.807 3.934-3.489 8.081-6.501 11.293 3.859 3.493 7.705 7.003 11.556 10.504 1.581 1.371 3.213 2.822 5.268 3.422 2.773.943 6.061 1.434 7.915 3.95 1.368 1.845 1.108 4.352.038 6.269-1.552 2.885-4.174 5.577-7.554 6.034-2.723.289-5.025-1.702-6.267-3.942-1.267-1.878-1.644-4.315-3.389-5.866-2.198-2.042-4.744-3.665-7.097-5.514-4.094-3.2-8.192-6.395-12.24-9.653-8.196 8.965-19.735 14.819-31.845 15.985-15.524 1.702-31.627-4.554-42.012-16.199-4.257 3.371-8.51 6.739-12.794 10.068-2.365 1.845-4.924 3.459-7.084 5.552-1.296 1.216-1.699 3.019-2.542 4.529-1.032 2.05-2.525 4.164-4.845 4.83-1.761.579-3.67.005-5.188-.943-2.261-1.451-3.985-3.665-4.967-6.156.302-.482.6-.964.898-1.442.75 3.061 3.339 5.618 6.384 6.415 2.961.738 5.608-1.853 6.414-4.491.146-2.671-1.963-4.625-3.188-6.78 1.581 1.178 2.99 3.245 5.21 2.969.704-.357 1.3-.889 1.912-1.38 5.965-5.17 12.374-9.796 18.535-14.727-.104-.121-.306-.369-.406-.491.512-.041 1.028-.079 1.544-.117 6.685 7.93 15.947 13.679 26.073 15.989 7.34 1.753 15.07 1.627 22.419-.025.814.252 1.67.281 2.475-.021 1.976-.642 4.006-1.212 5.847-2.189l.306-.734a50.775 50.775 0 0 0 19.245-15.636c-1.8-2.009-2.387-4.852-1.665-7.439.52-3.422 3.196-5.972 6.162-7.477-.307-.335-.609-.671-.911-1.002-.352.457-.675.948-1.078 1.367-1.359.49-2.634 1.237-4.047 1.568-1.368.059-2.731-.293-4.099-.096-.637-.365-1.216-.822-1.795-1.267-1.17.78-2.571.998-3.871 1.435l-.39.49c-.265-.197-.797-.587-1.062-.784-1.166-.667-2.282-1.447-2.994-2.612-1.62 1.463-3.805 2.281-5.995 1.853 1.54 2.134 3.033 4.331 4.958 6.147.337.308.678.61 1.024.906-4.715 5.091-11.107 8.634-17.965 9.762-6.879 1.195-14.157.113-20.344-3.137-5.499-2.893-10.13-7.401-13.154-12.827-1.677 1.233-4.01 1.124-5.603-.193-1.39 1.212-3.251 2.126-5.13 1.623-1.746-.36-2.84-1.912-3.553-3.422-.1.898-.24 1.808-.609 2.646-1.296.608-2.36 1.581-3.3 2.642a12.238 12.238 0 0 1-2.622-.407c-1.162.52-2.35 1.095-3.65 1.128-1.132.047-2.151-.511-3.162-.935-1.628 2.097-4.862 2.751-6.946.944-1.116 1.815-3.163 3.291-5.39 2.621-2.747-.915-3.746-4.131-3.792-6.752a9.432 9.432 0 0 1-1.917 1.69c-1.078 4.517-4.195 8.63-8.603 10.303-2.307.964-5.138 1.103-7.223-.461-1.162 1.987-2.689 3.916-4.857 4.852-1.863.8-4.291.75-5.81-.73-1.891-1.644-2.26-4.416-1.715-6.747.344-1.656.709-3.661 2.307-4.583 1.35-.663 2.53.478 3.506 1.249.21-.969.45-1.929.688-2.889-3.922-.763-6.946-4.327-7.269-8.269-.482-5.69 1.712-11.506 5.625-15.633 3.301-3.35 7.567-5.979 12.257-6.738 5.004-.768 9.924 2.96 11.199 7.72.444 1.379.432 2.843.423 4.281 1.163.52 2.148 1.333 3.05 2.218 1.128-.876 2.303-1.87 3.792-1.983 1.246.033 2.193.876 3.087 1.639.62-1.455 1.263-2.914 2.215-4.185-1.783-1.945-1.678-4.839-.768-7.153.722-1.602 2.706-2.743 4.392-1.858 1.283-1.191 3.351-1.686 4.765-.415 3.032 1.639 3.38 6.118.998 8.47a30.91 30.91 0 0 0 1.779 1.535c.306-8.127 2.751-16.14 6.883-23.134-5.852-4.839-11.64-9.754-17.475-14.606-3.993-3.128-8.242-6.046-11.476-10.005-1.975-2.344-3.175-5.468-2.479-8.541Zm68.48 28.577c-5.289 1.098-10.47 3.442-14.383 7.221 2.194 2.423 3.809 5.3 5.352 8.164.948-3.225 1.586-6.672 3.666-9.41 1.087-1.396 2.651-2.704 4.522-2.637 1.535-.067 2.831.985 3.766 2.092l-.528-.289c1.779 3.342 1.389 7.313.201 10.772-.331 1.124-.977 2.227-.742 3.439l.239-.436c1.896.558 3.544 1.853 4.618 3.501 1.221-1.891 2.966-3.589 5.197-4.172 1.125-.277 2.429-.336 3.419.365.897.704 2.085.692 3.083 1.182 1.728-4.717 4.429-9.016 7.311-13.1-6.988-5.946-16.715-8.525-25.721-6.692Zm-5.465 10.416c-2.094 6.512-3.7 13.234-4.069 20.086-.302 1.354-1.275 2.461-2.022 3.606-1.036 1.287-1.946 2.897-3.599 3.451.835-4.063 2.861-7.845 3.163-12.018.201-1.866-.659-4.092-2.676-4.512-2.026-.201-3.725 1.271-4.74 2.881-1.283.084-1.346 1.811-1.95 2.692-.194-1.426.419-3.287-1.012-4.231l.198.717c-.739-.797-2.085-.616-2.45.449-.541 2.801-.839 5.652-1.4 8.449-1.431 2.684-2.832 5.732-5.508 7.38.486-3.694 2.076-7.141 2.571-10.831.088-1.472.227-3.128-.68-4.394-.57-.868-1.627-1.451-2.676-1.283-1.866.167-3.221 1.74-3.976 3.337-1.305 2.814-2.08 5.833-2.815 8.835-.13-3.023.504-6.029.445-9.057-.071-.654-.75-.956-1.174-1.354-.504.27-.95.635-1.317 1.073l.096-.78c-.172.201-.516.6-.692.801-.634 3.028-.68 6.16-1.363 9.179-.265 1.3-1.397 2.587-.881 3.917-.747 1.312-1.2 3.484-2.995 3.589-.76-2.658.063-5.397.49-8.034.278-1.216-.679-2.202-1.752-2.55-2.45.944-1.737 3.9-2.463 5.904-.738 2.298-1.166 5.045-3.225 6.567-.974-1.124-.755-2.7-.692-4.072.327-2.918.998-5.9 2.58-8.42.41-.515.934-1.279 1.681-1.174.793.449 1.48 1.363 2.504 1.111 1.418-.436 1.774-2.318 1.116-3.488-.935-1.179-2.45-2.093-3.998-1.795-1.417.34-2.474 1.468-3.275 2.621-.19.079-.558.239-.747.314-2.06 2.944-2.089 6.676-3.032 10.018-.164.906-1.037 1.883-.44 2.772-.718 1.572-1.478 3.283-2.97 4.264-.79-1.589-.588-3.409-.315-5.095.117.759.297 1.506.47 2.256.07-2.863.897-5.598 1.984-8.223l-.508.214c.81-1.086.935-2.939-.344-3.723-.944-.223-1.67.473-2.387.956-1.304.96-2.735 1.748-4.27 2.268.046-1.178.37-2.855-.944-3.48-1.195-.122-2.252.646-2.843 1.631l-.793-1.61c1.334-3.313 1.237-7.598-1.452-10.219-2.206-2.298-5.83-2.286-8.628-1.2-4.425 1.673-8.556 4.613-10.952 8.769-1.61 2.868-2.848 6.206-2.277 9.539.36 2.768 2.705 5.342 5.583 5.448.45-.247.862-.559 1.22-.927.214.666.44 1.329.697 1.983l.171-.365c-.045.29-.142.868-.188 1.158l-.45-.764c-.444 2.282-.825 4.592-1.597 6.794-.168.662-.587 1.354-.298 2.05-.42.822-1.183 1.501-2.122 1.631-1.762-.52-1.183-2.742-1.116-4.092-1.506 1.467-1.992 4.285-.566 5.983.981 1.149 2.71.81 3.838.08 1.988-1.266 3.028-3.485 3.938-5.568.013.18.034.536.042.717l.743-1.133c.407.537.838 1.057 1.313 1.543l-.223-.746c.977 1.241 2.592 1.933 4.153 1.497 4.42-.797 7.705-4.78 8.574-9.053.13.168.394.499.524.662.084-.708.15-1.413.218-2.122.331-.075.667-.146 1.002-.218.609-1.308 1.066-2.671 1.535-4.034 1.36.198 2.685-.159 3.893-.763-.105.81-.21 1.619-.293 2.437l-.093-.256-.52-.843c-.189 2.688-.21 5.678 1.28 8.034.6 1.04 1.82 1.074 2.873.889l-.202-.604c1.989-1.811 2.626-4.507 3.679-6.876.155 1.635.067 3.513 1.326 4.771.8.935 2.306.642 3.061-.197 1.234-1.241 1.636-2.989 2.156-4.595.353 1.677.881 3.971 2.903 4.281 2.265.272 3.448-1.975 4.22-3.715-.088.989-.076 2.176.876 2.771 1.07.705 2.45-.264 2.626-1.4.596-3.904 1.707-7.758 3.499-11.288.654-1.309 1.505-2.575 2.768-3.359-.395 3.941-1.376 7.883-1.066 11.863 0 1.66 1.661 3.384 3.352 2.473 2.487-1.417 3.339-4.39 4.572-6.776-.021 1.581-.742 3.133-.478 4.722.167.918.99 1.614 1.912 1.681.869-.23 1.624-.935 1.766-1.841l.457.684c.445-3.439 1.754-6.651 2.953-9.867l-.167-.591c.532-1.074 1.111-2.155 1.963-3.019.134.193.407.578.541.771-.327 2.822-1.124 5.586-1.263 8.433.017.809-.134 1.753.508 2.39.042-.21.121-.625.163-.834.218 1.56 1.678 3.333 3.398 2.465 2.865-1.627 3.985-5.015 5.298-7.845.272 1.472.255 3.019.901 4.403.592 1.476 1.838 2.973 3.562 2.964 2.617.164 4.572-1.933 5.939-3.904 2.047-.436 3.318-2.277 4.53-3.82-.117 2.197-.004 4.705 1.611 6.391 1.334 1.505 3.716 1.543 5.373.574 1.812-.985 2.957-2.775 3.968-4.507 1.506-.135 2.932-.835 3.88-2.026l.6-.386c-.021 2.332.126 4.898 1.548 6.848.859 1.22 2.642 1.166 3.804.419 1.879-1.086 2.747-3.157 3.88-4.897.092 1.857.277 3.899 1.522 5.384 1.016 1.195 2.853.922 4.006.088.995-.579 1.556-1.619 2.404-2.361.008 3.342 4.509 5.183 6.896 2.919 1.56-1.753 2.919-3.682 4.559-5.368-.113 1.64.109 3.56 1.636 4.525 1.715 1.086 3.876.281 5.184-1.065-.583 1.367-.985 2.809-1.551 4.185-1.985 1.253-4.291 1.97-6.175 3.413-1.447.935-2.395 2.428-3.066 3.979l.029-.767-.516.352c-.943 2.6.562 6.043 3.507 6.307l-.457-.462c1.925.345 3.783-.545 4.895-2.109 2.214-2.868 3.733-6.206 5.096-9.544.323-1.027 1.405-1.455 2.152-2.121a17.923 17.923 0 0 0 5.675-7.272c.613.411 1.237.822 1.934 1.095l-.445.285c.373.113 1.116.34 1.485.449-.315 3.157-1.074 6.516.428 9.51l.474-.226c.52.717 1.43 1.568 2.374 1.052 1.896-.947 2.747-2.994 3.897-4.642-.134 2-.248 4.252 1.099 5.905.755 1.031 2.42 1.274 3.334.314.936-.709 1.229-1.887 1.913-2.789 0 2.29.726 5.208 3.226 5.925 1.539.579 2.63-.868 3.469-1.908l-.101 1.368c-.168 1.606 1.892 3.375 3.238 1.975.94-3.317 2.366-6.55 4.442-9.318.696-.994 1.749-1.644 2.903-1.958-.588 3.266-1.678 6.436-2.031 9.749-.142 1.535.013 3.325 1.251 4.403.893.944 2.461.86 3.443.092 2.018-1.463 3.242-3.719 4.392-5.874.285-.453.205-.864-.239-1.225-.919 1.002-1.766 2.084-2.84 2.931-.898.709-1.887 1.606-3.117 1.409.638-2.231 1.666-4.319 2.568-6.449l.012.826c1.502-1.656 1.443-4.03 1.476-6.122.009-.99-.058-2.286-1.094-2.772l.121.7c-.851-1.396-2.256-2.759-4.039-2.491-1.938.227-2.865 2.164-3.725 3.666-1.392-1.384.839-3.431-.717-4.697l-.042.646c-.382-.839-1.711-2.147-2.378-.847l-.55-.193c-.658 2.755-1.539 5.468-1.954 8.273l.478-.423c-1.066 2.151-2.315 4.44-4.446 5.702-.298-.415-.927-.721-.839-1.312-.03-2.214.662-4.353 1.392-6.412.458-1.295-.297-2.796-1.468-3.429-.801-.395-1.715.108-1.887.96-.629 2.553-1.498 5.161-3.234 7.195-.453.55-1.481 1.271-1.854.231-.533-1.879.117-3.887.633-5.72.759-2.084 1.686-4.44 3.834-5.451 1.12.637 1.623 1.883 2.512 2.768.777.105 1.607-.03 1.938-.843.546-1.87-.864-3.518-2.089-4.747-1.178-1.195-3.196-1.602-4.571-.499-2.429 1.916-3.293 5.04-4.115 7.883-1.145 2.248-2.53 4.638-4.904 5.762-.881-1.25-.532-2.839-.251-4.231.461-2.13 1.229-4.327 2.869-5.846 1.375-1.148.658-3.551-.885-4.21l.641-.075-.47-.449c-1.757-.176-3.514.549-5.297.323a27.225 27.225 0 0 0-.231-3.103l-.491.403c-.537-.923-1.606-1.543-2.684-1.359-.755.201-1.137.906-1.586 1.472.005-1.011-.205-2.164-1.208-2.65-1.011-.659-2.093.436-2.286 1.405-.641 2.344-1.237 4.709-1.942 7.036-.621 1.43-1.569 2.86-3.02 3.543a3.973 3.973 0 0 0-1.413-.646c-.055-2.369 1.631-4.252 2.323-6.424l-.612.281c.541-1.023 1.187-1.987 1.762-2.994.738-1.191.251-2.931-.965-3.602-.856-.511-1.9.046-2.328.851a29.756 29.756 0 0 0-3.603 8.077c-.931 1.35-2.055 2.562-3.108 3.816.264-1.783.084-3.577-.269-5.334-.356-1.845.08-3.757 1.061-5.338.915-1.51-.306-3.984-2.189-3.716-1.053.21-1.489 1.262-1.925 2.11-1.573 3.12-3.721 5.912-5.185 9.086-1.111 1.825-2.47 3.812-4.668 4.357-.881-1.903-.424-4.046-.294-6.051.227-1.341.134-2.809.894-4 2.386-4.361 4.391-8.919 6.262-13.519.738-2.051 1.867-4.114 1.657-6.357-.071-1.183-1.519-1.875-2.559-1.476-2.152.683-3.435 2.742-4.488 4.6-3.096 6.109-4.392 12.949-5.029 19.713-1.17 2.448-2.643 5.149-5.243 6.306-.059-2.805.121-5.61-.038-8.412-.638 1.091-.382 2.382-.369 3.577.105 1.514-.076 3.04.1 4.55-.457-.419-.402-1.128-.52-1.69-.121-2.356.181-4.713.466-7.045 2.781-5.761 5.461-11.598 7.454-17.687.331-1.266.876-2.671.335-3.963-.524-1.182-2.118-1.262-3.1-.633-1.946 1.153-3.12 3.2-4.114 5.162l.079-.809c-.91.809-1.191 2.029-1.636 3.111-.448 1.283-1.011 2.554-1.153 3.921.109.126.327.382.436.512-1.057 4.017-1.611 8.143-1.925 12.277-.852 1.003-2.077 1.577-3.272 2.059 1.065-2.943 2.16-6.168 1.359-9.313-.428-1.556-2.022-2.445-3.582-2.197-1.04-1.82-3.402-1.132-4.736-.055-2.613 2.076-3.838 5.36-4.651 8.492-.156.667-.672 1.161-1.133 1.631-.923-1.14.26-2.499.273-3.77.168-2.046.604-4.818-1.456-6.093l.29.764c-.76-.759-1.821-1.456-2.945-1.154-1.678.424-2.756 1.959-3.532 3.401-1.552 2.99-2.026 6.81-.318 9.833.335.663 1.128 1.003 1.35 1.716-.94.754-2.143 1.534-3.397 1.182-1.225-.805-1.053-2.516-1.15-3.795.177-3.002.55-6.097 1.909-8.823 1.174-2.683 2.453-5.317 3.532-8.038l.541.151c1.321-3.25 2.311-6.722 1.782-10.261l-.478.31-.042.382c-.264-1.065-1.203-2.101-2.399-1.757-2.152.767-3.364 2.948-4.127 4.973Zm-44.261 9.041c-.982.952-.881 2.75.281 3.522 1.41.465 2.487-1.258 2.135-2.499-.117-1.094-1.56-1.963-2.416-1.023Zm-3.775.725c-1.456.948-.96 4.244 1.09 3.673 2.06-.746 1.18-4.826-1.09-3.673Zm80.744 11.976c.709-.138 1.02-1.291.76-1.92-.76-.021-.986 1.333-.76 1.92Zm-27.016 10.886c-2.224 1.744-5.575 2.168-7.987.566a35.778 35.778 0 0 1-6.543 9.322c5.503 4.868 12.797 7.698 20.163 7.606 7.269.114 14.437-2.641 19.957-7.338-3.557-3.728-6.56-8.101-8.116-13.045-1.837 2.734-5.096 4.91-8.511 4.243-2.533-.364-4.366-2.461-5.381-4.679-1.38.905-2.194 2.428-3.582 3.325Zm-20.357-1.715c-.104 1.094-.385 2.164-.969 3.103 1.251 2.172 2.622 4.302 4.375 6.105a40.297 40.297 0 0 0 4.95-6.537c-1.275.746-2.685 1.552-4.232 1.22-2.06-.243-3.465-2.059-4.124-3.891Zm66.475 17.759.181.498-.407-.222a46.973 46.973 0 0 1-2.143 2.675c4.739 3.795 9.592 7.444 14.34 11.226 1.938 1.53 3.696 3.3 5.76 4.671 2.269.348 3.661-1.811 5.293-2.969-1.107 1.934-2.84 3.607-3.175 5.904-.256 1.2.528 2.252 1.187 3.171 1.095 1.488 2.911 2.621 4.82 2.272 2.642-.482 4.865-2.411 6.123-4.73.969-1.66.776-3.975-.7-5.283-1.867-1.652-4.425-2.021-6.703-2.81-2.533-.704-4.438-2.612-6.371-4.277-3.662-3.363-7.353-6.701-11.028-10.047-.163.092-.491.285-.654.382l.26-.516c-1.204.26-2.382.729-3.628.755-1.078-.08-2.106-.478-3.155-.7Z"/><path fill="#182029" d="M180.257 144.133a115.374 115.374 0 0 0 3.595-11.783c-.21 2.013.419 4.152 2.118 5.372-.78 2.91-3.263 4.894-5.713 6.411Z"/><path fill="#0F171F" d="M100.288 90.916c8.918-5.694 19.727-8.315 30.264-7.476 7.953.537 15.725 3.111 22.491 7.309.679-.604 1.371-1.195 2.068-1.782.319.125.948.377 1.262.499-.839.608-1.623 1.287-2.407 1.958 5.742 3.77 10.717 8.705 14.492 14.446.826-.772 1.854-1.401 2.445-2.382-.382-1.786-1.413-3.329-2.349-4.864 1.938.83 2.58 3.044 3.079 4.906-.868 1.572-2.529 2.524-3.716 3.849-7.098-11.41-19.144-19.612-32.382-21.981-9.039-1.555-18.565-.755-27.059 2.801-9.387 3.82-17.533 10.643-22.873 19.26-.226-.449-.444-.897-.692-1.333 3.767-5.72 8.662-10.693 14.367-14.493-1.07-.88-2.014-2.306-3.545-2.268-1.753.176-3.246 1.212-4.64 2.206l-.553-.306c1.837-1.904 4.45-2.802 7.068-2.638.88.776 1.783 1.526 2.68 2.29Z"/><path fill="#fff" d="M108.476 88.2c8.494-3.557 18.02-4.358 27.059-2.802 13.238 2.37 25.285 10.572 32.382 21.981 1.229 1.946 2.261 4.001 3.305 6.047a50.468 50.468 0 0 1 3.582 12.303c-1.472.612-2.336 1.967-3.066 3.308-.369-2.184-2.11-3.832-4.06-4.704-1.796-.684-3.838.381-4.677 2.021-1.267 2.495-2.752 4.864-4.14 7.292a75.955 75.955 0 0 0-.159-.918c2.449-4.726 4.597-9.607 6.488-14.576.848-2.349 1.573-5.212.084-7.46-1.094-1.363-2.705-2.646-4.559-2.491-1.858.126-3.352 1.392-4.56 2.701-.692-1.64-2.093-2.969-3.779-3.535-1.757-.503-3.494.373-4.819 1.459-6.468-5.535-15.201-8.357-23.691-7.531-8.054.717-15.78 4.633-21.103 10.722a33.72 33.72 0 0 0-6.627 11.812c-1.036.806-1.95 1.892-1.875 3.292-1.439-1.467-3.045-3.262-5.264-3.287-2.257-.067-4.199 1.417-5.445 3.183-.759-.541-1.552-1.191-2.542-1.175-.981-.021-1.77.617-2.554 1.116.797-3.85 1.54-7.733 2.999-11.402 1.195-2.788 2.508-5.535 4.148-8.097 5.34-8.617 13.486-15.44 22.873-19.26Zm15.063 1.4c.109 2.39.063 4.788.214 7.175.457 1.43 2.151.939 3.271.997-.025-.352-.075-1.048-.096-1.396-.663.08-1.326.138-1.988.185a95.125 95.125 0 0 0-.076-2.676 54.328 54.328 0 0 1 2.026-.037c-.017-.336-.046-1.007-.063-1.342-.654.067-1.308.138-1.963.21.017-.999-.08-1.993-.39-2.944.076-.08.218-.24.294-.315.6.365 1.199.73 2.001.6 0-.336-.005-1.007-.005-1.342-1.124.126-2.516-.239-3.225.885Zm9.223-.587c-.335 3.06-1.036 6.067-1.375 9.128.298.047.889.13 1.187.172.49-2.935.902-5.883 1.497-8.801-.44-.164-.872-.332-1.309-.5Zm-15.36 1.916c.357 2.197.655 4.411 1.141 6.583.528 1.334 2.144.764 3.192.537.99-.482.847-1.677.57-2.558l-1.208.067c.051.323.147.978.194 1.305-.529.088-1.057.176-1.582.268-.373-2.374-.868-4.726-1.183-7.108l.118.726c.526-.085 1.054-.15 1.585-.197l.218 1.199c.319-.063.965-.197 1.288-.264-.226-.633-.185-1.447-.73-1.917-.587-.658-1.526-.184-2.261-.142-.734.05-1.539.696-1.342 1.501Zm17.81 2.931c-.038 1.308 1.519 1.384 2.425 1.728-.239.834-.479 1.665-.714 2.499-.75-.239-1.535-.575-2.281-.122.721-.193.931-.863 1.145-1.492l-1.225-.52c-.206.796-.675 1.664-.184 2.457.771.683 1.874.83 2.864.851.873-.344.994-1.338 1.217-2.126.457-1.794 1.107-3.539 1.463-5.359-.226-1.388-1.992-1.51-3.112-1.594-1.229.747-1.199 2.428-1.598 3.678Zm-23.25-2.47c-.47.088-.936.18-1.405.277 1.048 2.843 1.979 5.724 2.965 8.588.403-.159.805-.323 1.208-.482-.893-2.407-1.656-4.86-2.537-7.272a197.44 197.44 0 0 1 1.707-.595c.813 2.44 1.661 4.877 2.445 7.33.395-.118.791-.234 1.187-.348a981 981 0 0 1-2.198-6.6c-.218-.592-.419-1.334-1.099-1.544-.826-.205-1.569.303-2.273.646Zm29.496 1.405c.801.34 1.606.68 2.416 1.019-1.552 2.118-2.953 4.344-4.534 6.441.302.143.91.432 1.216.574 1.778-2.482 3.452-5.044 5.23-7.53-1.195-.563-2.407-1.07-3.581-1.666-.256.383-.505.77-.747 1.162Zm-34.257.495c1.384 2.675 2.592 5.434 3.955 8.118.282-.142.835-.428 1.112-.57-1.292-2.742-2.634-5.464-3.939-8.202-.377.218-.755.435-1.128.654Zm-4.735 2.813c-.839 1.275.671 2.44 1.216 3.506 1.183.092 2.357.248 3.54.331.357.496.714.991 1.074 1.485-.449.319-.898.637-1.343.96-.213-.339-.427-.679-.637-1.019l-1.078.658c.407.68.809 1.586 1.728 1.627.94-.255 1.808-.838 2.433-1.58.335-1.309-.852-2.257-1.418-3.296-1.157-.118-2.34-.076-3.469-.34-.428-.415-.721-.94-1.073-1.413.427-.319.851-.642 1.279-.96.239.327.474.658.713.985.264-.184.793-.554 1.061-.738-.499-.604-.96-1.606-1.887-1.497-.806.227-1.49.776-2.139 1.291Zm41.181 3.196c.621.532 1.321.968 2.035 1.371a51.952 51.952 0 0 1-1.393 2.214l1.158.717c.39-.675.784-1.346 1.178-2.013.613-.02 1.007-.444 1.33-.914-.096-.159-.289-.47-.386-.625.935-1.35 1.733-2.792 2.689-4.13-.373-.247-.742-.49-1.107-.738-1.825 1.384-4.057 2.29-5.504 4.118Z"/><path fill="#fff" d="M136.437 93.923c.285-.927.6-1.858.713-2.826.507.767 1.556.742 2.29.348-1.204.356-1.04 1.807-1.346 2.772a14.731 14.731 0 0 1-1.657-.294Zm-15.545 9.217c9.006-1.833 18.733.746 25.721 6.692-2.882 4.085-5.583 8.383-7.311 13.1-.998-.49-2.185-.478-3.083-1.182-.99-.701-2.294-.642-3.418-.365-2.232.583-3.977 2.281-5.197 4.172-1.074-1.648-2.723-2.944-4.619-3.501 1.12-2.382 1.812-4.986 2.089-7.603.118-2 .071-4.248-1.258-5.883-.936-1.107-2.232-2.16-3.767-2.092-1.871-.068-3.435 1.241-4.522 2.637-2.08 2.738-2.718 6.185-3.666 9.41-1.543-2.864-3.158-5.741-5.352-8.164 3.914-3.779 9.094-6.122 14.383-7.221Zm.226 43.044c1.389-.897 2.202-2.42 3.583-3.325 1.014 2.218 2.847 4.315 5.381 4.679 3.414.667 6.674-1.509 8.511-4.243 1.556 4.944 4.559 9.317 8.116 13.045-5.52 4.697-12.688 7.452-19.957 7.338-7.366.092-14.66-2.738-20.164-7.606a35.805 35.805 0 0 0 6.544-9.322c2.412 1.602 5.763 1.178 7.986-.566Zm-7.655 21.532c.495.202.994.403 1.493.608a53.829 53.829 0 0 0-.843 2.273c-.516-.13-1.032-.255-1.547-.386.289-.834.591-1.664.897-2.495Z"/><path fill="#000414" d="M123.539 89.6c.709-1.124 2.101-.76 3.225-.885 0 .335.005 1.006.005 1.342-.802.13-1.401-.235-2.001-.6-.076.076-.218.235-.294.315.31.952.407 1.945.39 2.943.655-.071 1.309-.142 1.963-.21.017.336.046 1.007.063 1.343-.675 0-1.351.012-2.026.037.038.89.063 1.782.076 2.676a40.071 40.071 0 0 0 1.988-.185c.021.348.071 1.044.096 1.396-1.12-.058-2.814.432-3.271-.997-.151-2.387-.105-4.785-.214-7.175Zm-6.136 1.329c-.198-.805.608-1.45 1.342-1.501.734-.042 1.673-.516 2.261.142.545.47.503 1.284.729 1.917-.323.067-.968.2-1.287.264l-.218-1.2a22.11 22.11 0 0 0-1.586.198l-.117-.726c.314 2.382.809 4.734 1.182 7.108.525-.092 1.053-.18 1.582-.268-.046-.328-.143-.982-.193-1.305l1.208-.067c.277.881.419 2.076-.571 2.558-1.048.227-2.663.797-3.192-.537-.486-2.171-.784-4.386-1.14-6.583Zm24.055 1.866c.243-.39.49-.78.746-1.162 1.175.596 2.387 1.103 3.582 1.665-1.778 2.487-3.452 5.049-5.23 7.531-.306-.142-.914-.431-1.216-.574 1.581-2.097 2.982-4.323 4.534-6.441-.806-.338-1.612-.678-2.416-1.019ZM96.136 123.83a33.72 33.72 0 0 1 6.627-11.812c-.272.801-.398 1.644-.276 2.487-2.077 2.704-3.616 5.774-4.82 8.952-1.623.772-2.584 2.307-3.142 3.955a16.926 16.926 0 0 1-.264-.29c-.075-1.4.84-2.486 1.875-3.292Zm39.815 4.752c.121-.734.801-1.133 1.321-1.573.784.759.898 1.887.894 2.919-.11 1.891-.604 3.74-1.271 5.505-1.599-1.895-1.502-4.579-.944-6.851Zm.977-.881c-.344 2.042.03 4.122-.331 6.164.507-2.017.18-4.109.331-6.164Zm16.337 20.849c.264.197.797.587 1.062.784a33.349 33.349 0 0 1-4.069 5.51 41.681 41.681 0 0 1-1.024-.906c1.519-1.66 2.84-3.484 4.031-5.388Zm-.897 9.699c1.233-.709 1.703-2.768 3.355-2.537 2.249 1.614 4.128 3.707 6.234 5.506-.298.31-.588.621-.877.935-1.879-1.782-3.813-3.506-5.705-5.271-.386.44-.771.876-1.153 1.317a973.803 973.803 0 0 0 5.713 5.225c-.298.314-.588.633-.881.951-2.194-2.079-4.471-4.071-6.686-6.126Zm-13.309 8.5c.306-.105.927-.319 1.237-.424.684 2.42 1.443 4.823 2.131 7.242.621 1.728-1.997 2.638-3.188 1.9-.73 1.069-2.781 1.903-3.624.587-.864-2.508-1.481-5.099-2.32-7.62.416-.138.835-.272 1.255-.406.679 2.503 1.459 4.981 2.164 7.48.558-.188 1.124-.377 1.686-.561-.784-2.433-1.38-4.927-2.21-7.347a40.62 40.62 0 0 1 1.233-.419c.679 2.49 1.451 4.96 2.126 7.455.583-.167 1.162-.335 1.745-.499-.772-2.457-1.43-4.944-2.235-7.388Zm-18.93 5.472c1.229.18 2.466.298 3.703.432-.025.26-.071.776-.092 1.031-1.187.315-2.513-.306-3.762-.259l.151-1.204Z"/><path fill="#000012" d="M132.763 89.013c.436.167.868.335 1.308.499-.595 2.918-1.006 5.866-1.497 8.801a110.12 110.12 0 0 1-1.187-.172c.339-3.06 1.04-6.067 1.376-9.128Zm-30.297 7.09c.65-.515 1.334-1.064 2.139-1.29.927-.11 1.388.892 1.888 1.496-.269.184-.798.554-1.062.738-.239-.327-.474-.658-.713-.985-.428.318-.851.641-1.279.96.352.474.646.998 1.074 1.413 1.128.264 2.311.222 3.469.34.566 1.04 1.753 1.987 1.417 3.296-.625.742-1.493 1.325-2.433 1.58-.918-.041-1.321-.947-1.728-1.627.269-.163.81-.494 1.078-.658.21.34.424.68.638 1.019.445-.323.893-.641 1.342-.96-.359-.494-.717-.989-1.074-1.485-1.182-.083-2.357-.239-3.54-.33-.545-1.066-2.055-2.232-1.216-3.507Zm83.504 35.933c.55-.122 1.246-.155 1.514.465.046.692-.021 1.388-.063 2.08-.734-.432-1.22-1.132-1.669-1.832l.218-.713Zm-146.871 5.611c.264 1.081.394 2.188.423 3.304.44.084.885.168 1.33.256-.734.259-1.363.725-1.53 1.538.846.03 1.669-.172 2.49-.327 1.939-.402 4.128.759 4.728 2.68.8 2.6-.315 5.413-1.942 7.46.663-2.625 2.751-5.514.986-8.152-1.506-2.147-4.32-1.111-6.494-1.204-.641 3.032-1.06 6.119-1.975 9.092-.634 1.048-.156 2.159.293 3.157l.223.746a16.29 16.29 0 0 1-1.313-1.543l-.743 1.133c-.008-.181-.029-.537-.042-.717 2.035-5.598 2.861-11.536 3.566-17.423Z"/><path fill="#FEFEFE" d="M91.094 91.57c1.392-.993 2.886-2.029 4.639-2.205 1.53-.038 2.475 1.388 3.544 2.269-5.704 3.799-10.6 8.772-14.366 14.492-.856-.919-2.06-1.548-2.697-2.642.298-1.485 1.074-2.818 1.866-4.085 1.918-2.947 4.27-5.623 7.014-7.828Zm62.872-.146c.784-.671 1.568-1.35 2.407-1.958 1.514-.298 2.987.377 4.241 1.161 3.217 2.03 5.704 4.97 7.94 7.997.936 1.535 1.967 3.078 2.349 4.864-.591.981-1.619 1.61-2.445 2.382-3.775-5.741-8.75-10.676-14.492-14.446Zm-8.339 7.548c.604-.39 1.204-.788 1.821-1.162a33.478 33.478 0 0 1-1.133 1.778c-.231-.205-.457-.41-.688-.616Zm-30.2 14.584c.763-2.025 1.975-4.206 4.127-4.973 1.196-.344 2.135.692 2.399 1.757.403 3.25-.621 6.432-1.803 9.418-1.078 2.721-2.358 5.355-3.532 8.039-1.359 2.725-1.732 5.82-1.909 8.822.097 1.279-.075 2.99 1.15 3.795 1.254.352 2.458-.428 3.397-1.182-.222-.713-1.015-1.053-1.35-1.716-1.708-3.023-1.234-6.843.318-9.833.776-1.442 1.855-2.977 3.532-3.401 1.124-.302 2.186.395 2.945 1.154 1.632 3.48.147 7.405-1.158 10.739.713-.508 1.418-1.032 2.051-1.64.462-.47.978-.964 1.133-1.631.814-3.132 2.038-6.416 4.652-8.491 1.333-1.078 3.695-1.766 4.735.054 1.56-.248 3.155.642 3.582 2.197.801 3.145-.293 6.37-1.359 9.314 1.196-.483 2.42-1.057 3.272-2.059.315-4.135.868-8.261 1.925-12.278.567-2.307 1.376-4.542 2.274-6.735.994-1.962 2.168-4.009 4.114-5.162.982-.629 2.576-.549 3.1.634.541 1.291-.004 2.696-.335 3.962-1.993 6.089-4.673 11.926-7.454 17.687-.285 2.332-.587 4.689-.465 7.045.117.562.062 1.271.52 1.69l.306.285c2.6-1.157 4.073-3.858 5.243-6.306.638-6.764 1.934-13.604 5.029-19.713 1.053-1.858 2.336-3.917 4.488-4.6 1.041-.399 2.488.293 2.559 1.476.21 2.243-.919 4.307-1.657 6.357-1.871 4.6-3.876 9.158-6.262 13.519-.76 1.191-.667 2.659-.894 4-.13 2.005-.587 4.148.294 6.051 2.198-.545 3.557-2.532 4.668-4.356 1.464-3.175 3.612-5.967 5.185-9.087.436-.847.872-1.9 1.925-2.11 1.883-.268 3.104 2.206 2.19 3.716-.982 1.581-1.418 3.493-1.062 5.338.353 1.757.533 3.551.269 5.334 1.053-1.254 2.177-2.466 3.108-3.816a29.787 29.787 0 0 1 3.603-8.077c.428-.805 1.472-1.362 2.328-.851 1.217.671 1.703 2.411.965 3.602-.575 1.007-1.221 1.971-1.762 2.994-1.153 1.975-2.223 4.047-2.575 6.336.713.348 1.459.73 2.277.453 1.452-.683 2.4-2.113 3.02-3.543.705-2.327 1.301-4.692 1.942-7.036.193-.969 1.276-2.063 2.286-1.405 1.003.486 1.213 1.639 1.208 2.65.449-.566.831-1.27 1.586-1.472 1.078-.184 2.148.436 2.684 1.359.11 1.048.076 2.101-.037 3.149 1.967.277 3.934.025 5.885-.248 1.543.659 2.261 3.062.885 4.211-1.64 1.518-2.408 3.715-2.869 5.845-.281 1.392-.63 2.982.251 4.231 2.374-1.124 3.759-3.514 4.904-5.762.822-2.843 1.686-5.966 4.115-7.883 1.375-1.103 3.393-.696 4.572.499 1.225 1.229 2.634 2.877 2.088 4.747-.331.813-1.161.948-1.937.843-.89-.885-1.393-2.13-2.513-2.768-2.147 1.011-3.075 3.367-3.834 5.452-.516 1.832-1.166 3.84-.633 5.719.373 1.04 1.401.319 1.854-.231 1.736-2.033 2.605-4.642 3.234-7.195.172-.852 1.086-1.355 1.887-.96 1.171.633 1.926 2.134 1.469 3.429-.73 2.06-1.422 4.198-1.393 6.412-.088.591.541.897.839 1.313 2.131-1.263 3.381-3.552 4.446-5.703.822-2.508 1.242-5.137 2.026-7.657.667-1.3 1.997.008 2.378.847-.167 3.069-1.078 6.046-1.296 9.112.596-1.724 1.162-3.464 2.055-5.061.861-1.502 1.787-3.439 3.725-3.665 1.783-.269 3.188 1.094 4.039 2.49.839 2.42.424 5.045-.515 7.368-.902 2.13-1.93 4.218-2.567 6.449 1.229.197 2.219-.7 3.116-1.409 1.074-.847 1.921-1.929 2.84-2.931.444.361.524.772.239 1.225-1.149 2.155-2.374 4.411-4.392 5.875-.981.767-2.55.851-3.443-.093-1.238-1.077-1.393-2.868-1.25-4.403.352-3.312 1.442-6.483 2.03-9.749-1.154.315-2.206.964-2.903 1.958-2.076 2.768-3.502 6.001-4.442 9.318-1.346 1.4-3.406-.369-3.238-1.975l.101-1.367c-.839 1.04-1.93 2.486-3.469 1.908-2.5-.717-3.226-3.636-3.226-5.926-.683.902-.977 2.08-1.913 2.789-.914.96-2.579.717-3.334-.314-1.347-1.653-1.233-3.905-1.099-5.905-1.15 1.648-2.001 3.695-3.897 4.642-.944.516-1.854-.335-2.374-1.052-1.237-3.095-.763-6.584-.008-9.737-.646-.092-1.292-.185-1.934-.281-.696-.272-1.321-.683-1.934-1.095a17.923 17.923 0 0 1-5.675 7.272c-.747.666-1.829 1.094-2.152 2.122-1.363 3.337-2.882 6.675-5.096 9.544-1.112 1.564-2.97 2.453-4.895 2.109-.843-.508-1.762-1.023-2.211-1.946-.629-1.048-.411-2.327-.352-3.485.671-1.551 1.619-3.044 3.066-3.979 1.884-1.442 4.19-2.159 6.175-3.413.566-1.376.969-2.818 1.551-4.185-1.308 1.346-3.468 2.151-5.184 1.065-1.527-.965-1.749-2.885-1.636-4.525-1.64 1.686-2.999 3.615-4.559 5.368-2.387 2.264-6.888.423-6.896-2.919-.847.742-1.409 1.782-2.403 2.361-1.154.834-2.991 1.107-4.006-.088-1.246-1.484-1.431-3.527-1.523-5.384-1.132 1.74-2.001 3.812-3.88 4.897-1.162.747-2.944.802-3.804-.419-1.422-1.95-1.569-4.516-1.548-6.848l-.6.386c-.948 1.191-2.374 1.891-3.88 2.026-1.011 1.732-2.156 3.522-3.968 4.507-1.657.969-4.039.931-5.373-.574-1.615-1.686-1.728-4.193-1.611-6.39-1.212 1.542-2.483 3.383-4.53 3.819-1.367 1.971-3.322 4.068-5.939 3.905-1.724.008-2.97-1.489-3.561-2.965-.646-1.384-.629-2.931-.902-4.403-1.313 2.83-2.433 6.218-5.298 7.846-1.72.868-3.179-.906-3.397-2.466-.122-4.059.994-8.001 1.526-11.993-.503.402-1.006.801-1.476 1.233-.852.864-1.431 1.946-1.963 3.019-1.51 3.09-2.672 6.374-3.243 9.774-.142.906-.897 1.611-1.766 1.842-.922-.068-1.745-.764-1.912-1.682-.264-1.589.457-3.141.478-4.722-1.233 2.386-2.085 5.359-4.572 6.776-1.69.911-3.352-.813-3.352-2.473-.31-3.98.672-7.922 1.066-11.863-1.262.784-2.114 2.05-2.768 3.359-1.791 3.53-2.903 7.384-3.499 11.288-.176 1.136-1.556 2.105-2.626 1.4-.951-.595-.964-1.782-.876-2.771-.772 1.74-1.955 3.988-4.22 3.715-2.021-.31-2.55-2.604-2.902-4.281-.52 1.606-.923 3.354-2.157 4.595-.755.839-2.26 1.133-3.061.198-1.259-1.258-1.17-3.137-1.326-4.772-1.053 2.369-1.69 5.065-3.679 6.876-.826.365-1.866.139-2.29-.704-1.078-1.979-1.015-4.327-1.048-6.516.084-.818.188-1.627.293-2.436-1.208.603-2.533.96-3.892.763-.47 1.363-.927 2.725-1.535 4.034l-.613-.239a75.9 75.9 0 0 0 1.309-3.816c-2.379-.78-3.192-3.682-2.051-5.783.591-.985 1.648-1.753 2.843-1.631 1.313.625.99 2.302.944 3.48 1.535-.52 2.966-1.308 4.27-2.268.718-.483 1.443-1.179 2.387-.956 1.28.784 1.154 2.637.344 3.723-1.09 1.732-1.644 3.745-1.946 5.754-.273 1.685-.474 3.505.314 5.094 1.494-.981 2.253-2.692 2.97-4.264.642-1.585 1.401-3.158 1.61-4.877.404-2.856 1.108-5.732 2.61-8.227.801-1.153 1.858-2.281 3.276-2.621 1.548-.298 3.062.616 3.997 1.795.659 1.17.302 3.052-1.116 3.489-1.023.251-1.71-.663-2.504-1.112-.746-.105-1.27.659-1.682 1.174-1.581 2.52-2.252 5.502-2.58 8.42-.062 1.372-.28 2.949.693 4.072 2.06-1.522 2.487-4.268 3.225-6.566.726-2.005.013-4.961 2.462-5.905 1.074.348 2.03 1.334 1.754 2.55-.428 2.637-1.25 5.376-.491 8.034 1.795-.104 2.248-2.277 2.995-3.589.747-1.879 1.699-3.728 1.896-5.77l.944-7.347a4.483 4.483 0 0 1 1.317-1.073c.423.398 1.103.7 1.174 1.354.059 3.028-.575 6.034-.444 9.058.734-3.003 1.51-6.022 2.814-8.836.755-1.597 2.11-3.17 3.976-3.337 1.05-.168 2.106.415 2.677 1.283.906 1.266.767 2.922.68 4.394-.496 3.69-2.086 7.137-2.572 10.831 2.676-1.647 4.077-4.696 5.507-7.38.562-2.797.86-5.648 1.401-8.449.365-1.065 1.712-1.245 2.45-.449.533 3.258-.545 6.567-.58 9.85.907-3.082 1.822-6.189 3.344-9.028 1.015-1.61 2.714-3.082 4.74-2.881 2.017.42 2.877 2.646 2.676 4.512-.302 4.173-2.328 7.955-3.163 12.018 1.653-.553 2.563-2.164 3.599-3.451.747-1.145 1.72-2.252 2.022-3.606.369-6.852 1.976-13.574 4.069-20.086Zm4.01-1.916c-1.468 3.417-1.682 7.175-2.467 10.772 1.116-1.518 1.833-3.279 2.609-4.981.873-2.189 1.741-4.663.835-6.982-.436.293-.797.687-.977 1.191Zm31.119.993c-1.833 3.741-2.911 7.792-3.964 11.805 1.997-2.755 3.28-5.951 4.572-9.079.55-1.283.709-2.675.717-4.059-.692.134-1.023.767-1.325 1.333Zm8.897 2.604c-1.431 3.221-2.438 6.605-3.36 9.997 1.367-1.765 2.332-3.803 3.317-5.799.932-2.315 2.45-4.625 2.081-7.229-1.091.666-1.544 1.924-2.038 3.031Zm-38.787 15.293c-.542 1.871-.617 4.139.906 5.586 1.233-2.701 2.487-6.047 1.111-8.911-1.157.73-1.631 2.084-2.017 3.325Zm15.285-1.949c-.558 2.272-.655 4.956.943 6.852.667-1.766 1.162-3.615 1.271-5.506.004-1.032-.109-2.16-.893-2.919-.52.44-1.2.839-1.321 1.573Zm-6.49 10.147c.009.982.848 1.875 1.863 1.774 1.816-.012 3.133-1.451 4.266-2.692-2.487-1.417-3.952-4.294-3.88-7.124-1.506 2.369-2.441 5.216-2.249 8.042Zm30.86 0c-.21 1.342-.076 3.083 1.258 3.808.998.402 2.387.184 2.89-.872.759-1.569.285-3.372-.176-4.957-.617-1.656-.776-3.422-.638-5.174-1.514 2.189-2.604 4.642-3.334 7.195Zm25.649-6.692-.218.713c.449.7.936 1.4 1.669 1.832.043-.692.11-1.388.063-2.08-.268-.62-.964-.587-1.514-.465Zm-5.713 12.097c2.45-1.517 4.933-3.501 5.713-6.411-1.699-1.22-2.328-3.359-2.118-5.372a115.374 115.374 0 0 1-3.595 11.783Zm-128.6-7.053c.52.529 1.082 1.271 1.9 1.221.143-.86.135-1.757-.373-2.495-.625.268-1.103.754-1.527 1.274Zm117.409 17.663c-.562.956.844 1.677 1.561 1.098 1.787-1.468 2.562-3.749 3.649-5.72-1.967 1.2-4.258 2.395-5.21 4.622Z"/><path fill="#FEFEFE" d="M102.486 114.504c.508-.621 1.036-1.225 1.561-1.833 2.806 3.602 5.205 7.586 6.606 11.951-1.476-1.073-2.856-2.692-4.853-2.596-2.181-.058-4.035 1.33-5.377 2.919-.818-.671-1.733-1.208-2.756-1.489 1.204-3.178 2.743-6.248 4.819-8.952Zm-62.834 8.848c2.798-1.087 6.422-1.099 8.628 1.199 2.69 2.621 2.785 6.906 1.452 10.219a11.903 11.903 0 0 1-1.666 2.851c-.348.42-.725.818-1.107 1.212-.52.503-1.082.961-1.64 1.422 1.284-.038 2.622.331 3.486 1.342 1.593 1.664 1.585 4.155 1.33 6.298-.869 4.273-4.153 8.257-8.574 9.053-1.56.436-3.175-.256-4.153-1.497-.449-.998-.927-2.109-.293-3.157.906.93 1.304 2.574 2.78 2.763 1.884.126 3.553-1.128 4.702-2.499 1.628-2.046 2.744-4.86 1.943-7.46-.6-1.92-2.79-3.082-4.728-2.68-.822.156-1.644.357-2.491.327.168-.813.797-1.278 1.531-1.538 3.108-1.38 5.18-4.454 6.01-7.67.37-1.744.437-3.761-.704-5.25-1.14-1.518-3.188-1.966-4.987-1.987-4.233.213-8.473 2.138-11.12 5.51-1.36 1.731-2.29 3.883-2.29 6.113.117 1.799.918 3.695 2.525 4.642 1.023.638 2.34.382 3.356 1.044a3.604 3.604 0 0 1-.416 2.571c-.358.368-.77.68-1.22.927-2.878-.105-5.223-2.68-5.583-5.447-.57-3.334.667-6.672 2.277-9.54 2.395-4.156 6.527-7.095 10.952-8.768Z"/><path fill="#FEFEFE" d="M37.911 131.654c.99-1.291 2.043-2.688 3.675-3.191l.419.57c-1.925 2.458-2.726 5.54-2.907 8.614-.705 5.887-1.53 11.825-3.565 17.423-.91 2.083-1.95 4.302-3.939 5.568-1.128.73-2.856 1.069-3.838-.079-1.426-1.699-.94-4.517.567-5.984-.067 1.35-.646 3.572 1.115 4.092.94-.13 1.703-.809 2.123-1.631 1.333-2.499 1.786-5.338 2.345-8.08.045-.29.142-.868.188-1.158 1.053-5.413 1.275-11.137 3.817-16.144Zm4.468 5.909c.315-2.089 1.09-4.089 2.403-5.754.378 2.156-.927 4.286-2.403 5.754Zm58.383 6.906c.659 1.832 2.064 3.648 4.123 3.891 1.548.332 2.958-.473 4.233-1.22a40.297 40.297 0 0 1-4.95 6.537c-1.753-1.803-3.125-3.933-4.375-6.105.583-.939.864-2.009.969-3.103Z"/><path fill="#FEFEFE" d="M168.529 147.203c.403-.419.726-.91 1.078-1.367.302.331.604.667.91 1.002-2.965 1.506-5.641 4.055-6.161 7.477-.722 2.587-.135 5.43 1.665 7.439a50.775 50.775 0 0 1-19.245 15.636 55.891 55.891 0 0 1-8.628 2.944c-7.349 1.652-15.079 1.778-22.42.025-10.125-2.31-19.387-8.059-26.073-15.989-3.255-3.841-5.872-8.21-7.84-12.84.79-.649 1.56-1.346 2.085-2.234.37-.839.508-1.749.608-2.647.714 1.51 1.808 3.062 3.553 3.422 1.88.503 3.742-.411 5.13-1.623 1.594 1.317 3.926 1.426 5.604.193 3.024 5.426 7.655 9.934 13.154 12.827 6.187 3.25 13.465 4.332 20.344 3.137 6.858-1.128 13.25-4.671 17.965-9.762a33.349 33.349 0 0 0 4.069-5.51l.39-.49c1.3-.437 2.701-.655 3.871-1.434.579.444 1.158.901 1.795 1.266 2.672 1.333 6.179.864 8.146-1.472Zm-75.866 14.089c-.952 1.699 1.547 2.491 2.172 3.799 2.123-2.201 4.476-4.176 6.535-6.44-.427-.428-1.057-.973-1.497-.252-1.657 1.627-3.339 3.229-4.987 4.864a86.542 86.542 0 0 0-1.187-1.266c1.808-1.832 3.725-3.556 5.524-5.393-.214-.226-.65-.683-.864-.91-1.888 1.879-3.892 3.644-5.696 5.598Zm59.705-3.044c2.214 2.055 4.492 4.047 6.686 6.126.293-.318.583-.637.88-.951a973.616 973.616 0 0 1-5.712-5.225c.381-.441.767-.877 1.153-1.317 1.892 1.765 3.826 3.489 5.705 5.271.289-.314.578-.625.876-.935-2.105-1.799-3.985-3.891-6.233-5.506-1.653-.231-2.122 1.828-3.355 2.537Zm-2.555 3.51c.927 1.43 2.198 2.608 3.243 3.954.629.663 1.132 1.644 2.147 1.732.927-.206 1.535-1.019 2.274-1.56a89.668 89.668 0 0 1-.844-1.099c-.507.445-1.01.894-1.518 1.338a63.666 63.666 0 0 0-1.649-1.908c.491-.427.986-.847 1.49-1.262l-.864-1.103c-.487.445-.965.893-1.452 1.334a135.598 135.598 0 0 0-1.665-1.892c.512-.448 1.024-.897 1.54-1.337-.315-.34-.626-.675-.932-1.011-.725.793-2.332 1.493-1.77 2.814Zm-53.178 5.09c.268.202.805.613 1.074.818 1.535-2.097 3.045-4.21 4.593-6.298.449.36.897.717 1.35 1.078-1.585 2.012-2.99 4.159-4.563 6.18.36.269.721.533 1.086.805a309.313 309.313 0 0 1 4.572-6.31c.449.352.898.708 1.351 1.061-1.552 2.046-3.012 4.159-4.572 6.197.373.26.75.524 1.128.784 1.422-2.163 3.083-4.164 4.522-6.315.868-1.228-.881-2.683-2.085-2.398-.449-1.48-2.127-1.896-3.15-2.885a209.226 209.226 0 0 1-5.306 7.283Zm48.296-2.927c1.644 2.55 3.33 5.07 5.004 7.603.939-.734 2.084-1.229 2.856-2.16.252-1.488-1.187-2.549-1.799-3.786-.919-1.136-1.384-2.847-2.823-3.434-1.237.188-2.169 1.186-3.238 1.777Zm-3.1 1.737c-.634.796.038 1.715.382 2.47.839 1.58 1.526 3.237 2.386 4.809.952 1.262 2.379.013 3.415-.444-.164-.29-.487-.864-.646-1.153-.646.342-1.278.708-1.896 1.098.016-.109.054-.335.071-.448a79.89 79.89 0 0 0-1.061-1.984c.621-.331 1.241-.654 1.862-.981-.167-.277-.507-.83-.675-1.111-.575.293-1.145.587-1.716.876-.369-.771-.745-1.538-1.128-2.302.6-.307 1.201-.612 1.804-.914a101.4 101.4 0 0 1-.617-1.179c-.726.416-1.573.671-2.181 1.263Zm-33.485-.457c-1.036 1.92-1.997 3.887-2.974 5.837-.73 1.601 1.284 2.18 2.37 2.667.177-.397.355-.793.537-1.187-.584-.276-1.17-.549-1.757-.818.343-.797.733-1.572 1.145-2.336.566.315 1.132.621 1.703.927l.641-1.132c-.605-.325-1.212-.646-1.82-.964.401-.749.789-1.506 1.162-2.269.591.298 1.174.612 1.753.939.205-.411.415-.822.621-1.228-1.028-.424-2.458-1.699-3.381-.436Zm5.617 1.291c-.89-.294-1.678.415-1.884 1.225-.809 2.285-1.585 4.587-2.437 6.86.302.117.902.356 1.204.474.44-1.221.873-2.445 1.296-3.674a40.87 40.87 0 0 1 1.531.537 126.234 126.234 0 0 0-1.313 3.623c.394.155.793.315 1.191.474.843-2.378 1.691-4.751 2.496-7.141.294-.722.017-1.573-.747-1.866.328-.403.911-.734.81-1.338.034-.683-.826-1.455-1.468-1.061-.814.231-1.015 1.195-.679 1.887Zm25.095.256c.806 2.444 1.464 4.931 2.236 7.388-.583.164-1.162.332-1.745.499-.675-2.494-1.447-4.965-2.127-7.455-.41.134-.826.272-1.233.419.831 2.42 1.427 4.915 2.211 7.347-.563.184-1.125.372-1.686.562-.705-2.499-1.485-4.978-2.165-7.481-.419.134-.839.268-1.254.407.839 2.52 1.456 5.111 2.32 7.619.843 1.316 2.894.482 3.624-.587 1.191.738 3.808-.172 3.188-1.9-.688-2.419-1.448-4.822-2.131-7.242-.311.105-.931.319-1.238.424Zm-10.616 2.944c.113.922.143 1.853.302 2.771.982.797 2.143 1.342 3.125 2.147.021.411.059 1.233.075 1.64-.394.046-1.182.134-1.577.18-.029-.293-.092-.88-.121-1.174a153.5 153.5 0 0 0-1.263.18c.076.826.147 1.963 1.137 2.198.805-.03 1.673.029 2.437-.277 1.141-.902.335-2.491.36-3.694a50.269 50.269 0 0 1-2.986-1.938c-.21-.729-.533-1.442-.541-2.214.734.516 1.875.713 2.429-.172-.336.478-.558 1.011-.407 1.602.306-.025.91-.075 1.212-.096-.059-.789-.038-1.804-.885-2.185-1.145-.084-2.714-.222-3.297 1.032Zm-8.314 2.528-.151 1.204c1.25-.047 2.576.574 3.763.259.021-.255.067-.771.092-1.031-1.237-.134-2.474-.252-3.704-.432Z"/><path fill="#FEFEFE" d="M144.276 147.79c2.19.428 4.375-.39 5.994-1.853.714 1.165 1.829 1.945 2.995 2.612-1.191 1.904-2.512 3.728-4.031 5.388-1.925-1.815-3.418-4.013-4.958-6.147Zm-76.164 24.153c5.121-4.709 10.293-9.363 15.448-14.035 1.364 2.294 2.844 4.525 4.552 6.58.1.121.302.369.406.49-6.162 4.931-12.57 9.557-18.535 14.727-.613.491-1.208 1.023-1.913 1.38-2.219.277-3.628-1.791-5.21-2.969 1.225 2.155 3.335 4.109 3.188 6.78-.805 2.638-3.452 5.229-6.413 4.491-3.045-.796-5.633-3.354-6.384-6.415-.06-1.405.415-2.864 1.564-3.741 2.685-2.101 6.397-1.971 9.182-3.883 1.477-.998 2.785-2.226 4.115-3.405Zm105.648-9.254c.163-.097.491-.289.654-.382 3.675 3.346 7.366 6.684 11.027 10.047 1.934 1.665 3.838 3.573 6.372 4.277 2.278.789 4.836 1.158 6.703 2.81 1.477 1.308 1.669 3.623.7 5.283-1.258 2.32-3.481 4.248-6.124 4.73-1.908.349-3.724-.784-4.819-2.272-.659-.918-1.443-1.971-1.187-3.17.336-2.298 2.068-3.971 3.175-5.905-1.631 1.158-3.024 3.317-5.293 2.969-2.064-1.371-3.822-3.14-5.759-4.671-4.749-3.782-9.602-7.431-14.342-11.225a46.576 46.576 0 0 0 2.144-2.676l.407.223c1.9 1.144 4.458 1.14 6.342-.038Z"/><path fill="#000214" d="M135.212 93.86c.398-1.25.369-2.931 1.598-3.677 1.12.083 2.886.205 3.112 1.593-.356 1.82-1.006 3.565-1.464 5.359-.222.788-.343 1.782-1.216 2.126-.99-.02-2.093-.168-2.865-.851-.491-.793-.021-1.66.185-2.457l1.225.52c-.214.629-.424 1.3-1.146 1.492.747-.453 1.532-.117 2.282.122.235-.834.474-1.665.713-2.5-.906-.343-2.462-.419-2.424-1.727Zm1.225.063c.545.13 1.099.227 1.656.293.307-.964.143-2.415 1.347-2.771-.734.394-1.783.419-2.29-.348-.114.968-.428 1.9-.713 2.826Z"/><path fill="#000014" d="M111.961 91.39c.705-.344 1.448-.85 2.274-.645.68.21.881.951 1.099 1.543a925.806 925.806 0 0 0 2.198 6.6c-.394.113-.793.23-1.187.348-.785-2.453-1.632-4.89-2.446-7.33-.57.197-1.14.394-1.707.595.881 2.412 1.644 4.865 2.538 7.272-.403.16-.805.323-1.208.482-.986-2.864-1.917-5.745-2.965-8.588.469-.096.935-.189 1.404-.277Z"/><path fill="#04101A" d="M107.201 93.29c.373-.218.751-.436 1.128-.654 1.305 2.738 2.647 5.46 3.939 8.202-.277.142-.831.428-1.112.57-1.363-2.683-2.571-5.443-3.955-8.118Z"/><path fill="#182028" d="M143.647 99.299c1.447-1.828 3.679-2.734 5.503-4.118.365.248.735.49 1.108.738-.957 1.338-1.754 2.78-2.689 4.13.096.155.29.466.386.625-.323.47-.717.894-1.33.914-.396.669-.789 1.34-1.178 2.013l-1.158-.717c.478-.725.948-1.459 1.393-2.214-.713-.403-1.414-.838-2.035-1.371Zm1.98-.327c.231.205.457.41.688.616.396-.58.774-1.173 1.132-1.778-.616.373-1.216.772-1.82 1.162Zm-24.961 31.558c.386-1.241.86-2.595 2.017-3.325 1.376 2.864.122 6.21-1.111 8.911-1.523-1.447-1.447-3.715-.906-5.586Zm-73.707 8.303c.382-.394.76-.792 1.108-1.212l1.208-.188c.117.956.155 1.937.474 2.855.474.902 1.292 1.543 2 2.248-.2.876-.406 1.744-.612 2.616-.688-2.18-1.803-4.306-3.913-5.409-.067-.231-.197-.683-.265-.91Z"/><path fill="#000010" d="m123.286 108.281.529.289c1.33 1.635 1.376 3.883 1.258 5.883-.277 2.617-.969 5.221-2.089 7.603l-.239.436c-.234-1.212.411-2.315.743-3.438 1.187-3.46 1.577-7.431-.202-10.773Zm-1.291 1.677.478-.31c.529 3.539-.461 7.011-1.782 10.261l-.541-.151c1.183-2.986 2.206-6.169 1.803-9.418l.042-.382Zm22.256 7.25c.445-1.081.725-2.302 1.636-3.111l-.08.809c-.898 2.193-1.707 4.428-2.273 6.735-.109-.13-.327-.386-.437-.512.143-1.367.705-2.637 1.154-3.921Zm-64.072.105c.198-.73.76-1.241 1.276-1.757-1.46 3.669-2.203 7.552-3 11.402-.197-.65-.41-1.317-.247-2 .432-2.596 1.14-5.15 1.972-7.645Zm44.232 7.359c2.059 1.275 1.623 4.047 1.455 6.093-.012 1.271-1.195 2.63-.272 3.77-.634.608-1.338 1.132-2.051 1.64 1.304-3.334 2.789-7.259 1.157-10.739l-.289-.764Zm-25.889.839c1.43.944.818 2.805 1.011 4.231.604-.881.667-2.608 1.95-2.692-1.522 2.839-2.436 5.946-3.342 9.028.033-3.283 1.111-6.592.578-9.85l-.197-.717Zm-19.379 3.342c.177-.201.52-.6.693-.801l-.097.78-.944 7.347c-.197 2.042-1.149 3.891-1.896 5.77-.516-1.33.617-2.617.881-3.917.684-3.019.73-6.151 1.364-9.179Zm23.586 1.946c.47-.432.973-.831 1.477-1.233-.533 3.992-1.649 7.934-1.527 11.993l-.164.834c-.641-.637-.49-1.581-.507-2.39.138-2.847.935-5.611 1.262-8.433-.134-.193-.406-.578-.541-.771Zm85.51 1.061.491-.403c.142 1.027.205 2.063.23 3.103 1.783.227 3.541-.499 5.298-.323l.47.449-.642.075c-1.95.273-3.918.525-5.885.248.113-1.048.147-2.101.038-3.149Zm-153.091 5.883c.603-2.122.843-4.684 2.763-6.089-2.541 5.007-2.764 10.731-3.816 16.144l-.172.365a33.592 33.592 0 0 1-.697-1.983 3.601 3.601 0 0 0 .416-2.571c1.27-1.677.901-3.942 1.505-5.866Zm30.976-5.221c.188-.075.558-.234.746-.314-1.501 2.495-2.206 5.371-2.609 8.227-.21 1.719-.969 3.292-1.61 4.877-.596-.889.276-1.866.44-2.772.944-3.342.973-7.074 3.033-10.018Zm31.4 11.07c.57-3.4 1.733-6.684 3.243-9.774l.168.591c-1.2 3.216-2.509 6.428-2.954 9.867a81.323 81.323 0 0 1-.457-.684Zm78.287-9.074.612-.281c-.692 2.172-2.378 4.055-2.323 6.424.516.122.985.34 1.413.646-.818.277-1.564-.105-2.278-.453.353-2.289 1.422-4.361 2.576-6.336Zm-127.745 3.103a11.908 11.908 0 0 0 1.666-2.851l.792 1.61c-1.14 2.101-.327 5.003 2.051 5.783a75.85 75.85 0 0 1-1.308 3.815l.612.24c-.335.071-.67.142-1.002.217a90.183 90.183 0 0 1-.218 2.122c-.13-.163-.395-.494-.525-.662.256-2.143.264-4.634-1.33-6.298-.863-1.011-2.201-1.38-3.485-1.342.558-.462 1.12-.919 1.64-1.422.067.227.197.679.264.91 2.11 1.103 3.226 3.229 3.914 5.409.205-.872.411-1.74.612-2.616-.709-.705-1.527-1.346-2-2.248-.32-.918-.357-1.899-.474-2.855l-1.209.188Zm13.247 1.107.507-.213c-1.086 2.624-1.913 5.359-1.984 8.222-.172-.75-.352-1.497-.47-2.256.302-2.008.856-4.021 1.947-5.753Zm151.615.382.549.193c-.784 2.52-1.204 5.149-2.026 7.657l-.478.423c.416-2.805 1.296-5.518 1.955-8.273Zm-24.228.306c.642.096 1.288.189 1.934.281-.755 3.153-1.229 6.642.009 9.737l-.475.226c-1.501-2.994-.742-6.353-.427-9.51-.369-.109-1.112-.336-1.485-.449l.444-.285Zm27.156.734.042-.646c1.556 1.266-.676 3.313.717 4.697-.893 1.597-1.46 3.337-2.055 5.061.218-3.066 1.128-6.043 1.296-9.112Zm8.402 2.176c1.036.486 1.103 1.782 1.095 2.772-.034 2.092.025 4.466-1.477 6.122l-.013-.826c.94-2.323 1.355-4.948.516-7.368l-.121-.7Zm-167.857.432.52.843.092.256c.034 2.188-.029 4.537 1.049 6.516.424.843 1.464 1.069 2.29.704l.202.604c-1.053.185-2.274.151-2.874-.889-1.489-2.356-1.468-5.346-1.28-8.034Zm108.08 6.013c1.414-.331 2.689-1.078 4.048-1.568-1.967 2.336-5.474 2.805-8.146 1.472 1.368-.197 2.731.155 4.098.096Zm-131.024-.578.449.763c-.558 2.742-1.011 5.581-2.345 8.08-.29-.696.13-1.388.298-2.05.771-2.202 1.153-4.512 1.598-6.793Zm132.442 5.329.516-.352-.029.767c-.059 1.158-.277 2.437.352 3.485.449.922 1.368 1.438 2.211 1.946l.457.461c-2.945-.264-4.451-3.707-3.507-6.307Zm1.338 8.706c1.049.222 2.076.62 3.155.7 1.245-.026 2.424-.495 3.628-.755l-.26.516c-1.884 1.178-4.442 1.182-6.342.037l-.181-.498Zm-38.795 7.464c.583-1.254 2.152-1.116 3.297-1.032.847.381.826 1.396.885 2.185-.302.021-.906.071-1.212.096-.151-.591.071-1.124.406-1.602-.553.885-1.694.688-2.428.172.008.772.331 1.485.541 2.214a49.65 49.65 0 0 0 2.987 1.938c-.026 1.203.78 2.792-.361 3.694-.764.306-1.632.247-2.437.276-.99-.234-1.061-1.371-1.137-2.197.42-.062.841-.122 1.262-.18.03.294.093.88.122 1.174.394-.046 1.183-.134 1.577-.18-.023-.547-.048-1.093-.075-1.64-.982-.805-2.144-1.35-3.125-2.147-.16-.918-.189-1.849-.302-2.771Zm9.706 10.642a55.891 55.891 0 0 0 8.628-2.944l-.306.734c-1.841.977-3.872 1.547-5.847 2.189-.806.302-1.661.273-2.475.021Z"/><path fill="#141A24" d="M119.436 111.64c.181-.504.541-.898.978-1.191.906 2.319.037 4.793-.835 6.982-.776 1.702-1.493 3.463-2.609 4.981.784-3.598.998-7.355 2.466-10.772Zm31.12.993c.302-.566.633-1.199 1.325-1.333-.008 1.384-.168 2.776-.717 4.059-1.292 3.128-2.576 6.324-4.572 9.079 1.052-4.013 2.131-8.064 3.964-11.805Z"/><path fill="#121824" d="M159.453 115.237c.494-1.107.947-2.365 2.038-3.031.369 2.604-1.149 4.914-2.081 7.229-.985 1.996-1.95 4.034-3.317 5.799.922-3.392 1.929-6.776 3.36-9.997Z"/><path fill="#000013" d="M171.222 113.426c1.984 1.686 2.064 4.508 3.134 6.735.163.092.49.272.654.364l.189.101c0 .285-.004.566-.017.851-.256 1.48-.008 2.969.26 4.428a37.76 37.76 0 0 0-.637-.176 50.515 50.515 0 0 0-3.583-12.303Z" opacity=".97"/><path fill="#FCFCFC" d="M71.165 122.597c.856-.939 2.3-.071 2.416 1.023.353 1.241-.725 2.964-2.134 2.499-1.162-.772-1.263-2.57-.282-3.522Zm-3.774.725c2.269-1.153 3.15 2.927 1.09 3.673-2.05.571-2.546-2.725-1.09-3.673Zm47.289 41.971c.566-.382 1.233.545.583.889-.566.427-1.204-.558-.583-.889Z"/><path fill="#181F29" d="M30.051 131.81c2.647-3.372 6.887-5.297 11.12-5.51 1.8.02 3.846.469 4.987 1.987 1.141 1.489 1.074 3.506.705 5.25-.83 3.216-2.903 6.29-6.011 7.67-.445-.088-.89-.172-1.33-.256a15.634 15.634 0 0 0-.423-3.304c.18-3.074.981-6.156 2.907-8.614l-.42-.57c-1.632.503-2.685 1.9-3.674 3.191-1.922 1.405-2.16 3.967-2.765 6.089-.604 1.925-.235 4.189-1.505 5.866-1.015-.662-2.333-.407-3.356-1.044-1.607-.948-2.408-2.843-2.525-4.642 0-2.231.931-4.382 2.29-6.113Zm12.328 5.753c1.476-1.468 2.78-3.598 2.403-5.753-1.313 1.664-2.088 3.664-2.403 5.753Zm-10.885 3.409c.566.021 1.133.037 1.703.059.432-2.902 1.09-5.775 2.093-8.534-2.617 1.77-5.57 5.187-3.796 8.475Zm97.968-2.244c-.193-2.826.742-5.673 2.248-8.042-.071 2.83 1.392 5.707 3.88 7.124-1.133 1.241-2.45 2.679-4.266 2.692-1.015.101-1.854-.793-1.862-1.774Zm-90.372 4.474c2.173.093 4.987-.943 6.493 1.204 1.766 2.638-.323 5.527-.986 8.152-1.149 1.371-2.818 2.625-4.702 2.499-1.476-.189-1.875-1.832-2.78-2.763.914-2.973 1.333-6.06 1.975-9.092Zm2.14 3.628c-.433 1.665-.647 3.384-1.137 5.036.15.281.457.834.612 1.115 1.976-.96 3.557-2.763 3.96-4.956-.063-1.812-2.215-1.623-3.436-1.195Z"/><path fill="#F8FCFC" d="M136.927 127.7c-.151 2.055.177 4.147-.331 6.164.361-2.042-.013-4.122.331-6.164Zm11.208 7.598c-.226-.587 0-1.942.76-1.92.259.629-.051 1.782-.76 1.92Zm-1.367 29.018c.425-.286.851-.57 1.279-.852 1.183 1.77 2.341 3.552 3.524 5.322-.428.31-.848.625-1.267.943-1.162-1.82-2.399-3.581-3.536-5.413Z"/><path fill="#181F28" d="M160.321 138.728c.729-2.553 1.82-5.006 3.334-7.195-.138 1.752.021 3.518.638 5.174.461 1.585.935 3.388.176 4.957-.504 1.056-1.892 1.274-2.89.872-1.334-.726-1.468-2.466-1.258-3.808Z"/><path fill="#010413" d="M145.187 136.212c-.013-1.195-.268-2.486.369-3.577.159 2.802-.021 5.607.038 8.412l-.306-.285c-.177-1.51.004-3.036-.101-4.55Z"/><path fill="#1C242C" d="M51.657 137.08c.424-.52.902-1.006 1.527-1.275.507.739.516 1.636.373 2.496-.818.05-1.38-.692-1.9-1.221Z"/><path fill="#FDFDFD" d="M41.23 146.83c1.22-.428 3.372-.617 3.435 1.195-.403 2.193-1.984 3.996-3.96 4.956-.155-.281-.462-.834-.612-1.115.49-1.652.704-3.372 1.136-5.036Zm1.052.939a39.937 39.937 0 0 0-.63 3.132c.957-.784 1.435-1.945 1.91-3.052a62.77 62.77 0 0 0-1.28-.08Z"/><path fill="#171F28" d="M80.6 151.937c.939-1.061 2.004-2.034 3.3-2.641-.524.888-1.296 1.585-2.084 2.234 1.967 4.63 4.584 8.999 7.84 12.84-.517.038-1.032.076-1.544.118-1.707-2.055-3.188-4.286-4.551-6.58-5.155 4.672-10.327 9.326-15.449 14.035-1.33 1.179-2.638 2.407-4.114 3.405-2.786 1.913-6.498 1.782-9.182 3.883-1.15.877-1.624 2.336-1.565 3.741-.298.478-.596.96-.898 1.442-.717-2.029-.264-4.453 1.401-5.887 2.903-2.646 7.328-2.252 10.315-4.76 1.992-1.497 3.733-3.287 5.612-4.922 4.379-4.034 8.838-7.985 13.209-12.031a30.234 30.234 0 0 1-2.29-4.877Z"/><path fill="#1A202C" d="M169.066 154.743c.952-2.227 3.243-3.422 5.21-4.622-1.087 1.971-1.862 4.252-3.649 5.72-.718.579-2.123-.142-1.561-1.098Z"/><path fill="#08101C" d="M92.663 161.292c1.803-1.954 3.808-3.719 5.696-5.598.214.227.65.684.864.91-1.8 1.837-3.716 3.56-5.524 5.393.398.415.793.838 1.187 1.266 1.648-1.635 3.33-3.237 4.987-4.864.441-.721 1.07-.176 1.498.251-2.06 2.265-4.413 4.24-6.535 6.441-.625-1.308-3.125-2.1-2.173-3.799Z"/><path fill="#141C26" d="M149.814 161.758c-.563-1.321 1.044-2.021 1.769-2.814.307.335.617.671.932 1.011-.516.44-1.028.889-1.54 1.337.561.626 1.116 1.256 1.665 1.892.487-.441.965-.889 1.452-1.334l.864 1.103c-.503.415-.998.834-1.489 1.262a65.737 65.737 0 0 1 1.648 1.908c.508-.444 1.011-.893 1.519-1.338.277.365.558.734.843 1.099-.738.541-1.346 1.354-2.274 1.56-1.015-.088-1.518-1.07-2.147-1.732-1.045-1.346-2.316-2.524-3.242-3.954Z"/><path fill="#141C28" d="M96.635 166.848c1.82-2.389 3.59-4.818 5.306-7.283 1.024.989 2.702 1.405 3.15 2.885 1.204-.285 2.953 1.169 2.085 2.398-1.439 2.151-3.1 4.152-4.522 6.315-.377-.26-.755-.524-1.128-.784 1.56-2.038 3.02-4.151 4.572-6.197-.453-.353-.902-.709-1.351-1.061a306.564 306.564 0 0 0-4.572 6.31c-.365-.272-.725-.536-1.086-.805 1.573-2.021 2.978-4.168 4.563-6.181-.453-.36-.901-.717-1.35-1.077-1.548 2.088-3.058 4.201-4.593 6.298-.268-.205-.805-.616-1.074-.818Z"/><path fill="#181E28" d="M144.931 163.921c1.069-.591 2.001-1.589 3.238-1.777 1.439.587 1.904 2.298 2.823 3.434.612 1.237 2.051 2.298 1.799 3.786-.771.931-1.916 1.426-2.856 2.16-1.674-2.533-3.36-5.053-5.004-7.603Zm1.837.395c1.137 1.832 2.374 3.593 3.536 5.413.419-.319.841-.633 1.267-.943-1.183-1.77-2.341-3.552-3.524-5.322-.427.281-.855.567-1.279.852Z"/><path fill="#040C18" d="M141.831 165.657c.608-.591 1.456-.846 2.181-1.262.202.39.407.784.617 1.179-.604.302-1.204.608-1.804.914.383.764.759 1.531 1.129 2.302.57-.289 1.14-.583 1.715-.876.168.28.508.834.676 1.111-.621.327-1.242.65-1.863.981a79.89 79.89 0 0 1 1.061 1.984c-.016.113-.054.339-.071.448a29.47 29.47 0 0 1 1.896-1.099c.159.29.482.864.646 1.154-1.036.457-2.462 1.706-3.414.444-.86-1.572-1.548-3.229-2.387-4.809-.344-.755-1.015-1.674-.382-2.471Z"/><path fill="#101824" d="M108.346 165.201c.923-1.263 2.353.012 3.381.436-.206.406-.415.817-.621 1.228a42.217 42.217 0 0 0-1.753-.939c-.373.763-.761 1.52-1.162 2.269.608.318 1.215.639 1.82.964l-.641 1.132c-.57-.305-1.138-.614-1.704-.927-.41.764-.801 1.539-1.145 2.336.588.268 1.171.541 1.758.818-.18.394-.361.788-.537 1.187-1.086-.487-3.1-1.066-2.37-2.667.978-1.95 1.938-3.917 2.974-5.837Z"/><path fill="#06101C" d="M113.963 166.492c-.336-.692-.135-1.656.679-1.887.642-.394 1.502.378 1.468 1.061.101.604-.482.935-.81 1.338.764.293 1.041 1.144.747 1.866-.805 2.39-1.653 4.763-2.496 7.141-.398-.159-.796-.319-1.191-.474.424-1.212.852-2.424 1.313-3.623a41.51 41.51 0 0 0-1.531-.537 266.692 266.692 0 0 1-1.296 3.674c-.302-.118-.902-.357-1.204-.474.852-2.273 1.628-4.575 2.437-6.861.206-.809.994-1.518 1.884-1.224Zm.717-1.199c-.621.331.016 1.316.583.889.65-.344-.017-1.271-.583-.889Zm-1.217 2.423c-.306.831-.608 1.661-.897 2.495.516.131 1.032.256 1.548.386a52.33 52.33 0 0 1 .843-2.273c-.5-.205-.999-.406-1.494-.608Z"/></g><defs><clipPath id="a"><path fill="#fff" d="M24 64h207v128H24z"/></clipPath></defs></svg>