<svg xmlns="http://www.w3.org/2000/svg" fill="none" viewBox="0 0 256 256"><path fill="#0A60FF" d="M0 0h256v256H0z"/><g clip-path="url(#a)"><mask id="b" width="207" height="40" x="25" y="108" maskUnits="userSpaceOnUse" style="mask-type:luminance"><path fill="#fff" d="M25 108h207v40H25v-40Z"/></mask><g mask="url(#b)"><path fill="#fff" d="M218.029 148.001a13.606 13.606 0 0 1-5.314-1.041 13.342 13.342 0 0 1-4.326-2.881c-1.247-1.255-2.235-2.83-2.912-4.464a14.412 14.412 0 0 1 0-10.893 13.443 13.443 0 0 1 2.966-4.402 14.387 14.387 0 0 1 4.406-2.96 13.825 13.825 0 0 1 10.788 0 14.08 14.08 0 0 1 4.379 2.96 13.646 13.646 0 0 1 2.939 4.402 13.814 13.814 0 0 1 1.073 5.416V148h-7.21v-3.392c-1.534 2.203-3.797 3.394-6.789 3.393Zm.215-6.92a6.618 6.618 0 0 0 2.669-.536 6.447 6.447 0 0 0 2.145-1.494 7.456 7.456 0 0 0 1.44-2.215 7.047 7.047 0 0 0 0-5.389 7.438 7.438 0 0 0-1.44-2.214 6.474 6.474 0 0 0-2.145-1.495 6.974 6.974 0 0 0-5.34 0 6.809 6.809 0 0 0-3.605 3.709 7.403 7.403 0 0 0 0 5.389c.331.825.82 1.577 1.44 2.215a6.706 6.706 0 0 0 2.165 1.494 6.607 6.607 0 0 0 2.664.536h.007Zm-31.247-6.509c0-2.134.294-4.046.881-5.736a11.954 11.954 0 0 1 2.564-4.321 11.215 11.215 0 0 1 4.111-2.748c1.62-.642 3.481-.962 5.581-.961h3.098v7.096h-3.15c-1.816 0-3.249.596-4.299 1.786-1.05 1.191-1.558 2.836-1.523 4.936V148h-7.263v-13.428Zm-18.052 13.447a13.558 13.558 0 0 1-5.422-1.09 14.33 14.33 0 0 1-4.433-2.96 13.752 13.752 0 0 1-2.993-4.402 13.517 13.517 0 0 1-1.094-5.416c0-2.349.401-4.394 1.202-6.136a12.92 12.92 0 0 1 7.264-6.889 12.493 12.493 0 0 1 4.407-.854 12.646 12.646 0 0 1 4.62.802 9.857 9.857 0 0 1 3.445 2.187v-14.725h7.317v25.609a13.119 13.119 0 0 1-1.148 5.463 13.88 13.88 0 0 1-3.125 4.402 14.788 14.788 0 0 1-4.567 2.934 14.253 14.253 0 0 1-5.473 1.075Zm0-6.938a6.613 6.613 0 0 0 2.668-.536 6.437 6.437 0 0 0 2.145-1.494 7.44 7.44 0 0 0 1.441-2.215 7.056 7.056 0 0 0 0-5.389 7.422 7.422 0 0 0-1.441-2.214 6.454 6.454 0 0 0-2.145-1.495 6.965 6.965 0 0 0-5.339 0 6.828 6.828 0 0 0-3.606 3.709 7.414 7.414 0 0 0 0 5.389 6.843 6.843 0 0 0 1.441 2.215 6.706 6.706 0 0 0 2.165 1.494 6.607 6.607 0 0 0 2.671.536Zm-30.178 6.938a13.356 13.356 0 0 1-5.395-1.09 14.387 14.387 0 0 1-4.406-2.96 13.406 13.406 0 0 1-2.968-4.408 14.257 14.257 0 0 1 0-10.832 13.422 13.422 0 0 1 2.968-4.402 14.387 14.387 0 0 1 4.406-2.96 13.83 13.83 0 0 1 10.79 0 14.447 14.447 0 0 1 4.406 2.96 13.479 13.479 0 0 1 2.964 4.402 14.257 14.257 0 0 1 0 10.832 13.442 13.442 0 0 1-2.964 4.402 14.465 14.465 0 0 1-4.406 2.966 13.376 13.376 0 0 1-5.395 1.09Zm0-6.938a6.232 6.232 0 0 0 2.617-.559 6.966 6.966 0 0 0 3.575-3.682 7.065 7.065 0 0 0 0-5.389 6.966 6.966 0 0 0-3.575-3.682 6.461 6.461 0 0 0-5.261 0 7.13 7.13 0 0 0-2.109 1.494 6.695 6.695 0 0 0-1.416 2.188 7.403 7.403 0 0 0 0 5.389 6.679 6.679 0 0 0 1.416 2.188 7.086 7.086 0 0 0 2.109 1.494 6.18 6.18 0 0 0 2.644.559Zm-41.876-8.377a13.538 13.538 0 0 1 .881-4.935 11.71 11.71 0 0 1 2.503-3.949 11.394 11.394 0 0 1 3.915-2.605 13.173 13.173 0 0 1 5.048-.934 13.937 13.937 0 0 1 5.184.934 12.058 12.058 0 0 1 4.033 2.587 11.705 11.705 0 0 1 2.617 3.929c.636 1.585.954 3.28.935 4.988V148h-7.27v-15.189c0-1.635-.526-2.978-1.576-4.028-1.049-1.05-2.36-1.575-3.932-1.573-1.603 0-2.858.524-3.767 1.573-.908 1.049-1.343 2.336-1.306 3.861V148h-7.265v-15.296Zm-16.77 15.315a13.392 13.392 0 0 1-5.396-1.09 14.438 14.438 0 0 1-4.406-2.96 13.417 13.417 0 0 1-2.964-4.402 14.255 14.255 0 0 1 0-10.832 13.432 13.432 0 0 1 2.964-4.402 14.424 14.424 0 0 1 4.406-2.961 13.847 13.847 0 0 1 10.79 0c1.64.706 3.133 1.71 4.406 2.961a13.432 13.432 0 0 1 2.964 4.402 14.256 14.256 0 0 1 0 10.832 13.418 13.418 0 0 1-2.964 4.402 14.439 14.439 0 0 1-4.406 2.96 13.357 13.357 0 0 1-5.395 1.09Zm0-6.938a6.224 6.224 0 0 0 2.618-.559 6.952 6.952 0 0 0 3.575-3.682 7.059 7.059 0 0 0 0-5.389 6.952 6.952 0 0 0-3.575-3.682 6.46 6.46 0 0 0-5.261 0 7.129 7.129 0 0 0-2.11 1.494 6.709 6.709 0 0 0-1.415 2.188 7.404 7.404 0 0 0 0 5.389 6.696 6.696 0 0 0 1.416 2.188 7.119 7.119 0 0 0 2.109 1.494c.829.379 1.73.57 2.642.559Zm-34.717 6.938c-2.992 0-5.733-.525-8.223-1.575a19.933 19.933 0 0 1-6.435-4.268 19.401 19.401 0 0 1-4.22-6.35A20.109 20.109 0 0 1 25 128.01a20.11 20.11 0 0 1 1.523-7.816 19.184 19.184 0 0 1 4.246-6.35 20.275 20.275 0 0 1 6.462-4.27 20.858 20.858 0 0 1 8.172-1.573 19.055 19.055 0 0 1 6.357 1.071 19.48 19.48 0 0 1 9.855 7.655 19.868 19.868 0 0 1 2.644 5.893h-8.066c-.961-2.276-2.35-4.062-4.166-5.357-1.817-1.295-4.149-1.944-6.997-1.946a12.058 12.058 0 0 0-4.914 1.012 12.601 12.601 0 0 0-6.65 6.75 12.82 12.82 0 0 0 0 9.872 12.601 12.601 0 0 0 6.65 6.75 12.025 12.025 0 0 0 4.914 1.012c2.705 0 4.948-.622 6.73-1.868 1.782-1.245 3.188-2.955 4.219-5.13h8.223a19.922 19.922 0 0 1-7.026 10.329 19.62 19.62 0 0 1-5.475 2.934 19.033 19.033 0 0 1-6.297 1.041Z"/></g></g><defs><clipPath id="a"><path fill="#fff" d="M25 108h207v40H25z"/></clipPath></defs></svg>