<svg xmlns="http://www.w3.org/2000/svg" fill="none" viewBox="0 0 256 256"><path fill="#FFC80B" d="M0 0h256v256H0z"/><path fill="#fff" d="M212.841 53.016c.557-.34 1.302-.445 1.872-.074.828.542 1.52 1.265 2.208 1.971.604.54.476 1.429.407 2.151-.319.687-.643 1.372-.944 2.066-.742 1.115-1.83 1.928-2.774 2.861-.635.64-1.404 1.116-2.143 1.622-1.186.756-2.191 1.756-3.369 2.523-3.094 2.595-6.467 4.84-9.42 7.6a2.98 2.98 0 0 0-.015.73c.975-.037 1.944-.153 2.921-.168.538.009.898-.46 1.37-.647.429-.084.876-.06 1.308-.155.345-.217.64-.504.989-.719.416-.149.869-.145 1.299-.258.412-.147.732-.486 1.153-.624.379-.086.772-.11 1.156-.198.444-.212.774-.613 1.233-.809.639-.142 1.372.021 1.927-.41.44-.331.973-.468 1.511-.543.653-.047 1.035-.738 1.686-.778.533-.046 1.087-.109 1.496-.498.489-.468 1.193-.319 1.794-.472.494-.273.909-.746 1.516-.748.576-.02 1.073-.294 1.51-.65.475-.405 1.135-.273 1.695-.447.302-.172.544-.429.851-.596.58-.167 1.228-.043 1.779-.324.877-.542 1.959-.366 2.938-.296.946.283 1.901.844 2.442 1.693.118 1.065.403 2.462-.591 3.202-.854.741-1.537 1.67-2.441 2.344-.735.257-1.335.748-1.999 1.12-1.309.143-2.362.952-3.455 1.605-.669.204-1.32.446-1.864.897-1.268.492-2.527 1.044-3.661 1.797-.771.12-1.362.63-2.054.911-.966.068-1.618.858-2.537 1.08a4.011 4.011 0 0 1-1.931.799c-1.084.63-1.931 1.632-3.131 2.07a2.824 2.824 0 0 0-.027.745c.72.193 1.461.296 2.206.307.581.002 1.098-.32 1.671-.391 1.535-.177 3.085-.156 4.628-.15.945.093 1.559-.89 2.491-.85 1.002-.013 2.012.01 3.012-.1 1.077-.051 1.996-.785 3.095-.728 2.494.006 4.998-.057 7.489.04.772.435 1.371 1.16 1.911 1.855.13.822.308 1.88-.379 2.509-.554.567-1.079 1.183-1.735 1.632-.517.097-1.05.052-1.566.147-.352.145-.609.462-.967.584-.468.072-.941.046-1.405.118-.634.149-.995.893-1.681.882-.571.04-1.192.002-1.636.427-.564.527-1.365.382-2.061.523-.486.168-.875.534-1.353.718-.805.12-1.625-.038-2.427.093-.46.176-.775.597-1.204.83-.557.143-1.139.1-1.692.241-.438.143-.798.44-1.219.612-.642.16-1.328-.01-1.958.19a2.923 2.923 0 0 0-1.035 1.051c-.252.561-.102 1.404.56 1.597.94.176 1.906-.044 2.849.111.579.154 1.104.517 1.721.53 1.406.056 2.814-.049 4.223-.007.665-.044 1.025.614 1.547.91.643.143 1.326-.012 1.964.166.582.24 1.111.607 1.734.752 1.031.196 1.748 1.05 2.365 1.834.204.876.341 2.04-.425 2.698-.578.567-1.239 1.09-2.006 1.37-.67.16-1.369.086-2.048.094-1.633-.04-3.27.089-4.893-.113-2.359-.242-4.704.267-7.063.235-.629.004-1.259-.044-1.887.021-.643.08-.991.838-1.661.832-3.568.072-7.149-.168-10.713.149-.72.034-1.316.511-2.021.605-.711.108-1.436.011-2.14.133-.472.174-.793.596-1.219.844-.931.28-2.081-.237-2.831.559-.723.731-1.807.473-2.728.593-.994-.005-1.891.563-2.891.485-1.337-.034-2.67-.002-4.006-.006-.748.046-1.307-.645-2.063-.557-.625-.057-1.359.164-1.86-.324-.707-.598-1.646-.817-2.344-1.43-1.223-.998-2.437-2.034-3.446-3.255-.899-1.229-1.759-2.493-2.461-3.846-.296-.56-.187-1.217-.34-1.811-.26-.52-.809-.931-.742-1.568.023-2.389-.032-4.78.029-7.164.449-1.107.944-2.235 1.686-3.19.461-.615.759-1.33 1.134-1.997 2.177-3.154 4.337-6.326 6.339-9.597.598-1.267 1.189-2.544 1.902-3.752.109-.433.101-.887.218-1.318.233-.367.56-.666.796-1.031.133-.656 0-1.334.114-1.992.187-.504.642-.907.648-1.47.036-1.244.032-2.49-.044-3.732-.036-1.044-.703-1.95-.671-3.002-.013-.632-.021-1.267.044-1.897.028-.548.538-1.01 1.088-.962.909.012 1.868-.141 2.748.113a11.208 11.208 0 0 1 2.414 2.832c.498.744.498 1.731 1.152 2.383.604.571.164 1.51.593 2.166.294.477.548.99.551 1.563.078 1.575.261 3.147.207 4.727-.023.573-.003 1.3.612 1.571.747.223 1.334-.46 1.905-.825 1.163-.954 2.518-1.643 3.629-2.662.568-.502 1.303-.77 1.877-1.267 1.118-1.004 2.461-1.712 3.562-2.74.799-.775 1.871-1.168 2.684-1.924 1.032-.93 2.084-1.853 3.27-2.593 1.107-.684 2.013-1.634 2.906-2.57.585-.632 1.354-1.037 2.071-1.501.729-.53 1.716-.213 2.471-.683ZM36.624 96.837c.216-.559.713-.985 1.22-1.277 1.02-.2 2.072-.061 3.106-.105.847-.103 1.518.485 2.28.74.626.22 1.037.818 1.691.985 1.365.388 2.364 1.468 3.616 2.088.887.6 1.771 1.202 2.742 1.659.988.822 2.23 1.217 3.259 1.969.558.424 1.319.412 1.864.864.457.388 1.082.344 1.623.527.455.237.822.674 1.36.716 1.607.233 3.234.061 4.851.114.357-.021.675.151.969.338.93.7 2.156.267 3.225.368.744-.114 1.162.603 1.747.909.52.101 1.054.047 1.576.129.54.176.959.619 1.525.733.554.105 1.095.275 1.573.58.597.374 1.42.273 1.9.844.681.717 1.394 1.404 2.088 2.107.45.427.331 1.135.7 1.612.248.401.705.733.676 1.252.023 2.945-.021 5.893.016 8.839-.008.409.02.825-.075 1.229-.281.575-.902 1.012-.885 1.708-.057.563.008 1.197-.396 1.653a17.51 17.51 0 0 1-4.337 4.074c-.71.498-1.633.662-2.227 1.332-1.218 1.325-2.814 2.242-4.472 2.905-.598.276-1.049.832-1.726.942-.638.128-1.164.512-1.671.897-.646.498-1.508.651-2.074 1.26-2.15 2.25-4.444 4.366-6.467 6.729-.64.963-.856 2.15-1.569 3.068-.478.618-.549 1.477-1.157 2.004-.363.401-.912.689-1.455.487-.812-.575-1.424-1.384-2.034-2.157-.411-.588-.957-1.187-.908-1.954.063-1.443-.233-2.985.448-4.324.359-.71.143-1.622.722-2.227 1.134-1.437 2.395-2.769 3.65-4.096.464-.452.399-1.16.324-1.746a.673.673 0 0 0-.625-.612c-.745-.088-1.51-.124-2.253.007-.398.201-.71.548-1.123.724-.577.103-1.175.036-1.747.166-.592.179-1.118.553-1.743.622-.62.101-1.26.046-1.874.189-.439.236-.78.62-1.231.834-1.108.282-2.368-.258-3.376.418-.822.593-1.86.227-2.787.372-1.399.261-2.737.929-4.19.832-1.732-.073-3.474.08-5.202-.059-.753-.384-1.372-.987-2.005-1.537-.824-.652-.868-2.074-.07-2.757 1.043-1.082 2.177-2.229 3.685-2.592.677-.202 1.137-.944 1.904-.87.696-.061 1.52.155 2.061-.416.621-.664 1.569-.378 2.368-.441.595.05.983-.49 1.51-.656 1.155-.225 2.338-.126 3.504-.197.417-.007.673-.389.998-.599 1.048-.735 2.35-.954 3.606-.884.08-.32.086-.654.061-.98-.658-.092-1.35.042-1.99-.149-.314-.34-.648-.666-1.084-.846-.618-.267-1.036-.988-1.776-.914-3.154-.017-6.307.05-9.46-.004-1.532-.148-3.071-.129-4.608-.099-1.93.115-3.66-1.158-4.722-2.675-.13-.67-.08-1.359-.078-2.038-.088-.983.793-1.836 1.657-2.113 2.652-.063 5.309.014 7.964-.032 1.189-.042 2.37.143 3.558.156.933-.019 1.795.388 2.712.491 1.193.158 2.398-.002 3.598.072.673.033 1.344.162 2.021.132.013-.281.02-.565-.046-.84-.71-.208-1.29-.654-1.793-1.185-.432-.496-1.128-.454-1.696-.668-.376-.223-.671-.559-1.053-.771-.505-.105-1.038-.042-1.533-.196-.396-.258-.662-.771-1.174-.806-.526-.078-1.072-.135-1.524-.439-.772-.538-1.842-.194-2.578-.801-.622-.506-1.486-.517-2.111-1.023-.604-.492-1.504-.122-2.089-.656-.61-.483-1.447-.571-2-1.132-.46-.443-.946-.874-1.313-1.399-.18-.939-.084-1.914-.075-2.864-.013-.71.648-1.138 1.099-1.586.629-.676 1.618-.422 2.434-.469 1.07.072 2.235-.239 3.215.32.553.321 1.182.441 1.805.534.524.06.87.504 1.317.735.52.118 1.063.057 1.59.141.515.191.86.714 1.419.808.614.106 1.254.192 1.757.597.583.485 1.378.263 2.061.433.558.328 1.024.887 1.728.874.636-.002 1.13.405 1.682.653 1.269.089 2.558.093 3.825-.048.065-.328.096-.708-.195-.939-.879-.946-1.753-1.925-2.852-2.622-1.33-.893-2.54-1.948-3.854-2.86-1.407-.945-2.441-2.315-3.69-3.44-.443-.459-1.133-.938-.917-1.671ZM141.719 102.402c.422-.168.896-.086 1.342-.105 1.046.038 2.095-.035 3.141.023.973.234 1.477 1.293 2.244 1.879.64.588 1.002 1.393 1.438 2.13.462.721-.01 1.71.583 2.374.835.918.416 2.246.682 3.355.18.416.524.731.734 1.135.266 1.191-.367 2.607.526 3.616.61.802.218 1.867.428 2.781.243.572.772 1.011.856 1.654.127.798.008 1.613.102 2.418.124.523.537.933.625 1.468.094.811-.061 1.639.101 2.444.191.517.7.849.876 1.369.118.818-.042 1.65.101 2.465.145.458.447.847.61 1.298.26.803.061 1.666.235 2.479.199.402.52.727.711 1.135.264 1.038-.017 2.214.642 3.136.452.671.05 1.58.526 2.236.386.536.681 1.132 1.071 1.668.812.37 1.89.057 2.225-.815.158-1.023.011-2.08.26-3.095.967-2.773.277-5.754.562-8.614.222-.479.698-.8.881-1.298.205-2.832-.222-5.71.298-8.519.52-1.559.564-3.206.643-4.824.812-1.017 1.009-2.502 2.263-3.141a6.952 6.952 0 0 1 2.764 0c.545.347.952.86 1.403 1.313.499.544 1.084 1.063 1.304 1.797.163.632.629 1.1.956 1.647.082 1.533.155 3.073.22 4.609.055.725.547 1.345.522 2.082.021 1.75-.052 3.5.015 5.248.239 2.097.096 4.208.134 6.314.036 2.519-.107 5.042.134 7.552.082.874-.13 1.786.141 2.637.786 1.66.463 3.544.591 5.317.021.643.564 1.059.85 1.589.155.624.075 1.323.486 1.863.442.582.375 1.372.767 1.973.533.721.636 1.645 1.122 2.395.239.74.653 1.38 1.094 2.009.33 1.178.907 2.267 1.63 3.252.571 1.336 1.002 2.748 1.749 4.004.345.824.093 1.755.329 2.603.217.441.569.796.811 1.225.189.717.007 1.477.155 2.204.147.452.423.851.566 1.307.154.792-.051 1.615.127 2.405.301.521.952.887.917 1.557.019 2.042.006 4.087.003 6.129.093.743-.572 1.189-.896 1.768-.132.475-.068.998-.274 1.452-1.425 2.108-3.436 3.702-5.261 5.442-1.807 1.296-3.693 2.487-5.609 3.615-.654.416-1.22 1.009-2.013 1.162-1.33.33-2.162 1.715-3.561 1.836-.838.009-1.243 1.009-2.103.933-.878-.09-1.413.859-2.29.731-2.524-.025-5.047-.01-7.57-.004-.723.063-1.237-.546-1.908-.689-.541-.12-1.08-.277-1.516-.637-.623-.529-1.537-.302-2.185-.771-.631-.43-1.352-.701-1.979-1.134-.632-.45-1.525-.103-2.122-.639-.718-.645-1.749-.512-2.538-1.008-.57-.381-1.335-.225-1.881-.654-.646-.486-1.343-.9-2.08-1.235-.855-.374-1.522-1.065-2.388-1.42-.954-.408-1.669-1.202-2.611-1.633-.815-.401-1.447-1.105-2.304-1.428-.933-.334-1.661-1.051-2.582-1.416-.633-.421-1.402-.328-2.115-.439-.451-.206-.77-.61-1.196-.853-.616-.196-1.277-.116-1.902-.261-.354-.162-.662-.412-1.019-.565-.658-.126-1.34-.006-1.994-.145-.52-.231-.922-.737-1.522-.752-1.122-.126-2.252-.154-3.378-.164-.604.017-1.101-.378-1.665-.519-2.867-.065-5.737-.258-8.61-.157-.678.065-1.137.779-1.86.684-1.177-.031-2.37.093-3.536-.084-.576-.371-1.258-.893-1.239-1.653-.03-.773-.123-1.628.403-2.267.646-1.309 1.245-2.645 1.96-3.92.193-.444.202-.981.558-1.341.472-.51.975-.989 1.462-1.483.495-.569 1.308-.609 1.893-1.046.648-.519 1.558-.418 2.213-.925.431-.351 1.002-.283 1.518-.34.734.008 1.109-.905 1.874-.811 2.175.009 4.349 0 6.524.004.753-.059 1.126.851 1.862.834 1.348.057 2.738-.105 4.047.324 1.044.368 2.185.298 3.267.178.738-.252 1.076-1.098.96-1.834.04-.756-.66-1.199-1.111-1.695-1.168-1.074-2.162-2.34-3.462-3.265-.879-.647-1.545-1.523-2.365-2.237-1.577-1.36-2.919-2.965-4.519-4.301-2.609-2.567-5.175-5.179-7.767-7.763-1.162-1.355-2.46-2.58-3.651-3.906-1.241-1.229-2.195-2.701-3.298-4.05-.73-.862-.982-2.025-1.791-2.828-.564-.563-.694-1.376-1.103-2.032-.34-.577-.581-1.21-.996-1.737-.403-.464-.22-1.122-.304-1.679-.007-.638-.631-1.063-.673-1.693-.046-.674-.078-1.364.05-2.03.432-1.164.887-2.481 2.063-3.088.944-.13 1.904-.063 2.854-.057.606-.031.984.526 1.489.761.562.126 1.208-.002 1.69.382 1.231.712 2.487 1.393 3.598 2.297.917.779 2.072 1.226 2.907 2.113 2.956 2.921 5.873 5.883 8.817 8.813 2.399 2.702 5.054 5.162 7.576 7.747 1.03 1.004 1.988 2.105 3.165 2.943.459.349 1.407.155 1.291-.555-.048-1.088.294-2.34-.415-3.275-.272-.435-.258-.975-.465-1.433-.902-1.458-1.204-3.235-2.315-4.571-.416-1.202-1.143-2.248-1.69-3.387-.336-.95-1.026-1.71-1.38-2.654-.87-1.561-1.862-3.056-2.682-4.647-.638-.96-.847-2.141-1.583-3.042-.596-.714-.791-1.656-1.34-2.399-.69-1.017-1.174-2.156-1.869-3.168-.387-.666-.801-1.332-.991-2.087-.13-.523-.52-.914-.764-1.38-.484-1.046-.849-2.168-1.551-3.097-.395-.445-.279-1.069-.302-1.613.031-1.126-.028-2.255.016-3.379 0-.598.472-1.033.804-1.481.639-.745 1.262-1.538 2.075-2.105.472-.202 1.015-.092 1.519-.118 1.017.053 2.044-.088 3.053.068 1.262.695 2.348 1.716 3.174 2.897.6.863 1.556 1.504 1.798 2.584.281 1.072 1.363 1.698 1.581 2.79.174.744.746 1.288 1.092 1.95.432.653.56 1.454.99 2.107.786 1.223 1.231 2.628 2.005 3.855.249.446.174 1.013.48 1.435.522.702.66 1.609 1.27 2.256.395 1.019 1.101 1.894 1.284 2.99.409.57.675 1.202.855 1.876 1.166 1.421 1.405 3.337 2.481 4.809.413.664.839 1.593 1.738 1.624.506-.006 1.187.122 1.518-.369.204-.769.112-1.585.107-2.37.009-.647-.455-1.15-.656-1.734-.178-1.012.09-2.061-.143-3.069-.192-.403-.534-.716-.71-1.126-.147-1.019.084-2.057-.091-3.072-.249-.437-.639-.771-.895-1.201-.166-1.07.063-2.16-.082-3.232-.153-.655-.614-1.216-.635-1.903-.053-.784 0-1.578-.172-2.347-.157-.659-.835-1.115-.805-1.83-.032-1.124-.009-2.256-.193-3.37-.132-.621-.531-1.153-.629-1.785-.13-.94.04-1.891-.09-2.83-.248-.507-.858-.855-.799-1.482.008-1.094-.048-2.191.031-3.281.174-.452.564-.782.766-1.225.719-1.708 2.388-2.691 3.82-3.738Z"/></svg>