<svg xmlns="http://www.w3.org/2000/svg" xmlns:xlink="http://www.w3.org/1999/xlink" fill="none" viewBox="0 0 256 256"><defs><path id="reuse-0" fill="#fff" d="M15.537 109.616h226.371v37.048H15.537v-37.048Z"/></defs><path fill="#2F84FF" d="M0 0h256v256H0z"/><g clip-path="url(#a)"><mask id="b" width="227" height="38" x="15" y="109" maskUnits="userSpaceOnUse" style="mask-type:luminance"><use xlink:href="#reuse-0"/></mask><g mask="url(#b)"><mask id="c" width="227" height="38" x="15" y="109" maskUnits="userSpaceOnUse" style="mask-type:luminance"><use xlink:href="#reuse-0"/></mask><g mask="url(#c)"><path fill="#fff" d="M22.575 146.139a7.02 7.02 0 0 1-4.977-2.067 7.066 7.066 0 0 1-2.061-4.99v-21.855a7.07 7.07 0 0 1 2.061-4.991 7.023 7.023 0 0 1 4.977-2.065h17.084a6.528 6.528 0 0 1-1.904 4.609 6.5 6.5 0 0 1-4.595 1.909H22.998v8.158h12.448a3.24 3.24 0 0 1 2.297.955c.61.612.952 1.44.952 2.303v.003a3.263 3.263 0 0 1-2.005 3.009 3.24 3.24 0 0 1-1.244.248H23v8.256h10.16a6.488 6.488 0 0 1 4.595 1.909 6.524 6.524 0 0 1 1.904 4.609H22.575Zm18.72 0 9.197-13.229-9.245-13.132h3.687a8.847 8.847 0 0 1 7.325 3.89l4.299 6.345H52.9s2.215-3.272 4.143-6.116a9.362 9.362 0 0 1 7.756-4.119h3.41l-9.243 13.132 9.148 13.229h-3.585a8.859 8.859 0 0 1-7.372-3.962l-4.161-6.274h3.466l-4.006 6.041a9.359 9.359 0 0 1-7.807 4.195h-3.354Zm42.756 0c-3.177 0-5.64-.86-7.39-2.583-1.75-1.722-2.625-4.129-2.625-7.218v-10.574h-4.43v-6.276h.242c1.348 0 2.383-.338 3.105-1.014.723-.676 1.083-1.69 1.083-3.041v-1.932h7.223v5.987h6.163v2.748c0 .935-.371 1.833-1.03 2.495a3.513 3.513 0 0 1-2.489 1.033h-2.644v10.091c0 .901.16 1.65.48 2.246.322.594.82 1.037 1.494 1.326.674.291 1.508.435 2.504.435.257-.002.514-.018.77-.048.29-.032.594-.064.915-.096v6.131c-.545.072-1.09.136-1.637.193-.61.064-1.188.097-1.734.097Zm20.271 0c-2.794 0-5.216-.619-7.27-1.859-2.055-1.239-3.644-2.905-4.768-4.997-1.123-2.092-1.684-4.409-1.684-6.952 0-2.64.585-4.989 1.757-7.05 1.171-2.059 2.753-3.685 4.742-4.876 1.99-1.19 4.237-1.786 6.741-1.786 2.086 0 3.932.33 5.537.989 1.605.66 2.961 1.586 4.069 2.777a12.237 12.237 0 0 1 2.527 4.128c.578 1.561.867 3.259.867 5.093 0 .515-.024 1.022-.072 1.521a5.25 5.25 0 0 1-.265 1.279H96.811v-5.31h15.6l-3.419 2.511c.321-1.384.305-2.616-.048-3.695-.353-1.077-.971-1.931-1.854-2.558-.883-.628-1.966-.942-3.25-.942-1.251 0-2.327.306-3.226.918-.898.611-1.572 1.513-2.022 2.704-.45 1.191-.626 2.639-.53 4.345-.128 1.481.048 2.784.53 3.911.481 1.126 1.22 2.003 2.215 2.631.995.628 2.199.942 3.611.942 1.284 0 2.383-.258 3.298-.773.222-.125.433-.262.631-.41a4.117 4.117 0 0 1 4.195-.391c1.037.465 2.068.941 3.094 1.429-.513 1.287-1.324 2.413-2.431 3.379-1.108.966-2.415 1.714-3.924 2.246-1.509.53-3.162.796-4.959.796Zm16.755 0v-26.361h1.541c1.379 0 2.702.549 3.677 1.526a5.226 5.226 0 0 1 1.523 3.688l-.386-1.159c.61-1.577 1.597-2.744 2.961-3.5 1.365-.756 2.962-1.135 4.791-1.135 1.99 0 3.732.419 5.224 1.256a8.915 8.915 0 0 1 3.491 3.5c.834 1.496 1.252 3.243 1.252 5.238v16.947h-7.222v-15.402c0-1.029-.201-1.915-.602-2.655a4.39 4.39 0 0 0-1.686-1.738c-.721-.418-1.564-.628-2.527-.628-.93 0-1.765.21-2.504.628a4.33 4.33 0 0 0-1.709 1.738c-.401.741-.602 1.626-.602 2.656v15.401h-7.222Zm39.144 0c-2.889 0-5.4-.685-7.534-2.052-2.135-1.368-3.588-3.211-4.358-5.529l.73-.345a6.496 6.496 0 0 1 6.868.82c.138.126.288.239.442.347a6.595 6.595 0 0 0 3.852 1.207c1.027 0 1.814-.209 2.359-.628.547-.418.819-.997.819-1.738 0-.387-.096-.716-.289-.99-.192-.274-.481-.523-.867-.749-.385-.224-.866-.418-1.444-.579l-4.478-1.255c-2.151-.612-3.804-1.602-4.959-2.969-1.156-1.368-1.733-2.986-1.733-4.852 0-1.642.417-3.074 1.252-4.297.834-1.224 2.006-2.181 3.514-2.873 1.509-.691 3.242-1.038 5.2-1.038 2.568 0 4.823.603 6.765 1.81 1.942 1.207 3.314 2.906 4.117 5.093l-.945.445a6.494 6.494 0 0 1-6.494-.565c-1.011-.659-2.159-.99-3.443-.99-.93 0-1.66.195-2.191.58-.529.386-.794.917-.794 1.594 0 .354.096.675.289.965.193.289.505.547.939.772.433.226.971.435 1.613.628l4.189 1.256c2.182.643 3.851 1.617 5.008 2.92 1.155 1.304 1.732 2.905 1.732 4.803 0 1.643-.425 3.075-1.275 4.298-.851 1.223-2.031 2.18-3.539 2.873-1.509.692-3.291 1.038-5.345 1.038Zm27.156 0c-2.793 0-5.217-.619-7.271-1.859-2.054-1.239-3.643-2.905-4.766-4.997-1.124-2.092-1.686-4.409-1.686-6.952 0-2.64.586-4.989 1.758-7.05 1.172-2.059 2.752-3.685 4.743-4.876 1.989-1.19 4.236-1.786 6.741-1.786 2.085 0 3.931.33 5.536.989 1.605.66 2.961 1.586 4.069 2.777a12.22 12.22 0 0 1 2.527 4.128c.578 1.561.867 3.259.867 5.093 0 .515-.024 1.022-.072 1.521-.049.5-.137.926-.265 1.279h-19.692v-5.31h15.599l-3.418 2.511c.321-1.384.305-2.616-.049-3.695-.352-1.077-.97-1.931-1.853-2.558-.883-.628-1.966-.942-3.249-.942-1.253 0-2.328.306-3.227.918-.899.611-1.572 1.513-2.022 2.704-.45 1.191-.626 2.639-.53 4.345-.128 1.481.049 2.784.53 3.911.482 1.126 1.22 2.003 2.215 2.631.995.628 2.199.942 3.611.942 1.284 0 2.383-.258 3.298-.773.223-.125.433-.262.632-.41a4.11 4.11 0 0 1 4.194-.391c1.037.465 2.068.941 3.094 1.429-.513 1.287-1.324 2.413-2.431 3.379-1.108.966-2.416 1.714-3.924 2.246-1.509.53-3.162.796-4.959.796Zm24.748-35.968h-7.463v35.968h7.463v-35.968Zm12.807 35.968v-28.276a1.177 1.177 0 0 0-1.172-1.176h-7.928v-6.517h25.518v6.518h-7.782a1.173 1.173 0 0 0-1.173 1.175v28.277l-7.463-.001Z"/></g></g></g><defs><clipPath id="a"><path fill="#fff" d="M15 109h227v37.728H15z"/></clipPath></defs></svg>