<svg xmlns="http://www.w3.org/2000/svg" fill="none" viewBox="0 0 256 256"><path fill="#5D5D5D" d="M0 0h256v256H0z"/><g clip-path="url(#a)"><mask id="b" width="150" height="172" x="52" y="42" maskUnits="userSpaceOnUse" style="mask-type:luminance"><path fill="#fff" d="M52.07 42h149.755v171.316H52.07V42Z"/></mask><g fill="#fff" mask="url(#b)"><path d="M72.789 74.938A35499.558 35499.558 0 0 1 128.799 42c-.07 8.297.118 16.594-.093 24.879-.639 13.093-8.001 25.574-19.085 32.32-18.773 11.114-37.664 22.014-56.426 33.14-.065-5.581-.012-11.162-.03-16.742.03-4.595-.217-9.248.762-13.771 2.14-11.15 9.19-21.17 18.862-26.888ZM161.658 63.11c6.271 3.75 12.584 7.436 18.873 11.156 12.848 6.889 21.505 21.182 21.218 35.981-.006 7.578 0 15.156-.035 22.728-5.363-3.008-10.644-6.158-15.972-9.218-3.189-1.849-6.453-3.614-9.284-6.015-9.261-7.453-14.882-19.316-14.812-31.304-.006-7.78-.029-15.553.012-23.327ZM52.345 143.501c1.043-5.581 6.33-9.848 11.916-9.694 3.188-.053 5.978 1.664 8.616 3.281 10.738 6.341 21.517 12.617 32.237 18.995 11.347 6.918 18.838 19.85 19.143 33.288.07 7.959.012 15.917.029 23.875-17.138-10.139-34.353-20.142-51.52-30.228-13.862-7.405-22.361-23.744-20.421-39.517ZM183.538 135.507c3.048-1.825 6.887-2.271 10.211-.957 3.868 1.367 6.863 4.909 7.666 8.974 1.799 14.978-5.738 30.597-18.516 38.335-17.777 10.514-35.66 20.843-53.42 31.393-.005-8.006-.041-16.006.012-24.005.305-13.409 7.807-26.312 19.143-33.188 11.611-6.894 23.27-13.705 34.904-20.552Z"/></g></g><defs><clipPath id="a"><path fill="#fff" d="M52 42h152v171.316H52z"/></clipPath></defs></svg>