<svg xmlns="http://www.w3.org/2000/svg" fill="none" viewBox="0 0 256 256"><path fill="#7F3311" d="M0 0h256v256H0z"/><g clip-path="url(#a)"><mask id="b" width="201" height="74" x="27" y="91" maskUnits="userSpaceOnUse" style="mask-type:luminance"><path fill="#fff" d="M27.174 91.03h200.66v73.694H27.174V91.03Z"/></mask><g mask="url(#b)"><path fill="#fff" d="M188.004 91.03h1.428c1.54.1 3.052.488 4.469 1.1 4.907 2.005 9.072 5.693 11.768 10.233 1.434 2.561 2.65 5.443 2.376 8.437-.157 1.956-.548 3.907-1.295 5.725-.375.918-.934 1.799-1.767 2.365-.804.545-2.116.249-2.423-.726-.668-1.609-1.194-3.33-2.354-4.671-1.333-1.52-3.073-2.59-4.743-3.698-1.29-.859-2.36-1.994-3.414-3.116-.898-1.734-1.284-3.76-2.604-5.267-1.849-2.137-4.672-3.037-6.736-4.912-.994-.902-1.293-2.622-.266-3.611 1.463-1.414 3.619-1.702 5.561-1.859ZM37.758 96.273c1.835-1.602 3.774-3.154 5.227-5.13 3.055-.124 6.112.085 9.167.185.502.092 1.295-.097 1.515.518.18.642.049 1.406-.5 1.834a1749.92 1749.92 0 0 0-12.303 11.84c-.692.671-1.35 1.381-2.107 1.983l.177.829c5.08 4.546 10.106 9.16 14.796 14.113 3.252-7.275 5.178-15.031 8.026-22.455.53-.7 1.62.046 1.721.756.6 3.33 2.232 6.331 3.316 9.507-.329.834-.65 1.669-.913 2.528.609.075 1.437-.233 1.809.428 1.034 1.444 1.738 3.162 1.96 4.922.122.559-.312 1.176-.91 1.114-1.707-.032-3.413-.133-5.12-.171-.492 1.331-1.124 2.609-1.516 3.975-.103.517-.545.84-.877 1.211-2.11-.271-4.238-.165-6.359-.184-.657.016-1.276-.198-1.895-.385-2.982.29-5.987.485-8.982.285-1.127.046-1.782-1.008-2.498-1.702-1.301-1.325-2.357-2.934-3.927-3.964.201-3.313.337-6.635.204-9.954-.065-.352.252-.585.413-.859-.983-.436-.617-1.514-.614-2.357.16-2.953.372-5.909.19-8.867Zm25.847-1c.326-1.458.635-3.121 1.868-4.115 1.618.084 3.248.067 4.863.19.579.365.236 1.237.32 1.812 3.965 5.974 6.295 12.807 8.616 19.531 1.14 3.422 2.338 6.828 3.356 10.288.104 1.089-1.238.972-1.966.988-2.05-.127-4.102-.176-6.155-.062a1251.567 1251.567 0 0 0-6.267-15.023c-1.795-4.446-3.277-9.014-4.635-13.609Zm22.703-3.617c2.408-.122 4.827-.374 7.247-.222.369.07.608.366.809.655-.201.355-.67.645-.56 1.111.76 9.952 1.138 19.963.514 29.933a9.481 9.481 0 0 1-.326.75c-2.452-.013-4.907.093-7.356.041-.665-.005-.413-.821-.29-1.192a3.91 3.91 0 0 0 .225-1.341c.057-9.488-.54-18.965-.565-28.45-.032-.456.038-.906.302-1.285Zm9.479.75c-.036-.758.725-1.343 1.444-1.308 3.003.008 6.02-.027 9.01.311.73.041.945.892.939 1.493-.054 1.455.027 2.91.003 4.365-.063.772-.027 1.658-.587 2.268-.953-.106-1.889.176-2.84.17-2.37.055-4.74-.084-7.109-.046-.412.025-.77-.252-1.01-.558-.024-2.23.106-4.465.15-6.695Zm15.966-.693c2.392-.255 4.798-.38 7.201-.29.312.095.589.274.882.415-.117.482-.595.856-.548 1.368.76 9.951 1.129 19.957.516 29.924-.106.371-.318.916-.826.753-2.093.022-4.187.041-6.278.068-.358-.021-.975.079-1.023-.431-.006-.634.374-1.203.363-1.839.093-9.683-.543-19.353-.556-29.033a1.285 1.285 0 0 1 .269-.935Zm10-.285c.364-.287.809-.382 1.266-.335 2.894.021 5.799-.014 8.68.311.983.09.999 1.303.961 2.05-.173 1.976.397 4.097-.439 5.964-3.313.537-6.68.176-10.02.241-.554.044-1.235-.4-1.105-1.016.046-2 .114-3.999.163-5.995.003-.44.065-.978.494-1.22Zm16.219-.008c2.644.15 5.322.274 7.942-.225.179 9.976-.516 19.938-.614 29.909-.081 1.04.283 2.365-.766 3.04-2.275-.391-4.594-.234-6.888-.32-.356.003-.554-.331-.815-.512.6-1.122-.003-2.374.052-3.563-.09-5.05-.076-10.106.176-15.151.101-3.982-.021-7.968-.087-11.95-.078-.586.28-1.412 1-1.228Zm9.031.06.681-.271c3.093.22 6.194.187 9.295.192.345-.008.673.111 1.004.203-.043 2.428.147 4.856.139 7.283.011.45-.41.837-.861.756-3.18.024-6.356-.013-9.536.02-.348.05-.649-.145-.948-.28.025-2.344-.144-4.684-.089-7.03 0-.32.201-.586.315-.873ZM27.845 94.292c-.055-.924-.242-1.875.048-2.782 2.56.132 5.135-.269 7.685-.092 1.01.35-.07 1.097.01 1.75.733 9.025 1 18.098.598 27.15-.07 1.154.049 2.346-.34 3.457-2.25.098-4.504.135-6.758.149-.744.041-1.344-.428-1.914-.829v-.301c.54-5.968 1.086-11.948 1.113-17.944.011-3.524-.195-7.044-.442-10.558Zm150.432 3.97c1.926-.526 3.775.482 5.417 1.362 1.725.978 3.522 2.043 4.595 3.766 1.205 1.726.738 4.237 2.441 5.682 1.382 1.926 3.766 2.592 5.667 3.839 2.12 1.856 3.937 4.267 4.496 7.077.185 1.121.293 2.549-.755 3.302-1.898 1.382-4.437 1.382-6.644.892-3.872-.9-7.318-3.108-10.226-5.758-3.201-2.969-5.897-6.629-7.157-10.851-.685-2.37-.902-5.017.106-7.334.374-.902 1.069-1.747 2.06-1.978Zm-82.175 7.293c3.185-.043 6.37-.079 9.558-.114.342-.032.654.141.969.244-.084 2.343.117 4.687.125 7.031.027.365-.228.661-.356.983-3.144.13-6.291-.03-9.436.033-.353.048-.673-.114-.993-.222.038-2.341-.22-4.68-.169-7.023-.019-.35.082-.661.302-.932Zm25.192.631c.057-.328.209-.777.638-.645 3.088-.013 6.175-.078 9.259-.097.329-.025.62.146.921.246-.087 1.794.062 3.587.084 5.381-.013.881.236 1.842-.304 2.623-3.131.141-6.262-.027-9.392.038-.372.043-.714-.092-1.048-.22.038-2.444-.247-4.882-.158-7.326Zm25.725-.645c.377-.219.861-.038 1.279-.059 2.71.179 5.425-.122 8.138-.011.969-.038 1.745.853 1.626 1.81-.082 1.845.109 3.717-.233 5.543-.123.406-.269 1.086-.842.997-3.272-.201-6.552.136-9.821-.114-.386-.292-.731-.769-.666-1.279.038-1.891.09-3.779.125-5.668.011-.425.016-.934.394-1.219Zm.285 9.971.375-.179c1.458-.057 2.922.005 4.38-.035 2.001.021 4.045-.117 6.006.371.38.146 1.024.284 1.04.783-.003 2.1-.093 4.199-.122 6.299.032.585-.256 1.187-.761 1.487-3.141-.016-6.294.133-9.425-.181-.773-.155-1.748-.136-2.278-.808-.027-2.162.085-4.326.114-6.488-.035-.507.199-1.024.671-1.249Zm-25.195 20.772c1.852-1.598 3.741-3.205 5.243-5.15 3.09-.095 6.18.081 9.267.203.448.065 1.013-.033 1.339.355.253.661.155 1.517-.429 1.978a1931.166 1931.166 0 0 0-11.491 11.048c-.999.921-1.89 1.967-2.965 2.804.154.399.182.886.57 1.146 4.966 4.417 9.873 8.92 14.415 13.775.351.279.438.783.161 1.146-3.145.352-6.319.577-9.485.414-.475-.062-1.018.003-1.42-.301-1.988-1.617-3.305-3.933-5.406-5.415.214-3.265.342-6.541.212-9.811-.071-.398.184-.713.418-1-.24-.19-.476-.386-.709-.585.152-3.533.494-7.069.28-10.607Zm24.351-3.823c-.06-.566.347-1.295.98-1.249 1.903.144 3.812.057 5.715.011.546-.011 1.274.136 1.445.74.079.533-.062 1.073-.016 1.612 1.072 6.079.733 12.284.63 18.423-.117 3.658-.188 7.318-.378 10.97-.013.461-.268 1.076-.833.978-2.189-.086-4.377.103-6.563-.03-.345-.016-.63-.232-.932-.36-.149-.506-.285-1.018-.268-1.55-.101-4.516-.223-9.041.04-13.554.324-5.324.237-10.662.18-15.991Zm-118.417-.856a63.17 63.17 0 0 1 7.331-.228c.34.084.576.366.847.567-.206.276-.415.552-.627.826.7 10.008 1.059 20.063.491 30.09-.008.355-.195.666-.312.991-2.509.055-5.023.128-7.53.06-.673-.572.155-1.463.085-2.173.09-9.767-.554-19.523-.554-29.288-.025-.311.16-.569.269-.845Zm22.708 1.143c-.133-.674.274-1.717 1.118-1.471 2.16.293 4.337.06 6.504.122.76.165.64 1.03.621 1.618-.288 4.779.182 9.558.055 14.337-.07 1.409.032 2.818.117 4.224.07 1.629 1.034 3.249 2.538 3.94.283.157.568.311.831.501.15 1.815.258 3.633.196 5.454-.047 1.056.453 2.506-.826 3.015-2.642-.639-5.387-1.514-7.345-3.495-1.243-1.355-2.468-2.828-2.932-4.646-.94-3.173-.364-6.505-.73-9.746-.403-4.611.132-9.236-.147-13.853Zm17.573-.501c.063-.301.234-.563.356-.84 2.18.065 4.363.095 6.546.025 1.144-.214 1.795.94 2.45 1.66-.655 3.387-1.233 6.804-1.369 10.255-.168 3.709-.402 7.429-1.086 11.084-.413 2.016-.994 4.029-1.98 5.847-1.786 2.476-4.882 3.419-7.743 3.999-.257-.14-.514-.279-.772-.417 0-2.485.014-4.972-.008-7.459.383-.854 1.407-.902 1.993-1.542.945-.986 1.393-2.354 1.49-3.695.207-6.305-.406-12.62.123-18.917Zm14.337-.696c1.48-.214 2.984-.19 4.475-.174 5.683 8.96 12.216 17.364 19.153 25.389l.196.315c-.014 1.926-.111 3.852-.157 5.779.01.39-.144.766-.4 1.059-1.129.141-2.275.024-3.41.006-.198-.529-.486-1.016-.893-1.409-3.837-4.086-7.397-8.432-10.528-13.078-2.701-4.007-5.696-7.806-8.645-11.629-.087-1.501-.046-3.01-.095-4.516.024-.583-.133-1.268.304-1.742Zm15.27.899c-.01-.379.207-.704.354-1.037 2.376.078 4.757.111 7.133.016.407-.052.643.368.942.558-.149.119-.451.355-.6.474.12 4.338.008 8.681.157 13.019.057 1.815.443 3.611.378 5.432-.044.563-.929.812-1.236.314-2.495-3.048-4.912-6.161-7.423-9.198.106-3.192.19-6.386.296-9.578Zm14.137.017c-.085-.374.114-.686.309-.981 2.371.133 4.744-.136 7.117-.138.445-.071.725.336 1.015.593l-.619.848a213.596 213.596 0 0 1 .622 28.158c-.092.959.131 2.01-.421 2.869-2.281.014-4.561.13-6.84.1-.678-.002-1.205-.468-1.735-.82.486-5.861 1.062-11.724 1.119-17.611.041-4.346-.261-8.686-.567-13.018Zm27.085.829c.005-.613-.201-1.433.437-1.816 1.17-.105 2.349-.016 3.522-.078.744.002 1.539-.165 2.218.233-.082 2.36.149 4.717.109 7.079.013.412-.218.995-.715.951-1.534.036-3.068.009-4.602.014-.535.027-1.368-.274-1.206-.948.185-1.805.337-3.62.237-5.435Zm17.179-1.081c.006-.472.394-1.03.921-.959 1.355.021 2.734-.06 4.067.23.326.078.785.255.739.674.046 2.195.13 4.392.054 6.587.074.539-.407.81-.755 1.102-1.382-.135-2.767-.13-4.149-.178-.309.011-.553-.201-.814-.317-.025-2.379-.125-4.76-.063-7.139Zm10.262.257c-.039-.517.334-1.184.936-1.054 2.669.146 5.368.282 8.01-.217.166 10.188-.54 20.364-.624 30.548-.057.694.136 1.523-.394 2.081-.29.436-.844.2-1.254.195-1.904-.23-3.823-.138-5.732-.168-.386.027-.747-.157-.989-.444.003-.534.272-1.044.152-1.577-.331-2.271-.195-4.565-.247-6.847.017-3.262.025-6.527.207-9.786.154-4.243-.011-8.488-.065-12.731Zm9.995-.983c.738-.399 1.574-.215 2.37-.185 2.536.122 5.078.09 7.616.095.372-.032.717.125 1.057.257-.101 2.439.138 4.88.114 7.318-.074.453-.462.754-.915.667-3.169.022-6.341-.019-9.509.024a1.057 1.057 0 0 1-.888-.317c-.057-2.297-.152-4.595-.122-6.895-.022-.347.165-.647.277-.964Zm16.766.016a60.101 60.101 0 0 1 4.432-.152c5.596 8.743 11.947 16.985 18.733 24.839.255.369.757.675.668 1.19-.047 1.804-.112 3.608-.161 5.413-.027.428-.105 1.032-.589 1.168-1.091.054-2.18-.014-3.269-.022-3.538-4.422-7.299-8.678-10.552-13.322-2.818-4.123-5.772-8.152-8.914-12.037-.258-.358-.665-.694-.589-1.187-.014-1.637-.057-3.276-.063-4.912-.051-.36.171-.664.304-.978Zm15.274.956c.014-.414.155-1.105.714-1.048 2.267.097 4.54.095 6.81.016.342-.022.608.26.796.515-.09.823-.511 1.587-.454 2.427.09 5.435-.125 10.889.5 16.297.176.65-.809 1.132-1.206.599-2.509-3.067-4.947-6.194-7.464-9.258.122-3.181.193-6.367.304-9.548Zm-171.132.014c-.103-.594.516-1.084 1.078-.959 2.246.184 4.353 1.36 5.781 3.083a10.936 10.936 0 0 1 2.471 6.532c-.228 2.512-.928 5.099-2.555 7.085-1.444 1.769-3.72 2.674-5.96 2.823-.597-.038-1.07-.604-1.035-1.189-.038-2.338-.013-4.677-.03-7.012.658-.024 1.418.168 1.972-.285.776-.544.83-1.809.095-2.414-.56-.531-1.393-.365-2.094-.392.272-2.414.43-4.845.277-7.272Zm155.386 12.449c.114-.547.149-1.566.907-1.536.983.824 1.71 1.896 2.506 2.894a130.064 130.064 0 0 1 4.448 6.193c.182.244.304.534.309.845.264 2.891.465 5.79.418 8.694-.029.594-.057 1.228-.388 1.743-.689.398-1.542.086-2.297.17-1.838-.086-3.731.266-5.531-.2.315-.713.125-1.496.117-2.241-.226-5.519-.837-11.04-.489-16.562Zm-110.795 1.918c.049-1.216-.073-2.582.755-3.587.996.629 1.643 1.639 2.379 2.533 1.76 2.322 3.527 4.652 5.072 7.123.345 3.102.535 6.232.47 9.355-.074.602-.055 1.653-.888 1.678a137.883 137.883 0 0 0-4.899.016c-.81-.014-1.653.051-2.422-.252.156-.352.218-.739.18-1.122-.215-5.248-.737-10.488-.647-15.744Zm94.191-.58c.024-.392.31-.91.779-.818 2.889.217 5.784-.027 8.676.003.776-.035 1.699.306 1.876 1.152.182 1.338-.022 2.698.038 4.047-.06 1.041.043 2.249-.649 3.108-.578.165-1.2.013-1.792.03-2.702-.106-5.406.124-8.105-.036-.541.046-.709-.566-.997-.899.079-2.195.079-4.392.174-6.587Zm.233 9.513c.274-.141.543-.288.81-.442 2.729.019 5.457-.124 8.183.019 1.116.095 2.352.133 3.251.894-.076 2.273-.087 4.549-.169 6.822-.011.477-.399.821-.649 1.193-3.391-.093-6.81.187-10.179-.298-.616-.16-1.757-.231-1.635-1.125.033-1.999.09-3.999.128-5.996-.019-.376.117-.728.26-1.067Zm43.565 5.41c-.701-2.099.717-4.57 2.902-4.998 2.2-.572 4.538 1.062 4.855 3.289v1.035c-.222 1.569-1.379 2.986-2.951 3.346-1.982.563-4.263-.675-4.806-2.672Zm2.501-3.584c.996.033 2.413-.363 3.076.634.505.84-.201 1.75-1.029 1.978.654.563 1.07 1.333 1.521 2.059-.24-.003-.717-.003-.956-.006-.527-.885-.975-2.199-2.257-2.032-.005.678-.002 1.358-.005 2.041a64.7 64.7 0 0 0-.763-.009c.079-1.582-.171-3.205.149-4.757a7.485 7.485 0 0 0-.727-.041c-.343.68-.875 1.29-.964 2.07-.272 1.547.749 3.189 2.267 3.62 1.692.591 3.714-.499 4.149-2.233.551-1.742-.663-3.76-2.466-4.088-.744-.263-1.49.171-2.226.084.07.228.146.452.231.68Zm.353.593c-.003.474-.003.949 0 1.423.545-.019 1.105.038 1.642-.103.473-.16.584-.87.133-1.13-.543-.274-1.192-.138-1.775-.19Z"/></g></g><defs><clipPath id="a"><path fill="#fff" d="M27 91h201v73.924H27z"/></clipPath></defs></svg>