<svg xmlns="http://www.w3.org/2000/svg" fill="none" viewBox="0 0 256 256"><path fill="#8895CB" d="M0 0h256v256H0z"/><g fill="#fff" clip-path="url(#a)"><path d="M164.073 87.284c.558-.301 1.241-.378 1.843-.157 1.559.517 3.267.776 4.601 1.802.522.396.742 1.109.5 1.724-.559 1.802-1.691 3.351-2.77 4.875-2.595 3.543-5.466 6.875-8.023 10.445-1.619 2.294-3.215 4.656-4.178 7.311-.575 1.584-.864 3.388-.15 4.979 3.246-1.439 6.047-3.695 8.613-6.116 3.653-3.394 6.723-7.365 10.448-10.686 1.367-1.129 2.975-2.394 4.863-2.171.627.052 1.247-.075 1.876-.094.196.252.506.49.444.855-.134.371-.317.724-.475 1.086.654.077 1.315.013 1.97-.068.109.375.271.763.211 1.161-.679 1.501-1.574 2.969-1.717 4.642-.123.68.701.865 1.169 1.08-.121 2.514-1.685 4.608-2.303 6.989-.248.874-.317 1.783-.357 2.686 1.078-.728 1.957-1.699 2.849-2.636 4.021-4.308 7.772-8.876 12.068-12.921 1.103-1.028 2.251-2.025 3.526-2.84.633-.372 1.327-.753 2.083-.737.875.127 1.701.503 2.444.974.493.323 1.096.423 1.589.751.155.25-.098.5-.164.736-.466.878-.229 1.91-.495 2.842-.709 2.629-2.28 4.95-2.919 7.598 2.523-.758 3.346-3.609 5.471-4.92a18.629 18.629 0 0 0 3.726-2.999c.783-.753 1.488-1.614 2.434-2.175.811-.494 1.777-.651 2.714-.65.713.008 1.296.475 1.917.765.195.763.316 1.568.717 2.256.15.325.771.062.773.507.291.606-.165 1.153-.404 1.682-1.663 3.216-2.25 6.886-2.172 10.48.03.768.038 1.55.294 2.288 1.023.284 2.106.102 3.13-.092 2.994-.655 5.778-2.037 8.369-3.643 1.401-.946 2.871-1.81 4.113-2.969 1.632-1.466 2.963-3.238 4.63-4.667.061 1.677-1.234 2.922-2.017 4.277-.231 1.095-.23 2.377-1.114 3.195.544 1.224.059 2.591-.605 3.661-1.419 2.298-3.542 4.092-5.857 5.443-2.16 1.211-4.619 2.081-7.124 1.926-1.056-.158-2.192-.069-3.144-.627-2.296-1.218-4.533-2.69-6.161-4.746-1.06-1.326-1.814-2.913-2.039-4.602-.157-1.022-.014-2.06-.112-3.086-.788.25-1.275.951-1.855 1.489-.874.913-1.755 1.822-2.558 2.798-.674.944-1.823 1.38-2.516 2.31-.954 1.005-1.4 2.406-2.486 3.293-.516.375-1.165.675-1.815.571-.502-.11-.67-.772-1.173-.838-.732.127-1.56.354-2.227-.106-.833-.72-1.661-1.548-1.929-2.655-.492-1.253-.214-2.627.216-3.853.349-1.085.894-2.106 1.161-3.216.082-.273-.019-.544-.104-.802-2.124 2.852-4.31 5.665-6.753 8.255-1.333 1.353-2.651 2.823-4.393 3.651-1.024.553-1.889-.549-2.899-.571-.282.141-.473.437-.787.504-1.262-.202-2.364-.959-3.225-1.874-.47-.436-.859-.976-1.423-1.293-1.327.465-2.25 1.77-3.65 2.1-.805-.186-1.588-.57-2.432-.524-.288.104-.545.278-.825.392-.571-.121-1.073-.45-1.511-.821-.656-.565-.989-1.427-1.728-1.902-1.952 1.528-3.793 3.301-6.152 4.2-1.47.558-3.169.863-4.663.221-1.835-.691-3.292-2.242-3.913-4.094-.139-.44-.302-1.017-.864-1.044-.504.096-.919.419-1.296.744-1.169 1.005-2.134 2.217-3.284 3.241-1.577 1.455-3.39 2.848-5.567 3.186-1.607.173-3.413.052-4.695-1.045-1.216-1.061-1.496-2.782-1.425-4.312.177-2.108.965-4.096 1.773-6.029.807-1.93 1.817-3.765 2.717-5.646-.177-.457-.721-.325-1.064-.182-1.282.543-2.355 1.464-3.372 2.392-1.49 1.433-2.927 3.007-3.767 4.919-.391.842-.517 1.885.104 2.656-1.867 3.21-4.202 6.131-6.7 8.869-.348.398-.551-.348-.703-.592-.896-.155-1.762.469-2.644.154-1.31-.313-2.133-1.589-2.34-2.853-.377-1.488.311-2.952.901-4.283 1.106-2.339 2.237-4.666 3.237-7.052-1.535.392-3.163.286-4.652.866-2.144.767-3.851 2.396-5.166 4.21-1.683 2.273-2.839 4.869-4.263 7.298-.647 1.036-1.308 2.156-2.398 2.777-.942.559-2.121.257-3.038-.204-1.318-.667-2.077-2.154-2.002-3.609-.135-3.028 1.231-5.808 2.273-8.567.327-.992.828-2.214.098-3.15-1.638 1.693-3.296 3.403-4.607 5.369-.345.44-.387.98-.27 1.508-1.647 1.781-2.909 3.872-4.397 5.784-1.333 1.773-2.757 3.507-4.484 4.913-.967.753-2.108 1.439-3.373 1.434-1.696-.077-3.453-.485-4.807-1.559-1.185-.926-1.886-2.357-2.12-3.822-.241-1.694-.028-3.414.397-5.063-3.282 2.125-4.694 6.109-7.843 8.386-.843.603-1.842 1.032-2.888 1.049-1.04.013-2.085-.01-3.114-.177-.724-.123-1.507-.444-1.844-1.145-.678-1.485-.615-3.197-.186-4.744 1.05-4.009 2.667-7.838 3.98-11.762.202-.63.416-1.262.53-1.916.107-.547-.147-1.214-.7-1.414-.774-.292-1.612-.109-2.412-.107-1.667.109-3.463.209-4.882 1.191-.496.282-.608.872-.798 1.362-1.056 3.053-1.906 6.172-2.838 9.264-1.366 4.588-2.823 9.16-4.688 13.573-1.39 3.246-2.973 6.445-5.111 9.272-2.025.72-3.036 2.853-4.896 3.842.698-8.281 2.952-16.33 5.41-24.239.941-3.046 1.991-6.059 2.843-9.133.163-.701.436-1.424.265-2.15-2.19.551-4.33 1.468-6.147 2.811-2.083 3.309-2.598 7.267-3.73 10.941-.995 3.47-2.612 6.892-5.348 9.331-1.027-.331-2.057.19-2.75.932-.773.814-1.51 1.667-2.36 2.407-.505-.123-1.22-.311-1.16-.972-.035-3.712.577-7.411 1.607-10.972.539-1.923 1.196-3.816 1.589-5.776-1.116.556-2.216 1.418-3.527 1.311-.963-.21-1.542-1.113-2.275-1.697 1.352-1.159 3.067-1.706 4.67-2.404 1.062-.488 1.966-1.353 2.41-2.444.642-1.535.992-3.168 1.416-4.771.755-2.934 1.45-5.926 2.834-8.641.736-1.374 1.724-2.778 3.255-3.319 1.044-.32 2.208-.22 3.21.202 1.59.688 2.655 2.404 2.55 4.135-.216 2.433-.924 4.779-1.46 7.15.748-.157 1.505-.286 2.234-.519.68-.292 1.227-.816 1.875-1.168.888-.528 1.938-.659 2.947-.747.839-1.322 1.33-2.819 1.88-4.274 1.04-2.915 2.43-5.762 4.541-8.059.611.421 1.15.952 1.53 1.594.773 1.2.96 2.643 1.481 3.948-.79.709-.93 1.797-.98 2.796-.045 1.03-.002 2.06.04 3.09 1.69-.46 3.43-.684 5.163-.921 2.361-.342 4.888.196 6.818 1.624 1.288.924 2.111 2.5 1.956 4.1-.148 1.822-.567 3.642-1.333 5.306-.596 1.37-1.59 2.496-2.415 3.724-.615.91-.846 2.025-.777 3.112 3.996-4.158 7.742-8.552 11.845-12.607 1.337-1.277 2.929-2.655 4.905-2.551 1.044.167 2.021.663 2.894 1.247.398.301.93.79.675 1.341-1.642 3.43-3.273 6.879-4.51 10.48-.328 1.041-.705 2.104-.697 3.207-.03.497.648 1.057 1.07.659.857-.623 1.58-1.407 2.276-2.2 3.265-3.786 6.165-7.9 9.797-11.358 2.77-2.629 6.072-5.113 9.997-5.5 1.292-.053 2.661-.182 3.888.325.767.319 1.192 1.132 1.24 1.933.115 1.464-.083 2.929-.121 4.393 2.786-1.687 5.361-3.768 8.401-5.006 1.419-.593 2.948-.978 4.493-.924 1.448-.042 3.052.175 4.133 1.234.496.455 1.015 1.183 1.794.953.832-.277 1.394-.994 2.05-1.536 2.094-1.871 5.062-2.461 7.797-2.259 1.811.105 3.64 1.047 4.401 2.761a145.568 145.568 0 0 0-3.423 6.16c-.63 1.295-1.384 2.558-1.711 3.974 2.938-1.459 5.361-3.774 7.503-6.222 4.351-5.071 7.49-11.012 10.726-16.817 1.215-2.137 2.401-4.304 3.878-6.277.698-.9 1.452-1.812 2.48-2.349Zm10.734 22.096c-1.193 1.305-2.534 2.511-3.411 4.066-.037.605.82.882 1.218.505.957-.924 1.843-1.918 2.76-2.88.663-.827 1.043-1.854 1.278-2.879a3.765 3.765 0 0 0-1.845 1.188Z"/><path d="M231.114 135.324c1.713-1.255 3.3-2.673 4.973-3.98.356.25.714.5 1.067.756-.584 1.314-1.488 2.45-2.364 3.579-1.218 1.528-2.48 3.027-3.905 4.368-.58.538-1.327.849-1.924 1.364-.666.561-1.337 1.159-2.179 1.432-1.027.299-1.811 1.091-2.822 1.423-2.893.994-5.858 1.88-8.921 2.112-2.12.141-4.243.177-6.366.239-3.069-.097-6.149.044-9.212-.227-4.193-.363-8.388-.671-12.573-1.111-6.455-.828-12.933-1.47-19.406-2.125-2.418-.202-4.835-.521-7.268-.469-5.451.021-10.904-.05-16.353.048-3.525-.002-7.05.002-10.574-.002-4.415.166-8.834-.094-13.247.092-1.882.018-3.751.291-5.622.475-4.248.417-8.411 1.455-12.464 2.759-4.254 1.395-8.492 2.838-12.662 4.462-1.39.517-2.704 1.238-4.148 1.606-8.34 2.433-16.754 4.601-25.15 6.828-12.763 3.341-25.529 6.667-38.327 9.868-1.17.375-2.396.027-3.592.012a892.148 892.148 0 0 1 32.258-11.712c5.082-1.741 10.208-3.345 15.315-5.011 2.11-.68 4.098-1.677 6.138-2.532 2.56-1.121 5.205-2.026 7.743-3.194 7.344-3.42 14.999-6.164 22.819-8.268 4.117-.994 8.33-1.499 12.481-2.312 4.196-.603 8.442-.734 12.666-1.037 7.945-.563 15.916-.64 23.876-.563 3.409-.01 6.809.249 10.211.459 8.615.557 17.228 1.132 25.837 1.787 1.869.125 3.717.44 5.572.674 4.214.511 8.454.798 12.659 1.388 3.544.551 7.137.63 10.712.841 2.846.096 5.757.116 8.526-.638 2.23-.803 4.284-2.044 6.226-3.391Zm-5.445 4.364c-3.327 1.043-6.877.912-10.316.774-3.063-.196-6.141-.261-9.181-.707-3.827-.565-7.689-.855-11.533-1.278-2.62-.252-5.213-.753-7.843-.918-9.628-.713-19.259-1.37-28.893-1.966-5.055-.354-10.126-.233-15.189-.259-3.599.072-7.199.169-10.796.307-2.763.142-5.521.39-8.284.524-3.463.256-6.953.396-10.358 1.111-4.375.786-8.813 1.32-13.07 2.64-4.936 1.436-9.807 3.103-14.56 5.063-3.311 1.33-6.488 2.965-9.832 4.214-2.565.984-5.064 2.123-7.587 3.207-2.18.894-4.455 1.526-6.692 2.266-10.356 3.307-20.628 6.886-30.823 10.666 8.857-2.246 17.698-4.554 26.54-6.862 8.927-2.357 17.868-4.671 26.746-7.217 1.17-.327 2.325-.701 3.419-1.232 4.163-1.708 8.426-3.161 12.693-4.586a76.974 76.974 0 0 1 10.091-2.719c2.48-.44 4.992-.663 7.495-.926 4.984-.377 9.984-.05 14.975-.194 4.629-.064 9.261.052 13.889-.066 5.171.014 10.343-.017 15.516.016 6.963.497 13.898 1.331 20.837 2.071a188.8 188.8 0 0 0 10.284 1.088c3.934.301 7.864.778 11.816.718 2.887.027 5.768.041 8.653-.127 2.658-.067 5.278-.639 7.805-1.443 1.065-.347 2.183-.601 3.141-1.21.514-.34 1.046-.667 1.645-.846 1.132-.351 1.856-1.37 2.867-1.936a6.707 6.707 0 0 0 1.621-1.296 50.607 50.607 0 0 0 3.742-4.436c-2.622 2.3-5.584 4.242-8.818 5.559Z"/></g><defs><clipPath id="a"><path fill="#fff" d="M18 87h219.35v82.058H18z"/></clipPath></defs></svg>