<svg xmlns="http://www.w3.org/2000/svg" fill="none" viewBox="0 0 256 256"><path fill="#73A8DA" d="M0 0h256v256H0z"/><g clip-path="url(#a)"><path fill="#73A8DA" d="M51.325 170.779c7.21-32.46 40.322-59.148 77.297-59.148 36.975 0 69.985 26.688 76.679 59.148H51.325Z"/><path fill="#fff" d="M31.808 156.352c-1.545-.566-3.244-.927-3.605-2.679l-.103-.051-2.832 7.728.103.052c1.39-1.082 2.987-.31 4.48.257l10.763 3.916c1.493.567 3.193.927 3.553 2.679l.103.052 3.862-11.542-3.656-2.576c.464 1.598.36 2.989-.206 4.534-.36 1.031-.103 1.031-.875 1.804l-11.587-4.174Z"/><path fill="#fff" fill-rule="evenodd" d="m48.956 142.853 3.09.567c.515.052.67.103 1.133.361.875.463.978 1.185 1.03 2.009l.103.052 4.48-8.089h-.051l-.052-.052c-2.266.721-2.935.515-5.046.206l-16.634-2.576-3.605 6.543.103.052c.67-.361 1.39-.567 2.112-.155.566.309 1.39 1.34 1.802 1.804l8.651 9.634c1.082 1.237 1.7 2.01 2.06 3.555l.103.052 3.039-5.513-.103-.052c-.67.258-1.288.567-2.06.155-.567-.309-1.236-1.082-1.648-1.546l-1.442-1.648 2.935-5.359Zm-2.987-.515-2.008 3.658-4.274-4.688v-.052l6.282 1.082Z" clip-rule="evenodd"/><path fill="#fff" d="M58.329 138.268a15.273 15.273 0 0 0 4.84-3.607c1.494-1.597 2.627-3.194 2.885-5.461.257-2.01-.515-3.813-1.957-5.204-1.442-1.34-2.987-1.7-4.944-1.494-1.596.154-2.987.773-4.48 1.391-1.133.515-2.781 1.391-3.863.412-1.03-.979-.412-2.422.36-3.297 1.03-1.134 2.524-1.804 4.018-2.164l-2.627-2.422a14.816 14.816 0 0 0-4.17 3.143c-1.288 1.391-2.318 2.988-2.576 4.895-.206 1.7.412 3.503 1.7 4.688 4.995 4.689 10.814-2.679 13.543-.103 1.236 1.185.31 2.834-.618 3.864-1.493 1.597-3.913 2.782-6.128 3.092l4.017 2.267Zm6.283-28.492c.309-.464.67-.773 1.081-1.134.876-.67 1.803-1.03 2.78-.515l-2.11-4.277-10.97 8.914-.514.309 2.06 4.431.051-.258c.412-1.339.875-2.164 1.957-3.039a5.64 5.64 0 0 1 1.287-.876l7.776 9.583c.979 1.236 2.266 2.473 1.7 4.122l.051.051 6.438-5.204-.052-.051c-1.802-.103-2.678-1.185-3.81-2.525l-7.725-9.531Z"/><path fill="#fff" fill-rule="evenodd" d="m69.658 101.687.052.103c1.75.103 2.368 1.751 3.14 3.142l5.357 10.099c.772 1.443 1.75 2.834.875 4.379l.052.103 7.93-4.224c1.906-1.031 3.347-1.804 4.12-3.865.67-1.803.566-3.555-.31-5.203-1.235-2.37-3.861-3.452-6.333-2.577 1.339-1.391 2.008-3.142 1.03-4.946-.773-1.39-2.009-2.112-3.605-2.37-1.596-.309-2.781.36-4.223 1.082l-8.085 4.277Zm7.57-.567c.206-.258.412-.412.721-.567 1.184-.618 2.266.103 2.832 1.185.618 1.185.567 2.679-.72 3.401-.207.103-.361.103-.567.154l-2.266-4.173Zm3.502 6.595.67-.361c2.06-1.082 3.501-.67 4.583 1.391.824 1.546.927 3.401-.876 4.328-.463.258-.824.361-1.339.309l-3.038-5.667Z" clip-rule="evenodd"/><path fill="#fff" d="M95.922 94.576c-.515-1.494-1.288-3.091-.155-4.482l-.051-.103-7.828 2.68.052.102c1.75.412 2.111 2.112 2.626 3.658l3.708 10.82c.515 1.494 1.287 3.04.154 4.431l.052.103 7.776-2.679-.052-.103c-1.751-.412-2.06-2.113-2.626-3.607l-3.656-10.82Zm10.762-2.679c-.257-1.597-.772-3.297.515-4.482v-.103l-8.136 1.442v.103c1.647.67 1.75 2.422 2.008 4.02l2.008 11.283c.258 1.545.773 3.246-.515 4.431v.103l12.308-2.886.412-4.431c-1.133 1.237-2.369 1.804-4.068 2.061-1.082.206-1.339.258-2.421.619l-2.111-12.16Zm9.785 13.396c1.905.721 3.965 1.031 5.974.979 2.163-.051 4.119-.361 5.922-1.7 1.596-1.237 2.42-3.04 2.369-4.998-.052-1.958-.876-3.349-2.369-4.585-1.236-1.03-2.627-1.598-4.12-2.216-1.133-.464-2.935-1.03-2.935-2.473 0-1.443 1.442-2.01 2.626-2.01 1.545-.05 3.038.567 4.326 1.392l-.052-3.607c-1.596-.567-3.45-.876-5.149-.824-1.854.051-3.76.412-5.305 1.545-1.39 1.03-2.214 2.731-2.214 4.483.103 6.853 9.476 5.925 9.527 9.686.052 1.7-1.854 2.216-3.193 2.216-2.214.051-4.738-.876-6.488-2.267l1.081 4.379Zm15.552-.257a15.394 15.394 0 0 0 5.767 1.803c2.163.257 4.12.206 6.077-.876 1.751-.979 2.781-2.628 3.038-4.637.258-1.958-.36-3.4-1.699-4.895-1.082-1.236-2.369-1.958-3.759-2.782-1.082-.618-2.781-1.443-2.575-2.885.154-1.443 1.699-1.752 2.884-1.597 1.544.206 2.935.978 4.119 1.957l.412-3.555c-1.493-.824-3.296-1.34-4.995-1.545-1.854-.207-3.811-.103-5.459.824-1.545.824-2.574 2.422-2.78 4.122-.824 6.8 8.548 7.213 8.085 10.923-.206 1.7-2.112 1.957-3.502 1.751-2.215-.257-4.583-1.545-6.077-3.142l.464 4.534Z"/><path fill="#fff" fill-rule="evenodd" d="M159.675 94.216c.566 0 1.03.103 1.545.258 1.03.309 1.854.875 2.008 2.009l2.369-4.122-13.595-4.173-.515-.258-2.523 4.173.257-.102c1.339-.413 2.317-.464 3.656-.052.515.154.979.31 1.442.567l-3.604 11.798c-.464 1.546-.773 3.246-2.472 3.71l-.052.103 7.931 2.422.051-.103c-.927-1.546-.515-2.886 0-4.534l3.502-11.696Zm10.711 16.745-.566 3.091c-.052.515-.103.67-.361 1.134-.463.876-1.184.979-2.008 1.03l-.051.103 8.085 4.483v-.052l.051-.051c-.721-2.267-.515-2.937-.206-5.05l2.575-16.641-6.592-3.659v.155c.361.67.567 1.391.155 2.112-.309.567-1.339 1.392-1.803 1.804l-9.63 8.656c-1.235 1.082-2.008 1.7-3.553 2.06l-.051.104 5.51 3.039.051-.103c-.257-.669-.566-1.288-.154-2.061.309-.566 1.081-1.236 1.545-1.648l1.648-1.443 5.355 2.937Zm.464-2.988-3.656-2.01 4.686-4.276h.051l-1.081 6.286Z" clip-rule="evenodd"/><path fill="#fff" d="M191.088 111.734c.515.206.927.463 1.339.772.876.67 1.442 1.495 1.185 2.577l3.604-3.092-11.38-8.553-.412-.412-3.811 3.04h.257c1.391.052 2.318.309 3.451 1.185.463.309.823.618 1.132 1.031l-7.312 9.892c-.979 1.288-1.854 2.782-3.605 2.628l-.051.051 6.643 5.049.051-.051c-.309-1.752.515-2.885 1.545-4.277l7.364-9.84Zm9.321 9.119c1.082-1.185 2.06-2.628 3.811-2.318l.051-.052-6.128-5.513-.051.052c.463 1.7-.824 2.885-1.906 4.07l-7.673 8.501c-1.081 1.185-2.06 2.628-3.81 2.319l-.052.051 6.128 5.513.052-.051c-.464-1.701.824-2.834 1.905-4.019l7.673-8.553Z"/><path fill="#fff" fill-rule="evenodd" d="M200.1 127.5c-5.356 3.606-6.025 9.943-2.524 15.147 3.502 5.153 9.682 7.368 15.192 3.658 5.613-3.761 6.025-9.789 2.472-15.096-3.502-5.204-9.733-7.368-15.14-3.709Zm3.965 4.482c2.626-1.752 6.386-2.37 8.394.618 2.369 3.504-1.03 7.42-3.914 9.377-1.236.825-2.678 1.546-4.171 1.443-1.648-.051-3.141-.824-4.068-2.164-.979-1.442-.876-3.349-.103-4.895.772-1.597 2.42-3.4 3.862-4.379Z" clip-rule="evenodd"/><path fill="#fff" d="M226.621 161.35c1.597-.773 2.833-1.288 4.532-.618l.103-.052-2.472-5.358-.103.051c-.566 1.752-1.802 2.319-3.399 3.092l-7.209 3.349 7.209-13.757.103-.051-2.678-5.771-.103.052c-.978 2.267-1.648 2.73-3.81 3.761l-9.579 4.482c-1.596.773-2.832 1.288-4.532.618l-.103.052 2.524 5.358.103-.051c.566-1.752 1.802-2.319 3.399-3.092l7.312-3.4.052.103-4.635 8.656c-1.133 2.215-1.854 3.143-1.905 5.719-.052 1.03 0 2.885.463 3.864l14.728-7.007Z"/><path fill="#000" d="M129.086 106.633c7.93 4.122 20.084 8.553 26.933 14.478.772.773.669 1.803.978 2.679.618.154 1.236-.206 1.906-.155 15.5 12.933 27.499 28.338 27.499 28.338-7.467-8.811-10.299-11.387-9.733-10.871-.103-.104 0 3.452.206 4.276 1.082 1.391 7.828 7.831 8.085 8.295 0 0-7.467-7.368-8.085-7.78.103 1.855.103 4.843.103 4.843 1.442 1.443 8.858 7.626 9.785 9.017l-9.785-8.708-.154 6.75c1.39 1.443 6.282 3.967 7.724 5.513-1.596-1.546-7.776-5.049-7.776-5.049l.052 3.864c2.832 1.185 6.694 3.606 9.166 5.307-2.472-1.649-5.974-3.401-8.6-4.637 0 0-1.133-.361-1.236-.361.67 3.503.052 3.246-.206 4.843 0 0 6.592 1.288 7.416 1.34l-7.519-1.031c-.154.567-.36.928-.927 1.494 1.391.464-1.854-.206-1.957-.309-.36-.154-.721.155-.927.206-1.39-.103-3.759-.412-4.686-1.597-.927.876-3.965.567-5.458.567-1.494-.103-1.082-.515-2.575-.773-.309-.361-1.597-1.237-1.751-1.752-.618.309-.721 2.113-2.627 2.061-2.574.155-21.834.515-21.886.618 14.162-.206 69.161 2.216 70.757 2.577-.206.051-68.439-1.289-68.439-1.289l48.407 1.392H80.627s18.797-1.134 21.474-1.34c-8.445.155-20.186.876-28.632 1.134.31-.619 35.997-2.577 38.829-3.04-4.583-.258-44.493 2.833-45.06 2.833.567-.412-3.038-.463-5.304-.463 15.5-1.546 32.031-1.237 47.583-1.701 8.755-.36 38.417-.721 41.919-.927-2.833-.309-4.996-.464-5.356-.464-2.111-.206-1.339-1.648-2.729-3.297-3.451 1.339-16.119.464-16.273.103-.361.206-.773.721-1.133 1.03.309.155 1.236.155 1.596.206-.721.104-4.738.516-6.283.413-2.626-.103-3.089-1.494-4.531-3.658-1.494 0-12.669 1.03-12.669 1.03l-.051 1.134c3.759.309 12.205.772 12.205.772l-12.669-.103s-.772.722-.721.928c1.751.36 9.63.257 11.433.515-.824-.052-7.158-.103-7.982.103l.103-.052c-1.236.155-3.09-.206-4.275.413-.102.103-.308.206-.308.309 3.45.206 11.38-.258 14.882.103-4.892 0-14.419.412-19.517.515-2.112-.309-4.069-.773-4.635-2.731-.103-1.133-1.493-1.082-2.42-1.236-3.039.103-5.304-.258-8.137-.412-.875.103-1.39-.619-1.39-1.443.051-.979.206-3.349.206-3.349l.566-10.098c-.67.103-2.42.463-2.42.463.051-3.864.618-7.264 1.596-10.768.412.052 1.803-1.133 2.678-1.34a246.109 246.109 0 0 1 1.648-6.594c-.206-.31-1.339.206-1.133-.516.721-.309 1.751-.669 1.957-1.442.36-.825 2.626-6.389 5.407-9.326 1.442-1.236 3.09-2.576 5.047-3.246.36-.515.824-1.03 1.133-1.597 9.527-3.658 19.775-5.668 30.074-7.316.669-.155 1.184-.052 1.751.309Z"/><path fill="#DCDDDE" d="M129.652 113.898c1.803 10.459 1.906 21.691 1.648 32.716l-.463-.103c-.361-8.346-.361-25.143-1.803-33.232.052 2.37 1.236 11.335 1.03 13.654.206 6.131.155 12.829.155 19.424-.361-.309-1.339-.052-1.288-.67.515-3.452.67-8.089.567-11.593.051-.824-.361-18.187-2.575-25.606-.721-.928-2.06-.309-3.038-.309-2.781.36-21.372 5.1-26.006 6.801.67-.773 1.905-.979 2.883-1.34 4.944-2.009 20.033-5.874 27.191-6.389.566.515 1.596 4.946 1.699 6.647Z"/><path fill="#F1F2F2" d="M155.71 121.42c.669.67.36 3.04.36 3.04.927 9.171.103 19.939.206 29.007-1.751-.361-19.311-5.101-24.255-6.646-.103-12.727-.309-26.122-2.678-38.591 3.811 1.546 19.569 7.471 26.367 13.19Z"/><path fill="#fff" d="M117.653 114.722a32.598 32.598 0 0 0-3.759 5.513c-1.442-1.031-6.489.515-10.197 1.339-5.973 1.495-10.865 2.783-16.427 4.38 2.42-4.225 3.141-7.832 8.651-9.944 2.163-.721 19.054-5.925 28.787-7.728 0 0-4.583 3.452-7.055 6.44Z"/><path fill="#F1F2F2" d="M126.202 109.054c1.442 5.668 2.111 11.541 2.317 17.621-4.377-2.628-9.115-4.534-14.058-6.08 1.39-2.988 3.862-5.925 6.385-8.501 1.597-1.133 3.296-2.782 5.356-3.04Z"/><path fill="#fff" d="M113.276 121.471c-1.905-.103-2.884.103-5.149.619-7.519 1.597-14.574 3.606-21.732 5.77.67-2.112 2.266-1.958 5.459-2.885 6.488-1.752 13.44-3.555 20.083-4.843.515-.103 1.339 0 1.906.36l-.567.979Zm.206.413c-1.339 4.946-2.832 9.016-3.656 15.559l-.052 3.916c-7.982.361-25.903 4.895-27.087 5.255l.463-4.482c4.378-2.009 21.99-5.565 25.646-6.286.515-3.452 2.781-11.026 4.223-14.014.206-.052.309-.052.463.052Z"/><path fill="#DCDDDE" d="M158.284 124.717c.773 4.483 1.288 25.143 1.288 29.935-.206.052-.721-.361-.721-.412-.258-6.234-.515-18.96-.515-18.96.103 1.082.154 12.571.257 19.011l-.618-.154c-.103-9.429.361-18.909-.669-28.389l.206-1.031h.772Z"/><path fill="#F1F2F2" d="M128.519 127.654c.206 3.916.206 7.625 0 11.644-1.957-.773-3.966-1.288-5.768-2.267l-1.493-.36c.772-4.122.824-8.708.257-12.778 2.524.773 4.944 2.112 7.004 3.761Zm46.399 11.387c.772 1.288.927.412.875 1.803-1.081-1.237-2.214-2.473-3.553-3.658.927 1.494 2.729 2.782 3.605 4.482l.257 2.731c-1.957-1.443-3.965-3.658-6.025-5.255 1.596 2.009 4.171 3.915 6.077 6.079l.154 5.05-4.017-3.298c1.082.979 3.399 3.04 4.068 3.813-.154 2.267.103 4.328-.103 6.492-.463.051-4.068-2.628-4.428-2.989 2.781 2.216 4.274 3.092 4.428 3.452l-.102 3.71c-4.532-2.628-11.381-4.637-16.222-6.543 0-10.202-.155-19.888-.824-29.626l.206-.051c3.759 2.576 14.934 13.035 15.604 13.808Z"/><path fill="#808285" d="M110.649 125.851c-4.068.463-7.673 2.061-11.793 2.524 3.708-.979 7.828-2.112 11.896-2.833l-.103.309Zm-5.715 2.679c.154 0 .206-.103.36-.206l-.051-.052c1.699-.721 3.244-1.185 5.149-1.442v.257l-5.458 1.443Zm10.196-1.185c-.515.206-1.287.154-1.957.258.103-.258.258-.722.67-.619.463 0 .978 0 1.287.361Zm.618.824c-.978.361-2.266.309-3.141 1.185.257-.412.206-1.185.772-1.339.721-.103 2.06-.876 2.369.154Zm-5.82-.051c-2.317.618-4.892 1.082-7.209 1.442 2.42-.772 4.789-1.442 7.261-1.957l-.052.515Z"/><path fill="#fff" d="m120.949 136.052-.412.103c.258-.412.103-4.637.258-5.1 0-.825-.052-6.389 0-7.162.978 4.225.154 10.614.154 12.159ZM91.853 127.5c-.051.515-.772.669-1.493 1.236-2.317 2.319-3.553 5.101-3.862 8.244l.103.103c.72-2.834 1.545-5.925 4.12-7.935.102 0 1.03-.67 1.132-.515-.257.258-1.338 1.34-1.699 1.546.824.257 2.42.257 2.884 1.442.309 2.01-.515 4.122-.927 6.08-2.678.979-5.304 1.906-7.828 3.194v.155s16.119-4.895 24.101-6.337l.206-.464c-.052.515-.618 1.082-1.03 1.237-8.343 1.597-16.325 3.606-24.152 6.131l-.155-.722c.773-3.864 1.442-7.625 2.627-11.335l.824-.051c-1.442 3.297-2.112 6.955-2.112 10.562l.206-.206c.721-3.504 1.082-7.213 2.987-10.202.618-1.081 2.781-2.215 4.068-2.163Z"/><path fill="#808285" d="M110.083 128.942c-1.956.155-3.656.876-5.51 1.288 1.597-.876 3.451-1.236 5.356-1.546h.257l-.103.258Zm-3.965 1.546c1.133-.722 2.626-.773 3.862-1.031-.978.567-2.574.722-3.862 1.031Z"/><path fill="#fff" d="M114.718 138.474c-.618.154-1.957.618-2.523.412-.567-2.112-.103-5.771 0-7.986.154-1.03 1.647-.876 2.626-1.237-.464 2.886-.515 5.977-.103 8.811Z"/><path fill="#808285" d="m106.787 131.055.103-.103c-.103-.052-.206-.206-.36-.155 1.029-.361 2.111-.464 3.244-.618l-.103.206-2.884.67Zm1.236.463c-.309.258-.824.103-1.184.258.051.052.823-.103 1.184-.258Zm1.339.619c-1.082.515-2.42.412-3.605.773l3.605-1.185v.412Zm6.026.257.566-.154 1.133.206-1.699-.052Zm2.316.722-2.317.051c-.103-.361.206-.154.36-.309.721.155 1.288-.103 1.957.258Zm-8.651.051-1.905.361.463-.206c-.772 0-1.699.154-2.523.412.927-.206 2.575-.773 3.965-.928v.361Zm9.424.876-3.192-.103c-.052-.927 1.132-.258 1.596-.515.566.257 1.545-.309 1.596.618Zm.155.309c-.206.515.412.258.618.412-1.236.052-2.678.464-3.965.103l-.052-.463c1.236-.361 2.214.154 3.399-.052Z"/><path fill="#F1F2F2" d="M111.937 139.453c.36.773 2.832-.103 3.399-.619l-.052-3.297c4.789.876 8.858 2.525 13.235 4.328-.206 1.958-.206 3.813-.309 5.719-5.871-1.494-11.844-1.906-18.024-2.885l.36-7.007c.361-.206.309-1.546.927-1.082l.464 4.843Z"/><path fill="#fff" d="M81.502 146.717c-.412.31-.978.31-1.442.464-.36-3.349.36-5.513.978-8.604.31-.773 1.288-1.134 2.009-1.494 0 1.648-1.545 9.634-1.545 9.634Zm27.809-3.194c0 1.237.618 2.731-.155 4.585-.36.104-1.03.001-1.493-.051 0 0 .566.258.669-.103 0-1.391 1.288-5.771-1.339-5.358-7.415 1.545-16.221 2.782-23.276 4.894-.36.052-.773.206-.979.618-.309 1.031-.72 5.771-.463 5.616l.618.155-1.648.876c.463-1.906.103-5.204.978-7.213 3.45-1.546 20.548-4.895 25.594-5.565 1.339-.309 1.442.206 1.494 1.546Z"/><path fill="#F1F2F2" d="M122.803 144.966c-.875 2.009-2.317 5.306-3.193 7.986-.463.515-6.849-.258-9.578-.619.206-3.297-.155-5.667.206-9.068 4.274.361 12.771 1.546 12.565 1.701Z"/><path fill="#808285" d="M128.21 148.882c.206.463.412 2.679.464 3.142-.309-1.03-.876-3.349-2.42-3.194-1.442.412-1.7 1.288-2.575 2.782-.824 3.143-1.288 7.419 1.905 9.686.824.413 1.648-.669 2.884-3.348-.515 1.751-.978 6.491-3.502 5.77-1.751-1.185-2.523-2.37-3.708-5.461-1.236-3.246-.309-6.389 1.133-9.532.618-1.185 1.082-1.752 2.421-2.267 2.317-.309 2.884.773 3.398 2.422Z"/><path fill="#fff" d="m146.955 152.9-.258 6.441s-12.359-.979-16.427-1.546c.257-3.298.257-8.913.257-8.913l16.428 4.018Zm-39.652-4.018c-1.391.309-3.193-.052-4.069 1.442-.103.412-.051 1.237.103 1.752-.051-.155-.721.206-.824.206-.103-.721-.154-2.215.309-2.937 1.288-.36 3.451-1.082 4.841-.979l-.36.516Z"/><path fill="#000" d="M146.131 153.106c-.36 1.855-.051 3.71-.206 5.41l-14.573-1.7.36-6.749c3.193.927 14.419 3.039 14.419 3.039Z"/><path fill="#fff" d="M128.519 153.055c0 2.37.155 4.018-1.493 6.389-.412.618-.927.721-1.802.154-1.03-.979-1.236-2.112-1.442-3.606-.103-2.164 0-3.349 1.133-5.101.257-.412.566-.825 1.029-1.031 2.06 0 2.524 1.701 2.575 3.195Zm-21.216-1.649-3.657.412c-.051-.927-.051-1.752.876-2.112.566-.052 2.163-.567 2.781-.515v2.215Zm-4.944-2.112c-.155.824-.258 2.267-.155 3.039-3.965.928-14.007 2.886-14.934 3.349-.515-.772.052-2.267.36-3.194 4.841-1.443 9.58-2.164 14.729-3.194Z"/><path fill="#DCDDDE" d="M144.432 153.725c.36.824.103 1.803.257 2.679-2.523-.464-9.424-1.134-11.947-1.7-.155.051-.052-.207-.103-.31 2.111.31 8.394.876 10.299 1.392l.155-.155c-1.906-.773-8.291-1.288-10.403-1.752l-.051-.257c1.957-.052 8.291.927 10.196.978-1.854-.772-8.136-1.03-10.093-1.545-.155-.155 0-.361-.052-.515 1.339.257 7.313.618 8.6.772-1.339-.669-7.106-.875-8.6-1.288v-.309c2.73.258 9.373 1.134 11.742 2.01Z"/><path fill="#808285" d="M151.744 153.828c.258.36.464 1.545.67 1.906-.464-.773-.618-1.185-1.288-1.288-1.647.721-1.802 2.473-1.75 3.813 0 1.391.257 4.43 1.493 5.203.669.412 1.339-.051 1.648-.463h-.052v-.413h.052c0 1.031-.309 2.01-1.03 2.937-.515.515-1.082.464-1.957-.721-1.236-2.164-1.339-4.946-1.596-7.368.103-1.906.103-3.916 1.545-5.101 1.184-.206 1.853.825 2.265 1.495Z"/><path fill="#fff" d="M109.826 154.137c-.103 1.545.103 2.73-.464 3.761-2.986-.155-7.158.154-10.762.67-.567-1.443.051-2.525-.052-4.122-2.06.257-7.879 1.649-9.32 2.061-.619.206-.619.618-.722.927-.103 1.134-.051 1.752.155 2.782-2.781.567-4.841 1.082-7.622 1.701.206-1.907-.824-3.71 1.7-4.174 3.965-1.391 20.341-4.997 24.152-5.461.618-.103 2.935-.361 2.935 1.855Z"/><path fill="#F1F2F2" d="M119.507 153.518c-.567 1.391-2.112 3.092-3.502 3.968-2.009.051-4.171.412-6.077.154.155-1.649.309-2.988.206-4.482.052-.464.309-.206.824-.258.515.258 6.437.361 8.549.618Z"/><path fill="#000" d="M106.633 154.085c-.103.412.051 1.031-.515 1.34-1.288 0-2.421.67-3.76.67-.103-.928-.463-2.319.464-2.783 1.081 0 4.429-1.7 3.811.773Z"/><path fill="#808285" d="M156.946 157.743c-.464-.103-.258-.721-.515-1.03-.052-.361-.412-.67-.876-.824-.618.103-1.03.721-1.287 1.185-.721 2.782-.618 5.822 1.648 7.677.618.103 1.081-1.598 1.081-1.598-.103 1.185-.721 2.628-1.751 3.349-.618.155-.772-.257-1.03-.618-1.596-3.452-.823-6.904-.875-10.459.206-.412.721-1.031 1.287-.979 2.009.052 1.751 2.164 2.318 3.297Z"/><path fill="#fff" d="m105.963 154.704-3.244.463c-.154-.463-.051-1.339.67-1.597.721-.309 1.596-.309 2.523-.206l.051 1.34Zm46.039 1.236c.412 2.216.721 4.895.103 7.059-.155.309-.567.309-.824.154-1.442-2.215-1.339-5.358-.67-7.883.67-.515 1.082.206 1.391.67Zm-65.556-2.421c-1.03.515-2.42.051-2.987 1.288-.257.463-.618 1.854-.463 2.318-.464-.36 0-2.318.051-2.834.515-1.339 2.73-.927 3.914-1.597.154.103-.566.67-.515.825Z"/><path fill="#DCDDDE" d="M144.637 157.125c-2.523-.258-9.424-1.03-11.947-1.494l-.103-.412c2.781.566 9.527.876 12.05 1.906Z"/><path fill="#fff" d="m86.394 155.94-3.141.979c-.258-.567.309-1.855.618-2.319.67-.463 1.545-.618 2.472-.515l.051 1.855Zm10.867-.618c.051.979.257 2.318.36 3.143-2.472.309-5.407 1.133-7.93 1.597-.36-.979-.258-1.855.051-2.731 2.266-1.082 4.944-1.443 7.519-2.009Z"/><path fill="#DCDDDE" d="M144.638 157.64v.155c-2.678-.206-9.63-.721-12.153-1.443v-.309c2.626.515 9.475 1.134 12.153 1.597Z"/><path fill="#fff" d="M156.534 158.155c.206 1.958.515 3.813-.206 5.616-.618.258-.876-.412-1.133-.824-.464-1.803-1.082-4.07-.206-5.925.875-.721 1.493.515 1.545 1.133Z"/><path fill="#808285" d="M163.794 158.053c.103.36.361 1.494.412 1.906-.309-.155-.412-1.752-1.03-1.752-1.493 1.752-.618 7.213.361 6.853.515-.206.463-.773.669-1.134-.051.825.206 2.422-.824 2.628-1.854-.361-2.06-4.483-2.163-6.337-.103-1.546.824-2.628 1.494-2.68.412.103.978.103 1.081.516Z"/><path fill="#fff" d="M82.378 157.228s-.618.258-1.133.464c.36-.825-.772-2.576 1.339-2.989-.309.619-.412 1.907-.206 2.525Zm81.262 7.265-.309-.103c-.927-1.649-.875-4.019-.103-5.719.67 1.752.67 3.915.412 5.822Z"/><path fill="#808285" d="M167.039 159.289c.155.361.412.979.464 1.546-.361-.309-.258-1.134-.927-1.082-1.185 1.391-.876 3.452-.206 4.997.309.258.257.413.721.413l.463-.876c.103.566-.36 1.803-.978 2.267-1.03-.258-1.236-1.34-1.442-2.164-.155-1.958-.258-4.277 1.03-5.616.412 0 .618.309.875.515Z"/><path fill="#000" d="M86.858 158.413c-.257.412-.154.618-.36 1.031-.927.206-1.803.721-2.73 1.133-.618.103-.978-.464-.927-.979-.308-1.855 2.318-1.597 3.45-2.318.773 0 .31.824.567 1.133Z"/><path fill="#fff" d="M86.189 159.031c-.927.31-1.7.928-2.833.876-.051-.36-.154-.618-.103-.979.927-.36 1.803-.824 2.781-1.03.36.309.103.773.155 1.133Z"/><path fill="#58595B" d="M149.633 165.729c-.309 0-1.133-.154-1.494-.309.103-.206-1.751-3.452-.721-4.894l.309-.773c.052 1.597.979 4.225 1.906 5.976Z"/><path fill="#fff" d="M166.885 164.905c-.773-1.185-.876-2.834-.361-4.173l.206-.31c.824 1.134.773 3.143.155 4.483Z"/><path fill="#58595B" d="M160.55 159.959c.155 2.937 1.236 5.822 1.751 6.337-.052.155-.721.309-.876.155-.927-1.495-1.544-3.246-1.647-4.895-.103-.567.566-2.061.772-1.597Z"/><path fill="#808285" d="M172.961 162.38c-.206.103-.309-.154-.464 0-1.081 1.598-.669 3.865.412 5.359.052.154-.103.36-.257.412-.567.103-.721-.515-.979-.824-.515-1.649-.412-3.607-.051-5.307.103-.258.515-.979.927-.464.206.155.412.515.412.824Z"/><path fill="#58595B" d="M124.76 164.39c-.721 0-2.008.412-2.626 0-1.288-.722-3.039-3.813-3.142-5.101.052-.309.824-.876 1.082-1.185.669 3.297 2.935 6.286 4.686 6.286Zm36.357 2.215c-.155.309-.978-.36-1.184-.36-.773-1.031-2.06-3.246-.67-4.792.309 1.906 1.03 3.555 1.854 5.152Z"/><path fill="#58595B" d="M121.825 164.441c-.67 0-1.133.052-.876.052-1.545-.361-2.111-2.164-2.678-3.401-.36-1.082-.669-.876.412-1.751.515 1.648 1.442 4.121 3.142 5.1Zm26.057 1.082c-1.339.412-2.06-.412-2.627-1.339a4.701 4.701 0 0 1-.566-1.288l.515-.309c.36.824 1.596 2.576 1.596 2.421-.669-.773-.824-1.752-1.03-2.731l.721-.515c.206 1.288.773 2.525 1.391 3.761Z"/><path fill="#fff" d="M173.167 166.245c-.103.36-.052.669-.103.927-.824-.464-.927-3.916-.258-4.38.412 1.134.567 1.701.361 3.453Z"/><path fill="#808285" d="M175.176 163.102c-.979.669-.927 1.803-.979 3.039.155.876.206 1.392.721 1.958-.206.155-.206.464-.463.464-.927-.876-.618-1.752-.876-2.937 0-1.288.361-2.782 1.339-3.452l.258.928Z"/><path fill="#fff" d="M175.072 167.687c-.721-.978-.36-2.627-.103-3.812.567 1.03.567 2.627.103 3.812Z"/><path fill="#58595B" d="M153.753 166.039c-.052.103.051.257-.103.309-.515-.103-.412-.567-.773-.825.258-.566-.463-1.082.052-1.597.412.67.154 1.494.824 2.113Zm-1.339 0c-.515-.413-.154-.722.051-1.185-.205.515.824 1.133-.051 1.185Z"/><path fill="#fff" d="M107.405 143.162c-6.231 1.546-17.457 2.989-23.431 5.153-.103-.052-.103-.258-.103-.258s17.251-4.07 23.534-4.895Zm-.206.722c-6.231 1.545-17.251 3.143-23.225 5.255-.103-.051-.103-.258-.103-.258s17.045-4.173 23.328-4.997Zm0 .979c-6.231 1.545-17.251 3.04-23.225 5.204-.103-.052-.103-.258-.103-.258s17.045-4.173 23.328-4.946Zm0 .824c-6.231 1.546-17.251 3.04-23.225 5.204-.103-.052-.103-.258-.103-.258s17.045-4.122 23.328-4.946Zm-.051 1.031c-6.232 1.545-17.2 2.936-23.174 5.049-.103-.052-.103-.258-.103-.258s16.994-4.019 23.277-4.791Zm.051.824c-6.231 1.546-17.251 2.937-23.225 5.049-.103-.051-.103-.257-.103-.257s17.045-3.968 23.328-4.792Zm.567.876 1.7-.052.205 4.122-1.905-.876v-3.194Z"/><path fill="#E6E7E8" d="M90.102 130.488c-1.288 1.288-2.78 4.534-3.862 9.068l5.716-2.319.72-3.761c.155-1.236 0-2.061-.514-2.524l-2.06-.464Z"/></g><defs><clipPath id="a"><path fill="#fff" d="M25 85h206.503v86H25z"/></clipPath></defs></svg>