<svg xmlns="http://www.w3.org/2000/svg" fill="none" viewBox="0 0 256 256"><path fill="#970E7E" d="M0 0h256v256H0z"/><path fill="#970E7E" d="M27 47.005c67.003-.011 134.005 0 200.995 0 0 53.912.011 107.836 0 161.759-66.99 0-133.98.036-200.983-.024.048-53.912.072-107.823-.012-161.735Zm23.138 22.967c-.19 27.127-.012 54.255-.095 81.37 6.26 0 12.507-.047 18.767.084.19-19.825-.748-39.673-.155-59.485 5.452 19.836 11.082 39.625 16.736 59.414 4.49-.024 8.991-.013 13.481.011 5.536-19.575 10.738-39.257 16.772-58.69.784 19.54-.452 39.103-.452 58.655 9.028.047 18.054-.06 27.081.071-3.136-7.138-9.443-13.576-8.326-21.887.036-19.848.095-39.684-.024-59.52-9.039-.012-18.077.012-27.116-.012-4.882 17.18-9.657 34.396-14.265 51.659-6.13-16.907-9.692-34.657-15.465-51.694-8.98.095-17.96.035-26.939.024Zm89.226.082c2.458 5.656 6.639 10.683 8.029 16.718.154 21.52.024 43.051.047 64.57 6.723.013 13.434-.035 20.145.036.82-12.971.463-26.001.119-38.984 1.282 1.684 2.518 3.414 3.527 5.299 5.927 11.217 11.748 22.504 17.805 33.649 7.02 0 14.027-.035 21.035.071-5.558-9.888-10.939-19.883-16.451-29.794 17.568-7.612 18.792-34.55 4.36-45.778-6.948-5.064-15.952-5.443-24.219-5.846-11.462 0-22.923-.059-34.397.06Zm-88.846 93.359c.084 7.79.012 15.579.06 23.381 4.608-.119 9.585.616 13.825-1.601 7.317-4.28 6.746-16.575-.641-20.512-4.145-1.861-8.837-1.09-13.244-1.268Zm43.033 11.204c-.57 6.759 5.654 13.279 12.519 12.508 6.213-.284 10.845-5.927 10.916-11.963-4.692.012-9.384-.225-14.063.06-.167.794-.488 2.359-.653 3.142 3.729.011 7.459.011 11.176.189-1.841 1.945-3.301 4.862-6.271 5.193-5.333 1.494-10.726-3.793-10.215-9.07-.024-4.624 4.323-8.762 8.909-8.655 3.42.996 6.08 4.019 9.953 3.569-2.007-2.68-4.359-5.525-7.84-6.19-6.995-2.074-14.467 4.115-14.43 11.217Zm84.19-11.181c.047 5.917.071 11.833.011 17.738-3.706-5.916-7.34-11.881-11.117-17.761-.927.011-2.78.047-3.706.059.118 7.813-.274 15.639.32 23.44.773-.047 2.305-.13 3.076-.178.143-5.809-.011-11.619.179-17.417 3.658 4.992 6.485 10.529 10.048 15.58.879 1.743 2.97 1.73 4.585 2.299.107-7.896 0-15.792.083-23.689l-3.479-.071Zm-97.576-.012c-2.696 7.944-5.963 15.675-8.493 23.678 4.526.664 4.716-4.233 6.034-7.185 2.66-.024 5.321-.036 7.982-.035.89 2.264 1.758 4.54 2.625 6.829.915.012 2.72.059 3.635.083-2.827-7.731-5.856-15.402-8.505-23.192-.82-.047-2.459-.13-3.278-.178Zm38.222 23.654c4.609.818 4.811-4.257 6.307-7.209 2.626.013 5.25.013 7.875.036 1.295 3.142 1.699 7.671 6.212 7.291-2.328-7.042-5.012-13.966-7.59-20.926-.379-2.051-2.007-2.999-3.931-3.308-2.933 8.05-5.998 16.042-8.873 24.116Zm24.314-23.654c.012 7.779-.012 15.568.012 23.346 1.128.012 2.268.012 3.409.024 0-3.593-.012-7.174-.024-10.766 2.589 3.533 5.048 7.173 7.578 10.766 1.069-.024 3.219-.06 4.288-.083-2.079-2.727-4.122-5.49-6.188-8.241 4.822-1.162 7.957-6.497 5.463-11.073-2.601-5.514-9.68-3.617-14.538-3.973Zm51.383.012c-2.91 7.909-5.951 15.77-8.659 23.749 4.335.202 4.917-4.115 6.106-7.245 2.755-.035 5.523-.011 8.29.119 1.128 3 1.402 7.778 5.879 7.055-2.53-7.968-5.724-15.698-8.528-23.559-.772-.035-2.316-.083-3.088-.119Z"/><path fill="#fff" d="M50.138 69.972c8.98.011 17.96.07 26.939-.024 5.773 17.037 9.336 34.787 15.465 51.694 4.608-17.263 9.383-34.479 14.265-51.659 9.039.024 18.077 0 27.116.012.119 19.836.06 39.672.024 59.52-1.117 8.311 5.19 14.749 8.326 21.887-9.027-.131-18.053-.024-27.081-.071 0-19.552 1.236-39.115.452-58.654-6.034 19.432-11.236 39.114-16.772 58.689-4.49-.024-8.991-.035-13.48-.011-5.655-19.789-11.285-39.578-16.737-59.414-.593 19.812.345 39.66.155 59.485-6.26-.131-12.507-.084-18.767-.084.083-27.115-.095-54.243.095-81.37Zm89.226.082c11.474-.118 22.935-.06 34.397-.06 8.267.404 17.271.783 24.219 5.847 14.432 11.227 13.208 38.166-4.36 45.778 5.512 9.911 10.893 19.906 16.451 29.794-7.008-.106-14.015-.071-21.035-.071-6.057-11.145-11.878-22.432-17.805-33.649-1.009-1.885-2.245-3.615-3.527-5.299.344 12.983.701 26.013-.119 38.984-6.711-.071-13.422-.023-20.145-.036-.023-21.519.107-43.05-.047-64.57-1.39-6.035-5.571-11.062-8.029-16.718Zm28.221 18.532c.772 7.885.439 15.817.356 23.736 5.274-.533 11.165.439 15.904-2.43 5.548-4.328 6.283-13.778.796-18.484-4.68-4.103-11.367-2.846-17.056-2.822ZM50.518 163.413c4.407.178 9.099-.593 13.244 1.268 7.387 3.937 7.958 16.232.641 20.512-4.24 2.217-9.217 1.482-13.826 1.601-.047-7.802.025-15.591-.06-23.381Zm3.504 3.13c-.106 5.738-.06 11.465-.024 17.203 3.148-.272 6.782.238 9.383-1.932 4.61-3.782 3.434-12.272-2.054-14.619-2.376-.676-4.87-.522-7.305-.652Zm39.53 8.074c-.037-7.102 7.435-13.291 14.43-11.217 3.481.665 5.833 3.51 7.84 6.19-3.873.45-6.533-2.573-9.953-3.569-4.586-.107-8.933 4.031-8.909 8.655-.511 5.277 4.882 10.564 10.215 9.07 2.97-.331 4.43-3.248 6.271-5.193-3.717-.178-7.447-.178-11.176-.189.165-.783.486-2.348.653-3.142 4.679-.285 9.371-.048 14.063-.06-.071 6.036-4.703 11.679-10.916 11.963-6.865.771-13.09-5.749-12.519-12.508Zm84.189-11.181 3.479.071c-.083 7.897.024 15.793-.083 23.689-1.615-.569-3.706-.556-4.585-2.299-3.563-5.051-6.39-10.588-10.048-15.58-.19 5.798-.036 11.608-.179 17.417-.771.048-2.303.131-3.076.178-.594-7.801-.202-15.627-.32-23.44.926-.012 2.779-.048 3.706-.059 3.777 5.88 7.411 11.845 11.117 17.761.06-5.905.036-11.821-.011-17.738Zm-97.576-.012c.82.048 2.458.131 3.278.178 2.65 7.79 5.678 15.461 8.505 23.192-.915-.024-2.72-.071-3.635-.083a565.333 565.333 0 0 0-2.625-6.829c-2.66-.001-5.322.011-7.982.035-1.319 2.952-1.508 7.849-6.034 7.185 2.53-8.003 5.797-15.734 8.493-23.678Zm1.33 4.66a300.45 300.45 0 0 1-2.565 8.619c1.924-.035 3.848-.071 5.772-.094-.997-2.869-2.043-5.715-3.206-8.525Zm36.892 18.994c2.875-8.074 5.94-16.066 8.873-24.116 1.924.309 3.552 1.257 3.931 3.308 2.578 6.96 5.262 13.884 7.59 20.926-4.513.38-4.917-4.149-6.212-7.291-2.625-.023-5.249-.023-7.875-.036-1.496 2.952-1.698 8.027-6.307 7.209Zm7.352-10.433c1.925.011 3.849.035 5.773.047-.962-2.822-1.912-5.667-2.874-8.49a295.781 295.781 0 0 0-2.899 8.443Zm16.962-13.221c4.858.356 11.937-1.541 14.538 3.973 2.494 4.576-.641 9.911-5.463 11.073 2.066 2.751 4.109 5.514 6.188 8.241-1.069.023-3.219.059-4.288.083-2.53-3.593-4.989-7.233-7.578-10.766.012 3.592.024 7.173.024 10.766-1.141-.012-2.281-.012-3.409-.024-.024-7.778 0-15.567-.012-23.346Zm3.504 2.977a242.646 242.646 0 0 0-.035 9.307c2.303-.463 5.047-.036 6.971-1.637 1.794-1.232 1.806-3.924.761-5.643-1.972-2.134-5.12-1.624-7.697-2.027Zm47.879-2.965c.772.036 2.316.084 3.088.119 2.804 7.861 5.998 15.591 8.528 23.559-4.477.723-4.751-4.055-5.879-7.055a138.898 138.898 0 0 0-8.29-.119c-1.189 3.13-1.771 7.447-6.106 7.245 2.708-7.979 5.749-15.84 8.659-23.749Zm1.473 4.933a224.046 224.046 0 0 0-2.756 8.263c1.901.036 3.813.06 5.725.071-.95-2.786-1.9-5.584-2.969-8.334Z"/></svg>