<svg xmlns="http://www.w3.org/2000/svg" fill="none" viewBox="0 0 256 256"><path fill="#EB663C" d="M0 0h256v256H0z"/><path fill="#fff" d="M128.176 189.181c-34.243 0-61.984-27.383-61.984-61.181s27.756-61.18 61.984-61.18c34.242 0 61.998 27.397 61.998 61.18s-27.756 61.181-61.998 61.181Zm0-149.181C78.927 40 39 79.4 39 128c0 48.601 39.927 88 89.176 88 49.248 0 89.176-39.399 89.176-88 0-48.6-39.928-88-89.176-88Z"/><path fill="#fff" d="M152.338 128c0 13.157-10.82 23.841-24.149 23.841-13.344 0-24.149-10.684-24.149-23.841 0-13.158 10.82-23.827 24.149-23.827s24.149 10.669 24.149 23.827Z"/></svg>