<svg xmlns="http://www.w3.org/2000/svg" fill="none" viewBox="0 0 256 256"><path fill="#1D1D1D" d="M0 0h256v256H0z"/><path fill="#F9F9F9" d="M113.236 197.42s-1.068-6.309-1.576-8.09c-.648-1.854-.847-4.266-2.892-4.834-2.014-.142-3.695.018-4.66-1.087-.964-1.104 1.983-3.926.416-4.343l-6.684 1.263a5.55 5.55 0 0 0-.548-.583l-4.05-19.273 1.957-3.408 17.855-2.872a38.445 38.445 0 0 0-7.595-5.252 38.187 38.187 0 0 1-5.508-3.932c-6.301 1.861-9.885 3.16-10.857 3.446-3.897 1.16-6.38 5.075-4.542 8.22 3.419 8.519 5.634 18.879 6.904 25.2.02.366.02.703.078 1.153.25 1.901 2.482 4.239 4.377 4.444.169.009.337.009.506 0 2.223-.023 4.834 1.07 6.686 2.069a6.663 6.663 0 0 1 2.414 2.556c.997 1.719 5.259 5.998 7.719 5.313m74.282-43.063c-5.409-5.683-14.46-4.657-16.465-4.372.889 5.244 1.616 9.57 2.069 11.741.521 2.499.902 4.721 1.441 7.621.539 2.9-.816 7.103-1.55 9.602a192.52 192.52 0 0 1-7.973 19.196 52.776 52.776 0 0 1-3.877 6.068 10.87 10.87 0 0 1-3.088 2.536 29.754 29.754 0 0 0-5.879 3.324 6.55 6.55 0 0 0-2.757 4.218c-.108.303 7.471-.018 11-.2 1.246-.403 1.261-.745 1.541-1.599.543-1.823.738-3.623 2.579-4.236 1.218-.208 1.618 1.907 2.224 1.4.935-.786 1.762-4.384 2.409-5.761 2.58-5.829 5.197-11.655 13.74-24.984 1.439-2.485 4.127-5.375 3.736-6.991a27.26 27.26 0 0 1-1.344-8.557c-.073-2.931 1.547-7.081 2.192-8.999M96.929 47.135c-.389-1.703-1.618-1.24-1.93-.155-3.255 11.277-5.724 7.747-6.712 6.43a49.985 49.985 0 0 1-4.51-7.166c-1.223-2.617-2.98-1.998-2.613.74.393 2.927 1.805 8.602-.623 9.349-3.107.958-7.084-5.477-8.729-8.548-.855-1.613-2.736-.81-2.228.953.575 2 .973 3.2 1.585 5.282.228.82-.194 1.69-1.272 2.348-2.341 1.435-8.156-5.838-9.326-6.803-1.17-.964-2.264-.022-1.671 1.174.29.58 4.032 8.237 10.369 11.828 8.078 4.566 16.276 4.729 20.73 6.142.267-.19.529-.376.788-.599a22.953 22.953 0 0 0 5.024-6.175c3.143-5.951 1.494-13.132 1.118-14.8Z"/><path fill="#F9F9F9" d="M207.785 164.818c4.046 6.129 3.664 5.015 2.152 13.122a268.597 268.597 0 0 0-3.753 29.94c-.045.94.587 2.902-.054 3.335-.64.433-2.223-2.177-3.62.251-.853 1.485-.026 4.128-1.655 4.283a67.109 67.109 0 0 1-10.685.073c-1.023-.2 2.279-4.005 3.703-5.023 1.457-1.044 2.763-1.676 3.831-2.379a10.599 10.599 0 0 0 2.926-4.365 120.955 120.955 0 0 0 1.391-12.581c.222-4.973-.169-12.872-.169-12.872a92.813 92.813 0 0 0-10.948-23.433 23.816 23.816 0 0 0-5.53-5.843 19.438 19.438 0 0 0-10.038-3.945 44.94 44.94 0 0 0-6.765-.135c-5.515.051-12.928 1.909-17.027 3.377a61.727 61.727 0 0 1-21.451 2.945l1.187 59.336c-.729 1.448-2.895-2.005-4.17-1.282-1.26.728-1.445 2.418-1.981 4.366-.968 1.896-3.356 1.606-5.294 1.885-1.848.142-8.222-.076-8.222-.076-.178-2.532 4.891-5.79 6.73-6.514 1.174-.463 1.713-.681 2.796-1.109 1.472-1.641 3.669-3.962 4.063-6.553.544-8.754-.159-12.512-1.313-21.246-.97-1.794-2.705-3.952-3.216-5.162-.223-.526-2.546-12.908-4.239-18.511a25.58 25.58 0 0 0-1.83-4.036c-1.762-2.938-4.447-4.908-6.506-6.406a28.555 28.555 0 0 1-2.897-2.508l.017-.004a23.268 23.268 0 0 1-6.937-14.386 44.412 44.412 0 0 0-8.914-19.693c.36-2.281.23-4.612-.38-6.838-1.88 5.27-1.942 5.264-4.756 9.206-.267-1.249-.661-3.408-1.309-5.863-2.46 2.513-5.815 5.747-7.995 6.925.235-1.12.383-2.258.445-3.4.217-2.448.687-5.7.089-9.155-1.29 1.784-2.805 3.585-4.059 4.171 0 0 .743-10.814-.603-13.032-5.549-5.492-10.743-3.438-10.743-3.438-.356 1.095-2.288 4.707-5.05 4.785-.643.027-.78-.32-1.08-1.113-.224-.579-.937-3.53-.937-3.53l-3.505 1.925c-1.44-.031-3.514-6.457-3.484-7.852.03-1.395 1.309-2.816 3.914-4.98 2.605-2.165 5.02-3.054 6.474-3.124 1.454-.07 18.598-.073 18.598-.073s2.906-3.413 6.883-3.301c.164 0 5.02.26 5.926.209 4.072-.24 10.05-5.765 13.883-11.287 2.246-3.235 3.577-7.887 4.297-11.195.546-2.33.962-4.689 1.246-7.065.233-2.09 2.68-2.41 2.625.348a63.13 63.13 0 0 0 .363 10.814c.988 5.946 4.644 5.308 10.347-.33a39.998 39.998 0 0 0 6.581-7.865c1.441-2.182 2.98-.945 2.608.463-.528 2.013-1.562 4.657-3.938 10.247-1.411 3.317 1.634 8.377 10.139.954a41.942 41.942 0 0 0 7.418-8.502.942.942 0 0 1 1.554 1.022c-.466 1.573-1.2 3.276-3.446 6.825-2.245 3.55-3.049 4.713-3.706 5.617-1.245 1.73-.26 4.54 2.818 3.903 2.948-.605 6.617-3.53 8.457-5.435 1.607-1.663 3.201-1.173 1.589 1.646a53.367 53.367 0 0 1-3.691 5.321c-1.015 1.339-.146 2.847 2.767 2.479 5.992-.754 9.589-4.42 11.829-7.42 1.382-1.849 2.757-1.16 2.334.358a21.168 21.168 0 0 1-8.711 11.581c-7.84 5.413-19.521 6.575-31.688.372-10.728-5.464-21.427-2.424-24.095 2.097.74-.055 5.727-.936 10.256-.044a27.446 27.446 0 0 1 8.151 2.907 11.908 11.908 0 0 1-4.158 3.123 22.806 22.806 0 0 1-12.287 2.24c-1.043-.083 2.432 2.52 5.651 3.07 5.535.947 10.718-1.729 12.04-2.39 3.359.186 7.459 1.792 11.405 4.169 6.209 3.743 9.018 10.26 12.554 11.729 12.343 5.123 22.134-.811 39.152-.811 12.851 0 21.439 11.131 23.164 14.253 1.37 2.486 3.166 6.793 2.304 7.978-.703.96-1.886.124-2.571-.868a11.288 11.288 0 0 0-3.015-2.827c1.699 8.392.374 15.018-2.2 22.775 1.736 8.22 3.027 15.757 7.955 23.365M80.125 81.093a2.596 2.596 0 0 1 2.32-1.713 2.591 2.591 0 0 1 2.468 1.494l.375-.15a2.765 2.765 0 0 0-.113-1.228 2.798 2.798 0 0 0-1.34-1.59 2.784 2.784 0 0 0-2.064-.221c-.69.194-1.28.647-1.647 1.265a2.812 2.812 0 0 0-.325 2.056l.326.087Z"/></svg>