<svg xmlns="http://www.w3.org/2000/svg" fill="none" viewBox="0 0 256 256"><path fill="#CE7F10" d="M0 0h256v256H0z"/><g clip-path="url(#a)"><mask id="b" width="188" height="98" x="34" y="79" maskUnits="userSpaceOnUse" style="mask-type:luminance"><path fill="#fff" d="M34.083 79.28h187.645v97.423H34.083V79.28Z"/></mask><g fill="#fff" mask="url(#b)"><path d="M81.792 132.448c-1.95-.532-4.39-.975-7.183-1.33-1.818-.222-3.148-.444-3.99-.665-.843-.222-1.286-.621-1.286-1.153 0-1.109 1.552-1.641 4.7-1.641 3.635 0 6.96.843 10.02 2.528L88 120.741c-1.774-.931-3.902-1.64-6.43-2.128a40.613 40.613 0 0 0-7.715-.754c-3.769 0-7.005.532-9.666 1.596-2.704 1.065-4.7 2.484-6.074 4.257-1.375 1.774-2.04 3.77-2.04 6.031 0 2.838.754 5.011 2.261 6.519 1.508 1.507 3.237 2.527 5.232 3.059 1.996.533 4.39.976 7.228 1.286 1.862.222 3.192.444 4.035.621.842.222 1.241.577 1.241 1.153 0 .532-.31.976-.975 1.242s-1.818.399-3.459.399c-2.084 0-4.212-.266-6.429-.843-2.217-.532-4.124-1.33-5.72-2.261l-3.946 9.445c1.774 1.02 4.124 1.818 6.961 2.483 2.882.621 5.809.932 8.735.932 3.858 0 7.139-.533 9.844-1.597 2.704-1.064 4.744-2.483 6.074-4.257 1.33-1.774 2.04-3.725 2.04-5.898 0-2.838-.754-5.01-2.262-6.518-1.418-1.463-3.148-2.528-5.143-3.06Z"/><path d="M134.644 118.48h-16.937l-9.977 10.11v-17.87c1.419-1.198 2.661-2.528 3.636-4.08 1.729-2.749 2.572-5.809 2.572-9.312 0-3.459-.843-6.563-2.572-9.312-1.729-2.75-4.124-4.834-7.183-6.386-3.059-1.552-6.562-2.261-10.42-2.261-3.857 0-7.316.753-10.375 2.261-3.06 1.508-5.454 3.636-7.183 6.386-1.73 2.749-2.616 5.809-2.616 9.312 0 3.459.886 6.563 2.616 9.312 1.729 2.749 4.123 4.878 7.183 6.43 2.97 1.508 6.296 2.261 9.976 2.306v37.869h14.322v-8.203l2.305-2.483 8.425 10.642h17.337l-15.475-19.689 14.366-15.032ZM88.132 97.328c0-2.173.532-3.814 1.596-5.011s2.395-1.774 4.08-1.774c1.64 0 3.015.577 4.079 1.774 1.064 1.197 1.596 2.838 1.596 5.01 0 2.174-.532 3.859-1.596 5.056s-2.395 1.818-4.08 1.818c-1.64 0-3.015-.621-4.079-1.818-1.064-1.197-1.596-2.882-1.596-5.055Z"/><path d="M169.496 126.506c-1.73-2.749-4.124-4.833-7.183-6.385-3.06-1.508-6.563-2.262-10.42-2.262-3.858 0-7.316.754-10.376 2.262-3.059 1.507-5.453 3.636-7.183 6.385-1.729 2.749-2.616 5.809-2.616 9.312 0 3.459.887 6.563 2.616 9.312 1.73 2.75 4.124 4.878 7.183 6.43 3.06 1.552 6.518 2.306 10.376 2.306 3.902 0 7.36-.754 10.42-2.306 3.059-1.552 5.453-3.68 7.183-6.43 1.729-2.749 2.571-5.809 2.571-9.312 0-3.503-.842-6.563-2.571-9.312Zm-13.524 14.323c-1.064 1.197-2.394 1.818-4.079 1.818-1.641 0-3.015-.621-4.079-1.818-1.065-1.197-1.597-2.882-1.597-5.055 0-2.173.532-3.814 1.597-5.011 1.064-1.197 2.394-1.774 4.079-1.774 1.64 0 3.015.577 4.079 1.774 1.064 1.197 1.596 2.838 1.596 5.011-.044 2.173-.576 3.858-1.596 5.055ZM58.07 114.711h14.322V94.933c0-5.188-1.286-9.09-3.902-11.662-2.572-2.617-6.03-3.903-10.287-3.903-2.084 0-3.99.355-5.764 1.02-1.773.665-3.325 1.685-4.7 3.06v-3.414H34.082v34.721h14.322V98.436c0-2.394.487-4.168 1.507-5.277.976-1.108 2.306-1.685 3.902-1.685 2.838 0 4.257 1.996 4.257 5.987v17.25Zm73.648-15.388c0-5.01 2.439-7.494 7.361-7.494.975 0 2.039.089 3.192.266V79.368c-4.966 0-8.69 1.464-11.218 4.39v-3.724h-13.656v34.721h14.321V99.323Zm28.954 0c0-5.01 2.439-7.494 7.36-7.494.976 0 2.04.089 3.193.266V79.368c-4.966 0-8.691 1.464-11.218 4.39v-3.724H146.35v34.721h14.322V99.323Zm29.176 16.141c4.877 0 8.557-2.305 10.73-5.055v4.169h12.459V80.167h-12.459v4.257c-2.217-2.75-5.897-5.144-10.73-5.144-10.154 0-17.869 8.07-17.869 17.915 0 9.445 7.981 18.269 17.869 18.269ZM191 90.632c3.326 0 6.075 2.705 6.075 6.075a6.056 6.056 0 0 1-6.075 6.075c-3.325 0-6.074-2.705-6.074-6.075s2.749-6.075 6.074-6.075Zm5.144 66.161c-4.301 0-7.006.532-9.533 1.552l2.571-5.144a25.49 25.49 0 0 0 5.632.621c3.902 0 7.36-.754 10.419-2.306 3.06-1.552 5.454-3.681 7.183-6.43 1.73-2.749 2.572-5.809 2.572-9.312 0-.887-.044-1.774-.177-2.616l6.917-6.918-8.646-8.647-4.567 4.567a21.377 21.377 0 0 0-3.237-2.084c-3.06-1.508-6.562-2.261-10.42-2.261-3.858 0-7.316.753-10.376 2.261-3.059 1.508-5.453 3.636-7.183 6.386-1.729 2.749-2.616 5.809-2.616 9.312 0 3.459.887 6.563 2.616 9.312.4.621.799 1.153 1.242 1.685l-8.336 16.452 8.159 8.159c4.744-2.306 8.424-3.459 14.055-3.459 7.006 0 10.597 3.282 12.46 8.736l12.991-3.681c-3.547-10.642-11.617-16.185-21.726-16.185Zm-5.365-25.986c1.064-1.197 2.394-1.773 4.079-1.773 1.641 0 3.015.576 4.079 1.773 1.064 1.198 1.596 2.838 1.596 5.011s-.532 3.858-1.596 5.055c-1.064 1.198-2.394 1.819-4.079 1.819-1.641 0-3.015-.621-4.079-1.819-1.064-1.197-1.597-2.882-1.597-5.055 0-2.173.533-3.858 1.597-5.011Z"/></g></g><defs><clipPath id="a"><path fill="#fff" d="M34 79h188v98H34z"/></clipPath></defs></svg>