<svg xmlns="http://www.w3.org/2000/svg" fill="none" viewBox="0 0 256 256"><path fill="#096BB3" d="M0 0h256v256H0z"/><path fill="#fff" d="M97.733 49.037c17.677-13.248 42.617-15.293 63.068-7.452.014 14.66 0 29.32 0 43.98-21.018-12.185-42.09-24.276-63.068-36.528Zm68.391-5.125c20.035 9.752 34.64 29.508 37.995 51.513-12.665 7.329-25.344 14.659-38.008 21.99 0-24.506-.015-48.998.013-73.503Zm-98.909 67.073c-1.832-22.218 8.139-44.733 25.439-58.72 12.692 7.316 25.37 14.66 38.062 22.003-21.166 12.253-42.32 24.506-63.5 36.717Zm.689 5.757c12.597-7.397 25.275-14.647 37.914-21.977-.014 25.931.013 51.875-.014 77.807-.122 12.171-2.937 25.056-11.264 34.363-6.669 7.625-16.612 11.755-26.61 12.481-.04-34.215.027-68.445-.026-102.674Zm73.374 21.156a27244.858 27244.858 0 0 1 63.515-36.731c1.792 22.232-8.151 44.76-25.491 58.721a89366.963 89366.963 0 0 1-38.024-21.99Zm-30.153-11.351c21.14 12.346 42.468 24.343 63.487 36.892-18.377 12.387-42.629 15.158-63.339 7.209-.349-14.687-.054-29.401-.148-44.101Z"/></svg>