<svg xmlns="http://www.w3.org/2000/svg" fill="none" viewBox="0 0 256 256"><path fill="#1D1D1D" d="M0 0h256v256H0z"/><path fill="#E2E2E2" d="M67.308 76h6.453c3.676.294 7.66.629 10.675 2.986 3.332 2.718 4.705 7.228 4.528 11.41-.14 2.453-.767 5.11-2.665 6.817-1.822 1.613-3.973 2.832-6.247 3.679.256.661.864 1.055 1.52 1.257 2.553.826 5.38.456 7.774-.696.012 5.036-.029 10.073-.085 15.107-5.292.693-10.734.949-15.988-.162-1.602-.388-3.306-.808-4.52-2.007-2.78-2.58-3.902-6.482-4.049-10.176-.996.112-1.992.22-2.988.338.012 4.146-.023 8.295.018 12.441-6.932.744-13.846 1.752-20.64 3.333a9489.095 9489.095 0 0 1-.009-40.948C49.718 77.551 58.49 76.373 67.308 76Zm-5.59 13.47c-.002 1.534-.002 3.065 0 4.596 1.805.023 3.627-.003 5.405-.338 1.187-.253 2.591-1.085 2.539-2.46-.127-1.234-1.393-1.93-2.516-2.063-1.81-.164-3.635.024-5.427.265ZM94.48 76h.18c12.05.54 24.077 1.507 36.104 2.439.015 4.98.006 9.964.003 14.948-4.992-.65-9.985-1.314-14.977-1.969-.009 1.44-.003 2.88-.009 4.323 4.237.34 8.472.69 12.709 1.008.02 4.437-.021 8.874.02 13.311-4.24-.324-8.48-.67-12.717-1.017a919.473 919.473 0 0 0 0 8.63c-7.1-.438-14.196-1.002-21.31-1.205-.009-13.487 0-26.978-.003-40.468ZM178.875 79.253c7.238-.38 14.437-1.258 21.61-2.272-.191 7.922-.291 15.845-.526 23.764 5.377-.844 10.702-2.01 16.041-3.039-.035 5.789-.003 11.575-.015 17.361.118.508-.505.414-.802.514-11.983 2.028-24.086 3.535-36.252 3.788-.111-13.37 0-26.743-.056-40.116ZM140.153 79.982c3.728-1.67 7.892-1.81 11.909-1.928 7.205.117 14.443.673 21.48 2.283.006 4.802-.135 9.597-.088 14.399-2.462-1.608-5.454-2.054-8.322-2.34-1.901-.138-3.908-.423-5.715.347a3.196 3.196 0 0 0-1.951 2.636c3.503.126 7.046.485 10.382 1.613 2.391.829 4.683 2.304 5.921 4.576 1.495 2.753 1.53 6.038 1.137 9.073-.388 2.83-1.766 5.607-4.152 7.261-3.45 2.448-7.822 2.954-11.93 3.168-8.302.262-16.573-.999-24.634-2.897.062-5.472.421-10.946.632-16.417 2.992 1.957 6.565 2.756 10.056 3.267 2.133.226 4.448.641 6.452-.37.867-.388 1.299-1.293 1.452-2.183-3.982-.241-8.037-.673-11.754-2.207-2.489-1.02-4.76-2.874-5.715-5.457-1.037-2.809-.952-5.95-.259-8.833.629-2.668 2.613-4.887 5.099-5.991Z"/><path fill="#FAA61A" d="M70.913 134.772c8.54-.17 17.088-.303 25.624.076-.03 15.254.056 30.51-.041 45.761H70.91c-.021-15.28-.021-30.557.002-45.837Z"/><path fill="#702C91" d="M190.274 138.595c8.598-.673 17.16-1.698 25.714-2.777-.026 14.93.039 29.861-.032 44.791h-25.618c-.149-5.086-.02-10.179-.064-15.268v-26.746Z"/><path fill="#00AB4E" d="M130.629 139.594c8.501.961 17.028 1.801 25.588 2.01.097 13 .027 26.002.035 39.005h-25.564a17.542 17.542 0 0 1-.071-1.466c.015-13.185-.003-26.367.012-39.549Z"/><path fill="#ED1C24" d="M41 143.952c8.433-1.99 17.049-3.203 25.697-3.697.014 13.45.041 26.902-.012 40.354H41.068a15.817 15.817 0 0 1-.068-1.178v-35.479Z"/><path fill="#FD0" d="M100.724 140.631c8.592.509 17.169 1.317 25.714 2.369-.023 12.535.039 25.074-.032 37.609h-25.629c-.088-1.084-.05-2.168-.053-3.253v-36.725Z"/><path fill="#0071BC" d="M160.451 144.83c8.545.027 17.093-.12 25.626-.596.003 12.124.041 24.251-.017 36.375h-25.585c-.059-11.924-.015-23.851-.024-35.779Z"/></svg>