<svg xmlns="http://www.w3.org/2000/svg" fill="none" viewBox="0 0 256 256"><path fill="#FDC800" d="M0 0h256v256H0z"/><g clip-path="url(#a)"><mask id="b" width="218" height="81" x="19" y="88" maskUnits="userSpaceOnUse" style="mask-type:luminance"><path fill="#fff" d="M19.046 88.16h217.682v80.421H19.046V88.16Z"/></mask><g mask="url(#b)"><path fill="#000" d="M131.872 90.67c2.291-3.212 7.808-2.97 9.844.4 1.689 3.03 1.329 7.11-1.052 9.68 3.059 5.319 3.993 11.46 5.745 17.259-.076-3.017-.008-6.042-.118-9.059.017-1.434-1.163-2.438-1.549-3.749-.577-2.225.373-4.918 2.558-5.876 1.999-.898 4.176-.025 6.255-.149 2.024-.098 4.167-.527 6.093.336 1.503.592 2.653 1.775 3.654 3.005.768-1.898 2.567-3.34 4.697-3.077 3.166.421 6.408-.268 9.527.545 1.777.425 3.22 1.608 4.493 2.872.802-.881 1.659-1.936 2.954-1.983 2.983-.204 5.949.404 8.932.434 1.163-.013 2.223-.587 3.373-.698 1.167-.021 1.986.932 2.831 1.596 2.062-.685 4.383-.868 6.445-.072 1.804.829 2.478 2.88 3.28 4.548.56-1.515 1.345-3.217 3.03-3.719 3.059-.915 6.946.051 8.41 3.128 1.235-1.187 2.669-2.392 4.477-2.43 2.194-.383 3.832 1.489 5.928 1.698 1.79.208 2.622 2.059 3.106 3.579 1.031 3.472 1.583 7.123 1.392 10.752-.055 1.953-.773 3.898-2.258 5.208 2.847 6.089 3.038 13.068 2.041 19.617-.509 2.918-1.434 6.038-3.781 8.016-1.845 1.587-4.633 1.642-6.738.562-2.576-1.289-4.566-3.494-6.097-5.889-.879.966-2.012 1.991-3.433 1.676-2.012-.268-2.894-2.332-3.505-4.008-.578-1.506-1.171-3.004-1.732-4.515-.437 1.579-1.001 3.409-2.639 4.119-2.737 1.136-5.847-.127-7.757-2.217l-1.807.575c2.639 5.059 4.459 10.493 6.704 15.731.522 1.493 2.427 1.863 2.89 3.395.874 2.153-.467 4.711-2.64 5.387-2.961.953-6.148.702-9.203.477-1.668-.102-3.263-.779-4.371-2.051-2.987 2.932-7.799 2.562-11.436 1.204-3.687 1.094-7.816 1.468-11.414-.149-3.272 2.064-8.02 2.089-10.787-.851-2.359 1.945-5.567 2.013-8.465 1.804-1.511-.093-2.932-.655-4.273-1.319-.671.494-1.299 1.085-2.113 1.328-1.417.17-2.801-.345-4.218-.362-2.686-.059-5.372.004-8.062-.012-2.224-.026-4.566.225-6.641-.762-.934.608-1.969 1.344-3.153 1.063-3.497-.561-7.044-.212-10.566-.306-2.317-.047-4.697.255-6.933-.493-2.139 1.604-4.71.336-7.1.485-3.398.025-6.802-.056-10.2.11-1.146.064-2.258-.242-3.336-.587-3.131.996-6.534 1.374-9.755.613-2.062-.477-3.933-2.268-3.874-4.498-.208-1.676 1.264-2.787 1.748-4.242.153-1.421.055-2.855.123-4.285-1.896 2.791-5.032 4.459-8.36 4.74 1.045 1.038 2.33 2.157 2.267 3.779.14 2.323-1.935 4.076-4.04 4.523-2.681.587-5.524.566-8.21.013-2.075-.396-3.98-2.247-3.667-4.494-.042-1.472 1.43-2.208 1.927-3.421.207-3.063.093-6.144-.038-9.208-.747-.545-1.617-1.017-2.059-1.868-.504-.928-.313-2.021-.352-3.029-1.544.246-3.127.195-4.57-.465-1.85 3.345-6.22 5.405-9.857 3.839-1.498 2.608-4.158 4.153-6.938 5.055-1.846.349-3.861-.102-5.393-1.2-1.702-1.26-2.08-3.494-2.38-5.455-.442-3.506-.815-7.072-.438-10.6.11-1.544.955-2.868 2.033-3.919-1.795-4.689-2.028-9.812-1.566-14.765.373-3.579 1.218-7.187 3.055-10.314 1.125-1.919 2.92-3.617 5.186-3.979 1.281-.251 2.525.26 3.747.575 1.659-.341 3.496.098 4.307 1.723 1.62 3.115 2.091 6.749 2.087 10.225-.008 2.281-.67 4.621-2.414 6.187a40.847 40.847 0 0 1 1.62 3.332c.654-3.621 1.35-7.247 1.757-10.906.387-3.426-.267-7.127 1.503-10.259.92-1.907 3.182-3.26 5.287-2.553 2.045.651 3.114 2.71 3.836 4.587 2.592 6.851 3.085 14.237 4.77 21.318.211-4.911.326-9.838.067-14.748.03-1.673-1.447-2.809-1.748-4.387-.437-2.298.174-4.958 2.053-6.468 1.83-1.332 4.278-1.596 6.454-1.196 1.838.485 2.665 2.375 3.45 3.923.45-1.485.99-3.127 2.402-3.97 2.211-1.28 4.948-1.119 7.328-.442 1.97-.851 4.189-1.226 6.302-.762 1.748.489 2.541 2.302 3.407 3.728.475-1.554 1.23-3.217 2.835-3.877 2.817-1.336 5.877.12 8.796-.315 2.69-.263 5.397-.14 8.088-.378 1.536-.107 3.012-1.277 4.561-.609 1.799.728 2.394 2.762 2.903 4.451 2.075-3.034 5.745-5.323 9.517-4.472 1.507.442 3.064.366 4.613.451 1.689.447 2.516 2.213 3.059 3.727 1.066 3.238 1.239 7.034-.619 10.021.56.336 1.129.677 1.693 1.017.704-2.783 1.438-5.591 1.4-8.484a9.459 9.459 0 0 1 1.154-4.834c-2.062-2.736-2.287-6.826-.339-9.68Zm3.127.634c-2.138.902-2.423 3.787-1.841 5.762.521 2.783 5.062 3.148 6.135.604.692-1.562.658-3.447-.033-5-.786-1.51-2.763-1.842-4.261-1.366Zm-30.658 10.421c-3.085.417-6.233.055-9.314.532-.98.072-1.073 1.31-1.107 2.081-.102 1.217 1.196 1.868 1.46 2.966.313 1.399.318 2.846.364 4.271-.008 4.83.132 9.685-.517 14.481-.102 1.285-1.256 2.144-1.507 3.361-.017.685-.127 1.779.794 1.885 4.404-.242 8.788-1.472 13.214-.923 1.222-3.153 2.333-6.659 1.408-10.038l-1.37-.064c-.709 1.719-.909 3.817-2.372 5.106-1.21.83-2.945 1.222-4.29.52-.386-1.192-.357-2.464-.399-3.698.017-1.553-.17-3.272.831-4.587.446.336.896.672 1.341 1.017.272 1.136.077 2.493.913 3.417 1.01-.545 1.209-1.771 1.396-2.796.377-2.715.437-5.498.029-8.212-.191-.775-.267-1.924-1.324-1.902-.971 1.187-.606 2.842-1.158 4.191-.539.672-1.349.425-2.011.123.085-2.178-.229-4.399.225-6.548.492-1.341 2.282-1.03 3.394-.89 1.664.285 1.816 2.269 2.686 3.405 1.082.672 1.46-.954 1.609-1.736.174-2.209.085-4.643-1.172-6.549-1.078-.098-2.066.468-3.123.587Zm8.211 4.008c-2.274 4.4-2.724 9.591-1.901 14.434.586 3.119 1.804 6.369 4.405 8.348 1.879 1.481 4.625 1.749 6.721.583 2.258-1.187 3.628-3.553 4.248-5.961.339-1.162.318-2.545 1.353-3.362 1.545-1.179 1.074-4.034-.802-4.6-1.926-.702-4.188-.672-6.021.286-1.366.689-1.723 2.599-1.023 3.884.577.469 1.282.737 1.889 1.166.411 1.315-.106 2.63-.896 3.677-1.129-.43-2.244-1.106-2.749-2.264-1.35-2.817-1.693-6.004-1.672-9.093.102-2.179.305-4.608 1.879-6.272.646-.719 1.829-.851 2.585-.217 1.595 1.263 1.888 3.497 3.331 4.889 1.625.711 2.304-1.341 2.435-2.583.187-2.468-.084-5.272-1.773-7.208-.658.085-1.273.332-1.901.519-1.367-.6-2.835-1.225-4.362-.923-2.619.34-4.566 2.468-5.746 4.697Zm22.273-4.463c-1.489 1.085-1.396 3.089-1.426 4.736-.012 3.255-1.009 6.378-1.782 9.51-.721 2.697-1.336 5.425-2.193 8.084-.242.924-.955 1.575-1.583 2.239-.862.74-.836 2.272-.098 3.08 1.12.66 2.491.668 3.755.622 1.091-.043 2.461-.554 2.593-1.813.352-1.243-.942-2.03-1.413-3.034-.148-.804.488-1.4.887-2.008 1.515.093 3.131-.111 4.553.523.844.626.738 1.957-.076 2.579-1.235.965-.815 3.178.662 3.655 1.778.536 3.67.621 5.516.578 1.141-.004 2.508-.57 2.627-1.867.547-1.817-1.689-2.549-1.94-4.166-1.345-4.843-2.55-9.727-3.891-14.574-.819-2.617-1.616-5.327-3.229-7.583-.641-.931-2.054-1.378-2.962-.561Zm-47.291 1.14c-1.138 1.021-1.197 2.983-.272 4.17 1.222 1.541.95 3.587.959 5.421-.119.8.195 2.043-.866 2.277-2.21-2.877-3.814-6.17-5.707-9.259-.636-.941-1.107-2.26-2.33-2.553-1.18-.141-2.43-.013-3.513.506-1.23.63-1.46 2.221-1.328 3.468.53 1.289 1.808 2.268 1.76 3.787.438 5.557.17 11.152-.114 16.718-.012 1.315-.534 2.527-1.192 3.643-.747 1.259-.755 3.416.755 4.101 2.185.579 5.194-.617 5.457-3.123.547-1.821-1.583-2.91-1.451-4.693-.08-2.604-.42-5.417.76-7.834 2.524 3.332 4.46 7.063 6.708 10.587.79 1.132 1.345 2.859 3.004 2.795 1.248-3.246.883-6.808 1.019-10.212.174-4.57-.106-9.165.403-13.714.055-1.609 1.926-2.489 1.731-4.166.094-1.089-.577-2.289-1.744-2.383-1.34-.11-2.83-.225-4.04.464Zm59.962 2.894a5.03 5.03 0 0 1 1.154 3.246c.076 4.834.254 9.676.068 14.51.03 1.234-.56 2.319-1.184 3.341-.853 1.246-.094 3.02 1.209 3.603 1.609.771 3.476.937 5.232.741.896-.051 1.749-.766 1.719-1.715.267-1.625-1.354-2.715-1.379-4.285-.204-2.119-.25-4.259.038-6.374.573.409 1.379.655 1.617 1.396 1.213 3.336.874 7.097 2.427 10.331.9 2 3.479 2.864 5.444 2 .984-.46 1.32-1.672 1.281-2.677-.017-1.233-1.357-1.846-1.612-2.982-.437-2.319-.339-4.766-1.273-6.97-.501-1.213-1.642-2-2.228-3.158 2.232-2.574 2.64-6.22 1.897-9.454-.394-2.111-1.744-4.162-3.789-4.958-1.91-.557-3.896.077-5.835-.029-1.4 0-2.834-.545-4.205-.073-1.243.651-1.528 2.477-.581 3.507Zm18.929-3.03c-.946.587-1.001 1.877-.789 2.855.399 1.077 1.583 1.792 1.549 3.038.186 6.089.31 12.196.021 18.28.178 1.464-1.914 1.936-1.574 3.434-.157 1.238.581 2.775 1.994 2.711 2.75.153 5.376.991 8.049 1.561 1.732.443 3.599-.31 4.706-1.681 1.681-2.046 2.254-4.731 2.64-7.284.641-4.702.403-9.519-.586-14.153-.708-2.821-1.723-5.868-4.163-7.655-2.27-1.574-5.147-.923-7.722-1.085-1.371.021-2.788-.413-4.125-.021Zm-98.793 1.842c-.517 1.056-.657 2.422-.072 3.485 1.842 2.723 1.294 6.281.734 9.328-1.88-2.047-2.893-4.694-4.294-7.06-1.18-1.978-1.965-4.221-3.462-5.991-2.147-.677-5.461.238-5.428 2.97-.458 1.719 1.027 2.872 1.54 4.332.42 2.221.387 4.498.383 6.748.012 4.702-.013 9.413-.403 14.102-.038 1.834-1.613 3.225-1.537 5.068-.03 1 .191 2.344 1.32 2.659 2.559.507 5.474-1.608 5.296-4.361.212-1.596-1.384-2.651-1.405-4.208-.148-2.839-.288-5.775.407-8.553.175-.017.522-.047.7-.06 2.105 3.23 3.756 6.744 5.772 10.034.802 1.191 1.268 2.706 2.393 3.621 1.396.455 1.515-1.413 1.71-2.349.7-7.732.195-15.514.764-23.254-.072-2.051 2.151-3.37 1.799-5.46-.034-1.025-.64-2.199-1.795-2.225-1.498-.153-3.471-.243-4.422 1.174Zm117.383-.519c-.87.217-1.086 1.213-1.035 1.992-.153 1.642 1.693 2.565 1.676 4.199.683 6.672.73 13.421.399 20.119.068 1.336-.879 2.315-1.481 3.4-.153 1.067.093 2.565 1.315 2.885 4.197 1.323 8.703 1.82 12.577 4.025.938-2.651 1.392-5.447 1.541-8.247.059-1.685-.005-3.621-1.443-4.757-.832 1.511-.997 3.255-1.651 4.83-.963 2.553-5.631 1.455-5.384-1.273-.162-2.51-.438-5.08-.009-7.574.666-.714 1.498.183 1.71.864.425 1.281.467 2.647.692 3.966.31.004.929.008 1.239.013.849-3.724.793-7.587.416-11.366-.251-1.336-.064-3.331-1.791-3.668-.386 1.528-.48 3.102-.62 4.664-.297.136-.886.404-1.184.536-1.544-1.345-.942-3.574-1.098-5.379.097-1.344-.357-3.093.958-3.986 1.083-.166 2.262.072 3.17.706 1.583 1.247 1.12 3.97 3.098 4.834 1.074-2.924.683-6.149-.051-9.102-.267-.736-.526-2.166-1.6-1.694-3.759 1.03-7.642-.306-11.444.013Zm16.099 1.124c-.848.553-1.023 1.655-1.082 2.591-.047 2.047 1.961 3.395 1.969 5.451.581 5.391.484 10.825.577 16.237-.157 2.158.238 4.545-.997 6.459-1.927 3.009 1.099 7.375 4.574 6.792 1.193-.222 1.43-1.609 1.468-2.617.132-2.034-1.536-3.592-1.587-5.6-.161-3.072-.492-6.229.238-9.251.611.639 1.133 1.362 1.464 2.187a511.134 511.134 0 0 1 6.734 16.668c.361.915.7 1.881 1.392 2.608.967-.17.98-1.217 1.112-1.991.509-4.928.034-9.872.118-14.808.068-4.974-.127-9.957.098-14.923-.072-1.753 1.651-2.906 1.591-4.65 0-1.477-.157-3.468-1.735-4.111-1.265-.43-2.716-.574-3.993-.123-.811.915-1.01 2.221-.862 3.4.132 1.663 1.507 2.918 1.575 4.599.182 2.63.445 5.349-.259 7.923-1.12-1.664-1.799-3.561-2.61-5.378a412.532 412.532 0 0 0-4.341-9.617c-.462-.859-.891-2.046-2.019-2.148-1.133-.133-2.394-.294-3.425.302Zm-157.664.221c-1.558 1.459-1.77 3.744-1.795 5.753 0 3.051-.293 6.093-.849 9.089-1.154 6.365-2.155 12.765-3.483 19.101-.319 1.97-2.215 3.366-2.059 5.446.022.945.069 2.252 1.18 2.558 2.767-.017 5.69-2.111 5.52-5.111.319-1.434-1.59-2.034-1.378-3.399.123-.966.114-2.281 1.132-2.771a10.47 10.47 0 0 1 3.217-.923c.683-.102 1.485.37 1.472 1.128.442 1.765-1.417 2.944-1.374 4.655-.068 1.047.25 2.621 1.587 2.583a12.826 12.826 0 0 0 5.766-1.855c1.52-.924 2.151-2.839 1.935-4.537-.56-1.021-1.693-1.718-1.782-2.978-1.277-6.23-2.398-12.497-3.56-18.752-.611-3.051-1.396-6.111-2.767-8.915-.462-1.004-1.757-2.012-2.762-1.072Zm-18.696 4.264c-2.177 3.786-2.758 8.254-2.856 12.561 0 4.182.45 8.629 2.77 12.224.973 1.617 2.908 2.183 4.125 3.532.972 1.834.62 4.396-1.01 5.745-1.005.821-2.3-.132-2.779-1.085-1.107-2.145-1.07-4.702-2.249-6.821-1.184.191-1.082 1.689-1.239 2.595-.097 3.694.153 7.43.955 11.042.212 1.43 1.566 2.328 2.932 2.417 2.673.345 5.011-1.591 6.344-3.74 2.652-4.272 3.581-9.421 3.547-14.395.021-3.132-.305-6.442-2.024-9.14-.993-1.613-2.843-2.294-4.243-3.459-1.434-1.379-1.38-3.707-.768-5.468.225-.617.938-1.502 1.633-.928 1.757 1.336 2.211 3.672 3.196 5.545.322.012.963.029 1.285.038 1.617-4.128.629-8.808-1-12.774-.612.158-1.215.328-1.817.515-1.01-.498-1.995-1.221-3.157-1.247-1.672.102-2.826 1.523-3.645 2.843Zm197.865-.737c-2.028 3.039-2.52 6.792-2.631 10.366-.025 6.149 1.723 12.54 5.894 17.182 1.689 1.842 2.228 4.591 1.108 6.876-1.451.064-2.559-1.021-3.204-2.208-1.604-2.664-1.358-6.021-2.86-8.698-.356-.885-1.086.396-1.073.83-.336 3.455.157 6.936.695 10.344.374 2.949 2.445 5.353 4.791 7.004 1.303.936 3.183 1.566 4.613.519 2.109-1.651 2.728-4.472 3.148-6.982.798-5.889.709-12.191-1.922-17.633-1.362-3.098-5.219-4.83-5.185-8.553-.034-1.141.038-3.285 1.697-2.962 2.266 2.068 2.491 5.383 3.917 7.974.929-.319 1.51-1.102 1.527-2.089.323-3.944-.14-8.025-1.633-11.706-.196-1.004-1.261-.362-1.931-.353-.946-.749-1.846-1.655-3.034-1.996-1.625-.361-3.081.805-3.917 2.085Zm-103.609 4.889c.813-.361 1.628-.719 2.445-1.072-.595-1.11-1.172-2.234-1.791-3.327-.382 1.438-.569 2.915-.654 4.399Zm44.682 2.877c.442.672.883 1.345 1.324 2.021.009-1.732-.004-3.459-.046-5.187a129.173 129.173 0 0 1-1.278 3.166Zm34.864.519c.212 2.677.224 5.362.182 8.042l1.4.153c.017-2.927-.029-5.85-.233-8.769l-1.349.574ZM83.808 128.639c.777 2.399-.013 4.795-1.116 6.935 1.345-.766 2.465-1.948 4.06-2.191-1.03-1.549-2.053-3.106-2.944-4.744Zm27.73-.039c-.344.834-.632 1.689-.942 2.536a138.24 138.24 0 0 0 3.246-.404c-.768-.711-1.498-1.464-2.304-2.132Zm13.808 1.383c-.497.051-.807.311-.942.779.309.817 2.007-.515.942-.779Zm-62.169.613c.547 1.298 1.409 2.515 1.49 3.966.13 1.374-.251 2.723-.659 4.021 2.004-.162 3.934.379 5.801 1.03-3.386-1.988-4.413-6.013-6.632-9.017Zm43.35 2.936c-1.549 2.583-2.466 5.629-2.292 8.659.017 1.038.624 1.911 1.171 2.745l1.481-.243c.832-1.74 1.129-3.744 2.309-5.297.912-.72 2.435-.962 3.369-.158.148.809-.132 1.6-.378 2.357-2.397 6.63-4.829 13.251-7.179 19.897-.336 1.013-.802 2.8.598 3.187 5.346.337 10.757-.353 16.078.452 1.638-1.515 2.083-3.873 2.397-5.987.094-1.643.327-3.392-.293-4.958-.348-.983-2.087-1.791-2.503-.455-.887 1.702-.883 4.281-2.949 5.055-1.091.387-2.754.651-3.488-.442.051-1.337.607-2.588 1.01-3.847 2.083-5.825 4.137-11.663 6.233-17.484.484-1.413 1.26-3.613-.378-4.549-5.074.11-10.099 2.004-15.186 1.068Zm30.908-.524c-3.764-.033-7.545-.37-11.3.056-.798.191-1.006 1.162-1.107 1.859-.281 1.707 1.926 2.303 2.07 3.898.649 3.638.369 7.353.565 11.029-.098 3.2-.06 6.43-.611 9.591-.2 1.153-1.439 1.724-1.804 2.787-.089.903.051 2.324 1.197 2.456 5.393.37 10.871-.473 16.213.604 1.227-2.247 1.885-4.762 2.203-7.289.14-1.213.174-2.553-.488-3.63-.289-.71-1.231-.753-1.638-.149-.951 1.558-1.065 3.604-2.47 4.881-1.23 1.094-3.008 1.072-4.549.928-.581-.086-1.341-.281-1.438-.971-.386-2.178-.42-4.425-.31-6.633.093-.749.221-2.06 1.299-1.698 1.714.306 1.489 2.527 1.845 3.821-.055.651.514.923 1.087.881 1.124-.949 1.226-2.532 1.447-3.881.288-2.813.305-5.68-.259-8.459-.217-.804-.505-1.915-1.532-1.906-1.146.957-.879 2.612-1.26 3.914-.111 1.477-2.601 1.468-2.758.047-.208-2.255-.204-4.583.216-6.808.828-1.417 2.885-.791 4.209-.617 2.054.353 2.449 2.668 3.484 4.11.993.66 1.782-.489 1.931-1.374.5-2.706.029-5.617-1.392-7.987-1.634.055-3.212.562-4.85.54Zm9.844.711c-1.061.443-1.621 1.766-1.268 2.847.416.945 1.251 1.621 1.68 2.557.322.987.31 2.047.352 3.072.043 3.983-.114 7.962-.14 11.945-.123 2.084.153 4.455-1.336 6.148-1.07 1.085-1.049 3.094.258 3.974 1.872 1.2 4.227.953 6.344.856 1.298-.12 3.055-.587 3.195-2.158.437-1.689-1.557-2.6-1.608-4.178-.149-2.217-.424-4.54.216-6.706 1.074-.29 1.974.702 2.228 1.659 1.014 3.277.76 6.936 2.448 10 1.189 2.093 3.972 2.178 6.034 1.617 1.537-.354 2.733-1.953 2.326-3.54-.513-.958-1.761-1.464-1.914-2.622-.382-2.28-.28-4.753-1.502-6.804-.641-1.119-2.016-1.629-2.504-2.842.768-.975 1.825-1.745 2.296-2.928.891-2.199.929-4.714.229-6.97-.823-2.591-3.076-4.735-5.767-5.221-2.333-.383-4.718.009-7.039-.446-1.494-.2-3.047-.805-4.528-.26Zm-61.375 2.566c-1.472 2.4-2.427 5.247-2.266 8.085.161 1.064.972 2.97 2.3 2.357 1.383-1.502 1.277-3.881 2.733-5.34 1.026-.834 2.457-.885 3.462.004-2.295 6.91-5.05 13.663-7.65 20.463-.306.915-.688 2.34.356 2.919 5.347.336 10.736-.298 16.065.302.756-.081 1.146-.843 1.468-1.438 1.21-2.545 1.447-5.468 1.117-8.238-.149-1.047-1.291-2.37-2.381-1.617-1.193 1.417-1.04 3.591-2.427 4.885-1.303 1.008-3.132.962-4.57.272 2.278-7.382 5.227-14.548 7.646-21.884.255-1.042.467-2.642-.755-3.144-5.058.57-9.942 2.799-15.098 2.374Zm78.981-1.825a32.399 32.399 0 0 1 2.058 3.004c.458-.703.938-1.396 1.438-2.068-1.188-.226-2.35-.562-3.496-.936Zm15.916 1.408c1.579 1.208 3.039 2.936 2.801 5.068.123 1.536-1.052 2.638-2.126 3.532-.348 3.204-.199 6.433-.233 9.65-.009 1.617-.068 3.247.246 4.842 1.727-3.599 2.97-7.408 4.4-11.126 1.231-2.707.14-6.026 2.156-8.434-1.358-.362-2.839-.519-4.027-1.332-1.086-.762-1.451-2.106-1.88-3.285l-1.337 1.085Zm-10.935 1.425c-.271.711-.874 1.464-.505 2.256.561 1.195 1.736 2.097 1.88 3.476.514 4.255.119 8.544.043 12.812-.123 1.843.089 3.975-1.354 5.383-1.018.911-.895 2.711.361 3.353 2.062 1 4.481.77 6.687.472 1.248-.264 2.996-.536 3.327-2.025.539-1.83-2.024-2.468-1.939-4.213-.14-4.855-.225-9.735.178-14.578-.013-1.37 1.332-2.004 2.037-2.982.326-1.06-.28-2.247-1.214-2.779-2.826-1.698-6.344-1.97-9.501-1.175Zm-92.474.511c-2.164.613-4.693 1.319-5.983 3.31-.717 1.851 1.922 2.311 1.981 3.983.548 3.966.179 7.987.298 11.974-.077 1.302.233 2.821-.667 3.911-.56.834-1.608 1.821-.937 2.893.713 1.132 2.21 1.251 3.415 1.387 2.126.073 4.38.043 6.34-.88 1.277-.575 1.528-2.622.454-3.477-.636-.596-1.392-1.217-1.387-2.174-.412-4.357-.315-8.74-.34-13.11.017-1.039 0-2.107.34-3.098.386-.957 1.285-1.583 1.722-2.51.268-.949-.293-2.06-1.251-2.337-1.307-.344-2.686-.14-3.985.128Zm42.768 13.161c1.634-.817 3.484-.672 5.084.145-.076-4.06.225-8.17-.586-12.178-1.79 3.897-2.911 8.055-4.498 12.033Zm70.028-9.906c-1.227.609-1.087 2.153-1.197 3.306-.072 3.09-1.498 5.885-2.525 8.732-.984 2.387-1.71 4.889-2.915 7.178-.683 1.183-2.724 1.553-2.525 3.179.009 1.374 1.587 1.71 2.669 1.783 1.66.068 3.497.293 5.003-.575.955-.438 1.201-1.974.276-2.561-.352-.528-1.447-.856-1.124-1.613.373-1.808 2.635-1.085 3.933-1.098 1.243.221 3.649.111 3.471 1.932-.556.775-2.02 1.268-1.633 2.425.186 1.094 1.413 1.298 2.316 1.417 2.538.256 5.147.417 7.66-.11.924-.192 2.015-.915 1.735-2.009-.598-.834-1.905-.936-2.27-1.982-2.143-4.843-3.946-9.834-6.115-14.668-.802-1.681-1.587-3.476-3.042-4.702-1.01-.808-2.521-1.387-3.717-.634Zm-130.983 1.894c-2.1.838-4.324 1.306-6.437 2.089-.87.37-1.867 1.183-1.557 2.247.407.6 1.298.442 1.905.698.81 1.174.599 2.655.628 4.004-.064 2.842.09 5.689-.072 8.531.089 1.379-1.545 1.813-1.986 2.932.314 1.532 2.151 1.677 3.412 1.834 2.236.089 4.803.353 6.717-1.047.84-.489.61-1.732-.178-2.149-1.88-1.076-1.6-3.519-1.384-5.353 2.011-.314 4.201-.076 5.992-1.238 3.785-2.089 4.859-7.127 3.547-11.016-.585-1.745-2.257-2.988-4.07-3.175-2.307-.302-4.416.885-6.517 1.643Zm108.934-1.038c-.097 2.651-.53 5.335-1.994 7.604 1.748 2.029 2.343 4.684 2.716 7.267.191-4.008.259-8.021.187-12.029.033-1.034-.391-1.979-.909-2.842Zm-25.464 2.868a70.283 70.283 0 0 1 0 6.361c.981.034 1.961.119 2.941.247-.068-2.694.098-5.383.136-8.072-.951.634-1.995 1.11-3.077 1.464Zm-40.434-.294c-.785 2.302-1.587 4.591-2.478 6.851 2.053-.856 4.404-.379 5.877 1.31a176.525 176.525 0 0 0 1.829-4.961c-.993-.094-2.08.017-2.975-.519-1.014-.63-1.604-1.715-2.253-2.681Zm-18.705 4.519c-.013 2.685.009 5.366.213 8.042 1.04-2.476 1.943-5.008 2.931-7.502-1.056-.115-2.113-.276-3.144-.54Z"/><path fill="#000" d="M135.831 93.27c.271-.88 1.277.132 1.43.6.394 1.251.25 2.77-.717 3.732-1.719-.536-1.532-3.098-.713-4.332Zm18.657 12.808c1.375.204 1.765 1.744 1.871 2.919.158 1.864.302 4.132-1.379 5.387-.246-.2-.747-.6-.993-.8.213-2.481-.526-5.179.501-7.506Zm18.718 1.336c.942-.472 1.871.443 2.359 1.179 1.324 2.31 1.489 5.059 1.731 7.655.187 3.408.361 6.885-.373 10.242-.31 1.213-1.002 2.876-2.495 2.8-1.515-.209-1.486-2.064-1.558-3.23.051-6.076-.411-12.165-.11-18.233.115-.102.335-.311.446-.413Zm-39.226 10.238c.391-1.974.552-4.077 1.634-5.83.802 1.775 1.612 3.617 1.756 5.583-.929.808-2.278.2-3.39.247Zm-91.9 10.569c.262-2.787.509-5.663 1.565-8.284.908 2.055 1.345 4.285 1.66 6.502.483 1.723-2.101 1.791-3.226 1.782Zm113.003 10.592c.916.11 1.977.323 2.215 1.387.687 1.944.674 4.195-.115 6.11-.331.949-1.939 1.489-2.504.519a33.377 33.377 0 0 1 .404-8.016Zm-94.291 7.004c.912-.409 2.151-.166 2.584.812.845 1.723.721 4.004-.5 5.511-.633.672-2.203 1.378-2.623.17-.297-2.051-.242-4.183-.013-6.243.136-.063.412-.191.552-.25Zm130.337 4.467c1.714.805 2.122 2.936 2.635 4.587-.95.894-2.58.17-3.759.009-.611-1.532.678-3.136 1.124-4.596Z"/><path fill="#FDC800" d="M134.999 91.304c1.498-.476 3.475-.145 4.26 1.366.692 1.553.726 3.438.034 5-1.073 2.544-5.614 2.178-6.136-.604-.581-1.975-.297-4.86 1.842-5.762Zm.832 1.966c-.819 1.234-1.006 3.796.712 4.332.968-.962 1.112-2.481.717-3.732-.152-.468-1.158-1.48-1.429-.6Zm-31.49 8.455c1.057-.119 2.045-.685 3.123-.587 1.256 1.906 1.345 4.34 1.171 6.548-.148.783-.526 2.409-1.608 1.737-.87-1.137-1.023-3.119-2.686-3.405-1.112-.14-2.902-.451-3.395.89-.454 2.148-.14 4.37-.225 6.548.662.303 1.473.549 2.012-.123.552-1.349.187-3.004 1.158-4.191 1.057-.022 1.133 1.127 1.324 1.902.407 2.715.348 5.497-.03 8.212-.186 1.025-.386 2.251-1.396 2.796-.835-.924-.64-2.281-.912-3.417-.445-.345-.895-.681-1.341-1.017-1.001 1.315-.815 3.034-.831 4.587.042 1.234.012 2.506.398 3.698 1.346.702 3.081.31 4.29-.52 1.464-1.289 1.664-3.387 2.372-5.106l1.371.064c.925 3.379-.187 6.885-1.409 10.038-4.426-.549-8.809.681-13.213.923-.921-.106-.811-1.2-.794-1.885.25-1.217 1.405-2.076 1.507-3.361.649-4.796.509-9.651.517-14.48-.046-1.426-.05-2.872-.365-4.273-.263-1.097-1.561-1.748-1.46-2.966.035-.77.128-2.008 1.108-2.08 3.08-.477 6.229-.115 9.314-.532Zm8.211 4.008c1.18-2.229 3.127-4.357 5.745-4.697 1.528-.303 2.996.323 4.362.923.628-.187 1.244-.434 1.901-.519 1.689 1.936 1.961 4.74 1.774 7.208-.131 1.242-.81 3.293-2.436 2.583-1.442-1.392-1.735-3.626-3.33-4.889-.756-.634-1.94-.502-2.585.217-1.574 1.664-1.778 4.093-1.879 6.272-.022 3.089.322 6.276 1.671 9.093.505 1.157 1.621 1.834 2.75 2.264.789-1.047 1.307-2.362.895-3.677-.606-.429-1.311-.697-1.888-1.166-.7-1.285-.344-3.195 1.023-3.884 1.833-.958 4.094-.988 6.021-.286 1.876.566 2.347 3.421.802 4.6-1.035.817-1.014 2.2-1.354 3.362-.619 2.408-1.99 4.774-4.247 5.961-2.096 1.166-4.842.898-6.722-.583-2.601-1.979-3.818-5.229-4.404-8.349-.823-4.842-.374-10.033 1.901-14.433Zm22.273-4.463c.908-.817 2.321-.371 2.962.561 1.612 2.256 2.41 4.966 3.229 7.583 1.341 4.847 2.546 9.731 3.891 14.574.251 1.617 2.487 2.349 1.939 4.165-.118 1.298-1.485 1.864-2.626 1.868-1.846.043-3.739-.042-5.516-.578-1.477-.477-1.897-2.69-.662-3.655.814-.622.92-1.953.076-2.579-1.422-.634-3.038-.43-4.553-.523-.399.608-1.035 1.204-.887 2.008.471 1.004 1.765 1.791 1.413 3.034-.131 1.259-1.502 1.77-2.592 1.813-1.265.046-2.636.038-3.756-.622-.738-.808-.764-2.34.098-3.08.628-.664 1.341-1.315 1.583-2.239.857-2.659 1.472-5.387 2.193-8.084.773-3.132 1.77-6.255 1.782-9.51.03-1.647-.063-3.651 1.426-4.736Zm-.844 16.382c1.111-.047 2.461.561 3.39-.247-.144-1.966-.955-3.808-1.757-5.583-1.082 1.753-1.243 3.856-1.633 5.83ZM87.534 102.41c1.209-.689 2.698-.575 4.039-.464 1.167.094 1.837 1.294 1.744 2.383.195 1.677-1.676 2.557-1.731 4.166-.51 4.548-.23 9.144-.403 13.714-.136 3.404.229 6.966-1.019 10.212-1.659.064-2.215-1.663-3.004-2.795-2.249-3.524-4.184-7.255-6.709-10.587-1.18 2.417-.84 5.23-.76 7.834-.13 1.782 2 2.872 1.452 4.693-.263 2.506-3.272 3.702-5.457 3.123-1.51-.685-1.502-2.842-.755-4.102.657-1.115 1.18-2.327 1.192-3.642.284-5.566.552-11.161.115-16.718.046-1.519-1.23-2.498-1.761-3.787-.132-1.247.097-2.838 1.328-3.468 1.082-.519 2.334-.647 3.513-.507 1.222.294 1.693 1.613 2.33 2.553 1.892 3.09 3.496 6.383 5.707 9.26 1.061-.234.747-1.477.866-2.277-.009-1.834.263-3.881-.96-5.421-.924-1.187-.865-3.149.273-4.17Z"/><path fill="#FDC800" d="M147.496 105.304c-.947-1.03-.662-2.856.581-3.507 1.371-.472 2.805.073 4.205.073 1.939.106 3.925-.528 5.835.03 2.045.795 3.395 2.846 3.789 4.957.743 3.234.335 6.88-1.897 9.455.586 1.157 1.728 1.944 2.228 3.157.934 2.204.836 4.651 1.273 6.97.255 1.136 1.596 1.749 1.612 2.983.039 1.004-.296 2.217-1.281 2.676-1.964.864-4.544 0-5.444-2-1.553-3.234-1.214-6.995-2.427-10.331-.238-.741-1.044-.987-1.617-1.396-.288 2.115-.242 4.255-.038 6.374.025 1.57 1.646 2.66 1.379 4.285.03.949-.823 1.664-1.719 1.715-1.756.196-3.623.03-5.232-.74-1.302-.583-2.062-2.358-1.209-3.604.624-1.022 1.214-2.107 1.184-3.341.187-4.834.008-9.676-.068-14.51a5.03 5.03 0 0 0-1.154-3.246Zm6.993.774c-1.027 2.328-.289 5.025-.501 7.506.246.2.747.6.993.8 1.68-1.255 1.536-3.523 1.379-5.387-.106-1.174-.496-2.715-1.871-2.919Zm11.936-3.804c1.337-.391 2.754.043 4.125.022 2.575.161 5.452-.49 7.722 1.085 2.44 1.787 3.454 4.833 4.163 7.654.989 4.634 1.226 9.451.585 14.153-.386 2.553-.958 5.238-2.639 7.285-1.107 1.37-2.974 2.123-4.705 1.68-2.674-.57-5.301-1.408-8.05-1.561-1.413.064-2.152-1.472-1.994-2.711-.34-1.498 1.752-1.97 1.574-3.434.288-6.084.165-12.191-.022-18.28.034-1.246-1.149-1.961-1.548-3.038-.212-.978-.157-2.268.789-2.855Zm6.781 5.14c-.11.103-.331.311-.446.413-.301 6.068.161 12.157.111 18.233.072 1.166.042 3.021 1.557 3.23 1.494.076 2.185-1.587 2.495-2.8.734-3.357.56-6.834.373-10.242-.241-2.596-.407-5.344-1.731-7.655-.488-.736-1.417-1.651-2.359-1.179Zm-105.573-3.297c.95-1.417 2.923-1.328 4.42-1.175 1.155.026 1.762 1.2 1.796 2.225.352 2.09-1.871 3.409-1.8 5.46-.568 7.74-.063 15.522-.763 23.254-.195.936-.314 2.804-1.71 2.349-1.125-.915-1.591-2.43-2.393-3.621-2.016-3.29-3.666-6.804-5.771-10.034-.178.013-.526.043-.7.06-.696 2.778-.556 5.714-.408 8.553.021 1.557 1.617 2.612 1.405 4.208.178 2.753-2.737 4.868-5.296 4.361-1.128-.315-1.35-1.659-1.32-2.659-.076-1.843 1.498-3.234 1.537-5.068.39-4.689.415-9.4.403-14.101.004-2.251.038-4.528-.382-6.749-.514-1.459-1.999-2.613-1.54-4.332-.034-2.731 3.28-3.646 5.427-2.97 1.498 1.77 2.283 4.013 3.462 5.992 1.4 2.365 2.415 5.012 4.294 7.059.56-3.047 1.108-6.604-.734-9.328-.585-1.063-.445-2.429.072-3.484Zm117.382-.52c3.802-.319 7.684 1.017 11.444-.012 1.074-.473 1.332.957 1.6 1.693.734 2.953 1.124 6.179.05 9.102-1.977-.864-1.514-3.587-3.097-4.834-.908-.634-2.088-.872-3.17-.706-1.315.893-.861 2.642-.959 3.987.157 1.804-.445 4.033 1.099 5.378.297-.132.887-.4 1.184-.536.14-1.562.233-3.136.62-4.664 1.727.337 1.54 2.332 1.79 3.668.378 3.779.433 7.642-.415 11.366l-1.24-.013c-.224-1.319-.267-2.685-.691-3.966-.212-.681-1.044-1.578-1.71-.863-.429 2.493-.153 5.063.008 7.574-.246 2.727 4.422 3.825 5.385 1.272.654-1.575.819-3.319 1.651-4.83 1.438 1.136 1.502 3.072 1.442 4.757-.148 2.8-.602 5.596-1.54 8.247-3.874-2.204-8.38-2.702-12.577-4.025-1.222-.319-1.468-1.817-1.316-2.885.603-1.085 1.549-2.064 1.481-3.4.331-6.698.285-13.446-.399-20.119.017-1.633-1.828-2.557-1.676-4.199-.051-.779.166-1.775 1.036-1.992Zm16.099 1.124c1.031-.596 2.291-.434 3.424-.302 1.129.102 1.558 1.289 2.02 2.148a412.532 412.532 0 0 1 4.341 9.617c.811 1.817 1.49 3.715 2.61 5.379.704-2.575.441-5.294.259-7.924-.068-1.68-1.443-2.936-1.574-4.599-.149-1.179.05-2.485.861-3.4 1.277-.451 2.728-.307 3.993.123 1.578.643 1.735 2.634 1.735 4.111.06 1.744-1.663 2.897-1.591 4.65-.225 4.966-.03 9.949-.097 14.923-.085 4.936.39 9.881-.119 14.808-.132.774-.145 1.821-1.112 1.991-.692-.727-1.031-1.693-1.392-2.608a510.174 510.174 0 0 0-6.734-16.667c-.331-.826-.853-1.549-1.464-2.187-.73 3.021-.399 6.178-.238 9.25.051 2.009 1.719 3.566 1.588 5.6-.039 1.008-.276 2.396-1.469 2.617-3.475.583-6.5-3.783-4.574-6.791 1.235-1.915.84-4.302.997-6.46-.093-5.412.004-10.846-.577-16.237-.009-2.055-2.015-3.404-1.969-5.451.06-.936.234-2.038 1.082-2.591Zm-157.664.221c1.005-.94 2.3.068 2.762 1.072 1.37 2.804 2.156 5.864 2.767 8.915 1.163 6.255 2.283 12.523 3.56 18.752.09 1.26 1.222 1.957 1.782 2.979.217 1.697-.416 3.612-1.935 4.536a12.826 12.826 0 0 1-5.767 1.855c-1.336.038-1.654-1.536-1.587-2.583-.042-1.71 1.817-2.889 1.375-4.655.013-.757-.789-1.23-1.472-1.128-1.114.133-2.2.445-3.217.924-1.018.489-1.01 1.804-1.132 2.77-.213 1.366 1.697 1.966 1.379 3.399.17 3-2.754 5.094-5.52 5.111-1.113-.306-1.16-1.613-1.18-2.558-.157-2.08 1.74-3.476 2.058-5.446 1.328-6.336 2.33-12.735 3.483-19.101.556-2.996.849-6.038.849-9.089.025-2.008.238-4.293 1.795-5.753Zm-1.37 23.28c1.124.008 3.708-.06 3.224-1.783-.314-2.217-.75-4.447-1.66-6.502-1.056 2.621-1.302 5.498-1.565 8.285Zm-17.326-19.016c.819-1.32 1.973-2.741 3.645-2.843 1.162.026 2.147.749 3.157 1.247a39.388 39.388 0 0 1 1.816-.515c1.63 3.966 2.618 8.647 1.001 12.774-.428-.011-.857-.023-1.285-.038-.985-1.873-1.439-4.209-3.196-5.545-.696-.574-1.409.311-1.633.928-.611 1.761-.667 4.089.768 5.468 1.4 1.166 3.25 1.846 4.243 3.459 1.718 2.698 2.045 6.008 2.024 9.14.034 4.974-.895 10.123-3.547 14.395-1.333 2.149-3.67 4.085-6.344 3.74-1.366-.089-2.72-.987-2.932-2.417-.802-3.612-1.053-7.348-.955-11.042.157-.906.055-2.404 1.24-2.595 1.179 2.119 1.14 4.676 2.248 6.821.48.953 1.774 1.906 2.78 1.085 1.629-1.349 1.981-3.911 1.01-5.745-1.218-1.349-3.153-1.914-4.125-3.531-2.321-3.596-2.771-8.043-2.771-12.225.097-4.307.679-8.774 2.856-12.561Zm197.865-.736c.836-1.281 2.291-2.447 3.916-2.085 1.189.34 2.088 1.246 3.035 1.995.67-.008 1.735-.651 1.93.353 1.494 3.681 1.956 7.762 1.634 11.706-.017.987-.598 1.77-1.528 2.089-1.425-2.591-1.65-5.906-3.916-7.974-1.659-.323-1.732 1.821-1.697 2.962-.035 3.723 3.823 5.455 5.185 8.553 2.631 5.442 2.72 11.744 1.922 17.633-.42 2.51-1.04 5.332-3.148 6.982-1.431 1.047-3.31.418-4.613-.519-2.347-1.651-4.417-4.055-4.791-7.003-.539-3.409-1.031-6.89-.696-10.345-.013-.434.718-1.715 1.074-.83 1.502 2.677 1.256 6.034 2.86 8.698.645 1.187 1.752 2.272 3.204 2.208 1.12-2.285.581-5.034-1.108-6.876-4.171-4.642-5.919-11.033-5.894-17.182.111-3.574.603-7.327 2.631-10.365Zm-116.093 25.062c5.088.936 10.112-.957 15.187-1.068 1.638.936.862 3.136.378 4.549-2.096 5.821-4.15 11.659-6.234 17.484-.403 1.259-.959 2.51-1.01 3.847.734 1.093 2.398.829 3.488.442 2.067-.774 2.063-3.353 2.949-5.055.416-1.336 2.156-.528 2.504.455.62 1.566.386 3.315.293 4.958-.314 2.114-.76 4.472-2.398 5.987-5.321-.805-10.731-.115-16.077-.452-1.401-.387-.934-2.174-.599-3.186 2.351-6.647 4.782-13.268 7.18-19.897.246-.758.526-1.549.377-2.358-.933-.804-2.456-.562-3.369.158-1.179 1.553-1.476 3.557-2.308 5.297l-1.481.243c-.547-.834-1.154-1.706-1.171-2.745-.174-3.029.742-6.076 2.291-8.659Zm30.909-.523c1.637.021 3.216-.485 4.85-.541 1.421 2.371 1.892 5.281 1.391 7.987-.148.885-.938 2.034-1.93 1.374-1.036-1.442-1.43-3.757-3.484-4.11-1.324-.174-3.382-.8-4.209.617-.421 2.226-.425 4.553-.217 6.808.157 1.421 2.648 1.43 2.758-.047.382-1.302.115-2.957 1.261-3.914 1.026-.009 1.315 1.102 1.531 1.906.565 2.779.548 5.647.259 8.459-.22 1.349-.322 2.932-1.447 3.881-.573.042-1.141-.23-1.086-.881-.357-1.294-.132-3.515-1.846-3.821-1.078-.362-1.205.949-1.298 1.698-.111 2.208-.077 4.455.31 6.634.097.689.857.884 1.438.97 1.54.144 3.318.166 4.549-.928 1.404-1.277 1.519-3.323 2.469-4.881.408-.604 1.35-.561 1.638.15.662 1.076.628 2.416.488 3.629-.318 2.528-.976 5.042-2.202 7.289-5.343-1.076-10.821-.234-16.214-.604-1.146-.132-1.286-1.553-1.196-2.456.365-1.063 1.604-1.633 1.803-2.787.552-3.161.513-6.391.611-9.59-.195-3.677.085-7.392-.564-11.03-.145-1.595-2.351-2.191-2.071-3.898.102-.697.31-1.667 1.107-1.859 3.756-.426 7.537-.089 11.301-.055Zm9.845.71c1.48-.544 3.033.06 4.527.26 2.321.455 4.706.064 7.04.447 2.69.485 4.943 2.629 5.766 5.221.7 2.255.662 4.77-.229 6.969-.471 1.184-1.527 1.954-2.295 2.928.487 1.213 1.862 1.724 2.503 2.842 1.222 2.051 1.12 4.524 1.502 6.804.153 1.158 1.401 1.664 1.914 2.622.407 1.587-.789 3.187-2.325 3.54-2.063.562-4.846.476-6.034-1.617-1.689-3.064-1.434-6.723-2.449-10-.254-.957-1.154-1.949-2.227-1.659-.641 2.166-.365 4.489-.217 6.706.051 1.579 2.046 2.489 1.608 4.179-.14 1.57-1.897 2.038-3.195 2.157-2.117.098-4.472.345-6.344-.855-1.307-.881-1.328-2.89-.258-3.975 1.489-1.693 1.213-4.063 1.336-6.148.026-3.983.183-7.962.14-11.944-.042-1.026-.03-2.085-.352-3.073-.429-.936-1.264-1.612-1.68-2.557-.353-1.081.207-2.404 1.269-2.847Zm7.803 5.094a33.325 33.325 0 0 0-.403 8.016c.564.971 2.172.43 2.503-.519.79-1.915.802-4.166.115-6.11-.238-1.064-1.298-1.277-2.215-1.387Zm-69.18-2.528c5.156.426 10.04-1.804 15.098-2.374 1.223.502 1.011 2.102.756 3.144-2.419 7.336-5.368 14.502-7.647 21.884 1.439.69 3.268.736 4.57-.272 1.388-1.293 1.235-3.468 2.428-4.885 1.09-.753 2.232.57 2.38 1.617.331 2.77.094 5.693-1.116 8.238-.322.596-.713 1.357-1.468 1.438-5.33-.6-10.718.034-16.065-.302-1.044-.579-.662-2.004-.356-2.919 2.6-6.8 5.354-13.552 7.65-20.463-1.005-.889-2.436-.838-3.462-.004-1.456 1.46-1.35 3.838-2.733 5.34-1.328.613-2.139-1.293-2.3-2.357-.161-2.838.794-5.685 2.266-8.085Zm83.964 1.009c3.157-.796 6.674-.524 9.501 1.174.933.532 1.54 1.719 1.213 2.779-.705.978-2.049 1.612-2.037 2.982-.403 4.843-.318 9.723-.178 14.578-.085 1.745 2.478 2.383 1.939 4.213-.331 1.489-2.079 1.762-3.327 2.025-2.206.298-4.625.528-6.687-.472-1.256-.642-1.379-2.442-.361-3.353 1.443-1.408 1.231-3.54 1.354-5.382.076-4.269.471-8.558-.043-12.813-.144-1.378-1.319-2.281-1.879-3.476-.37-.792.233-1.545.505-2.255Zm-92.475.51c1.299-.268 2.678-.472 3.985-.127.959.276 1.519 1.387 1.251 2.336-.437.927-1.336 1.553-1.722 2.51-.34.992-.323 2.06-.34 3.098.026 4.37-.072 8.753.34 13.11-.005.957.75 1.579 1.387 2.174 1.074.856.823 2.902-.454 3.477-1.96.923-4.213.953-6.34.88-1.205-.136-2.702-.255-3.415-1.387-.67-1.072.377-2.059.937-2.893.9-1.09.59-2.609.667-3.911-.12-3.987.25-8.008-.297-11.974-.06-1.672-2.7-2.131-1.982-3.982 1.29-1.992 3.82-2.698 5.983-3.311Zm112.795 3.255c1.197-.753 2.707-.174 3.717.635 1.456 1.225 2.241 3.02 3.043 4.701 2.168 4.834 3.972 9.825 6.114 14.668.365 1.046 1.672 1.149 2.271 1.982.28 1.094-.811 1.818-1.736 2.009-2.512.528-5.121.366-7.659.111-.904-.12-2.13-.324-2.317-1.417-.386-1.158 1.078-1.651 1.634-2.426.178-1.821-2.228-1.71-3.471-1.932-1.299.013-3.561-.71-3.934 1.098-.322.758.773 1.085 1.125 1.613.925.587.679 2.123-.276 2.562-1.507.868-3.344.642-5.003.574-1.082-.072-2.66-.409-2.669-1.783-.2-1.625 1.842-1.996 2.525-3.179 1.205-2.289 1.93-4.791 2.915-7.178 1.027-2.847 2.452-5.642 2.525-8.731.11-1.153-.03-2.698 1.196-3.307Zm.942 9.226c-.445 1.459-1.735 3.063-1.124 4.595 1.179.162 2.809.885 3.759-.008-.513-1.651-.921-3.783-2.635-4.587Zm-131.924-7.332c2.1-.757 4.21-1.945 6.518-1.642 1.811.187 3.483 1.429 4.069 3.174 1.311 3.889.238 8.927-3.547 11.016-1.791 1.162-3.98.924-5.992 1.238-.216 1.834-.496 4.277 1.383 5.354.79.416 1.019 1.659.179 2.148-1.914 1.4-4.481 1.136-6.718 1.047-1.26-.157-3.097-.302-3.411-1.834.441-1.119 2.075-1.553 1.986-2.932.161-2.842.008-5.689.072-8.531-.03-1.349.182-2.83-.628-4.004-.607-.255-1.498-.098-1.905-.698-.31-1.064.687-1.877 1.557-2.247 2.113-.783 4.337-1.251 6.437-2.089Zm1.587 2.864c-.14.059-.416.187-.552.251-.229 2.059-.284 4.191.013 6.242.42 1.208 1.99.502 2.622-.17 1.222-1.507 1.346-3.787.5-5.511-.432-.978-1.67-1.221-2.583-.812Z"/></g></g><defs><clipPath id="a"><path fill="#fff" d="M19 88h218v80.517H19z"/></clipPath></defs></svg>