<svg xmlns="http://www.w3.org/2000/svg" width="256" height="256" fill="none"><path fill="#008ACC" d="M0 0h256v256H0z"/><path fill="#fff" d="M52.054 103.172c2.25-.381 5.292.776 5.488 3.351.015 2.256-2.419 3.579-4.434 3.579-2.013.106-4.473-1.022-4.745-3.227-.19-2.051 1.847-3.49 3.691-3.703ZM193.686 103.004c3.502-.003 7.006-.006 10.508 0-.003 10.493.003 20.989-.003 31.482-3.502.003-7.003.003-10.502 0a36709.18 36709.18 0 0 1-.003-31.482ZM220.51 103.004c3.495-.006 6.991-.003 10.49-.003-.003 10.141.006 20.279-.006 30.416-3.576 1.368-7.448 1.655-11.242 1.664-3.256.006-6.684-.423-9.475-2.223-2.096-1.326-3.549-3.534-4.076-5.944-.666-3.042-.459-6.384 1.08-9.143 1.211-2.211 3.286-3.91 5.669-4.727 2.421-.835 5.052-.787 7.56-.417v-9.623Zm-3.464 16.567c-.71 2.569-.716 5.419.101 7.965.426 1.421 1.992 2.007 3.357 1.705.008-3.895.011-7.791 0-11.683-1.492-.332-3.082.491-3.458 2.013ZM27.848 110.016c2.243-2.688 5.881-3.792 9.291-3.733 2.658.066 5.434.379 7.79 1.696-.665 1.628-1.24 3.289-1.879 4.926-1.989-.906-4.28-1.566-6.45-.941-1.018.281-1.974 1.16-1.927 2.288-.014 1.21 1.051 2.024 2.03 2.513 2.387 1.207 5.128 1.903 7.046 3.874 1.891 1.892 2.356 4.828 1.755 7.359-.633 2.539-2.59 4.585-4.908 5.707-2.427 1.225-5.203 1.5-7.885 1.34-2.537-.127-5.133-.464-7.441-1.595.692-1.874 1.317-3.768 2.06-5.621 1.814.927 3.886 1.415 5.925 1.258 1.179-.095 2.528-.66 2.898-1.888.356-1.09-.325-2.194-1.234-2.762-2.362-1.53-5.304-2.179-7.255-4.322-2.54-2.755-2.184-7.346.184-10.099ZM110.268 106.92c3.626-.08 7.255-.012 10.884-.036.755 5.097 1.595 10.183 2.264 15.291.868-5.153 2.312-10.188 3.437-15.291 2.548 0 5.097 0 7.645.003 1.143 5.151 2.528 10.254 3.428 15.454-.009-1.432.246-2.844.459-4.253.58-3.733 1.151-7.468 1.737-11.201 3.381-.003 6.764-.006 10.147 0-2.312 9.2-4.635 18.396-6.95 27.596-3.25.009-6.5.006-9.75.003-.912-3.135-1.809-6.272-2.717-9.407-.302-1.009-.483-2.045-.61-3.087-.784 4.23-2.155 8.323-3.209 12.491-3.25.009-6.5.006-9.75.003-2.353-9.185-4.629-18.39-7.015-27.566ZM159.241 112.413c3.416-.399 7.06-.082 10.091 1.664a10.178 10.178 0 0 1 4.818 6.379c.983 3.916.172 8.504-2.865 11.336-2.756 2.611-6.734 3.446-10.425 3.268-3.543-.109-7.255-1.382-9.54-4.212-2.785-3.469-3.087-8.59-1.193-12.541 1.679-3.46 5.402-5.467 9.114-5.894Zm1.726 5.837c-1.134.82-1.14 2.401-1.276 3.665-.045 1.983-.198 4.079.58 5.952.385 1.007 1.838 1.344 2.572.521.865-1.036.87-2.483.965-3.768.021-1.817.116-3.714-.541-5.443-.305-.912-1.445-1.465-2.3-.927ZM176.11 113.932c5.227-1.85 10.916-1.874 16.383-1.442-.577 2.075-1.166 4.15-1.749 6.225-1.291-.577-2.715-.876-4.126-.657-.003 5.476.002 10.952-.003 16.428-3.502.003-7.001.003-10.502 0-.006-6.852-.003-13.702-.003-20.554ZM48.668 112.86h8.56c.006 7.208.003 14.418 0 21.626-2.853.003-5.707.003-8.56 0-.003-7.208-.006-14.418 0-21.626ZM64.809 114.713c2.986-1.708 6.55-1.962 9.916-1.814 2.522.148 5.076.459 7.444 1.382-.009 6.793.012 13.587-.012 20.38.01 2.11-.775 4.268-2.383 5.68-2.258 2.013-5.384 2.658-8.32 2.788-3.475.071-7.01-.248-10.3-1.418.54-1.24 1.068-2.489 1.595-3.735 2.415.811 4.984 1.202 7.53 1.06 1.406-.095 2.969-.48 3.842-1.679.89-1.207.63-2.782.666-4.182-2.105.92-4.485.947-6.731.684-2.61-.368-5.162-1.735-6.589-4.002-1.746-2.729-1.841-6.204-1.075-9.271.616-2.442 2.209-4.635 4.417-5.873Zm4.289 2.798c-1.43 1.71-1.593 4.067-1.634 6.201.02 2.057.177 4.348 1.59 5.973 1.423 1.578 3.892 1.622 5.736.826-.003-4.633-.006-9.262.003-13.894-1.847-.794-4.304-.717-5.695.894ZM86.443 114.32c4.047-1.282 8.347-1.608 12.568-1.4 2.407.183 4.964.544 6.938 2.048 1.335.991 1.972 2.682 1.966 4.31.012 4.872.003 9.744.003 14.616-2.466 0-4.931.003-7.397-.003-.003-4.771.009-9.546-.006-14.317.056-1.155-.583-2.327-1.672-2.771-1.59-.654-3.378-.397-4.985.056 0 5.68.006 11.361-.003 17.038-2.472-.006-4.94 0-7.412-.003 0-6.527-.003-13.051 0-19.574Z"/><path fill="#008ACC" d="M25.003 139.095c11.997.009 23.996-.009 35.996.003-.462 1.095-.926 2.187-1.391 3.279 3.363 1.427 7.045 1.898 10.674 1.939 2.522.021 5.094-.293 7.43-1.296 1.867-.785 3.536-2.126 4.522-3.913 49.491-.027 98.982-.006 148.47-.012v14.817c-66.399.003-132.8-.003-199.198-.014-1.646.026-3.363-.486-4.535-1.685-1.326-1.335-1.956-3.256-1.971-5.115 0-2.666 0-5.336.003-8.003Zm96.096 3.185c-1.066.748-1.445 2.391-.634 3.454.927 1.11 2.543 1.128 3.608 2.033.634.592.356 1.708-.373 2.096-1.056.625-2.344.302-3.427-.083-.169.394-.335.785-.5 1.178 1.704.61 3.782.868 5.378-.163 1.219-.745 1.666-2.539.817-3.717-.906-1.134-2.507-1.172-3.626-1.992-.746-.542-.471-1.764.308-2.132.95-.509 2.066-.195 3.013.151.151-.352.305-.707.459-1.059-1.587-.628-3.576-.835-5.023.234Zm38.157-.228c.003 2.969.006 5.937 0 8.906 2.335.77 5.505.971 7.166-1.199 1.352-2.036 1.349-5.138-.388-6.955-1.814-1.664-4.591-1.472-6.778-.752Zm58.424 0v8.909c1.856.595 3.928.749 5.798.13 1.255-.381 2.09-1.802 1.643-3.072-.32-.962-1.288-1.439-2.158-1.797.811-.308 1.711-.826 1.844-1.773.293-1.231-.71-2.326-1.838-2.622-1.726-.498-3.599-.335-5.289.225Zm-86.79-.329c.927 3.188 1.865 6.373 2.791 9.561h1.599c.678-2.306 1.418-4.591 2.054-6.909.743 2.297 1.397 4.621 2.143 6.915.524-.006 1.048-.006 1.575-.009.926-3.182 1.85-6.367 2.764-9.555-.574-.003-1.148-.009-1.719-.018-.652 2.472-1.389 4.932-1.865 7.448-.654-2.493-1.427-4.955-2.14-7.43-.444-.006-.882-.009-1.32-.012-.717 2.498-1.542 4.967-2.129 7.498-.532-2.516-1.225-4.997-1.838-7.492-.639 0-1.278 0-1.915.003Zm17.751 0c-.003 3.188-.003 6.373 0 9.561h5.618l.003-1.107c-1.249 0-2.495-.006-3.741.006-.027-1.09-.018-2.176-.012-3.265h3.345v-1.086c-1.116-.003-2.232-.003-3.348-.003a143.34 143.34 0 0 1 .009-3.005c1.249.009 2.498.006 3.747.006 0-.278 0-.832-.003-1.107-1.873 0-3.744-.003-5.618 0Zm23.92 0c-.003 3.188-.003 6.373 0 9.558 1.873.003 3.744.003 5.618 0l.003-1.104c-1.24.003-2.481-.015-3.718.015-.065-1.09-.033-2.182-.036-3.271 1.116-.006 2.232.006 3.348-.015l-.003-1.068c-1.116-.015-2.232-.006-3.345-.009 0-1.007-.026-2.013.039-3.017 1.237.033 2.475.015 3.715.018 0-.278 0-.829-.003-1.107h-5.618Zm10.62 9.522c.527.027 1.057.039 1.587.042-.012-2.469.032-4.937-.033-7.403 1.631 2.326 3.315 4.615 4.961 6.932.34.746 1.24.394 1.88.465v-9.555c-.524 0-1.048-.003-1.569 0 0 2.321-.012 4.641.012 6.962-1.717-2.315-3.36-4.683-5.103-6.977-.566.009-1.128.009-1.69 0-.077 3.179.011 6.358-.045 9.534Zm20.116.039a35.27 35.27 0 0 0 1.865-.033c.305-.861.633-1.714 1-2.551 1.261.018 2.522.018 3.786 0 .367.835.699 1.687 1.004 2.548.68.036 1.361.042 2.045.03-1.311-3.185-2.658-6.358-3.966-9.543-.586-.009-1.17-.012-1.753-.012-1.329 3.185-2.664 6.37-3.981 9.561Z"/><path fill="#008ACC" d="M161.173 142.747c1.007-.145 2.146-.242 3.014.4 1.045.758 1.261 2.161 1.246 3.365-.015 1.134-.184 2.433-1.107 3.212-.9.719-2.152.681-3.209.385.048-2.454-.056-4.911.056-7.362ZM219.488 142.685c.921-.189 1.939-.328 2.812.119.989.503 1.007 2.214 0 2.702-.864.438-1.868.352-2.803.358-.015-1.06-.012-2.119-.009-3.179ZM206.42 147.75c.55-1.537 1.172-3.052 1.649-4.618.455 1.569 1.077 3.078 1.625 4.618-1.093.003-2.185.003-3.274 0ZM219.512 146.69c.982.024 2.018-.047 2.936.379 1.19.521 1.223 2.531.03 3.066-.93.45-1.998.308-2.975.125-.024-1.19-.033-2.38.009-3.57Z"/><path fill="#FFED00" d="M121.099 142.28c1.447-1.069 3.436-.862 5.023-.234-.154.352-.308.707-.459 1.059-.947-.346-2.063-.66-3.013-.151-.779.368-1.054 1.59-.308 2.132 1.119.82 2.72.858 3.626 1.992.849 1.178.402 2.972-.817 3.717-1.596 1.031-3.674.773-5.379.163.166-.393.332-.784.501-1.178 1.083.385 2.371.708 3.427.083.729-.388 1.007-1.504.373-2.096-1.065-.905-2.681-.923-3.608-2.033-.811-1.063-.432-2.706.634-3.454ZM159.256 142.052c2.187-.72 4.964-.912 6.778.752 1.738 1.817 1.741 4.919.388 6.955-1.661 2.17-4.831 1.969-7.166 1.199.006-2.969.003-5.937 0-8.906Zm1.918.695c-.113 2.451-.009 4.908-.056 7.362 1.056.296 2.308.334 3.208-.385.924-.779 1.093-2.078 1.107-3.212.015-1.204-.201-2.607-1.246-3.365-.867-.642-2.007-.545-3.013-.4ZM217.68 142.052c1.69-.56 3.563-.723 5.289-.225 1.128.296 2.131 1.391 1.838 2.622-.133.947-1.033 1.465-1.844 1.773.87.358 1.838.835 2.158 1.797.447 1.27-.388 2.691-1.643 3.072-1.87.619-3.942.465-5.798-.13v-8.909Zm1.808.633c-.003 1.06-.006 2.119.009 3.179.935-.006 1.939.08 2.803-.358 1.007-.488.989-2.199 0-2.702-.873-.447-1.891-.308-2.812-.119Zm.024 4.005a64.381 64.381 0 0 0-.009 3.57c.977.183 2.045.325 2.975-.125 1.193-.535 1.16-2.545-.03-3.066-.917-.426-1.953-.355-2.936-.379ZM130.89 141.723c.637-.003 1.276-.003 1.915-.003.613 2.495 1.306 4.976 1.838 7.492.586-2.531 1.412-4.999 2.129-7.498.438.003.876.006 1.32.012.713 2.475 1.486 4.937 2.14 7.43.476-2.516 1.213-4.976 1.865-7.448.571.009 1.145.015 1.719.018a2499.44 2499.44 0 0 1-2.764 9.555c-.527.003-1.051.003-1.575.009-.746-2.294-1.4-4.618-2.143-6.915-.636 2.318-1.376 4.603-2.054 6.909h-1.599c-.926-3.188-1.864-6.373-2.791-9.561ZM148.641 141.723c1.874-.003 3.744 0 5.618 0 .003.275.003.829.003 1.107-1.249 0-2.498.003-3.747-.006a143.34 143.34 0 0 0-.009 3.005c1.116 0 2.231 0 3.347.003v1.086h-3.344c-.006 1.089-.015 2.175.011 3.265 1.247-.012 2.493-.006 3.742-.006l-.003 1.107h-5.618c-.003-3.188-.003-6.373 0-9.561ZM172.561 141.723h5.618c.003.278.003.829.003 1.107-1.24-.003-2.478.015-3.715-.018-.065 1.004-.038 2.01-.038 3.017 1.113.003 2.228-.006 3.344.009l.003 1.068c-1.116.021-2.232.009-3.347.015.003 1.089-.03 2.181.035 3.271 1.237-.03 2.478-.012 3.718-.015l-.003 1.104c-1.874.003-3.745.003-5.618 0-.003-3.185-.003-6.37 0-9.558ZM183.181 151.245c.056-3.176-.032-6.355.045-9.534.562.009 1.124.009 1.69 0 1.743 2.294 3.386 4.662 5.103 6.977-.024-2.321-.012-4.641-.012-6.962.521-.003 1.045 0 1.569 0v9.555c-.64-.071-1.54.281-1.88-.465-1.646-2.317-3.33-4.606-4.961-6.932.065 2.466.021 4.934.033 7.403-.53-.003-1.06-.015-1.587-.042ZM203.297 151.284c1.317-3.191 2.652-6.376 3.981-9.561.583 0 1.166.003 1.752.012 1.309 3.185 2.655 6.358 3.967 9.543-.684.012-1.365.006-2.046-.03a36.691 36.691 0 0 0-1.003-2.548c-1.264.018-2.525.018-3.786 0-.367.837-.695 1.69-1 2.551a35.27 35.27 0 0 1-1.865.033Zm3.123-3.534c1.089.003 2.181.003 3.273 0-.547-1.54-1.169-3.049-1.625-4.618-.476 1.566-1.098 3.081-1.648 4.618Z"/></svg>