<svg xmlns="http://www.w3.org/2000/svg" width="256" height="256" fill="none"><path fill="#EF9721" d="M0 0h256v256H0z"/><path fill="#FAFAFA" d="M102.149 100.295c17.511-1.001 35.684.288 51.757 7.876 2.474 1.037 4.652 2.962 7.44 3.127 7.64.663 15.194 2.013 22.668 3.642 7.432-.479 15.141 1.455 20.761 6.525l-3.494-.348c2.683 1.054 5.079 2.709 7.161 4.678-11.857-.061-23.722.104-35.579-.07-18.312-10.628-40.606-15.847-61.444-10.41-4.426-5.89-10.454-11.517-18.112-12.319-7.562-.104-14.645 3.293-20.865 7.301 10.742 6.019 23.444 5.784 35.379 5.662-12.1 2.649-24.733 1.934-36.93.279 1.647.505 3.267 1.124 4.957 1.49 11.718 2.491 23.357 5.392 35.074 7.867-12.84-1.333-25.586-3.581-38.427-4.975-3.154-.392-6.395 1.638-6.526 4.992-4.286-3.659-10.48-2.753-14.87.2-.34-3.362 1.088-6.377 3.205-8.877 1.804-3.485 6.23-3.023 9.47-3.964 4.243-1.638 7.806-4.574 11.918-6.473 8.067-4.434 17.362-5.906 26.457-6.203Zm3.285 2.544c3.249 3.546 7.614 5.872 11.343 8.895 12.553-.732 25.116-1.037 37.687-.793-8.677-4.608-18.243-7.544-28.009-8.659-6.969-.802-14.165-1.342-21.021.557Z"/><path fill="#FAFAFA" d="M119.408 116.839c11.116-2.195 22.677-.296 33.105 3.86 3.179 1.289 6.324 2.796 8.912 5.087-5.123.009-10.237.044-15.359-.035-2.588-3.162-6.046-5.61-10.054-6.568 2.954 1.751 5.968 3.606 7.815 6.603-1.882-.157-4.225.689-5.584-1.045-2.239-2.152-5.071-3.72-8.189-4.025-3.442-.558-6.639 1.115-9.653 2.518 1.507-2.344 3.624-4.182 5.941-5.707a109.26 109.26 0 0 0-6.934-.688ZM95.494 135.944c.2-1.472 2.378-1.002 2.744.148-2.84 1.412-1.96 4.983-2.213 7.58-.026-2.588-.566-5.14-.531-7.728ZM42.674 151.007c1.046-.897 2.466-.828 3.755-.828 7.187.053 14.375.018 21.57.026l.062.95c-8.46-.07-16.936.218-25.387-.148ZM189.808 150.563c8.45-.793 16.996-.149 25.49-.349l-.026.941c-7.213.052-14.418-.017-21.631.044-1.316.078-2.614-.157-3.833-.636Z"/><path fill="#FAFAFA" d="M78.28 129.306c.626-1.917 2.49-1.743 4.015-1.708-.087 1.481.854 3.494-1.559 3.955.157-.749.47-2.247.619-3.005-.767.192-2.3.566-3.076.758ZM79.856 129.907c.314.313.314.313 0 0ZM31.445 131.884c5.053-.592 10.201-.087 15.29-.244-.018.819-.036 1.63-.07 2.449-4.679.026-9.357-.009-14.035.017 0 .557-.009 1.664-.009 2.213 3.711.043 7.422-.053 11.142.017 4.147-.592 4.2 7.736.035 7.074-4.565.018-9.13.026-13.686-.043.017-.575.061-1.717.078-2.283 4.661-.061 9.313.087 13.965-.061.053-.566.14-1.69.183-2.248-3.694-.052-7.396.035-11.099-.017-3.693.601-4.138-5.21-1.794-6.874ZM65.778 131.553c.862.07 1.725.157 2.579.253-.671 1.856-1.507 3.676-1.9 5.619.358 2.1 1.246 4.06 1.804 6.116-.662-.061-1.986-.166-2.649-.218a402.256 402.256 0 0 0-1.585-4.582c-3.415.034-6.83.017-10.245.008.026 1.542.035 3.076.052 4.618-.61.017-1.838.043-2.448.052.035-3.877-.087-7.762.052-11.639.584-.07 1.76-.2 2.344-.261.017 1.603.026 3.214.017 4.817 3.407-.009 6.804-.035 10.21.035a318.098 318.098 0 0 1 1.769-4.818ZM93.717 131.51c1.028.165 2.212-.035 3.075.688a588.563 588.563 0 0 1 10.942 8.154c.07-2.936.043-5.863.07-8.799.592.053 1.777.149 2.369.201.14 3.946.044 7.901.018 11.857-1.29-.192-2.727-.114-3.72-1.107-2.701-2.03-5.48-3.972-8.102-6.116l-.131-.296c-.366-1.15-2.544-1.62-2.744-.148-.035 2.588.505 5.14.531 7.728l-2.308-.419c-.122-3.911-.044-7.832 0-11.743ZM115.06 133.061c.532-.985 1.586-1.516 2.701-1.403 4.574-.07 9.156-.009 13.73-.009-.044.819-.096 1.638-.148 2.466-4.67-.026-9.331-.044-14 .008-.026.541-.07 1.638-.096 2.187 4.4.035 8.79.009 13.19.018-.026.575-.061 1.742-.087 2.317-4.382.287-8.791.026-13.19.131.087.557.244 1.681.331 2.239 4.652.174 9.304-.009 13.965.078 0 .575.018 1.716.026 2.282-4.878-.034-9.766.218-14.636-.034-1.193.061-2.056-1.368-1.934-2.448-.043-2.605-.174-5.236.148-7.832ZM187.944 131.641c4.504.008 9.008-.044 13.512.008 4.173-.461 4.207 6.787.47 7.431.558 1.447 1.072 2.91 1.638 4.365-.932-.035-1.864-.07-2.788-.113a261.984 261.984 0 0 0-1.585-4.6c-2.945.044-5.89.035-8.834.017.009 1.603-.009 3.198-.018 4.801-.609-.053-1.82-.157-2.422-.218.035-3.894.009-7.797.027-11.691Zm2.413 2.448c0 .557-.009 1.681-.009 2.247 3.912-.026 7.832.018 11.744-.043-.009-.54-.018-1.629-.018-2.17-3.903-.052-7.814-.008-11.717-.034Z" opacity=".98"/><path fill="#FAFAFA" d="M72.381 143.419c.445-3.703-1.063-7.963.898-11.299 3.066-1.072 6.455-.157 9.661-.471 1.9.201 4.748-.775 5.81 1.385.41 3.433.105 6.909.166 10.359-.575.026-1.716.087-2.291.113a215.503 215.503 0 0 1-.035-4.739c-3.938-.009-7.867 0-11.804-.009.017 1.533.035 3.075.043 4.617-.61.009-1.838.035-2.448.044Zm2.213-7.144c3.99.096 7.989.035 11.988.044.008-.715.017-1.438.034-2.152-3.833-.07-7.666-.166-11.49-.009a6.638 6.638 0 0 0-.532 2.117ZM145.404 137.416c.174-1.977-.697-5.148 1.986-5.697 4.887-.209 9.792-.026 14.688-.07-.052.593-.148 1.786-.2 2.379-4.644.13-9.304.043-13.957.026a145.03 145.03 0 0 0-.043 7.013c4.704.235 9.531-.41 14.157.313-.018.532-.044 1.586-.061 2.117-5.14-.348-10.35.305-15.446-.357-1.699-1.411-.933-3.816-1.124-5.724ZM166.8 133.792c-.087-1.237 1.219-2.291 2.413-2.117 3.79-.087 7.588-.069 11.378-.017 1.306-.148 2.552.845 2.639 2.169.192 3.206.035 6.412.061 9.618-3.441 1.08-2.317-2.709-2.465-4.696-3.921.026-7.841 0-11.761.018 0 1.55 0 3.092-.009 4.643-.575 0-1.725.009-2.3.018.009-3.215-.113-6.43.044-9.636Zm2.221.384c.018.714.044 1.428.061 2.134 3.929.026 7.867.017 11.805.009l-.07-2.196c-3.929-.026-7.867-.087-11.796.053ZM211.823 138.732c-3.851.27-3.781-7.396.078-7.074 4.617-.078 9.243-.009 13.869-.009l-.209 2.387c-4.652.166-9.313-.035-13.974.114v2.134c4.156.157 8.329-.131 12.484.148 2.387 1.106 2.483 5.881.009 6.882-4.931.183-9.888.157-14.827 0-.053-.548-.166-1.637-.218-2.186 4.704-.192 9.417.148 14.122-.166.087-.54.261-1.611.357-2.152-3.903-.13-7.797.035-11.691-.078ZM132.083 149.221c3.206.026 6.412-.009 9.618.052.218 1.708.323 3.442.776 5.114-.872-.104-1.743-.2-2.614-.296l.427-.714c-2.23.191-4.478.174-6.717.148.018.339.052 1.019.061 1.367 2.98-.104 5.976-.104 8.904.523-3.137 1.83-6.996.68-10.463.932 0-2.378 0-4.756.008-7.126Zm1.551 1.411c-.026.366-.07 1.089-.096 1.455 2.335.026 4.67.026 7.005.035l-.035-1.481c-2.291.009-4.583.009-6.874-.009ZM114.965 149.352c3.084-.175 6.177-.114 9.269-.122.854 2.308.593 4.791.453 7.196-.357-.026-1.054-.087-1.411-.114 0-.697 0-2.09.009-2.779-2.326 0-4.644 0-6.97-.026-.191 1.237.305 2.936-1.341 3.398-.235-2.518-.218-5.036-.009-7.553Zm1.533 1.367c-.157.323-.479.959-.644 1.281 2.535.148 5.079.122 7.622.105-.13-.349-.392-1.046-.514-1.394-2.151-.131-4.312-.157-6.464.008Z" opacity=".98"/></svg>