<svg xmlns="http://www.w3.org/2000/svg" fill="none" viewBox="0 0 256 256"><path fill="#100301" d="M0 0h256v256H0z"/><g fill="#fff" clip-path="url(#a)"><path d="M42.036 93.263c1.184-3.77 2.894-7.572 5.926-10.22 3.741 5.764 6.582 12.488 6.183 19.482 60.682-.012 121.36.005 182.042-.006-.008 17.982-.004 35.964-.004 53.946-61.502-.006-123.006.005-184.509-.006.446 3.194 1.545 6.521.376 9.69-1.802 5.624-8.75 8.792-14.191 6.591-4.497-1.852-6.227-8.038-3.658-12.071 1.38-2.193 4.624-3.163 6.823-1.606 2.552 1.797 3.51 5.492 2.24 8.327-.987 2.08-3.207 3.237-5.394 3.617 2.248 1.163 4.982 1.388 7.338.402 3.599-1.366 6.423-5.075 6.093-9.019-.217-1.988-.617-3.952-.929-5.925-10.39 0-20.78-.006-31.17.003.003-17.982 0-35.967 0-53.949 7.13.011 14.259-.003 21.388.006.026-3.134.451-6.285 1.446-9.262Zm3.747-.642c-1.86 2.974-2.578 6.484-3.13 9.901 2.456-.018 4.913.037 7.369-.032 1.976-3.003 2.33-6.91 1.09-10.263-.425-1.076-1.391-2.23-2.67-2.068-1.238.315-1.973 1.478-2.659 2.462Zm-25.802 10.673c-.006 4.248 0 8.498-.006 12.748 5.7.009 11.397-.008 17.096.009 1.45-1.588 3.027-3.058 4.523-4.603a34.844 34.844 0 0 1-1.004-8.151c-6.869 0-13.74.006-20.61-.003Zm22.779 7.271c2.335-2.317 4.707-4.623 6.669-7.271-2.312.006-4.627.003-6.938.003-.443 2.41-.145 4.875.269 7.268Zm4.921 5.48h106.984c.353-.622.844-1.334 1.652-1.308.914-.147 1.649.524 1.996 1.305 22.325.006 44.647 0 66.972.003-.006-4.25-.006-8.5 0-12.748-57.065.003-114.127.003-171.19 0-.326 4.93-3.13 9.23-6.414 12.748Zm178.449-.003c1.524.006 3.049 0 4.577.003-.006-4.25 0-8.5-.003-12.751-1.525.003-3.047.006-4.569 0-.011 4.251.006 8.498-.005 12.748Zm-70.537-.034c.591.031 1.181.031 1.774.005-.31-.214-.553-.677-.978-.642-.309.15-.541.414-.796.637Zm-135.618.818c.006 4.175.003 8.35 0 12.525 2.708.009 5.42-.011 8.124.012 1.936-4.652 4.96-8.758 8.264-12.531-5.463-.017-10.925-.003-16.388-.006Zm26.963.003c-.906.961-1.875 1.858-2.839 2.76.66 3.255 1.297 6.513 1.962 9.765 59.741-.003 119.483-.003 179.224 0-.006-4.178-.006-8.353 0-12.531-22.322.006-44.644-.003-66.969.006-.382.88-1.308 1.586-2.306 1.253-.671-.11-1.021-.735-1.34-1.259-35.911.009-71.82-.005-107.732.006Zm108.655.026c.261.235.521.475.816.669.411-.055.66-.42.952-.678-.593-.02-1.18-.017-1.768.009Zm70.539-.032c.003 4.178-.002 8.353.003 12.531 1.519-.003 3.041 0 4.563 0 .017-4.175-.003-8.353.009-12.531-1.525.003-3.05 0-4.575 0ZM34.601 129.346c3.382.017 6.761.003 10.144.005-.527-2.997-1.14-5.98-1.69-8.972-3.136 2.659-6.105 5.576-8.454 8.967Zm-14.626.789c-.003 4.268.017 8.536-.009 12.803 2.335.035 4.67-.002 7.005.024-1.31-4.201-.7-8.767.813-12.829l-7.81.002Zm14.09-.008c-2.444 3.758-4.09 8.301-3.414 12.829 2.026-.006 4.054-.006 6.08.003-.915-4.207 1.136-8.677 4.675-11.021 1.11-.836 2.47-1.178 3.715-1.747-3.68-.134-7.37-.012-11.056-.064Zm15.893-.015c2.254.524 4.395 1.638 5.96 3.365 2.443 2.474 3.444 6.065 3.21 9.479 55.383-.009 110.77 0 166.157-.006-.006-4.27-.009-8.544 0-12.815-58.442-.017-116.884.027-175.327-.023Zm176.174.021c.003 4.273 0 8.547 0 12.817 1.519.003 3.041.003 4.56.003.026-4.273.006-8.547.012-12.818-1.525-.002-3.05 0-4.572-.002Zm-178.818 5.37c.526 2.482 1.047 4.965 1.565 7.447 2.092.006 4.184.003 6.276 0-.278-2.384-1.337-4.768-3.264-6.264-1.273-1.044-2.963-1.421-4.577-1.183Zm-6.053 2.699c-1.215 1.247-1.667 3.047-1.55 4.751 2.615.009 5.23-.015 7.846.009-.506-2.408-.975-4.824-1.502-7.225-1.79.324-3.564 1.085-4.794 2.465Zm-21.283 5.532c-.003 3.981.006 7.962-.006 11.944 10.083.029 20.17-.023 30.252.006-.054-.414-.112-.825-.167-1.233-1.25.605-2.598 1.013-3.993 1.094-7.968.74-15.96-4.384-18.821-11.817-2.422.012-4.843 0-7.265.006Zm10.815.006c1.027 4.311 4.213 8.04 8.342 9.669 3.336 1.36 7.314 1.357 10.494-.431-.637-3.081-1.282-6.162-1.901-9.25-2.642.012-5.286-.008-7.928.015.472 2.155 1.979 3.88 3.75 5.115-2.902-.399-5.622-2.297-6.606-5.118a485.098 485.098 0 0 0-6.151 0Zm18.251-.006c.587 2.824 1.198 5.642 1.768 8.469 2.546-2.046 4.4-5.124 4.351-8.466-2.04-.012-4.08 0-6.119-.003Zm9.956 0c-.726 4.421-3.938 8.064-7.774 10.176.092.573.162 1.154.303 1.719.886.112 1.78.04 2.668.055 57.03-.003 114.057.002 171.085-.003a7929.49 7929.49 0 0 1 0-11.947c-55.427-.003-110.855-.006-166.282 0Zm167.135 0c-.005 3.981.003 7.966-.005 11.947 1.524.003 3.052.003 4.58 0-.009-3.981-.006-7.966-.003-11.947-1.525-.003-3.05-.003-4.572 0Z"/><path d="M131.672 120.623c.17-.811.361-1.621.636-2.402.376.148.741.391 1.169.359 2.034.006 4.068.003 6.105.003.486.046.874-.281 1.299-.46-.142.917-.098 1.869-.396 2.757-.402-.515-.449-1.493-1.236-1.577-.685-.156-1.394-.081-2.089-.098.072 2.679-.162 5.379.128 8.046.381.067.766.13 1.154.194.023.107.069.321.095.431-1.545-.023-3.09.02-4.635-.014.209-.764 1.487-.226 1.505-1.054.075-2.528.011-5.06.032-7.589-.744.006-1.511-.089-2.228.128-.683.22-.79 1.154-1.539 1.276ZM67.975 118.869c1.213-.729 2.674-.512 3.979-.197.127.732.237 1.47.26 2.214-.836-.351-.888-1.56-1.811-1.8-1.039-.46-2.404.495-2.069 1.652.437 1.314 2 1.539 2.948 2.358 1.398.984 1.5 3.38.058 4.366-1.362.923-3.174.723-4.6.061-.211-.825-.541-1.722-.162-2.549.622.856 1.015 2.054 2.126 2.396 1.045.483 2.417-.542 2.121-1.693-.364-1.707-2.477-1.84-3.39-3.131-.953-1.073-.698-2.931.54-3.677ZM155.958 119.106c.368-.269.729-.547 1.097-.821 1.047 2.768 1.912 5.604 2.928 8.384.194.657 1.027.666 1.42 1.169-1.302.073-2.606-.006-3.908.058l-.004-.457.872-.174c-.29-.925-.562-1.863-.964-2.748-.83-.203-1.704-.067-2.549-.084-.313.92-.663 1.828-.903 2.772.408.144.92.188 1.091.662-1.143-.072-2.364.232-3.449-.199.507-.296 1.311-.313 1.49-.987 1.007-2.506 2.02-5.014 2.879-7.575Zm-.891 4.664c.706.018 1.412.02 2.121-.008-.292-1.036-.663-2.043-1.019-3.056a130.066 130.066 0 0 0-1.102 3.064ZM73.97 118.655a25.197 25.197 0 0 1 4.282.005c-.33.29-.708.495-1.137.611-.23 1.204-.144 2.436-.09 3.654 1.418-.954 2.408-2.392 3.577-3.61a34.085 34.085 0 0 1-.836-.669c1.255-.095 2.52-.11 3.776.014-.568.53-1.424.527-2.02 1.013-1.013.799-1.858 1.782-2.792 2.665 1.11 1.545 2.309 3.029 3.541 4.476.339.466.938.526 1.45.668v.42c-1.377-.232-2.882.289-4.184-.258l.938-.382c-1.155-1.348-2.008-2.98-3.429-4.079-.087 1.345-.156 2.708.058 4.048.434.115.862.243 1.29.379-.558.437-1.293.24-1.941.257-.813-.055-1.664.165-2.433-.176.486-.295 1.365-.353 1.247-1.126.084-2.422.176-4.869-.087-7.282-.423-.171-.883-.29-1.21-.628ZM85.141 118.67c2.234-.191 4.48-.047 6.719-.084.07.761.15 1.524.101 2.288-.634-.431-.657-1.591-1.585-1.591-.718-.049-1.583-.249-2.22.078-.208 1.094-.098 2.216-.07 3.322.727.003 1.47.087 2.191-.061.347-.258.373-1.479.842-.984.084 1.019.029 2.046.009 3.067-.104-.035-.31-.104-.411-.142a9.109 9.109 0 0 0-.307-.989c-.726-.307-1.542-.122-2.306-.153-.052 1.154-.174 2.357.162 3.477.85.559 2.008.397 2.954.194.828-.188.88-1.311 1.69-1.519-.078.79-.295 1.554-.53 2.309-1.814.072-3.625-.156-5.436-.026-.706.012-1.464.176-2.112-.185.446-.243.952-.33 1.438-.457.275-2.437.09-4.908.115-7.355.061-.724-.818-.825-1.244-1.189ZM95.956 119.294c-.463-.159-.943-.306-1.322-.627a24.412 24.412 0 0 1 4.459 0c-.345.344-.82.465-1.256.636-.206 1.921-.046 3.857-.104 5.784.043.674-.145 1.528.437 2.028.92.188 1.935.278 2.818-.101.489-.466.735-1.149 1.337-1.499-.087.807-.301 1.594-.55 2.367-1.774.075-3.544-.162-5.318-.021-.637.021-1.328.145-1.898-.217.451-.179.923-.306 1.368-.5.264-1.045.133-2.135.162-3.2-.04-1.551.11-3.113-.133-4.65ZM104.211 118.583c1.429.026 2.864-.075 4.291.075-.336.353-.813.463-1.247.628-.209 2.395-.131 4.817-.058 7.219.014.726.853.72 1.391.758.628-.003 1.343.06 1.884-.322.399-.477.683-1.035 1.12-1.481.144.842-.212 1.635-.437 2.428-2.321-.003-4.635-.133-6.953.017l.009-.472 1.099-.199c.223-2.459.084-4.939.096-7.404.095-.723-.709-.738-1.195-.865v-.382ZM113.756 118.586c2.17-.003 4.343-.012 6.516 0 .081.761.177 1.53.104 2.297-.448-.402-.613-1.019-1.033-1.432-.873-.371-1.851-.209-2.774-.24-.139 1.154-.099 2.32-.076 3.483.709-.006 1.427.061 2.13-.055.399-.336.416-.972.908-1.238.006 1.163.255 2.393-.185 3.506-.205-.445-.344-.917-.567-1.354-.715-.286-1.531-.095-2.283-.121.003 1.128-.144 2.303.168 3.405.755.669 1.976.423 2.905.281.891-.165.943-1.331 1.776-1.588-.078.81-.303 1.594-.57 2.361-1.744.054-3.486-.154-5.231-.044-.729.032-1.47.113-2.19-.046.168-.547.856-.368 1.273-.582.298-.561.174-1.227.206-1.837-.041-1.892.06-3.79-.047-5.683.015-.567-.63-.622-1.024-.763l-.006-.35ZM123.252 118.678c2.214-.211 4.447-.04 6.669-.101.003.778.015 1.557-.026 2.332-.602-.321-.541-1.186-1.12-1.507-.83-.295-1.727-.171-2.586-.18-.041 1.21-.026 2.416-.02 3.626.781-.032 1.602.118 2.358-.142.269-.408.428-.897.83-1.204.015 1.143.003 2.286.02 3.429-.474-.292-.564-.865-.842-1.305-.781-.136-1.58-.067-2.369-.072.014 1.09-.064 2.187.046 3.275.11.798 1.267.309 1.565 1.007-1.475.101-2.954-.029-4.429.066.002-.098.005-.298.005-.399a9.6 9.6 0 0 0 .996-.318c.257-1.164.153-2.37.173-3.553-.029-1.447.099-2.908-.162-4.34a7.367 7.367 0 0 1-1.108-.614ZM142.958 118.667c2.231-.185 4.473-.041 6.71-.087.084.764.165 1.531.145 2.303-.64-.425-.692-1.536-1.58-1.585-.755-.151-1.531-.081-2.292-.07a55.823 55.823 0 0 0-.008 3.472c.761.009 1.527.012 2.285-.098.136-.457.229-.987.735-1.178.009 1.088-.02 2.173.023 3.258a22.135 22.135 0 0 1-.471-.072c-.081-.365-.156-.732-.235-1.097-.781-.113-1.571-.113-2.358-.095.05 1.154-.147 2.349.154 3.48.787.524 1.828.391 2.719.261.929-.125 1.216-1.152 1.835-1.71.139.842-.2 1.643-.44 2.43-1.898.078-3.796-.168-5.694-.008-.61.005-1.293.153-1.814-.249.474-.171.987-.252 1.441-.484.124-2.621.162-5.271-.029-7.893a3.901 3.901 0 0 1-1.126-.578ZM188.181 131.988c.118.127.353.387.471.514 2.251.067 4.508.027 6.762.032.509.061.9-.298 1.328-.52-.101.873-.148 1.756-.292 2.624-.62-.119-.434-1.088-1.007-1.311-.778-.26-1.62-.121-2.422-.162-.052 1.936-.008 3.871-.029 5.807.006.723-.049 1.47.203 2.164.413.142.847.235 1.276.347-.052.087-.154.264-.203.353-1.507-.113-3.021-.037-4.528-.037.255-.753 1.554-.258 1.557-1.126.118-2.497.06-5.005.02-7.505-.68.006-1.363-.032-2.034.058-.781.098-1.036.96-1.49 1.473-.347-.909.243-1.815.388-2.711ZM67.972 132.803c1.198-.74 2.662-.489 3.961-.217.13.669.27 1.343.272 2.032-.587.263-.613-.556-.902-.851-.527-1.1-2.451-1.155-2.905.026-.342.691.101 1.484.677 1.892.848.611 1.915.912 2.615 1.722.95 1.053.923 2.893-.156 3.842-1.097.877-2.665.926-3.96.524-1.26-.229-1.352-1.925-.967-2.888.547.816.914 1.866 1.852 2.326.726.345 1.79.209 2.204-.552.452-.761.087-1.733-.558-2.254-.92-.735-2.161-1.097-2.83-2.127-.755-1.093-.454-2.775.697-3.475ZM98.468 132.529c2.219-.021 4.441.069 6.657-.041-.008.764-.003 1.528-.043 2.292-.602-.243-.611-.981-1.027-1.401-.851-.347-1.803-.162-2.697-.211-.113 1.186-.092 2.381-.049 3.573.799-.003 1.6 0 2.399-.029.211-.46.422-.925.723-1.336.168 1.145.121 2.308.067 3.463-.495-.246-.541-.83-.724-1.288-.807-.13-1.623-.124-2.433-.11-.061 1.221-.188 2.497.173 3.678.458.156.935.246 1.401.382-.104.072-.316.217-.42.292-1.397-.017-2.797-.003-4.195-.02.278-.431.796-.501 1.241-.657.185-1.765.061-3.544.099-5.312-.023-.836.084-1.696-.125-2.514-.356-.249-.766-.42-1.047-.761ZM110.463 132.482c1.627-.393 3.504-.153 4.795.978 1.866 1.701 2.057 4.881.477 6.831-2.04 2.491-6.585 2.28-8.217-.564-1.591-2.618-.153-6.6 2.945-7.245Zm.307.614c-.989.37-1.603 1.365-1.791 2.366-.335 1.571-.127 3.316.747 4.688.726 1.154 2.366 1.594 3.561.922 1.036-.593 1.447-1.837 1.534-2.962.104-1.542-.165-3.238-1.253-4.407-.7-.752-1.849-.937-2.798-.607ZM140.267 132.485c1.566-.373 3.368-.191 4.653.848 2.092 1.681 2.303 5.173.483 7.129-2.1 2.332-6.464 2.022-8.061-.744-1.562-2.618-.15-6.559 2.925-7.233Zm.296.622c-.978.405-1.592 1.398-1.765 2.413-.29 1.615-.116 3.423.873 4.783.854 1.238 2.847 1.481 3.927.402.911-.897 1.096-2.26 1.085-3.478-.084-1.328-.431-2.763-1.459-3.683-.706-.648-1.785-.752-2.661-.437ZM181.336 132.974c1.195-.94 2.821-.686 4.195-.37.136.7.223 1.412.249 2.126-.761-.182-.784-1.145-1.406-1.519-.941-.668-2.538-.136-2.532 1.137.24 1.624 2.184 1.829 3.183 2.824 1.177.981 1.293 2.998.13 4.031-1.114.951-2.752.975-4.088.549-1.178-.257-1.311-1.93-.805-2.806.562 1.059 1.256 2.531 2.685 2.43 1.027.044 1.788-1.117 1.38-2.054-.561-1.455-2.404-1.623-3.292-2.798-.883-1.004-.796-2.734.301-3.55ZM73.406 132.534c1.374-.008 2.751-.003 4.126.006a3.416 3.416 0 0 1-.97.677 48.452 48.452 0 0 0 1.858 3.944c.686-1.299 1.409-2.581 2.014-3.918a2.506 2.506 0 0 1-.998-.714c1.053-.015 2.112.037 3.165-.038l.029.376c-.478.188-1.056.298-1.343.775-.726 1.042-1.305 2.179-1.938 3.279-.782 1.273-.64 2.867-.362 4.273.495.13 1.166.023 1.415.59-1.56.009-3.12-.029-4.679.021.223-.689 1.305-.336 1.369-1.1.113-1.215.197-2.537-.46-3.625-.669-1.19-1.198-2.454-1.892-3.626-.417-.35-.99-.477-1.334-.92ZM83.97 132.557c1.038-.055 2.076.003 3.115-.046.585 2.384 1.921 4.502 2.949 6.713 1.079-2.225 2.291-4.395 3.17-6.71.903.035 1.806.032 2.709-.023l.078.373c-.443.182-1.334.142-1.273.845-.035 2.332-.061 4.67.124 6.996.009.674.996.512 1.23 1.094-1.38-.029-2.757-.012-4.138-.02.26-.408.744-.521 1.135-.761.136-2.127.031-4.268.046-6.398-1.241 2.497-2.396 5.035-3.623 7.537-1.087-2.56-2.323-5.057-3.388-7.626.05 2.187-.312 4.392-.023 6.567.446.151.92.281 1.253.637-1.11.084-2.23.014-3.345.081-.029-.078-.09-.234-.118-.312.396-.226 1.11-.238 1.137-.819.266-1.713.246-3.452.373-5.176 0-.7.165-1.433-.072-2.11-.443-.289-.932-.503-1.34-.842ZM118.426 132.503a33.88 33.88 0 0 0 2.705.014c1.643 2.402 3.77 4.412 5.703 6.577-.032-1.884.118-3.802-.235-5.663-.393-.37-.931-.535-1.345-.876a63.713 63.713 0 0 1 3.735 0c-.405.428-1.287.503-1.31 1.212-.243 2.824.135 5.685-.197 8.504-.862-.651-1.487-1.54-2.205-2.33-1.548-1.733-3.041-3.518-4.606-5.234.026 1.901-.093 3.814.064 5.712-.052.758.749.882 1.299 1.062l-.107.332c-1.129-.06-2.257-.023-3.386-.029.2-.477.735-.526 1.149-.711.284-2.451.232-4.925.127-7.384-.419-.399-.934-.666-1.481-.842l.09-.344ZM130.847 132.482c1.299.081 2.604.084 3.903 0l.023.373a7.13 7.13 0 0 0-1.004.385c-.286 1.213-.11 2.468-.153 3.701.043 1.357-.122 2.731.124 4.076.397.272.868.397 1.294.619-1.369.33-2.795.021-4.184.197-.018-.089-.052-.266-.072-.353.546-.17 1.299-.318 1.174-1.064-.029-2.422.154-4.861-.118-7.269l-1.045-.24.058-.425ZM148.378 132.748c1.851-.324 3.801-.434 5.647-.011 1.201.263 2.058 1.524 1.762 2.74-.144.923-.978 1.441-1.704 1.886 1.039 1.583 1.794 3.559 3.655 4.357-1.016.336-2.243.249-3.062-.491-1.076-.932-1.487-2.358-2.372-3.429-.232-.043-.694-.133-.926-.177-.052 1.111-.119 2.24.104 3.337.321.37.894.419 1.253.772-1.461.09-2.928.04-4.389.049.376-.558 1.458-.445 1.328-1.325.026-2.236.049-4.476-.015-6.713.018-.682-.873-.633-1.281-.995Zm3.02.365c-.101 1.331-.078 2.667-.026 4.001.7-.032 1.505.041 2.072-.46.859-.923.671-2.659-.44-3.31-.477-.315-1.07-.211-1.606-.231ZM159.051 132.531c1.265-.005 2.529.003 3.796-.003l.414.22c-.336.296-1.073.214-1.175.741-.107 1.114-.043 2.239-.003 3.359 1.392-.972 2.416-2.364 3.548-3.611a16.075 16.075 0 0 1-.787-.706c1.235.133 2.604-.303 3.744.249-2.136.313-3.354 2.187-4.806 3.556 1.163 1.478 2.289 2.989 3.53 4.401.399.575 1.258.448 1.64 1.035-1.452.009-2.905.027-4.354-.011.286-.234.587-.451.891-.668-1.184-1.279-1.988-2.908-3.385-3.982-.081 1.337-.148 2.694.049 4.028.454.127.949.217 1.264.61-1.446.047-2.893.064-4.337-.02.451-.408 1.36-.495 1.233-1.281-.038-2.428.13-4.867-.101-7.283-.417-.148-.918-.2-1.161-.634ZM170.384 132.856c.006-.093.014-.281.02-.377 2.159.102 4.326.07 6.487.024.069.778.223 1.562.075 2.343-.414-.457-.587-1.117-1.062-1.501-.888-.298-1.843-.145-2.757-.128a33.93 33.93 0 0 0 .006 3.435c.752.008 1.504-.009 2.254-.099.199-.445.246-1.041.801-1.189-.058 1.126.003 2.251-.055 3.377-.422-.336-.492-.918-.839-1.294-.7-.208-1.444-.136-2.164-.142-.026 1.172-.171 2.379.15 3.522.767.544 1.82.303 2.706.266.989-.052 1.09-1.331 1.958-1.597-.098.79-.306 1.556-.532 2.317-2.534-.176-5.118.194-7.624-.194.472-.193.972-.318 1.45-.503.382-.949.15-2.011.208-3.012-.058-1.539.127-3.099-.101-4.623-.012-.498-.68-.414-.981-.625ZM198.168 132.552c2.225-.055 4.45.029 6.678-.041.075.767.165 1.534.145 2.303-.507-.402-.666-1.099-1.163-1.49-.88-.255-1.817-.124-2.72-.142a123.25 123.25 0 0 0 0 3.493c.735-.009 1.47-.029 2.204-.102.203-.46.333-.989.802-1.258.049 1.065.023 2.129.029 3.197-.104.006-.313.023-.417.032-.159-.368-.13-.857-.46-1.117-.703-.171-1.438-.119-2.152-.127.081 1.189-.258 2.479.208 3.599.703.431 1.652.225 2.456.223.981-.018 1.389-.981 1.823-1.69.553.744-.101 1.62-.252 2.393-2.497-.119-5.002.017-7.502-.076.315-.488.932-.451 1.429-.593.209-1.594.058-3.205.104-4.808-.037-1.004.102-2.029-.089-3.018-.353-.289-.761-.509-1.123-.778ZM207.379 132.746c1.851-.316 3.804-.443 5.65-.009 1.23.252 2.072 1.574 1.759 2.795-.156.894-.983 1.38-1.678 1.837 1.039 1.499 1.678 3.559 3.553 4.219l-.15.292c-.975.058-2.089.078-2.833-.66-1.09-.926-1.461-2.384-2.375-3.437-.234-.035-.7-.107-.935-.145.012 1.108-.124 2.243.142 3.33.31.368.9.397 1.247.761-1.464.093-2.931.044-4.395.05.391-.547 1.461-.472 1.328-1.337.024-2.329.087-4.667-.037-6.993-.382-.31-.865-.449-1.276-.703Zm3.046.341c-.115 1.334-.066 2.673-.043 4.007.758.009 1.684.064 2.219-.59.628-.926.509-2.37-.417-3.058-.497-.397-1.168-.321-1.759-.359Z"/></g><defs><clipPath id="a"><path fill="#fff" d="M19 83h217.216v90.489H19z"/></clipPath></defs></svg>