<svg xmlns="http://www.w3.org/2000/svg" fill="none" viewBox="0 0 256 256"><path fill="#B9A152" d="M0 0h256v256H0z"/><g clip-path="url(#a)"><mask id="b" width="197" height="70" x="29" y="93" maskUnits="userSpaceOnUse" style="mask-type:luminance"><path fill="#fff" d="M29.047 93h196.679v69.735H29.046V93Z"/></mask><g fill="#fff" mask="url(#b)"><path d="M88.975 110.56V93.552h-5.304V93h11.156v.552h-5.304v17.008h-.548ZM130.184 93h.489v17.561h-.489V93Zm-10.632 8.529h10.876v.552h-10.876v-.552ZM119.307 93h.49v17.561h-.49V93Zm37.073 8.203h7.969v.552h-7.969v-.552Zm-.324 9.358V93h9.738v.552h-9.191v16.456h9.041v.553h-9.588ZM37.862 154.005h10.026c1.306 0 2.417-.195 3.333-.586.917-.39 1.62-.994 2.109-1.816.49-.822.734-1.787.734-2.895 0-1.067-.265-1.971-.794-2.711-.531-.738-1.275-1.302-2.231-1.693-.959-.39-2.111-.585-3.456-.585h-9.721v10.286Zm0-17.616h8.683c1.099 0 2.056-.205 2.873-.615.815-.41 1.437-.965 1.864-1.664.429-.697.642-1.518.642-2.463 0-1.519-.489-2.689-1.466-3.511-.978-.821-2.447-1.232-4.403-1.232h-8.193v9.485Zm-8.805 25.622v-43.113h18.587c2.854 0 5.27.421 7.245 1.262 1.977.842 3.475 2.064 4.496 3.666 1.017 1.6 1.527 3.51 1.527 5.728 0 2.462-.611 4.517-1.834 6.158-1.222 1.643-2.975 2.772-5.257 3.388l-.061-1.233c1.873.453 3.523 1.192 4.952 2.217 1.425 1.029 2.526 2.301 3.302 3.82.774 1.52 1.162 3.244 1.162 5.173 0 2.136-.348 4.014-1.04 5.636-.694 1.623-1.713 2.967-3.058 4.034-1.345 1.068-2.925 1.879-4.738 2.433-1.815.555-3.842.831-6.085.831H29.057Zm45.123-9.053 2.995-7.453h19.627l3.057 7.453H74.18Zm-7.767 9.054 16.755-43.115h8.192l16.692 43.115h-9.415l-8.622-23.221a81.512 81.512 0 0 1-.885-2.525 181.39 181.39 0 0 1-1.072-3.264 546.76 546.76 0 0 1-1.039-3.295 37.104 37.104 0 0 1-.733-2.618l1.65-.062c-.254.981-.53 1.957-.825 2.926a576.06 576.06 0 0 1-.948 3.08 60.276 60.276 0 0 1-1.039 3.049c-.358.96-.705 1.926-1.04 2.895l-8.62 23.035h-9.05Zm56.436-8.007h10.026c1.305 0 2.417-.195 3.333-.586.917-.39 1.621-.994 2.109-1.816.491-.822.734-1.787.734-2.895 0-1.067-.265-1.971-.795-2.711-.53-.738-1.274-1.302-2.23-1.693-.959-.39-2.112-.585-3.456-.585h-9.721v10.286Zm0-17.616h8.682c1.099 0 2.057-.205 2.874-.615.815-.41 1.436-.965 1.864-1.664.428-.697.642-1.518.642-2.463 0-1.519-.489-2.689-1.467-3.511-.977-.821-2.446-1.232-4.402-1.232h-8.193v9.485Zm-8.805 25.622v-43.113h18.586c2.854 0 5.27.421 7.246 1.262 1.977.842 3.475 2.064 4.495 3.666 1.018 1.6 1.527 3.51 1.527 5.728 0 2.462-.611 4.517-1.833 6.158-1.223 1.643-2.976 2.772-5.257 3.388l-.062-1.233c1.874.453 3.524 1.192 4.952 2.217 1.426 1.029 2.526 2.301 3.302 3.82.774 1.52 1.162 3.244 1.162 5.173 0 2.136-.348 4.014-1.04 5.636-.693 1.623-1.712 2.967-3.057 4.034-1.346 1.068-2.925 1.879-4.739 2.433-1.814.555-3.842.831-6.084.831h-19.198Zm46.711-25.929h21.706v7.884h-21.706v-7.884Zm-4.279 25.929v-43.113h28.92v8.13h-19.993v26.853h20.421v8.13h-29.348Zm52.703.616c-2.649 0-5.064-.328-7.244-.985-2.182-.657-4.118-1.621-5.81-2.895-1.69-1.273-3.209-2.811-4.555-4.619l5.748-6.59c1.997 2.792 3.983 4.691 5.962 5.697 1.975 1.006 4.127 1.509 6.45 1.509 1.262 0 2.394-.174 3.393-.524.998-.348 1.783-.852 2.354-1.509.571-.656.857-1.436.857-2.34 0-.656-.145-1.262-.429-1.817a4.666 4.666 0 0 0-1.223-1.478c-.529-.432-1.162-.821-1.895-1.171a17.136 17.136 0 0 0-2.446-.923 22.531 22.531 0 0 0-2.934-.648c-2.284-.532-4.28-1.179-5.993-1.94-1.711-.758-3.138-1.703-4.279-2.833a10.777 10.777 0 0 1-2.537-3.849c-.551-1.436-.826-3.059-.826-4.866 0-1.847.406-3.562 1.223-5.143.815-1.58 1.946-2.945 3.393-4.096 1.447-1.149 3.119-2.033 5.014-2.648 1.896-.616 3.902-.924 6.023-.924 2.608 0 4.891.299 6.847.893 1.957.595 3.658 1.448 5.105 2.557a14.796 14.796 0 0 1 3.639 4.064l-5.81 5.668c-.855-1.15-1.782-2.115-2.781-2.895a10.885 10.885 0 0 0-3.241-1.757 11.182 11.182 0 0 0-3.577-.585c-1.345 0-2.506.175-3.484.524-.98.349-1.744.853-2.293 1.509-.55.658-.825 1.458-.825 2.402 0 .74.183 1.396.549 1.971.367.575.896 1.078 1.589 1.509.694.431 1.53.811 2.507 1.14.979.328 2.059.615 3.241.862 2.241.452 4.259 1.047 6.054 1.786 1.792.74 3.333 1.632 4.616 2.68 1.284 1.046 2.271 2.278 2.965 3.695.693 1.417 1.04 3.008 1.04 4.773 0 2.916-.694 5.401-2.08 7.452-1.386 2.054-3.302 3.624-5.746 4.713-2.447 1.087-5.301 1.631-8.561 1.631ZM66.493 100.818H29.047v.674h37.446v-.674Zm159.073 0H188.12v.674h37.446v-.674Z"/></g></g><defs><clipPath id="a"><path fill="#fff" d="M29 93h197v69.624H29z"/></clipPath></defs></svg>