<svg xmlns="http://www.w3.org/2000/svg" fill="none" viewBox="0 0 256 256"><path fill="#F5DD5C" d="M0 0h256v256H0z"/><g clip-path="url(#a)"><path fill="#fff" d="M88.492 84.475c2.348-1.576 5.38 1.436 4.416 3.87-.209.411-.455.8-.677 1.201-.622.371-1.219.958-2.006.832-1.705-.095-2.996-1.717-3.097-3.362.021-1.007.659-1.877 1.364-2.541Zm7.204 1.825c.486-.96 1.433-1.668 2.51-1.792 1.12.016 2.194.654 2.786 1.604.458 1.192.491 2.588-.293 3.65-.834 1.17-2.498 1.015-3.689.575-.524-.494-.941-1.076-1.368-1.653-.033-.793-.118-1.601.054-2.384Zm-66.609 3.808c-.015-.894.034-1.849.602-2.585 1.258-.11 2.462.273 3.683.481 1.315.052 2.606.33 3.923.368 2.109.492 4.277.582 6.427.78.926.155 1.837.446 2.783.438 1.132-.025 2.235.317 3.37.27.694-.015 1.311.346 1.877.706.268.574.198 1.246.258 1.864.002 3.26.023 6.521.023 9.781.002 1.727.144 3.514-.443 5.172-.514.751-1.234 1.356-2.137 1.573a55.064 55.064 0 0 1-.887-.672c-.296-2.948.164-5.947-.445-8.87-.173-2-.818-3.98-1.96-5.635-.474-.6-1.248-1.429-2.074-.96-.277.504-.164 1.114-.22 1.668-.026 4.38.048 8.758.064 13.138.038 1.117.295 2.216.254 3.339-.059 1.738.566 3.411.517 5.146-.01.87.255 1.712.25 2.58-.047 1.488.594 2.891.54 4.382.221 1.269.224 2.564.455 3.833.085.513-.033 1.04-.267 1.499-.376.589-1.178.229-1.755.327-2.734-.119-5.509.254-8.212-.284-.224-.479-.445-.975-.47-1.511.187-1.884.388-3.766.555-5.654.483-1.681.362-3.434.653-5.146-.093-2.008.592-3.947.532-5.95-.038-1.215.258-2.407.26-3.619 0-4.284-.008-8.571.003-12.857-.01-.616.09-1.285-.299-1.816-.93-.28-1.844.286-2.212 1.143-.13.294-.331.544-.53.793-.375 1.329-.918 2.6-1.033 3.991-.144 2.75-.098 5.507-.116 8.259.028.494-.347.865-.54 1.287-.471.018-.942.013-1.412-.002l-.378-.443a1.298 1.298 0 0 1-.764-.77l-.402-.399c-.326-.973-.39-2.008-.45-3.025-.018-4.207-.02-8.413-.023-12.62Zm190.457-2.122c1.525-.358 3.109-.661 4.677-.484.533 1.077.162 2.274-.088 3.37-.477 1.154-.857 2.343-1.374 3.481-.197.443-.455.852-.654 1.293-.661 1.359-1.494 2.623-2.315 3.887-.329.528-.728 1.009-1.046 1.542a41.422 41.422 0 0 1-2.632 3.015c1.163 1.177 2.158 2.538 3.058 3.934.636.978 1.371 1.884 2.045 2.829.173.355.371.7.62 1.012.565 1.141 1.266 2.209 1.813 3.362.303.67.71 1.295.909 2.014.536.79.606 1.791 1.161 2.571.259 1.272.901 2.426 1.03 3.723.064 1.128.421 2.284.064 3.393-.183.878-1.111 1.252-1.867 1.504-1.958.108-3.923-.044-5.877.1-.726.011-1.523.173-2.182-.211-.344-1.372-.213-2.816-.331-4.219-.121-1.285.115-2.608-.265-3.865-.317-1.099-.353-2.253-.597-3.37-.828-2.556-1.368-5.283-2.858-7.551a6.728 6.728 0 0 0-.622-1.048l-.347-.684c-.995.841-1.852 1.915-3.076 2.438.023 1.519.298 3.022.265 4.541-.062 1.496.563 2.912.535 4.408.2 1.179.205 2.394.604 3.532.283 1.382.352 2.806.712 4.176.119.708-.061 1.627-.725 2.013-2.693.077-5.386.221-8.079.304-.612-.018-1.404-.085-1.762-.641-.185-1.782.157-3.571.643-5.276.142-1.109.335-2.208.42-3.323.771-3.126.625-6.367.928-9.557.111-4.124.067-8.251-.028-12.375-.033-2.233-.283-4.46-.178-6.692-.002-.545.512-.872.808-1.274 1.752-.09 3.493-.33 5.247-.453.453.075.962.425.877.947-.013 1.797.044 3.597-.087 5.391-.162 3.455-.183 6.913-.17 10.37 2.125-2.232 4.247-4.564 5.592-7.363.383-.654.733-1.33.89-2.082.74-1.375.733-2.979.884-4.493-.02-1.228-.244-2.446-.18-3.676 1.158-.33 2.359-.435 3.558-.513ZM54.206 90.615c.939-.232 1.888.033 2.834.008 1.567-.018 3.072.55 4.64.514 1.117-.025 2.207.312 3.326.258 1.25-.103 2.41.456 3.64.556 1.028.119 1.954.595 2.919.935 1.556.705 3.15 1.64 3.963 3.21 1.284 1.99 1.333 4.552.494 6.725a7.98 7.98 0 0 0-.779 1.359c-.952 1.11-2.068 2.178-3.444 2.721l-.437.407c-1.093.239-1.968 1.025-3.092 1.182.484.692 1.134 1.241 1.726 1.835 2.2 2.577 4.365 5.278 5.653 8.442.525.821.58 1.849 1.147 2.647.183.826.417 1.64.733 2.425.27 1.2.49 2.412.705 3.622.119.623-.216 1.182-.422 1.743-1.039.453-2.186.258-3.281.294-1.96-.023-3.93.007-5.875-.273-1.147-1.087-.733-2.719-.818-4.117-.093-1.115-.311-2.219-.247-3.344.06-1.565-.43-3.071-.573-4.619-.124-.618-.178-1.256-.417-1.843-.399-.886-.438-1.913-1.019-2.719-.023-.108-.064-.327-.085-.435-.396-.764-.828-1.511-1.247-2.263-1.235.016-2.227.834-3.372 1.151-.06 1.552.054 3.11.046 4.668.54 1.395.617 2.911 1.145 4.312.537 2.803 1.667 5.432 2.371 8.187-.095.409-.447.692-.668 1.037-2.326-.007-4.653.013-6.981-.007-.746-.029-1.548.01-2.204-.41-.746-.285-.893-1.197-.955-1.9.065-2.837.31-5.669.33-8.506-.044-4.202.1-8.403.043-12.605.008-4.727-.066-9.453-.046-14.183-.015-.358.142-.685.247-1.014Zm8.334 3.893c-.785.556-1.238 1.4-1.595 2.27-.095 1.048.008 2.106-.131 3.152-.116 2.806.059 5.617-.057 8.426.352-.214.705-.43 1.029-.685.345-.124.69-.255 1.034-.384.25-.198.507-.391.805-.514 1.716-.909 3.4-2.166 4.313-3.919.841-1.328.782-2.984.68-4.492-.117-1.733-1.495-3.059-2.977-3.782-1.008-.33-2.073-.237-3.101-.072Zm126.496-3.216c1.248-.245 2.528-.062 3.778-.301 1.49-.288 3.007.028 4.437.46.952.562 1.688 1.342 2.235 2.3.371 1.179.404 2.425 0 3.602-.452.633-.743 1.413-1.445 1.822-.988.85-2.369.84-3.593.726-.36-.553-.862-1.094-.816-1.802.026-1.05-.522-1.962-1.098-2.79-.447-.268-.89-.55-1.33-.827a77.703 77.703 0 0 0-2.181.008c-.959.687-1.805 1.542-2.353 2.597-.677.976-.803 2.18-1.204 3.272-.185 1.985-.447 3.988-.213 5.986.259 1.89-.021 3.813.373 5.687.403 1.867.218 3.852.964 5.641.172.868.46 1.702.923 2.456.198.335.408.662.631.981.157.762 1.036.847 1.602 1.192 1.993.832 4.429-.27 5.36-2.175 1.117-2.117.985-4.593 1.346-6.9.082-.657.882-.688 1.396-.76.877.335 1.209 1.218 1.605 1.988.44 1.449.368 2.979.437 4.477-.105 1.545.016 3.115-.339 4.634-.448 1.949-1.397 3.991-3.277 4.917-1.122.325-2.23.832-3.423.762-1.973-.005-3.946-.01-5.919 0-1.162.08-2.225-.481-3.318-.79-1.304-.767-2.615-1.782-3.192-3.231a44.707 44.707 0 0 0-.378-.376c-.419-1.264-1.047-2.448-1.178-3.797-.514-1.324-.406-2.752-.658-4.13a452.86 452.86 0 0 1-.005-8.565c.131-.999.236-2 .316-3.002.352-1.066.522-2.176.738-3.275.818-2.332 1.654-4.693 3.125-6.72.597-.69 1.15-1.433 1.87-2.002 1.363-1.105 2.994-2.008 4.784-2.065Zm-29.468 2.276c2.904-.649 5.903-.67 8.863-.618 2.416.577 4.301 2.52 5.325 4.732.856 1.7 1.412 3.537 1.741 5.407.437 1.114.393 2.322.607 3.483-.01 2.07.352 4.119.288 6.191.036 1.9-.278 3.782-.291 5.68-.195 1.043-.203 2.124-.612 3.115-.471 2.291-1.409 4.572-3.128 6.212-.383.505-.9.87-1.52 1.017l-.491.402c-2.055.54-4.203.278-6.301.401-2.588-.018-5.492.502-7.737-1.125-1.862-1.485-2.896-3.764-3.475-6.024-.134-1.2-.746-2.304-.653-3.535-.409-2.541-.162-5.12-.232-7.682-.087-1.396.278-2.76.268-4.153 0-.726.288-1.406.437-2.106.159-.981.249-1.995.653-2.914.334-.821.337-1.774.903-2.495.116-.378.244-.754.357-1.132l.412-.436c.857-1.982 2.533-3.686 4.586-4.42Zm2.765 2.472c-.427.316-.913.532-1.356.816-.424.45-.604 1.076-.998 1.557-.298 1.244-.596 2.495-.805 3.759.003 2.371-.182 4.773.286 7.119.334 1.408.093 2.867.409 4.278-.023 1.723.656 3.326.877 5.018.34.561.556 1.182.779 1.794.741 1.329 2.086 2.673 3.745 2.359 2.053-.265 3.081-2.449 3.202-4.315.764-3.118.412-6.357-.038-9.495.046-1.658-.27-3.29-.358-4.938-.37-1.13-.45-2.317-.743-3.463-.252-.705-.558-1.387-.777-2.103a5.015 5.015 0 0 1-.524-.757c-.417-.72-1.155-1.125-1.783-1.63a42.942 42.942 0 0 0-1.916 0ZM87.139 93.77c1.456-.43 2.991-.705 4.514-.53 3.343.379 6.72.06 10.064.487.193.247.391.494.594.741.072 3.36-.293 6.709-.247 10.072-.084 5.079.044 10.174.62 15.215.443 1.472.463 3.022.769 4.521.517 1.611.764 3.311.669 5.004-.553.307-1.15.564-1.795.52-2.151-.012-4.3-.061-6.448-.079-.682.005-1.346-.142-2.007-.278-.247-.541-.573-1.11-.39-1.723.55-2.111.452-4.32.984-6.433.217-.943.052-1.921.24-2.868.252-1.231.08-2.49.208-3.731.165-1.668.229-3.342.306-5.012-1.543-.078-3.091.046-4.583.435-.761.183-1.26.795-1.873 1.228-.245.44-.518.865-.815 1.272-.504 1.753-.957 3.578-.623 5.409.268 1.228.286 2.492.597 3.709.489 1.527 1.176 2.987 1.587 4.539.653.922.774 2.088.72 3.188-1.785.301-3.6.018-5.398.054-1.263-.088-2.585.198-3.786-.309-1.006-.69-1.353-1.921-1.61-3.046-.016-4.423-.147-8.867.442-13.264.087-1.944.198-3.908.759-5.78.187-1.248.313-2.515.781-3.694.348-1.99 1.17-3.841 1.953-5.69.188-.247.362-.504.501-.782.772-1.35 1.914-2.428 3.267-3.175Zm1.206 5.731-.39.476c-.263 1.306-.89 2.5-1.001 3.842-.093 1.869-.677 3.686-.543 5.571 1.19-.891 2.4-1.751 3.69-2.49a13.742 13.742 0 0 0 1.783-.684c1.13-.338 2.31-.425 3.483-.477-.19-2.446.604-4.907.002-7.33-.103-.597-.558-1.04-.838-1.557-.656-.304-1.268-.824-2.022-.816-1.883.252-3.65 1.593-4.164 3.465Zm43.542-5.393c5.844-.003 11.68-.443 17.524-.4.697-.08 1.353.564 1.26 1.27-.002 4.212-.008 8.426.003 12.641.028.659-.147 1.305-.363 1.92-.414.618-1.093.966-1.661 1.416-.348.003-.692.008-1.037.013-.239-.391-.651-.747-.62-1.246-.036-2.152.077-4.307-.162-6.452.039-1.514-.607-2.883-1.108-4.27-.33-.403-.571-.866-.875-1.285-.419-.35-.9-.62-1.34-.943-.854.137-1.144 1.071-1.098 1.825.008 3.525-.129 7.057.11 10.574.27 1.784.072 3.594.409 5.37-.069 1.501.27 2.961.504 4.431-.01 1.3.317 2.57.332 3.87.448 2.085.751 4.212.744 6.351-.52.389-1.117.711-1.785.682-2.331.044-4.664.041-6.991.054-.731.044-1.456-.239-1.929-.798-.378-1.176.2-2.348.357-3.506.059-1.223.329-2.42.363-3.646.702-2.937.532-5.983 1.09-8.944.214-1.197.083-2.417.191-3.622.249-2.737.126-5.489.154-8.231-.033-1.274.136-2.574-.208-3.823-.682-.463-1.376-.147-1.963.299-1.077 1.498-1.823 3.257-1.965 5.113-.545 2.438-.219 4.945-.375 7.414-.052 1.141-1.451 1.051-2.21.721-.406-.499-.949-.849-1.435-1.264-.069-.765-.314-1.511-.288-2.286.01-3.774.003-7.551.003-11.325-.026-.533.162-1.035.29-1.542 1.286-.554 2.721-.299 4.079-.381Zm-20.188.406c2.279-.42 4.622-.625 6.935-.352 1.391.11 2.914.046 4.148.8.119.018.353.05.471.067.929.317 1.517 1.146 2.142 1.851.152.286.34.549.535.806a6.061 6.061 0 0 1 .006 3.283c-.438.659-.998 1.204-1.598 1.714-.985.386-2.258.533-3.204 0-.466-.795-.497-1.792-.865-2.646-.326-.544-.689-1.074-1.144-1.52-.466-.347-1.019-.56-1.479-.916-1.062-.09-2.143-.172-3.195.046-.879.39-1.797 1.005-2.011 2.009-.255.69.08 1.395.224 2.069 1.54 2.436 4.053 3.968 6.309 5.659a42.501 42.501 0 0 0 2.523 1.864c1.027.837 2.41 1.352 2.994 2.642.342.435.78.79 1.062 1.271.51.652.98 1.339 1.384 2.065 1.79 3.285 2.222 7.363.772 10.852-.504 1.287-1.446 2.376-2.616 3.105-1.129.388-2.281.808-3.495.767l-10.806-.057c-1.149 0-2.284-.25-3.382-.571-1.173-.456-1.471-1.787-1.728-2.886-.06-2.75 0-5.507-.029-8.259-.054-1.373.384-2.706.859-3.975.296-.201.574-.428.844-.662.651.046 1.538-.237 1.95.44.262.299.185.721.221 1.084-.018 1.758.396 3.481.815 5.175.553.955 1.091 1.977 2.104 2.523 1.541 1.037 3.503.883 5.234.51.453-.335.98-.559 1.435-.891.353-.404.597-.888.908-1.326.366-1.444.317-3.064-.542-4.33-1.477-2.289-3.866-3.72-5.867-5.492-.993-.937-2.3-1.424-3.223-2.433a5.558 5.558 0 0 0-.774-.775c-.924-.942-1.649-2.036-2.343-3.151a22.91 22.91 0 0 1-.672-2.685c-.241-1.367.299-2.693.641-3.993.748-1.344 1.878-2.415 3.21-3.17l.445-.061c.265-.152.532-.304.802-.45Zm-17.57 39.653c.656-.178 1.325-.319 2.01-.294h16.736c.416-.02.82.137 1.173.353.193.636.144 1.316.164 1.975-.023 3.434.041 6.874-.072 10.305-.015.819-.571 1.44-1.09 2.006-.435.167-.88.314-1.351.311l-.64-.36c-.052-2.623.118-5.28-.383-7.868-.512-1.325-.839-2.878-2.086-3.728-.317-.329-.751-.442-1.194-.435l-.445.683c-.02 2.775-.002 5.553-.007 8.331-.085 2.116.329 4.207.306 6.323.627 2.878.452 5.859 1.19 8.714.067 1.267.482 2.513.266 3.79-.471.623-1.341.484-2.022.497-2.073-.059-4.133.234-6.201.229-.55-.036-1.328-.316-1.263-.996.09-1.576.355-3.146.722-4.683.016-1.205.322-2.379.33-3.581.064-1.295.542-2.541.499-3.847-.036-.945.162-1.869.239-2.803.059-3.782.162-7.564.1-11.346.013-.446-.172-.847-.383-1.223a44.238 44.238 0 0 0-.54-.067c-1.086.688-1.703 1.8-2.202 2.945a56.649 56.649 0 0 0-.648 3.27c-.244 2.018-.02 4.057-.183 6.081-1.077.819-2.407.002-3.022-.991-.154-.585-.347-1.167-.311-1.779.013-3.522 0-7.047.008-10.569-.018-.437.182-.834.3-1.243Zm22.331-.306c1.703.048 3.411-.037 5.111.038.718.386.694 1.316.643 2.021-.332 4.459-.37 8.936-.314 13.408.01 2.055.466 4.071.546 6.12.169 2.049.805 4.006 1.008 6.055.473.693.514 1.527.468 2.338-.228.216-.452.437-.671.661-2.837-.049-5.677.129-8.514 0-.213-.476-.656-.947-.432-1.501.507-1.459.53-3.025 1.036-4.479.278-1.694.312-3.422.677-5.103.301-1.437.152-2.912.185-4.366-.026-3.52.049-7.044-.036-10.564-.018-1.524-.826-3.328.293-4.628Zm8.223.002c1.376.013 2.755.026 4.133-.008.898.672.579 1.893.661 2.856.139 1.797.006 3.609.327 5.391-.002 1.176.1 2.345.425 3.48.231 1.602.324 3.236.841 4.784.154 1.552.779 2.981 1.129 4.487.481 1.004.954 2.003 1.564 2.938.342.162.699.363 1.095.28.7-.831.967-1.905 1.309-2.909.571-1.099.52-2.379.885-3.543.404-1.248.172-2.572.27-3.856a87.792 87.792 0 0 0-.074-5.157c-.35-1.261-.525-2.554-.785-3.833-.288-.798-.594-1.589-.766-2.42-.345-.734-1.135-1.841-.276-2.495 1.644.051 3.293-.031 4.936.039 1.078.126 1.592 1.251 1.67 2.216.318 2.67.704 5.363.414 8.064-.35 2.726-.214 5.519-.973 8.179-.115 1.835-.848 3.527-1.142 5.329-.558.85-.573 1.931-1.139 2.781-.278.429-.208 1.166-.8 1.294-.185.755-.756 1.28-1.173 1.903-.545.312-1.021.899-1.7.85-1.631-.013-3.264.02-4.892-.016-.558-.129-.988-.559-1.476-.834-.296-.458-.664-.865-.944-1.334a52.86 52.86 0 0 0-.651-.803l-.072-.448c-.556-.749-.607-1.707-.959-2.543-.494-1.105-.43-2.356-.875-3.473-.383-1.38-.327-2.845-.72-4.225-.329-1.066-.198-2.199-.458-3.28-.082-1.9.054-3.808-.249-5.695-.054-2.369-.157-4.737-.029-7.103.165-.299.327-.597.494-.896Zm26.243.35c2.443-.594 4.974-.25 7.464-.34 1.615.085 3.287-.208 4.859.273.506 1.058.229 2.269.236 3.399-.249 4.261-.231 8.537-.141 12.805.254 2.781.136 5.615.88 8.329.216 1.223.21 2.51.75 3.65.186.968.379 1.988.029 2.946-1.952.064-3.907 0-5.859-.018-1.104-.139-2.431.064-3.305-.757-.083-.981-.132-2.008.192-2.956-.051-1.269.525-2.448.546-3.707-.016-1.31.365-2.588.27-3.903.123-2.049.352-4.094.38-6.15-2.026.048-4.246.337-5.717 1.871-1.137 1.326-1.281 3.123-1.25 4.796.118 1.347.167 2.698.463 4.024.576.971.671 2.148 1.311 3.095.317.916.849 1.776.893 2.77l-.265.412c-2.202.031-4.408.036-6.61-.015-.916-.021-1.626-.531-2.287-1.102-.681-1.867-.486-3.885-.452-5.832.025-1.537.19-3.068.154-4.605-.072-1.653.28-3.283.337-4.931.527-1.624.463-3.385 1.096-4.979.262-.875.288-1.845.818-2.623.11-.425.247-.844.372-1.264a9.77 9.77 0 0 0 .777-1.555c.484-.729.944-1.468 1.577-2.083.687-.731 1.574-1.156 2.482-1.55Zm2.894 2.256c-.456.344-.993.566-1.438.924-.525.592-1.011 1.243-1.299 1.987-.551.873-.62 1.926-1.021 2.861-.44 1.817-.453 3.699-.494 5.56.561-.612 1.276-1.058 1.973-1.498.285-.134.532-.332.779-.528.53-.182 1.057-.383 1.559-.646 1.103-.466 2.322-.396 3.477-.651-.123-2.201.517-4.408-.033-6.588a5.448 5.448 0 0 0-1.358-1.437 12.392 12.392 0 0 0-2.145.016Zm13.315-2.32c1.255-.35 2.567-.134 3.85-.167 1.22.056 2.464-.104 3.666.18-.083.466-.232.914-.381 1.362-.548.7-.754 1.586-1.152 2.368-.469 2.667-.26 5.394-.299 8.089-.056 2.513.214 5.013.309 7.518.375 1.928.247 4.024 1.265 5.767.35.829 1.137 1.377 2.009 1.537.895-.059 1.677-.716 1.993-1.542.955-2.073.916-4.47.726-6.702-.034-1.143-.6-2.119-1.011-3.151a55.643 55.643 0 0 1-.412-.311c-.012-.4-.023-.801-.025-1.2.222-.197.44-.399.653-.605 1.312-.379 2.837-.134 3.722.975.432.587.831 1.221.964 1.952.216 1.153.605 2.284.579 3.473 0 3.437 0 6.876.003 10.316.036.729-.386 1.357-.61 2.021-1.003.538-2.176.221-3.256.286-1.469.072-2.909-.322-4.375-.263-2.019.057-4.013-.322-6.019-.466a5.354 5.354 0 0 1-1.623-.345c-.427-.875-.787-1.812-.756-2.803-.046-5.24.563-10.458.432-15.697.123-3.88-.594-7.731-.514-11.609-.018-.35.154-.664.262-.983Zm-113.15.613c.267-.564.967-.569 1.5-.593 4.04-.079 8.08-.015 12.121-.043.955-.08 1.783.471 2.68.685.263.157.512.329.762.507.483.301.764.811 1.13 1.233.413 1.089.374 2.276.004 3.372-.468.546-.92 1.151-1.638 1.375-.906.42-1.888-.056-2.61-.615-.279-.916-.824-1.71-1.184-2.59-.453-.26-.887-.551-1.325-.839-1.435-.35-2.919-.397-4.344.031-.314.401-.75.684-1.052 1.096-.723.832-.733 1.996-1.003 3.012-.229 2.258-.067 4.537-.123 6.805.357-.188.65-.451.815-.824.43-.252.733-.651 1.09-.991.412-.78 1.338-1.027 2.01-1.534.251-.08.503-.158.76-.23 1.186-.795 2.686-.324 4.016-.445.679.381 1.702.862 1.46 1.82-.182.739-.195 1.872-1.09 2.098-.972.356-1.98-.149-2.973-.015-1.459.275-2.958.685-4.033 1.776-.036.438-.183.847-.5 1.164-.084.255-.174.51-.27.762-.792 2.688-.596 5.579.253 8.226.46.715.982 1.508 1.893 1.658.974.031 1.95.036 2.922 0 1.317-.384 2.639-1.136 3.297-2.397.144-.299.337-.569.53-.837.6-1.624.015-3.463.766-5.036.54-.916 1.631-.257 2.305.111.243.523.513 1.033.81 1.527.453 2.796.244 5.63.27 8.449.013.672-.167 1.326-.265 1.988-.694.96-1.895 1.488-3.07 1.377-1.878.306-3.794.134-5.662.51-.856.147-1.72.263-2.59.247-.939-.008-1.85.288-2.788.255-1.325-.067-2.598.376-3.91.453-.638.064-1.07-.461-1.51-.826.029-1.942-.056-3.888.1-5.827.274-4.021.451-8.05.42-12.079-.023-4.377.06-8.753-.072-13.128-.013-.563-.013-1.135.098-1.688Zm27.063-.587c2.202-.232 4.414-.186 6.618-.011 1.73.497 3.742 1.002 4.604 2.773.479 1.285.507 3.035-.638 3.991-.244.216-.499.417-.746.63-.882.345-1.831.312-2.762.312-.653-.559-.46-1.504-.86-2.207-.352-1.076-1.218-1.84-2.16-2.402-1.039-.193-2.088-.164-3.13 0-.458.374-1.127.551-1.345 1.154-.11.108-.327.329-.435.44.008.569-.054 1.148.06 1.712.825 1.743 2.438 2.884 3.914 4.034 2.68 1.885 5.563 3.62 7.693 6.156.489.657 1.01 1.295 1.386 2.026.656 1.069.937 2.297 1.317 3.476.07 1.3.047 2.605.01 3.905-.28 1.254-.858 2.436-1.594 3.489-1.029 1.104-2.487 1.812-4.002 1.879-2.776-.026-5.515.633-8.293.523-1.69.087-3.395.435-5.064-.044-.247-.219-.491-.443-.8-.564-.463-1.014-.73-2.129-.692-3.246.062-3.154-.239-6.385.703-9.444.622-.396 1.221-.945 2.018-.872.242.231.494.455.757.666.015 1.339.188 2.668.303 3.999.355 1.408 1.032 2.814 2.325 3.586 1.585.667 3.375.443 4.972-.052a7.914 7.914 0 0 0 1.623-1.709 5.658 5.658 0 0 0 .003-3.344c-.96-1.813-2.624-3.043-4.221-4.256-2.006-1.594-4.19-3.025-5.803-5.054-1.862-2.067-2.106-5.151-1.188-7.7.476-.559.733-1.277 1.286-1.774.489-.548 1.196-.811 1.752-1.28.805-.241 1.592-.535 2.389-.792Zm104.413-.044c3.835 0 7.67.002 11.507-.003 1.95-.059 4.057.325 5.577 1.627 1.106 1.082 1.36 2.719.977 4.179-.152.646-.705 1.058-1.06 1.586-.838.473-1.8.363-2.664.031a43.067 43.067 0 0 0-.723-.811c-.28-.917-.743-1.769-1.232-2.585-1.551-1.288-3.732-1.38-5.61-.888-.645.401-1.209.885-1.638 1.516-1.008 2.945-.522 6.094-.618 9.142 1.094-1.161 2.382-2.101 3.727-2.93 1.225-.314 2.457-.901 3.748-.651.759.144 1.512.35 2.232.641.145.291.378.517.62.731.09.976-.067 1.964-.596 2.804-1.081.309-2.179-.026-3.269-.06-1.001-.028-2.017.055-2.966.387-.921.504-1.61 1.254-2.117 2.167-.784 2.696-.62 5.605.005 8.316.329.435.564.94.921 1.357.404.366.89.625 1.307.978 1.546.018 3.094.088 4.64-.015.442-.224.8-.585 1.221-.847 1.672-1.887 1.137-4.542 1.706-6.807.455-.031.915-.047 1.376-.06.802.394 1.098 1.249 1.584 1.937.111.731.342 1.452.314 2.201-.01 2.963-.003 5.926-.005 8.89-.324.947-1.35 1.459-2.307 1.41-1.479-.059-2.907-.584-4.396-.517-1.029.033-2.029-.299-3.058-.258-1.744.06-3.429-.551-5.17-.512-1.114.044-2.197-.247-3.305-.28-.872-.065-1.394-.981-1.425-1.782.054-3.265.424-6.521.37-9.788v-20.614c.08-.124.245-.371.327-.492Zm-150.767.52c4.015-.175 8.035-.188 12.05-.312 1.405-.082 2.804.206 4.139.621.607.492 1.327.873 1.736 1.568.68.939.684 2.134.489 3.231-.332.831-.9 1.537-1.592 2.095-.685.026-1.369.024-2.053-.018-.144-.082-.432-.244-.576-.327-.375-.883-.923-1.683-1.16-2.62-.29-.26-.56-.544-.805-.848-1.121-.414-2.294-.895-3.516-.702-1.16.247-2.425.597-3.074 1.686-.257.667-.573 1.323-.748 2.018-.178 2.789-.013 5.582-.147 8.37.052-.116.152-.345.204-.458 1.175-1.097 2.242-2.34 3.647-3.172.653-.234 1.27-.561 1.918-.811 1.099-.116 2.207-.059 3.308-.013.352.286.718.554 1.086.821.035.987.123 2.029-.276 2.959-.568.267-1.134.687-1.805.525-1.364-.258-2.77-.052-4.08.37-.887.575-1.702 1.229-2.284 2.127-.228.803-.65 1.545-.812 2.364-.039 1.459-.057 2.924.02 4.381.414 1.262.502 2.619 1.086 3.826.655 2.178 1.581 4.251 2.417 6.364.142.391-.26.721-.614.765-2.382.656-4.887.476-7.292 1.001-.702.222-1.297-.252-1.811-.654.036-3.658-.056-7.316.072-10.972.15-6.941.077-13.884.093-20.825.028-1.125-.162-2.32.38-3.36Zm171.312.51c.525-.958 1.834-.87 2.786-.842 1.253.118 2.737-.258 3.763.674.45.662.944 1.311 1.214 2.075.502.719.659 1.607 1.142 2.338.574 1.686 1.407 3.272 1.955 4.976a7.34 7.34 0 0 1 .722 1.97c.139.265.281.53.425.798.55 2.029 1.396 3.967 1.911 6.014.322.803.627 1.625.73 2.492.186.371.44.698.739.989-.005-2.531.046-5.064-.024-7.595-.295-1.424-.072-2.912-.545-4.299-.288-1.221-.29-2.5-.663-3.702-.389-1.043-.443-2.184-.926-3.195-.335-1.035-.646-2.15-.43-3.242 1.631-.116 3.263.059 4.897.031.695.031 1.449-.134 2.09.232.169 5.079-.622 10.128-.533 15.207-.013 4.292.239 8.581.511 12.863-.032 2.556.062 5.113 0 7.669a17.72 17.72 0 0 0-.669.415c-1.096.074-2.124-.412-3.217-.35-.759.069-1.376-.402-1.898-.886-.227-1.692-.957-3.249-1.222-4.93-.568-1.048-.43-2.389-1.165-3.327-.144-.659-.25-1.341-.538-1.954-.458-.836-.437-1.861-1.008-2.646-.113-.435-.252-.865-.355-1.3a55.492 55.492 0 0 1-.424-.788c-.108-.425-.242-.842-.358-1.264-.838-1.475-1.24-3.177-2.091-4.657a17 17 0 0 1-.229-.76c-.103-.118-.306-.358-.409-.476-.113-.376-.239-.749-.36-1.12-.226-.268-.447-.541-.566-.873-.306-.003-.609 0-.908.005-.033 3.448-.141 6.949.728 10.306.121 1.905.81 3.684 1.109 5.556.612.952.519 2.157 1.039 3.148.319.685.337 1.473.663 2.158.402.785.587 1.668.595 2.549-1.546.185-3.1-.119-4.635-.268-1.122.051-2.21-.232-3.264-.567a41.607 41.607 0 0 1-.582-.332c-.331-1.32-.375-2.69-.187-4.037.252-1.603.059-3.233.272-4.842.502-5.059.415-10.151.108-15.221-.164-2.994-.329-5.996-.193-8.992Z"/></g><defs><clipPath id="a"><path fill="#fff" d="M29 84h198.113v87H29z"/></clipPath></defs></svg>