<svg xmlns="http://www.w3.org/2000/svg" fill="none" viewBox="0 0 256 256"><path fill="#2A8DE1" d="M0 0h256v256H0z"/><path fill="#fff" d="M59.08 78.365C82.62 69.427 106.386 61.042 129.893 52c23.767 8.8 47.594 17.444 71.309 26.374-23.767 8.704-47.499 17.504-71.248 26.261a16203.507 16203.507 0 0 0-70.876-26.27ZM64.71 89.339c3.741 1.351 7.43 2.867 11.19 4.183.052 5.552.009 11.096.043 16.648-3.742-.018-7.492.051-11.233.043V89.339ZM106.249 105.492c7.328 2.789 14.707 5.44 22.017 8.246.901.26 1.863.901 2.824.485 7.483-2.737 14.906-5.638 22.433-8.246 2.694 8.792 5.682 17.479 8.497 26.236a30474.167 30474.167 0 0 1-23.351 71.776c-5.916.061-11.823-.156-17.739-.069a74734.23 74734.23 0 0 0-23.403-71.716c2.954-8.887 5.786-17.816 8.722-26.712ZM65.013 116.769c3.629-.043 7.266.026 10.904.044 3.37 6.92 6.635 13.892 10.013 20.813-5.267 10.645-9.96 21.61-15.608 32.047C65.264 158.95 60.05 148.305 55 137.574c3.387-6.912 6.687-13.867 10.013-20.805Z"/></svg>