<svg xmlns="http://www.w3.org/2000/svg" fill="none" viewBox="0 0 256 256"><path fill="#000" d="M0 0h256v256H0z"/><g clip-path="url(#a)"><mask id="b" width="224" height="53" x="16" y="102" maskUnits="userSpaceOnUse" style="mask-type:luminance"><path fill="#fff" d="M16.321 102.559h223.478v51.881H16.321v-51.881Z"/></mask><g fill="#fff" mask="url(#b)"><path d="M29.479 102.559h197.153c6.811.215 12.934 6.02 13.167 12.899v26.424c-.367 6.458-5.909 12.112-12.363 12.559H29.363c-6.937-.107-12.747-6.297-13.042-13.114v-25.458c.25-6.959 6.185-13.032 13.158-13.31Zm-2.288 2.8c-4.711 1.216-8.367 5.725-8.439 10.609-.035 8.354-.017 16.71-.009 25.064-.018 5.823 5.176 11.101 11.013 11.083 64.05.036 128.098-.009 192.156.018 2.878-.08 5.926.367 8.626-.868 4.023-1.69 6.973-5.823 6.946-10.233 0-8.346.017-16.692-.01-25.037.019-5.85-5.264-11.021-11.084-11.003-65.255-.035-130.511 0-195.767-.018a12.335 12.335 0 0 0-3.432.385Z"/><path d="M29.327 112.059c1.225-.573 2.673-.197 3.987-.296 7.16.233 14.329.019 21.498-.008 1.421.134 3.352-.304 4.068 1.333.134 1.645-.948 3.041-1.699 4.409-4.684 7.353-9.761 14.456-14.267 21.916 3.782.152 8.278.367 11.147-2.585 1.475-1.333 2.762-3.927 5.167-3.06 1.484 1.745.072 4.187-.134 6.182-.76 2.209-1 6.288-4.282 5.743-8.68-.108-17.36-.144-26.03.009-1.306.196-3.084-.322-2.861-1.986-.009-1.709 1.216-3.078 2.038-4.473 4.863-6.986 9.878-13.865 14.714-20.878-2.172-1.359-4.836-.635-7.125-.009-2.61.725-3.719 3.462-5.855 4.839-1.591.779-3.03-1.288-2.53-2.719.466-2.836.823-5.85 2.164-8.417Zm32.628.187c2.905-.822 5.935-.402 8.903-.42 6.785.179 13.57-.161 20.346 0 1.117 3.721.563 7.711.375 11.53-.724-.044-2.163-.143-2.887-.188-1.01-1.583-1.27-3.783-3.03-4.785-2.638-1.414-5.775-1.395-8.645-.823-.24 2.174-.956 4.598.08 6.664 3.165 2.228 3.514-5.143 6.955-2.531 1.323 4.258.17 8.936.626 13.355-1.18.357-3.004 1.065-3.763-.367-.84-1.887-1.333-4.455-3.889-4.553.188 2.657.116 5.331.367 7.979 1.126 2.621 4.747 1.538 6.91 1.127 2.967-.635 4.255-3.533 5.926-5.716 1.297-1.342 3.469.43 2.95 2.04-.313 3.023-.313 6.083-.795 9.079-.582 1.485-2.459.922-3.657 1.065-8.08-.215-16.161-.027-24.243-.027-2.976.76-3.468-4.034-.885-4.688 2.19-.805 1.36-3.506 1.61-5.286-.162-6.27.455-12.604-.438-18.829-2.369-.412-3.156-2.407-2.816-4.626Zm33.835-.035c4.138-.957 8.42-.045 12.612-.411 1.779.134 3.898-.537 5.426.617 1.145 1.762-.384 3.417-1.939 4.141-1.77.519-1.359 2.478-1.44 3.891.144 5.752-.223 11.522.197 17.256.456 2.737 4.032 1.851 5.981 1.726 3.092-.376 4.362-3.426 6.024-5.609.858-1.288 2.968-1.413 3.71.054.376 3.238-.455 6.467-.653 9.697.045 1.234-.732 2.388-2.127 2.102-8.644-.088-17.288-.091-25.932-.009-2.164.286-1.993-2.308-1.896-3.73 1.207-.895 3.013-1.718 2.665-3.552.062-6.565.017-13.14-.01-19.714.215-1.781-1.796-2.345-2.655-3.543l.037-2.916Zm33.03 3.489c-.286-1.629-.357-4.169 1.976-3.91 5.417.314 10.923-.483 16.287.421-.072.716-.206 2.155-.277 2.871-.957 1.369-3.54 1.53-3.371 3.596-.026 6.181-.187 12.38.099 18.552.125 3.158 4.04 2.442 6.168 2.183 3.369-.42 4.344-3.971 6.409-6.056 1.046-1.199 3.567-.375 3.281 1.315-.206 3.534-.215 7.165-1.153 10.591-1.296.698-2.825.349-4.229.43-7.455-.171-14.91-.108-22.366.009-1.314.152-3.298-.233-2.985-2.031-.59-2.469 3.183-2.862 2.789-5.304.107-6.584.036-13.168-.027-19.742.152-1.602-1.412-2.362-2.601-2.925Zm33.53-3.82c5.247-.322 10.513.125 15.76-.009 4.085.072 8.188-.385 12.255.08 1.404 3.498.474 7.604.483 11.325-.76.009-2.288.018-3.048.018-.599-1.807-1.18-3.882-2.923-4.92-2.628-1.413-5.766-1.395-8.627-.796-.205 2.254-1.161 5.009.376 6.977 3.057 1.145 2.914-4.41 5.962-3.148 1.708.232 1.091 2.379 1.279 3.551.008 3.372-.081 6.744.053 10.125-1.18.314-3.003 1.02-3.736-.402-.769-1.914-1.431-4.07-3.603-4.794-.312 2.728-.205 5.492.054 8.22 1.18 2.594 4.738 1.557 6.901 1.127 2.789-.608 4.21-3.166 5.64-5.358 1.207-1.95 3.889-.179 3.299 1.78-.429 3.149-.081 6.539-1.18 9.536-1.529.939-3.478.34-5.176.491-7.133-.178-14.267-.044-21.4.019-1.341.142-2.575-.296-3.692-.985-.25-2.298 1.162-3.604 3.03-4.579.697-3.22.268-6.566.394-9.831-.134-4.472.348-9.008-.447-13.435-2.45-.153-4.139-3.802-1.654-4.992Zm32.878 2.352c-.134-1.082.393-2.54 1.707-2.432 5.945-.027 11.899.151 17.852-.045 4.273-.215 9.1 1.413 10.995 5.555 2.298 4.383.206 10.215-4.416 12.04 2.718 2.826 5.042 6.002 7.643 8.936.983 1.261 2.959 1.324 3.754 2.737.054 2.138-1.314 4.231-3.513 4.58-3.039.125-6.087-.027-9.135.054-1.368.277-2.011-1.163-2.53-2.12-2.047-4.061-3.603-8.373-5.962-12.273-1.618-.483-1.457 1.512-1.645 2.549-.117 2.603-.286 6.369 2.869 7.21 2.128.564 1.305 3.06 1.261 4.625-5.775-.063-11.558.035-17.324-.045-1.735-.295-1.493-2.218-1.592-3.524 1.458-1.163 2.7-2.666 2.673-4.643.518-6.244.268-12.541.233-18.793.295-2.246-3.228-2.219-2.87-4.411Zm15.161 3.543c-.652 2.746-1.037 6.029.715 8.453 1.752-.707 3.656-1.798 3.701-3.954.518-2.299-1.86-6.118-4.416-4.499Z"/></g></g><defs><clipPath id="a"><path fill="#fff" d="M16 102h223.925v52.964H16z"/></clipPath></defs></svg>