<svg width="272" height="30" viewBox="0 0 272 30" fill="none" xmlns="http://www.w3.org/2000/svg">
<path d="M21.4904 0.289856V29.2336H18.5919V15.6934H2.89851V29.2336H0V0.289856H2.89851V13.2918H18.5919V0.289856H21.4904Z" fill="white"/>
<path d="M44.0454 22.36L37.4617 4.30637L30.8779 22.36L28.352 29.2336H25.2879L35.8468 0.662522H39.1179L49.6354 29.2336H46.5713L44.0454 22.36Z" fill="white"/>
<path d="M56.3576 26.8734H66.7509V29.2336H53.4591V0.289856H56.3576V26.8734Z" fill="white"/>
<path d="M72.9577 26.8734H83.351V29.2336H70.0592V0.289856H72.9577V26.8734Z" fill="white"/>
<path d="M89.5579 0.289856V29.2336H86.6594V0.289856H89.5579Z" fill="white"/>
<path d="M117.115 29.2336H114.217L98.1919 4.88607V29.2336H95.2934V0.289856H98.1919L114.217 24.596V0.289856H117.115V29.2336Z" fill="white"/>
<path d="M156.114 0V29.1922H147.998V13.0847L142.491 29.1922H135.7L130.151 12.9605V29.1922H122.036V0H131.849L139.178 18.9646L146.342 0H156.114Z" fill="white"/>
<path d="M168.021 6.50095V11.2628H177.338V17.4325H168.021V22.6912H178.58V29.1922H159.906V0H178.58V6.50095H168.021Z" fill="white"/>
<path d="M193.315 0C196.379 0 199.057 0.62111 201.348 1.86333C203.667 3.07794 205.447 4.78945 206.69 6.99784C207.932 9.20623 208.553 11.7321 208.553 14.5754C208.553 17.3911 207.918 19.9031 206.648 22.1115C205.406 24.3199 203.626 26.059 201.307 27.3288C199.016 28.571 196.352 29.1922 193.315 29.1922H181.762V0H193.315ZM192.694 22.0287C195.068 22.0287 196.931 21.38 198.284 20.0825C199.637 18.7851 200.313 16.9494 200.313 14.5754C200.313 12.1738 199.637 10.3242 198.284 9.0268C196.931 7.70176 195.068 7.03924 192.694 7.03924H189.878V22.0287H192.694Z" fill="white"/>
<path d="M219.499 0V29.1922H211.383V0H219.499Z" fill="white"/>
<path d="M240.745 22.4005L231.409 26.4601L229.835 29.1922H221.305L231.947 0H241.305L251.905 29.1922H243.334L240.745 22.4005ZM239.422 15.4912L236.584 8.77835L232.318 19.5508L239.422 15.4912Z" fill="white"/>
<path d="M267.818 29.5234C266.576 29.5234 265.554 29.1646 264.754 28.4468C263.981 27.7015 263.594 26.7905 263.594 25.7139C263.594 24.6097 263.981 23.685 264.754 22.9397C265.554 22.1943 266.576 21.8217 267.818 21.8217C269.032 21.8217 270.026 22.1943 270.799 22.9397C271.6 23.685 272 24.6097 272 25.7139C272 26.7905 271.6 27.7015 270.799 28.4468C270.026 29.1646 269.032 29.5234 267.818 29.5234Z" fill="white"/>
</svg>
