<svg xmlns="http://www.w3.org/2000/svg" fill="none" viewBox="0 0 256 256"><path fill="#fff" d="M38.976 70.041v52.495H33.72V97.978H5.257v24.558H0V70.041h5.257v23.581h28.462v-23.58h5.257ZM79.883 110.069l-11.94-32.743-11.94 32.743-4.582 12.467h-5.557l19.15-51.819h5.933l19.075 51.819h-5.557l-4.582-12.467ZM102.214 118.255h18.85v4.281H96.957V70.041h5.257v48.214ZM132.321 118.255h18.85v4.281h-24.107V70.041h5.257v48.214ZM162.428 70.041v52.495h-5.257V70.041h5.257ZM212.407 122.536h-5.257l-29.063-44.159v44.159h-5.257V70.041h5.257l29.063 44.083V70.041h5.257v52.495Z"/><path fill="#FF3030" d="M248.415 123.136c-2.253 0-4.105-.65-5.557-1.952-1.402-1.352-2.103-3.004-2.103-4.957 0-2.002.701-3.68 2.103-5.031 1.452-1.352 3.304-2.028 5.557-2.028 2.203 0 4.005.676 5.407 2.028 1.452 1.351 2.178 3.029 2.178 5.031 0 1.953-.726 3.605-2.178 4.957-1.402 1.302-3.204 1.952-5.407 1.952ZM61.845 134.014v52.945h-14.72v-29.214l-9.988 29.214H24.821L14.758 157.52v29.439H.038v-52.945h17.799l13.292 34.395 12.992-34.395h17.724ZM83.44 145.804v8.637h16.898v11.19H83.441v9.537h19.15v11.791h-33.87v-52.945h33.87v11.79h-19.15ZM129.315 134.014c5.558 0 10.414 1.126 14.569 3.379 4.206 2.203 7.435 5.307 9.688 9.313 2.253 4.005 3.38 8.586 3.38 13.743 0 5.106-1.152 9.662-3.455 13.668-2.253 4.005-5.482 7.159-9.688 9.462-4.155 2.253-8.987 3.38-14.494 3.38h-20.952v-52.945h20.952Zm-1.126 39.953c4.305 0 7.685-1.177 10.138-3.53 2.453-2.353 3.68-5.683 3.68-9.988 0-4.356-1.227-7.71-3.68-10.064-2.453-2.403-5.833-3.604-10.138-3.604h-5.107v27.186h5.107ZM176.804 134.014v52.945h-14.719v-52.945h14.719ZM214.871 174.994l-16.467 7.01-2.854 4.955h-15.47l19.3-52.945h16.972l19.226 52.945h-15.546l-5.161-11.965Zm-1.84-11.964-5.24-13.095-6.725 19.537 11.965-6.442Z"/></svg>